<?xml version="1.0"?><svg  viewBox="0 0 200 200" width="180mm" height="180mm" xmlns="http://www.w3.org/2000/svg"  version="1.2" viewport-fill="#fff">
  <polyline points="68.214,115.836,68.293,115.925,68.373,116.015,68.454,116.104,68.537,116.194,68.621,116.284,68.707,116.374,68.794,116.465,68.883,116.555,68.973,116.646,69.064,116.737,69.157,116.828,69.252,116.919,69.348,117.011,69.446,117.102,69.545,117.194,69.646,117.286,69.749,117.378,69.853,117.470,69.959,117.562,70.067,117.654,70.176,117.746,70.287,117.838,70.400,117.930,70.514,118.022,70.630,118.115,70.748,118.207,70.868,118.299,70.990,118.391,71.113,118.483,71.238,118.575,71.366,118.666,71.494,118.758,71.625,118.850,71.758,118.941,71.893,119.032,72.029,119.123,72.167,119.214,72.308,119.304,72.450,119.394,72.594,119.484,72.740,119.574,72.888,119.663,73.038,119.752,73.190,119.841,73.344,119.929,73.500,120.017,73.658,120.104,73.818,120.191,73.980,120.277,74.144,120.363,74.310,120.448,74.478,120.532,74.648,120.616,74.820,120.700,74.993,120.782,75.169,120.864,75.347,120.945,75.526,121.025,75.708,121.105,75.892,121.183,76.077,121.261,76.264,121.338,76.454,121.413,76.645,121.488,76.838,121.562,77.032,121.634,77.229,121.706,77.427,121.776,77.627,121.845,77.829,121.912,78.032,121.979,78.238,122.044,78.444,122.107,78.653,122.169,78.863,122.230,79.074,122.289,79.287,122.346,79.501,122.402,79.716,122.456,79.933,122.508,80.151,122.559,80.371,122.607,80.591,122.654,80.813,122.699,81.035,122.741,81.259,122.782,81.483,122.820,81.708,122.856,81.933,122.890,82.160,122.922,82.387,122.951,82.614,122.978,82.841,123.002,83.069,123.024,83.297,123.043,83.525,123.060,83.753,123.073,83.981,123.085,84.208,123.093,84.435,123.099,84.662,123.101,84.887,123.101,85.112,123.098,85.336,123.091,85.559,123.082,85.781,123.070,86.002,123.054,86.221,123.035,86.438,123.013,86.653,122.988,86.867,122.960,87.078,122.928,87.288,122.893,87.494,122.855,87.699,122.813,87.900,122.768,88.099,122.719,88.294,122.668,88.486,122.612,88.675,122.554,88.860,122.492,89.042,122.426,89.219,122.358,89.393,122.285,89.562,122.210,89.727,122.131,89.887,122.049,90.042,121.964,90.193,121.875,90.338,121.783,90.478,121.689,90.613,121.591,90.742,121.489,90.866,121.385,90.983,121.278,91.095,121.168,91.201,121.056,91.300,120.940,91.394,120.822,91.480,120.701,91.561,120.578,91.634,120.452,91.701,120.323,91.761,120.193,91.814,120.060,91.860,119.925,91.900,119.788,91.932,119.649,91.957,119.508,91.975,119.366,91.986,119.221,91.989,119.076,91.986,118.928,91.975,118.780,91.957,118.630,91.932,118.479,91.900,118.327,91.861,118.174,91.815,118.020,91.762,117.865,91.702,117.710,91.635,117.554,91.562,117.397,91.482,117.241,91.395,117.084,91.302,116.927,91.202,116.770,91.097,116.612,90.985,116.455,90.867,116.299,90.743,116.142,90.614,115.986,90.479,115.830,90.339,115.675,90.193,115.521,90.042,115.367,89.887,115.214,89.726,115.062,89.561,114.911,89.391,114.761,89.217,114.612,89.039,114.464,88.857,114.317,88.671,114.172,88.481,114.027,88.287,113.884,88.091,113.743,87.891,113.603,87.688,113.464,87.482,113.326,87.273,113.191,87.062,113.056,86.848,112.924,86.632,112.793,86.414,112.663,86.194,112.536,85.972,112.410,85.748,112.285,85.523,112.162,85.296,112.041,85.068,111.922,84.838,111.804,84.608,111.689,84.376,111.574,84.144,111.462,83.911,111.351,83.678,111.242,83.444,111.135,83.209,111.029,82.975,110.926,82.740,110.823,82.505,110.723,82.270,110.624,82.035,110.527,81.800,110.431,81.565,110.338,81.331,110.245,81.097,110.155,80.864,110.066,80.631,109.978,80.399,109.893,80.167,109.808,79.937,109.725,79.707,109.644,79.478,109.564,79.249,109.486,79.022,109.409,78.796,109.334,78.571,109.260,78.347,109.187,78.125,109.116,77.903,109.047,77.683,108.978,77.464,108.911,77.247,108.845,77.031,108.781,76.816,108.718,76.603,108.656,76.391,108.595,76.181,108.535,75.972,108.477,75.765,108.420,75.560,108.364,75.356,108.309,75.153,108.256,74.953,108.203,74.754,108.152,74.557,108.102,74.361,108.053,74.168,108.005,73.976,107.958,73.785,107.912,73.597,107.867,73.410,107.823,73.226,107.780,73.043,107.738,72.861,107.697,72.682,107.657,72.505,107.618,72.329,107.580,72.155,107.543,71.983,107.507,71.813,107.472,71.645,107.438,71.478,107.404,71.314,107.372,71.151,107.340,70.990,107.309,70.831,107.279,70.674,107.250,70.519,107.222,70.366,107.195,70.214,107.168,70.064,107.142,69.917,107.118,69.771,107.093,69.626,107.070,69.484,107.048,69.343,107.026,69.205,107.005,69.068,106.985,68.933,106.966,68.799,106.947,68.668,106.929,68.538,106.912,68.410,106.896,68.283,106.880,68.159,106.865,68.036,106.851,67.915,106.838,67.795,106.825,67.677,106.813,67.561,106.802,67.447,106.791,67.334,106.782,67.223,106.772,67.113,106.764,67.005,106.756,66.899,106.749,66.794,106.743,66.691,106.737,66.589,106.732,66.489,106.728,66.391,106.724,66.293,106.721,66.198,106.718,66.104,106.717,66.011,106.715,65.920,106.715,65.830,106.715,65.742,106.716,65.655,106.717,65.569,106.720,65.485,106.722,65.402,106.726,65.320,106.730,65.240,106.734,65.161,106.739,65.083,106.745,65.007,106.752,64.932,106.759,64.858,106.766,64.785,106.774,64.714,106.783,64.644,106.793,64.574,106.803,64.506,106.813,64.440,106.825,64.374,106.836,64.309,106.849,64.246,106.862,64.183,106.875,64.122,106.889,64.062,106.904,64.002,106.920,63.944,106.935,63.887,106.952,63.830,106.969,63.775,106.986,63.720,107.005,63.667,107.023,63.614,107.043,63.563,107.063,63.512,107.083,63.462,107.104,63.413,107.126,63.365,107.148,63.317,107.170,63.271,107.194,63.225,107.218,63.180,107.242,63.136,107.267,63.092,107.292,63.050,107.319,63.008,107.345,62.966,107.372,62.926,107.400,62.886,107.428,62.847,107.457,62.808,107.487,62.770,107.517,62.733,107.547,62.697,107.579,62.661,107.610,62.625,107.643,62.591,107.676,62.556,107.709,62.523,107.743,62.490,107.778,62.457,107.813,62.426,107.848,62.394,107.885,62.363,107.922,62.333,107.959,62.303,107.997,62.274,108.036,62.245,108.075,62.217,108.115,62.189,108.155,62.162,108.196,62.135,108.238,62.108,108.280,62.082,108.323,62.057,108.366,62.032,108.410,62.007,108.455,61.983,108.500,61.959,108.546,61.936,108.592,61.913,108.639,61.890,108.687,61.868,108.735,61.846,108.784,61.825,108.834,61.804,108.884,61.783,108.935,61.763,108.986,61.743,109.038,61.724,109.091,61.705,109.144,61.687,109.198,61.669,109.253,61.651,109.308,61.633,109.364,61.617,109.421,61.600,109.478,61.584,109.536,61.568,109.595,61.553,109.654,61.538,109.714,61.524,109.775,61.510,109.837,61.496,109.899,61.483,109.961,61.470,110.025,61.458,110.089,61.446,110.154,61.435,110.220,61.424,110.286,61.414,110.353,61.404,110.421,61.394,110.489,61.385,110.558,61.377,110.628,61.369,110.699,61.362,110.770,61.355,110.842,61.349,110.915,61.344,110.988,61.339,111.063,61.334,111.138,61.330,111.213,61.327,111.290,61.325,111.367,61.323,111.445,61.322,111.524,61.321,111.603,61.322,111.683,61.323,111.764,61.324,111.846,61.327,111.928,61.330,112.012,61.334,112.096,61.339,112.180,61.345,112.266,61.352,112.352,61.359,112.439,61.367,112.527,61.377,112.615,61.387,112.705,61.398,112.795,61.410,112.885,61.423,112.977,61.438,113.069,61.453,113.162,61.469,113.256,61.487,113.350,61.505,113.445,61.525,113.541,61.546,113.638,61.568,113.736,61.591,113.834,61.616,113.933,61.642,114.032,61.669,114.133,61.697,114.234,61.727,114.335,61.759,114.438,61.791,114.541,61.825,114.645,61.861,114.749,61.898,114.855,61.937,114.961,61.977,115.067,62.019,115.174,62.062,115.282,62.107,115.391,62.154,115.500,62.203,115.610,62.253,115.720,62.305,115.831,62.359,115.943,62.414,116.055,62.472,116.168,62.531,116.282,62.592,116.396,62.656,116.510,62.721,116.626,62.788,116.741,62.858,116.858,62.929,116.974,63.003,117.092,63.079,117.209,63.157,117.328,63.237,117.446,63.319,117.566,63.404,117.685,63.491,117.806,63.581,117.926,63.672,118.047,63.767,118.168,63.863,118.290,63.963,118.412,64.064,118.535,64.169,118.658,64.275,118.781,64.385,118.904,64.497,119.028,64.612,119.152,64.730,119.277,64.850,119.401,64.973,119.526,65.099,119.651,65.228,119.776,65.359,119.902,65.494,120.027,65.632,120.153,65.772,120.279,65.916,120.405,66.062,120.531,66.212,120.657,66.365,120.783,66.521,120.910,66.680,121.036,66.842,121.162,67.008,121.288,67.177,121.414,67.349,121.540,67.524,121.666,67.703,121.792,67.886,121.917,68.071,122.043,68.260,122.168,68.453,122.293,68.649,122.417,68.849,122.542,69.052,122.666,69.259,122.789,69.470,122.913,69.684,123.035,69.902,123.158,70.123,123.279,70.349,123.401,70.578,123.521,70.810,123.642,71.047,123.761,71.288,123.880,71.532,123.998,71.780,124.115,72.032,124.231,72.288,124.346,72.548,124.461,72.812,124.574,73.080,124.687,73.351,124.798,73.627,124.908,73.907,125.017,74.190,125.125,74.478,125.231,74.770,125.335,75.066,125.439,75.366,125.540,75.669,125.640,75.977,125.738,76.289,125.835,76.605,125.929,76.925,126.021,77.249,126.112,77.576,126.200,77.908,126.285,78.244,126.368,78.584,126.449,78.927,126.527,79.274,126.602,79.626,126.675,79.981,126.744,80.339,126.810,80.702,126.873,81.067,126.932,81.437,126.988,81.810,127.041,82.186,127.089,82.566,127.133,82.949,127.174,83.335,127.209,83.724,127.241,84.116,127.268,84.511,127.290,84.909,127.307,85.309,127.319,85.711,127.326,86.116,127.327,86.523,127.323,86.932,127.313,87.342,127.297,87.755,127.275,88.168,127.247,88.583,127.213,88.998,127.171,89.414,127.124,89.831,127.069,90.247,127.007,90.664,126.938,91.080,126.862,91.495,126.779,91.909,126.687,92.322,126.589,92.733,126.482,93.142,126.368,93.548,126.245,93.951,126.115,94.352,125.977,94.748,125.830,95.140,125.675,95.528,125.512,95.911,125.341,96.289,125.161,96.660,124.973,97.026,124.777,97.384,124.572,97.736,124.359,98.079,124.138,98.415,123.908,98.742,123.671,99.060,123.425,99.368,123.172,99.667,122.910,99.955,122.641,100.232,122.364,100.499,122.080,100.754,121.788,100.997,121.489,101.228,121.183,101.446,120.869,101.652,120.549,101.844,120.222,102.024,119.889,102.190,119.549,102.343,119.204,102.482,118.852,102.608,118.494,102.720,118.131,102.818,117.762,102.903,117.388,102.974,117.010,103.032,116.626,103.077,116.237,103.110,115.844,103.129,115.446,103.137,115.045,103.132,114.639,103.116,114.229,103.090,113.816,103.052,113.399,103.005,112.979,102.948,112.555,102.883,112.128,102.809,111.699,102.728,111.266,102.639,110.830,102.545,110.391,102.445,109.950,102.340,109.506,102.232,109.060,102.120,108.610,102.005,108.159,101.889,107.704,101.772,107.248,101.654,106.788,101.537,106.326,101.422,105.861,101.308,105.394,101.197,104.923,101.090,104.450,100.986,103.974,100.888,103.494,100.794,103.012,100.707,102.526,100.627,102.036,100.553,101.543,100.487,101.046,100.429,100.545,100.380,100.039,100.339,99.529,100.308,99.015,100.286,98.496,100.273,97.971,100.270,97.441,100.277,96.906,100.294,96.365,100.320,95.818,100.356,95.265,100.400,94.705,100.454,94.139,100.516,93.566,100.586,92.986,100.662,92.398,100.746,91.804,100.835,91.201,100.929,90.591"  style="fill:none;stroke:#000;stroke-width:0.1953;opacity:1"/>
  <polyline points="71.203,125.492,71.458,125.625,71.716,125.758,71.979,125.891,72.247,126.022,72.518,126.153,72.795,126.283,73.075,126.411,73.361,126.539,73.650,126.665,73.945,126.791,74.243,126.915,74.547,127.037,74.854,127.158,75.167,127.278,75.484,127.396,75.805,127.513,76.131,127.628,76.462,127.740,76.797,127.851,77.137,127.960,77.482,128.067,77.830,128.171,78.184,128.273,78.542,128.372,78.904,128.469,79.271,128.563,79.642,128.654,80.018,128.742,80.398,128.826,80.782,128.908,81.171,128.986,81.564,129.060,81.961,129.130,82.362,129.197,82.767,129.259,83.176,129.317,83.589,129.371,84.005,129.420,84.425,129.464,84.849,129.503,85.276,129.536,85.706,129.565,86.140,129.588,86.576,129.605,87.015,129.616,87.457,129.620,87.902,129.619,88.348,129.611,88.797,129.596,89.247,129.574,89.700,129.546,90.153,129.509,90.608,129.466,91.063,129.415,91.519,129.356,91.975,129.289,92.431,129.213,92.887,129.130,93.342,129.038,93.796,128.938,94.249,128.829,94.699,128.711,95.147,128.584,95.593,128.449,96.035,128.304,96.474,128.150,96.909,127.987,97.339,127.815,97.765,127.634,98.185,127.443,98.599,127.243,99.006,127.034,99.407,126.815,99.801,126.588,100.186,126.351,100.563,126.105,100.931,125.850,101.290,125.586,101.639,125.313,101.978,125.031,102.306,124.741,102.622,124.442,102.928,124.135,103.221,123.820,103.502,123.496,103.770,123.165,104.026,122.825,104.268,122.478,104.497,122.124,104.713,121.762,104.914,121.393,105.102,121.017,105.276,120.634,105.436,120.245,105.583,119.849,105.716,119.447,105.835,119.038,105.940,118.624,106.033,118.204,106.113,117.778,106.180,117.347,106.236,116.911,106.279,116.469,106.312,116.022,106.334,115.571,106.346,115.114,106.348,114.653,106.342,114.187,106.328,113.717,106.307,113.242,106.280,112.763,106.246,112.280,106.208,111.792,106.166,111.300,106.121,110.804,106.074,110.303,106.026,109.798,105.977,109.289,105.929,108.775,105.882,108.257,105.838,107.735,105.797,107.207,105.760,106.675,105.728,106.139,105.702,105.597,105.682,105.050,105.670,104.497,105.665,103.939,105.670,103.375,105.683,102.806,105.707,102.230,105.741,101.647,105.786,101.058"  style="fill:none;stroke:#000;stroke-width:0.1953;opacity:1"/>
  <polyline points="92.240,125.077,92.509,124.958,92.773,124.832,93.032,124.702,93.285,124.565,93.532,124.423,93.773,124.276,94.007,124.123,94.234,123.965,94.455,123.801,94.668,123.632,94.874,123.458,95.072,123.279,95.262,123.094,95.443,122.905,95.616,122.710,95.781,122.511,95.937,122.307,96.084,122.098,96.221,121.885,96.350,121.667,96.469,121.445,96.578,121.219,96.678,120.988,96.769,120.754,96.849,120.516,96.920,120.274,96.982,120.029,97.033,119.780,97.075,119.528,97.108,119.273,97.130,119.015,97.144,118.754,97.148,118.490,97.143,118.223,97.129,117.954,97.106,117.683,97.074,117.409,97.034,117.134,96.986,116.856,96.930,116.576,96.866,116.295,96.794,116.012,96.716,115.727,96.631,115.441,96.539,115.154,96.442,114.865,96.338,114.576,96.229,114.285,96.115,113.993,95.997,113.700,95.874,113.406,95.747,113.112,95.617,112.817,95.484,112.520,95.347,112.224,95.209,111.926,95.069,111.628,94.927,111.329,94.784,111.030,94.641,110.730,94.497,110.429,94.354,110.128,94.211,109.826"  style="fill:none;stroke:#000;stroke-width:0.1953;opacity:1"/>
  <polyline points="97.680,122.359,97.906,122.120,98.122,121.875,98.328,121.624,98.524,121.366,98.708,121.103,98.881,120.834,99.044,120.559,99.194,120.279,99.333,119.993,99.461,119.703,99.576,119.407,99.680,119.106,99.772,118.801,99.852,118.491,99.920,118.177,99.976,117.858,100.020,117.536,100.053,117.209,100.074,116.879,100.084,116.545,100.083,116.208,100.071,115.868,100.048,115.524,100.016,115.178,99.973,114.829,99.921,114.477,99.859,114.123,99.789,113.766,99.710,113.407,99.624,113.046,99.530,112.683,99.429,112.317,99.322,111.950,99.209,111.582,99.090,111.211,98.967,110.839,98.839,110.466,98.708,110.091,98.574,109.714,98.437,109.336,98.298,108.956,98.158,108.576,98.017,108.193,97.876,107.810,97.735,107.424,97.595,107.038,97.457,106.650,97.320,106.260,97.186,105.868,97.055,105.475,96.928,105.080,96.804,104.684,96.685,104.285,96.571,103.884,96.463,103.481,96.360,103.075,96.264,102.667,96.174,102.257,96.090,101.844,96.014,101.427,95.946,101.008,95.885,100.586,95.832,100.160,95.787,99.730,95.750,99.297,95.721,98.860"  style="fill:none;stroke:#000;stroke-width:0.1953;opacity:1"/>
  <polyline points="104.636,110.930,104.563,110.458,104.483,109.982,104.396,109.503,104.304,109.021,104.206,108.536,104.105,108.047,104.001,107.555,103.895,107.060,103.787,106.562,103.679,106.060,103.571,105.556,103.465,105.048,103.361,104.536,103.260,104.021,103.163,103.503,103.070,102.981,102.982,102.455,102.901,101.925,102.827,101.391,102.759,100.853,102.700,100.310,102.650,99.763,102.608,99.211,102.576,98.654,102.553,98.091,102.541,97.523,102.539,96.950,102.547,96.370,102.566,95.784,102.595,95.191,102.634,94.592,102.684,93.986,102.743,93.373,102.811,92.752,102.887,92.123,102.972,91.487,103.064,90.843,103.161,90.190,103.264,89.529,103.371,88.859,103.480,88.181,103.591,87.494,103.700,86.798,103.808,86.093,103.912,85.379,104.010,84.656,104.100,83.924,104.180,83.183"  style="fill:none;stroke:#000;stroke-width:0.1953;opacity:1"/>
  <polyline points="106.987,120.369,107.187,119.948,107.371,119.520,107.539,119.085,107.692,118.643,107.831,118.194,107.954,117.739,108.062,117.277,108.156,116.809,108.237,116.335,108.303,115.855,108.357,115.369,108.399,114.877,108.428,114.381,108.447,113.878,108.455,113.371,108.454,112.858,108.444,112.340,108.426,111.817,108.401,111.290,108.370,110.757,108.335,110.220,108.295,109.677,108.252,109.130,108.208,108.578,108.163,108.021,108.118,107.460,108.074,106.893,108.033,106.321,107.995,105.743,107.961,105.161,107.933,104.573,107.911,103.979,107.896,103.380,107.889,102.774,107.891,102.163,107.903,101.545,107.924,100.920,107.957,100.288,108.001,99.650,108.056,99.003,108.124,98.350,108.203,97.688,108.295,97.018,108.399,96.340,108.515,95.652,108.643,94.956,108.781,94.251,108.930,93.536,109.088,92.811,109.256,92.076,109.430,91.331,109.611,90.576"  style="fill:none;stroke:#000;stroke-width:0.1953;opacity:1"/>
  <polyline points="60.105,114.016,60.096,114.130,60.088,114.244,60.081,114.360,60.076,114.477,60.072,114.596,60.069,114.715,60.068,114.836,60.068,114.957,60.070,115.080,60.073,115.204,60.078,115.330,60.085,115.456,60.093,115.584,60.103,115.712,60.115,115.842,60.129,115.973,60.144,116.105,60.162,116.238,60.181,116.373,60.203,116.508,60.227,116.645,60.253,116.782,60.281,116.921,60.311,117.061,60.344,117.202,60.379,117.343,60.416,117.486,60.456,117.630,60.498,117.775,60.543,117.921,60.590,118.068,60.640,118.216,60.693,118.365,60.748,118.515,60.807,118.666,60.868,118.817,60.932,118.970,60.999,119.124,61.068,119.278,61.141,119.433,61.217,119.589,61.297,119.746,61.379,119.904,61.464,120.062,61.553,120.222,61.646,120.382,61.741,120.542,61.840,120.704,61.943,120.866,62.049,121.029,62.158,121.192,62.271,121.356,62.388,121.521,62.509,121.686,62.633,121.852,62.761,122.019,62.893,122.186,63.029,122.353,63.169,122.521,63.313,122.689,63.461,122.858,63.613,123.028,63.769,123.197,63.930,123.367,64.094,123.537,64.263,123.708,64.436,123.879,64.614,124.050,64.796,124.221,64.982,124.393,65.173,124.565,65.368,124.737,65.568,124.909,65.773,125.081,65.982,125.253,66.196,125.425,66.415,125.597,66.638,125.770,66.867,125.942,67.100,126.114,67.338,126.286,67.581,126.457,67.829,126.629,68.083,126.800,68.341,126.971,68.604,127.142,68.873,127.312,69.146,127.482,69.425,127.652,69.710,127.821,69.999,127.989,70.294,128.157,70.594,128.324,70.900,128.491,71.211,128.657,71.528,128.822,71.850,128.985,72.178,129.148,72.511,129.310,72.850,129.471,73.194,129.631,73.545,129.789,73.901,129.946,74.262,130.102,74.630,130.256,75.003,130.408,75.382,130.558,75.767,130.707,76.158,130.853,76.555,130.998,76.958,131.140,77.366,131.279,77.780,131.416,78.201,131.551,78.627,131.682,79.059,131.811,79.498,131.936,79.942,132.058,80.392,132.176,80.848,132.290,81.310,132.401,81.778,132.507,82.252,132.609,82.731,132.706,83.217,132.798,83.708,132.885,84.205,132.967,84.707,133.043,85.215,133.114,85.729,133.178,86.249,133.236,86.773,133.287,87.303,133.331,87.838,133.368,88.379,133.397,88.924,133.419,89.474,133.433,90.029,133.438,90.588,133.434,91.151,133.422,91.719,133.400,92.290,133.369,92.865,133.328,93.444,133.277,94.025,133.216,94.610,133.144,95.196,133.062,95.785,132.968,96.376,132.863,96.968,132.747,97.561,132.619,98.155,132.480,98.749,132.328,99.342,132.165,99.934,131.989,100.525,131.801,101.114,131.601,101.700,131.388,102.282,131.163,102.861,130.926,103.435,130.676,104.004,130.413,104.567,130.138,105.124,129.851,105.673,129.552,106.213,129.240,106.745,128.916,107.268,128.581,107.780,128.233,108.281,127.874,108.771,127.504,109.248,127.122,109.712,126.729,110.162,126.325,110.598,125.910,111.019,125.485,111.425,125.050,111.815,124.604,112.188,124.148,112.545,123.683,112.885,123.208,113.208,122.723,113.514,122.230,113.802,121.727,114.073,121.216,114.327,120.696,114.564,120.168,114.784,119.631,114.987,119.086,115.175,118.534,115.347,117.973,115.504,117.405,115.647,116.829,115.777,116.245,115.894,115.655,116.000,115.056,116.095,114.451,116.181,113.838,116.259,113.218,116.330,112.591,116.395,111.957,116.457,111.316,116.515,110.667,116.571,110.011,116.628,109.348,116.686,108.677,116.746,107.998,116.811,107.312,116.881,106.618,116.958,105.917,117.043,105.207,117.138,104.488,117.242,103.761,117.359,103.026,117.487,102.281,117.629,101.527,117.785,100.764,117.956,99.990,118.141,99.207,118.341,98.414,118.556,97.610"  style="fill:none;stroke:#000;stroke-width:0.1953;opacity:1"/>
  <polyline points="110.110,89.871,110.269,89.092,110.433,88.302,110.602,87.502,110.772,86.691,110.942,85.869,111.110,85.036,111.273,84.193,111.429,83.338,111.575,82.473,111.708,81.597,111.826,80.710,111.926,79.813,112.004,78.906,112.059,77.988,112.087,77.061,112.085,76.125,112.051,75.179,111.982,74.225"  style="fill:none;stroke:#000;stroke-width:0.1953;opacity:1"/>
  <polyline points="97.219,110.356,97.066,110.009,96.908,109.661,96.746,109.313,96.580,108.964,96.411,108.614,96.239,108.264,96.065,107.913,95.890,107.561,95.713,107.209,95.536,106.857,95.359,106.504,95.182,106.150,95.006,105.796,94.832,105.441,94.659,105.085,94.488,104.729,94.321,104.371,94.156,104.013,93.995,103.654,93.837,103.294,93.684,102.933,93.536,102.570,93.392,102.207,93.254,101.841,93.122,101.474,92.995,101.106,92.874,100.736,92.760,100.364,92.653,99.989,92.552,99.613,92.458,99.234,92.371,98.853,92.291,98.470,92.218,98.083,92.153,97.694,92.095,97.301,92.044,96.906,92.000,96.507,91.962,96.104,91.932,95.698"  style="fill:none;stroke:#000;stroke-width:0.1953;opacity:1"/>
  <polyline points="111.531,73.400,111.394,72.437"  style="fill:none;stroke:#000;stroke-width:0.1953;opacity:1"/>
  <polyline points="91.170,99.864,90.935,99.515,90.702,99.165,90.474,98.816,90.249,98.466,90.029,98.116,89.813,97.766,89.602,97.415,89.395,97.064,89.195,96.713,88.999,96.361,88.809,96.008,88.624,95.654,88.446,95.299,88.273,94.943,88.106,94.586,87.945,94.227,87.790,93.867,87.641,93.506,87.498,93.142,87.360,92.777,87.228,92.411,87.102,92.042,86.981,91.671,86.865,91.298,86.754,90.922,86.648,90.545,86.546,90.165,86.448,89.782,86.353,89.396,86.262,89.008,86.173,88.618,86.087,88.224,86.003,87.827,85.919,87.428,85.836,87.025,85.754,86.620,85.670,86.212,85.585,85.800,85.499,85.385,85.409,84.968,85.316,84.547,85.218,84.123,85.115,83.697,85.006,83.267,84.890,82.835,84.766,82.399,84.633,81.961,84.490,81.520,84.337,81.077,84.172,80.631,83.995,80.183,83.804,79.733"  style="fill:none;stroke:#000;stroke-width:0.1953;opacity:1"/>
  <polyline points="93.078,109.112,92.874,108.824,92.667,108.536,92.457,108.249,92.246,107.962,92.032,107.675,91.817,107.390,91.600,107.104,91.383,106.820,91.166,106.536,90.948,106.252,90.731,105.969,90.514,105.686,90.299,105.404,90.084,105.122,89.872,104.841,89.661,104.559,89.452,104.279,89.245,103.998,89.042,103.717,88.841,103.437,88.644,103.157,88.450,102.876,88.260,102.596,88.073,102.315,87.891,102.034,87.713,101.753,87.540,101.471,87.371,101.189,87.207,100.906,87.048,100.623,86.894,100.339,86.745,100.054,86.602,99.768,86.464,99.481,86.331,99.193,86.203,98.903,86.081,98.613"  style="fill:none;stroke:#000;stroke-width:0.1953;opacity:1"/>
  <polyline points="106.267,99.669,106.314,99.052,106.373,98.427,106.443,97.795,106.524,97.155,106.617,96.507,106.722,95.850,106.838,95.185,106.964,94.511,107.100,93.828,107.245,93.136"  style="fill:none;stroke:#000;stroke-width:0.1953;opacity:1"/>
  <polyline points="87.896,121.222,87.838,121.132,87.776,121.043,87.708,120.954,87.636,120.864,87.559,120.775,87.478,120.686,87.391,120.597,87.300,120.509,87.205,120.421"  style="fill:none;stroke:#000;stroke-width:0.1953;opacity:1"/>
  <polyline points="97.113,98.667,97.075,98.201,97.046,97.730,97.025,97.255,97.013,96.775,97.010,96.290,97.015,95.801,97.028,95.306,97.050,94.805,97.079,94.299,97.115,93.788,97.159,93.270"  style="fill:none;stroke:#000;stroke-width:0.1953;opacity:1"/>
  <polyline points="88.520,105.437,88.255,105.183,87.989,104.931,87.722,104.681,87.455,104.431,87.189,104.183,86.922,103.936,86.657,103.690,86.392,103.445,86.129,103.201,85.866,102.958,85.606,102.716,85.347,102.475,85.090,102.235,84.836,101.996,84.583,101.758,84.334,101.520,84.087,101.283,83.843,101.046,83.602,100.810,83.364,100.575,83.129,100.340,82.898,100.105,82.671,99.871,82.447,99.637,82.227,99.403,82.010,99.169,81.798,98.935,81.589,98.701,81.385,98.466,81.185,98.232,80.988,97.997,80.796,97.763,80.608,97.527,80.424,97.292,80.244,97.055,80.068,96.819,79.896,96.581,79.728,96.343,79.564,96.104,79.404,95.864,79.248,95.624"  style="fill:none;stroke:#000;stroke-width:0.1953;opacity:1"/>
  <polyline points="106.168,92.465,106.253,91.777,106.347,91.080,106.450,90.374,106.560,89.659,106.678,88.935,106.800,88.202,106.927,87.459,107.056,86.706,107.186,85.943,107.314,85.171,107.439,84.389,107.559,83.597,107.670,82.795,107.772,81.983,107.860,81.161,107.934,80.330,107.990,79.490,108.025,78.640,108.037,77.782,108.024,76.915,107.983,76.040,107.911,75.157,107.808,74.267,107.669,73.371,107.495,72.468"  style="fill:none;stroke:#000;stroke-width:0.1953;opacity:1"/>
  <polyline points="84.255,99.367,84.023,99.109,83.794,98.851,83.569,98.594,83.349,98.336,83.132,98.079,82.920,97.821,82.712,97.563,82.508,97.305,82.309,97.047,82.114,96.788,81.923,96.528,81.737,96.269,81.555,96.008,81.378,95.747,81.205,95.485,81.036,95.222,80.871,94.959,80.711,94.694,80.554,94.428,80.401,94.162,80.252,93.894,80.107,93.625,79.965,93.354,79.827,93.082,79.691,92.809,79.559,92.535,79.429,92.259,79.301,91.981"  style="fill:none;stroke:#000;stroke-width:0.1953;opacity:1"/>
  <polyline points="95.599,97.278,95.500,96.825,95.409,96.370,95.326,95.911,95.251,95.450,95.184,94.984,95.125,94.515,95.074,94.042,95.031,93.564,94.996,93.083,94.968,92.597,94.947,92.106,94.933,91.611,94.925,91.111,94.923,90.605,94.927,90.095,94.934,89.579,94.946,89.058,94.960,88.531,94.977,87.998,94.995,87.460,95.013,86.916,95.030,86.366,95.045,85.810,95.057,85.248,95.065,84.681,95.066,84.108,95.061,83.528,95.047,82.944,95.023,82.353,94.988,81.758,94.939,81.157"  style="fill:none;stroke:#000;stroke-width:0.1953;opacity:1"/>
  <polyline points="86.694,131.091,87.172,131.115,87.655,131.132,88.140,131.142,88.629,131.145,89.121,131.141,89.617,131.129,90.114,131.110,90.615,131.082,91.118,131.046,91.622,131.002,92.129,130.949,92.637,130.888,93.145,130.817,93.655,130.737,94.165,130.648,94.676,130.549,95.186,130.440,95.695,130.321,96.203,130.193,96.709,130.054,97.214,129.905,97.715,129.745,98.214,129.576,98.710,129.395,99.201,129.205,99.687,129.003,100.169,128.791,100.645,128.569,101.114,128.335,101.576,128.092,102.032,127.837,102.479,127.573,102.917,127.298,103.346,127.012,103.766,126.716,104.175,126.411,104.573,126.095,104.960,125.769,105.335,125.434,105.697,125.089,106.047,124.735,106.383,124.371,106.705,123.999,107.014,123.617,107.308,123.227,107.587,122.828,107.851,122.421,108.101,122.005,108.335,121.582,108.554,121.151,108.758,120.712,108.946,120.265,109.119,119.812,109.278,119.351,109.422,118.883,109.552,118.409,109.667,117.927,109.770,117.440,109.859,116.946,109.936,116.445,110.002,115.939,110.056,115.427,110.100,114.908,110.135,114.384,110.161,113.855,110.179,113.319,110.191,112.778,110.197,112.231,110.198,111.679,110.196,111.121,110.191,110.557,110.185,109.988,110.179,109.413,110.173,108.833,110.169,108.246,110.168,107.654,110.171,107.055,110.180,106.450,110.194,105.839,110.216,105.221,110.246,104.597,110.285,103.965,110.334,103.327,110.393,102.681,110.463,102.027,110.546,101.366,110.640,100.696,110.747,100.018"  style="fill:none;stroke:#000;stroke-width:0.1953;opacity:1"/>
  <polyline points="89.391,120.636,89.459,120.520,89.520,120.401,89.575,120.280,89.622,120.157,89.663,120.033,89.697,119.906,89.725,119.778,89.745,119.648,89.758,119.516,89.764,119.384,89.762,119.249,89.754,119.114,89.738,118.977,89.716,118.839,89.686,118.700,89.649,118.560,89.605,118.420,89.554,118.278,89.496,118.137,89.431,117.994,89.358,117.852,89.279,117.708,89.193,117.565,89.101,117.422,89.001,117.278,88.896,117.135,88.783,116.992,88.664,116.849,88.539,116.707,88.408,116.565,88.270,116.423,88.127,116.282,87.977,116.142,87.822,116.002,87.661,115.864,87.495,115.726,87.324,115.589,87.147,115.454,86.965,115.319,86.778,115.186,86.586,115.054,86.390,114.923,86.189,114.793,85.984,114.665,85.774,114.539,85.560,114.414,85.342,114.290,85.121,114.169,84.895,114.048,84.666,113.930,84.434,113.813,84.198,113.698,83.959,113.585,83.717,113.473,83.472,113.364,83.224,113.256,82.973,113.150,82.720,113.046,82.464,112.944,82.206,112.844,81.946,112.745"  style="fill:none;stroke:#000;stroke-width:0.1953;opacity:1"/>
  <polyline points="78.173,133.107,78.621,133.253,79.075,133.397,79.535,133.537,80.002,133.674,80.475,133.807,80.955,133.937,81.441,134.062,81.933,134.182,82.432,134.298,82.937,134.410,83.449,134.516,83.967,134.617,84.491,134.712,85.022,134.801,85.558,134.884,86.101,134.961,86.650,135.031,87.205,135.093,87.766,135.149,88.333,135.196,88.905,135.236,89.483,135.267,90.067,135.290,90.655,135.304,91.249,135.308,91.848,135.303,92.452,135.288,93.061,135.263,93.673,135.227,94.290,135.180,94.911,135.123,95.535,135.054,96.163,134.974,96.793,134.882,97.427,134.777,98.062,134.661,98.699,134.532,99.337,134.390,99.976,134.236,100.615,134.069,101.254,133.889,101.893,133.695,102.530,133.489,103.165,133.269,103.797,133.036,104.426,132.790,105.051,132.530,105.671,132.257,106.286,131.972,106.895,131.673,107.497,131.361,108.091,131.036,108.676,130.699,109.253,130.349,109.819,129.986,110.374,129.612,110.918,129.225,111.449,128.827,111.968,128.417,112.473,127.995,112.963,127.562,113.438,127.119,113.898,126.664,114.342,126.199,114.769,125.723,115.179,125.238,115.572,124.742,115.947,124.236,116.305,123.721,116.645,123.197,116.967,122.663,117.272,122.120,117.559,121.568,117.829,121.008,118.082,120.439,118.318,119.861,118.539,119.275,118.745,118.681,118.937,118.078,119.115,117.468,119.281,116.849,119.435,116.223,119.579,115.588,119.714,114.946,119.841,114.296,119.962,113.638,120.077,112.972,120.189,112.298,120.299,111.616,120.409,110.925,120.519,110.227,120.632,109.521,120.749,108.806,120.872,108.082,121.002,107.350,121.140,106.609,121.288,105.860"  style="fill:none;stroke:#000;stroke-width:0.1953;opacity:1"/>
  <polyline points="101.647,116.025,101.608,115.653"  style="fill:none;stroke:#000;stroke-width:0.1953;opacity:1"/>
  <polyline points="101.098,112.811,101.014,112.418,100.923,112.024,100.828,111.627,100.728,111.228,100.624,110.826,100.516,110.423,100.406,110.017,100.294,109.609,100.181,109.199,100.067,108.786,99.953,108.372,99.839,107.955,99.727,107.536,99.616,107.114,99.508,106.691,99.403,106.264,99.301,105.836,99.204,105.404,99.112,104.970,99.025,104.533,98.943,104.092,98.868,103.649,98.800,103.202,98.739,102.752,98.686,102.298,98.640,101.841,98.603,101.379,98.574,100.913,98.554,100.443"  style="fill:none;stroke:#000;stroke-width:0.1953;opacity:1"/>
  <polyline points="87.302,86.863,87.243,86.435,87.182,86.004,87.117,85.569,87.049,85.130,86.977,84.688,86.898,84.243,86.814,83.794,86.722,83.342,86.622,82.887"  style="fill:none;stroke:#000;stroke-width:0.1953;opacity:1"/>
  <polyline points="91.617,114.964,91.531,114.759,91.435,114.552,91.331,114.345,91.218,114.138,91.096,113.931,90.966,113.723,90.828,113.516,90.681,113.308,90.527,113.101,90.365,112.895,90.195,112.688,90.017,112.483,89.833,112.278,89.641,112.074,89.443,111.871,89.238,111.668,89.026,111.467,88.809,111.267,88.585,111.068,88.356,110.871,88.122,110.675,87.882,110.480,87.637,110.287,87.387,110.095,87.132,109.905,86.873,109.717,86.610,109.530,86.343,109.345,86.073,109.162,85.798,108.981,85.521,108.801,85.240,108.624,84.956,108.448,84.670,108.274,84.381,108.101,84.090,107.931,83.797,107.763,83.502,107.596,83.204,107.432,82.906,107.269,82.606,107.108,82.304,106.949,82.002,106.792,81.698,106.636,81.393,106.483,81.088,106.331,80.783,106.181,80.477,106.033,80.170,105.886,79.864,105.741,79.557,105.598,79.250,105.457,78.944,105.317,78.638,105.178,78.332,105.042,78.027,104.906,77.722,104.773,77.418,104.640,77.114,104.510,76.812,104.380,76.510,104.252,76.210,104.126,75.910,104.001,75.611,103.877,75.314,103.754,75.018,103.633,74.723,103.513"  style="fill:none;stroke:#000;stroke-width:0.1953;opacity:1"/>
  <polyline points="85.668,97.487,85.412,97.193,85.159,96.900,84.910,96.606,84.666,96.313,84.425,96.020,84.190,95.727,83.958,95.434,83.731,95.141,83.509,94.847,83.291,94.554,83.078,94.259,82.869,93.964,82.665,93.669,82.466,93.372,82.271,93.075,82.081,92.778,81.895,92.479,81.714,92.179,81.536,91.878,81.363,91.576,81.193,91.273,81.027,90.968,80.864,90.663,80.705,90.355,80.549,90.047,80.395,89.736,80.244,89.425,80.094,89.111,79.947,88.796,79.801,88.479,79.656,88.161,79.512,87.841,79.367,87.518,79.223,87.195,79.078,86.869,78.932,86.541,78.784,86.212,78.633,85.880,78.481,85.547,78.324,85.212,78.164,84.875,78.000,84.536,77.830,84.195,77.655,83.852,77.473,83.508,77.285,83.162,77.088,82.814,76.884,82.465"  style="fill:none;stroke:#000;stroke-width:0.1953;opacity:1"/>
  <polyline points="109.982,124.401,110.316,123.971,110.633,123.531,110.934,123.083,111.220,122.625,111.489,122.160,111.742,121.685,111.979,121.202,112.199,120.712,112.404,120.213,112.594,119.706,112.768,119.192,112.927,118.670,113.072,118.141,113.204,117.605,113.322,117.062,113.428,116.511,113.523,115.954,113.608,115.390,113.683,114.819,113.749,114.242,113.808,113.657,113.860,113.066,113.907,112.469,113.951,111.865,113.991,111.254,114.030,110.636,114.069,110.011,114.109,109.380,114.151,108.741,114.197,108.096,114.248,107.443,114.305,106.783,114.369,106.115,114.441,105.440,114.523,104.756,114.615,104.065,114.719,103.365,114.835,102.656"  style="fill:none;stroke:#000;stroke-width:0.1953;opacity:1"/>
  <polyline points="120.837,105.087,120.956,104.326,121.084,103.556,121.225,102.777,121.378,101.988,121.545,101.189,121.726,100.381,121.923,99.562,122.135,98.733,122.363,97.893,122.607,97.043,122.866,96.181,123.141,95.309,123.430,94.424,123.732,93.528,124.046,92.620,124.370,91.700"  style="fill:none;stroke:#000;stroke-width:0.1953;opacity:1"/>
  <polyline points="91.340,94.665,91.292,94.255,91.251,93.842,91.216,93.425,91.187,93.004,91.163,92.579,91.144,92.150,91.129,91.717,91.119,91.280,91.112,90.838,91.108,90.392"  style="fill:none;stroke:#000;stroke-width:0.1953;opacity:1"/>
  <polyline points="98.184,92.453,98.215,91.903,98.254,91.348,98.298,90.786,98.348,90.218,98.401,89.643,98.459,89.061,98.519,88.471,98.580,87.875,98.641,87.272,98.701,86.662,98.759,86.044,98.812,85.419,98.860,84.787,98.901,84.148"  style="fill:none;stroke:#000;stroke-width:0.1953;opacity:1"/>
  <polyline points="92.731,93.720,92.725,93.277,92.724,92.829,92.729,92.377"  style="fill:none;stroke:#000;stroke-width:0.1953;opacity:1"/>
  <polyline points="90.056,110.423,89.862,110.195,89.666,109.967,89.471,109.739,89.275,109.513,89.080,109.286,88.886,109.061"  style="fill:none;stroke:#000;stroke-width:0.1953;opacity:1"/>
  <polyline points="80.688,135.401,81.189,135.543,81.697,135.680,82.211,135.813,82.733,135.942,83.261,136.065,83.796,136.183,84.337,136.295,84.886,136.401,85.441,136.501,86.002,136.595,86.571,136.682,87.145,136.761,87.727,136.833,88.314,136.897,88.908,136.954,89.508,137.001,90.113,137.040,90.725,137.069,91.342,137.090,91.965,137.100,92.594,137.100,93.227,137.090,93.866,137.068,94.509,137.036,95.157,136.992,95.809,136.937,96.464,136.870,97.124,136.790,97.786,136.698,98.451,136.594,99.119,136.476,99.789,136.346,100.460,136.202,101.132,136.045,101.805,135.874,102.478,135.690,103.150,135.492,103.821,135.280,104.490,135.055,105.157,134.815,105.820,134.563,106.479,134.296,107.134,134.016,107.783,133.723,108.427,133.416,109.063,133.096,109.691,132.762,110.311,132.416,110.921,132.057,111.522,131.686,112.111,131.302,112.689,130.906,113.255,130.498,113.807,130.078,114.346,129.647,114.870,129.204,115.379,128.750,115.872,128.286,116.349,127.811,116.810,127.325,117.254,126.829,117.681,126.323,118.090,125.807,118.482,125.281,118.857,124.746,119.213,124.202,119.553,123.648,119.875,123.085,120.181,122.513,120.470,121.932,120.744,121.343,121.002,120.745,121.246,120.139,121.476,119.524,121.694,118.900,121.900,118.268,122.096,117.628"  style="fill:none;stroke:#000;stroke-width:0.1953;opacity:1"/>
  <polyline points="83.646,109.601,83.380,109.454,83.113,109.308,82.845,109.164,82.576,109.021,82.307,108.881,82.037,108.741,81.767,108.604,81.496,108.468,81.226,108.334,80.955,108.201"  style="fill:none;stroke:#000;stroke-width:0.1953;opacity:1"/>
  <polyline points="93.572,84.612,93.557,84.064,93.536,83.510,93.508,82.952,93.471,82.388,93.423,81.819,93.365,81.245,93.293,80.667,93.207,80.084,93.105,79.497,92.985,78.906"  style="fill:none;stroke:#000;stroke-width:0.1953;opacity:1"/>
  <polyline points="89.187,93.528,89.149,93.140,89.115,92.747"  style="fill:none;stroke:#000;stroke-width:0.1953;opacity:1"/>
  <polyline points="122.526,116.605,122.709,115.943,122.881,115.273,123.044,114.594,123.200,113.908,123.350,113.212,123.496,112.509,123.638,111.797,123.780,111.076,123.922,110.347,124.066,109.609,124.214,108.862,124.367,108.106,124.528,107.342,124.697,106.568,124.876,105.784,125.067,104.991,125.270,104.188"  style="fill:none;stroke:#000;stroke-width:0.1953;opacity:1"/>
  <polyline points="86.648,119.143,86.535,119.052,86.417,118.961,86.294,118.870,86.166,118.781,86.033,118.692,85.896,118.604,85.754,118.517,85.608,118.432,85.457,118.347,85.302,118.263,85.142,118.181,84.979,118.100,84.811,118.020,84.640,117.941,84.464,117.864,84.285,117.789"  style="fill:none;stroke:#000;stroke-width:0.1953;opacity:1"/>
  <polyline points="122.607,105.163,122.772,104.384,122.950,103.596,123.142,102.798,123.347,101.990,123.569,101.171"  style="fill:none;stroke:#000;stroke-width:0.1953;opacity:1"/>
  <polyline points="78.733,94.529,78.528,94.283,78.328,94.036,78.131,93.789,77.937,93.542,77.747,93.293,77.560,93.044,77.376,92.794,77.195,92.543,77.017,92.291,76.841,92.038,76.668,91.784,76.497,91.529,76.328,91.273,76.161,91.016,75.995,90.758,75.830,90.498,75.667,90.237,75.503,89.975,75.341,89.712,75.178,89.447"  style="fill:none;stroke:#000;stroke-width:0.1953;opacity:1"/>
  <polyline points="100.363,89.598,100.426,88.981,100.493,88.357,100.562,87.725,100.633,87.085,100.704,86.438,100.774,85.783,100.841,85.120,100.903,84.449,100.960,83.770,101.008,83.084,101.047,82.390,101.074,81.688,101.087,80.979,101.085,80.263,101.065,79.540,101.025,78.810,100.964,78.074"  style="fill:none;stroke:#000;stroke-width:0.1953;opacity:1"/>
  <polyline points="123.400,99.514,123.653,98.670"  style="fill:none;stroke:#000;stroke-width:0.1953;opacity:1"/>
  <polyline points="115.709,101.973,115.836,101.238,115.977,100.493,116.133,99.739,116.302,98.975,116.486,98.201,116.685,97.417"  style="fill:none;stroke:#000;stroke-width:0.1953;opacity:1"/>
  <polyline points="110.933,118.926,111.104,118.429,111.259,117.924,111.399,117.412,111.523,116.894,111.633,116.368,111.729,115.836,111.812,115.297,111.881,114.751,111.939,114.199,111.986,113.641,112.023,113.076,112.051,112.506,112.071,111.929,112.084,111.346,112.091,110.757,112.094,110.162,112.093,109.562,112.090,108.955,112.086,108.341,112.082,107.722,112.080,107.097,112.081,106.465,112.085,105.826,112.095,105.181,112.111,104.529,112.135,103.870,112.167,103.204,112.208,102.531,112.260,101.850,112.323,101.161,112.398,100.464,112.485,99.759,112.586,99.045,112.699,98.322,112.826,97.590,112.967,96.849,113.121,96.098,113.288,95.337,113.468,94.566,113.659,93.784,113.861,92.992,114.074,92.189,114.295,91.375,114.523,90.549,114.756,89.712"  style="fill:none;stroke:#000;stroke-width:0.1953;opacity:1"/>
  <polyline points="96.421,81.219,96.384,80.588,96.333,79.952,96.266,79.310,96.182,78.664,96.079,78.012,95.956,77.356,95.810,76.696,95.641,76.032,95.447,75.365,95.226,74.694"  style="fill:none;stroke:#000;stroke-width:0.1953;opacity:1"/>
  <polyline points="87.387,97.984,87.286,97.668,87.190,97.349"  style="fill:none;stroke:#000;stroke-width:0.1953;opacity:1"/>
  <polyline points="109.564,99.425,109.670,98.751,109.788,98.068,109.920,97.375"  style="fill:none;stroke:#000;stroke-width:0.1953;opacity:1"/>
  <polyline points="83.681,105.989,83.389,105.806,83.096,105.625,82.803,105.445,82.510,105.267,82.217,105.090,81.925,104.915,81.632,104.741,81.340,104.569,81.049,104.398,80.759,104.228,80.469,104.060,80.181,103.894,79.894,103.728,79.607,103.564,79.323,103.401,79.040,103.240,78.758,103.079,78.478,102.919,78.200,102.761,77.923,102.604,77.649,102.447,77.376,102.292,77.106,102.137,76.838,101.983,76.572,101.831,76.308,101.679,76.046,101.527,75.787,101.377"  style="fill:none;stroke:#000;stroke-width:0.1953;opacity:1"/>
  <polyline points="97.950,83.413,97.964,82.776,97.968,82.133,97.960,81.484,97.939,80.829,97.903,80.167,97.850,79.500,97.778,78.827,97.686,78.149"  style="fill:none;stroke:#000;stroke-width:0.1953;opacity:1"/>
  <polyline points="99.607,77.721,99.515,76.999,99.399,76.273,99.258,75.542,99.089,74.806,98.892,74.066,98.665,73.323,98.406,72.576,98.115,71.828"  style="fill:none;stroke:#000;stroke-width:0.1953;opacity:1"/>
  <polyline points="75.511,99.990,75.260,99.828,75.011,99.668,74.765,99.507"  style="fill:none;stroke:#000;stroke-width:0.1953;opacity:1"/>
  <polyline points="104.071,81.962,104.121,81.203,104.155,80.435,104.171,79.660,104.168,78.876,104.142,78.085,104.092,77.287,104.016,76.482"  style="fill:none;stroke:#000;stroke-width:0.1953;opacity:1"/>
  <polyline points="74.684,98.096,74.410,97.923,74.139,97.751,73.870,97.580,73.604,97.408,73.341,97.237,73.080,97.066,72.822,96.896,72.566,96.726,72.312,96.556,72.061,96.387,71.813,96.217,71.567,96.048,71.323,95.879,71.081,95.710,70.841,95.541"  style="fill:none;stroke:#000;stroke-width:0.1953;opacity:1"/>
  <polyline points="107.751,91.897,107.868,91.176,107.993,90.445,108.125,89.706,108.264,88.956,108.409,88.196,108.556,87.427,108.706,86.647,108.855,85.857,109.002,85.056,109.144,84.245,109.279,83.424,109.405,82.592,109.519,81.750,109.619,80.898,109.701,80.037,109.764,79.165,109.803,78.284,109.817,77.394,109.804,76.495,109.760,75.587,109.683,74.672"  style="fill:none;stroke:#000;stroke-width:0.1953;opacity:1"/>
  <polyline points="93.101,106.716,92.959,106.401,92.820,106.084"  style="fill:none;stroke:#000;stroke-width:0.1953;opacity:1"/>
  <polyline points="104.467,100.572,104.500,99.994,104.543,99.410,104.598,98.819,104.663,98.220,104.740,97.614"  style="fill:none;stroke:#000;stroke-width:0.1953;opacity:1"/>
  <polyline points="120.694,98.367,120.886,97.539,121.095,96.700,121.318,95.850,121.557,94.990,121.811,94.118,122.078,93.235,122.358,92.340,122.649,91.433,122.949,90.514,123.258,89.583,123.571,88.640,123.887,87.684,124.204,86.716,124.517,85.735,124.824,84.741,125.121,83.735"  style="fill:none;stroke:#000;stroke-width:0.1953;opacity:1"/>
  <polyline points="90.577,89.413,90.564,88.961,90.551,88.505,90.538,88.044,90.525,87.579"  style="fill:none;stroke:#000;stroke-width:0.1953;opacity:1"/>
  <polyline points="74.043,88.554,73.863,88.289,73.682,88.023,73.499,87.755"  style="fill:none;stroke:#000;stroke-width:0.1953;opacity:1"/>
  <polyline points="84.210,86.464,84.105,86.074,83.998,85.682,83.890,85.287,83.780,84.890,83.667,84.490,83.550,84.087,83.428,83.681,83.302,83.273,83.169,82.862,83.030,82.449,82.883,82.033,82.727,81.615,82.562,81.195,82.387,80.772,82.201,80.347,82.003,79.920,81.791,79.492,81.566,79.061,81.327,78.629,81.072,78.195,80.800,77.759"  style="fill:none;stroke:#000;stroke-width:0.1953;opacity:1"/>
  <polyline points="115.393,121.925,115.660,121.394,115.911,120.855,116.145,120.308,116.363,119.752,116.565,119.188,116.753,118.616,116.926,118.036,117.086,117.449,117.233,116.853,117.369,116.250,117.494,115.640,117.610,115.021,117.717,114.396,117.817,113.762,117.912,113.121,118.002,112.473,118.089,111.817,118.175,111.153,118.261,110.482,118.348,109.803,118.437,109.115,118.531,108.420,118.631,107.717,118.738,107.005,118.853,106.285,118.978,105.556,119.113,104.818"  style="fill:none;stroke:#000;stroke-width:0.1953;opacity:1"/>
  <polyline points="110.880,97.073,111.028,96.354,111.188,95.626,111.360,94.888"  style="fill:none;stroke:#000;stroke-width:0.1953;opacity:1"/>
  <polyline points="125.068,98.786,125.344,97.920,125.636,97.043"  style="fill:none;stroke:#000;stroke-width:0.1953;opacity:1"/>
  <polyline points="96.431,92.444,96.467,91.925,96.507,91.400,96.553,90.868,96.602,90.331,96.654,89.787"  style="fill:none;stroke:#000;stroke-width:0.1953;opacity:1"/>
  <polyline points="114.423,100.887,114.513,100.158,114.617,99.421,114.734,98.674,114.865,97.918,115.010,97.153,115.169,96.378,115.342,95.593,115.528,94.797,115.728,93.991,115.939,93.174,116.162,92.346,116.395,91.506,116.636,90.655,116.883,89.793,117.136,88.918,117.390,88.032,117.645,87.134,117.897,86.224"  style="fill:none;stroke:#000;stroke-width:0.1953;opacity:1"/>
  <polyline points="93.528,122.640,93.679,122.476,93.822,122.308,93.958,122.136,94.086,121.959,94.205,121.779,94.317,121.595,94.420,121.408,94.514,121.217,94.600,121.022,94.677,120.825,94.745,120.624,94.805,120.420,94.856,120.212,94.898,120.003,94.931,119.790,94.955,119.575,94.971,119.357,94.978,119.137,94.976,118.914,94.966,118.690,94.948,118.463,94.921,118.235,94.885,118.005,94.842,117.773,94.791,117.540,94.732,117.305,94.665,117.069,94.591,116.832,94.510,116.594,94.422,116.354,94.327,116.114,94.226,115.873,94.118,115.632,94.005,115.390,93.886,115.147,93.761,114.904,93.631,114.661,93.496,114.417,93.357,114.173,93.214,113.929,93.066,113.685,92.915,113.441,92.760,113.197,92.603,112.953,92.442,112.710,92.279,112.466,92.114,112.222,91.947,111.979,91.779,111.736,91.609,111.493,91.439,111.250"  style="fill:none;stroke:#000;stroke-width:0.1953;opacity:1"/>
  <polyline points="80.222,99.377,79.979,99.165,79.739,98.954,79.503,98.743,79.270,98.532,79.041,98.321,78.816,98.110,78.593,97.899,78.375,97.688,78.160,97.478,77.948,97.267,77.740,97.055,77.535,96.844,77.334,96.632,77.137,96.420,76.943,96.208,76.752,95.995,76.564,95.781,76.380,95.567"  style="fill:none;stroke:#000;stroke-width:0.1953;opacity:1"/>
  <polyline points="87.353,81.940,87.242,81.462,87.122,80.982,86.990,80.498,86.848,80.012,86.692,79.522,86.523,79.030,86.339,78.536,86.139,78.039,85.922,77.540,85.687,77.039,85.433,76.536,85.159,76.032,84.864,75.526,84.547,75.019"  style="fill:none;stroke:#000;stroke-width:0.1953;opacity:1"/>
  <polyline points="83.240,116.942,83.051,116.873,82.856,116.806,82.658,116.741,82.455,116.677,82.247,116.615,82.035,116.555,81.819,116.496,81.599,116.439,81.375,116.385,81.147,116.332,80.915,116.281,80.679,116.232,80.440,116.185,80.196,116.141,79.950,116.098,79.699,116.057,79.445,116.019,79.188,115.983,78.927,115.949,78.663,115.917,78.396,115.888,78.126,115.861,77.852,115.836"  style="fill:none;stroke:#000;stroke-width:0.1953;opacity:1"/>
  <polyline points="83.218,103.964,82.974,103.765,82.733,103.566,82.494,103.368,82.258,103.171,82.025,102.974,81.794,102.778,81.566,102.583,81.341,102.388,81.119,102.194,80.900,102.000,80.685,101.806"  style="fill:none;stroke:#000;stroke-width:0.1953;opacity:1"/>
  <polyline points="91.929,87.456,91.914,86.963,91.898,86.466,91.881,85.964,91.861,85.457,91.838,84.945,91.810,84.429,91.776,83.908,91.736,83.382,91.687,82.851,91.629,82.317,91.561,81.777,91.480,81.234,91.387,80.686"  style="fill:none;stroke:#000;stroke-width:0.1953;opacity:1"/>
  <polyline points="111.377,93.398,111.559,92.634,111.750,91.860,111.948,91.075,112.153,90.279,112.362,89.472"  style="fill:none;stroke:#000;stroke-width:0.1953;opacity:1"/>
  <polyline points="91.205,79.469,91.079,78.909,90.936,78.346,90.776,77.779,90.597,77.209,90.397,76.637,90.176,76.062,89.933,75.485,89.666,74.906,89.375,74.326"  style="fill:none;stroke:#000;stroke-width:0.1953;opacity:1"/>
  <polyline points="117.466,85.055,117.694,84.126,117.913,83.186,118.119,82.233,118.309,81.269,118.480,80.293,118.629,79.305,118.752,78.306"  style="fill:none;stroke:#000;stroke-width:0.1953;opacity:1"/>
  <polyline points="124.647,114.268,124.815,113.563,124.978,112.850,125.137,112.128,125.294,111.398,125.451,110.659,125.609,109.911,125.770,109.154,125.936,108.388,126.109,107.612,126.290,106.828,126.481,106.033,126.683,105.229,126.897,104.416,127.126,103.592"  style="fill:none;stroke:#000;stroke-width:0.1953;opacity:1"/>
  <polyline points="80.639,113.168,80.357,113.091,80.070,113.017,79.780,112.945,79.487,112.876,79.190,112.808,78.890,112.743,78.587,112.680,78.281,112.620,77.972,112.562,77.659,112.506,77.344,112.452,77.026,112.401,76.705,112.353,76.381,112.307,76.055,112.263,75.726,112.221,75.395,112.182,75.061,112.146,74.724,112.112,74.385,112.080"  style="fill:none;stroke:#000;stroke-width:0.1953;opacity:1"/>
  <polyline points="104.060,95.337,104.139,94.713,104.228,94.080,104.327,93.440,104.434,92.791,104.549,92.134,104.671,91.468,104.799,90.793,104.932,90.109,105.068,89.415"  style="fill:none;stroke:#000;stroke-width:0.1953;opacity:1"/>
  <polyline points="126.842,96.221,127.165,95.314,127.503,94.396"  style="fill:none;stroke:#000;stroke-width:0.1953;opacity:1"/>
  <polyline points="116.998,96.499,117.191,95.692,117.399,94.874,117.619,94.046,117.852,93.206,118.097,92.355,118.351,91.493,118.614,90.618,118.884,89.732,119.157,88.834,119.433,87.924,119.709,87.002"  style="fill:none;stroke:#000;stroke-width:0.1953;opacity:1"/>
  <polyline points="75.059,95.694,74.837,95.493,74.618,95.292,74.402,95.090,74.188,94.889,73.977,94.687,73.769,94.484,73.563,94.282,73.360,94.078,73.158,93.875"  style="fill:none;stroke:#000;stroke-width:0.1953;opacity:1"/>
  <polyline points="120.894,87.628,121.180,86.687,121.462,85.734,121.739,84.769,122.006,83.792"  style="fill:none;stroke:#000;stroke-width:0.1953;opacity:1"/>
  <polyline points="113.531,88.808,113.745,87.967,113.960,87.115,114.173,86.251,114.382,85.376,114.584,84.489,114.776,83.590"  style="fill:none;stroke:#000;stroke-width:0.1953;opacity:1"/>
  <polyline points="86.831,96.125,86.603,95.802,86.379,95.478,86.161,95.154,85.948,94.829,85.739,94.504,85.536,94.179,85.338,93.852,85.146,93.525,84.958,93.197,84.776,92.867,84.598,92.537,84.426,92.206,84.259,91.873,84.096,91.539,83.938,91.203,83.784,90.866,83.635,90.527,83.490,90.187,83.348,89.845,83.210,89.501,83.075,89.155,82.943,88.807,82.813,88.457,82.686,88.105,82.560,87.751,82.435,87.395,82.311,87.036,82.187,86.676,82.063,86.313,81.938,85.948,81.811,85.580,81.682,85.210,81.551,84.838,81.416,84.464,81.278,84.087,81.134,83.708,80.986,83.327,80.831,82.943,80.669,82.558,80.500,82.170,80.322,81.780,80.135,81.389,79.938,80.995,79.730,80.599,79.510,80.202,79.278,79.803,79.033,79.402,78.775,79.000"  style="fill:none;stroke:#000;stroke-width:0.1953;opacity:1"/>
  <polyline points="114.427,82.805,114.591,81.892,114.738,80.968,114.864,80.033"  style="fill:none;stroke:#000;stroke-width:0.1953;opacity:1"/>
  <polyline points="87.917,107.937,87.695,107.715,87.474,107.495,87.253,107.275,87.034,107.056,86.815,106.838,86.598,106.621,86.383,106.404,86.170,106.188,85.958,105.973,85.749,105.758,85.542,105.544"  style="fill:none;stroke:#000;stroke-width:0.1953;opacity:1"/>
  <polyline points="85.662,125.835,85.800,125.822,85.936,125.806,86.069,125.789,86.200,125.770,86.328,125.748,86.454,125.725,86.577,125.700,86.697,125.673,86.814,125.643,86.929,125.612,87.040,125.579,87.148,125.544,87.253,125.507,87.354,125.469,87.453,125.428,87.547,125.386,87.639,125.342,87.726,125.296,87.810,125.249,87.891,125.199,87.967,125.148,88.040,125.096,88.109,125.042,88.173,124.986,88.234,124.929,88.291,124.870,88.344,124.810,88.393,124.749,88.437,124.686,88.478,124.622,88.514,124.557,88.546,124.491"  style="fill:none;stroke:#000;stroke-width:0.1953;opacity:1"/>
  <polyline points="90.335,86.206,90.294,85.727,90.251,85.243,90.206,84.755,90.157,84.263,90.104,83.767,90.045,83.267,89.979,82.762,89.906,82.254,89.823,81.741,89.730,81.225,89.626,80.705,89.510,80.182,89.379,79.655,89.234,79.125,89.073,78.592,88.894,78.057,88.697,77.518,88.480,76.978"  style="fill:none;stroke:#000;stroke-width:0.1953;opacity:1"/>
  <polyline points="103.708,75.557,103.577,74.742,103.416,73.922,103.220,73.097"  style="fill:none;stroke:#000;stroke-width:0.1953;opacity:1"/>
  <polyline points="85.934,121.608,85.873,121.550,85.807,121.492,85.737,121.435,85.662,121.378,85.583,121.321,85.500,121.265,85.413,121.209,85.322,121.154,85.227,121.100,85.128,121.046,85.024,120.993"  style="fill:none;stroke:#000;stroke-width:0.1953;opacity:1"/>
  <polyline points="122.683,83.581,122.941,82.582"  style="fill:none;stroke:#000;stroke-width:0.1953;opacity:1"/>
  <polyline points="94.236,73.974,93.959,73.311,93.652,72.647"  style="fill:none;stroke:#000;stroke-width:0.1953;opacity:1"/>
  <polyline points="80.510,86.388,80.381,86.040,80.250,85.690,80.115,85.338,79.975,84.984,79.831,84.627,79.681,84.269,79.525,83.908"  style="fill:none;stroke:#000;stroke-width:0.1953;opacity:1"/>
  <polyline points="84.318,119.683,84.254,119.628,84.185,119.573,84.111,119.519,84.032,119.465,83.949,119.412,83.860,119.359,83.767,119.307,83.669,119.255,83.566,119.204,83.458,119.154,83.345,119.105,83.228,119.056,83.107,119.009,82.980,118.962,82.849,118.916,82.714,118.872,82.574,118.829,82.430,118.786,82.281,118.746,82.128,118.706,81.971,118.668,81.809,118.631,81.644,118.596,81.474,118.562,81.300,118.530,81.122,118.499,80.940,118.470,80.754,118.443,80.565,118.417,80.371,118.393,80.174,118.371,79.973,118.351,79.768,118.332,79.560,118.316,79.348,118.302,79.133,118.289,78.914,118.279,78.692,118.271,78.467,118.264,78.238,118.260,78.006,118.258,77.771,118.258,77.532,118.261"  style="fill:none;stroke:#000;stroke-width:0.1953;opacity:1"/>
  <polyline points="87.379,76.196,87.114,75.662,86.825,75.127,86.514,74.590"  style="fill:none;stroke:#000;stroke-width:0.1953;opacity:1"/>
  <polyline points="119.261,103.596,119.421,102.835"  style="fill:none;stroke:#000;stroke-width:0.1953;opacity:1"/>
  <polyline points="125.613,102.850,125.834,102.021,126.071,101.181,126.324,100.331,126.593,99.471,126.879,98.599"  style="fill:none;stroke:#000;stroke-width:0.1953;opacity:1"/>
  <polyline points="73.323,103.567,72.991,103.461,72.660,103.357,72.329,103.254,72.000,103.152,71.670,103.052,71.342,102.953,71.014,102.856,70.688,102.761"  style="fill:none;stroke:#000;stroke-width:0.1953;opacity:1"/>
  <polyline points="93.025,77.924,92.873,77.320,92.701,76.712,92.507,76.101,92.290,75.487,92.048,74.871,91.781,74.253,91.487,73.633"  style="fill:none;stroke:#000;stroke-width:0.1953;opacity:1"/>
  <polyline points="127.448,93.051,127.803,92.107,128.167,91.150"  style="fill:none;stroke:#000;stroke-width:0.1953;opacity:1"/>
  <polyline points="73.768,100.554,73.473,100.414,73.180,100.274,72.888,100.136,72.599,99.998,72.311,99.861,72.025,99.725,71.741,99.590,71.460,99.456,71.180,99.322"  style="fill:none;stroke:#000;stroke-width:0.1953;opacity:1"/>
  <polyline points="112.080,88.368,112.283,87.543,112.484,86.706"  style="fill:none;stroke:#000;stroke-width:0.1953;opacity:1"/>
  <polyline points="113.610,79.950,113.708,79.021,113.782,78.080,113.829,77.130,113.846,76.169,113.831,75.199,113.780,74.220"  style="fill:none;stroke:#000;stroke-width:0.1953;opacity:1"/>
  <polyline points="118.985,94.637,119.242,93.788,119.512,92.927"  style="fill:none;stroke:#000;stroke-width:0.1953;opacity:1"/>
  <polyline points="73.186,92.410,72.992,92.191,72.800,91.971"  style="fill:none;stroke:#000;stroke-width:0.1953;opacity:1"/>
  <polyline points="89.171,91.330,89.134,90.919,89.100,90.505,89.069,90.087,89.040,89.666,89.012,89.240,88.986,88.811,88.960,88.377"  style="fill:none;stroke:#000;stroke-width:0.1953;opacity:1"/>
  <polyline points="92.657,91.344,92.659,90.878,92.665,90.408,92.674,89.932,92.685,89.452,92.697,88.966"  style="fill:none;stroke:#000;stroke-width:0.1953;opacity:1"/>
  <polyline points="79.885,107.668,79.571,107.544,79.256,107.422,78.940,107.302,78.623,107.184,78.306,107.068,77.987,106.953,77.669,106.841,77.349,106.730,77.030,106.621,76.710,106.514,76.390,106.409,76.070,106.305,75.750,106.204,75.429,106.104,75.109,106.005,74.789,105.908,74.469,105.814"  style="fill:none;stroke:#000;stroke-width:0.1953;opacity:1"/>
  <polyline points="105.575,77.406,105.517,76.577"  style="fill:none;stroke:#000;stroke-width:0.1953;opacity:1"/>
  <polyline points="128.003,103.377,128.255,102.533"  style="fill:none;stroke:#000;stroke-width:0.1953;opacity:1"/>
  <polyline points="98.657,99.047,98.662,98.555"  style="fill:none;stroke:#000;stroke-width:0.1953;opacity:1"/>
  <polyline points="79.076,90.613,78.931,90.323,78.788,90.032,78.646,89.739,78.505,89.444,78.364,89.148,78.224,88.850,78.084,88.550,77.944,88.249,77.802,87.945,77.660,87.640,77.515,87.334"  style="fill:none;stroke:#000;stroke-width:0.1953;opacity:1"/>
  <polyline points="89.075,73.137,88.716,72.549"  style="fill:none;stroke:#000;stroke-width:0.1953;opacity:1"/>
  <polyline points="113.945,124.546,114.220,124.060"  style="fill:none;stroke:#000;stroke-width:0.1953;opacity:1"/>
  <polyline points="114.071,131.693,114.724,131.274,115.364,130.842,115.992,130.398,116.607,129.942,117.208,129.474,117.794,128.994,118.364,128.503,118.918,128.001,119.454,127.487,119.974,126.963,120.475,126.429,120.957,125.884,121.421,125.329,121.866,124.763,122.292,124.188,122.698,123.603,123.085,123.009,123.453,122.405,123.802,121.792,124.134,121.170,124.447,120.539,124.743,119.898,125.023,119.249,125.288,118.591,125.538,117.924,125.774,117.248,125.999,116.564,126.213,115.871,126.418,115.169,126.615,114.458,126.805,113.739,126.991,113.010,127.175,112.273,127.357,111.527,127.540,110.772,127.725,110.007,127.915,109.234,128.111,108.451,128.314,107.658,128.527,106.856"  style="fill:none;stroke:#000;stroke-width:0.1953;opacity:1"/>
  <polyline points="124.627,95.461,124.932,94.565,125.251,93.657,125.582,92.737"  style="fill:none;stroke:#000;stroke-width:0.1953;opacity:1"/>
  <polyline points="115.382,88.993,115.621,88.129,115.859,87.253"  style="fill:none;stroke:#000;stroke-width:0.1953;opacity:1"/>
  <polyline points="78.612,114.209,78.323,114.164,78.031,114.120,77.735,114.079,77.436,114.041,77.134,114.005,76.830,113.971,76.522,113.939,76.211,113.910,75.898,113.884"  style="fill:none;stroke:#000;stroke-width:0.1953;opacity:1"/>
  <polyline points="124.470,91.005,124.802,90.065,125.139,89.112"  style="fill:none;stroke:#000;stroke-width:0.1953;opacity:1"/>
  <polyline points="89.729,125.423,89.804,125.347,89.875,125.269"  style="fill:none;stroke:#000;stroke-width:0.1953;opacity:1"/>
  <polyline points="76.595,115.810,76.306,115.800,76.014,115.791,75.718,115.785,75.420,115.782"  style="fill:none;stroke:#000;stroke-width:0.1953;opacity:1"/>
  <polyline points="92.181,104.972,92.039,104.653,91.902,104.334,91.769,104.014,91.642,103.693"  style="fill:none;stroke:#000;stroke-width:0.1953;opacity:1"/>
  <polyline points="101.912,76.966,101.816,76.197,101.693,75.422,101.541,74.641,101.359,73.856,101.145,73.067,100.898,72.274"  style="fill:none;stroke:#000;stroke-width:0.1953;opacity:1"/>
  <polyline points="73.089,111.517,72.731,111.493,72.370,111.471"  style="fill:none;stroke:#000;stroke-width:0.1953;opacity:1"/>
  <polyline points="121.681,113.977,121.820,113.297,121.957,112.608,122.094,111.911,122.231,111.205"  style="fill:none;stroke:#000;stroke-width:0.1953;opacity:1"/>
  <polyline points="98.630,97.280,98.644,96.772,98.666,96.258,98.697,95.738,98.737,95.212,98.785,94.680"  style="fill:none;stroke:#000;stroke-width:0.1953;opacity:1"/>
  <polyline points="74.935,91.874,74.757,91.635,74.580,91.395,74.405,91.154,74.231,90.912"  style="fill:none;stroke:#000;stroke-width:0.1953;opacity:1"/>
  <polyline points="127.802,101.774,128.055,100.916,128.325,100.048,128.612,99.168,128.917,98.277,129.238,97.375,129.576,96.460"  style="fill:none;stroke:#000;stroke-width:0.1953;opacity:1"/>
  <polyline points="119.408,101.610,119.593,100.827"  style="fill:none;stroke:#000;stroke-width:0.1953;opacity:1"/>
  <polyline points="115.957,82.886,116.139,81.954,116.305,81.010,116.452,80.055,116.577,79.089,116.675,78.112,116.745,77.125"  style="fill:none;stroke:#000;stroke-width:0.1953;opacity:1"/>
</svg>