<?xml version="1.0" encoding="utf-8"?>
<!-- Generator: Adobe Illustrator 22.0.0, SVG Export Plug-In . SVG Version: 6.00 Build 0)  -->
<svg version="1.1" id="Layer_1" xmlns="http://www.w3.org/2000/svg" xmlns:xlink="http://www.w3.org/1999/xlink" x="0px" y="0px"
	 viewBox="0 0 595.3 841.9" style="enable-background:new 0 0 595.3 841.9;" xml:space="preserve">
<style type="text/css">
	.st0{fill:none;stroke:#AA0000;stroke-width:0.7;stroke-linecap:round;}
</style>
<g transform="scale(0.320000)">
	<path class="st0" d="M467,1970.8c-4.1-3.3-8.2-6.7-12.2-10.1"/>
	<path class="st0" d="M486.3,1971.9c-10.3-8.1-20.4-16.4-30.4-24.8"/>
	<path class="st0" d="M481.2,1953.3c-0.5-0.4-1-0.8-1.5-1.2"/>
	<path class="st0" d="M466.2,1940.9c-5.4-4.6-10.8-9.2-16.2-13.9"/>
	<path class="st0" d="M523.2,1971.7c-1.5-1.2-3.1-2.3-4.6-3.5"/>
	<path class="st0" d="M476.5,1934.7c-10.8-9-21.5-18.3-31.9-27.7"/>
	<path class="st0" d="M542.2,1971.7c-7.2-5.2-14.3-10.5-21.3-15.9"/>
	<path class="st0" d="M466.3,1911.2c-7.2-6.3-14.2-12.6-21.2-19"/>
	<path class="st0" d="M561.1,1971.3c-15.9-11.2-31.5-22.9-46.8-34.9"/>
	<path class="st0" d="M581.4,1971.7c-8.2-5.6-16.3-11.3-24.4-17.1"/>
	<path class="st0" d="M531.6,1935.6c-3-2.3-5.9-4.6-8.8-6.9"/>
	<path class="st0" d="M519.9,1926.4c-1.9-1.5-3.9-3.1-5.8-4.6"/>
	<path class="st0" d="M512.6,1920.6c-1.4-1.2-2.9-2.3-4.3-3.5"/>
	<path class="st0" d="M260.4,1626.8c-0.6-1.1-1.2-2.1-1.9-3.2"/>
	<path class="st0" d="M257.6,1622c-1.2-2.2-2.5-4.3-3.7-6.5"/>
	<path class="st0" d="M590.7,1971.1c-3.6-2.4-7.2-4.8-10.7-7.3"/>
	<path class="st0" d="M601.5,1971.6c-13.3-8.8-26.5-17.9-39.4-27.3"/>
	<path class="st0" d="M514,1907.1c-1.4-1.2-2.9-2.3-4.3-3.5"/>
	<path class="st0" d="M508.3,1902.5c-3.8-3.1-7.5-6.3-11.3-9.5"/>
	<path class="st0" d="M258.3,1600.3c-1.5-2.7-3-5.4-4.4-8.1"/>
	<path class="st0" d="M612.3,1971.9c-9.2-6-18.4-12.1-27.4-18.4"/>
	<path class="st0" d="M621.5,1971.1c-19-12.1-37.5-24.8-55.7-38.1"/>
	<path class="st0" d="M486.5,1868.8c-0.5-0.4-0.9-0.8-1.4-1.2"/>
	<path class="st0" d="M483.8,1866.3c-1.8-1.6-3.6-3.3-5.4-4.9"/>
	<path class="st0" d="M475.7,1859c-3.1-2.9-6.2-5.8-9.3-8.7"/>
	<path class="st0" d="M463.7,1847.8c-0.9-0.8-1.8-1.7-2.6-2.5"/>
	<path class="st0" d="M457.1,1841.5c-0.4-0.4-0.9-0.8-1.3-1.3"/>
	<path class="st0" d="M255.3,1570.7c-1.1-2.2-2.2-4.3-3.3-6.5"/>
	<path class="st0" d="M632.2,1971.2c-13.8-8.7-27.5-17.6-40.9-26.9"/>
	<path class="st0" d="M642.9,1971.1c-25.6-15.7-50.6-32.5-74.8-50.4"/>
	<path class="st0" d="M455.9,1824.5c-0.9-0.8-1.7-1.7-2.6-2.5"/>
	<path class="st0" d="M444.5,1813c-1.7-1.7-3.4-3.4-5-5.2"/>
	<path class="st0" d="M438.2,1806.5c-1.2-1.3-2.5-2.6-3.7-3.9"/>
	<path class="st0" d="M433.2,1801.3c-0.8-0.9-1.7-1.7-2.5-2.6"/>
	<path class="st0" d="M258.8,1552.7c-0.3-0.5-0.5-1.1-0.8-1.6"/>
	<path class="st0" d="M254.7,1544.6c-0.8-1.6-1.6-3.2-2.4-4.9"/>
	<path class="st0" d="M655,1971.9c-10.3-6.1-20.4-12.5-30.4-18.9"/>
	<path class="st0" d="M623,1951.9c-0.5-0.3-1-0.6-1.5-1"/>
	<path class="st0" d="M608.1,1942c-1-0.7-2-1.3-3-2"/>
	<path class="st0" d="M665.6,1971.6c-29.8-17.5-58.6-36.4-86.5-56.8"/>
	<path class="st0" d="M254.2,1517c-0.5-1.1-1-2.2-1.5-3.2"/>
	<path class="st0" d="M673,1969.4c-22.5-13.1-44.5-27-66-41.7"/>
	<path class="st0" d="M601.2,1923.6c-1.5-1-2.9-2-4.3-3.1"/>
	<path class="st0" d="M688.1,1971.5c-36.4-20.4-71.5-43.1-105.2-67.9"/>
	<path class="st0" d="M257.9,1497.9c-0.2-0.5-0.5-1.1-0.7-1.6"/>
	<path class="st0" d="M256.5,1494.6c-1.4-3.2-2.8-6.5-4.2-9.7"/>
	<path class="st0" d="M680.2,1960.5c-28.9-16.7-56.9-34.8-84-54.2"/>
	<path class="st0" d="M712,1971.7c-42.1-22.5-82.5-47.9-121-76.2"/>
	<path class="st0" d="M687.4,1951.6c-1-0.6-2-1.2-3-1.7"/>
	<path class="st0" d="M678.4,1946.3c-1.5-0.9-3-1.8-4.5-2.7"/>
	<path class="st0" d="M672.4,1942.8c-14.9-8.9-29.5-18.2-43.9-27.9"/>
	<path class="st0" d="M627,1914c-1-0.6-1.9-1.3-2.9-1.9"/>
	<path class="st0" d="M615.6,1906.1c-0.9-0.7-1.9-1.3-2.8-2"/>
	<path class="st0" d="M720.4,1963.4c-45.2-24-88.6-51.4-129.6-82.1"/>
	<path class="st0" d="M263.9,1453.7c-0.2-0.5-0.4-1.1-0.6-1.6"/>
	<path class="st0" d="M700.5,1946c-5-2.8-9.9-5.7-14.9-8.6"/>
	<path class="st0" d="M733.2,1957.3c-42.9-22.2-84.1-47.6-123.3-76"/>
	<path class="st0" d="M607.2,1879.3c-3.2-2.3-6.4-4.7-9.6-7.1"/>
	<path class="st0" d="M596.2,1871.2c-3.6-2.7-7.3-5.5-10.9-8.3"/>
	<path class="st0" d="M711.9,1939.5c-9.4-5.2-18.7-10.6-27.9-16.1"/>
	<path class="st0" d="M742.9,1949.6c-25-12.8-49.4-26.7-73.2-41.6"/>
	<path class="st0" d="M594.9,1856.1c-1.3-1-2.7-2.1-4-3.1"/>
	<path class="st0" d="M585.6,1848.8c-4.9-3.8-9.7-7.7-14.5-11.6"/>
	<path class="st0" d="M569.9,1836.2c-0.4-0.4-0.9-0.7-1.3-1.1"/>
	<path class="st0" d="M476.6,1748.5c-2.3-2.5-4.6-4.9-6.9-7.4"/>
	<path class="st0" d="M468.6,1739.9c-22.7-24.9-44.1-51-64-78.2"/>
	<path class="st0" d="M726.2,1934.5c-14.2-7.7-28.3-15.8-42.1-24.2"/>
	<path class="st0" d="M749.5,1940.3c-28.2-14.4-55.7-30.1-82.3-47.2"/>
	<path class="st0" d="M577,1827.4c-1.3-1.1-2.6-2.1-3.8-3.2"/>
	<path class="st0" d="M565.5,1817.8c-0.4-0.4-0.9-0.7-1.3-1.1"/>
	<path class="st0" d="M563,1815.7c-0.8-0.7-1.7-1.4-2.5-2.2"/>
	<path class="st0" d="M559.2,1812.4c-0.8-0.7-1.7-1.5-2.5-2.2"/>
	<path class="st0" d="M538,1793.6c-1.2-1.1-2.4-2.2-3.7-3.4"/>
	<path class="st0" d="M523.4,1779.9c-1.2-1.1-2.4-2.3-3.6-3.5"/>
	<path class="st0" d="M511.5,1768.3c-0.8-0.8-1.6-1.6-2.4-2.3"/>
	<path class="st0" d="M508,1764.8c-0.4-0.4-0.8-0.8-1.2-1.2"/>
	<path class="st0" d="M503.3,1760.1c-2.7-2.8-5.4-5.5-8.1-8.3"/>
	<path class="st0" d="M491.7,1748.1c-0.8-0.8-1.5-1.6-2.3-2.4"/>
	<path class="st0" d="M486,1742.1c-0.8-0.8-1.5-1.6-2.3-2.4"/>
	<path class="st0" d="M413.6,1654.9c-0.7-0.9-1.3-1.8-2-2.7"/>
	<path class="st0" d="M410.7,1650.9c-2-2.7-3.9-5.4-5.8-8.1"/>
	<path class="st0" d="M740.4,1929.2c-20-10.6-39.7-21.8-58.9-33.8"/>
	<path class="st0" d="M760.5,1933.2c-48.6-24.3-95-52.8-138.7-85.2"/>
	<path class="st0" d="M620.5,1847.1c-4.4-3.3-8.8-6.6-13.1-9.9"/>
	<path class="st0" d="M606.1,1836.2c-3-2.3-6.1-4.7-9.1-7.1"/>
	<path class="st0" d="M595.7,1828c-1.7-1.4-3.4-2.7-5.1-4.1"/>
	<path class="st0" d="M577.9,1813.5c-0.4-0.3-0.8-0.7-1.3-1"/>
	<path class="st0" d="M543.2,1783.1c-2.8-2.6-5.6-5.2-8.4-7.9"/>
	<path class="st0" d="M531.2,1771.8c-0.4-0.4-0.8-0.8-1.2-1.1"/>
	<path class="st0" d="M520.6,1761.5c-0.4-0.4-0.8-0.8-1.2-1.1"/>
	<path class="st0" d="M515.9,1756.8c-0.4-0.4-0.8-0.8-1.2-1.2"/>
	<path class="st0" d="M496.4,1736.7c-0.4-0.4-0.7-0.8-1.1-1.2"/>
	<path class="st0" d="M400,1615.9c-0.3-0.5-0.6-0.9-0.9-1.4"/>
	<path class="st0" d="M398.2,1613.2c-4.6-6.8-9-13.8-13.4-20.7"/>
	<path class="st0" d="M739.8,1916.1c-25-13.4-49.4-27.9-73.1-43.5"/>
	<path class="st0" d="M625.2,1843.5c-1.3-1-2.6-2-3.9-2.9"/>
	<path class="st0" d="M406.5,1615.5c-6.4-9.5-12.7-19.1-18.7-28.8"/>
	<path class="st0" d="M778.7,1929.6c-118.7-57.1-223.9-138.7-308.7-239.4"/>
	<path class="st0" d="M469,1688.9c-0.7-0.8-1.4-1.7-2.1-2.5"/>
	<path class="st0" d="M431.8,1641.6c-0.6-0.9-1.3-1.7-1.9-2.6"/>
	<path class="st0" d="M425.2,1632.4c-0.3-0.4-0.6-0.9-1-1.3"/>
	<path class="st0" d="M423.3,1629.7c-16.6-23.4-32.2-47.6-46.6-72.5"/>
	<path class="st0" d="M746.6,1907c-10.5-5.6-20.8-11.4-31-17.4"/>
	<path class="st0" d="M705.8,1883.8c-0.9-0.6-1.8-1.1-2.8-1.7"/>
	<path class="st0" d="M701.7,1881.3c-18.4-11.2-36.4-23-54-35.5"/>
	<path class="st0" d="M434.5,1635.6c-20-27.4-38.5-56-55.4-85.4"/>
	<path class="st0" d="M792.4,1923.6c-66-30.9-128.2-69.6-185.1-115.2"/>
	<path class="st0" d="M606,1807.4c-1.3-1-2.5-2-3.8-3"/>
	<path class="st0" d="M599.8,1802.3c-11.6-9.5-23-19.3-34.1-29.3"/>
	<path class="st0" d="M563.3,1770.8c-24.6-22.4-47.9-46-69.9-70.9"/>
	<path class="st0" d="M492.3,1698.7c-2.8-3.2-5.6-6.4-8.4-9.7"/>
	<path class="st0" d="M481.8,1686.6c-1.7-2-3.5-4.1-5.2-6.2"/>
	<path class="st0" d="M475.6,1679.2c-1-1.2-2-2.5-3.1-3.7"/>
	<path class="st0" d="M469.5,1671.7c-0.7-0.8-1.4-1.7-2-2.5"/>
	<path class="st0" d="M460.4,1660.5c-1.7-2.1-3.3-4.2-5-6.3"/>
	<path class="st0" d="M454.5,1652.9c-31.5-40.7-59.5-84-83.7-129.4"/>
	<path class="st0" d="M370,1522.1c-0.8-1.4-1.5-2.8-2.2-4.3"/>
	<path class="st0" d="M754.7,1898.5c-10.4-5.5-20.6-11.2-30.7-17"/>
	<path class="st0" d="M703.5,1869.2c-22.2-13.7-43.8-28.3-64.8-43.8"/>
	<path class="st0" d="M637.3,1824.4c-0.4-0.3-0.8-0.6-1.3-0.9"/>
	<path class="st0" d="M629.7,1818.7c-0.8-0.6-1.7-1.3-2.5-1.9"/>
	<path class="st0" d="M612,1804.9c-25-19.9-48.9-41.2-71.6-63.6"/>
	<path class="st0" d="M539.3,1740.2c-2.7-2.6-5.3-5.3-7.9-7.9"/>
	<path class="st0" d="M530.3,1731.2c-3.4-3.4-6.7-6.9-10-10.3"/>
	<path class="st0" d="M519.2,1719.7c-1.5-1.5-2.9-3.1-4.4-4.6"/>
	<path class="st0" d="M511.5,1711.5c-0.7-0.8-1.4-1.6-2.2-2.3"/>
	<path class="st0" d="M467.8,1660.7c-0.3-0.4-0.7-0.8-1-1.3"/>
	<path class="st0" d="M465.8,1658.2c-35.1-44.3-66-91.7-92.3-141.6"/>
	<path class="st0" d="M372,1513.8c-0.5-0.9-1-1.9-1.5-2.8"/>
	<path class="st0" d="M813,1920.6c-199.8-88.9-360.8-246.9-453.6-444.9"/>
	<path class="st0" d="M274.5,1048.7c0.2-4.8,0.5-9.5,0.8-14.3"/>
	<path class="st0" d="M275.4,1032.8c0.1-1.6,0.2-3.2,0.3-4.7"/>
	<path class="st0" d="M765.6,1891.5c-11.2-5.8-22.3-11.9-33.2-18.2"/>
	<path class="st0" d="M698.7,1852.9c-143-90.7-257.6-219.8-330.7-372.5"/>
	<path class="st0" d="M365.2,1474.7c-0.9-1.9-1.8-3.8-2.7-5.7"/>
	<path class="st0" d="M279.9,1053.6c0.2-5.8,0.5-11.5,0.9-17.3"/>
	<path class="st0" d="M280.9,1034.7c0.3-4.2,0.5-8.4,0.9-12.6"/>
	<path class="st0" d="M821.9,1912.2c-211.6-92.9-379.3-263.8-468.1-477.2"/>
	<path class="st0" d="M285.5,1124.4c-0.4-11.5-0.7-23-0.7-34.5"/>
	<path class="st0" d="M285.5,1057c0.6-16.2,1.6-32.3,3.1-48.5"/>
	<path class="st0" d="M773.6,1882.9c-8.3-4.3-16.6-8.7-24.7-13.3"/>
	<path class="st0" d="M703.4,1842.5c-155.8-99.3-277-244.4-346.7-415.4"/>
	<path class="st0" d="M291.6,1044.7c0.2-3.6,0.4-7.3,0.6-10.9"/>
	<path class="st0" d="M293,1023c0.2-2.1,0.3-4.1,0.5-6.2"/>
	<path class="st0" d="M293.8,1013.7c0.1-1.6,0.3-3.1,0.4-4.7"/>
	<path class="st0" d="M836.4,1906.1c-227.4-96.5-404.1-283.5-487.8-515.8"/>
	<path class="st0" d="M347.5,1387.3c-0.7-1.9-1.4-3.9-2.1-5.8"/>
	<path class="st0" d="M341.5,1369.8c-0.5-1.5-1-2.9-1.5-4.4"/>
	<path class="st0" d="M298.2,1150.2c-0.1-1.5-0.2-3.1-0.3-4.6"/>
	<path class="st0" d="M297.6,1140.9c-0.9-16-1.4-32-1.5-47.9"/>
	<path class="st0" d="M296.5,1065.2c0.7-23.7,2.3-47.4,4.8-71"/>
	<path class="st0" d="M782.9,1874.9c-1.4-0.7-2.8-1.4-4.1-2.1"/>
	<path class="st0" d="M697.8,1825.5c-163.7-107.9-286.7-267.4-349.5-453.1"/>
	<path class="st0" d="M346.4,1366.6c-0.2-0.5-0.3-1-0.5-1.5"/>
	<path class="st0" d="M340.3,1347.5c-0.1-0.5-0.3-1-0.4-1.4"/>
	<path class="st0" d="M303.3,1037.6c0.1-1,0.1-2,0.2-3"/>
	<path class="st0" d="M847.9,1898.7c-271.9-112.6-469-354.3-524.6-643.3"/>
	<path class="st0" d="M321.8,1248c-8.8-48.1-13.6-96.9-14.3-145.8"/>
	<path class="st0" d="M307.6,1073.1c0.6-33.1,3.1-66.1,7.5-99"/>
	<path class="st0" d="M316.2,966.6c0.1-1,0.3-2,0.4-3"/>
	<path class="st0" d="M706.6,1817.7c-201.4-131.8-339.2-341.2-380.6-578.3"/>
	<path class="st0" d="M323.3,1223c-0.1-0.5-0.2-1-0.2-1.5"/>
	<path class="st0" d="M321.8,1212.5c-2.4-17-4.3-34.1-5.8-51.3"/>
	<path class="st0" d="M862,1892.2c-0.9-0.4-1.9-0.8-2.8-1.1"/>
	<path class="st0" d="M856.4,1890c-2.3-1-4.7-1.9-7-2.9"/>
	<path class="st0" d="M842.4,1884.2c-310.2-132.9-514.6-434.3-523.4-771.6"/>
	<path class="st0" d="M318.8,1098.9c-0.2-18.1,0.2-36.2,1.1-54.2"/>
	<path class="st0" d="M320,1043.2c0.2-3,0.3-6,0.5-9.1"/>
	<path class="st0" d="M321.4,1022.1c0.2-2.5,0.4-5,0.6-7.5"/>
	<path class="st0" d="M326.3,975.6c0.1-0.5,0.1-1,0.2-1.5"/>
	<path class="st0" d="M707.8,1804.9C506,1670.9,370.3,1457.8,334,1218.3"/>
	<path class="st0" d="M331.1,1197.5c-0.3-2-0.5-4-0.7-5.9"/>
	<path class="st0" d="M328.9,1178.1c-0.7-6.5-1.3-12.9-1.8-19.4"/>
	<path class="st0" d="M878.6,1886.6c-0.9-0.4-1.9-0.7-2.8-1.1"/>
	<path class="st0" d="M833.2,1867.8c-292-131.2-485.9-415-502.1-734.7"/>
	<path class="st0" d="M331,1130.1c-0.6-12.4-0.9-24.8-0.9-37.2"/>
	<path class="st0" d="M330,1089.9c0-1.5,0-3,0-4.5"/>
	<path class="st0" d="M715.3,1796.4c-199.4-131.9-333.7-342-369.9-578.3"/>
	<path class="st0" d="M336,1113.6c0-1-0.1-2-0.1-3"/>
	<path class="st0" d="M897.8,1881.7c-0.9-0.3-1.9-0.7-2.8-1"/>
	<path class="st0" d="M841.9,1859.3c-284.5-126.1-476.2-398.8-498.4-709.2"/>
	<path class="st0" d="M341.3,1089.9c0-1.5,0-2.9,0-4.4"/>
	<path class="st0" d="M720.3,1786.2c-139.2-92.4-247.4-224.5-310.8-379"/>
	<path class="st0" d="M405.1,1396.3c-0.2-0.5-0.4-0.9-0.5-1.4"/>
	<path class="st0" d="M362.6,1250.8c-3.1-15.7-5.7-31.6-7.9-47.5"/>
	<path class="st0" d="M853.1,1851.9c-273.7-118.4-462.8-374.5-495.5-670.9"/>
	<path class="st0" d="M732.5,1780.7c-120.4-78.5-218.3-187.2-283.8-315.1"/>
	<path class="st0" d="M444.2,1456.6c-0.2-0.4-0.4-0.9-0.6-1.3"/>
	<path class="st0" d="M370.5,1231.7c-2-11.3-3.7-22.7-5.2-34.1"/>
	<path class="st0" d="M858.9,1842.1c-271.1-116.7-458.3-370.3-490.2-663.7"/>
	<path class="st0" d="M741.1,1772.8c-22.2-14.4-43.8-29.9-64.5-46.4"/>
	<path class="st0" d="M673.2,1723.7c-1.5-1.2-2.9-2.4-4.4-3.6"/>
	<path class="st0" d="M666.6,1718.4c-79.6-65.4-146-145.3-195.8-235.4"/>
	<path class="st0" d="M466.8,1475.5c-0.2-0.4-0.5-0.8-0.7-1.3"/>
	<path class="st0" d="M378.7,1211.5c-1-6.5-1.9-13.1-2.7-19.7"/>
	<path class="st0" d="M872.5,1835.5c-245.1-102-424.4-318-479.6-577.7"/>
	<path class="st0" d="M390.8,1248.2c-0.4-1.8-0.7-3.7-1.1-5.5"/>
	<path class="st0" d="M388.2,1234.3c-0.2-0.9-0.3-1.8-0.5-2.8"/>
	<path class="st0" d="M385.4,1217.6c-2.5-15.8-4.6-31.6-6.2-47.5"/>
	<path class="st0" d="M746,1762.5c-20.4-13.2-40.1-27.4-59.2-42.4"/>
	<path class="st0" d="M678.1,1713.2c-62.1-50.3-116.4-109.6-161-176"/>
	<path class="st0" d="M500.5,1511.4c-1.2-2-2.4-4-3.7-6"/>
	<path class="st0" d="M388.1,1197.4c-0.8-5.5-1.4-11.1-2.1-16.7"/>
	<path class="st0" d="M882,1827.2c-10.7-4.4-21.4-9-31.9-13.8"/>
	<path class="st0" d="M847.6,1812.3c-220.1-102.2-381.7-299.2-438.7-535.1"/>
	<path class="st0" d="M394.2,1200.7c-1.9-13.3-3.4-26.7-4.6-40.1"/>
	<path class="st0" d="M762.7,1759.8c-15.6-9.8-30.8-20.1-45.7-30.9"/>
	<path class="st0" d="M714.7,1727.2c-5.6-4.1-11.1-8.2-16.5-12.5"/>
	<path class="st0" d="M694.9,1712.2c-58-45.5-109.4-98.9-152.6-158.6"/>
	<path class="st0" d="M540.7,1551.3c-4.8-6.7-9.6-13.5-14.2-20.4"/>
	<path class="st0" d="M398.7,1191.8c-0.8-6.4-1.6-12.8-2.3-19.2"/>
	<path class="st0" d="M890,1818.3c-10.2-4.1-20.3-8.4-30.3-12.9"/>
	<path class="st0" d="M842.4,1797.3c-188.1-90.5-332.3-252.1-401-449.2"/>
	<path class="st0" d="M438.8,1340.3c-0.4-1.3-0.9-2.6-1.3-3.9"/>
	<path class="st0" d="M430.5,1314.2c-0.7-2.2-1.3-4.4-1.9-6.6"/>
	<path class="st0" d="M426.3,1299.7c-0.2-0.9-0.5-1.7-0.7-2.6"/>
	<path class="st0" d="M404.5,1192.4c-1.7-13.1-3.1-26.3-4.2-39.5"/>
	<path class="st0" d="M794.3,1765.6c-24-13.8-47.2-28.9-69.6-45.1"/>
	<path class="st0" d="M714.9,1713.2c-0.7-0.5-1.5-1.1-2.2-1.6"/>
	<path class="st0" d="M706.2,1706.6c-0.7-0.6-1.4-1.1-2.2-1.7"/>
	<path class="st0" d="M698.7,1700.7c-60.9-48.3-114.2-105.3-158.2-169.4"/>
	<path class="st0" d="M408.4,1178.2c-0.7-5.9-1.3-11.7-1.8-17.6"/>
	<path class="st0" d="M881.8,1802.7c-3.7-1.6-7.4-3.2-11.1-4.8"/>
	<path class="st0" d="M842.4,1784.8c-170.9-83.7-304.9-227.5-376.5-403.8"/>
	<path class="st0" d="M461.4,1369.7c-1.5-3.8-2.9-7.6-4.3-11.4"/>
	<path class="st0" d="M444.5,1321.3c-0.3-0.9-0.5-1.7-0.8-2.6"/>
	<path class="st0" d="M414.8,1184.2c-1.6-13.4-2.9-26.8-3.9-40.3"/>
	<path class="st0" d="M806.9,1759.8c-21.4-12-42.3-25.1-62.5-39.1"/>
	<path class="st0" d="M703.6,1690.2c-0.4-0.3-0.7-0.6-1.1-0.8"/>
	<path class="st0" d="M692.2,1680.9c-3.8-3.1-7.5-6.3-11.3-9.5"/>
	<path class="st0" d="M669.9,1661.6c-0.3-0.3-0.7-0.6-1-0.9"/>
	<path class="st0" d="M666.9,1659c-37.8-34.3-72-72.2-102.3-113.2"/>
	<path class="st0" d="M419.2,1172.9c-0.7-6.7-1.4-13.3-1.9-20"/>
	<path class="st0" d="M889.8,1793.9c-0.8-0.3-1.6-0.7-2.4-1"/>
	<path class="st0" d="M840.3,1771.1c-160.6-80.8-287.4-215.6-358.3-380.8"/>
	<path class="st0" d="M481,1387.9c-0.2-0.4-0.3-0.8-0.5-1.2"/>
	<path class="st0" d="M425.4,1177.6c-1.3-11-2.3-22.1-3.1-33.1"/>
	<path class="st0" d="M422.1,1141.8c-0.2-3.1-0.4-6.2-0.6-9.3"/>
	<path class="st0" d="M811.3,1749.3c-0.4-0.2-0.8-0.4-1.2-0.7"/>
	<path class="st0" d="M807.9,1747.3c-11.9-6.8-23.5-13.8-35-21.2"/>
	<path class="st0" d="M766.2,1721.8c-0.7-0.5-1.5-1-2.2-1.4"/>
	<path class="st0" d="M712.7,1683.1c-1-0.8-2.1-1.6-3.1-2.5"/>
	<path class="st0" d="M706.5,1678.1c-3.8-3-7.5-6.1-11.2-9.2"/>
	<path class="st0" d="M693.3,1667.1c-0.3-0.3-0.7-0.6-1-0.9"/>
	<path class="st0" d="M659,1636.2c-0.3-0.3-0.6-0.6-1-0.9"/>
	<path class="st0" d="M656.1,1633.4c-10.7-10.4-21.2-21.2-31.3-32.2"/>
	<path class="st0" d="M619.5,1595.4c-1.5-1.6-2.9-3.3-4.4-4.9"/>
	<path class="st0" d="M610.8,1585.4c-3.5-4-6.9-8-10.3-12.1"/>
	<path class="st0" d="M596.3,1568.3c-0.8-1-1.7-2.1-2.5-3.1"/>
	<path class="st0" d="M584.8,1553.8c-2.2-2.8-4.3-5.6-6.4-8.4"/>
	<path class="st0" d="M429.6,1163.8c-0.6-6.6-1.2-13.2-1.7-19.8"/>
	<path class="st0" d="M895.4,1783.9c-1.2-0.5-2.4-1-3.7-1.5"/>
	<path class="st0" d="M879.7,1777.2c-1.2-0.5-2.4-1.1-3.6-1.6"/>
	<path class="st0" d="M843,1759.8c-151.9-77.1-273.1-203.4-343.7-358.4"/>
	<path class="st0" d="M436.2,1172.3c-1.2-11.3-2.2-22.6-3-33.9"/>
	<path class="st0" d="M813.4,1737.5c-0.7-0.4-1.5-0.9-2.2-1.3"/>
	<path class="st0" d="M802.2,1731c-0.8-0.4-1.5-0.9-2.3-1.3"/>
	<path class="st0" d="M796.6,1727.6c-0.7-0.4-1.5-0.9-2.2-1.3"/>
	<path class="st0" d="M713.7,1669.3c-0.3-0.3-0.7-0.6-1-0.8"/>
	<path class="st0" d="M710.6,1666.9c-2.3-1.9-4.7-3.9-7-5.8"/>
	<path class="st0" d="M655.7,1617.1c-2.2-2.2-4.3-4.3-6.4-6.5"/>
	<path class="st0" d="M644.7,1606c-1.2-1.3-2.4-2.5-3.6-3.8"/>
	<path class="st0" d="M616.8,1575.1c-1.1-1.3-2.3-2.6-3.4-4"/>
	<path class="st0" d="M602.6,1558.1c-1.9-2.4-3.8-4.7-5.7-7.1"/>
	<path class="st0" d="M591.4,1543.8c-1.9-2.4-3.7-4.8-5.5-7.3"/>
	<path class="st0" d="M440.5,1158.8c-0.5-5.6-1-11.2-1.4-16.9"/>
	<path class="st0" d="M922.5,1782.5c-0.4-0.2-0.8-0.3-1.2-0.5"/>
	<path class="st0" d="M915.3,1779.7c-8.4-3.3-16.8-6.7-25.1-10.3"/>
	<path class="st0" d="M887.8,1768.5c-4.7-2.1-9.5-4.2-14.1-6.3"/>
	<path class="st0" d="M869,1760c-157.5-73.8-284-200.7-357.3-358.5"/>
	<path class="st0" d="M447.3,1169.8c-1.3-12.4-2.4-24.8-3.1-37.3"/>
	<path class="st0" d="M443.8,1124.8c-0.1-2.2-0.2-4.3-0.3-6.5"/>
	<path class="st0" d="M717.8,1658.1c-2.3-1.9-4.6-3.8-6.9-5.7"/>
	<path class="st0" d="M670.9,1616.3c-6.7-6.5-13.3-13.2-19.8-20"/>
	<path class="st0" d="M608.2,1547c-0.5-0.7-1.1-1.3-1.6-2"/>
	<path class="st0" d="M602.7,1540c-0.8-1-1.6-2-2.4-3.1"/>
	<path class="st0" d="M451.3,1152.6c-0.5-6.4-1-12.8-1.4-19.2"/>
	<path class="st0" d="M932.5,1774.2c-19.1-7-37.9-14.8-56.4-23.4"/>
	<path class="st0" d="M870.3,1748.1c-149.2-70.9-270-190.3-342.4-338.8"/>
	<path class="st0" d="M457.5,1158.5c-1.1-11.4-1.9-22.8-2.4-34.2"/>
	<path class="st0" d="M638,1565.2c-0.8-0.9-1.7-1.9-2.5-2.9"/>
	<path class="st0" d="M627.4,1552.7c-1.9-2.3-3.8-4.5-5.6-6.8"/>
	<path class="st0" d="M462.4,1150.4c-0.5-5.9-0.9-11.8-1.3-17.6"/>
	<path class="st0" d="M958.8,1771.4c-1.2-0.4-2.4-0.8-3.6-1.2"/>
	<path class="st0" d="M950.5,1768.6c-2.8-0.9-5.5-1.9-8.3-2.9"/>
	<path class="st0" d="M941.1,1765.3c-171.4-61.4-313-185.6-396.2-347.5"/>
	<path class="st0" d="M468.2,1152.4c-1-11.2-1.7-22.5-2.2-33.7"/>
	<path class="st0" d="M465.9,1113.7c0-1.3-0.1-2.5-0.1-3.8"/>
	<path class="st0" d="M473.1,1142c-0.4-5.8-0.8-11.6-1.1-17.3"/>
	<path class="st0" d="M937.9,1752.1c-164.4-60.8-300.4-180.7-381.3-336.2"/>
	<path class="st0" d="M479.6,1152.7c-1.2-13.1-2-26.2-2.4-39.4"/>
	<path class="st0" d="M484.2,1138.8c-0.5-6.5-0.8-13-1.1-19.5"/>
	<path class="st0" d="M952.1,1745.2c-166.7-58.7-304.7-178.7-386-335.6"/>
	<path class="st0" d="M489.8,1138.4c-0.6-9.3-1.1-18.6-1.4-27.8"/>
	<path class="st0" d="M881.8,1709.8c-0.4-0.2-0.7-0.3-1.1-0.5"/>
	<path class="st0" d="M495.1,1133.2c-0.4-6.8-0.8-13.6-1-20.4"/>
	<path class="st0" d="M954.7,1734.2c-164.6-58.3-300.7-177.4-380.3-332.9"/>
	<path class="st0" d="M500.7,1132.8c-0.6-9.1-1-18.3-1.2-27.4"/>
	<path class="st0" d="M900.7,1706.2c-3.9-1.8-7.9-3.6-11.8-5.5"/>
	<path class="st0" d="M505.9,1124.2c-0.2-4.7-0.4-9.5-0.6-14.2"/>
	<path class="st0" d="M966.2,1726.2c-164.5-56-301-173.6-380.7-328"/>
	<path class="st0" d="M512.1,1133.3c-0.7-11.3-1.2-22.7-1.3-34"/>
	<path class="st0" d="M918.1,1701.6c-0.7-0.3-1.4-0.6-2.1-0.9"/>
	<path class="st0" d="M912.8,1699.3c-1.1-0.5-2.1-1-3.2-1.4"/>
	<path class="st0" d="M907.5,1696.9c-3.2-1.4-6.4-2.9-9.5-4.4"/>
	<path class="st0" d="M517.1,1121.3c-0.3-5.4-0.4-10.9-0.6-16.3"/>
	<path class="st0" d="M977.5,1718.1c-166.2-54.3-304.1-172.3-383.5-328.1"/>
	<path class="st0" d="M522.9,1124.5c-0.5-10.4-0.8-20.7-0.9-31.1"/>
	<path class="st0" d="M528,1112.8c-0.2-4.6-0.3-9.1-0.3-13.7"/>
	<path class="st0" d="M977.8,1706.3c-161.2-53.6-295.1-168.3-372.7-319.5"/>
	<path class="st0" d="M534,1121.7c-0.5-9.4-0.7-18.9-0.8-28.3"/>
	<path class="st0" d="M533.4,1076.3c0-0.8,0-1.5,0.1-2.3"/>
	<path class="st0" d="M539.3,1113.5c-0.2-6.7-0.4-13.5-0.4-20.2"/>
	<path class="st0" d="M946.9,1683c-143.3-57-261.2-164.1-331.7-301.3"/>
	<path class="st0" d="M545.2,1118.9c-0.4-8.5-0.6-17.1-0.6-25.6"/>
	<path class="st0" d="M544.6,1091c0-3,0-5.9,0-8.9"/>
	<path class="st0" d="M785.6,1582.3c-0.9-0.7-1.7-1.4-2.6-2.1"/>
	<path class="st0" d="M550.5,1110.9c-0.2-5.9-0.3-11.8-0.3-17.7"/>
	<path class="st0" d="M963.3,1677.2c-146.2-54.7-266.8-161.9-338.1-300.7"/>
	<path class="st0" d="M556.3,1112.9c-0.3-9.1-0.5-18.2-0.4-27.4"/>
	<path class="st0" d="M556,1076.8c0-1.1,0-2.2,0.1-3.3"/>
	<path class="st0" d="M803.7,1582.2c-0.3-0.2-0.6-0.4-0.9-0.7"/>
	<path class="st0" d="M561.7,1105.1c-0.2-6.5-0.2-13-0.2-19.5"/>
	<path class="st0" d="M968.2,1667c-143.3-53.3-261.7-158-332-293.7"/>
	<path class="st0" d="M567.5,1110.3c-0.4-12.2-0.4-24.3-0.1-36.5"/>
	<path class="st0" d="M820,1580.3c-6.8-5.1-13.6-10.3-20.2-15.6"/>
	<path class="st0" d="M756,1525.8c-0.5-0.5-1-1-1.5-1.5"/>
	<path class="st0" d="M753,1522.8c-1.3-1.3-2.5-2.5-3.8-3.8"/>
	<path class="st0" d="M572.9,1099.5c-0.1-4.6-0.1-9.2-0.1-13.9"/>
	<path class="st0" d="M983.1,1660.4c-145.8-51.1-266.5-156-337.3-293.2"/>
	<path class="st0" d="M578.6,1104.7c-0.3-12.3-0.2-24.6,0.2-36.9"/>
	<path class="st0" d="M887.1,1610.5c-5.5-3.1-10.9-6.3-16.2-9.6"/>
	<path class="st0" d="M825,1570c-7.5-5.6-14.9-11.4-22.2-17.4"/>
	<path class="st0" d="M771.4,1525c-10.4-9.8-20.4-20-30.1-30.5"/>
	<path class="st0" d="M584.1,1094.1c0-5.9,0-11.9,0.1-17.8"/>
	<path class="st0" d="M994.7,1652.4c-2.3-0.8-4.6-1.6-6.9-2.3"/>
	<path class="st0" d="M982.9,1648.3c-139.3-49.9-255-150.1-324.3-280.9"/>
	<path class="st0" d="M589.9,1102.3c-0.3-13.1-0.1-26.2,0.5-39.3"/>
	<path class="st0" d="M890,1599.2c-13.3-7.7-26.4-15.9-39-24.5"/>
	<path class="st0" d="M849.3,1573.5c-0.6-0.4-1.1-0.8-1.7-1.2"/>
	<path class="st0" d="M826,1556.6c-6-4.6-11.9-9.2-17.6-14"/>
	<path class="st0" d="M779.9,1517.5c-8.7-8.2-17.2-16.7-25.3-25.4"/>
	<path class="st0" d="M595.4,1094c0-6.8,0-13.7,0.2-20.5"/>
	<path class="st0" d="M978.1,1634.5c-133-50-243-146.8-309.5-272.4"/>
	<path class="st0" d="M601.1,1102.1c-0.3-12.2-0.1-24.4,0.4-36.6"/>
	<path class="st0" d="M870.7,1574.2c-18.6-12-36.5-25-53.6-39.1"/>
	<path class="st0" d="M802.6,1522.8c-0.8-0.7-1.5-1.3-2.3-2"/>
	<path class="st0" d="M796.6,1517.4c-9.2-8.3-18.1-16.9-26.8-25.8"/>
	<path class="st0" d="M606.7,1090.9c0-5.7,0.1-11.4,0.2-17.1"/>
	<path class="st0" d="M983,1624.3c-133-49.7-242.7-147.3-307.6-273.6"/>
	<path class="st0" d="M612.4,1101.9c-0.3-15.9,0-31.9,1-47.8"/>
	<path class="st0" d="M879.3,1566.3c-32.5-20.7-62.7-44.6-90.3-71.4"/>
	<path class="st0" d="M618,1090.9c0-7.6,0.1-15.1,0.4-22.7"/>
	<path class="st0" d="M997.1,1617.4c-131-46.1-240.1-139.3-306.2-261.5"/>
	<path class="st0" d="M646.6,1248.7c-0.6-1.9-1.1-3.7-1.6-5.6"/>
	<path class="st0" d="M623.6,1093.8c-0.1-10.4,0.1-20.8,0.7-31.2"/>
	<path class="st0" d="M624.6,1056.7c0.1-1,0.1-1.9,0.2-2.9"/>
	<path class="st0" d="M878.9,1552.6c-19.1-12.6-37.4-26.3-54.9-41.1"/>
	<path class="st0" d="M819.7,1507.7c-4.9-4.2-9.7-8.5-14.4-12.9"/>
	<path class="st0" d="M796.2,1486.1c-0.7-0.7-1.4-1.3-2.1-2"/>
	<path class="st0" d="M629.3,1085.1c0.1-6.4,0.2-12.9,0.5-19.3"/>
	<path class="st0" d="M1011.7,1610.5c-134-44-245.8-138-312.2-262.4"/>
	<path class="st0" d="M658.6,1249.2c-1.2-4-2.4-7.9-3.5-11.9"/>
	<path class="st0" d="M634.9,1093.7c-0.1-12.1,0.2-24.2,1-36.3"/>
	<path class="st0" d="M636,1054.5c0.1-1.9,0.3-3.8,0.4-5.7"/>
	<path class="st0" d="M997.4,1599.5c-1.8-0.6-3.6-1.3-5.3-2"/>
	<path class="st0" d="M889.1,1545.8c-7.2-4.6-14.2-9.4-21.2-14.4"/>
	<path class="st0" d="M860.3,1525.9c-8.1-6-16.1-12.2-23.8-18.7"/>
	<path class="st0" d="M825.6,1498c-0.2-0.2-0.5-0.4-0.7-0.6"/>
	<path class="st0" d="M640.6,1085.2c0.1-7.6,0.3-15.1,0.7-22.7"/>
	<path class="st0" d="M1031.3,1604.7c-136.2-40.1-251-132.6-319.2-257.1"/>
	<path class="st0" d="M673.9,1260.2c-0.2-0.6-0.4-1.2-0.6-1.7"/>
	<path class="st0" d="M673,1257.5c-1.6-4.7-3.1-9.5-4.5-14.3"/>
	<path class="st0" d="M667.7,1240.5c-0.8-2.7-1.6-5.4-2.3-8.1"/>
	<path class="st0" d="M652.6,1173c-0.1-0.9-0.3-1.9-0.4-2.8"/>
	<path class="st0" d="M646.2,1093.7c-0.1-12.2,0.2-24.4,1-36.5"/>
	<path class="st0" d="M1005.6,1590.5c-3.8-1.3-7.5-2.7-11.3-4.1"/>
	<path class="st0" d="M867.7,1517.3c-2.5-1.8-5-3.7-7.4-5.6"/>
	<path class="st0" d="M859.6,1511.2c-2.2-1.7-4.4-3.4-6.6-5.1"/>
	<path class="st0" d="M651.9,1082.5c0.1-8.6,0.5-17.3,1-25.9"/>
	<path class="st0" d="M1042.4,1596.2c-134.6-37.3-248.8-126.7-317.3-248.4"/>
	<path class="st0" d="M686.7,1262.7c-3.5-10.1-6.7-20.3-9.6-30.6"/>
	<path class="st0" d="M665.9,1183.8c-1.2-6.6-2.3-13.2-3.2-19.9"/>
	<path class="st0" d="M662.3,1161.2c-0.4-2.7-0.7-5.4-1.1-8.1"/>
	<path class="st0" d="M657.5,1093.6c-0.1-12.2,0.3-24.5,1-36.7"/>
	<path class="st0" d="M659.3,1046c0.3-3.1,0.5-6.1,0.8-9.1"/>
	<path class="st0" d="M1016.2,1582.2c-4.3-1.5-8.6-3-12.8-4.5"/>
	<path class="st0" d="M873.7,1507.7c-0.7-0.5-1.4-1.1-2.2-1.6"/>
	<path class="st0" d="M663.2,1082.7c0.1-8.5,0.4-16.9,1-25.4"/>
	<path class="st0" d="M1054.1,1587.6c-136.5-35.3-252.5-125.1-320.9-248.5"/>
	<path class="st0" d="M701,1269.1c-4.6-12.3-8.7-24.9-12.3-37.5"/>
	<path class="st0" d="M678.5,1189.7c-3.1-15.8-5.5-31.8-7.2-47.9"/>
	<path class="st0" d="M668.8,1093.5c-0.1-13.2,0.3-26.3,1.2-39.4"/>
	<path class="st0" d="M1028.3,1574.3c-7.6-2.4-15.2-5-22.7-7.8"/>
	<path class="st0" d="M674.6,1076.6c0.2-7.4,0.5-14.8,1.1-22.2"/>
	<path class="st0" d="M1057,1576.7c-72.5-18.8-139.9-53.5-197.3-101.6"/>
	<path class="st0" d="M853.6,1469.9c-43-37.2-79.4-81.5-107.5-130.9"/>
	<path class="st0" d="M744.8,1336.8c-0.4-0.8-0.9-1.5-1.3-2.3"/>
	<path class="st0" d="M712.8,1268.5c-5.6-14.8-10.5-29.8-14.7-45.1"/>
	<path class="st0" d="M690.7,1192.7c-3.5-16.9-6.2-34-8-51.1"/>
	<path class="st0" d="M680.1,1093.4c-0.1-13.2,0.3-26.4,1.3-39.5"/>
	<path class="st0" d="M683.1,1034.7c0.2-2,0.5-4.1,0.7-6.1"/>
	<path class="st0" d="M1036.7,1565.1c-9.4-2.9-18.7-6.1-27.9-9.5"/>
	<path class="st0" d="M695.9,1189.9c-0.6-2.8-1.1-5.7-1.7-8.5"/>
	<path class="st0" d="M685.9,1076.9c0.2-7.5,0.6-15,1.1-22.5"/>
	<path class="st0" d="M1054,1564.2c-64.8-17.6-125.3-48.3-177.8-90.2"/>
	<path class="st0" d="M866.9,1466.4c-42.2-35.4-78.1-77.6-106.3-124.9"/>
	<path class="st0" d="M757.6,1336.4c-1.6-2.7-3.1-5.5-4.7-8.2"/>
	<path class="st0" d="M724.9,1268.4c-5.7-14.7-10.7-29.6-15-44.7"/>
	<path class="st0" d="M702.3,1192.9c-3.7-17.1-6.4-34.3-8.2-51.6"/>
	<path class="st0" d="M691.4,1093.3c-0.1-15.2,0.5-30.3,1.8-45.4"/>
	<path class="st0" d="M1034.3,1552.5c-8.6-2.8-17.1-5.8-25.6-9"/>
	<path class="st0" d="M946.6,1514.4c-1.7-1-3.4-1.9-5.2-2.9"/>
	<path class="st0" d="M927.5,1503.3c-0.2-0.1-0.5-0.3-0.7-0.4"/>
	<path class="st0" d="M697.2,1076.4c0.2-7.4,0.6-14.7,1.1-22"/>
	<path class="st0" d="M1042.5,1549.1c-116-35.5-214.3-113.5-275.1-218.4"/>
	<path class="st0" d="M766.1,1328.6c-0.1-0.2-0.3-0.5-0.4-0.7"/>
	<path class="st0" d="M737.3,1269c-6.7-16.6-12.4-33.6-17.2-50.8"/>
	<path class="st0" d="M716.3,1203.6c-0.3-1.1-0.5-2.2-0.8-3.2"/>
	<path class="st0" d="M714.9,1197.9c-4.1-17.7-7.2-35.6-9.2-53.6"/>
	<path class="st0" d="M705.2,1139.3c-0.2-1.9-0.4-3.9-0.6-5.8"/>
	<path class="st0" d="M702.7,1094.1c-0.1-16.2,0.5-32.4,2-48.5"/>
	<path class="st0" d="M1031.5,1539.7c-6.5-2.2-13-4.5-19.5-7"/>
	<path class="st0" d="M941.3,1498.4c-8.8-5.2-17.4-10.7-25.8-16.4"/>
	<path class="st0" d="M901.9,1472.4c-4.9-3.6-9.7-7.3-14.5-11.1"/>
	<path class="st0" d="M843.2,1421.3c-0.2-0.2-0.4-0.4-0.5-0.6"/>
	<path class="st0" d="M837.5,1415.4c-0.2-0.2-0.4-0.4-0.6-0.6"/>
	<path class="st0" d="M720.8,1198.3c-0.4-1.9-0.9-3.8-1.3-5.6"/>
	<path class="st0" d="M708.5,1076.6c0.3-9.4,0.8-18.8,1.6-28.1"/>
	<path class="st0" d="M1037.2,1535.6c-108.5-35.5-200.4-109.3-258.4-207.7"/>
	<path class="st0" d="M750.6,1271.6c-5.5-13.1-10.4-26.4-14.7-39.9"/>
	<path class="st0" d="M730.1,1212.1c-7.3-26.9-12.1-54.4-14.5-82.1"/>
	<path class="st0" d="M713.9,1094c-0.2-17.2,0.6-34.4,2.4-51.5"/>
	<path class="st0" d="M1029,1526.9c-5.8-2.1-11.7-4.2-17.4-6.5"/>
	<path class="st0" d="M947,1488.7c-7.4-4.4-14.7-9-21.9-13.8"/>
	<path class="st0" d="M901.5,1457.9c-1.3-1-2.6-2-3.8-3"/>
	<path class="st0" d="M895.7,1453.5c-2.7-2.2-5.5-4.4-8.2-6.6"/>
	<path class="st0" d="M883.8,1443.8c-0.6-0.5-1.2-1.1-1.9-1.6"/>
	<path class="st0" d="M877.7,1438.5c-0.4-0.4-0.8-0.7-1.2-1.1"/>
	<path class="st0" d="M865.1,1427.1c-14.1-13.3-27.4-27.5-39.8-42.5"/>
	<path class="st0" d="M822.8,1381.5c-1-1.3-2-2.5-3.1-3.8"/>
	<path class="st0" d="M736,1212.2c-1.3-4.7-2.5-9.4-3.6-14.1"/>
	<path class="st0" d="M719.6,1082.6c0.2-12.4,0.9-24.8,2.1-37.2"/>
	<path class="st0" d="M1034.6,1522.9c-104.4-35.7-192.4-108-247.7-203.5"/>
	<path class="st0" d="M765.4,1277.5c-6.7-14.8-12.5-30-17.6-45.5"/>
	<path class="st0" d="M746.9,1229c-11.3-35.6-18.3-72.4-20.7-109.6"/>
	<path class="st0" d="M725.2,1093.9c-0.2-18.9,0.8-37.8,3-56.6"/>
	<path class="st0" d="M732.4,1008.9c0.1-0.5,0.2-1.1,0.3-1.6"/>
	<path class="st0" d="M949.4,1476.9c-4.7-2.9-9.4-5.8-14.1-8.8"/>
	<path class="st0" d="M912.7,1452.3c-2.5-1.9-5.1-3.8-7.5-5.8"/>
	<path class="st0" d="M890.5,1434.6c-11.8-10-23.1-20.7-33.9-31.9"/>
	<path class="st0" d="M842.2,1387c-5.7-6.5-11.2-13.2-16.5-20.1"/>
	<path class="st0" d="M767.7,1268.7c-0.5-1.2-1-2.4-1.5-3.6"/>
	<path class="st0" d="M751.1,1223.6c-2-6.5-3.9-13.1-5.6-19.7"/>
	<path class="st0" d="M731.1,1076.5c0.3-11.3,1.1-22.6,2.3-33.9"/>
	<path class="st0" d="M1034.6,1510.9c-99-34.9-182.5-103.5-235.9-193.8"/>
	<path class="st0" d="M780.3,1282.8c-24.2-50.5-38.7-105.1-42.7-160.9"/>
	<path class="st0" d="M737.5,1119.5c-0.1-2.1-0.3-4.1-0.4-6.2"/>
	<path class="st0" d="M736.5,1093.8c-0.2-19,0.9-37.9,3.1-56.7"/>
	<path class="st0" d="M932,1452.2c-2.5-1.7-5-3.5-7.5-5.3"/>
	<path class="st0" d="M892.6,1421.5c-0.8-0.7-1.6-1.4-2.3-2"/>
	<path class="st0" d="M889.1,1418.5c-8-7.2-15.8-14.7-23.3-22.4"/>
	<path class="st0" d="M840.8,1367.8c-4.5-5.6-8.9-11.2-13.2-17"/>
	<path class="st0" d="M767.7,1237.7c-3.4-9.4-6.4-19-9.1-28.6"/>
	<path class="st0" d="M742.2,1082.2c0.2-13.1,1-26.1,2.4-39.1"/>
	<path class="st0" d="M1034.1,1498.7c-29.1-10.6-56.9-24.2-83.1-40.7"/>
	<path class="st0" d="M949.8,1457.2c-31-19.7-59.5-43.2-84.6-70.1"/>
	<path class="st0" d="M848.1,1367.8c-14.7-17.7-28-36.6-39.8-56.5"/>
	<path class="st0" d="M795.9,1288.8c-28-54.5-44.2-114.2-47.5-175.4"/>
	<path class="st0" d="M747.9,1099c-0.5-21.5,0.7-43,3.4-64.4"/>
	<path class="st0" d="M1011.6,1483.7c-1.8-0.8-3.7-1.6-5.5-2.4"/>
	<path class="st0" d="M957.9,1455.6c-0.2-0.1-0.4-0.3-0.6-0.4"/>
	<path class="st0" d="M901.7,1414.5c-2.8-2.5-5.6-4.9-8.4-7.5"/>
	<path class="st0" d="M890.5,1404.5c-2-1.9-4-3.7-6-5.7"/>
	<path class="st0" d="M846.3,1356.6c-3.3-4.1-6.4-8.3-9.5-12.5"/>
	<path class="st0" d="M793.7,1271.4c-0.4-0.9-0.8-1.8-1.3-2.7"/>
	<path class="st0" d="M785.3,1252.1c-0.7-1.6-1.3-3.2-2-4.9"/>
	<path class="st0" d="M781.7,1243.1c-3.8-10-7.3-20.2-10.4-30.5"/>
	<path class="st0" d="M753.5,1082.4c0.3-15,1.3-30,3.1-44.9"/>
	<path class="st0" d="M1042.8,1489.8c-31-10.9-60.6-25.3-88.3-43"/>
	<path class="st0" d="M935.6,1434c-19.4-14-37.6-29.5-54.4-46.6"/>
	<path class="st0" d="M853.5,1356.6c-13.5-16.7-25.7-34.4-36.6-52.9"/>
	<path class="st0" d="M814.8,1299.9c-0.1-0.2-0.2-0.4-0.4-0.6"/>
	<path class="st0" d="M813.3,1297.3c-0.6-1.1-1.2-2.1-1.8-3.2"/>
	<path class="st0" d="M810.1,1291.4c-42-77.6-58.6-166.4-47.7-253.9"/>
	<path class="st0" d="M1026.9,1477.9c-7.9-3.2-15.7-6.6-23.4-10.3"/>
	<path class="st0" d="M1001.5,1466.7c-1.3-0.6-2.6-1.3-4-1.9"/>
	<path class="st0" d="M853.8,1347.9c-2.8-3.6-5.6-7.3-8.4-11"/>
	<path class="st0" d="M809,1277.1c-1.4-2.8-2.8-5.7-4.1-8.5"/>
	<path class="st0" d="M799.7,1257.3c-3.6-8.3-6.9-16.6-10-25.1"/>
	<path class="st0" d="M764.8,1082.6c0.3-15.1,1.3-30.1,3.2-45.1"/>
	<path class="st0" d="M1054,1481.7c-34.9-11.5-68.2-27.6-98.8-47.9"/>
	<path class="st0" d="M941,1424c-15.4-11.1-29.9-23.3-43.6-36.4"/>
	<path class="st0" d="M861,1347.8c-70.6-88.1-102-201.3-86.9-313.2"/>
	<path class="st0" d="M1043.7,1472.2c-18.7-6.8-36.9-15-54.3-24.4"/>
	<path class="st0" d="M987.5,1446.8c-3.3-1.8-6.6-3.7-9.9-5.6"/>
	<path class="st0" d="M823.3,1280.3c-7.3-13.8-13.8-28-19.5-42.6"/>
	<path class="st0" d="M776,1085.6c0.2-16.1,1.3-32.2,3.4-48.1"/>
	<path class="st0" d="M1065.6,1473.6c-38.2-11.7-74.5-29-107.6-51.4"/>
	<path class="st0" d="M947,1414.5c-11.5-8.4-22.6-17.3-33.1-26.9"/>
	<path class="st0" d="M868.9,1339.6c-68.3-85.9-98.5-196.1-83.4-304.9"/>
	<path class="st0" d="M1056.7,1464.8c-22.9-7.7-45.1-17.5-66.2-29.3"/>
	<path class="st0" d="M983.3,1431.4c-5.6-3.2-11-6.6-16.4-10.1"/>
	<path class="st0" d="M836.9,1281.7c-7.8-14.1-14.8-28.6-20.8-43.6"/>
	<path class="st0" d="M787.3,1091.3c-0.1-18,1.1-35.9,3.5-53.7"/>
	<path class="st0" d="M1082.6,1466.7c-42.4-11.3-82.6-29.6-118.9-54.3"/>
	<path class="st0" d="M952.6,1404.5c-7.3-5.4-14.5-11-21.4-16.8"/>
	<path class="st0" d="M876.5,1331c-4.9-6.2-9.6-12.6-14.2-19.2"/>
	<path class="st0" d="M860,1308.5c-54.4-80.4-76.9-178.1-63-274.2"/>
	<path class="st0" d="M797.8,1028.9c0.1-0.9,0.3-1.8,0.4-2.7"/>
	<path class="st0" d="M1057.1,1453c-18.6-6.4-36.7-14.3-54-23.5"/>
	<path class="st0" d="M998.3,1427c-0.2-0.1-0.4-0.2-0.6-0.3"/>
	<path class="st0" d="M850.8,1283.2c-8-13.7-15.1-27.9-21.3-42.5"/>
	<path class="st0" d="M798.7,1099.3c-0.5-18.8,0.5-37.6,2.7-56.2"/>
	<path class="st0" d="M1123.6,1463.8c-56.4-8.9-110-30.5-156.8-63"/>
	<path class="st0" d="M958.2,1394.6c-0.9-0.7-1.8-1.3-2.7-2"/>
	<path class="st0" d="M952.4,1390.3c-0.9-0.7-1.7-1.3-2.6-2"/>
	<path class="st0" d="M870.8,1304.3c-54.2-78.8-76.5-175.2-62.5-269.7"/>
	<path class="st0" d="M809.2,1028.7c0.1-0.9,0.3-1.7,0.4-2.6"/>
	<path class="st0" d="M1065.1,1443.8c-35.1-11.7-68.2-28.5-98.3-49.9"/>
	<path class="st0" d="M867.3,1288.6c-9.7-15.4-18.3-31.5-25.6-48.2"/>
	<path class="st0" d="M810.1,1102.3c-0.4-13.2-0.2-26.5,0.8-39.7"/>
	<path class="st0" d="M811.3,1057.4c0.6-6.7,1.4-13.4,2.3-20"/>
	<path class="st0" d="M1144.5,1455.2c-64.3-6.8-125.7-30.4-178-68.5"/>
	<path class="st0" d="M881.6,1300.1c-54-77.3-76.1-172.5-61.8-265.7"/>
	<path class="st0" d="M1432.4,820.4c4.1,3.8,8.1,7.6,12,11.6"/>
	<path class="st0" d="M1068.1,1432.9c-5.4-1.8-10.7-3.7-16-5.8"/>
	<path class="st0" d="M1042.7,1423.3c-27-11.3-52.5-25.9-76-43.4"/>
	<path class="st0" d="M875.1,1279.9c-9.4-15.2-17.7-31.1-24.7-47.6"/>
	<path class="st0" d="M821.2,1093.7c-0.2-16.8,0.8-33.7,3-50.4"/>
	<path class="st0" d="M1155.5,1444.9c-69.9-5.4-136.6-31.3-191.9-74.4"/>
	<path class="st0" d="M960.3,1367.7c-0.6-0.5-1.3-1-1.9-1.6"/>
	<path class="st0" d="M896.3,1301.2c-55.9-75.8-79.5-170.7-65.5-263.9"/>
	<path class="st0" d="M1333.9,767.5c5.8,2.7,11.6,5.6,17.2,8.6"/>
	<path class="st0" d="M1359.8,781c3.8,2.2,7.5,4.4,11.2,6.7"/>
	<path class="st0" d="M1373.6,789.3c0.9,0.6,1.7,1.1,2.6,1.7"/>
	<path class="st0" d="M1378.3,792.3c0.3,0.2,0.7,0.5,1,0.7"/>
	<path class="st0" d="M1405.5,812.1c11,8.8,21.5,18.3,31.3,28.3"/>
	<path class="st0" d="M1082.2,1425.5c-24.4-7.3-48-17.3-70.2-29.7"/>
	<path class="st0" d="M1003.4,1390.9c-1.7-1-3.5-2.1-5.2-3.2"/>
	<path class="st0" d="M973,1370.5c-1.1-0.9-2.3-1.7-3.4-2.6"/>
	<path class="st0" d="M958.6,1359.1c-0.2-0.1-0.3-0.3-0.5-0.4"/>
	<path class="st0" d="M886.7,1277.1c-1.5-2.4-3-4.8-4.5-7.3"/>
	<path class="st0" d="M881.6,1268.8c-5.9-10-11.4-20.3-16.3-30.8"/>
	<path class="st0" d="M833.3,1113.7c-1.6-23.6-0.8-47.3,2.3-70.8"/>
	<path class="st0" d="M1155.8,1433.6c-76.9-6-149.5-37.7-206.3-89.9"/>
	<path class="st0" d="M948.2,1342.4c-0.4-0.4-0.9-0.8-1.3-1.2"/>
	<path class="st0" d="M945.1,1339.5c-1.3-1.2-2.6-2.5-3.9-3.8"/>
	<path class="st0" d="M933.6,1328.1c-0.3-0.3-0.5-0.6-0.8-0.9"/>
	<path class="st0" d="M925.9,1319.7c-67.4-75.3-98.3-176.4-84.6-276.6"/>
	<path class="st0" d="M842.2,1037.2c0.1-0.8,0.2-1.6,0.4-2.4"/>
	<path class="st0" d="M1334,780.1c36.7,17.9,69.9,42.2,98.1,71.7"/>
	<path class="st0" d="M1091.1,1416.3c-8.7-2.5-17.4-5.3-25.9-8.4"/>
	<path class="st0" d="M1034.2,1394.7c-5.7-2.8-11.3-5.7-16.8-8.8"/>
	<path class="st0" d="M977.9,1360c-8.5-6.4-16.7-13.3-24.5-20.5"/>
	<path class="st0" d="M896.2,1271.1c-8.4-13.3-15.9-27.3-22.4-41.7"/>
	<path class="st0" d="M844.6,1113.5c-1.6-23.4-0.8-47,2.4-70.2"/>
	<path class="st0" d="M1155.6,1422.2c-2.3-0.2-4.6-0.4-7-0.6"/>
	<path class="st0" d="M1141.7,1420.8C958.9,1398,829.2,1231.4,852,1048.7c0.5-3.9,1-7.7,1.6-11.5"/>
	<path class="st0" d="M1308.3,781c26.6,10.8,51.8,25,74.8,42.3"/>
	<path class="st0" d="M1384.9,824.7c16.2,12.3,31.3,26.2,44.9,41.3"/>
	<path class="st0" d="M1093.6,1405.3c-6.8-1.9-13.5-4.1-20.2-6.4"/>
	<path class="st0" d="M1042.8,1386.3c-8.6-4.1-17.1-8.5-25.3-13.3"/>
	<path class="st0" d="M983.8,1350.3c-3.9-3-7.8-6.1-11.6-9.3"/>
	<path class="st0" d="M890.5,1238.2c-0.9-1.9-1.9-3.7-2.8-5.6"/>
	<path class="st0" d="M856.4,1119c-2.2-24.3-1.6-48.8,1.7-73"/>
	<path class="st0" d="M1438.1,1286.5c-0.7,0.9-1.4,1.8-2.1,2.7"/>
	<path class="st0" d="M1435.3,1290c-0.5,0.6-0.9,1.2-1.4,1.7"/>
	<path class="st0" d="M1429.6,1297c-0.1,0.1-0.2,0.3-0.4,0.4"/>
	<path class="st0" d="M1119.2,1405.7c-168-33.9-280.1-193.3-255-362.8"/>
	<path class="st0" d="M866.5,1029c0.2-0.9,0.4-1.8,0.5-2.7"/>
	<path class="st0" d="M1294.6,787.8c31.5,11.7,61,28.2,87.5,49"/>
	<path class="st0" d="M1384.7,838.8c15.4,12.3,29.5,26.1,42.4,41"/>
	<path class="st0" d="M1085.1,1390.9c-1.8-0.6-3.5-1.2-5.2-1.8"/>
	<path class="st0" d="M1042.6,1373.6c-11.6-5.7-22.8-12.1-33.5-19.2"/>
	<path class="st0" d="M1003.6,1350.7c-6.5-4.5-12.9-9.2-19-14.2"/>
	<path class="st0" d="M898.6,1229.2c-0.8-1.7-1.6-3.3-2.4-5"/>
	<path class="st0" d="M869.4,1133.4c-3.6-26.1-4-52.6-1-78.8"/>
	<path class="st0" d="M1463.2,1224.2c-0.5,1-0.9,2-1.4,2.9"/>
	<path class="st0" d="M1460.8,1229.1c-0.2,0.3-0.3,0.6-0.5,0.9"/>
	<path class="st0" d="M1440.9,1263.3c-13.2,19.7-28.7,37.8-46,54"/>
	<path class="st0" d="M1392.9,1319.1c-0.4,0.4-0.8,0.7-1.2,1.1"/>
	<path class="st0" d="M1364.7,1342c-0.3,0.2-0.6,0.4-0.9,0.6"/>
	<path class="st0" d="M1358.9,1346.1c-1,0.7-2.1,1.4-3.1,2.1"/>
	<path class="st0" d="M1129.4,1396.1c-164.3-28.7-276.7-182-254.7-347.3"/>
	<path class="st0" d="M876.4,1037.5c0.1-0.4,0.1-0.7,0.2-1.1"/>
	<path class="st0" d="M1289.2,797.8c55.9,20.4,104.9,56.4,141,103.7"/>
	<path class="st0" d="M1042.9,1361.1c-13.7-7.1-26.9-15.2-39.4-24.3"/>
	<path class="st0" d="M907.6,1221.8c-0.2-0.3-0.3-0.6-0.5-1"/>
	<path class="st0" d="M880.8,1133.4c-0.4-2.8-0.8-5.6-1.1-8.5"/>
	<path class="st0" d="M879.1,1119.2c-0.2-1.8-0.3-3.5-0.5-5.3"/>
	<path class="st0" d="M878.4,1110.7c-1.2-17.9-0.9-35.9,1.1-53.7"/>
	<path class="st0" d="M1345.5,831.6c2.9,1.8,5.7,3.6,8.5,5.5"/>
	<path class="st0" d="M1458,1208.4c-0.3,0.6-0.5,1.3-0.8,1.9"/>
	<path class="st0" d="M1455.9,1213.2c-24.3,53.8-63.9,99.2-113.8,130.5"/>
	<path class="st0" d="M1136,1385.8c-159-25.2-269.7-171.5-250.6-331.4"/>
	<path class="st0" d="M887.9,1037.4c0.5-2.7,1-5.5,1.6-8.2"/>
	<path class="st0" d="M1257.9,799.9c70.1,18.1,131.3,61,172.2,120.8"/>
	<path class="st0" d="M1043.1,1348.4c-9.8-5.3-19.3-11.1-28.4-17.5"/>
	<path class="st0" d="M889.9,1113.5c-1.5-18.6-1.2-37.3,0.8-55.8"/>
	<path class="st0" d="M1339.9,841.5c4.8,3,9.5,6.2,14,9.5"/>
	<path class="st0" d="M1354.8,851.5c1.5,1.1,3,2.2,4.6,3.4"/>
	<path class="st0" d="M1447.4,1204.4c-0.3,0.6-0.5,1.2-0.8,1.9"/>
	<path class="st0" d="M1445,1209.9c-21.4,46.8-55,87-97.2,116.4"/>
	<path class="st0" d="M1119,1371c-15.5-3.5-30.8-8.3-45.5-14.4"/>
	<path class="st0" d="M1059.7,1350.5c-0.9-0.4-1.8-0.9-2.7-1.3"/>
	<path class="st0" d="M1054.7,1348.1c-108.7-54-172-170.3-158.2-290.9"/>
	<path class="st0" d="M898.4,1043.3c0.3-2,0.7-4,1-5.9"/>
	<path class="st0" d="M1259.4,812c71.4,19.7,132.4,66,170.5,129.4"/>
	<path class="st0" d="M1097.9,1359.5c-2.8-0.9-5.6-1.8-8.4-2.8"/>
	<path class="st0" d="M1042.8,1335.4c-8.4-4.8-16.6-10-24.5-15.7"/>
	<path class="st0" d="M900.6,1105.2c-0.7-13.1-0.5-26.3,0.6-39.4"/>
	<path class="st0" d="M1325.4,845.9c14.1,8.2,27.4,17.6,39.8,28.1"/>
	<path class="st0" d="M1438.2,1197.2c-16.4,39.1-41.6,73.9-73.6,101.7"/>
	<path class="st0" d="M1362.7,1300.5c-1.2,1-2.5,2.1-3.7,3.1"/>
	<path class="st0" d="M1322.2,1329.3c-1.8,1.1-3.6,2.1-5.5,3.1"/>
	<path class="st0" d="M1144.3,1364.2c-24.3-3.4-48-10-70.6-19.7"/>
	<path class="st0" d="M1069.3,1342.5c-2.1-0.9-4.1-1.9-6.1-2.8"/>
	<path class="st0" d="M1059.7,1338c-103-51.1-163.7-160.6-152.5-275.1"/>
	<path class="st0" d="M1252.2,821.7c73.7,19.1,136.3,67.6,173.1,134.3"/>
	<path class="st0" d="M1099.4,1348.1c-2.8-0.9-5.7-1.9-8.5-2.9"/>
	<path class="st0" d="M1043.1,1322.5c-6.9-4.1-13.6-8.6-20.1-13.3"/>
	<path class="st0" d="M912.3,1110.7c-0.9-12.1-1-24.3-0.4-36.4"/>
	<path class="st0" d="M1322.6,857.3c18.6,11.1,35.7,24.5,51.1,39.7"/>
	<path class="st0" d="M1376,899.4c0.1,0.1,0.2,0.2,0.3,0.3"/>
	<path class="st0" d="M1398.4,925.1c0.2,0.3,0.4,0.5,0.6,0.8"/>
	<path class="st0" d="M1431.1,1184.7c-11.4,29.8-28.1,57.3-49.2,81.3"/>
	<path class="st0" d="M1378.7,1269.4c-0.8,0.9-1.7,1.8-2.5,2.7"/>
	<path class="st0" d="M1333.7,1308.6c-0.1,0.1-0.3,0.2-0.4,0.3"/>
	<path class="st0" d="M1322.5,1316c-7.4,4.5-15,8.7-22.7,12.5"/>
	<path class="st0" d="M1136.3,1351.5c-16.4-2.9-32.6-7.4-48.2-13.4"/>
	<path class="st0" d="M1082.5,1335.9c-1-0.4-2-0.8-3-1.2"/>
	<path class="st0" d="M1071.4,1331.1c-1-0.5-2-0.9-2.9-1.4"/>
	<path class="st0" d="M1059.8,1325.4c-1-0.5-1.9-1-2.9-1.5"/>
	<path class="st0" d="M1054.9,1322.7c-91.7-50.4-145.2-149.9-136.8-254.1"/>
	<path class="st0" d="M1249.4,832.7c75.1,19.4,137.9,70.7,172.1,140.3"/>
	<path class="st0" d="M1105.1,1338c-3.7-1.2-7.5-2.4-11.2-3.8"/>
	<path class="st0" d="M1042.8,1309c-9.8-6.3-19.2-13.2-28.1-20.8"/>
	<path class="st0" d="M923.3,1105.3c-0.6-9.5-0.6-19.1-0.1-28.6"/>
	<path class="st0" d="M1319.9,868.9c31.5,19.5,58.5,45.6,79.1,76.3"/>
	<path class="st0" d="M1412.2,967.4c0.3,0.5,0.6,1.1,0.8,1.6"/>
	<path class="st0" d="M1423.1,1173.6c-6.9,19.9-16.3,38.8-27.9,56.4"/>
	<path class="st0" d="M1378.9,1252.1c-0.1,0.1-0.2,0.2-0.3,0.3"/>
	<path class="st0" d="M1347.7,1283.6c-18,15.3-37.9,28-59.4,37.8"/>
	<path class="st0" d="M1147.4,1341.8c-20.4-2.9-40.4-8.2-59.5-15.9"/>
	<path class="st0" d="M1080.2,1322.7c-2-0.9-4-1.8-6.1-2.8"/>
	<path class="st0" d="M1059.9,1312.6c-0.8-0.4-1.5-0.9-2.3-1.3"/>
	<path class="st0" d="M1057.2,1311.1c-86.2-49-136.2-143.6-127.8-242.5"/>
	<path class="st0" d="M1235.3,841c79.1,16.7,145.5,69.9,179,143.4"/>
	<path class="st0" d="M1412.8,1184.7c-1.2,2.8-2.4,5.6-3.6,8.4"/>
	<path class="st0" d="M1296.9,1311c-2.8,1.5-5.7,2.9-8.6,4.2"/>
	<path class="st0" d="M1107.6,1327c-2.8-0.9-5.5-1.8-8.2-2.8"/>
	<path class="st0" d="M1037.3,1291.7c-11-8-21.4-16.8-31-26.5"/>
	<path class="st0" d="M938,1133.5c-0.2-1-0.3-2-0.5-3"/>
	<path class="st0" d="M936.6,1125c-1.9-13-2.7-26.2-2.4-39.4"/>
	<path class="st0" d="M1315.8,879.6c41.5,26.2,74.3,64.2,94.3,109.1"/>
	<path class="st0" d="M1414.1,1165c-6.8,20.9-16.4,40.7-28.5,59.1"/>
	<path class="st0" d="M1384.6,1225.5c-6.3,9.4-13.3,18.3-20.8,26.8"/>
	<path class="st0" d="M1347.7,1268.6c-1.3,1.2-2.5,2.3-3.8,3.4"/>
	<path class="st0" d="M1342,1273.7c-20.1,17.4-43,31.5-67.7,41.5"/>
	<path class="st0" d="M1147.3,1330.4c-19.3-2.9-38.2-8-56.3-15.4"/>
	<path class="st0" d="M1068.3,1304.3c-2.6-1.4-5.2-2.8-7.8-4.3"/>
	<path class="st0" d="M1056.9,1297.8c-74.9-45.4-119.7-127.6-117.1-215.1"/>
	<path class="st0" d="M941,1065.8c0.2-1.7,0.4-3.4,0.6-5.1"/>
	<path class="st0" d="M941.9,1057.3c0.1-1,0.3-2,0.4-2.9"/>
	<path class="st0" d="M1223.8,850.3c86.1,14.7,157.6,74.4,187.5,156.5"/>
	<path class="st0" d="M1296.9,1298.2c-0.8,0.5-1.7,0.9-2.6,1.4"/>
	<path class="st0" d="M1292.9,1300.3c-5.9,3.1-11.9,5.9-18,8.5"/>
	<path class="st0" d="M1110.7,1316.1c-3.8-1.2-7.6-2.5-11.3-3.9"/>
	<path class="st0" d="M1037.3,1277.5c-11.1-8.6-21.5-18.3-30.9-28.7"/>
	<path class="st0" d="M997.3,1238c-0.8-1-1.5-1.9-2.3-2.9"/>
	<path class="st0" d="M992.7,1232.2c-0.2-0.2-0.3-0.4-0.5-0.7"/>
	<path class="st0" d="M951.9,1144.9c-0.7-3-1.4-5.9-1.9-8.9"/>
	<path class="st0" d="M949.4,1133.6c-2.4-13-3.8-26.3-4-39.5"/>
	<path class="st0" d="M1305.9,886.8c45.1,27.3,79.8,68.8,98.7,118"/>
	<path class="st0" d="M1405.7,1153.8c-16.1,56.3-53,104.4-103.1,134.6"/>
	<path class="st0" d="M1301.6,1289c-13.9,8.3-28.7,15.1-44,20.3"/>
	<path class="st0" d="M1154.2,1319.9c-20.8-2.6-41.1-8-60.4-16"/>
	<path class="st0" d="M1085.3,1300.2c-1-0.5-2-0.9-2.9-1.4"/>
	<path class="st0" d="M1068.4,1291.5c-1.5-0.9-3-1.8-4.6-2.7"/>
	<path class="st0" d="M1054.9,1283.2c-1.5-1-2.9-2-4.4-3"/>
	<path class="st0" d="M1048.6,1278.9c-60.8-43.2-97.1-113.1-97.5-187.7"/>
	<path class="st0" d="M951.1,1085.4c0.1-3.8,0.2-7.5,0.5-11.3"/>
	<path class="st0" d="M1195.8,858.4c97,5.4,180.3,70.8,208.7,163.7"/>
	<path class="st0" d="M1327.9,1263.4c-0.9,0.8-1.8,1.5-2.7,2.3"/>
	<path class="st0" d="M1113.3,1305.1c-4.6-1.5-9.2-3.1-13.7-4.9"/>
	<path class="st0" d="M1037.5,1263.2c-16.3-13.6-30.5-29.5-42.3-47.1"/>
	<path class="st0" d="M969.4,1164.6c-0.7-1.9-1.3-3.7-1.9-5.6"/>
	<path class="st0" d="M962.8,1141.9c-2.4-10.2-4.1-20.7-5.1-31.1"/>
	<path class="st0" d="M1266.1,879.6c0.1,0,0.2,0.1,0.4,0.1"/>
	<path class="st0" d="M1303,898.3c46.9,29.4,81.4,75,96.9,128.1"/>
	<path class="st0" d="M1394,1153.6c-13,43.2-39,81.4-74.4,109.3"/>
	<path class="st0" d="M1318.6,1263.7c-0.6,0.5-1.2,1-1.8,1.4"/>
	<path class="st0" d="M1283,1286.4c-1.7,0.9-3.4,1.7-5.2,2.6"/>
	<path class="st0" d="M1277.1,1289.3c-12.2,5.8-24.9,10.4-37.9,13.8"/>
	<path class="st0" d="M1158.7,1309.1c-24.7-2.7-48.7-9.6-71.1-20.3"/>
	<path class="st0" d="M1076.6,1283.1c-1.7-0.9-3.4-1.9-5-2.8"/>
	<path class="st0" d="M1071.3,1280.1c-1.4-0.8-2.9-1.7-4.3-2.6"/>
	<path class="st0" d="M1057,1271c-56.5-39.3-91.5-102.7-94.5-171.5"/>
	<path class="st0" d="M962.9,1074.1c0.2-2.8,0.5-5.6,0.8-8.4"/>
	<path class="st0" d="M1195.9,869.8c99.9,5.9,183.3,78.4,203.1,176.5"/>
	<path class="st0" d="M1352.9,1221.3c-2.2,2.9-4.5,5.7-6.9,8.4"/>
	<path class="st0" d="M1336.6,1240c-0.3,0.4-0.7,0.7-1,1.1"/>
	<path class="st0" d="M1246,1295.3c-2.5,0.8-5,1.5-7.6,2.2"/>
	<path class="st0" d="M1119.3,1295.2c-3.8-1.2-7.6-2.5-11.3-3.9"/>
	<path class="st0" d="M1034.4,1245.2c-15.6-14.9-28.8-32-39.3-50.8"/>
	<path class="st0" d="M994.2,1192.8c-0.7-1.2-1.3-2.4-1.9-3.6"/>
	<path class="st0" d="M989.4,1183.4c-0.3-0.7-0.7-1.4-1-2"/>
	<path class="st0" d="M984.8,1173.2c-8-18.9-13.2-38.9-15.4-59.3"/>
	<path class="st0" d="M1256.7,888.1c6.1,2.2,12.1,4.7,18,7.5"/>
	<path class="st0" d="M1297,907.9c52.1,32.7,87.8,86.2,97.8,146.9"/>
	<path class="st0" d="M1383.1,1150.7c-21.8,71.9-80.6,126.6-153.8,143.2"/>
	<path class="st0" d="M1161.3,1298c-24.5-2.5-48.4-9.4-70.5-20.2"/>
	<path class="st0" d="M1088.2,1276.5c-2.8-1.4-5.6-2.9-8.4-4.5"/>
	<path class="st0" d="M1062,1260.7c-1.4-1-2.8-2-4.1-3"/>
	<path class="st0" d="M1054.3,1255c-1.2-1-2.5-2-3.7-3"/>
	<path class="st0" d="M1047.2,1249.2c-41.1-35-67.1-84.5-72.6-138.2"/>
	<path class="st0" d="M974,1077.1c0.1-1,0.1-1.9,0.2-2.9"/>
	<path class="st0" d="M1201.5,881.5c99.9,8.9,179.4,87.5,189.6,187.3"/>
	<path class="st0" d="M1360,1190.2c-0.6,1-1.2,2-1.8,3.1"/>
	<path class="st0" d="M1353.6,1200.8c-0.2,0.3-0.4,0.6-0.6,0.9"/>
	<path class="st0" d="M1350.6,1205.2c-5.2,7.5-10.8,14.7-17,21.4"/>
	<path class="st0" d="M1237.6,1286c-4,1.1-8,2.1-12.1,3"/>
	<path class="st0" d="M1124.7,1285c-3.7-1.1-7.5-2.3-11.1-3.7"/>
	<path class="st0" d="M1031.8,1226.4c-23.7-26.2-40.2-58.2-47.8-92.8"/>
	<path class="st0" d="M1249.5,897.5c7.6,2.6,15.1,5.7,22.3,9.2"/>
	<path class="st0" d="M1289.2,916.3c53.2,32.6,88.5,87.8,95.8,149.8"/>
	<path class="st0" d="M1380.8,1089.9c0,10.9-0.9,21.9-2.7,32.7"/>
	<path class="st0" d="M1371.2,1150.7c-0.2,0.7-0.4,1.3-0.6,2"/>
	<path class="st0" d="M1370.2,1153.7c-19.8,58.3-65.6,104-123.9,123.7"/>
	<path class="st0" d="M1237.7,1280.1c-6.5,1.9-13.1,3.4-19.8,4.6"/>
	<path class="st0" d="M1170.1,1287.4c-24.4-1.6-48.4-7.7-70.6-18"/>
	<path class="st0" d="M1098.6,1269c-3.5-1.7-7-3.4-10.5-5.3"/>
	<path class="st0" d="M1087.5,1263.4c-0.7-0.4-1.4-0.8-2.1-1.2"/>
	<path class="st0" d="M1079.7,1258.9c-3.5-2.2-7-4.4-10.4-6.8"/>
	<path class="st0" d="M1058.3,1243.7c-1.2-0.9-2.3-1.9-3.5-2.9"/>
	<path class="st0" d="M1042.7,1229.6c-26.3-26.4-44.7-59.8-52.9-96.2"/>
	<path class="st0" d="M989.5,1132.1c-0.7-3.3-1.3-6.5-1.9-9.8"/>
	<path class="st0" d="M985.5,1105.1c-0.1-0.9-0.1-1.8-0.2-2.8"/>
	<path class="st0" d="M1201.5,892.8c101.5,9.6,179.1,94.7,179.3,196.7"/>
	<path class="st0" d="M1375.2,1089.9c0,8.1-0.5,16.1-1.5,24.1"/>
	<path class="st0" d="M1351.9,1181.6c-6,11-13,21.4-21,31.1"/>
	<path class="st0" d="M1229.4,1276.5c-6.8,1.7-13.8,3-20.8,4"/>
	<path class="st0" d="M1140.9,1277.6c-7.3-1.6-14.5-3.7-21.6-6.2"/>
	<path class="st0" d="M1026.1,1201.3c-0.6-0.9-1.3-1.8-1.9-2.8"/>
	<path class="st0" d="M1023.3,1197.2c-1.6-2.3-3.1-4.7-4.5-7.1"/>
	<path class="st0" d="M1017.7,1188.4c-3-5-5.7-10.1-8.2-15.4"/>
	<path class="st0" d="M1009.2,1172.4c-1.7-3.5-3.3-7.1-4.7-10.8"/>
	<path class="st0" d="M1003.6,1159.4c-0.8-2.1-1.6-4.2-2.3-6.3"/>
	<path class="st0" d="M1244.8,907.9c77.8,26.5,130.2,99.5,130.3,181.7"/>
	<path class="st0" d="M1369.5,1089.9c0,8-0.5,16.1-1.6,24"/>
	<path class="st0" d="M1359.3,1150.7c0,0.1-0.1,0.2-0.1,0.3"/>
	<path class="st0" d="M1358.4,1153.4c-26.3,72.6-94.5,121.5-171.6,123.1"/>
	<path class="st0" d="M1184.2,1276.5c-29.3,0.2-58.3-6.5-84.6-19.6"/>
	<path class="st0" d="M1090.7,1252.2c-1.6-0.9-3.2-1.8-4.8-2.8"/>
	<path class="st0" d="M1073.1,1240.9c-1.3-1-2.6-1.9-3.9-2.9"/>
	<path class="st0" d="M1043.1,1213.6c-0.3-0.3-0.6-0.6-0.9-1"/>
	<path class="st0" d="M1037.4,1206.9c-1.5-1.9-3-3.8-4.4-5.7"/>
	<path class="st0" d="M1031.7,1199.4c-0.2-0.3-0.4-0.5-0.6-0.8"/>
	<path class="st0" d="M1028.8,1195.3c-4.9-7.2-9.3-14.7-13.2-22.4"/>
	<path class="st0" d="M1014.4,1170.3c-1.8-3.7-3.4-7.5-5-11.3"/>
	<path class="st0" d="M1009.2,1158.3c-1.8-4.4-3.3-9-4.7-13.5"/>
	<path class="st0" d="M1002.8,1139.2c-0.5-1.9-1-3.8-1.5-5.7"/>
	<path class="st0" d="M997.9,1115.2c-0.1-0.5-0.1-1.1-0.2-1.6"/>
	<path class="st0" d="M1206.9,904.8c92.9,12.1,162.5,91.1,162.6,184.8"/>
	<path class="st0" d="M1363.9,1089.9c0,5.3-0.2,10.5-0.7,15.8"/>
	<path class="st0" d="M1343.6,1173.2c-5.2,10-11.3,19.5-18.3,28.4"/>
	<path class="st0" d="M1223.6,1266.3c-12.9,3-26.2,4.5-39.5,4.6"/>
	<path class="st0" d="M1161.4,1269.6c-12.5-1.5-24.7-4.3-36.6-8.3"/>
	<path class="st0" d="M1234.3,916.4c76.8,22.7,129.5,93.2,129.6,173.2"/>
	<path class="st0" d="M1358.2,1089.9c0,7.1-0.4,14.3-1.3,21.4"/>
	<path class="st0" d="M1347.3,1150.7c-33.6,90.8-134.5,137.2-225.3,103.6c-5.7-2.1-11.4-4.6-16.9-7.3"/>
	<path class="st0" d="M1099.5,1244.2c-0.3-0.1-0.5-0.3-0.8-0.4"/>
	<path class="st0" d="M1073.9,1227.3c-0.9-0.7-1.8-1.4-2.6-2.1"/>
	<path class="st0" d="M1068.5,1222.9c-1-0.9-2-1.7-3-2.6"/>
	<path class="st0" d="M1048.7,1202.9c-0.5-0.6-0.9-1.1-1.4-1.7"/>
	<path class="st0" d="M1019.4,1153.3c-0.4-1-0.7-1.9-1.1-2.9"/>
	<path class="st0" d="M1013,1133.5c-0.3-1.3-0.6-2.6-0.9-3.9"/>
	<path class="st0" d="M1010.5,1122.2c-0.2-0.9-0.3-1.8-0.5-2.7"/>
	<path class="st0" d="M1007.5,1091.1c0-1.8,0-3.7,0-5.5"/>
	<path class="st0" d="M1207,916.2c0.3,0,0.6,0.1,0.9,0.1"/>
	<path class="st0" d="M1212.7,917.1c84,14.5,145.4,87.3,145.5,172.5"/>
	<path class="st0" d="M1336.5,1161.9c-4.7,10-10.4,19.6-16.9,28.5"/>
	<path class="st0" d="M1254.3,1243.8c-0.8,0.4-1.6,0.7-2.4,1.1"/>
	<path class="st0" d="M1223.6,1254.6c-30.8,7.6-63.1,6.5-93.2-3.3"/>
	<path class="st0" d="M1223.9,925.2c71.1,17.7,122.8,79.1,128.2,152.2"/>
	<path class="st0" d="M1346.9,1094.2c-0.1,2.9-0.2,5.7-0.4,8.6"/>
	<path class="st0" d="M1336.6,1147.1c-6.6,17.7-16.1,34.1-28.3,48.5"/>
	<path class="st0" d="M1305.7,1198.6c-0.1,0.1-0.1,0.1-0.2,0.2"/>
	<path class="st0" d="M1294.7,1209.9c-53.2,49.6-132.8,58.3-195.4,21.2"/>
	<path class="st0" d="M1096.7,1229.5c-1.9-1.2-3.9-2.4-5.8-3.7"/>
	<path class="st0" d="M1080.7,1218.3c-0.4-0.3-0.7-0.6-1.1-0.9"/>
	<path class="st0" d="M1074.1,1212.8c-0.1-0.1-0.1-0.1-0.2-0.2"/>
	<path class="st0" d="M1057.2,1195.4c-0.7-0.8-1.3-1.6-2-2.4"/>
	<path class="st0" d="M1029,1146.8c-0.2-0.6-0.5-1.3-0.7-1.9"/>
	<path class="st0" d="M1026.1,1138.4c-0.5-1.6-1-3.3-1.4-5"/>
	<path class="st0" d="M1023.3,1128.2c-0.5-1.9-0.9-3.9-1.3-5.9"/>
	<path class="st0" d="M1019.1,1099.6c-0.1-1.9-0.2-3.8-0.2-5.7"/>
	<path class="st0" d="M1212.7,928.6c72.1,13.4,126.6,72.9,133.4,145.9"/>
	<path class="st0" d="M1325.4,1159.1c-3.8,7.9-8.3,15.4-13.4,22.6"/>
	<path class="st0" d="M1223.6,1243c-30.7,8.2-63.1,6.9-93.1-3.6"/>
	<path class="st0" d="M1218.2,935.5c63.3,14.5,111.4,66.2,121.2,130.5"/>
	<path class="st0" d="M1335.6,1094.2c-0.1,2.8-0.2,5.7-0.5,8.5"/>
	<path class="st0" d="M1326.4,1142.2c-5.6,15.3-13.6,29.6-23.7,42.4"/>
	<path class="st0" d="M1287.2,1201.5c-47,43.9-116.4,53.8-173.7,24.6"/>
	<path class="st0" d="M1091.8,1212.6c-0.3-0.2-0.6-0.4-0.8-0.6"/>
	<path class="st0" d="M1212.5,940c62.8,12.4,111.2,62.7,121.2,126"/>
	<path class="st0" d="M1315.5,1153.5c-3.3,6.9-7.1,13.5-11.4,19.8"/>
	<path class="st0" d="M1263.2,1213.2c-2.9,1.9-5.8,3.6-8.8,5.3"/>
	<path class="st0" d="M1223.7,1231.3c-30.6,8.8-63.3,7.5-93.1-3.8"/>
	<path class="st0" d="M1212.7,945.8c56.5,11.7,101,55.4,113.7,111.7"/>
	<path class="st0" d="M1324.3,1091.4c0,4.8-0.3,9.5-0.9,14.3"/>
	<path class="st0" d="M1315.4,1139.5c-4.5,12-10.6,23.4-18.2,33.8"/>
	<path class="st0" d="M1277.3,1195.2c-45.1,40.4-110.9,47.7-163.7,18.1"/>
	<path class="st0" d="M1107.9,1209.9c-0.1,0-0.1-0.1-0.2-0.1"/>
	<path class="st0" d="M1095.7,1201.4c-0.6-0.5-1.3-1-1.9-1.5"/>
	<path class="st0" d="M1075.1,1181.6c-0.3-0.4-0.6-0.8-1-1.1"/>
	<path class="st0" d="M1212.5,951.6c53.5,11.5,95.6,52.8,108.1,106"/>
	<path class="st0" d="M1302.9,1153.5c-1.8,3.4-3.7,6.6-5.7,9.8"/>
	<path class="st0" d="M1257.6,1203.3c-9.6,6.3-19.9,11.4-30.8,15.1"/>
	<path class="st0" d="M1226.4,1218.6c-31.3,10.6-65.5,9.4-96-3.4"/>
	<path class="st0" d="M1212.7,957.4c1.8,0.4,3.5,0.8,5.3,1.3"/>
	<path class="st0" d="M1218.2,958.8c37.5,10.1,68.9,35.8,86.2,70.5"/>
	<path class="st0" d="M1313,1089.9c0,7.1-0.6,14.2-1.7,21.3"/>
	<path class="st0" d="M1303.2,1139.5c-3.7,8.9-8.3,17.4-13.9,25.3"/>
	<path class="st0" d="M1271.6,1185.1c-42.5,39.7-106.2,46.3-156,16.3"/>
	<path class="st0" d="M1111,1198.5c-2-1.3-4-2.7-5.9-4.2"/>
	<path class="st0" d="M1067.7,1029.2c0.5-1,1.1-2,1.6-3"/>
	<path class="st0" d="M1071.4,1022.7c1.6-2.6,3.2-5.1,5-7.6"/>
	<path class="st0" d="M1079.8,1010.3c0.2-0.3,0.5-0.6,0.7-0.9"/>
	<path class="st0" d="M1201.4,961c43.5,6.3,80.9,34,99.4,73.8"/>
	<path class="st0" d="M1305.5,1046.2c0.3,0.9,0.6,1.9,1,2.8"/>
	<path class="st0" d="M1312.5,1077.4c0.4,4.1,0.6,8.2,0.6,12.2"/>
	<path class="st0" d="M1291.6,1150.7c-0.5,0.9-1.1,1.9-1.6,2.8"/>
	<path class="st0" d="M1252,1193.5c-36.1,24-82,27.6-121.3,9.4"/>
	<path class="st0" d="M1127.3,1201.4c-0.8-0.4-1.5-0.8-2.3-1.2"/>
	<path class="st0" d="M1216.4,969.9c26.4,7.4,49.6,23.3,66.1,45.2"/>
	<path class="st0" d="M1301.8,1089.9c0,8.1-0.8,16.2-2.5,24.1"/>
	<path class="st0" d="M1293.4,1133.7c-2.8,7.1-6.3,13.9-10.4,20.3"/>
	<path class="st0" d="M1266.1,1174.9c-39.6,38.7-100.6,45-147.3,15.2"/>
	<path class="st0" d="M1071.4,1048.5c4.5-12.1,10.9-23.4,19-33.4"/>
	<path class="st0" d="M1201.3,972.4c29.2,4.6,55.6,19.8,74.1,42.8"/>
	<path class="st0" d="M1277.4,1017.8c1.4,1.9,2.8,3.8,4.1,5.7"/>
	<path class="st0" d="M1288.3,1035c0.2,0.3,0.3,0.6,0.5,0.9"/>
	<path class="st0" d="M1289.7,1037.8c0.9,1.9,1.8,3.8,2.6,5.7"/>
	<path class="st0" d="M1300.7,1074.4c0.7,5.1,1,10.2,1,15.3"/>
	<path class="st0" d="M1296,1094.2c-0.3,6.7-1.1,13.3-2.5,19.8"/>
	<path class="st0" d="M1283.3,1142.2c-0.1,0.2-0.2,0.4-0.3,0.5"/>
	<path class="st0" d="M1246.4,1183.7c-36.4,24.6-83.7,26-121.5,3.5"/>
	<path class="st0" d="M1212.6,980.6c16.2,4.4,31.2,12.4,44,23.3"/>
	<path class="st0" d="M1290.5,1089.9c0,10-1.4,20-4.2,29.7"/>
	<path class="st0" d="M1283,1129.2c-2.3,5.9-5.2,11.7-8.5,17.1"/>
	<path class="st0" d="M1260.4,1164.5c-38.9,40.4-102.3,44.2-145.7,8.7"/>
	<path class="st0" d="M1111.3,1170.2c-1.1-1-2.2-2-3.3-3.1"/>
	<path class="st0" d="M1076.4,1074.4c2.1-14.5,7.2-28.4,14.8-40.9"/>
	<path class="st0" d="M1094,1029.3c0-0.1,0.1-0.1,0.1-0.2"/>
	<path class="st0" d="M1096,1026.3c0.7-1,1.4-1.9,2.2-2.8"/>
	<path class="st0" d="M1201.4,983.9c0.3,0.1,0.6,0.1,0.9,0.2"/>
	<path class="st0" d="M1206.9,985c17.7,4,34,12.5,47.6,24.5"/>
	<path class="st0" d="M1263,1018c0.1,0.1,0.2,0.3,0.4,0.4"/>
	<path class="st0" d="M1267.7,1023.7c4.8,6.1,8.9,12.7,12.2,19.8"/>
	<path class="st0" d="M1289.4,1074.5c0.7,5,1.1,10.1,1.1,15.2"/>
	<path class="st0" d="M1284.7,1094.2c-0.4,8.7-1.8,17.2-4.4,25.5"/>
	<path class="st0" d="M1240.6,1173.9c-37,25.4-86.3,23.7-121.4-4.3"/>
	<path class="st0" d="M1083.8,1065.8c1.2-4.8,2.7-9.5,4.5-14.1"/>
	<path class="st0" d="M1212.7,992.4c5.1,1.5,10,3.5,14.7,5.8"/>
	<path class="st0" d="M1229.5,999.2c2.7,1.4,5.4,2.9,8,4.6"/>
	<path class="st0" d="M1279.2,1089.9c0,18.6-5.4,36.7-15.4,52.3"/>
	<path class="st0" d="M1263.3,1142.9c-0.9,1.4-1.9,2.8-2.9,4.1"/>
	<path class="st0" d="M1255.2,1153.5c-35.1,40-96,43.9-135.9,8.8c-3-2.6-5.8-5.4-8.5-8.4"/>
	<path class="st0" d="M1110.4,1153.4c-0.8-0.9-1.6-1.9-2.4-2.8"/>
	<path class="st0" d="M1087.4,1102.5c-2.8-21.1,1.5-42.6,12.2-61"/>
	<path class="st0" d="M1207,996.7c25.6,6.6,47.4,23.5,60.2,46.7"/>
	<path class="st0" d="M1277.9,1074.5c0.8,5,1.2,10.1,1.2,15.2"/>
	<path class="st0" d="M1273.5,1091.3c-0.2,13.8-3.6,27.3-9.8,39.6"/>
	<path class="st0" d="M1234.1,1164.7c-38.4,26.3-90.4,19.2-120.5-16.3"/>
	<path class="st0" d="M1092.7,1099.7c-0.9-8.5-0.6-17,0.8-25.4"/>
	<path class="st0" d="M1267.9,1089.9c0,47-38.1,85-85,85s-85-38.1-85-85c0-12.2,2.6-24.3,7.7-35.4"/>
	<path class="st0" d="M1212.6,1010.3c17,6.3,31.5,17.9,41.4,33.1"/>
	<path class="st0" d="M1264.5,1066c2.3,7.7,3.4,15.7,3.4,23.7"/>
	<path class="st0" d="M1262.2,1091.4c-0.2,9.7-2.1,19.2-5.8,28.2"/>
	<path class="st0" d="M1223.7,1157.9c-24.5,14.7-55,15.1-79.9,1.1"/>
	<path class="st0" d="M1141.9,1157.9c-3.6-2.2-7-4.6-10.2-7.3"/>
	<path class="st0" d="M1130.6,1149.6c-16.1-14.1-25.9-34.2-27-55.6"/>
	<path class="st0" d="M1221,1020.3c1,0.5,1.9,1.1,2.9,1.7"/>
	<path class="st0" d="M1256.6,1089.9c0,40.7-33,73.7-73.7,73.7c-40.7,0-73.7-33-73.7-73.7c0-12.3,3.1-24.5,9-35.3"/>
	<path class="st0" d="M1212.5,1022.4c8.4,3.7,16,8.9,22.5,15.4"/>
	<path class="st0" d="M1247.7,1054.7c5.8,10.8,8.9,22.8,8.9,35.1"/>
	<path class="st0" d="M1250.9,1091.3c-0.2,7.9-1.7,15.8-4.6,23.2"/>
	<path class="st0" d="M1220.9,1146.4c-13.3,9-29.3,12.9-45.2,11.3"/>
	<path class="st0" d="M1125,1125.8c-0.1-0.2-0.3-0.4-0.4-0.6"/>
	<path class="st0" d="M1119.3,1114.4c-0.4-1.1-0.8-2.2-1.2-3.4"/>
	<path class="st0" d="M1221,1033.5c0.7,0.4,1.3,0.9,1.9,1.4"/>
	<path class="st0" d="M1245.3,1089.9c0,34.5-28,62.4-62.4,62.4c-16.8,0-32.9-6.8-44.6-18.8"/>
	<path class="st0" d="M1129.6,1057.4c0.4-0.6,0.7-1.2,1.1-1.8"/>
	<path class="st0" d="M1212.6,1035c4.3,2.3,8.3,5.1,11.9,8.4"/>
	<path class="st0" d="M1230.1,1049c9.8,11.3,15.2,25.8,15.2,40.8"/>
	<path class="st0" d="M1239.7,1089.9c0,8.3-1.8,16.5-5.3,24"/>
	<path class="st0" d="M1223.8,1129.3c-0.9,1-1.9,1.9-2.8,2.8"/>
	<path class="st0" d="M1212.4,1138.4c-3.6,2.2-7.3,3.9-11.3,5.3"/>
	<path class="st0" d="M1196.8,1145c-0.4,0.1-0.8,0.2-1.3,0.3"/>
	<path class="st0" d="M1239.2,1082.9c0.3,2.3,0.4,4.6,0.4,6.9"/>
	<path class="st0" d="M1234,1089.9c0,28.3-22.9,51.2-51.2,51.2c-16.1,0-31.3-7.6-41-20.5"/>
	<path class="st0" d="M1218.2,1052.9c0.6,0.6,1.1,1.1,1.7,1.7"/>
	<path class="st0" d="M1221,1055.8c8.4,9.4,13,21.5,13,34"/>
	<path class="st0" d="M1228.4,1089.9c0,8.9-2.6,17.5-7.4,24.9"/>
	<path class="st0" d="M1226.6,1077.4c1.1,4,1.7,8.2,1.7,12.4"/>
	<path class="st0" d="M1222.7,1089.9c0,22-17.8,39.9-39.9,39.9c-12.5,0-24.3-5.9-31.8-15.9"/>
	<path class="st0" d="M1219.6,1074.4c0.5,1.3,1,2.5,1.4,3.9"/>
	<path class="st0" d="M1222.1,1082.9c0.4,2.3,0.6,4.6,0.6,6.9"/>
	<path class="st0" d="M1211.4,1089.9c0,15.8-12.8,28.6-28.6,28.6c-7.1,0-13.9-2.6-19.2-7.4"/>
	<path class="st0" d="M1206.8,1074.4c3,4.6,4.6,10,4.6,15.5"/>
	<path class="st0" d="M1200.1,1089.9c0,9.5-7.7,17.3-17.3,17.3c-4.3,0-8.5-1.6-11.7-4.6"/>
	<path class="st0" d="M1198.4,1082.3c1.1,2.4,1.7,4.9,1.7,7.5"/>
	<path class="st0" d="M1188.8,1089.9c0,3.3-2.7,6-6,6c-1.6,0-3.1-0.6-4.2-1.8"/>
	<path class="st0" d="M1187.1,1085.7c1.1,1.1,1.7,2.6,1.7,4.2"/>
</g>
</svg>
