<?xml version="1.0" encoding="utf-8"?>
<!-- Generator: Adobe Illustrator 22.0.0, SVG Export Plug-In . SVG Version: 6.00 Build 0)  -->
<svg version="1.1" id="Layer_1" xmlns="http://www.w3.org/2000/svg" xmlns:xlink="http://www.w3.org/1999/xlink" x="0px" y="0px"
	 viewBox="0 0 841.9 1190.6" style="enable-background:new 0 0 841.9 1190.6;" xml:space="preserve">
<style type="text/css">
	.st0{fill:none;stroke:#000000;stroke-linecap:round;stroke-miterlimit:10;}
	.st1{fill:none;stroke:#000000;stroke-miterlimit:10;}
</style>
<g>
	<g transform="translate(536,536) rotate(-0.2941) translate(-536,264)">
		<line class="st0" x1="15.5" y1="-501.6" x2="797.5" y2="-503.1"/>
	</g>
	<g transform="translate(536,536) rotate(-0.2941) translate(-536,264)">
		<line class="st0" x1="15.5" y1="-498.6" x2="797.5" y2="-500.1"/>
		<line class="st0" x1="15.5" y1="-495.6" x2="797.5" y2="-497.1"/>
		<line class="st0" x1="15.5" y1="-492.6" x2="797.5" y2="-494.1"/>
		<line class="st0" x1="15.5" y1="-489.6" x2="797.5" y2="-491.1"/>
		<line class="st0" x1="15.5" y1="-486.6" x2="797.5" y2="-488.1"/>
		<line class="st0" x1="15.5" y1="-483.6" x2="797.5" y2="-485.1"/>
		<line class="st0" x1="15.5" y1="-480.6" x2="797.5" y2="-482.1"/>
		<line class="st0" x1="15.5" y1="-477.6" x2="797.5" y2="-479.1"/>
		<line class="st0" x1="15.5" y1="-474.6" x2="797.5" y2="-476.1"/>
		<line class="st0" x1="15.5" y1="-471.6" x2="797.5" y2="-473.1"/>
		<line class="st0" x1="15.5" y1="-468.6" x2="797.5" y2="-470.1"/>
		<line class="st0" x1="15.5" y1="-465.6" x2="797.5" y2="-467.1"/>
		<line class="st0" x1="15.5" y1="-462.6" x2="797.5" y2="-464.1"/>
		<line class="st0" x1="15.5" y1="-459.6" x2="797.5" y2="-461.1"/>
		<line class="st0" x1="15.5" y1="-456.6" x2="797.5" y2="-458.1"/>
		<line class="st0" x1="15.5" y1="-453.6" x2="797.5" y2="-455.1"/>
		<line class="st0" x1="15.5" y1="-450.6" x2="797.5" y2="-452.1"/>
		<line class="st0" x1="15.5" y1="-447.6" x2="797.5" y2="-449.1"/>
		<line class="st0" x1="15.5" y1="-444.6" x2="797.5" y2="-446.1"/>
		<line class="st0" x1="15.5" y1="-441.6" x2="797.5" y2="-443.1"/>
		<line class="st0" x1="15.5" y1="-438.6" x2="797.5" y2="-440.1"/>
		<line class="st0" x1="15.5" y1="-435.6" x2="797.5" y2="-437.1"/>
		<line class="st0" x1="15.5" y1="-432.6" x2="797.5" y2="-434.1"/>
		<line class="st0" x1="15.5" y1="-429.6" x2="797.5" y2="-431.1"/>
		<line class="st0" x1="15.5" y1="-426.6" x2="797.5" y2="-428.1"/>
		<line class="st0" x1="15.5" y1="-423.6" x2="797.5" y2="-425.1"/>
		<line class="st0" x1="15.5" y1="-420.6" x2="797.5" y2="-422.1"/>
		<line class="st0" x1="15.5" y1="-417.6" x2="797.5" y2="-419.1"/>
		<line class="st0" x1="15.5" y1="-414.6" x2="797.5" y2="-416.1"/>
		<line class="st0" x1="15.5" y1="-411.6" x2="797.5" y2="-413.1"/>
		<line class="st0" x1="15.5" y1="-408.6" x2="797.5" y2="-410.1"/>
		<line class="st0" x1="15.5" y1="-405.6" x2="797.5" y2="-407.1"/>
		<line class="st0" x1="15.5" y1="-402.6" x2="797.5" y2="-404.1"/>
		<line class="st0" x1="15.5" y1="-399.6" x2="797.5" y2="-401.1"/>
		<line class="st0" x1="15.5" y1="-396.6" x2="797.5" y2="-398.1"/>
		<line class="st0" x1="15.5" y1="-393.6" x2="797.5" y2="-395.1"/>
		<line class="st0" x1="15.5" y1="-390.6" x2="797.5" y2="-392.1"/>
		<line class="st0" x1="15.5" y1="-387.6" x2="797.5" y2="-389.1"/>
		<line class="st0" x1="15.5" y1="-384.6" x2="797.5" y2="-386.1"/>
		<line class="st0" x1="15.5" y1="-381.6" x2="797.5" y2="-383.1"/>
		<line class="st0" x1="15.5" y1="-378.6" x2="797.5" y2="-380.1"/>
		<line class="st0" x1="15.5" y1="-375.6" x2="797.5" y2="-377.1"/>
		<line class="st0" x1="15.5" y1="-372.6" x2="797.5" y2="-374.1"/>
		<line class="st0" x1="15.5" y1="-369.6" x2="797.5" y2="-371.1"/>
		<line class="st0" x1="15.5" y1="-366.6" x2="797.5" y2="-368.1"/>
		<line class="st0" x1="15.5" y1="-363.6" x2="797.5" y2="-365.1"/>
		<line class="st0" x1="15.5" y1="-360.6" x2="797.5" y2="-362.1"/>
		<line class="st0" x1="15.5" y1="-357.6" x2="797.5" y2="-359.1"/>
		<line class="st0" x1="15.5" y1="-354.6" x2="797.5" y2="-356.1"/>
		<line class="st0" x1="15.5" y1="-351.6" x2="797.5" y2="-353.1"/>
		<line class="st0" x1="15.5" y1="-348.6" x2="797.5" y2="-350.1"/>
		<line class="st0" x1="15.5" y1="-345.6" x2="797.5" y2="-347.1"/>
		<line class="st0" x1="15.5" y1="-342.6" x2="797.5" y2="-344.1"/>
		<line class="st0" x1="15.5" y1="-339.6" x2="797.5" y2="-341.1"/>
		<line class="st0" x1="15.5" y1="-336.6" x2="797.5" y2="-338.1"/>
		<line class="st0" x1="15.5" y1="-333.6" x2="797.5" y2="-335.1"/>
		<line class="st0" x1="15.5" y1="-330.6" x2="797.5" y2="-332.1"/>
		<line class="st0" x1="15.5" y1="-327.6" x2="797.5" y2="-329.1"/>
		<line class="st0" x1="15.5" y1="-324.6" x2="797.5" y2="-326.1"/>
		<line class="st0" x1="15.5" y1="-321.6" x2="797.5" y2="-323.1"/>
		<line class="st0" x1="15.5" y1="-318.6" x2="797.5" y2="-320.1"/>
		<line class="st0" x1="15.5" y1="-315.6" x2="797.5" y2="-317.1"/>
		<line class="st0" x1="15.5" y1="-312.6" x2="797.5" y2="-314.1"/>
		<line class="st0" x1="15.5" y1="-309.6" x2="797.5" y2="-311.1"/>
		<line class="st0" x1="15.5" y1="-306.6" x2="797.5" y2="-308.1"/>
		<line class="st0" x1="15.5" y1="-303.6" x2="797.5" y2="-305.1"/>
		<line class="st0" x1="15.5" y1="-300.6" x2="797.5" y2="-302.1"/>
		<line class="st0" x1="15.5" y1="-297.6" x2="797.5" y2="-299.1"/>
		<line class="st0" x1="15.5" y1="-294.6" x2="797.5" y2="-296.1"/>
		<line class="st0" x1="15.5" y1="-291.6" x2="797.5" y2="-293.1"/>
		<line class="st0" x1="15.5" y1="-288.6" x2="797.5" y2="-290.1"/>
		<line class="st0" x1="15.5" y1="-285.6" x2="797.5" y2="-287.1"/>
		<line class="st0" x1="15.5" y1="-282.6" x2="797.5" y2="-284.1"/>
		<line class="st0" x1="15.5" y1="-279.6" x2="797.5" y2="-281.1"/>
		<line class="st0" x1="15.5" y1="-276.6" x2="797.5" y2="-278.1"/>
		<line class="st0" x1="15.5" y1="-273.6" x2="797.5" y2="-275.1"/>
		<line class="st0" x1="15.5" y1="-270.6" x2="797.5" y2="-272.1"/>
		<line class="st0" x1="15.5" y1="-267.6" x2="797.5" y2="-269.1"/>
		<line class="st0" x1="15.5" y1="-264.6" x2="797.5" y2="-266.1"/>
		<line class="st0" x1="15.5" y1="-261.6" x2="797.5" y2="-263.1"/>
		<line class="st0" x1="15.5" y1="-258.6" x2="797.5" y2="-260.1"/>
		<line class="st0" x1="15.5" y1="-255.6" x2="797.5" y2="-257.1"/>
		<line class="st0" x1="15.5" y1="-252.6" x2="797.5" y2="-254.1"/>
		<line class="st0" x1="15.5" y1="-249.6" x2="797.5" y2="-251.1"/>
		<line class="st0" x1="15.5" y1="-246.6" x2="797.5" y2="-248.1"/>
		<line class="st0" x1="15.5" y1="-243.6" x2="797.5" y2="-245.1"/>
		<line class="st0" x1="15.5" y1="-240.6" x2="797.5" y2="-242.1"/>
		<line class="st0" x1="15.5" y1="-237.6" x2="797.5" y2="-239.1"/>
		<line class="st0" x1="15.5" y1="-234.6" x2="797.5" y2="-236.1"/>
		<line class="st0" x1="15.5" y1="-231.6" x2="797.5" y2="-233.1"/>
		<line class="st0" x1="15.5" y1="-228.6" x2="797.5" y2="-230.1"/>
		<line class="st0" x1="15.5" y1="-225.6" x2="797.5" y2="-227.1"/>
		<line class="st0" x1="15.5" y1="-222.6" x2="797.5" y2="-224.1"/>
		<line class="st0" x1="15.5" y1="-219.6" x2="797.5" y2="-221.1"/>
		<line class="st0" x1="15.5" y1="-216.6" x2="797.5" y2="-218.1"/>
		<line class="st0" x1="15.5" y1="-213.6" x2="797.5" y2="-215.1"/>
		<line class="st0" x1="15.5" y1="-210.6" x2="797.5" y2="-212.1"/>
		<line class="st0" x1="15.5" y1="-207.6" x2="797.5" y2="-209.1"/>
		<line class="st0" x1="15.5" y1="-204.6" x2="797.5" y2="-206.1"/>
		<line class="st0" x1="15.5" y1="-201.6" x2="797.5" y2="-203.1"/>
		<line class="st0" x1="15.5" y1="-198.6" x2="797.5" y2="-200.1"/>
		<line class="st0" x1="15.5" y1="-195.6" x2="797.5" y2="-197.1"/>
		<line class="st0" x1="15.5" y1="-192.6" x2="797.5" y2="-194.1"/>
	</g>
</g>
<g>
	<g transform="translate(536,536) rotate(-2.442) translate(-536,26)">
		<line class="st0" x1="44.1" y1="-525.9" x2="826.3" y2="-538.2"/>
		<line class="st0" x1="44.1" y1="-522.9" x2="826.3" y2="-535.2"/>
		<line class="st0" x1="44.1" y1="-519.9" x2="826.3" y2="-532.2"/>
		<line class="st0" x1="44.1" y1="-516.9" x2="826.3" y2="-529.2"/>
		<line class="st0" x1="44.1" y1="-513.9" x2="826.3" y2="-526.2"/>
		<line class="st0" x1="44.1" y1="-510.9" x2="826.3" y2="-523.2"/>
		<line class="st0" x1="44.1" y1="-507.9" x2="826.3" y2="-520.2"/>
		<line class="st0" x1="44.1" y1="-504.9" x2="826.3" y2="-517.2"/>
		<line class="st0" x1="44.1" y1="-501.9" x2="826.3" y2="-514.2"/>
		<line class="st0" x1="44.1" y1="-498.9" x2="826.3" y2="-511.2"/>
		<line class="st0" x1="44.1" y1="-495.9" x2="826.3" y2="-508.2"/>
		<line class="st0" x1="44.1" y1="-492.9" x2="826.3" y2="-505.2"/>
		<line class="st0" x1="44.1" y1="-489.9" x2="826.3" y2="-502.2"/>
		<line class="st0" x1="44.1" y1="-486.9" x2="826.3" y2="-499.2"/>
		<line class="st0" x1="44.1" y1="-483.9" x2="826.3" y2="-496.2"/>
		<line class="st0" x1="44.1" y1="-480.9" x2="826.3" y2="-493.2"/>
		<line class="st0" x1="44.1" y1="-477.9" x2="826.3" y2="-490.2"/>
		<line class="st0" x1="44.1" y1="-474.9" x2="826.3" y2="-487.2"/>
	</g>
</g>
<g>
	<g transform="translate(536,536) rotate(-2.442) translate(-536,26)">
		<path class="st0" d="M13.7,122"/>
		<path class="st0" d="M13.7,125"/>
		<path class="st0" d="M13.7,128"/>
		<path class="st0" d="M13.7,131"/>
		<path class="st0" d="M13.7,134"/>
		<path class="st0" d="M13.7,137"/>
		<path class="st0" d="M13.7,140"/>
		<path class="st0" d="M13.7,143"/>
		<path class="st0" d="M13.7,146"/>
		<path class="st0" d="M13.7,149"/>
		<path class="st0" d="M13.7,152"/>
		<path class="st0" d="M13.7,155"/>
		<path class="st0" d="M13.7,158"/>
		<path class="st0" d="M13.7,161"/>
		<path class="st0" d="M13.7,164"/>
		<path class="st0" d="M13.7,167"/>
		<line class="st0" x1="13.7" y1="170" x2="796" y2="157.7"/>
		<line class="st0" x1="13.7" y1="173" x2="795.9" y2="160.7"/>
		<line class="st0" x1="13.7" y1="176" x2="795.9" y2="163.7"/>
		<line class="st0" x1="13.7" y1="179" x2="795.9" y2="166.7"/>
		<line class="st0" x1="13.7" y1="182" x2="795.9" y2="169.7"/>
		<line class="st0" x1="13.7" y1="185" x2="795.9" y2="172.7"/>
		<line class="st0" x1="13.7" y1="188" x2="795.9" y2="175.7"/>
		<line class="st0" x1="13.7" y1="191" x2="795.9" y2="178.7"/>
		<line class="st0" x1="13.7" y1="194" x2="795.9" y2="181.7"/>
		<line class="st0" x1="13.7" y1="197" x2="795.9" y2="184.7"/>
		<line class="st0" x1="13.7" y1="200" x2="795.9" y2="187.7"/>
		<line class="st0" x1="13.7" y1="203" x2="795.9" y2="190.7"/>
		<line class="st0" x1="13.7" y1="206" x2="795.9" y2="193.7"/>
		<line class="st0" x1="13.7" y1="209" x2="795.9" y2="196.7"/>
		<line class="st0" x1="13.7" y1="212" x2="795.9" y2="199.7"/>
		<line class="st0" x1="13.7" y1="215" x2="795.9" y2="202.7"/>
		<line class="st0" x1="13.7" y1="218" x2="795.9" y2="205.7"/>
		<line class="st0" x1="13.7" y1="221" x2="795.9" y2="208.7"/>
		<line class="st0" x1="13.7" y1="224" x2="795.9" y2="211.7"/>
		<line class="st0" x1="13.7" y1="227" x2="795.9" y2="214.7"/>
		<line class="st0" x1="13.7" y1="230" x2="795.9" y2="217.7"/>
		<line class="st0" x1="13.7" y1="233" x2="795.9" y2="220.7"/>
		<line class="st0" x1="13.7" y1="236" x2="795.9" y2="223.7"/>
	</g>
</g>
<rect x="0" y="0" class="st1" width="822" height="822"/>
<circle class="st1" cx="411.1" cy="411.1" r="375.6"/>
</svg>
