<?xml version="1.0" encoding="utf-8"?>
<!-- Generator: Adobe Illustrator 22.0.0, SVG Export Plug-In . SVG Version: 6.00 Build 0)  -->
<svg version="1.1" id="Layer_1" xmlns="http://www.w3.org/2000/svg" xmlns:xlink="http://www.w3.org/1999/xlink" x="0px" y="0px"
	 viewBox="0 0 841.9 1190.6" style="enable-background:new 0 0 841.9 1190.6;" xml:space="preserve">
<style type="text/css">
	.st0{fill:none;stroke:#000000;stroke-miterlimit:10;}
	.st1{fill:none;stroke:#000000;stroke-linecap:round;stroke-miterlimit:10;}
</style>
<rect x="0" y="0" class="st0" width="822" height="822"/>
<circle class="st0" cx="411.1" cy="411.1" r="375.6"/>
<g>
	<g transform="translate(536,536) rotate(-1.7995) translate(-536,140)">
		<line class="st1" x1="27.6" y1="-491.2" x2="809.8" y2="-500.3"/>
	</g>
	<g transform="translate(536,536) rotate(-1.7995) translate(-536,140)">
		<line class="st1" x1="27.6" y1="-488.2" x2="809.8" y2="-497.3"/>
		<line class="st1" x1="27.6" y1="-485.2" x2="809.8" y2="-494.3"/>
		<line class="st1" x1="27.6" y1="-482.2" x2="809.8" y2="-491.3"/>
		<line class="st1" x1="27.6" y1="-479.2" x2="809.8" y2="-488.3"/>
		<line class="st1" x1="27.6" y1="-476.2" x2="809.8" y2="-485.3"/>
		<line class="st1" x1="27.6" y1="-473.2" x2="809.8" y2="-482.3"/>
		<line class="st1" x1="27.6" y1="-470.2" x2="809.8" y2="-479.3"/>
		<line class="st1" x1="27.6" y1="-467.2" x2="809.8" y2="-476.3"/>
		<line class="st1" x1="27.6" y1="-464.2" x2="809.8" y2="-473.3"/>
		<line class="st1" x1="27.6" y1="-461.2" x2="809.8" y2="-470.3"/>
		<line class="st1" x1="27.6" y1="-458.2" x2="809.8" y2="-467.3"/>
		<line class="st1" x1="27.6" y1="-455.2" x2="809.8" y2="-464.3"/>
		<line class="st1" x1="27.6" y1="-452.2" x2="809.8" y2="-461.3"/>
		<line class="st1" x1="27.6" y1="-449.2" x2="809.8" y2="-458.3"/>
		<line class="st1" x1="27.6" y1="-446.2" x2="809.8" y2="-455.3"/>
		<line class="st1" x1="27.6" y1="-443.2" x2="809.8" y2="-452.3"/>
		<line class="st1" x1="27.6" y1="-440.2" x2="809.8" y2="-449.3"/>
		<line class="st1" x1="27.6" y1="-437.2" x2="809.8" y2="-446.3"/>
		<line class="st1" x1="27.6" y1="-434.2" x2="809.8" y2="-443.3"/>
		<line class="st1" x1="27.6" y1="-431.2" x2="809.8" y2="-440.3"/>
		<line class="st1" x1="27.6" y1="-428.2" x2="809.8" y2="-437.3"/>
		<line class="st1" x1="27.6" y1="-425.2" x2="809.8" y2="-434.3"/>
		<line class="st1" x1="27.6" y1="-422.2" x2="809.8" y2="-431.3"/>
		<line class="st1" x1="27.6" y1="-419.2" x2="809.8" y2="-428.3"/>
		<line class="st1" x1="27.6" y1="-416.2" x2="809.8" y2="-425.3"/>
		<line class="st1" x1="27.6" y1="-413.2" x2="809.8" y2="-422.3"/>
		<line class="st1" x1="27.6" y1="-410.2" x2="809.8" y2="-419.3"/>
		<line class="st1" x1="27.6" y1="-407.2" x2="809.8" y2="-416.3"/>
		<line class="st1" x1="27.6" y1="-404.2" x2="809.8" y2="-413.3"/>
		<line class="st1" x1="27.6" y1="-401.2" x2="809.8" y2="-410.3"/>
		<line class="st1" x1="27.6" y1="-398.2" x2="809.8" y2="-407.3"/>
		<line class="st1" x1="27.6" y1="-395.2" x2="809.8" y2="-404.3"/>
		<line class="st1" x1="27.6" y1="-392.2" x2="809.8" y2="-401.3"/>
		<line class="st1" x1="27.6" y1="-389.2" x2="809.8" y2="-398.3"/>
		<line class="st1" x1="27.6" y1="-386.2" x2="809.8" y2="-395.3"/>
		<line class="st1" x1="27.6" y1="-383.2" x2="809.8" y2="-392.3"/>
		<line class="st1" x1="27.6" y1="-380.2" x2="809.8" y2="-389.3"/>
		<line class="st1" x1="27.6" y1="-377.2" x2="809.8" y2="-386.3"/>
		<line class="st1" x1="27.6" y1="-374.2" x2="809.8" y2="-383.3"/>
		<line class="st1" x1="27.6" y1="-371.2" x2="809.8" y2="-380.3"/>
		<line class="st1" x1="27.6" y1="-368.2" x2="809.8" y2="-377.3"/>
		<line class="st1" x1="27.6" y1="-365.2" x2="809.8" y2="-374.3"/>
		<line class="st1" x1="27.6" y1="-362.2" x2="809.8" y2="-371.3"/>
		<line class="st1" x1="27.6" y1="-359.2" x2="809.8" y2="-368.3"/>
		<line class="st1" x1="27.6" y1="-356.2" x2="809.8" y2="-365.3"/>
		<line class="st1" x1="27.6" y1="-353.2" x2="809.8" y2="-362.3"/>
		<line class="st1" x1="27.6" y1="-350.2" x2="809.8" y2="-359.3"/>
		<line class="st1" x1="27.6" y1="-347.2" x2="809.8" y2="-356.3"/>
		<line class="st1" x1="27.6" y1="-344.2" x2="809.8" y2="-353.3"/>
		<line class="st1" x1="27.6" y1="-341.2" x2="809.8" y2="-350.3"/>
		<line class="st1" x1="27.6" y1="-338.2" x2="809.8" y2="-347.3"/>
		<line class="st1" x1="27.6" y1="-335.2" x2="809.8" y2="-344.3"/>
		<line class="st1" x1="27.6" y1="-332.2" x2="809.8" y2="-341.3"/>
		<line class="st1" x1="27.6" y1="-329.2" x2="809.8" y2="-338.3"/>
		<line class="st1" x1="27.6" y1="-326.2" x2="809.8" y2="-335.3"/>
		<line class="st1" x1="27.6" y1="-323.2" x2="809.8" y2="-332.3"/>
		<line class="st1" x1="27.6" y1="-320.2" x2="809.8" y2="-329.3"/>
		<line class="st1" x1="27.6" y1="-317.2" x2="809.8" y2="-326.3"/>
		<line class="st1" x1="27.6" y1="-314.2" x2="809.8" y2="-323.3"/>
		<line class="st1" x1="27.6" y1="-311.2" x2="809.8" y2="-320.3"/>
		<line class="st1" x1="27.6" y1="-308.2" x2="809.8" y2="-317.3"/>
		<line class="st1" x1="27.6" y1="-305.2" x2="809.8" y2="-314.3"/>
		<line class="st1" x1="27.6" y1="-302.2" x2="809.8" y2="-311.3"/>
		<line class="st1" x1="27.6" y1="-299.2" x2="809.8" y2="-308.3"/>
		<line class="st1" x1="27.6" y1="-296.2" x2="809.8" y2="-305.3"/>
		<line class="st1" x1="27.6" y1="-293.2" x2="809.8" y2="-302.3"/>
		<line class="st1" x1="27.6" y1="-290.2" x2="809.8" y2="-299.3"/>
		<line class="st1" x1="27.6" y1="-287.2" x2="809.8" y2="-296.3"/>
		<line class="st1" x1="27.6" y1="-284.2" x2="809.8" y2="-293.3"/>
		<line class="st1" x1="27.6" y1="-281.2" x2="809.8" y2="-290.3"/>
		<line class="st1" x1="27.6" y1="-278.2" x2="809.8" y2="-287.3"/>
		<line class="st1" x1="27.6" y1="-275.2" x2="809.8" y2="-284.3"/>
		<line class="st1" x1="27.6" y1="-272.2" x2="809.8" y2="-281.3"/>
		<line class="st1" x1="27.6" y1="-269.2" x2="809.8" y2="-278.3"/>
		<line class="st1" x1="27.6" y1="-266.2" x2="809.8" y2="-275.3"/>
		<line class="st1" x1="27.6" y1="-263.2" x2="809.8" y2="-272.3"/>
		<line class="st1" x1="27.6" y1="-260.2" x2="809.8" y2="-269.3"/>
		<line class="st1" x1="27.6" y1="-257.2" x2="809.8" y2="-266.3"/>
		<line class="st1" x1="27.6" y1="-254.2" x2="809.8" y2="-263.3"/>
		<line class="st1" x1="27.6" y1="-251.2" x2="809.8" y2="-260.3"/>
		<line class="st1" x1="27.6" y1="-248.2" x2="809.8" y2="-257.3"/>
		<line class="st1" x1="27.6" y1="-245.2" x2="809.8" y2="-254.3"/>
		<line class="st1" x1="27.6" y1="-242.2" x2="809.8" y2="-251.3"/>
		<line class="st1" x1="27.6" y1="-239.2" x2="809.8" y2="-248.3"/>
		<line class="st1" x1="27.6" y1="-236.2" x2="809.8" y2="-245.3"/>
		<line class="st1" x1="27.6" y1="-233.2" x2="809.8" y2="-242.3"/>
		<line class="st1" x1="27.6" y1="-230.2" x2="809.8" y2="-239.3"/>
		<line class="st1" x1="27.6" y1="-227.2" x2="809.8" y2="-236.3"/>
		<line class="st1" x1="27.6" y1="-224.2" x2="809.8" y2="-233.3"/>
		<line class="st1" x1="27.6" y1="-221.2" x2="809.8" y2="-230.3"/>
		<line class="st1" x1="27.6" y1="-218.2" x2="809.8" y2="-227.3"/>
		<line class="st1" x1="27.6" y1="-215.2" x2="809.8" y2="-224.3"/>
	</g>
</g>
<g>
	<g transform="translate(536,536) rotate(-2.442) translate(-536,26)">
		<line class="st1" x1="46.4" y1="-572.6" x2="828.2" y2="-543.3"/>
		<line class="st1" x1="46.2" y1="-569.6" x2="828" y2="-540.3"/>
		<line class="st1" x1="46.1" y1="-566.6" x2="827.9" y2="-537.3"/>
		<line class="st1" x1="45.9" y1="-563.6" x2="827.7" y2="-534.3"/>
		<line class="st1" x1="45.7" y1="-560.6" x2="827.6" y2="-531.3"/>
		<line class="st1" x1="45.6" y1="-557.6" x2="827.4" y2="-528.3"/>
		<line class="st1" x1="45.4" y1="-554.6" x2="827.2" y2="-525.3"/>
		<line class="st1" x1="45.3" y1="-551.6" x2="827.1" y2="-522.3"/>
		<line class="st1" x1="45.1" y1="-548.6" x2="826.9" y2="-519.3"/>
		<line class="st1" x1="44.9" y1="-545.6" x2="826.8" y2="-516.3"/>
		<line class="st1" x1="44.8" y1="-542.6" x2="826.6" y2="-513.3"/>
		<line class="st1" x1="44.6" y1="-539.6" x2="826.4" y2="-510.3"/>
		<line class="st1" x1="44.5" y1="-536.6" x2="826.3" y2="-507.3"/>
		<line class="st1" x1="44.3" y1="-533.6" x2="826.1" y2="-504.3"/>
		<line class="st1" x1="44.1" y1="-530.6" x2="826" y2="-501.3"/>
		<line class="st1" x1="44" y1="-527.6" x2="825.8" y2="-498.3"/>
		<line class="st1" x1="43.8" y1="-524.6" x2="825.6" y2="-495.3"/>
		<line class="st1" x1="43.7" y1="-521.6" x2="825.5" y2="-492.3"/>
		<line class="st1" x1="43.5" y1="-518.6" x2="825.3" y2="-489.4"/>
		<line class="st1" x1="43.3" y1="-515.6" x2="825.2" y2="-486.4"/>
		<line class="st1" x1="43.2" y1="-512.6" x2="825" y2="-483.4"/>
	</g>
</g>
</svg>
