<?xml version="1.0" encoding="utf-8"?>
<!-- Generator: Adobe Illustrator 22.0.0, SVG Export Plug-In . SVG Version: 6.00 Build 0)  -->
<svg version="1.1" id="Layer_1" xmlns="http://www.w3.org/2000/svg" xmlns:xlink="http://www.w3.org/1999/xlink" x="0px" y="0px"
	 viewBox="0 0 841.9 1190.6" style="enable-background:new 0 0 841.9 1190.6;" xml:space="preserve">
<style type="text/css">
	.st0{fill:#FFFFFF;stroke:#000000;stroke-miterlimit:10;}
	.st1{fill:none;stroke:#0000FF;stroke-miterlimit:10;}
	.st2{fill:none;stroke:#6B48FF;stroke-linecap:round;stroke-miterlimit:10;}
</style>
<rect class="st0" width="264" height="206.3"/>
<g>
	<g>
		<g transform="translate(536,536) rotate(-2.442) translate(-536,26)">
			<line class="st1" x1="67.8" y1="-447.4" x2="241.1" y2="-470.4"/>
			<line class="st1" x1="67.4" y1="-444.5" x2="240.7" y2="-467.4"/>
			<line class="st1" x1="67" y1="-441.5" x2="240.4" y2="-464.4"/>
			<line class="st1" x1="66.7" y1="-438.5" x2="240" y2="-461.5"/>
			<line class="st1" x1="66.3" y1="-435.5" x2="239.6" y2="-458.5"/>
			<line class="st1" x1="65.9" y1="-432.6" x2="239.3" y2="-455.5"/>
			<line class="st1" x1="65.6" y1="-429.6" x2="238.9" y2="-452.5"/>
			<line class="st1" x1="65.2" y1="-426.6" x2="238.5" y2="-449.6"/>
			<line class="st1" x1="64.8" y1="-423.7" x2="238.1" y2="-446.6"/>
			<line class="st1" x1="64.5" y1="-420.7" x2="237.8" y2="-443.6"/>
			<line class="st1" x1="64.1" y1="-417.7" x2="237.4" y2="-440.6"/>
			<line class="st1" x1="63.7" y1="-414.7" x2="237" y2="-437.7"/>
			<line class="st1" x1="63.3" y1="-411.8" x2="236.7" y2="-434.7"/>
			<line class="st1" x1="63" y1="-408.8" x2="236.3" y2="-431.7"/>
			<line class="st1" x1="62.6" y1="-405.8" x2="235.9" y2="-428.7"/>
			<line class="st1" x1="62.2" y1="-402.8" x2="235.6" y2="-425.8"/>
			<line class="st1" x1="61.9" y1="-399.9" x2="235.2" y2="-422.8"/>
			<line class="st1" x1="61.5" y1="-396.9" x2="234.8" y2="-419.8"/>
			<line class="st1" x1="61.1" y1="-393.9" x2="234.5" y2="-416.8"/>
			<line class="st1" x1="60.8" y1="-390.9" x2="234.1" y2="-413.9"/>
			<line class="st1" x1="60.4" y1="-388" x2="233.7" y2="-410.9"/>
		</g>
	</g>
	<g>
		<g transform="translate(536,536) rotate(2.9352) translate(-536,-323)">
			<line class="st2" x1="20.8" y1="-152.7" x2="198.1" y2="-178.2"/>
			<line class="st2" x1="20.7" y1="-149.7" x2="198" y2="-175.2"/>
			<line class="st2" x1="20.5" y1="-146.7" x2="197.8" y2="-172.3"/>
			<line class="st2" x1="20.4" y1="-143.8" x2="197.7" y2="-169.3"/>
			<line class="st2" x1="20.3" y1="-140.8" x2="197.6" y2="-166.3"/>
			<line class="st2" x1="20.1" y1="-137.8" x2="197.4" y2="-163.3"/>
			<line class="st2" x1="20" y1="-134.8" x2="197.3" y2="-160.3"/>
			<line class="st2" x1="19.9" y1="-131.9" x2="197.2" y2="-157.4"/>
			<line class="st2" x1="19.7" y1="-128.9" x2="197" y2="-154.4"/>
			<line class="st2" x1="19.6" y1="-125.9" x2="196.9" y2="-151.4"/>
			<line class="st2" x1="19.5" y1="-122.9" x2="196.8" y2="-148.4"/>
			<line class="st2" x1="19.3" y1="-119.9" x2="196.6" y2="-145.4"/>
			<line class="st2" x1="19.2" y1="-117" x2="196.5" y2="-142.5"/>
			<line class="st2" x1="19.1" y1="-114" x2="196.4" y2="-139.5"/>
			<line class="st2" x1="19" y1="-111" x2="196.3" y2="-136.5"/>
			<line class="st2" x1="18.8" y1="-108" x2="196.1" y2="-133.5"/>
			<line class="st2" x1="18.7" y1="-105" x2="196" y2="-130.6"/>
			<line class="st2" x1="18.6" y1="-102.1" x2="195.9" y2="-127.6"/>
			<line class="st2" x1="18.4" y1="-99.1" x2="195.7" y2="-124.6"/>
			<line class="st2" x1="18.3" y1="-96.1" x2="195.6" y2="-121.6"/>
			<line class="st2" x1="18.2" y1="-93.1" x2="195.5" y2="-118.6"/>
			<line class="st2" x1="18" y1="-90.2" x2="195.3" y2="-115.7"/>
			<line class="st2" x1="17.9" y1="-87.2" x2="195.2" y2="-112.7"/>
			<line class="st2" x1="17.8" y1="-84.2" x2="195.1" y2="-109.7"/>
			<line class="st2" x1="17.6" y1="-81.2" x2="194.9" y2="-106.7"/>
			<line class="st2" x1="17.5" y1="-78.2" x2="194.8" y2="-103.7"/>
			<line class="st2" x1="17.4" y1="-75.3" x2="194.7" y2="-100.8"/>
			<line class="st2" x1="17.2" y1="-72.3" x2="194.5" y2="-97.8"/>
			<line class="st2" x1="17.1" y1="-69.3" x2="194.4" y2="-94.8"/>
			<line class="st2" x1="17" y1="-66.3" x2="194.3" y2="-91.8"/>
			<line class="st2" x1="16.9" y1="-63.3" x2="194.2" y2="-88.9"/>
			<line class="st2" x1="16.7" y1="-60.4" x2="194" y2="-85.9"/>
			<line class="st2" x1="16.6" y1="-57.4" x2="193.9" y2="-82.9"/>
			<line class="st2" x1="16.5" y1="-54.4" x2="193.8" y2="-79.9"/>
			<line class="st2" x1="16.3" y1="-51.4" x2="193.6" y2="-76.9"/>
			<line class="st2" x1="16.2" y1="-48.5" x2="193.5" y2="-74"/>
			<line class="st2" x1="16.1" y1="-45.5" x2="193.4" y2="-71"/>
			<line class="st2" x1="15.9" y1="-42.5" x2="193.2" y2="-68"/>
			<line class="st2" x1="15.8" y1="-39.5" x2="193.1" y2="-65"/>
			<line class="st2" x1="15.7" y1="-36.5" x2="193" y2="-62"/>
			<line class="st2" x1="15.5" y1="-33.6" x2="192.8" y2="-59.1"/>
			<line class="st2" x1="15.4" y1="-30.6" x2="192.7" y2="-56.1"/>
			<line class="st2" x1="15.3" y1="-27.6" x2="192.6" y2="-53.1"/>
			<line class="st2" x1="15.2" y1="-24.6" x2="192.5" y2="-50.1"/>
			<line class="st2" x1="15" y1="-21.6" x2="192.3" y2="-47.2"/>
			<line class="st2" x1="14.9" y1="-18.7" x2="192.2" y2="-44.2"/>
			<line class="st2" x1="14.8" y1="-15.7" x2="192.1" y2="-41.2"/>
			<line class="st2" x1="14.6" y1="-12.7" x2="191.9" y2="-38.2"/>
			<line class="st2" x1="14.5" y1="-9.7" x2="191.8" y2="-35.2"/>
			<line class="st2" x1="14.4" y1="-6.8" x2="191.7" y2="-32.3"/>
			<line class="st2" x1="14.2" y1="-3.8" x2="191.5" y2="-29.3"/>
			<line class="st2" x1="14.1" y1="-0.8" x2="191.4" y2="-26.3"/>
			<line class="st2" x1="14" y1="2.2" x2="191.3" y2="-23.3"/>
			<line class="st2" x1="13.8" y1="5.2" x2="191.1" y2="-20.3"/>
			<line class="st2" x1="13.7" y1="8.1" x2="191" y2="-17.4"/>
			<line class="st2" x1="13.6" y1="11.1" x2="190.9" y2="-14.4"/>
		</g>
	</g>
</g>
</svg>
