<?xml version="1.0" encoding="utf-8"?>
<!-- Generator: Adobe Illustrator 22.0.0, SVG Export Plug-In . SVG Version: 6.00 Build 0)  -->
<svg version="1.1" id="Layer_1" xmlns="http://www.w3.org/2000/svg" xmlns:xlink="http://www.w3.org/1999/xlink" x="0px" y="0px"
	 viewBox="0 0 841.9 1190.6" style="enable-background:new 0 0 841.9 1190.6;" xml:space="preserve">
<style type="text/css">
	.st0{fill:#FFFFFF;stroke:#000000;stroke-miterlimit:10;}
	.st1{fill:none;stroke:#93278F;stroke-miterlimit:10;}
</style>
<rect class="st0" width="264" height="206.3"/>
<g>
	<g transform="translate(536,536) rotate(-0.2941) translate(-536,264)">
		<line class="st1" x1="58.8" y1="-767.3" x2="231.3" y2="-730.2"/>
		<line class="st1" x1="58.6" y1="-764.4" x2="231" y2="-727.2"/>
		<line class="st1" x1="58.3" y1="-761.4" x2="230.7" y2="-724.2"/>
		<line class="st1" x1="58" y1="-758.4" x2="230.5" y2="-721.2"/>
		<line class="st1" x1="57.8" y1="-755.4" x2="230.2" y2="-718.3"/>
		<line class="st1" x1="57.5" y1="-752.5" x2="229.9" y2="-715.3"/>
		<line class="st1" x1="57.2" y1="-749.5" x2="229.6" y2="-712.3"/>
		<line class="st1" x1="56.9" y1="-746.5" x2="229.4" y2="-709.3"/>
		<line class="st1" x1="56.7" y1="-743.5" x2="229.1" y2="-706.4"/>
		<line class="st1" x1="56.4" y1="-740.6" x2="228.8" y2="-703.4"/>
		<line class="st1" x1="56.1" y1="-737.6" x2="228.6" y2="-700.4"/>
		<line class="st1" x1="55.9" y1="-734.6" x2="228.3" y2="-697.4"/>
		<line class="st1" x1="55.6" y1="-731.6" x2="228" y2="-694.4"/>
		<line class="st1" x1="55.3" y1="-728.7" x2="227.8" y2="-691.5"/>
		<line class="st1" x1="55.1" y1="-725.7" x2="227.5" y2="-688.5"/>
		<line class="st1" x1="54.8" y1="-722.7" x2="227.2" y2="-685.5"/>
		<line class="st1" x1="54.5" y1="-719.7" x2="226.9" y2="-682.5"/>
		<line class="st1" x1="54.2" y1="-716.7" x2="226.7" y2="-679.6"/>
		<line class="st1" x1="54" y1="-713.8" x2="226.4" y2="-676.6"/>
		<line class="st1" x1="53.7" y1="-710.8" x2="226.1" y2="-673.6"/>
		<line class="st1" x1="53.4" y1="-707.8" x2="225.9" y2="-670.6"/>
		<line class="st1" x1="53.2" y1="-704.8" x2="225.6" y2="-667.7"/>
		<line class="st1" x1="52.9" y1="-701.9" x2="225.3" y2="-664.7"/>
		<line class="st1" x1="52.6" y1="-698.9" x2="225" y2="-661.7"/>
		<line class="st1" x1="52.4" y1="-695.9" x2="224.8" y2="-658.7"/>
		<line class="st1" x1="52.1" y1="-692.9" x2="224.5" y2="-655.8"/>
		<line class="st1" x1="51.8" y1="-690" x2="224.2" y2="-652.8"/>
		<line class="st1" x1="51.5" y1="-687" x2="224" y2="-649.8"/>
		<line class="st1" x1="51.3" y1="-684" x2="223.7" y2="-646.8"/>
		<line class="st1" x1="51" y1="-681" x2="223.4" y2="-643.9"/>
		<line class="st1" x1="50.7" y1="-678.1" x2="223.2" y2="-640.9"/>
		<line class="st1" x1="50.5" y1="-675.1" x2="222.9" y2="-637.9"/>
		<line class="st1" x1="50.2" y1="-672.1" x2="222.6" y2="-634.9"/>
		<line class="st1" x1="49.9" y1="-669.1" x2="222.3" y2="-632"/>
		<line class="st1" x1="49.7" y1="-666.2" x2="222.1" y2="-629"/>
		<line class="st1" x1="49.4" y1="-663.2" x2="221.8" y2="-626"/>
		<line class="st1" x1="49.1" y1="-660.2" x2="221.5" y2="-623"/>
		<line class="st1" x1="48.8" y1="-657.2" x2="221.3" y2="-620.1"/>
		<line class="st1" x1="48.6" y1="-654.3" x2="221" y2="-617.1"/>
	</g>
</g>
</svg>
