<?xml version="1.0" encoding="utf-8"?>
<!-- Generator: Adobe Illustrator 22.0.0, SVG Export Plug-In . SVG Version: 6.00 Build 0)  -->
<svg version="1.1" id="Layer_1" xmlns="http://www.w3.org/2000/svg" xmlns:xlink="http://www.w3.org/1999/xlink" x="0px" y="0px"
	 viewBox="0 0 841.9 1190.6" style="enable-background:new 0 0 841.9 1190.6;" xml:space="preserve">
<style type="text/css">
	.st0{fill:#FFFFFF;stroke:#000000;stroke-miterlimit:10;}
	.st1{fill:none;stroke:#000000;stroke-miterlimit:10;}
</style>
<rect class="st0" width="264" height="206.3"/>
<g>
	<g transform="translate(536,536) rotate(-2.442) translate(-536,26)">
		<line class="st1" x1="71.8" y1="-510.4" x2="232.4" y2="-540.2"/>
		<line class="st1" x1="71.6" y1="-507.4" x2="232.1" y2="-537.2"/>
		<line class="st1" x1="71.3" y1="-504.4" x2="231.9" y2="-534.2"/>
		<line class="st1" x1="71" y1="-501.4" x2="231.6" y2="-531.3"/>
		<line class="st1" x1="70.7" y1="-498.4" x2="231.3" y2="-528.3"/>
		<line class="st1" x1="70.5" y1="-495.4" x2="231" y2="-525.3"/>
		<line class="st1" x1="70.2" y1="-492.4" x2="230.8" y2="-522.3"/>
		<line class="st1" x1="69.9" y1="-489.5" x2="230.5" y2="-519.3"/>
		<line class="st1" x1="69.7" y1="-486.5" x2="230.2" y2="-516.3"/>
		<line class="st1" x1="69.4" y1="-483.5" x2="229.9" y2="-513.3"/>
		<line class="st1" x1="69.1" y1="-480.5" x2="229.7" y2="-510.4"/>
		<line class="st1" x1="68.8" y1="-477.5" x2="229.4" y2="-507.4"/>
		<line class="st1" x1="68.6" y1="-474.5" x2="229.1" y2="-504.4"/>
		<line class="st1" x1="68.3" y1="-471.6" x2="228.9" y2="-501.4"/>
		<line class="st1" x1="68" y1="-468.6" x2="228.6" y2="-498.4"/>
		<line class="st1" x1="67.8" y1="-465.6" x2="228.3" y2="-495.4"/>
		<line class="st1" x1="67.5" y1="-462.6" x2="228" y2="-492.5"/>
		<line class="st1" x1="67.2" y1="-459.6" x2="227.8" y2="-489.5"/>
		<line class="st1" x1="66.9" y1="-456.6" x2="227.5" y2="-486.5"/>
		<line class="st1" x1="66.7" y1="-453.6" x2="227.2" y2="-483.5"/>
		<line class="st1" x1="66.4" y1="-450.7" x2="226.9" y2="-480.5"/>
		<line class="st1" x1="66.1" y1="-447.7" x2="226.7" y2="-477.5"/>
		<line class="st1" x1="65.8" y1="-444.7" x2="226.4" y2="-474.5"/>
	</g>
</g>
</svg>
