<?xml version="1.0" encoding="utf-8"?>
<!-- Generator: Adobe Illustrator 22.0.0, SVG Export Plug-In . SVG Version: 6.00 Build 0)  -->
<svg version="1.1" xmlns="http://www.w3.org/2000/svg" xmlns:xlink="http://www.w3.org/1999/xlink" x="0px" y="0px"
	 viewBox="0 0 841.9 1190.6" style="enable-background:new 0 0 841.9 1190.6;" xml:space="preserve">
<style type="text/css">
	.st0{fill:none;stroke:#231F20;stroke-miterlimit:10;}
	.st1{fill:none;stroke:#1B1464;stroke-miterlimit:10;}
</style>
<g id="Layer_1">
	<rect class="st0" width="822" height="822"/>
</g>
<g id="v1">
	<g>
		<g transform="translate(536,536) rotate(-0.2941) translate(-536,264)">
			<line class="st1" x1="63" y1="-642.4" x2="761.6" y2="-644.3"/>
		</g>
		<g transform="translate(536,536) rotate(-0.2941) translate(-536,264)">
			<line class="st1" x1="63" y1="-639.4" x2="761.6" y2="-641.3"/>
			<line class="st1" x1="63" y1="-636.4" x2="761.6" y2="-638.3"/>
			<line class="st1" x1="63" y1="-633.4" x2="761.6" y2="-635.3"/>
			<line class="st1" x1="63" y1="-630.4" x2="761.6" y2="-632.3"/>
			<line class="st1" x1="63" y1="-627.4" x2="761.6" y2="-629.3"/>
			<line class="st1" x1="63" y1="-624.4" x2="761.6" y2="-626.3"/>
			<line class="st1" x1="63" y1="-621.4" x2="761.6" y2="-623.3"/>
			<line class="st1" x1="63" y1="-618.4" x2="761.6" y2="-620.3"/>
			<line class="st1" x1="63" y1="-615.4" x2="761.6" y2="-617.3"/>
			<line class="st1" x1="63" y1="-612.4" x2="761.6" y2="-614.3"/>
			<line class="st1" x1="63" y1="-609.4" x2="761.5" y2="-611.3"/>
			<line class="st1" x1="63" y1="-606.4" x2="761.5" y2="-608.3"/>
			<line class="st1" x1="63" y1="-603.4" x2="761.5" y2="-605.3"/>
			<line class="st1" x1="63" y1="-600.4" x2="761.5" y2="-602.3"/>
			<line class="st1" x1="63" y1="-597.4" x2="761.5" y2="-599.3"/>
			<line class="st1" x1="63" y1="-594.4" x2="761.5" y2="-596.3"/>
			<line class="st1" x1="63" y1="-591.4" x2="761.5" y2="-593.3"/>
			<line class="st1" x1="63" y1="-588.4" x2="761.5" y2="-590.3"/>
			<line class="st1" x1="63" y1="-585.4" x2="761.5" y2="-587.3"/>
			<line class="st1" x1="63" y1="-582.4" x2="761.5" y2="-584.3"/>
			<line class="st1" x1="63" y1="-579.4" x2="761.5" y2="-581.3"/>
			<line class="st1" x1="63" y1="-576.4" x2="761.5" y2="-578.3"/>
			<line class="st1" x1="63" y1="-573.4" x2="761.5" y2="-575.3"/>
			<line class="st1" x1="62.9" y1="-570.4" x2="761.5" y2="-572.3"/>
			<line class="st1" x1="62.9" y1="-567.4" x2="761.5" y2="-569.3"/>
			<line class="st1" x1="62.9" y1="-564.4" x2="761.5" y2="-566.3"/>
			<line class="st1" x1="62.9" y1="-561.4" x2="761.5" y2="-563.3"/>
			<line class="st1" x1="62.9" y1="-558.4" x2="761.5" y2="-560.3"/>
			<line class="st1" x1="62.9" y1="-555.4" x2="761.5" y2="-557.3"/>
			<line class="st1" x1="62.9" y1="-552.4" x2="761.5" y2="-554.3"/>
			<line class="st1" x1="62.9" y1="-549.4" x2="761.5" y2="-551.3"/>
			<line class="st1" x1="62.9" y1="-546.4" x2="761.5" y2="-548.3"/>
			<line class="st1" x1="62.9" y1="-543.4" x2="761.5" y2="-545.3"/>
			<line class="st1" x1="62.9" y1="-540.4" x2="761.5" y2="-542.3"/>
			<line class="st1" x1="62.9" y1="-537.4" x2="761.5" y2="-539.3"/>
			<line class="st1" x1="62.9" y1="-534.4" x2="761.5" y2="-536.3"/>
			<line class="st1" x1="62.9" y1="-531.4" x2="761.5" y2="-533.3"/>
			<line class="st1" x1="62.9" y1="-528.4" x2="761.5" y2="-530.3"/>
			<line class="st1" x1="62.9" y1="-525.4" x2="761.5" y2="-527.3"/>
			<line class="st1" x1="62.9" y1="-522.4" x2="761.5" y2="-524.3"/>
			<line class="st1" x1="62.9" y1="-519.4" x2="761.5" y2="-521.3"/>
			<line class="st1" x1="62.9" y1="-516.4" x2="761.5" y2="-518.3"/>
			<line class="st1" x1="62.9" y1="-513.4" x2="761.5" y2="-515.3"/>
			<line class="st1" x1="62.9" y1="-510.4" x2="761.5" y2="-512.3"/>
			<line class="st1" x1="62.9" y1="-507.4" x2="761.5" y2="-509.3"/>
			<line class="st1" x1="62.9" y1="-504.4" x2="761.5" y2="-506.3"/>
			<line class="st1" x1="62.9" y1="-501.4" x2="761.5" y2="-503.3"/>
			<line class="st1" x1="62.9" y1="-498.4" x2="761.5" y2="-500.3"/>
			<line class="st1" x1="62.9" y1="-495.4" x2="761.5" y2="-497.3"/>
			<line class="st1" x1="62.9" y1="-492.4" x2="761.5" y2="-494.3"/>
			<line class="st1" x1="62.9" y1="-489.4" x2="761.5" y2="-491.3"/>
			<line class="st1" x1="62.9" y1="-486.4" x2="761.5" y2="-488.3"/>
			<line class="st1" x1="62.9" y1="-483.4" x2="761.5" y2="-485.3"/>
			<line class="st1" x1="62.9" y1="-480.4" x2="761.5" y2="-482.3"/>
			<line class="st1" x1="62.9" y1="-477.4" x2="761.5" y2="-479.3"/>
			<line class="st1" x1="62.9" y1="-474.4" x2="761.5" y2="-476.3"/>
			<line class="st1" x1="62.9" y1="-471.4" x2="761.5" y2="-473.3"/>
			<line class="st1" x1="62.9" y1="-468.4" x2="761.5" y2="-470.3"/>
			<line class="st1" x1="62.9" y1="-465.4" x2="761.5" y2="-467.3"/>
			<line class="st1" x1="62.9" y1="-462.4" x2="761.5" y2="-464.3"/>
			<line class="st1" x1="62.9" y1="-459.4" x2="761.5" y2="-461.3"/>
			<line class="st1" x1="62.9" y1="-456.4" x2="761.5" y2="-458.3"/>
			<line class="st1" x1="62.9" y1="-453.4" x2="761.5" y2="-455.3"/>
			<line class="st1" x1="62.9" y1="-450.4" x2="761.5" y2="-452.3"/>
			<line class="st1" x1="62.9" y1="-447.4" x2="761.5" y2="-449.3"/>
			<line class="st1" x1="62.9" y1="-444.4" x2="761.5" y2="-446.3"/>
			<line class="st1" x1="62.9" y1="-441.4" x2="761.5" y2="-443.3"/>
			<line class="st1" x1="62.9" y1="-438.4" x2="761.5" y2="-440.3"/>
			<line class="st1" x1="62.9" y1="-435.4" x2="761.5" y2="-437.3"/>
			<line class="st1" x1="62.9" y1="-432.4" x2="761.5" y2="-434.3"/>
			<line class="st1" x1="62.9" y1="-429.4" x2="761.5" y2="-431.3"/>
			<line class="st1" x1="62.9" y1="-426.4" x2="761.4" y2="-428.3"/>
			<line class="st1" x1="62.9" y1="-423.4" x2="761.4" y2="-425.3"/>
			<line class="st1" x1="62.9" y1="-420.4" x2="761.4" y2="-422.3"/>
			<line class="st1" x1="62.9" y1="-417.4" x2="761.4" y2="-419.3"/>
			<line class="st1" x1="62.9" y1="-414.4" x2="761.4" y2="-416.3"/>
			<line class="st1" x1="62.9" y1="-411.4" x2="761.4" y2="-413.3"/>
			<line class="st1" x1="62.9" y1="-408.4" x2="761.4" y2="-410.3"/>
			<line class="st1" x1="62.9" y1="-405.4" x2="761.4" y2="-407.3"/>
			<line class="st1" x1="62.9" y1="-402.4" x2="761.4" y2="-404.3"/>
			<line class="st1" x1="62.9" y1="-399.4" x2="761.4" y2="-401.3"/>
			<line class="st1" x1="62.9" y1="-396.4" x2="761.4" y2="-398.3"/>
			<line class="st1" x1="62.9" y1="-393.4" x2="761.4" y2="-395.3"/>
			<line class="st1" x1="62.9" y1="-390.4" x2="761.4" y2="-392.3"/>
			<line class="st1" x1="62.8" y1="-387.4" x2="761.4" y2="-389.3"/>
			<line class="st1" x1="62.8" y1="-384.4" x2="761.4" y2="-386.3"/>
			<line class="st1" x1="62.8" y1="-381.4" x2="761.4" y2="-383.3"/>
			<line class="st1" x1="62.8" y1="-378.4" x2="761.4" y2="-380.3"/>
			<line class="st1" x1="62.8" y1="-375.4" x2="761.4" y2="-377.3"/>
			<line class="st1" x1="62.8" y1="-372.4" x2="761.4" y2="-374.3"/>
			<line class="st1" x1="62.8" y1="-369.4" x2="761.4" y2="-371.3"/>
			<line class="st1" x1="62.8" y1="-366.4" x2="761.4" y2="-368.3"/>
			<line class="st1" x1="62.8" y1="-363.4" x2="761.4" y2="-365.3"/>
			<line class="st1" x1="62.8" y1="-360.4" x2="761.4" y2="-362.3"/>
			<line class="st1" x1="62.8" y1="-357.4" x2="761.4" y2="-359.3"/>
			<line class="st1" x1="62.8" y1="-354.4" x2="761.4" y2="-356.3"/>
			<line class="st1" x1="62.8" y1="-351.4" x2="761.4" y2="-353.3"/>
			<line class="st1" x1="62.8" y1="-348.4" x2="761.4" y2="-350.3"/>
			<line class="st1" x1="62.8" y1="-345.4" x2="761.4" y2="-347.3"/>
			<line class="st1" x1="62.8" y1="-342.4" x2="761.4" y2="-344.3"/>
			<line class="st1" x1="62.8" y1="-339.4" x2="761.4" y2="-341.3"/>
			<line class="st1" x1="62.8" y1="-336.4" x2="761.4" y2="-338.3"/>
			<line class="st1" x1="62.8" y1="-333.4" x2="761.4" y2="-335.3"/>
		</g>
	</g>
	<g>
		<g transform="translate(536,536) rotate(-2.442) translate(-536,26)">
			<line class="st1" x1="211.8" y1="149.4" x2="642.5" y2="188.5"/>
			<line class="st1" x1="211.3" y1="152.4" x2="642" y2="191.4"/>
			<line class="st1" x1="210.7" y1="155.3" x2="641.5" y2="194.4"/>
			<line class="st1" x1="210.2" y1="158.3" x2="640.9" y2="197.3"/>
			<line class="st1" x1="209.7" y1="161.2" x2="640.4" y2="200.3"/>
			<line class="st1" x1="209.2" y1="164.2" x2="639.9" y2="203.2"/>
			<line class="st1" x1="208.7" y1="167.1" x2="639.4" y2="206.2"/>
			<line class="st1" x1="208.2" y1="170.1" x2="638.9" y2="209.1"/>
			<line class="st1" x1="207.6" y1="173" x2="638.4" y2="212.1"/>
			<line class="st1" x1="207.1" y1="176" x2="637.8" y2="215"/>
			<line class="st1" x1="206.6" y1="178.9" x2="637.3" y2="218"/>
			<line class="st1" x1="206.1" y1="181.9" x2="636.8" y2="221"/>
			<line class="st1" x1="205.6" y1="184.9" x2="636.3" y2="223.9"/>
			<line class="st1" x1="205.1" y1="187.8" x2="635.8" y2="226.9"/>
			<line class="st1" x1="204.6" y1="190.8" x2="635.3" y2="229.8"/>
			<line class="st1" x1="204" y1="193.7" x2="634.8" y2="232.8"/>
			<line class="st1" x1="203.5" y1="196.7" x2="634.2" y2="235.7"/>
			<line class="st1" x1="203" y1="199.6" x2="633.7" y2="238.7"/>
		</g>
	</g>
	<g>
		<g transform="translate(536,536) rotate(-2.442) translate(-536,26)">
			<path class="st1" d="M98.9,10.9"/>
			<path class="st1" d="M98.9,13.9"/>
			<path class="st1" d="M98.9,16.9"/>
			<path class="st1" d="M98.9,19.9"/>
			<path class="st1" d="M98.8,22.9"/>
			<path class="st1" d="M98.8,25.9"/>
			<path class="st1" d="M98.8,28.9"/>
			<path class="st1" d="M98.8,31.9"/>
			<path class="st1" d="M98.7,34.9"/>
			<path class="st1" d="M98.7,37.9"/>
			<path class="st1" d="M98.7,40.9"/>
			<path class="st1" d="M98.7,43.9"/>
			<path class="st1" d="M98.7,46.9"/>
			<path class="st1" d="M98.6,49.9"/>
			<path class="st1" d="M98.6,52.9"/>
			<path class="st1" d="M98.6,55.9"/>
			<line class="st1" x1="98.6" y1="58.9" x2="742.7" y2="40.6"/>
			<line class="st1" x1="98.5" y1="61.9" x2="742.7" y2="43.6"/>
			<line class="st1" x1="98.5" y1="64.9" x2="742.7" y2="46.6"/>
			<line class="st1" x1="98.5" y1="67.9" x2="742.6" y2="49.6"/>
			<line class="st1" x1="98.5" y1="70.9" x2="742.6" y2="52.6"/>
			<line class="st1" x1="98.4" y1="73.9" x2="742.6" y2="55.6"/>
			<line class="st1" x1="98.4" y1="76.9" x2="742.6" y2="58.6"/>
			<line class="st1" x1="98.4" y1="79.9" x2="742.5" y2="61.6"/>
			<line class="st1" x1="98.4" y1="82.9" x2="742.5" y2="64.6"/>
			<line class="st1" x1="98.4" y1="85.9" x2="742.5" y2="67.6"/>
			<line class="st1" x1="98.3" y1="88.9" x2="742.5" y2="70.6"/>
			<line class="st1" x1="98.3" y1="91.9" x2="742.5" y2="73.6"/>
			<line class="st1" x1="98.3" y1="94.9" x2="742.4" y2="76.6"/>
			<line class="st1" x1="98.3" y1="97.9" x2="742.4" y2="79.6"/>
			<line class="st1" x1="98.2" y1="100.9" x2="742.4" y2="82.6"/>
			<line class="st1" x1="98.2" y1="103.9" x2="742.4" y2="85.6"/>
			<line class="st1" x1="98.2" y1="106.9" x2="742.3" y2="88.6"/>
			<line class="st1" x1="98.2" y1="109.9" x2="742.3" y2="91.6"/>
			<line class="st1" x1="98.2" y1="112.9" x2="742.3" y2="94.6"/>
			<line class="st1" x1="98.1" y1="115.9" x2="742.3" y2="97.6"/>
			<line class="st1" x1="98.1" y1="118.9" x2="742.3" y2="100.6"/>
			<line class="st1" x1="98.1" y1="121.9" x2="742.2" y2="103.6"/>
			<line class="st1" x1="98.1" y1="124.9" x2="742.2" y2="106.6"/>
		</g>
	</g>
	<g>
		<g transform="translate(536,536) rotate(-2.442) translate(-536,26)">
			<line class="st1" x1="625.1" y1="-403.4" x2="210" y2="-404.2"/>
			<line class="st1" x1="624.8" y1="-406.4" x2="209.8" y2="-407.2"/>
			<line class="st1" x1="624.6" y1="-409.4" x2="209.5" y2="-410.1"/>
			<line class="st1" x1="624.3" y1="-412.4" x2="209.3" y2="-413.1"/>
			<line class="st1" x1="624.1" y1="-415.3" x2="209" y2="-416.1"/>
			<line class="st1" x1="623.8" y1="-418.3" x2="208.7" y2="-419.1"/>
			<line class="st1" x1="623.6" y1="-421.3" x2="208.5" y2="-422.1"/>
			<line class="st1" x1="623.3" y1="-424.3" x2="208.2" y2="-425.1"/>
			<line class="st1" x1="623" y1="-427.3" x2="208" y2="-428.1"/>
			<line class="st1" x1="622.8" y1="-430.3" x2="207.7" y2="-431"/>
			<line class="st1" x1="622.5" y1="-433.3" x2="207.5" y2="-434"/>
			<line class="st1" x1="622.3" y1="-436.3" x2="207.2" y2="-437"/>
			<line class="st1" x1="622" y1="-439.2" x2="206.9" y2="-440"/>
			<line class="st1" x1="621.8" y1="-442.2" x2="206.7" y2="-443"/>
			<line class="st1" x1="621.5" y1="-445.2" x2="206.4" y2="-446"/>
			<line class="st1" x1="621.2" y1="-448.2" x2="206.2" y2="-449"/>
			<line class="st1" x1="621" y1="-451.2" x2="205.9" y2="-452"/>
			<line class="st1" x1="620.7" y1="-454.2" x2="205.7" y2="-454.9"/>
		</g>
	</g>
</g>
</svg>
