<?xml version="1.0" encoding="utf-8"?>
<!-- Generator: Adobe Illustrator 22.0.0, SVG Export Plug-In . SVG Version: 6.00 Build 0)  -->
<svg version="1.1" xmlns="http://www.w3.org/2000/svg" xmlns:xlink="http://www.w3.org/1999/xlink" x="0px" y="0px"
	 viewBox="0 0 841.9 1190.6" style="enable-background:new 0 0 841.9 1190.6;" xml:space="preserve">
<style type="text/css">
	.st0{fill:none;stroke:#231F20;stroke-miterlimit:10;}
	.st1{fill:none;stroke:#000000;stroke-miterlimit:10;}
</style>
<g id="Layer_1">
	<rect class="st0" width="822" height="822"/>
</g>
<g id="v1">
	<g>
		<g transform="translate(536,536) rotate(-1.7995) translate(-536,140)">
			<line class="st1" x1="119.8" y1="-583.6" x2="780.7" y2="-546.4"/>
		</g>
		<g transform="translate(536,536) rotate(-1.7995) translate(-536,140)">
			<line class="st1" x1="119.5" y1="-580.6" x2="780.5" y2="-543.4"/>
			<line class="st1" x1="119.3" y1="-577.6" x2="780.2" y2="-540.4"/>
			<line class="st1" x1="119" y1="-574.6" x2="780" y2="-537.5"/>
			<line class="st1" x1="118.8" y1="-571.6" x2="779.8" y2="-534.5"/>
			<line class="st1" x1="118.5" y1="-568.6" x2="779.5" y2="-531.5"/>
			<line class="st1" x1="118.3" y1="-565.7" x2="779.3" y2="-528.5"/>
			<line class="st1" x1="118.1" y1="-562.7" x2="779" y2="-525.5"/>
			<line class="st1" x1="117.8" y1="-559.7" x2="778.8" y2="-522.5"/>
			<line class="st1" x1="117.6" y1="-556.7" x2="778.6" y2="-519.5"/>
			<line class="st1" x1="117.3" y1="-553.7" x2="778.3" y2="-516.5"/>
			<line class="st1" x1="117.1" y1="-550.7" x2="778.1" y2="-513.5"/>
			<line class="st1" x1="116.9" y1="-547.7" x2="777.8" y2="-510.5"/>
			<line class="st1" x1="116.6" y1="-544.7" x2="777.6" y2="-507.6"/>
			<line class="st1" x1="116.4" y1="-541.7" x2="777.3" y2="-504.6"/>
			<line class="st1" x1="116.1" y1="-538.7" x2="777.1" y2="-501.6"/>
			<line class="st1" x1="115.9" y1="-535.8" x2="776.9" y2="-498.6"/>
			<line class="st1" x1="115.7" y1="-532.8" x2="776.6" y2="-495.6"/>
			<line class="st1" x1="115.4" y1="-529.8" x2="776.4" y2="-492.6"/>
			<line class="st1" x1="115.2" y1="-526.8" x2="776.1" y2="-489.6"/>
			<line class="st1" x1="114.9" y1="-523.8" x2="775.9" y2="-486.6"/>
			<line class="st1" x1="114.7" y1="-520.8" x2="775.7" y2="-483.6"/>
			<line class="st1" x1="114.4" y1="-517.8" x2="775.4" y2="-480.6"/>
			<line class="st1" x1="114.2" y1="-514.8" x2="775.2" y2="-477.7"/>
			<line class="st1" x1="114" y1="-511.8" x2="774.9" y2="-474.7"/>
			<line class="st1" x1="113.7" y1="-508.8" x2="774.7" y2="-471.7"/>
			<line class="st1" x1="113.5" y1="-505.9" x2="774.5" y2="-468.7"/>
			<line class="st1" x1="113.2" y1="-502.9" x2="774.2" y2="-465.7"/>
			<line class="st1" x1="113" y1="-499.9" x2="774" y2="-462.7"/>
			<line class="st1" x1="112.8" y1="-496.9" x2="773.7" y2="-459.7"/>
			<line class="st1" x1="112.5" y1="-493.9" x2="773.5" y2="-456.7"/>
			<line class="st1" x1="112.3" y1="-490.9" x2="773.2" y2="-453.7"/>
			<line class="st1" x1="112" y1="-487.9" x2="773" y2="-450.7"/>
			<line class="st1" x1="111.8" y1="-484.9" x2="772.8" y2="-447.8"/>
			<line class="st1" x1="111.6" y1="-481.9" x2="772.5" y2="-444.8"/>
			<line class="st1" x1="111.3" y1="-478.9" x2="772.3" y2="-441.8"/>
			<line class="st1" x1="111.1" y1="-476" x2="772" y2="-438.8"/>
			<line class="st1" x1="110.8" y1="-473" x2="771.8" y2="-435.8"/>
			<line class="st1" x1="110.6" y1="-470" x2="771.6" y2="-432.8"/>
			<line class="st1" x1="110.3" y1="-467" x2="771.3" y2="-429.8"/>
			<line class="st1" x1="110.1" y1="-464" x2="771.1" y2="-426.8"/>
			<line class="st1" x1="109.9" y1="-461" x2="770.8" y2="-423.8"/>
			<line class="st1" x1="109.6" y1="-458" x2="770.6" y2="-420.8"/>
			<line class="st1" x1="109.4" y1="-455" x2="770.4" y2="-417.9"/>
			<line class="st1" x1="109.1" y1="-452" x2="770.1" y2="-414.9"/>
			<line class="st1" x1="108.9" y1="-449" x2="769.9" y2="-411.9"/>
			<line class="st1" x1="108.7" y1="-446.1" x2="769.6" y2="-408.9"/>
			<line class="st1" x1="108.4" y1="-443.1" x2="769.4" y2="-405.9"/>
			<line class="st1" x1="108.2" y1="-440.1" x2="769.1" y2="-402.9"/>
			<line class="st1" x1="107.9" y1="-437.1" x2="768.9" y2="-399.9"/>
			<line class="st1" x1="107.7" y1="-434.1" x2="768.7" y2="-396.9"/>
			<line class="st1" x1="107.5" y1="-431.1" x2="768.4" y2="-393.9"/>
			<line class="st1" x1="107.2" y1="-428.1" x2="768.2" y2="-390.9"/>
			<line class="st1" x1="107" y1="-425.1" x2="767.9" y2="-388"/>
			<line class="st1" x1="106.7" y1="-422.1" x2="767.7" y2="-385"/>
			<line class="st1" x1="106.5" y1="-419.2" x2="767.5" y2="-382"/>
			<line class="st1" x1="106.2" y1="-416.2" x2="767.2" y2="-379"/>
			<line class="st1" x1="106" y1="-413.2" x2="767" y2="-376"/>
			<line class="st1" x1="105.8" y1="-410.2" x2="766.7" y2="-373"/>
			<line class="st1" x1="105.5" y1="-407.2" x2="766.5" y2="-370"/>
			<line class="st1" x1="105.3" y1="-404.2" x2="766.3" y2="-367"/>
			<line class="st1" x1="105" y1="-401.2" x2="766" y2="-364"/>
			<line class="st1" x1="104.8" y1="-398.2" x2="765.8" y2="-361.1"/>
			<line class="st1" x1="104.6" y1="-395.2" x2="765.5" y2="-358.1"/>
			<line class="st1" x1="104.3" y1="-392.2" x2="765.3" y2="-355.1"/>
			<line class="st1" x1="104.1" y1="-389.3" x2="765.1" y2="-352.1"/>
			<line class="st1" x1="103.8" y1="-386.3" x2="764.8" y2="-349.1"/>
			<line class="st1" x1="103.6" y1="-383.3" x2="764.6" y2="-346.1"/>
			<line class="st1" x1="103.4" y1="-380.3" x2="764.3" y2="-343.1"/>
			<line class="st1" x1="103.1" y1="-377.3" x2="764.1" y2="-340.1"/>
			<line class="st1" x1="102.9" y1="-374.3" x2="763.8" y2="-337.1"/>
			<line class="st1" x1="102.6" y1="-371.3" x2="763.6" y2="-334.1"/>
			<line class="st1" x1="102.4" y1="-368.3" x2="763.4" y2="-331.2"/>
			<line class="st1" x1="102.1" y1="-365.3" x2="763.1" y2="-328.2"/>
			<line class="st1" x1="101.9" y1="-362.3" x2="762.9" y2="-325.2"/>
			<line class="st1" x1="101.7" y1="-359.4" x2="762.6" y2="-322.2"/>
			<line class="st1" x1="101.4" y1="-356.4" x2="762.4" y2="-319.2"/>
			<line class="st1" x1="101.2" y1="-353.4" x2="762.2" y2="-316.2"/>
			<line class="st1" x1="100.9" y1="-350.4" x2="761.9" y2="-313.2"/>
			<line class="st1" x1="100.7" y1="-347.4" x2="761.7" y2="-310.2"/>
			<line class="st1" x1="100.5" y1="-344.4" x2="761.4" y2="-307.2"/>
			<line class="st1" x1="100.2" y1="-341.4" x2="761.2" y2="-304.2"/>
			<line class="st1" x1="100" y1="-338.4" x2="761" y2="-301.3"/>
			<line class="st1" x1="99.7" y1="-335.4" x2="760.7" y2="-298.3"/>
			<line class="st1" x1="99.5" y1="-332.4" x2="760.5" y2="-295.3"/>
			<line class="st1" x1="99.3" y1="-329.5" x2="760.2" y2="-292.3"/>
			<line class="st1" x1="99" y1="-326.5" x2="760" y2="-289.3"/>
			<line class="st1" x1="98.8" y1="-323.5" x2="759.7" y2="-286.3"/>
			<line class="st1" x1="98.5" y1="-320.5" x2="759.5" y2="-283.3"/>
			<line class="st1" x1="98.3" y1="-317.5" x2="759.3" y2="-280.3"/>
			<line class="st1" x1="98" y1="-314.5" x2="759" y2="-277.3"/>
			<line class="st1" x1="97.8" y1="-311.5" x2="758.8" y2="-274.3"/>
			<line class="st1" x1="97.6" y1="-308.5" x2="758.5" y2="-271.4"/>
		</g>
	</g>
	<g>
		<g transform="translate(536,536) rotate(-2.442) translate(-536,26)">
			<line class="st1" x1="135.6" y1="97" x2="688.5" y2="104.3"/>
			<line class="st1" x1="135.4" y1="100" x2="688.3" y2="107.3"/>
			<line class="st1" x1="135.2" y1="103" x2="688.1" y2="110.3"/>
			<line class="st1" x1="135" y1="106" x2="687.9" y2="113.2"/>
			<line class="st1" x1="134.8" y1="109" x2="687.7" y2="116.2"/>
			<line class="st1" x1="134.6" y1="112" x2="687.5" y2="119.2"/>
			<line class="st1" x1="134.4" y1="115" x2="687.3" y2="122.2"/>
			<line class="st1" x1="134.2" y1="118" x2="687.1" y2="125.2"/>
			<line class="st1" x1="134" y1="121" x2="686.9" y2="128.2"/>
			<line class="st1" x1="133.8" y1="124" x2="686.7" y2="131.2"/>
			<line class="st1" x1="133.6" y1="127" x2="686.5" y2="134.2"/>
			<line class="st1" x1="133.4" y1="129.9" x2="686.3" y2="137.2"/>
			<line class="st1" x1="133.2" y1="132.9" x2="686.1" y2="140.2"/>
			<line class="st1" x1="133" y1="135.9" x2="685.9" y2="143.2"/>
			<line class="st1" x1="132.8" y1="138.9" x2="685.7" y2="146.2"/>
			<line class="st1" x1="132.6" y1="141.9" x2="685.5" y2="149.1"/>
			<line class="st1" x1="132.4" y1="144.9" x2="685.3" y2="152.1"/>
			<line class="st1" x1="132.2" y1="147.9" x2="685.2" y2="155.1"/>
			<line class="st1" x1="132" y1="150.9" x2="685" y2="158.1"/>
			<line class="st1" x1="131.8" y1="153.9" x2="684.8" y2="161.1"/>
			<line class="st1" x1="131.6" y1="156.9" x2="684.6" y2="164.1"/>
		</g>
	</g>
	<g>
		<g transform="translate(536,536) rotate(-2.442) translate(-536,26)">
			<line class="st1" x1="176.5" y1="101.5" x2="621.5" y2="142.9"/>
			<line class="st1" x1="176" y1="104.4" x2="621" y2="145.9"/>
			<line class="st1" x1="175.5" y1="107.4" x2="620.5" y2="148.8"/>
			<line class="st1" x1="175" y1="110.3" x2="620" y2="151.8"/>
			<line class="st1" x1="174.5" y1="113.3" x2="619.5" y2="154.7"/>
			<line class="st1" x1="173.9" y1="116.3" x2="619" y2="157.7"/>
			<line class="st1" x1="173.4" y1="119.2" x2="618.5" y2="160.6"/>
			<line class="st1" x1="172.9" y1="122.2" x2="617.9" y2="163.6"/>
			<line class="st1" x1="172.4" y1="125.1" x2="617.4" y2="166.6"/>
			<line class="st1" x1="171.9" y1="128.1" x2="616.9" y2="169.5"/>
			<line class="st1" x1="171.4" y1="131" x2="616.4" y2="172.5"/>
			<line class="st1" x1="170.9" y1="134" x2="615.9" y2="175.4"/>
			<line class="st1" x1="170.4" y1="136.9" x2="615.4" y2="178.4"/>
			<line class="st1" x1="169.9" y1="139.9" x2="614.9" y2="181.3"/>
			<line class="st1" x1="169.3" y1="142.8" x2="614.4" y2="184.3"/>
			<line class="st1" x1="168.8" y1="145.8" x2="613.9" y2="187.2"/>
			<line class="st1" x1="168.3" y1="148.8" x2="613.4" y2="190.2"/>
			<line class="st1" x1="167.8" y1="151.7" x2="612.8" y2="193.1"/>
			<line class="st1" x1="167.3" y1="154.7" x2="612.3" y2="196.1"/>
			<line class="st1" x1="166.8" y1="157.6" x2="611.8" y2="199.1"/>
			<line class="st1" x1="166.3" y1="160.6" x2="611.3" y2="202"/>
		</g>
	</g>
</g>
</svg>
