<?xml version="1.0" encoding="utf-8"?>
<!-- Generator: Adobe Illustrator 22.0.0, SVG Export Plug-In . SVG Version: 6.00 Build 0)  -->
<svg version="1.1" xmlns="http://www.w3.org/2000/svg" xmlns:xlink="http://www.w3.org/1999/xlink" x="0px" y="0px"
	 viewBox="0 0 841.9 1190.6" style="enable-background:new 0 0 841.9 1190.6;" xml:space="preserve">
<style type="text/css">
	.st0{fill:none;stroke:#231F20;stroke-miterlimit:10;}
	.st1{fill:none;stroke:#662D91;stroke-miterlimit:10;}
</style>
<g id="Layer_1">
	<rect class="st0" width="822" height="822"/>
</g>
<g id="v1">
	<g>
		<g transform="translate(536,536) rotate(-0.2941) translate(-536,264)">
			<line class="st1" x1="72.3" y1="-466" x2="766.4" y2="-430.4"/>
		</g>
		<g transform="translate(536,536) rotate(-0.2941) translate(-536,264)">
			<line class="st1" x1="72.2" y1="-463" x2="766.3" y2="-427.4"/>
			<line class="st1" x1="72" y1="-460" x2="766.1" y2="-424.4"/>
			<line class="st1" x1="71.9" y1="-457" x2="766" y2="-421.4"/>
			<line class="st1" x1="71.8" y1="-454" x2="765.8" y2="-418.4"/>
			<line class="st1" x1="71.6" y1="-451" x2="765.7" y2="-415.4"/>
			<line class="st1" x1="71.5" y1="-448" x2="765.5" y2="-412.4"/>
			<line class="st1" x1="71.3" y1="-445" x2="765.4" y2="-409.4"/>
			<line class="st1" x1="71.2" y1="-442" x2="765.3" y2="-406.4"/>
			<line class="st1" x1="71" y1="-439" x2="765.1" y2="-403.4"/>
			<line class="st1" x1="70.9" y1="-436" x2="765" y2="-400.4"/>
			<line class="st1" x1="70.7" y1="-433" x2="764.8" y2="-397.5"/>
			<line class="st1" x1="70.6" y1="-430" x2="764.7" y2="-394.5"/>
			<line class="st1" x1="70.5" y1="-427" x2="764.5" y2="-391.5"/>
			<line class="st1" x1="70.3" y1="-424" x2="764.4" y2="-388.5"/>
			<line class="st1" x1="70.2" y1="-421" x2="764.3" y2="-385.5"/>
			<line class="st1" x1="70" y1="-418" x2="764.1" y2="-382.5"/>
			<line class="st1" x1="69.9" y1="-415" x2="764" y2="-379.5"/>
			<line class="st1" x1="69.7" y1="-412" x2="763.8" y2="-376.5"/>
			<line class="st1" x1="69.6" y1="-409" x2="763.7" y2="-373.5"/>
			<line class="st1" x1="69.5" y1="-406" x2="763.5" y2="-370.5"/>
			<line class="st1" x1="69.3" y1="-403.1" x2="763.4" y2="-367.5"/>
			<line class="st1" x1="69.2" y1="-400.1" x2="763.3" y2="-364.5"/>
			<line class="st1" x1="69" y1="-397.1" x2="763.1" y2="-361.5"/>
			<line class="st1" x1="68.9" y1="-394.1" x2="763" y2="-358.5"/>
			<line class="st1" x1="68.7" y1="-391.1" x2="762.8" y2="-355.5"/>
			<line class="st1" x1="68.6" y1="-388.1" x2="762.7" y2="-352.5"/>
			<line class="st1" x1="68.5" y1="-385.1" x2="762.5" y2="-349.5"/>
			<line class="st1" x1="68.3" y1="-382.1" x2="762.4" y2="-346.5"/>
			<line class="st1" x1="68.2" y1="-379.1" x2="762.2" y2="-343.5"/>
			<line class="st1" x1="68" y1="-376.1" x2="762.1" y2="-340.5"/>
			<line class="st1" x1="67.9" y1="-373.1" x2="762" y2="-337.5"/>
			<line class="st1" x1="67.7" y1="-370.1" x2="761.8" y2="-334.5"/>
			<line class="st1" x1="67.6" y1="-367.1" x2="761.7" y2="-331.5"/>
			<line class="st1" x1="67.4" y1="-364.1" x2="761.5" y2="-328.5"/>
			<line class="st1" x1="67.3" y1="-361.1" x2="761.4" y2="-325.5"/>
			<line class="st1" x1="67.2" y1="-358.1" x2="761.2" y2="-322.5"/>
			<line class="st1" x1="67" y1="-355.1" x2="761.1" y2="-319.5"/>
			<line class="st1" x1="66.9" y1="-352.1" x2="761" y2="-316.5"/>
			<line class="st1" x1="66.7" y1="-349.1" x2="760.8" y2="-313.5"/>
			<line class="st1" x1="66.6" y1="-346.1" x2="760.7" y2="-310.6"/>
			<line class="st1" x1="66.4" y1="-343.1" x2="760.5" y2="-307.6"/>
			<line class="st1" x1="66.3" y1="-340.1" x2="760.4" y2="-304.6"/>
			<line class="st1" x1="66.2" y1="-337.1" x2="760.2" y2="-301.6"/>
			<line class="st1" x1="66" y1="-334.1" x2="760.1" y2="-298.6"/>
			<line class="st1" x1="65.9" y1="-331.1" x2="760" y2="-295.6"/>
			<line class="st1" x1="65.7" y1="-328.1" x2="759.8" y2="-292.6"/>
			<line class="st1" x1="65.6" y1="-325.1" x2="759.7" y2="-289.6"/>
			<line class="st1" x1="65.4" y1="-322.1" x2="759.5" y2="-286.6"/>
			<line class="st1" x1="65.3" y1="-319.1" x2="759.4" y2="-283.6"/>
			<line class="st1" x1="65.2" y1="-316.2" x2="759.2" y2="-280.6"/>
			<line class="st1" x1="65" y1="-313.2" x2="759.1" y2="-277.6"/>
			<line class="st1" x1="64.9" y1="-310.2" x2="758.9" y2="-274.6"/>
			<line class="st1" x1="64.7" y1="-307.2" x2="758.8" y2="-271.6"/>
			<line class="st1" x1="64.6" y1="-304.2" x2="758.7" y2="-268.6"/>
			<line class="st1" x1="64.4" y1="-301.2" x2="758.5" y2="-265.6"/>
			<line class="st1" x1="64.3" y1="-298.2" x2="758.4" y2="-262.6"/>
			<line class="st1" x1="64.1" y1="-295.2" x2="758.2" y2="-259.6"/>
			<line class="st1" x1="64" y1="-292.2" x2="758.1" y2="-256.6"/>
			<line class="st1" x1="63.9" y1="-289.2" x2="757.9" y2="-253.6"/>
			<line class="st1" x1="63.7" y1="-286.2" x2="757.8" y2="-250.6"/>
			<line class="st1" x1="63.6" y1="-283.2" x2="757.7" y2="-247.6"/>
			<line class="st1" x1="63.4" y1="-280.2" x2="757.5" y2="-244.6"/>
			<line class="st1" x1="63.3" y1="-277.2" x2="757.4" y2="-241.6"/>
			<line class="st1" x1="63.1" y1="-274.2" x2="757.2" y2="-238.6"/>
			<line class="st1" x1="63" y1="-271.2" x2="757.1" y2="-235.6"/>
			<line class="st1" x1="62.9" y1="-268.2" x2="756.9" y2="-232.6"/>
			<line class="st1" x1="62.7" y1="-265.2" x2="756.8" y2="-229.6"/>
			<line class="st1" x1="62.6" y1="-262.2" x2="756.7" y2="-226.6"/>
			<line class="st1" x1="62.4" y1="-259.2" x2="756.5" y2="-223.7"/>
			<line class="st1" x1="62.3" y1="-256.2" x2="756.4" y2="-220.7"/>
			<line class="st1" x1="62.1" y1="-253.2" x2="756.2" y2="-217.7"/>
			<line class="st1" x1="62" y1="-250.2" x2="756.1" y2="-214.7"/>
			<line class="st1" x1="61.9" y1="-247.2" x2="755.9" y2="-211.7"/>
			<line class="st1" x1="61.7" y1="-244.2" x2="755.8" y2="-208.7"/>
			<line class="st1" x1="61.6" y1="-241.2" x2="755.6" y2="-205.7"/>
			<line class="st1" x1="61.4" y1="-238.2" x2="755.5" y2="-202.7"/>
			<line class="st1" x1="61.3" y1="-235.2" x2="755.4" y2="-199.7"/>
			<line class="st1" x1="61.1" y1="-232.2" x2="755.2" y2="-196.7"/>
			<line class="st1" x1="61" y1="-229.3" x2="755.1" y2="-193.7"/>
			<line class="st1" x1="60.8" y1="-226.3" x2="754.9" y2="-190.7"/>
			<line class="st1" x1="60.7" y1="-223.3" x2="754.8" y2="-187.7"/>
			<line class="st1" x1="60.6" y1="-220.3" x2="754.6" y2="-184.7"/>
			<line class="st1" x1="60.4" y1="-217.3" x2="754.5" y2="-181.7"/>
			<line class="st1" x1="60.3" y1="-214.3" x2="754.4" y2="-178.7"/>
			<line class="st1" x1="60.1" y1="-211.3" x2="754.2" y2="-175.7"/>
			<line class="st1" x1="60" y1="-208.3" x2="754.1" y2="-172.7"/>
			<line class="st1" x1="59.8" y1="-205.3" x2="753.9" y2="-169.7"/>
			<line class="st1" x1="59.7" y1="-202.3" x2="753.8" y2="-166.7"/>
			<line class="st1" x1="59.6" y1="-199.3" x2="753.6" y2="-163.7"/>
			<line class="st1" x1="59.4" y1="-196.3" x2="753.5" y2="-160.7"/>
			<line class="st1" x1="59.3" y1="-193.3" x2="753.4" y2="-157.7"/>
			<line class="st1" x1="59.1" y1="-190.3" x2="753.2" y2="-154.7"/>
			<line class="st1" x1="59" y1="-187.3" x2="753.1" y2="-151.7"/>
			<line class="st1" x1="58.8" y1="-184.3" x2="752.9" y2="-148.7"/>
			<line class="st1" x1="58.7" y1="-181.3" x2="752.8" y2="-145.7"/>
			<line class="st1" x1="58.6" y1="-178.3" x2="752.6" y2="-142.7"/>
			<line class="st1" x1="58.4" y1="-175.3" x2="752.5" y2="-139.7"/>
			<line class="st1" x1="58.3" y1="-172.3" x2="752.3" y2="-136.8"/>
			<line class="st1" x1="58.1" y1="-169.3" x2="752.2" y2="-133.8"/>
			<line class="st1" x1="58" y1="-166.3" x2="752.1" y2="-130.8"/>
			<line class="st1" x1="57.8" y1="-163.3" x2="751.9" y2="-127.8"/>
			<line class="st1" x1="57.7" y1="-160.3" x2="751.8" y2="-124.8"/>
			<line class="st1" x1="57.5" y1="-157.3" x2="751.6" y2="-121.8"/>
		</g>
	</g>
</g>
</svg>
