<?xml version="1.0" encoding="utf-8"?>
<!-- Generator: Adobe Illustrator 22.0.0, SVG Export Plug-In . SVG Version: 6.00 Build 0)  -->
<svg version="1.1" xmlns="http://www.w3.org/2000/svg" xmlns:xlink="http://www.w3.org/1999/xlink" x="0px" y="0px"
	 viewBox="0 0 841.9 1190.6" style="enable-background:new 0 0 841.9 1190.6;" xml:space="preserve">
<style type="text/css">
	.st0{fill:none;stroke:#662D91;stroke-miterlimit:10;}
	.st1{fill:none;stroke:#231F20;stroke-miterlimit:10;}
</style>
<g id="Layer_4">
</g>
<g id="Layer_3">
	<g>
		<g transform="translate(536,536) rotate(-0.2941) translate(-536,264)">
			<path class="st0" d="M191.5-233.8c-33.6-2.1-66.6-3.3-100.3-5.2"/>
			<path class="st0" d="M729.3-205.9c-35.6-2.3-71.6-3.5-107.2-5.6"/>
			<path class="st0" d="M190-236.9c-33.2-2-66.2-2.2-98.7-5.1"/>
			<path class="st0" d="M729.5-208.9c-35.8-2.3-70.7-3.5-106.7-5.5"/>
			<path class="st0" d="M189.4-239.9c-32.5-2-64.5-2.2-98-5.1"/>
			<path class="st0" d="M729.6-211.9c-34.9-2.3-70.9-3.5-106.1-5.5"/>
			<path class="st0" d="M188-243c-32.1-1.9-64.1-3.1-96.4-5"/>
			<path class="st0" d="M729.8-214.9c-35-2.3-71-3.5-105.6-5.5"/>
			<path class="st0" d="M187.3-246.1c-32.4-2.9-63.4-2.1-95.6-5"/>
			<path class="st0" d="M729.9-217.9c-35.1-2.3-70.1-3.5-105.1-5.5"/>
			<path class="st0" d="M186.7-249.1c-31.8-2.9-62.8-2-94.8-4.9"/>
			<path class="st0" d="M730.1-220.9c-35.3-2.3-69.3-2.5-104.5-5.4"/>
			<path class="st0" d="M186.1-252.1c-31.1-2.8-63.1-2-94.1-4.9"/>
			<path class="st0" d="M730.2-223.9c-35.4-1.3-69.4-3.5-104-5.4"/>
			<path class="st0" d="M185.5-255.2c-30.5-2.8-62.5-2-93.3-4.8"/>
			<path class="st0" d="M730.3-226.9c-34.5-1.3-68.5-3.5-103.5-5.4"/>
			<path class="st0" d="M184.8-258.2C154-261,123-260.1,92.3-263"/>
			<path class="st0" d="M730.5-229.9c-33.6-1.3-68.6-3.5-102.7-5.3"/>
			<path class="st0" d="M184.2-261.2C153-264,123-263.1,92.4-266"/>
			<path class="st0" d="M730.6-232.9c-33.8-1.3-68.8-3.5-102.4-5.3"/>
			<path class="st0" d="M183.6-264.3c-29.6-2.7-60.6-1.8-91-4.7"/>
			<path class="st0" d="M730.8-235.9c-33.9-1.3-67.9-3.5-101.6-5.3"/>
			<path class="st0" d="M183-267.3c-30-2.7-60-1.8-90.3-4.7"/>
			<path class="st0" d="M730.9-238.9c-34-1.3-67-3.5-101.1-5.3"/>
			<path class="st0" d="M182.1-270.4C152-272,123-273.1,92.9-275"/>
			<path class="st0" d="M731.1-241.8c-34.2-1.3-67.1-3.5-101.4-5.3"/>
			<path class="st0" d="M182.3-273.4c-30.2-1.6-59.2-2.8-89.3-4.6"/>
			<path class="st0" d="M731.2-244.8c-34.3-2.3-67.3-2.5-100.8-5.2"/>
			<path class="st0" d="M181.6-276.4c-29.6-1.6-58.6-2.7-88.5-4.6"/>
			<path class="st0" d="M731.3-247.8c-33.4-2.3-67.4-2.5-100.3-5.2"/>
			<path class="st0" d="M181-279.4c-29-1.5-59-2.7-87.7-4.6"/>
			<path class="st0" d="M731.5-250.8c-33.5-2.3-66.5-2.5-100.3-5.2"/>
			<path class="st0" d="M180.9-282.4c-28.8-1.5-58.8-2.7-87.5-4.5"/>
			<path class="st0" d="M731.6-253.8c-33.7-2.3-66.7-2.5-100.6-5.2"/>
			<path class="st0" d="M180.3-285.5c-29.2-1.5-58.2-2.7-86.8-4.5"/>
			<path class="st0" d="M731.8-256.8c-32.8-2.3-66.8-2.5-100-5.2"/>
			<path class="st0" d="M180.2-288.5c-29.1-1.5-57.1-2.6-86.5-4.5"/>
			<path class="st0" d="M731.9-259.8c-32.9-2.3-66.9-2.5-100-5.2"/>
			<path class="st0" d="M179.6-291.5c-28.5-1.5-57.5-2.6-85.8-4.5"/>
			<path class="st0" d="M732-262.8c-33-1.3-66-4.5-99.5-5.2"/>
			<path class="st0" d="M179.8-294.5c-28.6-1.5-56.6-2.6-85.8-4.5"/>
			<path class="st0" d="M732.2-265.8c-33.2-1.3-67.2-4.5-99.8-5.2"/>
			<path class="st0" d="M179.7-297.5c-28.5-1.5-57.5-2.6-85.5-4.4"/>
			<path class="st0" d="M732.3-268.8c-33.3-1.3-67.3-4.5-99.8-5.2"/>
			<path class="st0" d="M179.8-300.5c-28.6-1.5-56.6-2.6-85.5-4.4"/>
			<path class="st0" d="M732.5-271.8c-33.4-2.3-67.4-2.5-100-5.2"/>
			<path class="st0" d="M179.7-303.5c-28.5-1.5-57.5-2.6-85.3-4.4"/>
			<path class="st0" d="M732.6-274.8c-33.5-2.4-66.5-2.5-100-5.2"/>
			<path class="st0" d="M180.3-306.5c-29.1-1.5-57.1-2.6-85.8-4.5"/>
			<path class="st0" d="M732.8-277.8c-33.7-2.4-66.7-2.5-100.3-5.2"/>
			<path class="st0" d="M180.5-309.5c-29.2-1.5-57.2-2.6-85.8-4.5"/>
			<path class="st0" d="M732.9-280.8c-33.8-2.4-66.8-2.5-100.3-5.2"/>
			<path class="st0" d="M181.1-312.5c-28.9-1.5-56.9-2.7-86.3-4.5"/>
			<path class="st0" d="M733-283.8c-33.9-2.4-66.9-2.5-100.6-5.2"/>
			<path class="st0" d="M181.8-315.4c-29.5-1.5-57.5-2.7-86.8-4.5"/>
			<path class="st0" d="M733.2-286.8c-34.1-2.4-67.1-2.5-100.6-5.2"/>
			<path class="st0" d="M182.4-318.4c-29.1-1.6-58.1-2.7-87.2-4.5"/>
			<path class="st0" d="M733.3-289.8c-34.2-2.4-67.2-2.5-101.4-5.3"/>
			<path class="st0" d="M183.3-321.4c-29-1.6-59-2.8-88-4.6"/>
			<path class="st0" d="M733.5-292.8c-34.3-2.4-67.3-2.5-101.6-5.3"/>
			<path class="st0" d="M184.4-324.3c-30.1-1.7-59.1-2.8-89-4.6"/>
			<path class="st0" d="M733.6-295.8c-34.4-1.4-68.4-3.6-102.4-5.3"/>
			<path class="st0" d="M185.1-327.3c-29.7-2.7-59.7-1.8-89.5-4.6"/>
			<path class="st0" d="M733.8-298.8c-33.6-1.4-68.6-3.6-102.4-5.3"/>
			<path class="st0" d="M187.2-330.2c-30.9-2.8-60.9-1.9-91.5-4.8"/>
			<path class="st0" d="M733.9-301.8c-34.7-1.4-68.7-3.6-103.2-5.4"/>
			<path class="st0" d="M188.7-333.1c-31.3-2.8-62.3-2-92.8-4.8"/>
			<path class="st0" d="M734-304.8c-34.8-1.4-68.8-3.6-104-5.4"/>
			<path class="st0" d="M189.8-336c-31.4-1.9-62.4-2.1-93.8-4.9"/>
			<path class="st0" d="M734.2-307.8c-35-1.4-68.9-3.6-104-5.4"/>
			<path class="st0" d="M192-338.9c-31.6-2-63.6-2.2-95.9-5"/>
			<path class="st0" d="M734.3-310.8c-35.1-1.4-70.1-3.6-104.8-5.4"/>
			<path class="st0" d="M193.2-341.9c-31.8-2-64.8-2.2-96.9-5"/>
			<path class="st0" d="M734.5-313.8c-35.2-1.4-70.2-3.6-105.6-5.5"/>
			<path class="st0" d="M195.2-344.8c-32.7-2.1-65.7-3.3-98.7-5.1"/>
			<path class="st0" d="M734.6-316.8c-35.3-1.4-71.3-3.6-106.4-5.5"/>
			<path class="st0" d="M197.4-347.7c-34-2.2-67-3.4-100.8-5.2"/>
			<path class="st0" d="M734.8-319.8c-36.5-1.4-72.4-3.6-108-5.6"/>
			<path class="st0" d="M199.4-350.6c-33.9-2.3-68.9-3.5-102.7-5.3"/>
			<path class="st0" d="M734.9-322.8c-35.6-1.4-72.6-3.6-108.8-5.7"/>
			<path class="st0" d="M201.9-353.4c-35.5-2.5-70.5-2.6-105.1-5.5"/>
			<path class="st0" d="M735-325.8c-36.7-1.4-73.7-4.6-110.2-5.7"/>
			<path class="st0" d="M203.9-356.3c-36.5-1.6-71.5-2.7-107-5.6"/>
			<path class="st0" d="M735.2-328.7c-36.8-1.4-73.8-4.6-111-5.8"/>
			<path class="st0" d="M206-359.2c-36.5-1.6-72.5-2.8-108.8-5.7"/>
			<path class="st0" d="M735.3-331.7c-37-1.4-74.9-4.6-112.4-5.8"/>
			<path class="st0" d="M208.6-362.1c-37.1-2.8-74.1-3-111.3-5.8"/>
			<path class="st0" d="M735.5-334.7c-38.1-1.4-76.1-4.6-114-5.9"/>
			<path class="st0" d="M210.6-365c-38.1-2.9-75.1-2.1-113.2-5.9"/>
			<path class="st0" d="M735.6-337.7c-38.2-0.4-77.2-4.6-115.4-6"/>
			<path class="st0" d="M212.7-367.9c-38.1-3-77.1-3.2-115.1-6"/>
			<path class="st0" d="M735.7-340.7c-39.3-1.4-77.3-5.6-116.8-6.1"/>
			<path class="st0" d="M215.3-370.8c-38.8-2.1-78.8-3.3-117.6-6.1"/>
			<path class="st0" d="M735.9-343.7c-39.5-0.4-79.5-5.6-118.2-6.1"/>
			<path class="st0" d="M217.4-373.7c-39.9-2.2-79.9-3.4-119.6-6.2"/>
			<path class="st0" d="M736-346.7c-39.6-1.4-80.6-5.7-120.4-6.3"/>
			<path class="st0" d="M219.5-376.6c-40.9-2.3-80.9-3.5-121.5-6.3"/>
			<path class="st0" d="M736.2-349.7c-40.7-1.5-81.7-4.7-122.7-6.4"/>
			<path class="st0" d="M222.2-379.4c-40.6-2.4-82.6-3.6-124.1-6.4"/>
			<path class="st0" d="M736.3-352.7c-40.8-2.5-82.8-3.7-124.1-6.4"/>
			<path class="st0" d="M223.5-382.4c-41.9-1.5-82.9-3.7-125.2-6.5"/>
			<path class="st0" d="M736.5-355.7c-42-2.5-84-3.7-126.1-6.5"/>
			<path class="st0" d="M225.3-385.3c-41.7-1.5-84.7-3.8-126.9-6.6"/>
			<path class="st0" d="M736.6-358.7c-43.1-2.5-85.1-3.7-128.4-6.7"/>
			<path class="st0" d="M227.5-388.2c-42.9-1.6-85.8-3.9-128.9-6.7"/>
			<path class="st0" d="M736.7-361.7c-43.2-1.5-87.2-4.7-130.4-6.8"/>
			<path class="st0" d="M228.8-391.1c-43.1-1.7-87.1-3.9-130.1-6.8"/>
			<path class="st0" d="M736.9-364.7c-44.4-1.5-89.3-4.7-133.3-6.9"/>
			<path class="st0" d="M230.9-394c-44.3-3.8-88.3-3-132.1-6.9"/>
			<path class="st0" d="M737-367.7c-45.5-1.5-90.5-4.7-135.3-7"/>
			<path class="st0" d="M232.8-396.9c-45.1-3.9-89.1-3.1-133.8-7"/>
			<path class="st0" d="M737.2-370.7c-45.6-1.5-91.6-5.7-137.3-7.1"/>
			<path class="st0" d="M234.1-399.8c-45.4-4-90.4-3.2-135-7"/>
			<path class="st0" d="M737.3-373.7c-46.7-1.5-93.7-6.8-140.3-7.3"/>
			<path class="st0" d="M236.9-402.7c-46.2-3.1-91.2-3.3-137.6-7.1"/>
			<path class="st0" d="M737.5-376.7c-47.9-0.5-94.8-6.8-143-7.4"/>
			<path class="st0" d="M238.8-405.6c-46.1-3.2-93.1-3.4-139.4-7.2"/>
			<path class="st0" d="M737.6-379.7c-48-1.5-97-4.8-145-7.5"/>
			<path class="st0" d="M241-408.5c-47.3-3.3-94.3-4.5-141.5-7.3"/>
			<path class="st0" d="M737.7-382.7c-49.1-1.5-99.1-4.8-148-7.7"/>
			<path class="st0" d="M243.5-411.4c-47.8-2.4-95.8-4.6-143.8-7.5"/>
			<path class="st0" d="M737.9-385.7c-50.3-1.5-101.2-4.8-151.4-7.9"/>
			<path class="st0" d="M246.4-414.2c-48.6-1.5-97.6-4.8-146.5-7.6"/>
			<path class="st0" d="M738-388.7c-51.4-2.5-102.4-4.8-153.5-8"/>
			<path class="st0" d="M248.9-417.1c-50.1-1.6-99.1-4.9-148.9-7.7"/>
			<path class="st0" d="M738.2-391.7c-52.5-2.6-104.5-4.8-157.1-8.2"/>
			<path class="st0" d="M253-419.9c-51.2-2.8-102.2-5.1-152.9-7.9"/>
			<path class="st0" d="M738.3-394.7c-52.6-2.6-106.6-5.8-159.9-8.3"/>
			<path class="st0" d="M255.6-422.7c-51.7-3-103.7-5.2-155.3-8.1"/>
			<path class="st0" d="M738.5-397.7c-54.8-2.6-108.7-5.8-163.3-8.5"/>
			<path class="st0" d="M259.1-425.6c-53.2-3.1-105.2-5.4-158.7-8.2"/>
			<path class="st0" d="M738.6-400.7c-54.9-2.6-110.9-5.9-165.5-8.6"/>
			<path class="st0" d="M262.3-428.4c-54.4-3.3-107.4-5.6-161.7-8.4"/>
			<path class="st0" d="M738.7-403.7c-56-3.6-112-5.9-168.3-8.7"/>
			<path class="st0" d="M267.1-431.2c-55.2-3.5-111.2-5.8-166.4-8.6"/>
			<path class="st0" d="M738.9-406.7c-57.1-3.6-113.1-5.9-170.1-8.8"/>
			<path class="st0" d="M270.3-434c-56.5-3.7-113.4-6-169.5-8.8"/>
			<path class="st0" d="M739-409.7c-57.3-3.6-115.2-5.9-172.3-8.9"/>
			<path class="st0" d="M274.3-436.8c-58.3-4.8-115.3-5.1-173.3-9"/>
			<path class="st0" d="M739.2-412.7c-58.4-3.6-116.4-5.9-174.5-9.1"/>
			<path class="st0" d="M278.5-439.6c-58.6-3-118.6-5.4-177.4-9.2"/>
			<path class="st0" d="M739.3-415.7c-58.5-2.6-117.5-5.9-176.1-9.1"/>
			<path class="st0" d="M283.1-442.3c-61.2-3.3-121.2-5.6-181.8-9.4"/>
			<path class="st0" d="M739.5-418.6c-59.6-3.6-118.6-5.9-178.6-9.3"/>
			<path class="st0" d="M287.1-445.1c-62.1-3.5-124.1-5.8-185.7-9.6"/>
			<path class="st0" d="M739.6-421.6c-60.8-2.6-120.7-6.9-181.5-9.4"/>
			<path class="st0" d="M291.7-447.9c-62.8-3.7-126.8-6-190.2-9.9"/>
			<path class="st0" d="M739.7-424.6c-61.9-2.6-122.9-6.9-184.4-9.6"/>
			<path class="st0" d="M295.8-450.7c-64.8-4.9-128.8-5.2-194.1-10.1"/>
			<path class="st0" d="M739.9-427.6c-63-3.6-126-5-188.6-9.8"/>
			<path class="st0" d="M300.4-453.5c-66.5-4.1-132.5-5.4-198.6-10.3"/>
			<path class="st0" d="M740-430.6c-64.1-2.6-129.1-6-193.4-10"/>
			<path class="st0" d="M305.8-456.2C238-459.5,170-462.9,102-466.8"/>
			<path class="st0" d="M740.2-433.6c-66.3-2.7-132.3-7-198-10.3"/>
			<path class="st0" d="M311.9-458.9c-69.9-3.6-139.9-7-209.8-10.9"/>
			<path class="st0" d="M740.3-436.6c-68.4-2.7-135.4-8-203.5-10.6"/>
			<path class="st0" d="M317-461.6c-72-4.9-143-6.2-214.8-11.2"/>
			<path class="st0" d="M740.4-439.6c-69.5-2.7-139.5-8-209.1-10.9"/>
			<path class="st0" d="M323.2-464.3c-74.1-4.2-147.1-6.6-220.8-11.5"/>
			<path class="st0" d="M740.6-442.6c-71.7-3.7-142.6-7.1-215.1-11.2"/>
			<path class="st0" d="M329.3-467c-76.3-3.5-151.3-7.9-226.8-11.8"/>
			<path class="st0" d="M740.7-445.6C667.9-448.3,594-453.7,521-457"/>
			<path class="st0" d="M335.2-469.7c-77.1-3.7-155.1-8.1-232.5-12.1"/>
			<path class="st0" d="M740.9-448.6c-74.9-2.7-150.9-8.1-225.4-11.7"/>
			<path class="st0" d="M341.8-472.3c-79.7-5.1-158.7-7.5-239-12.4"/>
			<path class="st0" d="M741-451.6c-77-3.7-155-7.1-232.2-12.1"/>
			<path class="st0" d="M349.8-474.9c-81.7-4.4-164.6-7.9-246.8-12.8"/>
			<path class="st0" d="M741.2-454.6C662-458.4,582-462.8,502.9-467"/>
			<path class="st0" d="M357.8-477.5c-84.7-3.8-169.6-9.3-254.7-13.2"/>
			<path class="st0" d="M741.3-457.6c-82.3-2.8-164.3-9.2-245.8-12.8"/>
			<path class="st0" d="M367.2-480c-88.1-5.3-176.1-7.7-263.9-13.7"/>
			<path class="st0" d="M741.4-460.6c-85.4-3.8-169.4-8.2-254-13.2"/>
			<path class="st0" d="M377.7-482.5c-91.6-4.8-182.5-9.3-274.3-14.2"/>
			<path class="st0" d="M741.6-463.6c-87.5-3.8-174.5-9.2-262.6-13.6"/>
			<path class="st0" d="M390-484.9c-95.8-5.4-190.8-9.9-286.5-14.9"/>
			<path class="st0" d="M741.7-466.6c-91.7-3.8-183.6-9.3-276-14.3"/>
			<path class="st0" d="M410-486.8c-101.9-5.3-204.8-9.9-306.3-15.9"/>
			<path class="st0" d="M741.9-469.6C643.1-474.5,544.1-480,445-485"/>
			<line class="st0" x1="742" y1="-472.6" x2="103.8" y2="-505.7"/>
			<line class="st0" x1="742.2" y1="-475.6" x2="104" y2="-508.7"/>
			<line class="st0" x1="742.3" y1="-478.6" x2="104.1" y2="-511.7"/>
			<line class="st0" x1="742.4" y1="-481.6" x2="104.3" y2="-514.7"/>
			<line class="st0" x1="742.6" y1="-484.6" x2="104.4" y2="-517.7"/>
			<line class="st0" x1="742.7" y1="-487.6" x2="104.5" y2="-520.7"/>
			<line class="st0" x1="742.9" y1="-490.6" x2="104.7" y2="-523.7"/>
			<line class="st0" x1="743" y1="-493.6" x2="104.8" y2="-526.7"/>
			<line class="st0" x1="743.2" y1="-496.6" x2="105" y2="-529.7"/>
			<line class="st0" x1="743.3" y1="-499.6" x2="105.1" y2="-532.7"/>
			<line class="st0" x1="743.4" y1="-502.6" x2="105.3" y2="-535.7"/>
			<line class="st0" x1="743.6" y1="-505.5" x2="105.4" y2="-538.7"/>
			<line class="st0" x1="743.7" y1="-508.5" x2="105.5" y2="-541.7"/>
			<line class="st0" x1="743.9" y1="-511.5" x2="105.7" y2="-544.7"/>
		</g>
	</g>
	<path class="st1" d="M0,0v822h822V0H0z"/>
</g>
</svg>
