<?xml version="1.0" encoding="utf-8"?>
<!-- Generator: Adobe Illustrator 22.0.0, SVG Export Plug-In . SVG Version: 6.00 Build 0)  -->
<svg version="1.1" xmlns="http://www.w3.org/2000/svg" xmlns:xlink="http://www.w3.org/1999/xlink" x="0px" y="0px"
	 viewBox="0 0 841.9 1190.6" style="enable-background:new 0 0 841.9 1190.6;" xml:space="preserve">
<style type="text/css">
	.st0{fill:none;stroke:#93278F;stroke-miterlimit:10;}
	.st1{fill:none;stroke:#231F20;stroke-miterlimit:10;}
</style>
<g id="Layer_4">
</g>
<g id="Layer_3">
	<g>
		<g transform="translate(536,536) rotate(-1.7995) translate(-536,140)">
			<path class="st0" d="M190.5-51.5c-33.5,1.6-66.4-1.4-99.6,0.1"/>
			<path class="st0" d="M745.1-51.8c-42.8,0.1-84.8-1.3-127.9-0.1"/>
			<path class="st0" d="M190.8-54.5c-32.7,1.6-66.6-1.4-99.9,0.1"/>
			<path class="st0" d="M745.2-54.8c-41.8,0.1-84.7-1.3-127.2-0.1"/>
			<path class="st0" d="M190.9-57.5c-32.7,1.6-66.6-1.4-99.9,0.1"/>
			<path class="st0" d="M745.2-57.8c-41.7-0.9-83.8,0.8-125.8-0.1"/>
			<path class="st0" d="M190.9-60.5c-32.7,1.6-66.6-1.4-99.9,0.1"/>
			<path class="st0" d="M745.3-60.8c-41.7-0.9-82.8,0.8-125.1-0.1"/>
			<path class="st0" d="M191-63.4c-32.7,1.6-66.6-1.4-99.9,0.1"/>
			<path class="st0" d="M745.4-63.8c-41.7-0.9-82.7,0.8-124.4-0.1"/>
			<path class="st0" d="M191.1-66.4c-32.6,1.6-66.6-1.4-99.9,0.1"/>
			<path class="st0" d="M745.5-66.8c-40.6-0.9-82.7,0.8-123.7-0.1"/>
			<path class="st0" d="M191.2-69.4c-32.6,1.6-66.5-1.4-99.9,0.1"/>
			<path class="st0" d="M745.5-69.8c-40.6-0.9-81.7,0.8-122.3-0.1"/>
			<path class="st0" d="M192-72.4c-33.4,1.6-67.3-1.4-100.7,0.1"/>
			<path class="st0" d="M745.6-72.8c-40.6-0.9-81.7,0.8-122.3-0.1"/>
			<path class="st0" d="M192.1-75.4c-33.4,1.6-67.3-1.4-100.7,0.1"/>
			<path class="st0" d="M745.7-75.8c-39.6,0.2-80.6-0.1-120.9-0.1"/>
			<path class="st0" d="M192.2-78.4c-33.3,1.6-67.3-1.4-100.7,0.1"/>
			<path class="st0" d="M745.8-78.8c-39.6-0.8-80.6,0.9-120.2-0.1"/>
			<path class="st0" d="M192.2-81.4c-33.3,1.6-67.2-1.4-100.7,0.1"/>
			<path class="st0" d="M745.8-81.8c-39.5-0.8-80.6,0.9-120.2-0.1"/>
			<path class="st0" d="M192.3-84.4c-33.3,1.6-67.2-1.4-100.7,0.1"/>
			<path class="st0" d="M745.9-84.8c-39.5-0.8-79.6,0.9-119.3-0.1"/>
			<path class="st0" d="M192.4-87.4c-33.3,1.6-67.2-1.4-100.7,0.1"/>
			<path class="st0" d="M746-87.8c-39.5-0.8-78.6,0.9-118.6-0.1"/>
			<path class="st0" d="M192.5-90.4c-33.3,1.6-67.2-1.4-100.7,0.1"/>
			<path class="st0" d="M746-90.8c-39.5-0.8-79.6,0.9-118.1-0.1"/>
			<path class="st0" d="M193.3-93.4c-34,1.6-66.9-1.4-101.4,0.1"/>
			<path class="st0" d="M746.1-93.8c-39.5-0.8-79.5,0.9-118.1-0.1"/>
			<path class="st0" d="M193.4-96.4c-34,1.6-66.9-1.4-101.4,0.1"/>
			<path class="st0" d="M746.2-96.8c-39.4-0.8-78.5,0.9-117.3-0.1"/>
			<path class="st0" d="M193.5-99.4c-34,1.6-66.9-1.4-101.4,0.1"/>
			<path class="st0" d="M746.3-99.8c-39.4-0.8-78.5,0.9-117.3-0.1"/>
			<path class="st0" d="M193.5-102.4c-34,1.6-67.9-1.4-101.4,0.1"/>
			<path class="st0" d="M746.3-102.8c-39.4-0.8-77.4,0-116.6-0.1"/>
			<path class="st0" d="M193.6-105.4c-33.9,1.6-67.9-1.4-101.4,0.1"/>
			<path class="st0" d="M746.4-105.8c-39.4-0.8-77.4,0-116.5-0.1"/>
			<path class="st0" d="M194.5-108.4c-33.7,0.7-68.6-1.4-102.2,0.1"/>
			<path class="st0" d="M746.5-108.8c-39.4-0.8-77.4,0-116.5-0.1"/>
			<path class="st0" d="M194.5-111.4c-33.6,0.7-68.6-1.4-102.2,0.1"/>
			<path class="st0" d="M746.6-111.8c-39.3-0.8-77.4,0-116.6-0.1"/>
			<path class="st0" d="M194.6-114.4c-33.6,0.7-68.6-1.4-102.2,0.1"/>
			<path class="st0" d="M746.6-114.8c-39.3-0.8-77.4,0-116.5-0.1"/>
			<path class="st0" d="M194.7-117.4c-33.6,0.7-68.6-1.4-102.2,0.1"/>
			<path class="st0" d="M746.7-117.8c-39.3-0.8-78.4,0.9-117.2-0.1"/>
			<path class="st0" d="M195.3-120.4c-34.1,0.7-69.1-1.4-102.8,0.1"/>
			<path class="st0" d="M746.8-120.8c-39.3-0.8-78.4,0.9-117.2-0.1"/>
			<path class="st0" d="M195.6-123.4c-34.4,0.7-69.3-1.4-103,0.1"/>
			<path class="st0" d="M746.9-123.8c-39.3-0.8-78.3,0.9-117.5-0.1"/>
			<path class="st0" d="M195.7-126.4c-34.3,0.7-69.3-1.4-103,0.1"/>
			<path class="st0" d="M746.9-126.8c-39.2-0.8-79.3,0.9-118.2-0.1"/>
			<path class="st0" d="M195.8-129.4c-34.3,0.7-69.3-1.4-103,0.1"/>
			<path class="st0" d="M747-129.8c-39.2-0.8-79.3,0.9-118.2-0.1"/>
			<path class="st0" d="M196.4-132.4c-34.8,0.7-68.8-1.4-103.5,0.1"/>
			<path class="st0" d="M747.1-132.8c-40.2-0.9-79.3,0.9-118.9-0.1"/>
			<path class="st0" d="M196.5-135.4c-34.8,0.7-68.8-1.4-103.5,0.1"/>
			<path class="st0" d="M747.2-135.8c-40.2,0.1-79.2-0.1-119.3-0.1"/>
			<path class="st0" d="M197.3-138.4c-34.6,0.7-69.5-1.4-104.3,0.1"/>
			<path class="st0" d="M747.2-138.8c-40.2,0.1-80.2-0.1-120.1-0.1"/>
			<path class="st0" d="M197.4-141.4c-34.6,0.7-69.5-1.4-104.3,0.1"/>
			<path class="st0" d="M747.3-141.8c-40.1-0.9-81.2,0.8-120.8-0.1"/>
			<path class="st0" d="M198.3-144.4c-35.3,0.7-70.3-1.4-105.1,0.1"/>
			<path class="st0" d="M747.4-144.7c-40.1-0.9-81.2,0.8-121.2-0.1"/>
			<path class="st0" d="M198.3-147.4c-35.3,0.7-70.3-1.4-105.1,0.1"/>
			<path class="st0" d="M747.5-147.7c-41.1-0.9-81.2,0.8-122.6-0.1"/>
			<path class="st0" d="M198.9-150.4c-34.8,0.7-70.8-0.4-105.7,0.1"/>
			<path class="st0" d="M747.5-150.7c-41.1-0.9-82.1,0.8-123.3-0.1"/>
			<path class="st0" d="M199.8-153.4c-35.6,0.7-70.6-0.4-106.5,0.1"/>
			<path class="st0" d="M747.6-153.7c-41.1-0.9-83.1,0.8-124.5-0.2"/>
			<path class="st0" d="M200.7-156.4c-36.4,0.7-71.4-0.4-107.3,0.1"/>
			<path class="st0" d="M747.7-156.7c-42.1,0.1-83.1,0.8-125.6-0.2"/>
			<path class="st0" d="M201.3-159.4c-35.9,0.8-71.9-0.4-107.8,0.1"/>
			<path class="st0" d="M747.7-159.7c-42,0.1-85.1-0.3-127.4,0.2"/>
			<path class="st0" d="M202.2-162.4c-35.6-0.2-72.7-0.4-108.6,0.1"/>
			<path class="st0" d="M747.8-162.7c-43,0-86.1,0.7-128.6-0.2"/>
			<path class="st0" d="M202.8-165.4c-36.2,0.8-73.2-0.4-109.1,0.1"/>
			<path class="st0" d="M747.9-165.7c-43,0-87-0.4-130-0.2"/>
			<path class="st0" d="M203.7-168.4c-37,0.8-73-0.3-109.9,0.1"/>
			<path class="st0" d="M748-168.7c-44-1-87,0.6-130.8,0.3"/>
			<path class="st0" d="M204.3-171.4c-37.5-0.2-73.5-0.3-110.5,0.1"/>
			<path class="st0" d="M748-171.7c-44,0-88,0.6-132.2,0.3"/>
			<path class="st0" d="M205.7-174.4c-36.8-0.1-74.8-0.3-111.8,0.1"/>
			<path class="st0" d="M748.1-174.7c-44.9-1-89,0.6-134,0.1"/>
			<path class="st0" d="M207.1-177.4c-38.1-0.1-75.2-0.3-113.2,0.1"/>
			<path class="st0" d="M748.2-177.7c-44.9,0-89.9-0.4-135.1,0"/>
			<path class="st0" d="M208-180.4c-37.9-0.1-75.9-0.3-114,0.1"/>
			<path class="st0" d="M748.3-180.7c-45.9-0.1-90.9-0.5-136.5,0"/>
			<path class="st0" d="M209.5-183.4c-38.3-0.1-77.3-0.3-115.4,0.1"/>
			<path class="st0" d="M748.3-183.7c-45.9-0.1-91.9-0.5-137.8,0"/>
			<path class="st0" d="M210.9-186.4c-38.6,0-77.7-0.3-116.8,0.1"/>
			<path class="st0" d="M748.4-186.7c-45.8-1.1-92.9,0.5-139,0"/>
			<path class="st0" d="M212.4-189.4c-39,0-79-0.3-118.1,0.1"/>
			<path class="st0" d="M748.5-189.7c-46.8-1.1-93.9,0.4-140.5,0.1"/>
			<path class="st0" d="M213-192.4c-39.5,0-78.5-0.2-118.7,0.1"/>
			<path class="st0" d="M748.6-192.7c-46.8-1.1-94.9,0.4-141.7,0.1"/>
			<path class="st0" d="M215-195.4c-40.5,0-80.5-0.2-120.6,0.1"/>
			<path class="st0" d="M748.6-195.7c-47.8-1.1-95.9,1.4-143.4,0.1"/>
			<path class="st0" d="M216.5-198.4c-40.8,0.1-80.8-0.2-122,0.1"/>
			<path class="st0" d="M748.7-198.7c-47.7-1.1-95.8,1.4-144,0.1"/>
			<path class="st0" d="M218-201.4c-41.2,0.1-82.2-0.2-123.4,0.1"/>
			<path class="st0" d="M748.8-201.7c-48.7-1.2-96.8,1.3-146.1,0.1"/>
			<path class="st0" d="M219.4-204.4c-41.6,0.1-82.6-0.2-124.8,0.1"/>
			<path class="st0" d="M748.9-204.7c-48.7-1.2-97.8,0.3-147.2,0.1"/>
			<path class="st0" d="M221.5-207.4c-41.5-0.8-84.6-0.2-126.8,0.1"/>
			<path class="st0" d="M748.9-207.7c-49.7-1.2-98.8,1.3-148.8,0.1"/>
			<path class="st0" d="M223-210.4c-43,1.2-84.9-1.1-128.2,0.1"/>
			<path class="st0" d="M749-210.7c-49.7-1.2-99.8,1.2-149.9,0.2"/>
			<path class="st0" d="M224.2-213.4c-43.1,1.2-86.1-1.1-129.4,0.1"/>
			<path class="st0" d="M749.1-213.7c-50.7-0.2-100.7-0.8-151.5,0.2"/>
			<path class="st0" d="M226.6-216.4c-44.4,1.3-87.3-1.1-131.7,0.1"/>
			<path class="st0" d="M749.1-216.7c-50.7-0.2-101.7-0.8-152.8,0.2"/>
			<path class="st0" d="M228.7-219.4c-44.4,1.3-89.3-1.1-133.7,0.1"/>
			<path class="st0" d="M749.2-219.7c-50.6-0.2-102.6-0.9-153.7,0.2"/>
			<path class="st0" d="M229.9-222.4c-45.5,1.3-89.5-1.1-134.8,0.1"/>
			<path class="st0" d="M749.3-222.7c-51.6-0.2-102.6-0.9-155,0.2"/>
			<path class="st0" d="M232-225.4c-45.5,1.4-91.5-1.1-136.9,0.1"/>
			<path class="st0" d="M749.4-225.7c-51.6,0.7-104.6-0.9-156.3,0.2"/>
			<path class="st0" d="M233.5-228.4c-45.9,0.4-91.9-1-138.3,0.1"/>
			<path class="st0" d="M749.4-228.7c-52.6-0.3-104.6,1.1-157.7,0.3"/>
			<path class="st0" d="M235.6-231.4c-47,0.4-92.9-1-140.4,0.1"/>
			<path class="st0" d="M749.5-231.7c-52.5-0.3-106.6,2-159.5,0.5"/>
			<path class="st0" d="M237.8-234.4c-47,0.5-95-1-142.4,0.1"/>
			<path class="st0" d="M749.6-234.7c-53.5-0.3-106.5-1-161-0.1"/>
			<path class="st0" d="M239.6-237.4c-47.8,0.5-95.7-1-144.2,0.1"/>
			<path class="st0" d="M749.7-237.7c-54.5-0.3-108.6,1-162.8,0.1"/>
			<path class="st0" d="M241.8-240.4c-48.8,0.6-96.8-0.9-146.3,0.1"/>
			<path class="st0" d="M749.7-240.7c-54.5-0.3-109.6,0.9-163.9,0.1"/>
			<path class="st0" d="M243.3-243.4c-49.3,0.6-98.3-0.9-147.8,0.1"/>
			<path class="st0" d="M749.8-243.7c-55.5-0.4-110.6,1.9-165.5,0.4"/>
			<path class="st0" d="M245.5-246.4c-50.3-0.4-99.3-0.9-149.9,0.1"/>
			<path class="st0" d="M749.9-246.7c-56.4-0.4-111.5,0.9-167.3-0.1"/>
			<path class="st0" d="M246.8-249.4c-50.5-0.3-101.5-0.9-151.1,0.1"/>
			<path class="st0" d="M750-249.7c-56.4-0.4-112.5,0.8-168.1,0.2"/>
			<path class="st0" d="M249-252.4c-50.6,0.7-102.6-0.9-153.2,0.1"/>
			<path class="st0" d="M750-252.7c-57.4-0.4-113.4-1.2-170.4-0.5"/>
			<path class="st0" d="M251.1-255.4c-51.7-0.2-103.7-0.9-155.3,0.1"/>
			<path class="st0" d="M750.1-255.7c-57.4-0.4-114.4-1.2-171.5-0.5"/>
			<path class="st0" d="M253-258.4c-52.5-0.2-105.5-0.9-157.1,0.1"/>
			<path class="st0" d="M750.2-258.7c-58.4-0.5-116.4,0.7-174,0"/>
			<path class="st0" d="M254.6-261.4c-53,0.8-106-0.8-158.6,0.1"/>
			<path class="st0" d="M750.3-261.7c-58.3-0.5-117.4,0.7-175.4,0"/>
			<path class="st0" d="M256.5-264.4c-53.8,0.9-106.8-0.8-160.5,0.1"/>
			<path class="st0" d="M750.3-264.7c-59.3-0.5-118.4,0.6-177.1,0"/>
			<path class="st0" d="M258.8-267.4c-54,0.9-108.9-0.8-162.6,0.1"/>
			<path class="st0" d="M750.4-267.7c-59.3-0.5-119.3-1.4-178-0.6"/>
			<path class="st0" d="M260.7-270.4c-54.8,1-109.8-0.8-164.5,0.1"/>
			<path class="st0" d="M750.5-270.7c-60.3-0.5-120.3-1.4-180.5-0.6"/>
			<path class="st0" d="M262.3-273.4c-55.3,1-111.3-0.8-166,0.1"/>
			<path class="st0" d="M750.6-273.7c-60.2-1.5-121.3,0.6-181.4-0.1"/>
			<path class="st0" d="M264.2-276.4c-56.1,1-112.1-0.7-167.9,0.1"/>
			<path class="st0" d="M750.6-276.7c-61.2-1.6-122.3,0.5-183.7-0.1"/>
			<path class="st0" d="M266.5-279.4c-57.3,1.1-113.3-0.7-170,0.1"/>
			<path class="st0" d="M750.7-279.7c-62.2-1.6-124.3,1.5-185.9,0"/>
			<path class="st0" d="M268.4-282.4c-57.2,1.1-115.1-0.7-171.9,0.1"/>
			<path class="st0" d="M750.8-282.7c-62.2-1.6-125.3,1.4-187,0"/>
			<path class="st0" d="M270.1-285.4c-57.7,0.2-115.7-0.7-173.5,0.1"/>
			<path class="st0" d="M750.8-285.7c-63.1-1.6-125.2,0.4-188.6-0.1"/>
			<path class="st0" d="M272-288.4c-58.5,0.2-117.5-0.7-175.4,0.1"/>
			<path class="st0" d="M750.9-288.7c-64.1-1.7-127.2-0.6-191-0.1"/>
			<path class="st0" d="M274-291.4c-59.4,0.2-118.4-0.6-177.2,0.1"/>
			<path class="st0" d="M751-291.7c-64.1-0.7-129.2-0.7-193,0.1"/>
			<path class="st0" d="M276.3-294.4c-59.6,0.3-119.6-0.6-179.4,0.1"/>
			<path class="st0" d="M751.1-294.7c-65.1-0.7-130.1-0.7-195.6,0.1"/>
			<path class="st0" d="M278.2-297.4c-60.5,0.3-121.5-0.6-181.3,0.1"/>
			<path class="st0" d="M751.1-297.7c-66.1-0.7-131.2,0.2-197.4,0.1"/>
			<path class="st0" d="M280.5-300.4C219.9-301,157.9-301,97-300.3"/>
			<path class="st0" d="M751.2-300.7c-66.1-0.7-133.1,0.2-199.4,0.1"/>
			<path class="st0" d="M282.5-303.4C221-304,159-303.9,97-303.3"/>
			<path class="st0" d="M751.3-303.7c-67.1-0.7-135.1,0.1-202.1-0.1"/>
			<path class="st0" d="M285.2-306.4c-63.1-0.5-125.1-0.5-188,0.1"/>
			<path class="st0" d="M751.4-306.7c-68-0.8-137.1,0.1-205.3-0.1"/>
			<path class="st0" d="M286.8-309.4c-62.6-0.5-126.7-0.5-189.6,0.1"/>
			<path class="st0" d="M751.4-309.7c-69-0.8-139.1,0-207.8-0.1"/>
			<path class="st0" d="M289.5-312.4c-64.3,1.5-128.2-1.5-192.2,0.1"/>
			<path class="st0" d="M751.5-312.7c-70-0.8-141-0.1-210.8-0.1"/>
			<path class="st0" d="M291.5-315.4c-65.2,1.6-129.1-1.4-194.1,0.1"/>
			<path class="st0" d="M751.6-315.7c-71-0.9-142.1,0.9-213.2,0"/>
			<path class="st0" d="M294.5-318.4c-66,0.6-131-1.4-197.1,0.1"/>
			<path class="st0" d="M751.7-318.7c-71.9-1.9-144.1,1.8-216.4,0"/>
			<path class="st0" d="M297.1-321.4c-66.6,0.7-132.6-1.4-199.7,0.1"/>
			<path class="st0" d="M751.7-321.7c-72.9-0.9-146-0.2-219.3,0.1"/>
			<path class="st0" d="M299.8-324.4c-67.2,0.8-135.2-1.4-202.3,0.1"/>
			<path class="st0" d="M751.8-324.7c-73.9-1-147,0.7-221.5,0.2"/>
		</g>
	</g>
	<g>
		<g transform="translate(536,536) rotate(-2.442) translate(-536,26)">
			<line class="st0" x1="647.5" y1="-295.3" x2="189.7" y2="-293.4"/>
			<line class="st0" x1="647.7" y1="-298.3" x2="190" y2="-296.4"/>
			<line class="st0" x1="647.9" y1="-301.3" x2="190.2" y2="-299.4"/>
			<line class="st0" x1="648.2" y1="-304.3" x2="190.4" y2="-302.3"/>
			<line class="st0" x1="648.4" y1="-307.2" x2="190.6" y2="-305.3"/>
			<line class="st0" x1="648.6" y1="-310.2" x2="190.8" y2="-308.3"/>
			<line class="st0" x1="648.8" y1="-313.2" x2="191" y2="-311.3"/>
			<line class="st0" x1="649" y1="-316.2" x2="191.2" y2="-314.3"/>
			<line class="st0" x1="649.2" y1="-319.2" x2="191.4" y2="-317.3"/>
			<line class="st0" x1="649.4" y1="-322.2" x2="191.7" y2="-320.3"/>
			<line class="st0" x1="649.6" y1="-325.2" x2="191.9" y2="-323.3"/>
			<line class="st0" x1="649.9" y1="-328.2" x2="192.1" y2="-326.3"/>
			<line class="st0" x1="650.1" y1="-331.2" x2="192.3" y2="-329.3"/>
			<line class="st0" x1="650.3" y1="-334.2" x2="192.5" y2="-332.3"/>
			<line class="st0" x1="650.5" y1="-337.1" x2="192.7" y2="-335.2"/>
			<line class="st0" x1="650.7" y1="-340.1" x2="192.9" y2="-338.2"/>
			<line class="st0" x1="650.9" y1="-343.1" x2="193.1" y2="-341.2"/>
			<line class="st0" x1="651.1" y1="-346.1" x2="193.4" y2="-344.2"/>
			<line class="st0" x1="651.3" y1="-349.1" x2="193.6" y2="-347.2"/>
			<line class="st0" x1="651.5" y1="-352.1" x2="193.8" y2="-350.2"/>
			<line class="st0" x1="651.8" y1="-355.1" x2="194" y2="-353.2"/>
		</g>
	</g>
	<g>
		<g transform="translate(536,536) rotate(-2.442) translate(-536,26)">
			<line class="st0" x1="654.5" y1="-300" x2="209.5" y2="-341.4"/>
			<line class="st0" x1="655" y1="-302.9" x2="210" y2="-344.4"/>
			<line class="st0" x1="655.5" y1="-305.9" x2="210.5" y2="-347.3"/>
			<line class="st0" x1="656" y1="-308.8" x2="211" y2="-350.3"/>
			<line class="st0" x1="656.5" y1="-311.8" x2="211.5" y2="-353.2"/>
			<line class="st0" x1="657.1" y1="-314.7" x2="212" y2="-356.2"/>
			<line class="st0" x1="657.6" y1="-317.7" x2="212.5" y2="-359.1"/>
			<line class="st0" x1="658.1" y1="-320.6" x2="213.1" y2="-362.1"/>
			<line class="st0" x1="658.6" y1="-323.6" x2="213.6" y2="-365"/>
			<line class="st0" x1="659.1" y1="-326.6" x2="214.1" y2="-368"/>
			<line class="st0" x1="659.6" y1="-329.5" x2="214.6" y2="-370.9"/>
			<line class="st0" x1="660.1" y1="-332.5" x2="215.1" y2="-373.9"/>
			<line class="st0" x1="660.6" y1="-335.4" x2="215.6" y2="-376.9"/>
			<line class="st0" x1="661.1" y1="-338.4" x2="216.1" y2="-379.8"/>
			<line class="st0" x1="661.6" y1="-341.3" x2="216.6" y2="-382.8"/>
			<line class="st0" x1="662.2" y1="-344.3" x2="217.1" y2="-385.7"/>
			<line class="st0" x1="662.7" y1="-347.2" x2="217.6" y2="-388.7"/>
			<line class="st0" x1="663.2" y1="-350.2" x2="218.2" y2="-391.6"/>
			<line class="st0" x1="663.7" y1="-353.1" x2="218.7" y2="-394.6"/>
			<line class="st0" x1="664.2" y1="-356.1" x2="219.2" y2="-397.5"/>
			<line class="st0" x1="664.7" y1="-359.1" x2="219.7" y2="-400.5"/>
		</g>
	</g>
</g>
<g id="Layer_5">
	<path class="st1" d="M0,0v822h822V0H0z"/>
</g>
</svg>
