<?xml version="1.0" encoding="utf-8"?>
<!-- Generator: Adobe Illustrator 22.0.0, SVG Export Plug-In . SVG Version: 6.00 Build 0)  -->
<svg version="1.1" xmlns="http://www.w3.org/2000/svg" xmlns:xlink="http://www.w3.org/1999/xlink" x="0px" y="0px"
	 viewBox="0 0 841.9 1190.6" style="enable-background:new 0 0 841.9 1190.6;" xml:space="preserve">
<style type="text/css">
	.st0{fill:#FFFFFF;stroke:#000000;stroke-miterlimit:10;}
	.st1{fill:none;stroke:#1B1464;stroke-miterlimit:10;}
</style>
<g id="Layer_2">
	<rect class="st0" width="822" height="822"/>
</g>
<g id="Layer_4">
</g>
<g id="Layer_3">
	<g>
		<g transform="translate(536,536) rotate(-0.2941) translate(-536,264)">
			<path class="st1" d="M518.6-4.6c-91,0-183,1.5-274.3,0.5"/>
		</g>
		<g transform="translate(536,536) rotate(-0.2941) translate(-536,264)">
			<path class="st1" d="M524.3-8.1C429.7-8.5,334.7-9,239.8-7"/>
			<path class="st1" d="M528.1-10.8C429.7-10.5,331.7-12,233.9-10"/>
			<path class="st1" d="M532.1-14.2c-101.4,0.7-202.4,0.2-302.9,1.3"/>
			<path class="st1" d="M536.9-17.3c-104.1,0.7-209.1,0.2-312.9,1.3"/>
			<path class="st1" d="M539.7-19.6c-107,1-213-0.5-320.4,0.6"/>
			<path class="st1" d="M544.6-22.6c-109.8,1.1-218.8-0.5-329.2,0.7"/>
			<path class="st1" d="M549.6-25.6c-112.8,1.1-225.8-0.5-339,0.7"/>
			<path class="st1" d="M555.1-29.1c-116.3-0.4-232.3,1-348.4,1.2"/>
			<path class="st1" d="M558.7-32.1c-118.9-0.4-238.9,1-357.4,1.3"/>
			<path class="st1" d="M564.2-35.1c-122.4-0.3-244.4,1-366.2,1.3"/>
			<path class="st1" d="M567.8-38.2c-125-0.3-250,1-374.6,1.3"/>
			<path class="st1" d="M574.1-41.2c-128.2-0.3-256.2,1.1-384.7,1.4"/>
			<path class="st1" d="M579.3-44.2c-131.5-0.2-263.5,1.1-394.3,1.4"/>
			<path class="st1" d="M583.9-47.2c-134-0.2-269,2.1-402.7,1.4"/>
			<path class="st1" d="M589.4-50.2c-136.5,0.8-274.5,1.1-411.4,1.5"/>
			<path class="st1" d="M594.2-52.9c-140.2-0.6-280.3,0.7-420.1,1.1"/>
			<path class="st1" d="M599.7-56.2c-142.8-0.2-285.8,2-429,1.4"/>
			<path class="st1" d="M375.9-58.5c-70,1.3-139-0.1-208.7,0.4"/>
			<path class="st1" d="M605.2-59.5c-49.3-0.4-97.3-0.6-146.6,0.8"/>
			<path class="st1" d="M360-61.4c-66,1.2-131-0.2-197,0.4"/>
			<path class="st1" d="M609.5-62.2c-44.5,1.4-89.5,0.1-134.6,0.4"/>
			<path class="st1" d="M348.9-64.4c-63-0.9-126,0.8-188.6,0.6"/>
			<path class="st1" d="M614.8-65.4c-42.9,1.6-86.9,0.3-130,0.5"/>
			<path class="st1" d="M340-67.3c-61-1-122,0.7-182.7,0.6"/>
			<path class="st1" d="M619-68.4c-42,0.6-83,0.4-124.9,0.5"/>
			<path class="st1" d="M331.8-70.3c-58.8-1-118.8,0.7-177.6,0.5"/>
			<path class="st1" d="M623.2-71.2C582-69.8,542-71,500.8-70.9"/>
			<path class="st1" d="M326.1-73.3c-58-1.1-117.1,0.6-174.7,0.5"/>
			<path class="st1" d="M628.3-74.2c-40.2,0.5-81.2,0.3-121.4,0.3"/>
			<path class="st1" d="M320-76.3c-57-1.1-115,0.6-172.1,0.5"/>
			<path class="st1" d="M633-77.5c-40-1.2-80,0.6-120.2,0.6"/>
			<path class="st1" d="M315-79.3c-56.9-1.2-112.9,0.5-170.2,0.5"/>
			<path class="st1" d="M638.5-80.5c-40.4-1.2-79.4,0.6-119.3,0.5"/>
			<path class="st1" d="M310.9-82.2c-55.9-1.2-112.9,0.5-169.2,0.5"/>
			<path class="st1" d="M642.3-83.5c-40.2-1.1-79.2,0.7-119.1,0.5"/>
			<path class="st1" d="M307.9-85.2c-55.9-1.2-112.9,0.5-169.1,0.5"/>
			<path class="st1" d="M646.1-86.2c-39.1,0.6-79,0.4-118.1,0.2"/>
			<path class="st1" d="M304-88.2c-55.9-1.3-111.9,0.5-168.1,0.5"/>
			<path class="st1" d="M650.8-89.2c-38.7-0.4-78.8,1.4-117.5,0.2"/>
			<path class="st1" d="M300-91.2c-55.9-1.3-110.9,0.4-167.1,0.5"/>
			<path class="st1" d="M655.4-92.1c-39.3-1.5-79.3,0.3-118.2,0"/>
			<path class="st1" d="M297-94.2c-54.9-1.3-110.9,0.4-166.2,0.5"/>
			<path class="st1" d="M660.1-95.3c-40-0.3-80,1.5-120,0.2"/>
			<path class="st1" d="M292.8-97.2c-54.6,0.7-110.6,0.4-165.7,0.5"/>
			<path class="st1" d="M665.3-98.5c-40.2,0-81.2-0.2-121,0.4"/>
			<path class="st1" d="M289.8-100.2c-54.7,0.6-109.7,0.3-164.8,0.5"/>
			<path class="st1" d="M669.2-101.5c-40,0-80-0.2-119.7,0.4"/>
			<path class="st1" d="M285.9-103.2c-54.8,0.6-108.8,0.3-164.1,0.5"/>
			<path class="st1" d="M674.8-104.5c-40.6,0-81.6-0.2-122.5,0.4"/>
			<path class="st1" d="M283-106.1c-54.8,1.6-108.8-0.7-164,0.5"/>
			<path class="st1" d="M679.5-107.5c-41.3,0-83.3-0.2-124.1,0.4"/>
			<path class="st1" d="M279.8-109.1c-54.6,1.5-108.6-0.7-163.6,0.5"/>
			<path class="st1" d="M684.3-110.5c-42.1,0.1-85.1-0.2-126.9,0.4"/>
			<path class="st1" d="M275.9-112.1c-53.7,1.5-108.7-0.8-162.5,0.5"/>
			<path class="st1" d="M689.2-113.5c-43,0.1-86-0.1-128.7,0.4"/>
			<path class="st1" d="M273.1-115.1c-53.8,1.5-108.8-0.8-163.1,0.5"/>
			<path class="st1" d="M694.7-116.5c-44.5,0.1-87.5-1.1-131.4,0.4"/>
			<path class="st1" d="M269.9-118.1c-53.7,1.5-108.6-0.8-162.7,0.5"/>
			<path class="st1" d="M700.4-119.6c-45.1,0.2-89.1-1.1-133.9,0.4"/>
			<path class="st1" d="M267-121.1c-53.8,1.4-108.8-0.8-162.7,0.5"/>
			<path class="st1" d="M704.9-122.3c-45.7,0.9-90.7-1.3-136.4,0.1"/>
			<path class="st1" d="M263.9-124.1c-53.6,1.4-107.6-0.9-161.6,0.5"/>
			<path class="st1" d="M709.5-125.4c-46.2,1-93.2-1.2-139.1,0.2"/>
			<path class="st1" d="M261.1-127.1c-53.8,2.4-107.8-1.9-161.6,0.5"/>
			<path class="st1" d="M713.7-128.4c-47.4,1.1-94.4-1.2-141.1,0.2"/>
			<path class="st1" d="M258-130.1c-53.7,2.4-107.7-1.9-161.3,0.5"/>
			<path class="st1" d="M718.5-131.5c-48.2,1.2-95.2-2.1-142.9,0.3"/>
			<path class="st1" d="M254.9-133c-53.6,2.3-106.5-1.9-160.3,0.6"/>
			<path class="st1" d="M722.1-134.6c-47.8,2.3-96.8-2-144.7,0.4"/>
			<path class="st1" d="M252.1-136c-52.8,1.3-104.8-1-158.2,0.6"/>
			<path class="st1" d="M726.2-137.7c-48.9,2.4-98.9-1.9-147.6,0.5"/>
			<path class="st1" d="M249-139c-51.7,1.3-102.7-1-155.1,0.5"/>
			<path class="st1" d="M728.3-140.7c-49,1.5-98.9-0.8-147.8,0.5"/>
			<path class="st1" d="M246.9-142c-50.5,1.3-101.5-1-153,0.5"/>
			<path class="st1" d="M728.3-143.7c-48.9,1.5-97.9-0.8-146.6,0.5"/>
			<path class="st1" d="M243.9-145c-50.5,1.2-99.5-1-149.9,0.5"/>
			<path class="st1" d="M728.3-146.7c-47.9,1.5-96.9-0.8-144.8,0.5"/>
			<path class="st1" d="M242.1-148c-48.7,0.2-98.7,0-148.1,0.5"/>
			<path class="st1" d="M728.3-149.7c-47.9,1.5-95.9-0.8-143.6,0.5"/>
			<path class="st1" d="M239.1-151c-47.6,0.2-96.6,0-145.1,0.5"/>
			<path class="st1" d="M728.3-152.7c-47.9,1.5-94.9-0.8-142.7,0.5"/>
			<path class="st1" d="M237-154c-47.5,0.2-94.5,0-143,0.5"/>
			<path class="st1" d="M728.3-155.7c-46.9,1.5-93.9-0.8-140.7,0.5"/>
			<path class="st1" d="M234.9-157c-47.4,0.2-94.4-0.1-141,0.5"/>
			<path class="st1" d="M728.3-158.7c-46.9,1.5-92.9-0.8-139.8,0.5"/>
			<path class="st1" d="M233.1-160c-46.7,0.2-92.7-0.1-139.2,0.5"/>
			<path class="st1" d="M728.3-161.7c-45.9,0.5-92.9,0.2-138.6,0.5"/>
			<path class="st1" d="M231.1-163c-45.6,0.2-91.6-0.1-137.1,0.5"/>
			<path class="st1" d="M728.3-164.7c-45.9,0.5-91.9,0.2-137.7,0.5"/>
			<path class="st1" d="M230.2-166c-45.7,0.2-90.7-0.1-136.2,0.5"/>
			<path class="st1" d="M728.3-167.7c-44.8,0.5-90.8,0.2-135.7,0.5"/>
			<path class="st1" d="M228.1-169c-44.6,0.1-89.6-0.1-134.2,0.5"/>
			<path class="st1" d="M728.3-170.7c-44.8,0.5-89.8,0.2-134.5,0.5"/>
			<path class="st1" d="M226.1-171.9c-43.6,0.1-88.6-0.1-132.2,0.5"/>
			<path class="st1" d="M728.4-173.7c-44.8,0.5-88.8,0.3-133.6,0.5"/>
			<path class="st1" d="M224.9-174.9c-44.4,0.1-87.4-0.1-131,0.5"/>
			<path class="st1" d="M728.4-176.7c-44.8,0.5-88.8,0.3-133.6,0.5"/>
			<path class="st1" d="M223.2-177.9c-42.7,0.1-86.7-0.1-129.3,0.5"/>
			<path class="st1" d="M728.4-179.7c-43.8,0.5-88.8,0.3-132.4,0.5"/>
			<path class="st1" d="M221.2-180.9c-42.6,0.1-84.6-0.1-127.2,0.5"/>
			<path class="st1" d="M728.4-182.7c-43.8,0.5-87.8,0.3-131.6,0.5"/>
			<path class="st1" d="M220.1-183.9c-42.5-0.9-84.5,0.9-126.1,0.4"/>
			<path class="st1" d="M728.4-185.7c-43.8,0.5-87.8,0.3-131.6,0.5"/>
			<path class="st1" d="M219.2-186.9c-41.6-0.9-83.6,0.9-125.2,0.4"/>
			<path class="st1" d="M728.4-188.7c-43.8,0.5-86.8,0.3-130.4,0.5"/>
			<path class="st1" d="M218.1-189.9c-41.4-0.9-83.5,0.9-124.1,0.4"/>
			<path class="st1" d="M728.4-191.7c-43.7,0.5-86.7,0.3-130.4,0.5"/>
			<path class="st1" d="M216.1-192.9c-41.5,0.1-81.5-0.2-122.1,0.4"/>
			<path class="st1" d="M728.4-194.7c-42.7,0.5-86.7,0.3-129.5,0.5"/>
			<path class="st1" d="M215.2-195.9c-40.6,0.1-80.6-0.2-121.3,0.4"/>
			<path class="st1" d="M728.4-197.7c-42.7,0.5-86.7,0.3-129.5,0.5"/>
			<path class="st1" d="M214.1-198.9c-40.5-1-80.5,0.8-120.1,0.4"/>
			<path class="st1" d="M728.4-200.7c-42.7,0.5-86.7,0.3-129.5,0.5"/>
			<path class="st1" d="M213.3-201.9c-39.6-1-79.6,0.8-119.3,0.4"/>
			<path class="st1" d="M728.4-203.7c-42.7,0.5-86.7,0.3-129.5,0.5"/>
			<path class="st1" d="M212.2-204.9c-39.5-1-79.5,0.8-118.2,0.4"/>
			<path class="st1" d="M728.4-206.7c-42.7,0.5-85.7,0.3-128.4,0.5"/>
			<path class="st1" d="M211.3-207.9c-38.6-1-78.6,0.8-117.3,0.4"/>
			<path class="st1" d="M728.4-209.7c-42.7,0.5-85.7,0.3-128.4,0.5"/>
			<path class="st1" d="M210.2-210.9c-39.5-1-77.5,0.8-116.2,0.4"/>
			<path class="st1" d="M728.4-212.7c-42.7,0.5-85.7,0.3-128.4,0.5"/>
			<path class="st1" d="M209.1-213.9c-38.4-1-77.4,0.8-115.1,0.4"/>
			<path class="st1" d="M728.4-215.7c-42.6,0.5-85.6,0.3-128.4,0.5"/>
			<path class="st1" d="M208.3-216.9c-37.5-1-76.5,0.8-114.3,0.4"/>
			<path class="st1" d="M728.4-218.7c-42.6,0.5-85.6,0.3-128.4,0.5"/>
			<path class="st1" d="M207.2-219.9c-38.4-1-75.4,0.8-113.2,0.4"/>
			<path class="st1" d="M728.4-221.7c-42.6,0.5-84.6,0.3-127.2,0.5"/>
			<path class="st1" d="M207.2-222.9c-38.4-1-75.4,0.8-113.2,0.4"/>
			<path class="st1" d="M728.4-224.7c-42.6,0.5-84.6,0.3-127.2,0.5"/>
			<path class="st1" d="M206.4-225.9c-37.6-1-74.6,0.8-112.4,0.4"/>
			<path class="st1" d="M728.4-227.7c-42.6,0.5-84.6,0.3-127.2,0.5"/>
			<path class="st1" d="M205.3-228.9c-37.4-1-74.5,0.8-111.3,0.4"/>
			<path class="st1" d="M728.4-230.7c-42.6,0.5-84.6,0.3-127.2,0.5"/>
			<path class="st1" d="M204.2-231.9c-37.3-1-73.4,0.8-110.2,0.4"/>
			<path class="st1" d="M728.4-233.7c-41.6,0.5-84.6,0.3-126.4,0.4"/>
			<path class="st1" d="M204.2-234.9c-37.3-1-73.3,0.8-110.2,0.4"/>
			<path class="st1" d="M728.4-236.7c-41.6,0.5-84.6,0.3-126.4,0.4"/>
			<path class="st1" d="M203.4-237.9c-36.5-1-72.5,0.8-109.4,0.4"/>
			<path class="st1" d="M728.4-239.7c-41.5,0.5-84.5,0.3-126.4,0.4"/>
			<path class="st1" d="M202.3-240.9c-36.4-1-72.4,0.8-108.3,0.4"/>
			<path class="st1" d="M728.4-242.7c-41.5,0.5-84.5,0.3-126.1,0.4"/>
			<path class="st1" d="M202.3-243.9c-36.4-1-72.4,0.8-108.3,0.4"/>
			<path class="st1" d="M728.4-245.7c-41.5,0.5-83.5,0.3-125.2,0.4"/>
			<path class="st1" d="M201.5-246.9c-35.6-1-71.6,0.8-107.5,0.4"/>
			<path class="st1" d="M728.4-248.7c-41.5,0.5-83.5,0.3-125.2,0.4"/>
			<path class="st1" d="M200.4-249.9c-35.5-1.1-71.5,0.8-106.4,0.4"/>
			<path class="st1" d="M728.4-251.7c-42.5,0.5-83.5,0.3-125.2,0.4"/>
			<path class="st1" d="M200.4-252.9c-35.5-1.1-71.5,0.8-106.4,0.4"/>
			<path class="st1" d="M728.4-254.7c-42.5,0.5-83.5,0.3-125.2,0.4"/>
			<path class="st1" d="M199.3-255.8c-35.4-1.1-70.4,0.8-105.3,0.4"/>
			<path class="st1" d="M728.4-257.7c-42.5,0.5-83.5,0.3-125.2,0.4"/>
			<path class="st1" d="M199.3-258.8c-35.4-1.1-70.4,0.8-105.3,0.4"/>
			<path class="st1" d="M728.4-260.7c-42.5,0.5-83.5,0.3-125.2,0.4"/>
			<path class="st1" d="M198.5-261.8c-34.5-1.1-69.6,0.8-104.5,0.4"/>
			<path class="st1" d="M728.4-263.7c-41.4,0.5-83.4,0.3-124.1,0.4"/>
			<path class="st1" d="M198.5-264.8c-34.5-1.1-69.5,0.8-104.5,0.4"/>
			<path class="st1" d="M728.4-266.7c-41.4,0.5-83.4,0.3-124.1,0.4"/>
			<path class="st1" d="M198.5-267.8c-34.5-1.1-69.5,0.8-104.5,0.4"/>
			<path class="st1" d="M728.4-269.7c-41.4,0.5-83.4,0.3-124.1,0.4"/>
			<path class="st1" d="M197.5-270.8c-34.4-1.1-69.4,0.7-103.4,0.4"/>
			<path class="st1" d="M728.4-272.7c-41.4,0.5-83.4,0.3-124.1,0.4"/>
			<path class="st1" d="M197.5-273.8c-34.4-1.1-69.4,0.7-103.4,0.4"/>
			<path class="st1" d="M728.5-275.7c-41.4,0.5-83.4,0.3-124.1,0.4"/>
			<path class="st1" d="M197.5-276.8c-34.4-1.1-69.4,0.7-103.4,0.4"/>
			<path class="st1" d="M728.5-278.7c-41.4,0.5-83.4,0.3-124.1,0.4"/>
			<path class="st1" d="M196.4-279.8c-34.3-1.1-68.3,0.7-102.4,0.4"/>
			<path class="st1" d="M728.5-281.7c-41.4,0.5-83.4,0.3-124.1,0.4"/>
			<path class="st1" d="M196.4-282.8c-34.3-1.1-68.3,0.7-102.4,0.4"/>
			<path class="st1" d="M728.5-284.7c-41.4,0.5-83.4,0.3-124.1,0.4"/>
			<path class="st1" d="M196.4-285.8c-34.3-1.1-68.3,0.7-102.4,0.4"/>
			<path class="st1" d="M728.5-287.7c-42.3,0.5-83.3,0.3-125,0.4"/>
			<path class="st1" d="M196.7-288.8c-33.6-1.1-68.6,0.7-102.6,0.4"/>
			<path class="st1" d="M728.5-290.7c-42.3,0.5-83.3,0.3-125,0.4"/>
			<path class="st1" d="M195.6-291.8c-34.5-1.1-67.5,0.7-101.6,0.4"/>
			<path class="st1" d="M728.5-293.7c-42.3,0.5-83.3,0.3-125,0.4"/>
			<path class="st1" d="M195.6-294.8c-34.5-1.1-67.5,0.7-101.6,0.4"/>
			<path class="st1" d="M728.5-296.7c-42.3,0.5-84.3,0.3-126.1,0.4"/>
			<path class="st1" d="M195.6-297.8c-34.5-1.1-67.5,0.7-101.6,0.4"/>
			<path class="st1" d="M728.5-299.7c-42.3,0.5-84.3,0.3-126.1,0.4"/>
			<path class="st1" d="M195.6-300.8c-34.4-1.1-67.5,0.7-101.6,0.4"/>
			<path class="st1" d="M728.5-302.7c-42.3,0.5-85.3,0.3-127,0.4"/>
			<path class="st1" d="M195.6-303.8c-34.4-1.1-67.4,0.7-101.6,0.4"/>
			<path class="st1" d="M728.5-305.7c-43.3,0.5-85.3,0.3-128.1,0.5"/>
			<path class="st1" d="M195.6-306.8c-34.4-1.1-67.4,0.7-101.6,0.4"/>
			<path class="st1" d="M728.5-308.7c-43.3,0.5-86.3,0.3-129,0.5"/>
			<path class="st1" d="M195.6-309.8c-34.4-1.1-67.4,0.7-101.6,0.4"/>
			<path class="st1" d="M728.5-311.7c-43.2,0.5-87.2,0.3-129.8,0.5"/>
			<path class="st1" d="M195.7-312.8c-34.4-1.1-67.4,0.7-101.6,0.4"/>
			<path class="st1" d="M728.5-314.7c-44.2,0.5-88.2,0.3-131.9,0.5"/>
		</g>
	</g>
	<g>
		<g transform="translate(536,536) rotate(-2.442) translate(-536,26)">
			<path class="st1" d="M600.7-341.6c-109-5.6-217.8-13.2-327-19.1"/>
			<path class="st1" d="M595.9-344.8C489.8-350.3,385-357.7,279-363.4"/>
			<path class="st1" d="M590.7-348.1c-101.8-6.2-203.6-12.5-305.8-18"/>
			<path class="st1" d="M583.5-351.5c-97.4-6.9-196.3-11.1-293.7-17.3"/>
			<path class="st1" d="M575-355c-93.7-7.6-187.7-9.6-281.2-16.4"/>
			<path class="st1" d="M565-358.6c-88.7-4.3-176.5-10-265-15.6"/>
			<path class="st1" d="M553.2-362.2c-82.7-3.9-166.6-9.4-249.3-14.6"/>
			<path class="st1" d="M542.1-365.9c-77.5-3.5-155.4-7.8-233.5-13.7"/>
			<path class="st1" d="M534-369.3c-73.4-3.2-147.2-9.3-220.2-13.2"/>
			<path class="st1" d="M525.6-372.8c-68.8-2.9-137.6-8.8-206.7-12.2"/>
			<path class="st1" d="M518.5-376.2c-64.4-4.6-128.3-8.3-192.9-11.5"/>
			<path class="st1" d="M513.3-379.5c-61.2-4.4-122.1-8-183.4-10.9"/>
			<path class="st1" d="M506.2-382.9c-56.9-4.1-114.8-7.6-171.9-10.3"/>
			<path class="st1" d="M498.9-386.3c-52.4-3.9-105.4-6.1-158.5-9.5"/>
			<path class="st1" d="M491.1-389.7c-48.5-4.6-97.5-4.7-146.8-8.5"/>
			<path class="st1" d="M481.8-393.3c-44.1-2.3-89.1-4.2-133.1-7.7"/>
			<path class="st1" d="M473.8-396.7c-40-2-79.9-4.7-119.8-7.2"/>
			<path class="st1" d="M469.5-399.9c-36.6-1.8-74.5-4.4-111.8-6.7"/>
		</g>
	</g>
	<g>
		<g transform="translate(536,536) rotate(-2.442) translate(-536,26)">
			<path class="st1" d="M677.6-208.4"/>
			<path class="st1" d="M677.7-211.4"/>
			<path class="st1" d="M677.7-214.4"/>
			<path class="st1" d="M677.7-217.4"/>
			<path class="st1" d="M677.8-220.4"/>
			<path class="st1" d="M677.8-223.4"/>
			<path class="st1" d="M677.9-226.4"/>
			<path class="st1" d="M677.9-229.4"/>
			<path class="st1" d="M677.9-232.4"/>
			<path class="st1" d="M678-235.4"/>
			<path class="st1" d="M678-238.4"/>
			<line class="st1" x1="678.3" y1="-256.4" x2="139.4" y2="-233.6"/>
			<path class="st1" d="M677-259.3c-2.5,0.1-5,0.2-7.5,0.3c-4.6,0.2-9.1,0.4-13.7,0.6c-6.4,0.3-12.8,0.5-19.1,0.8
				c-8,0.3-16,0.7-24,1c-9.3,0.4-18.7,0.8-28,1.2c-10.5,0.4-21,0.9-31.4,1.3c-11.4,0.5-22.9,1-34.3,1.4c-12.1,0.5-24.1,1-36.2,1.5
				c-12.5,0.5-25,1.1-37.5,1.6c-12.8,0.5-25.6,1.1-38.4,1.6c-12.7,0.5-25.4,1.1-38.2,1.6c-12.5,0.5-25.1,1.1-37.6,1.6
				c-12,0.5-24,1-36,1.5c-11.3,0.5-22.6,1-33.9,1.4c-10.4,0.4-20.8,0.9-31.2,1.3c-9.2,0.4-18.4,0.8-27.6,1.2
				c-7.9,0.3-15.7,0.7-23.6,1c-6.2,0.3-12.4,0.5-18.6,0.8c-4.3,0.2-8.7,0.4-13,0.5c-2.3,0.1-4.5,0.2-6.8,0.3c-0.3,0-0.6,0-0.8,0"/>
			<path class="st1" d="M675.2-262.2c-178.4,7.3-357,15.7-535.7,22.6"/>
			<path class="st1" d="M674-265.2c-178.1,6.3-355.6,15.7-534.5,22.5"/>
			<path class="st1" d="M672.1-268.1c-177.1,8.1-354.6,14.6-532.6,22.5"/>
			<path class="st1" d="M670.1-271c-177,6-353.6,16.4-530.6,22.4"/>
			<path class="st1" d="M669-274c-176.8,6.9-353.3,15.4-529.4,22.3"/>
			<path class="st1" d="M667.1-276.9c-129.7,5.7-257,11.3-387.4,16.7c-31.1,0.7-61.2,2.4-92.2,3.1c-12.1,1.5-24.1,1-37.1,2.4
				c-4-0.2-7-0.3-10.8,0"/>
			<path class="st1" d="M665.2-279.8c-175.7,6.6-350.3,16.2-525.5,22.2"/>
			<path class="st1" d="M663.3-282.7c-174.7,7.5-349.2,15-523.6,22.1"/>
			<path class="st1" d="M661.4-285.6c-173.7,7.3-346.2,16-519.5,21.9"/>
			<path class="st1" d="M659.5-288.5c-171.7,8.3-343.1,14-514.8,21.7"/>
			<path class="st1" d="M656.8-291.4c-10.4-0.1-19.4,1.5-29.5,2.1c-161.4,5.1-319.9,13.4-480.5,19.6"/>
			<path class="st1" d="M654.5-294.3c-168.4,7-335.8,12.8-504.2,21.3"/>
			<path class="st1" d="M651.9-297.2c-166.6,5.8-332.2,15.8-498.7,21.1"/>
			<path class="st1" d="M648.7-300.1c-164.4,7.6-327.8,14.7-492,20.8"/>
			<path class="st1" d="M646.1-303c-162.6,5.5-324,12.6-486,20.5"/>
			<path class="st1" d="M643.6-305.8c-160.1,7.4-320.4,12.5-480.5,20.2"/>
			<path class="st1" d="M641-308.7c-158.3,7.2-316.8,13.5-475.2,20"/>
			<path class="st1" d="M637.6-311.6c-155.8,8-312.1,11.4-467.6,19.5"/>
			<path class="st1" d="M634.6-314.5c-153.6,5.9-308,12.3-461.8,19.4"/>
			<path class="st1" d="M632-317.3c-151.9,5.7-304.3,12.2-455.7,19.1"/>
			<path class="st1" d="M628.9-320.2c-149.7,7.5-299,11.2-448.3,18.8"/>
		</g>
	</g>
	<g>
		<g transform="translate(536,536) rotate(-2.442) translate(-536,26)">
			<path class="st1" d="M581.5,88.9c26.7-0.8,52.7-0.6,79.8-1.4"/>
			<path class="st1" d="M155.9,96.6c32.6-1.3,63.6-0.9,95.3-1.7"/>
			<path class="st1" d="M579.3,92c26.7-0.9,54.8-0.7,82.2-1.5"/>
			<path class="st1" d="M156.2,99.6c32.2-1.2,65.3-1.8,97-1.7"/>
			<path class="st1" d="M578,95c27.9,0.1,56-1.7,83.8-1.5"/>
			<path class="st1" d="M156.4,102.5c32.8-1.2,66.9-1.7,99.6-1.8"/>
			<path class="st1" d="M576.1,98c28.7,0,56.8-1.8,86-1.5"/>
			<path class="st1" d="M156.7,105.5c34.5-2.1,68.4,0.3,102.2-1.8"/>
			<path class="st1" d="M575,101c28.7,0,58.8-1.7,87.3-1.6"/>
			<path class="st1" d="M156.9,108.5c35.1-1.1,70.1-0.6,105-1.9"/>
			<path class="st1" d="M572.7,104.1c29.8-0.1,59.9-1.8,89.8-1.6"/>
			<path class="st1" d="M157.1,111.5c35.7-1,71.8-1.5,107.7-1.9"/>
			<path class="st1" d="M570.5,107.1c30.9-0.2,61-1.9,92.3-1.7"/>
			<path class="st1" d="M157.4,114.5c37.3,1.1,73.4-2.4,110.3-2"/>
			<path class="st1" d="M568.5,110.1c31.8-1.3,62.8-0.9,94.5-1.7"/>
			<path class="st1" d="M157.6,117.5c36.9,1.1,75.1-2.3,111.8-2"/>
			<path class="st1" d="M565.4,113.2c32.8-0.4,64.9-2,97.9-1.8"/>
			<path class="st1" d="M157.9,120.5c37.5,1.2,76.7-3.2,114.5-2.1"/>
			<path class="st1" d="M563,116.2c33-0.5,67.1-2.1,100.4-1.8"/>
			<path class="st1" d="M158.1,123.5c39.2,0.2,79.3-1,118.1-2.1"/>
			<path class="st1" d="M561,119.2c33.9-0.6,69-2.1,102.7-1.8"/>
			<path class="st1" d="M158.4,126.4c39.8,0.3,81-2,120.8-2.2"/>
			<path class="st1" d="M557.8,122.3c35,0.3,71.1-2.2,106.2-1.9"/>
			<path class="st1" d="M158.6,129.4c41.5,0.4,82.6-1.9,124.1-2.2"/>
			<path class="st1" d="M554.8,125.3c35.8,0.1,72.9-2.3,109.4-2"/>
			<path class="st1" d="M158.8,132.4c42.1-0.6,84.2-1.8,126-2.3"/>
			<path class="st1" d="M551.5,128.4c38-1,75.1-2.4,113-2"/>
			<path class="st1" d="M159.1,135.4c42.8-0.5,85.9-2.7,128.7-2.3"/>
			<path class="st1" d="M549.3,131.4c38-1.1,77.1-1.4,115.4-2.1"/>
			<path class="st1" d="M159.3,138.4c44.4-1.4,88.5-1.5,132.5-2.4"/>
			<path class="st1" d="M545.4,134.5c39.9-1.2,80-2.5,119.6-2.1"/>
			<path class="st1" d="M159.6,141.4c45-0.4,90.1-1.4,135-2.4"/>
			<path class="st1" d="M542.3,137.5c40.8-0.4,82-2.6,122.9-2.2"/>
			<path class="st1" d="M159.8,144.4c45.6-0.3,91.7-1.3,137.8-2.5"/>
			<path class="st1" d="M537.9,140.6c42.1-0.6,85.1-1.7,127.5-2.3"/>
			<path class="st1" d="M160.1,147.4c47.3-0.2,94.4-2.2,141.3-2.5"/>
		</g>
	</g>
</g>
</svg>
