<?xml version="1.0" encoding="utf-8"?>
<!-- Generator: Adobe Illustrator 22.0.0, SVG Export Plug-In . SVG Version: 6.00 Build 0)  -->
<svg version="1.1" xmlns="http://www.w3.org/2000/svg" xmlns:xlink="http://www.w3.org/1999/xlink" x="0px" y="0px"
	 viewBox="0 0 841.9 1190.6" style="enable-background:new 0 0 841.9 1190.6;" xml:space="preserve">
<style type="text/css">
	.st0{fill:#FFFFFF;stroke:#000000;stroke-miterlimit:10;}
	.st1{fill:none;stroke:#93278F;stroke-miterlimit:10;}
</style>
<g id="Layer_1">
	<rect class="st0" width="822" height="590.9"/>
</g>
<g id="Layer_2">
	<g>
		<g transform="translate(536,536) rotate(-2.442) translate(-536,26)">
			<line class="st1" x1="204.5" y1="-68.5" x2="662.3" y2="-70.4"/>
			<line class="st1" x1="204.3" y1="-65.5" x2="662.1" y2="-67.4"/>
			<line class="st1" x1="204.1" y1="-62.5" x2="661.9" y2="-64.4"/>
			<line class="st1" x1="203.9" y1="-59.5" x2="661.6" y2="-61.4"/>
			<line class="st1" x1="203.7" y1="-56.5" x2="661.4" y2="-58.4"/>
			<line class="st1" x1="203.4" y1="-53.5" x2="661.2" y2="-55.4"/>
			<line class="st1" x1="203.2" y1="-50.5" x2="661" y2="-52.4"/>
			<line class="st1" x1="203" y1="-47.5" x2="660.8" y2="-49.4"/>
			<line class="st1" x1="202.8" y1="-44.6" x2="660.6" y2="-46.5"/>
			<line class="st1" x1="202.6" y1="-41.6" x2="660.4" y2="-43.5"/>
			<line class="st1" x1="202.4" y1="-38.6" x2="660.2" y2="-40.5"/>
			<line class="st1" x1="202.2" y1="-35.6" x2="659.9" y2="-37.5"/>
			<line class="st1" x1="202" y1="-32.6" x2="659.7" y2="-34.5"/>
			<line class="st1" x1="201.7" y1="-29.6" x2="659.5" y2="-31.5"/>
			<line class="st1" x1="201.5" y1="-26.6" x2="659.3" y2="-28.5"/>
			<line class="st1" x1="201.3" y1="-23.6" x2="659.1" y2="-25.5"/>
			<line class="st1" x1="201.1" y1="-20.6" x2="658.9" y2="-22.5"/>
			<line class="st1" x1="200.9" y1="-17.6" x2="658.7" y2="-19.5"/>
			<line class="st1" x1="200.7" y1="-14.6" x2="658.5" y2="-16.6"/>
			<line class="st1" x1="200.5" y1="-11.7" x2="658.2" y2="-13.6"/>
			<line class="st1" x1="200.3" y1="-8.7" x2="658" y2="-10.6"/>
		</g>
	</g>
	<g transform="translate(379,536) rotate(2.6159) translate(-379,-119)">
		<line class="st1" x1="99.5" y1="-403.9" x2="692.6" y2="-415.2"/>
		<line class="st1" x1="99.6" y1="-401" x2="692.8" y2="-412.2"/>
		<line class="st1" x1="99.7" y1="-398" x2="692.9" y2="-409.2"/>
		<line class="st1" x1="99.8" y1="-395" x2="693" y2="-406.2"/>
		<line class="st1" x1="100" y1="-392" x2="693.1" y2="-403.2"/>
		<line class="st1" x1="100.1" y1="-389" x2="693.3" y2="-400.2"/>
		<line class="st1" x1="100.2" y1="-386" x2="693.4" y2="-397.2"/>
		<line class="st1" x1="100.3" y1="-383" x2="693.5" y2="-394.2"/>
		<line class="st1" x1="100.5" y1="-380" x2="693.6" y2="-391.2"/>
		<line class="st1" x1="100.6" y1="-377" x2="693.8" y2="-388.2"/>
		<line class="st1" x1="100.7" y1="-374" x2="693.9" y2="-385.2"/>
		<line class="st1" x1="100.8" y1="-371" x2="694" y2="-382.2"/>
		<line class="st1" x1="100.9" y1="-368" x2="694.1" y2="-379.2"/>
		<line class="st1" x1="101.1" y1="-365" x2="694.3" y2="-376.2"/>
		<line class="st1" x1="101.2" y1="-362" x2="694.4" y2="-373.2"/>
		<line class="st1" x1="101.3" y1="-359" x2="694.5" y2="-370.2"/>
		<line class="st1" x1="101.4" y1="-356" x2="694.6" y2="-367.2"/>
		<line class="st1" x1="101.6" y1="-353" x2="694.8" y2="-364.2"/>
		<line class="st1" x1="101.7" y1="-350" x2="694.9" y2="-361.2"/>
		<line class="st1" x1="101.8" y1="-347" x2="695" y2="-358.2"/>
		<line class="st1" x1="101.9" y1="-344" x2="695.1" y2="-355.2"/>
		<line class="st1" x1="102.1" y1="-341" x2="695.3" y2="-352.2"/>
		<line class="st1" x1="102.2" y1="-338" x2="695.4" y2="-349.2"/>
		<line class="st1" x1="102.3" y1="-335" x2="695.5" y2="-346.2"/>
		<line class="st1" x1="102.4" y1="-332" x2="695.6" y2="-343.2"/>
		<line class="st1" x1="102.6" y1="-329" x2="695.7" y2="-340.3"/>
		<line class="st1" x1="102.7" y1="-326" x2="695.9" y2="-337.3"/>
		<line class="st1" x1="102.8" y1="-323.1" x2="696" y2="-334.3"/>
		<line class="st1" x1="102.9" y1="-320.1" x2="696.1" y2="-331.3"/>
		<line class="st1" x1="103.1" y1="-317.1" x2="696.2" y2="-328.3"/>
		<line class="st1" x1="103.2" y1="-314.1" x2="696.4" y2="-325.3"/>
		<line class="st1" x1="103.3" y1="-311.1" x2="696.5" y2="-322.3"/>
		<line class="st1" x1="103.4" y1="-308.1" x2="696.6" y2="-319.3"/>
		<line class="st1" x1="103.6" y1="-305.1" x2="696.7" y2="-316.3"/>
		<line class="st1" x1="103.7" y1="-302.1" x2="696.9" y2="-313.3"/>
		<line class="st1" x1="103.8" y1="-299.1" x2="697" y2="-310.3"/>
		<line class="st1" x1="103.9" y1="-296.1" x2="697.1" y2="-307.3"/>
		<line class="st1" x1="104.1" y1="-293.1" x2="697.2" y2="-304.3"/>
		<line class="st1" x1="104.2" y1="-290.1" x2="697.4" y2="-301.3"/>
		<line class="st1" x1="104.3" y1="-287.1" x2="697.5" y2="-298.3"/>
		<line class="st1" x1="104.4" y1="-284.1" x2="697.6" y2="-295.3"/>
		<line class="st1" x1="104.6" y1="-281.1" x2="697.7" y2="-292.3"/>
		<line class="st1" x1="104.7" y1="-278.1" x2="697.9" y2="-289.3"/>
		<line class="st1" x1="104.8" y1="-275.1" x2="698" y2="-286.3"/>
		<line class="st1" x1="104.9" y1="-272.1" x2="698.1" y2="-283.3"/>
		<line class="st1" x1="105.1" y1="-269.1" x2="698.2" y2="-280.3"/>
		<line class="st1" x1="105.2" y1="-266.1" x2="698.4" y2="-277.3"/>
		<line class="st1" x1="105.3" y1="-263.1" x2="698.5" y2="-274.3"/>
		<line class="st1" x1="105.4" y1="-260.1" x2="698.6" y2="-271.3"/>
		<line class="st1" x1="105.6" y1="-257.1" x2="698.7" y2="-268.3"/>
		<line class="st1" x1="105.7" y1="-254.1" x2="698.9" y2="-265.3"/>
		<line class="st1" x1="105.8" y1="-251.1" x2="699" y2="-262.4"/>
		<line class="st1" x1="105.9" y1="-248.1" x2="699.1" y2="-259.4"/>
		<line class="st1" x1="106.1" y1="-245.2" x2="699.2" y2="-256.4"/>
	</g>
</g>
</svg>
