<?xml version="1.0" encoding="utf-8"?>
<!-- Generator: Adobe Illustrator 22.0.0, SVG Export Plug-In . SVG Version: 6.00 Build 0)  -->
<svg version="1.1" xmlns="http://www.w3.org/2000/svg" xmlns:xlink="http://www.w3.org/1999/xlink" x="0px" y="0px"
	 viewBox="0 0 841.9 1190.6" style="enable-background:new 0 0 841.9 1190.6;" xml:space="preserve">
<style type="text/css">
	.st0{fill:#FFFFFF;stroke:#000000;stroke-miterlimit:10;}
	.st1{fill:none;stroke:#662D91;stroke-miterlimit:10;}
</style>
<g id="Layer_1">
	<rect class="st0" width="822" height="590.9"/>
</g>
<g id="Layer_2">
	<g>
		<g>
			<g transform="translate(536,536) rotate(-0.2941) translate(-536,264)">
				<line class="st1" x1="128.5" y1="-705.5" x2="701" y2="-679.7"/>
			</g>
			<g transform="translate(536,536) rotate(-0.2941) translate(-536,264)">
				<line class="st1" x1="128.4" y1="-702.5" x2="700.9" y2="-676.7"/>
				<line class="st1" x1="128.2" y1="-699.5" x2="700.8" y2="-673.7"/>
				<line class="st1" x1="128.1" y1="-696.6" x2="700.6" y2="-670.7"/>
				<line class="st1" x1="128" y1="-693.6" x2="700.5" y2="-667.7"/>
				<line class="st1" x1="127.9" y1="-690.6" x2="700.4" y2="-664.7"/>
				<line class="st1" x1="127.8" y1="-687.6" x2="700.3" y2="-661.7"/>
				<line class="st1" x1="127.6" y1="-684.6" x2="700.2" y2="-658.7"/>
				<line class="st1" x1="127.5" y1="-681.6" x2="700.1" y2="-655.7"/>
				<line class="st1" x1="127.4" y1="-678.6" x2="699.9" y2="-652.7"/>
				<line class="st1" x1="127.3" y1="-675.6" x2="699.8" y2="-649.7"/>
				<line class="st1" x1="127.2" y1="-672.6" x2="699.7" y2="-646.7"/>
				<line class="st1" x1="127.1" y1="-669.6" x2="699.6" y2="-643.7"/>
				<line class="st1" x1="126.9" y1="-666.6" x2="699.5" y2="-640.7"/>
				<line class="st1" x1="126.8" y1="-663.6" x2="699.4" y2="-637.7"/>
				<line class="st1" x1="126.7" y1="-660.6" x2="699.2" y2="-634.7"/>
				<line class="st1" x1="126.6" y1="-657.6" x2="699.1" y2="-631.7"/>
				<line class="st1" x1="126.5" y1="-654.6" x2="699" y2="-628.7"/>
				<line class="st1" x1="126.4" y1="-651.6" x2="698.9" y2="-625.7"/>
				<line class="st1" x1="126.2" y1="-648.6" x2="698.8" y2="-622.8"/>
				<line class="st1" x1="126.1" y1="-645.6" x2="698.6" y2="-619.8"/>
				<line class="st1" x1="126" y1="-642.6" x2="698.5" y2="-616.8"/>
				<line class="st1" x1="125.9" y1="-639.6" x2="698.4" y2="-613.8"/>
				<line class="st1" x1="125.8" y1="-636.6" x2="698.3" y2="-610.8"/>
				<line class="st1" x1="125.6" y1="-633.6" x2="698.2" y2="-607.8"/>
				<line class="st1" x1="125.5" y1="-630.6" x2="698.1" y2="-604.8"/>
				<line class="st1" x1="125.4" y1="-627.6" x2="697.9" y2="-601.8"/>
				<line class="st1" x1="125.3" y1="-624.6" x2="697.8" y2="-598.8"/>
				<line class="st1" x1="125.2" y1="-621.6" x2="697.7" y2="-595.8"/>
				<line class="st1" x1="125.1" y1="-618.6" x2="697.6" y2="-592.8"/>
				<line class="st1" x1="124.9" y1="-615.6" x2="697.5" y2="-589.8"/>
				<line class="st1" x1="124.8" y1="-612.6" x2="697.4" y2="-586.8"/>
				<line class="st1" x1="124.7" y1="-609.6" x2="697.2" y2="-583.8"/>
				<line class="st1" x1="124.6" y1="-606.6" x2="697.1" y2="-580.8"/>
				<line class="st1" x1="124.5" y1="-603.6" x2="697" y2="-577.8"/>
				<line class="st1" x1="124.4" y1="-600.6" x2="696.9" y2="-574.8"/>
				<line class="st1" x1="124.2" y1="-597.6" x2="696.8" y2="-571.8"/>
				<line class="st1" x1="124.1" y1="-594.6" x2="696.6" y2="-568.8"/>
				<line class="st1" x1="124" y1="-591.6" x2="696.5" y2="-565.8"/>
				<line class="st1" x1="123.9" y1="-588.6" x2="696.4" y2="-562.8"/>
				<line class="st1" x1="123.8" y1="-585.6" x2="696.3" y2="-559.8"/>
				<line class="st1" x1="123.6" y1="-582.6" x2="696.2" y2="-556.8"/>
				<line class="st1" x1="123.5" y1="-579.6" x2="696.1" y2="-553.8"/>
				<line class="st1" x1="123.4" y1="-576.6" x2="695.9" y2="-550.8"/>
				<line class="st1" x1="123.3" y1="-573.6" x2="695.8" y2="-547.8"/>
				<line class="st1" x1="123.2" y1="-570.6" x2="695.7" y2="-544.8"/>
				<line class="st1" x1="123.1" y1="-567.7" x2="695.6" y2="-541.8"/>
				<line class="st1" x1="122.9" y1="-564.7" x2="695.5" y2="-538.8"/>
				<line class="st1" x1="122.8" y1="-561.7" x2="695.3" y2="-535.8"/>
				<line class="st1" x1="122.7" y1="-558.7" x2="695.2" y2="-532.8"/>
				<line class="st1" x1="122.6" y1="-555.7" x2="695.1" y2="-529.8"/>
				<line class="st1" x1="122.5" y1="-552.7" x2="695" y2="-526.8"/>
				<line class="st1" x1="122.4" y1="-549.7" x2="694.9" y2="-523.8"/>
				<line class="st1" x1="122.2" y1="-546.7" x2="694.8" y2="-520.8"/>
				<line class="st1" x1="122.1" y1="-543.7" x2="694.6" y2="-517.8"/>
				<line class="st1" x1="122" y1="-540.7" x2="694.5" y2="-514.8"/>
				<line class="st1" x1="121.9" y1="-537.7" x2="694.4" y2="-511.8"/>
				<line class="st1" x1="121.8" y1="-534.7" x2="694.3" y2="-508.8"/>
				<line class="st1" x1="121.6" y1="-531.7" x2="694.2" y2="-505.8"/>
				<line class="st1" x1="121.5" y1="-528.7" x2="694.1" y2="-502.8"/>
				<line class="st1" x1="121.4" y1="-525.7" x2="693.9" y2="-499.8"/>
			</g>
		</g>
		<line class="st1" x1="130" y1="289.4" x2="702.6" y2="312.3"/>
		<line class="st1" x1="129.9" y1="292.4" x2="702.5" y2="315.3"/>
		<line class="st1" x1="129.8" y1="295.4" x2="702.4" y2="318.3"/>
		<line class="st1" x1="129.7" y1="298.4" x2="702.3" y2="321.3"/>
		<line class="st1" x1="129.6" y1="301.4" x2="702.2" y2="324.3"/>
		<line class="st1" x1="129.5" y1="304.4" x2="702.1" y2="327.3"/>
		<line class="st1" x1="129.4" y1="307.4" x2="702" y2="330.3"/>
		<line class="st1" x1="129.3" y1="310.4" x2="701.9" y2="333.3"/>
		<line class="st1" x1="129.2" y1="313.4" x2="701.8" y2="336.3"/>
		<line class="st1" x1="129" y1="316.4" x2="701.7" y2="339.3"/>
		<line class="st1" x1="128.9" y1="319.4" x2="701.6" y2="342.3"/>
		<line class="st1" x1="128.8" y1="322.4" x2="701.5" y2="345.3"/>
		<line class="st1" x1="128.7" y1="325.4" x2="701.4" y2="348.3"/>
		<line class="st1" x1="128.6" y1="328.4" x2="701.3" y2="351.3"/>
		<line class="st1" x1="128.5" y1="331.4" x2="701.2" y2="354.3"/>
		<line class="st1" x1="128.4" y1="334.4" x2="701.1" y2="357.3"/>
		<line class="st1" x1="128.3" y1="337.4" x2="701" y2="360.3"/>
		<line class="st1" x1="128.2" y1="340.4" x2="700.9" y2="363.3"/>
		<line class="st1" x1="128.1" y1="343.4" x2="700.8" y2="366.3"/>
		<line class="st1" x1="128" y1="346.4" x2="700.7" y2="369.3"/>
		<line class="st1" x1="127.9" y1="349.4" x2="700.6" y2="372.3"/>
		<line class="st1" x1="127.8" y1="352.4" x2="700.5" y2="375.3"/>
		<line class="st1" x1="127.7" y1="355.4" x2="700.4" y2="378.3"/>
		<line class="st1" x1="127.6" y1="358.4" x2="700.3" y2="381.3"/>
		<line class="st1" x1="127.5" y1="361.4" x2="700.2" y2="384.3"/>
		<line class="st1" x1="127.4" y1="364.4" x2="700.1" y2="387.3"/>
		<line class="st1" x1="127.3" y1="367.4" x2="700" y2="390.3"/>
		<line class="st1" x1="127.2" y1="370.4" x2="699.9" y2="393.3"/>
		<line class="st1" x1="127.1" y1="373.4" x2="699.8" y2="396.3"/>
		<line class="st1" x1="127" y1="376.4" x2="699.7" y2="399.3"/>
		<line class="st1" x1="126.9" y1="379.4" x2="699.6" y2="402.3"/>
		<line class="st1" x1="126.8" y1="382.4" x2="699.4" y2="405.3"/>
		<line class="st1" x1="126.7" y1="385.4" x2="699.3" y2="408.3"/>
		<line class="st1" x1="126.6" y1="388.4" x2="699.2" y2="411.3"/>
		<line class="st1" x1="126.5" y1="391.4" x2="699.1" y2="414.3"/>
		<line class="st1" x1="126.4" y1="394.4" x2="699" y2="417.3"/>
		<line class="st1" x1="126.3" y1="397.4" x2="698.9" y2="420.3"/>
		<line class="st1" x1="126.2" y1="400.4" x2="698.8" y2="423.3"/>
		<line class="st1" x1="126.1" y1="403.4" x2="698.7" y2="426.3"/>
		<line class="st1" x1="126" y1="406.4" x2="698.6" y2="429.3"/>
		<line class="st1" x1="125.9" y1="409.4" x2="698.5" y2="432.3"/>
		<line class="st1" x1="125.8" y1="412.4" x2="698.4" y2="435.3"/>
		<line class="st1" x1="125.7" y1="415.4" x2="698.3" y2="438.3"/>
	</g>
</g>
</svg>
