<?xml version="1.0" encoding="utf-8"?>
<!-- Generator: Adobe Illustrator 22.0.0, SVG Export Plug-In . SVG Version: 6.00 Build 0)  -->
<svg version="1.1" xmlns="http://www.w3.org/2000/svg" xmlns:xlink="http://www.w3.org/1999/xlink" x="0px" y="0px"
	 viewBox="0 0 841.9 1190.6" style="enable-background:new 0 0 841.9 1190.6;" xml:space="preserve">
<style type="text/css">
	.st0{fill:#FFFFFF;stroke:#000000;stroke-miterlimit:10;}
	.st1{fill:none;stroke:#1B1464;stroke-miterlimit:10;}
</style>
<g id="Layer_1">
	<rect class="st0" width="822" height="590.9"/>
</g>
<g id="Layer_2">
	<g>
		<g transform="translate(536,536) rotate(-0.2941) translate(-536,264)">
			<line class="st1" x1="124.9" y1="-526" x2="704.1" y2="-528.5"/>
			<line class="st1" x1="124.9" y1="-523" x2="704.1" y2="-525.5"/>
			<line class="st1" x1="124.9" y1="-520" x2="704.1" y2="-522.5"/>
			<line class="st1" x1="124.9" y1="-517" x2="704.1" y2="-519.5"/>
			<line class="st1" x1="124.9" y1="-514" x2="704.1" y2="-516.5"/>
			<line class="st1" x1="124.9" y1="-511" x2="704.1" y2="-513.5"/>
			<line class="st1" x1="124.9" y1="-508" x2="704.1" y2="-510.5"/>
			<line class="st1" x1="124.9" y1="-505" x2="704.1" y2="-507.5"/>
			<line class="st1" x1="124.9" y1="-502" x2="704.1" y2="-504.5"/>
			<line class="st1" x1="124.9" y1="-499" x2="704.1" y2="-501.5"/>
			<line class="st1" x1="124.9" y1="-496" x2="704.1" y2="-498.5"/>
			<line class="st1" x1="124.9" y1="-493" x2="704.1" y2="-495.5"/>
			<line class="st1" x1="124.9" y1="-490" x2="704.1" y2="-492.5"/>
			<line class="st1" x1="124.9" y1="-487" x2="704.1" y2="-489.5"/>
			<line class="st1" x1="124.9" y1="-484" x2="704.1" y2="-486.5"/>
			<line class="st1" x1="124.8" y1="-481" x2="704.1" y2="-483.5"/>
			<line class="st1" x1="124.8" y1="-478" x2="704.1" y2="-480.5"/>
			<line class="st1" x1="124.8" y1="-475" x2="704.1" y2="-477.5"/>
			<line class="st1" x1="124.8" y1="-472" x2="704.1" y2="-474.5"/>
			<line class="st1" x1="124.8" y1="-469" x2="704" y2="-471.5"/>
			<line class="st1" x1="124.8" y1="-466" x2="704" y2="-468.5"/>
			<line class="st1" x1="124.8" y1="-463" x2="704" y2="-465.5"/>
			<line class="st1" x1="124.8" y1="-460" x2="704" y2="-462.5"/>
			<line class="st1" x1="124.8" y1="-457" x2="704" y2="-459.5"/>
			<line class="st1" x1="124.8" y1="-454" x2="704" y2="-456.5"/>
			<line class="st1" x1="124.8" y1="-451" x2="704" y2="-453.5"/>
			<line class="st1" x1="124.8" y1="-448" x2="704" y2="-450.5"/>
			<line class="st1" x1="124.8" y1="-445" x2="704" y2="-447.5"/>
			<line class="st1" x1="124.8" y1="-442" x2="704" y2="-444.5"/>
			<line class="st1" x1="124.8" y1="-439" x2="704" y2="-441.5"/>
			<line class="st1" x1="124.8" y1="-436" x2="704" y2="-438.5"/>
			<line class="st1" x1="124.8" y1="-433" x2="704" y2="-435.5"/>
			<line class="st1" x1="124.8" y1="-430" x2="704" y2="-432.5"/>
			<line class="st1" x1="124.8" y1="-427" x2="704" y2="-429.5"/>
			<line class="st1" x1="124.8" y1="-424" x2="704" y2="-426.5"/>
			<line class="st1" x1="124.8" y1="-421" x2="704" y2="-423.5"/>
			<line class="st1" x1="124.8" y1="-418" x2="704" y2="-420.5"/>
			<line class="st1" x1="124.8" y1="-415" x2="704" y2="-417.5"/>
			<line class="st1" x1="124.8" y1="-412" x2="704" y2="-414.5"/>
			<line class="st1" x1="124.8" y1="-409" x2="704" y2="-411.5"/>
			<line class="st1" x1="124.7" y1="-406" x2="704" y2="-408.5"/>
			<line class="st1" x1="124.7" y1="-403" x2="704" y2="-405.5"/>
			<line class="st1" x1="124.7" y1="-400" x2="704" y2="-402.5"/>
			<line class="st1" x1="124.7" y1="-397" x2="704" y2="-399.5"/>
			<line class="st1" x1="124.7" y1="-394" x2="703.9" y2="-396.5"/>
			<line class="st1" x1="124.7" y1="-391" x2="703.9" y2="-393.5"/>
			<line class="st1" x1="124.7" y1="-388" x2="703.9" y2="-390.5"/>
			<line class="st1" x1="124.7" y1="-385" x2="703.9" y2="-387.5"/>
			<line class="st1" x1="124.7" y1="-382" x2="703.9" y2="-384.5"/>
			<line class="st1" x1="124.7" y1="-379" x2="703.9" y2="-381.5"/>
			<line class="st1" x1="124.7" y1="-376" x2="703.9" y2="-378.5"/>
			<line class="st1" x1="124.7" y1="-373" x2="703.9" y2="-375.5"/>
			<line class="st1" x1="124.7" y1="-370" x2="703.9" y2="-372.5"/>
			<line class="st1" x1="124.7" y1="-367" x2="703.9" y2="-369.5"/>
			<line class="st1" x1="124.7" y1="-364" x2="703.9" y2="-366.5"/>
			<line class="st1" x1="124.7" y1="-361" x2="703.9" y2="-363.5"/>
			<line class="st1" x1="124.7" y1="-358" x2="703.9" y2="-360.5"/>
			<line class="st1" x1="124.7" y1="-355" x2="703.9" y2="-357.5"/>
			<line class="st1" x1="124.7" y1="-352" x2="703.9" y2="-354.5"/>
			<line class="st1" x1="124.7" y1="-349" x2="703.9" y2="-351.5"/>
			<line class="st1" x1="124.7" y1="-346" x2="703.9" y2="-348.5"/>
			<line class="st1" x1="124.7" y1="-343" x2="703.9" y2="-345.5"/>
			<line class="st1" x1="124.7" y1="-340" x2="703.9" y2="-342.5"/>
			<line class="st1" x1="124.7" y1="-337" x2="703.9" y2="-339.5"/>
			<line class="st1" x1="124.7" y1="-334" x2="703.9" y2="-336.5"/>
			<line class="st1" x1="124.6" y1="-331" x2="703.9" y2="-333.5"/>
			<line class="st1" x1="124.6" y1="-328" x2="703.9" y2="-330.5"/>
			<line class="st1" x1="124.6" y1="-325" x2="703.9" y2="-327.5"/>
			<line class="st1" x1="124.6" y1="-322" x2="703.9" y2="-324.5"/>
			<line class="st1" x1="124.6" y1="-319" x2="703.8" y2="-321.5"/>
			<line class="st1" x1="124.6" y1="-316" x2="703.8" y2="-318.5"/>
			<line class="st1" x1="124.6" y1="-313" x2="703.8" y2="-315.5"/>
			<line class="st1" x1="124.6" y1="-310" x2="703.8" y2="-312.5"/>
			<line class="st1" x1="124.6" y1="-307" x2="703.8" y2="-309.5"/>
			<line class="st1" x1="124.6" y1="-304" x2="703.8" y2="-306.5"/>
			<line class="st1" x1="124.6" y1="-301" x2="703.8" y2="-303.5"/>
			<line class="st1" x1="124.6" y1="-298" x2="703.8" y2="-300.5"/>
			<line class="st1" x1="124.6" y1="-295" x2="703.8" y2="-297.5"/>
			<line class="st1" x1="124.6" y1="-292" x2="703.8" y2="-294.5"/>
			<line class="st1" x1="124.6" y1="-289" x2="703.8" y2="-291.5"/>
			<line class="st1" x1="124.6" y1="-286" x2="703.8" y2="-288.5"/>
			<line class="st1" x1="124.6" y1="-283" x2="703.8" y2="-285.5"/>
			<line class="st1" x1="124.6" y1="-280" x2="703.8" y2="-282.5"/>
			<line class="st1" x1="124.6" y1="-277" x2="703.8" y2="-279.5"/>
		</g>
	</g>
	<g>
		<g transform="translate(536,536) rotate(-2.442) translate(-536,26)">
			<path class="st1" d="M186.8-487.9"/>
			<path class="st1" d="M186.2-485"/>
			<path class="st1" d="M185.6-482"/>
			<path class="st1" d="M185.1-479.1"/>
			<path class="st1" d="M184.5-476.1"/>
			<path class="st1" d="M183.9-473.2"/>
			<path class="st1" d="M183.4-470.3"/>
			<path class="st1" d="M182.8-467.3"/>
			<path class="st1" d="M182.2-464.4"/>
			<path class="st1" d="M181.6-461.4"/>
			<path class="st1" d="M181.1-458.5"/>
			<path class="st1" d="M180.5-455.5"/>
			<path class="st1" d="M179.9-452.6"/>
			<path class="st1" d="M179.4-449.6"/>
			<path class="st1" d="M178.8-446.7"/>
			<path class="st1" d="M178.2-443.8"/>
			<line class="st1" x1="177.7" y1="-440.8" x2="655" y2="-382.1"/>
			<line class="st1" x1="177.1" y1="-437.9" x2="654.4" y2="-379.2"/>
			<line class="st1" x1="176.5" y1="-434.9" x2="653.8" y2="-376.2"/>
			<line class="st1" x1="175.9" y1="-432" x2="653.3" y2="-373.3"/>
			<line class="st1" x1="175.4" y1="-429" x2="652.7" y2="-370.4"/>
			<line class="st1" x1="174.8" y1="-426.1" x2="652.1" y2="-367.4"/>
			<line class="st1" x1="174.2" y1="-423.2" x2="651.6" y2="-364.5"/>
			<line class="st1" x1="173.7" y1="-420.2" x2="651" y2="-361.5"/>
			<line class="st1" x1="173.1" y1="-417.3" x2="650.4" y2="-358.6"/>
			<line class="st1" x1="172.5" y1="-414.3" x2="649.9" y2="-355.6"/>
			<line class="st1" x1="171.9" y1="-411.4" x2="649.3" y2="-352.7"/>
			<line class="st1" x1="171.4" y1="-408.4" x2="648.7" y2="-349.8"/>
			<line class="st1" x1="170.8" y1="-405.5" x2="648.1" y2="-346.8"/>
			<line class="st1" x1="170.2" y1="-402.5" x2="647.6" y2="-343.9"/>
			<line class="st1" x1="169.7" y1="-399.6" x2="647" y2="-340.9"/>
			<line class="st1" x1="169.1" y1="-396.7" x2="646.4" y2="-338"/>
			<line class="st1" x1="168.5" y1="-393.7" x2="645.9" y2="-335"/>
			<line class="st1" x1="168" y1="-390.8" x2="645.3" y2="-332.1"/>
			<line class="st1" x1="167.4" y1="-387.8" x2="644.7" y2="-329.2"/>
			<line class="st1" x1="166.8" y1="-384.9" x2="644.2" y2="-326.2"/>
			<line class="st1" x1="166.2" y1="-381.9" x2="643.6" y2="-323.3"/>
			<line class="st1" x1="165.7" y1="-379" x2="643" y2="-320.3"/>
			<line class="st1" x1="165.1" y1="-376.1" x2="642.4" y2="-317.4"/>
		</g>
	</g>
	<g>
		<g transform="translate(536,536) rotate(-2.442) translate(-536,26)">
			<line class="st1" x1="676.2" y1="-469" x2="170.9" y2="-460"/>
			<line class="st1" x1="676" y1="-472" x2="170.6" y2="-463"/>
			<line class="st1" x1="675.7" y1="-475" x2="170.4" y2="-465.9"/>
			<line class="st1" x1="675.5" y1="-478" x2="170.1" y2="-468.9"/>
			<line class="st1" x1="675.3" y1="-481" x2="169.9" y2="-471.9"/>
			<line class="st1" x1="675" y1="-484" x2="169.6" y2="-474.9"/>
			<line class="st1" x1="674.8" y1="-487" x2="169.4" y2="-477.9"/>
			<line class="st1" x1="674.5" y1="-489.9" x2="169.2" y2="-480.9"/>
			<line class="st1" x1="674.3" y1="-492.9" x2="168.9" y2="-483.9"/>
			<line class="st1" x1="674" y1="-495.9" x2="168.7" y2="-486.9"/>
			<line class="st1" x1="673.8" y1="-498.9" x2="168.4" y2="-489.8"/>
			<line class="st1" x1="673.6" y1="-501.9" x2="168.2" y2="-492.8"/>
			<line class="st1" x1="673.3" y1="-504.9" x2="167.9" y2="-495.8"/>
			<line class="st1" x1="673.1" y1="-507.9" x2="167.7" y2="-498.8"/>
			<line class="st1" x1="672.8" y1="-510.9" x2="167.5" y2="-501.8"/>
			<line class="st1" x1="672.6" y1="-513.9" x2="167.2" y2="-504.8"/>
			<line class="st1" x1="672.3" y1="-516.8" x2="167" y2="-507.8"/>
			<line class="st1" x1="672.1" y1="-519.8" x2="166.7" y2="-510.8"/>
		</g>
	</g>
	<g>
		<g transform="translate(536,536) rotate(-2.442) translate(-536,26)">
			<path class="st1" d="M188.7-169.9"/>
			<path class="st1" d="M188.6-166.9"/>
			<path class="st1" d="M188.5-163.9"/>
			<path class="st1" d="M188.5-160.9"/>
			<path class="st1" d="M188.4-158"/>
			<path class="st1" d="M188.3-155"/>
			<path class="st1" d="M188.3-152"/>
			<path class="st1" d="M188.2-149"/>
			<path class="st1" d="M188.1-146"/>
			<path class="st1" d="M188-143"/>
			<path class="st1" d="M188-140"/>
			<path class="st1" d="M187.9-137"/>
			<path class="st1" d="M187.8-134"/>
			<path class="st1" d="M187.8-131"/>
			<path class="st1" d="M187.7-128"/>
			<path class="st1" d="M187.6-125"/>
			<line class="st1" x1="187.5" y1="-122" x2="668" y2="-143.9"/>
			<line class="st1" x1="187.5" y1="-119" x2="667.9" y2="-140.9"/>
			<line class="st1" x1="187.4" y1="-116" x2="667.8" y2="-137.9"/>
			<line class="st1" x1="187.3" y1="-113" x2="667.8" y2="-134.9"/>
			<line class="st1" x1="187.3" y1="-110" x2="667.7" y2="-131.9"/>
			<line class="st1" x1="187.2" y1="-107" x2="667.6" y2="-128.9"/>
			<line class="st1" x1="187.1" y1="-104" x2="667.6" y2="-125.9"/>
			<line class="st1" x1="187.1" y1="-101" x2="667.5" y2="-122.9"/>
			<line class="st1" x1="187" y1="-98" x2="667.4" y2="-119.9"/>
			<line class="st1" x1="186.9" y1="-95" x2="667.3" y2="-116.9"/>
			<line class="st1" x1="186.8" y1="-92" x2="667.3" y2="-113.9"/>
			<line class="st1" x1="186.8" y1="-89" x2="667.2" y2="-110.9"/>
			<line class="st1" x1="186.7" y1="-86" x2="667.1" y2="-107.9"/>
			<line class="st1" x1="186.6" y1="-83" x2="667.1" y2="-104.9"/>
			<line class="st1" x1="186.6" y1="-80" x2="667" y2="-101.9"/>
			<line class="st1" x1="186.5" y1="-77" x2="666.9" y2="-98.9"/>
			<line class="st1" x1="186.4" y1="-74" x2="666.9" y2="-95.9"/>
			<line class="st1" x1="186.4" y1="-71" x2="666.8" y2="-92.9"/>
			<line class="st1" x1="186.3" y1="-68" x2="666.7" y2="-89.9"/>
			<line class="st1" x1="186.2" y1="-65" x2="666.6" y2="-86.9"/>
			<line class="st1" x1="186.1" y1="-62" x2="666.6" y2="-83.9"/>
			<line class="st1" x1="186.1" y1="-59" x2="666.5" y2="-81"/>
			<line class="st1" x1="186" y1="-56" x2="666.4" y2="-78"/>
		</g>
	</g>
</g>
</svg>
