<?xml version="1.0" encoding="utf-8"?>
<!-- Generator: Adobe Illustrator 22.0.0, SVG Export Plug-In . SVG Version: 6.00 Build 0)  -->
<svg version="1.1" xmlns="http://www.w3.org/2000/svg" xmlns:xlink="http://www.w3.org/1999/xlink" x="0px" y="0px"
	 viewBox="0 0 841.9 1190.6" style="enable-background:new 0 0 841.9 1190.6;" xml:space="preserve">
<style type="text/css">
	.st0{fill:#FFFFFF;stroke:#000000;stroke-miterlimit:10;}
	.st1{fill:none;stroke:#93278F;stroke-miterlimit:10;}
</style>
<g id="Layer_2">
	<rect class="st0" width="822" height="543.3"/>
	<g>
		<g transform="translate(536,536) rotate(-2.442) translate(-536,26)">
			<line class="st1" x1="582.9" y1="-493.1" x2="239" y2="-480.3"/>
			<line class="st1" x1="583.1" y1="-496.1" x2="239.2" y2="-483.3"/>
			<line class="st1" x1="583.4" y1="-499.1" x2="239.5" y2="-486.2"/>
			<line class="st1" x1="583.6" y1="-502.1" x2="239.7" y2="-489.2"/>
			<line class="st1" x1="583.8" y1="-505.1" x2="239.9" y2="-492.2"/>
			<line class="st1" x1="584.1" y1="-508.1" x2="240.2" y2="-495.2"/>
			<line class="st1" x1="584.3" y1="-511" x2="240.4" y2="-498.2"/>
			<line class="st1" x1="584.5" y1="-514" x2="240.6" y2="-501.2"/>
			<line class="st1" x1="584.8" y1="-517" x2="240.9" y2="-504.2"/>
			<line class="st1" x1="585" y1="-520" x2="241.1" y2="-507.2"/>
			<line class="st1" x1="585.2" y1="-523" x2="241.3" y2="-510.2"/>
			<line class="st1" x1="585.4" y1="-526" x2="241.6" y2="-513.1"/>
			<line class="st1" x1="585.7" y1="-529" x2="241.8" y2="-516.1"/>
			<line class="st1" x1="585.9" y1="-532" x2="242" y2="-519.1"/>
			<line class="st1" x1="586.1" y1="-535" x2="242.3" y2="-522.1"/>
			<line class="st1" x1="586.4" y1="-537.9" x2="242.5" y2="-525.1"/>
			<line class="st1" x1="586.6" y1="-540.9" x2="242.7" y2="-528.1"/>
			<line class="st1" x1="586.8" y1="-543.9" x2="242.9" y2="-531.1"/>
			<line class="st1" x1="587.1" y1="-546.9" x2="243.2" y2="-534.1"/>
			<line class="st1" x1="587.3" y1="-549.9" x2="243.4" y2="-537.1"/>
			<line class="st1" x1="587.5" y1="-552.9" x2="243.6" y2="-540"/>
		</g>
	</g>
	<g transform="translate(379,536) rotate(2.6159) translate(-379,-119)">
		<line class="st1" x1="645" y1="94.3" x2="194.4" y2="94.5"/>
		<line class="st1" x1="644.9" y1="91.3" x2="194.2" y2="91.5"/>
		<line class="st1" x1="644.7" y1="88.3" x2="194.1" y2="88.5"/>
		<line class="st1" x1="644.6" y1="85.3" x2="193.9" y2="85.5"/>
		<line class="st1" x1="644.4" y1="82.3" x2="193.8" y2="82.5"/>
		<line class="st1" x1="644.3" y1="79.3" x2="193.6" y2="79.5"/>
		<line class="st1" x1="644.1" y1="76.3" x2="193.5" y2="76.5"/>
		<line class="st1" x1="644" y1="73.3" x2="193.3" y2="73.5"/>
		<line class="st1" x1="643.8" y1="70.4" x2="193.2" y2="70.5"/>
		<line class="st1" x1="643.7" y1="67.4" x2="193" y2="67.5"/>
		<line class="st1" x1="643.5" y1="64.4" x2="192.9" y2="64.5"/>
		<line class="st1" x1="643.4" y1="61.4" x2="192.7" y2="61.5"/>
		<line class="st1" x1="643.2" y1="58.4" x2="192.6" y2="58.6"/>
		<line class="st1" x1="643.1" y1="55.4" x2="192.4" y2="55.6"/>
		<line class="st1" x1="642.9" y1="52.4" x2="192.3" y2="52.6"/>
		<line class="st1" x1="642.8" y1="49.4" x2="192.1" y2="49.6"/>
		<line class="st1" x1="642.6" y1="46.4" x2="192" y2="46.6"/>
		<line class="st1" x1="642.5" y1="43.4" x2="191.8" y2="43.6"/>
		<line class="st1" x1="642.3" y1="40.4" x2="191.7" y2="40.6"/>
		<line class="st1" x1="642.2" y1="37.4" x2="191.5" y2="37.6"/>
		<line class="st1" x1="642" y1="34.4" x2="191.4" y2="34.6"/>
		<line class="st1" x1="641.9" y1="31.4" x2="191.2" y2="31.6"/>
		<line class="st1" x1="641.7" y1="28.4" x2="191.1" y2="28.6"/>
		<line class="st1" x1="641.6" y1="25.4" x2="190.9" y2="25.6"/>
		<line class="st1" x1="641.4" y1="22.4" x2="190.8" y2="22.6"/>
		<line class="st1" x1="641.3" y1="19.5" x2="190.6" y2="19.6"/>
		<line class="st1" x1="641.1" y1="16.5" x2="190.5" y2="16.6"/>
		<line class="st1" x1="641" y1="13.5" x2="190.3" y2="13.6"/>
		<line class="st1" x1="640.8" y1="10.5" x2="190.2" y2="10.6"/>
		<line class="st1" x1="640.7" y1="7.5" x2="190" y2="7.7"/>
		<line class="st1" x1="640.5" y1="4.5" x2="189.9" y2="4.7"/>
		<line class="st1" x1="640.4" y1="1.5" x2="189.7" y2="1.7"/>
		<line class="st1" x1="640.2" y1="-1.5" x2="189.6" y2="-1.3"/>
		<line class="st1" x1="640.1" y1="-4.5" x2="189.4" y2="-4.3"/>
		<line class="st1" x1="639.9" y1="-7.5" x2="189.3" y2="-7.3"/>
		<line class="st1" x1="639.8" y1="-10.5" x2="189.1" y2="-10.3"/>
		<line class="st1" x1="639.6" y1="-13.5" x2="189" y2="-13.3"/>
		<line class="st1" x1="639.5" y1="-16.5" x2="188.8" y2="-16.3"/>
		<line class="st1" x1="639.3" y1="-19.5" x2="188.7" y2="-19.3"/>
		<line class="st1" x1="639.2" y1="-22.5" x2="188.5" y2="-22.3"/>
		<line class="st1" x1="639" y1="-25.5" x2="188.4" y2="-25.3"/>
		<line class="st1" x1="638.9" y1="-28.5" x2="188.2" y2="-28.3"/>
		<line class="st1" x1="638.7" y1="-31.5" x2="188.1" y2="-31.3"/>
		<line class="st1" x1="638.6" y1="-34.4" x2="187.9" y2="-34.3"/>
		<line class="st1" x1="638.4" y1="-37.4" x2="187.8" y2="-37.3"/>
		<line class="st1" x1="638.3" y1="-40.4" x2="187.6" y2="-40.3"/>
		<line class="st1" x1="638.1" y1="-43.4" x2="187.5" y2="-43.2"/>
		<line class="st1" x1="638" y1="-46.4" x2="187.3" y2="-46.2"/>
		<line class="st1" x1="637.8" y1="-49.4" x2="187.2" y2="-49.2"/>
		<line class="st1" x1="637.7" y1="-52.4" x2="187" y2="-52.2"/>
		<line class="st1" x1="637.5" y1="-55.4" x2="186.9" y2="-55.2"/>
		<line class="st1" x1="637.4" y1="-58.4" x2="186.7" y2="-58.2"/>
		<line class="st1" x1="637.2" y1="-61.4" x2="186.6" y2="-61.2"/>
		<line class="st1" x1="637.1" y1="-64.4" x2="186.4" y2="-64.2"/>
	</g>
</g>
<g id="Layer_1">
</g>
</svg>
