<?xml version="1.0" encoding="utf-8"?>
<!-- Generator: Adobe Illustrator 22.0.0, SVG Export Plug-In . SVG Version: 6.00 Build 0)  -->
<svg version="1.1" xmlns="http://www.w3.org/2000/svg" xmlns:xlink="http://www.w3.org/1999/xlink" x="0px" y="0px"
	 viewBox="0 0 841.9 1190.6" style="enable-background:new 0 0 841.9 1190.6;" xml:space="preserve">
<style type="text/css">
	.st0{fill:#FFFFFF;stroke:#000000;stroke-miterlimit:10;}
	.st1{fill:none;stroke:#1B1464;stroke-miterlimit:10;}
</style>
<g id="Layer_2">
	<rect class="st0" width="822" height="543.3"/>
	<g>
		<g>
			<g transform="translate(536,536) rotate(-0.2941) translate(-536,264)">
				<line class="st1" x1="675.1" y1="-473.5" x2="162.2" y2="-446.8"/>
				<line class="st1" x1="674.9" y1="-476.5" x2="162.1" y2="-449.8"/>
				<line class="st1" x1="674.8" y1="-479.5" x2="161.9" y2="-452.8"/>
				<line class="st1" x1="674.7" y1="-482.5" x2="161.8" y2="-455.8"/>
				<line class="st1" x1="674.5" y1="-485.5" x2="161.7" y2="-458.8"/>
				<line class="st1" x1="674.4" y1="-488.5" x2="161.5" y2="-461.8"/>
				<line class="st1" x1="674.3" y1="-491.5" x2="161.4" y2="-464.8"/>
				<line class="st1" x1="674.1" y1="-494.5" x2="161.3" y2="-467.8"/>
				<line class="st1" x1="674" y1="-497.5" x2="161.1" y2="-470.8"/>
				<line class="st1" x1="673.9" y1="-500.5" x2="161" y2="-473.8"/>
				<line class="st1" x1="673.7" y1="-503.5" x2="160.9" y2="-476.8"/>
				<line class="st1" x1="673.6" y1="-506.5" x2="160.7" y2="-479.8"/>
				<line class="st1" x1="673.5" y1="-509.5" x2="160.6" y2="-482.8"/>
				<line class="st1" x1="673.3" y1="-512.5" x2="160.5" y2="-485.8"/>
				<line class="st1" x1="673.2" y1="-515.5" x2="160.3" y2="-488.8"/>
				<line class="st1" x1="673.1" y1="-518.5" x2="160.2" y2="-491.8"/>
				<line class="st1" x1="672.9" y1="-521.5" x2="160.1" y2="-494.8"/>
				<line class="st1" x1="672.8" y1="-524.5" x2="159.9" y2="-497.8"/>
				<line class="st1" x1="672.7" y1="-527.5" x2="159.8" y2="-500.8"/>
				<line class="st1" x1="672.5" y1="-530.5" x2="159.7" y2="-503.8"/>
				<line class="st1" x1="672.4" y1="-533.5" x2="159.5" y2="-506.7"/>
				<line class="st1" x1="672.3" y1="-536.5" x2="159.4" y2="-509.7"/>
				<line class="st1" x1="672.1" y1="-539.5" x2="159.3" y2="-512.7"/>
				<line class="st1" x1="672" y1="-542.5" x2="159.1" y2="-515.7"/>
				<line class="st1" x1="671.9" y1="-545.5" x2="159" y2="-518.7"/>
				<line class="st1" x1="671.7" y1="-548.5" x2="158.8" y2="-521.7"/>
				<line class="st1" x1="671.6" y1="-551.5" x2="158.7" y2="-524.7"/>
				<line class="st1" x1="671.5" y1="-554.5" x2="158.6" y2="-527.7"/>
				<line class="st1" x1="671.3" y1="-557.5" x2="158.4" y2="-530.7"/>
				<line class="st1" x1="671.2" y1="-560.4" x2="158.3" y2="-533.7"/>
				<line class="st1" x1="671.1" y1="-563.4" x2="158.2" y2="-536.7"/>
				<line class="st1" x1="670.9" y1="-566.4" x2="158" y2="-539.7"/>
				<line class="st1" x1="670.8" y1="-569.4" x2="157.9" y2="-542.7"/>
				<line class="st1" x1="670.6" y1="-572.4" x2="157.8" y2="-545.7"/>
				<line class="st1" x1="670.5" y1="-575.4" x2="157.6" y2="-548.7"/>
				<line class="st1" x1="670.4" y1="-578.4" x2="157.5" y2="-551.7"/>
				<line class="st1" x1="670.2" y1="-581.4" x2="157.4" y2="-554.7"/>
				<line class="st1" x1="670.1" y1="-584.4" x2="157.2" y2="-557.7"/>
				<line class="st1" x1="670" y1="-587.4" x2="157.1" y2="-560.7"/>
				<line class="st1" x1="669.8" y1="-590.4" x2="157" y2="-563.7"/>
				<line class="st1" x1="669.7" y1="-593.4" x2="156.8" y2="-566.7"/>
				<line class="st1" x1="669.6" y1="-596.4" x2="156.7" y2="-569.7"/>
				<line class="st1" x1="669.4" y1="-599.4" x2="156.6" y2="-572.7"/>
				<line class="st1" x1="669.3" y1="-602.4" x2="156.4" y2="-575.7"/>
				<line class="st1" x1="669.2" y1="-605.4" x2="156.3" y2="-578.7"/>
				<line class="st1" x1="669" y1="-608.4" x2="156.2" y2="-581.7"/>
				<line class="st1" x1="668.9" y1="-611.4" x2="156" y2="-584.7"/>
				<line class="st1" x1="668.8" y1="-614.4" x2="155.9" y2="-587.7"/>
				<line class="st1" x1="668.6" y1="-617.4" x2="155.8" y2="-590.7"/>
				<line class="st1" x1="668.5" y1="-620.4" x2="155.6" y2="-593.7"/>
				<line class="st1" x1="668.4" y1="-623.4" x2="155.5" y2="-596.7"/>
				<line class="st1" x1="668.2" y1="-626.4" x2="155.4" y2="-599.7"/>
				<line class="st1" x1="668.1" y1="-629.4" x2="155.2" y2="-602.7"/>
				<line class="st1" x1="668" y1="-632.4" x2="155.1" y2="-605.6"/>
				<line class="st1" x1="667.8" y1="-635.4" x2="155" y2="-608.6"/>
				<line class="st1" x1="667.7" y1="-638.4" x2="154.8" y2="-611.6"/>
				<line class="st1" x1="667.6" y1="-641.4" x2="154.7" y2="-614.6"/>
				<line class="st1" x1="667.4" y1="-644.4" x2="154.6" y2="-617.6"/>
				<line class="st1" x1="667.3" y1="-647.4" x2="154.4" y2="-620.6"/>
				<line class="st1" x1="667.2" y1="-650.4" x2="154.3" y2="-623.6"/>
				<line class="st1" x1="667" y1="-653.4" x2="154.2" y2="-626.6"/>
				<line class="st1" x1="666.9" y1="-656.4" x2="154" y2="-629.6"/>
				<line class="st1" x1="666.8" y1="-659.3" x2="153.9" y2="-632.6"/>
				<line class="st1" x1="666.6" y1="-662.3" x2="153.8" y2="-635.6"/>
				<line class="st1" x1="666.5" y1="-665.3" x2="153.6" y2="-638.6"/>
				<line class="st1" x1="666.4" y1="-668.3" x2="153.5" y2="-641.6"/>
				<line class="st1" x1="666.2" y1="-671.3" x2="153.4" y2="-644.6"/>
				<line class="st1" x1="666.1" y1="-674.3" x2="153.2" y2="-647.6"/>
				<line class="st1" x1="666" y1="-677.3" x2="153.1" y2="-650.6"/>
				<line class="st1" x1="665.8" y1="-680.3" x2="152.9" y2="-653.6"/>
				<line class="st1" x1="665.7" y1="-683.3" x2="152.8" y2="-656.6"/>
				<line class="st1" x1="665.6" y1="-686.3" x2="152.7" y2="-659.6"/>
				<line class="st1" x1="665.4" y1="-689.3" x2="152.5" y2="-662.6"/>
				<line class="st1" x1="665.3" y1="-692.3" x2="152.4" y2="-665.6"/>
				<line class="st1" x1="665.1" y1="-695.3" x2="152.3" y2="-668.6"/>
				<line class="st1" x1="665" y1="-698.3" x2="152.1" y2="-671.6"/>
				<line class="st1" x1="664.9" y1="-701.3" x2="152" y2="-674.6"/>
				<line class="st1" x1="664.7" y1="-704.3" x2="151.9" y2="-677.6"/>
				<line class="st1" x1="664.6" y1="-707.3" x2="151.7" y2="-680.6"/>
				<line class="st1" x1="664.5" y1="-710.3" x2="151.6" y2="-683.6"/>
				<line class="st1" x1="664.3" y1="-713.3" x2="151.5" y2="-686.6"/>
				<line class="st1" x1="664.2" y1="-716.3" x2="151.3" y2="-689.6"/>
				<line class="st1" x1="664.1" y1="-719.3" x2="151.2" y2="-692.6"/>
				<line class="st1" x1="663.9" y1="-722.3" x2="151.1" y2="-695.6"/>
			</g>
		</g>
		<g>
			<g transform="translate(536,536) rotate(-2.442) translate(-536,26)">
				<path class="st1" d="M693.3-59.9"/>
				<path class="st1" d="M693.9-62.9"/>
				<path class="st1" d="M694.5-65.8"/>
				<path class="st1" d="M695-68.7"/>
				<path class="st1" d="M695.6-71.7"/>
				<path class="st1" d="M696.2-74.6"/>
				<path class="st1" d="M696.7-77.6"/>
				<path class="st1" d="M697.3-80.5"/>
				<path class="st1" d="M697.9-83.5"/>
				<path class="st1" d="M698.4-86.4"/>
				<path class="st1" d="M699-89.3"/>
				<path class="st1" d="M699.6-92.3"/>
				<path class="st1" d="M700.2-95.2"/>
				<path class="st1" d="M700.7-98.2"/>
				<path class="st1" d="M701.3-101.1"/>
				<path class="st1" d="M701.9-104.1"/>
				<line class="st1" x1="702.4" y1="-107" x2="225.1" y2="-165.7"/>
				<line class="st1" x1="703" y1="-110" x2="225.7" y2="-168.6"/>
				<line class="st1" x1="703.6" y1="-112.9" x2="226.2" y2="-171.6"/>
				<line class="st1" x1="704.2" y1="-115.8" x2="226.8" y2="-174.5"/>
				<line class="st1" x1="704.7" y1="-118.8" x2="227.4" y2="-177.5"/>
				<line class="st1" x1="705.3" y1="-121.7" x2="228" y2="-180.4"/>
				<line class="st1" x1="705.9" y1="-124.7" x2="228.5" y2="-183.4"/>
				<line class="st1" x1="706.4" y1="-127.6" x2="229.1" y2="-186.3"/>
				<line class="st1" x1="707" y1="-130.6" x2="229.7" y2="-189.2"/>
				<line class="st1" x1="707.6" y1="-133.5" x2="230.2" y2="-192.2"/>
				<line class="st1" x1="708.1" y1="-136.4" x2="230.8" y2="-195.1"/>
				<line class="st1" x1="708.7" y1="-139.4" x2="231.4" y2="-198.1"/>
				<line class="st1" x1="709.3" y1="-142.3" x2="231.9" y2="-201"/>
				<line class="st1" x1="709.9" y1="-145.3" x2="232.5" y2="-204"/>
				<line class="st1" x1="710.4" y1="-148.2" x2="233.1" y2="-206.9"/>
				<line class="st1" x1="711" y1="-151.2" x2="233.7" y2="-209.8"/>
				<line class="st1" x1="711.6" y1="-154.1" x2="234.2" y2="-212.8"/>
				<line class="st1" x1="712.1" y1="-157.1" x2="234.8" y2="-215.7"/>
				<line class="st1" x1="712.7" y1="-160" x2="235.4" y2="-218.7"/>
				<line class="st1" x1="713.3" y1="-162.9" x2="235.9" y2="-221.6"/>
				<line class="st1" x1="713.8" y1="-165.9" x2="236.5" y2="-224.6"/>
				<line class="st1" x1="714.4" y1="-168.8" x2="237.1" y2="-227.5"/>
				<line class="st1" x1="715" y1="-171.8" x2="237.6" y2="-230.5"/>
			</g>
		</g>
		<g>
			<g transform="translate(536,536) rotate(-2.442) translate(-536,26)">
				<path class="st1" d="M622.4-416.3"/>
				<path class="st1" d="M623-419.2"/>
				<path class="st1" d="M623.7-422.2"/>
				<path class="st1" d="M624.3-425.1"/>
				<path class="st1" d="M624.9-428"/>
				<path class="st1" d="M625.5-431"/>
				<path class="st1" d="M626.1-433.9"/>
				<path class="st1" d="M626.7-436.8"/>
				<path class="st1" d="M627.3-439.8"/>
				<path class="st1" d="M627.9-442.7"/>
				<path class="st1" d="M628.5-445.6"/>
				<path class="st1" d="M629.2-448.6"/>
				<path class="st1" d="M629.8-451.5"/>
				<path class="st1" d="M630.4-454.4"/>
				<path class="st1" d="M631-457.4"/>
				<path class="st1" d="M631.6-460.3"/>
				<line class="st1" x1="632.2" y1="-463.3" x2="245.7" y2="-505.5"/>
				<line class="st1" x1="632.8" y1="-466.2" x2="246.3" y2="-508.4"/>
				<line class="st1" x1="633.4" y1="-469.1" x2="246.9" y2="-511.4"/>
				<line class="st1" x1="634.1" y1="-472.1" x2="247.6" y2="-514.3"/>
				<line class="st1" x1="634.7" y1="-475" x2="248.2" y2="-517.2"/>
				<line class="st1" x1="635.3" y1="-477.9" x2="248.8" y2="-520.2"/>
				<line class="st1" x1="635.9" y1="-480.9" x2="249.4" y2="-523.1"/>
				<line class="st1" x1="636.5" y1="-483.8" x2="250" y2="-526"/>
				<line class="st1" x1="637.1" y1="-486.7" x2="250.6" y2="-529"/>
				<line class="st1" x1="637.7" y1="-489.7" x2="251.2" y2="-531.9"/>
				<line class="st1" x1="638.3" y1="-492.6" x2="251.8" y2="-534.9"/>
				<line class="st1" x1="639" y1="-495.5" x2="252.5" y2="-537.8"/>
				<line class="st1" x1="639.6" y1="-498.5" x2="253.1" y2="-540.7"/>
				<line class="st1" x1="640.2" y1="-501.4" x2="253.7" y2="-543.7"/>
				<line class="st1" x1="640.8" y1="-504.3" x2="254.3" y2="-546.6"/>
				<line class="st1" x1="641.4" y1="-507.3" x2="254.9" y2="-549.5"/>
				<line class="st1" x1="642" y1="-510.2" x2="255.5" y2="-552.5"/>
				<line class="st1" x1="642.6" y1="-513.1" x2="256.1" y2="-555.4"/>
				<line class="st1" x1="643.2" y1="-516.1" x2="256.7" y2="-558.3"/>
				<line class="st1" x1="643.8" y1="-519" x2="257.3" y2="-561.3"/>
				<line class="st1" x1="644.5" y1="-521.9" x2="258" y2="-564.2"/>
				<line class="st1" x1="645.1" y1="-524.9" x2="258.6" y2="-567.1"/>
				<line class="st1" x1="645.7" y1="-527.8" x2="259.2" y2="-570.1"/>
			</g>
		</g>
	</g>
</g>
<g id="Layer_1">
</g>
</svg>
