<?xml version="1.0" encoding="utf-8"?>
<!-- Generator: Adobe Illustrator 22.0.0, SVG Export Plug-In . SVG Version: 6.00 Build 0)  -->
<svg version="1.1" xmlns="http://www.w3.org/2000/svg" xmlns:xlink="http://www.w3.org/1999/xlink" x="0px" y="0px"
	 viewBox="0 0 841.9 1190.6" style="enable-background:new 0 0 841.9 1190.6;" xml:space="preserve">
<style type="text/css">
	.st0{fill:#FFFFFF;stroke:#000000;stroke-miterlimit:10;}
	.st1{fill:none;stroke:#662D91;stroke-miterlimit:10;}
</style>
<g id="Layer_2">
	<rect class="st0" width="822" height="543.3"/>
	<g>
		<g>
			<g transform="translate(536,536) rotate(-0.2941) translate(-536,264)">
				<line class="st1" x1="625.6" y1="-331.1" x2="124.8" y2="-354.4"/>
			</g>
			<g transform="translate(536,536) rotate(-0.2941) translate(-536,264)">
				<line class="st1" x1="625.7" y1="-334.1" x2="125" y2="-357.4"/>
				<line class="st1" x1="625.8" y1="-337.1" x2="125.1" y2="-360.4"/>
				<line class="st1" x1="625.9" y1="-340.1" x2="125.2" y2="-363.4"/>
				<line class="st1" x1="626" y1="-343.1" x2="125.3" y2="-366.4"/>
				<line class="st1" x1="626.2" y1="-346.1" x2="125.4" y2="-369.4"/>
				<line class="st1" x1="626.3" y1="-349.1" x2="125.5" y2="-372.4"/>
				<line class="st1" x1="626.4" y1="-352.1" x2="125.6" y2="-375.4"/>
				<line class="st1" x1="626.5" y1="-355.1" x2="125.8" y2="-378.4"/>
				<line class="st1" x1="626.6" y1="-358.1" x2="125.9" y2="-381.4"/>
				<line class="st1" x1="626.7" y1="-361.1" x2="126" y2="-384.4"/>
				<line class="st1" x1="626.9" y1="-364.1" x2="126.1" y2="-387.4"/>
				<line class="st1" x1="627" y1="-367.1" x2="126.2" y2="-390.4"/>
				<line class="st1" x1="627.1" y1="-370.1" x2="126.3" y2="-393.4"/>
				<line class="st1" x1="627.2" y1="-373.1" x2="126.5" y2="-396.4"/>
				<line class="st1" x1="627.3" y1="-376.1" x2="126.6" y2="-399.4"/>
				<line class="st1" x1="627.4" y1="-379.1" x2="126.7" y2="-402.4"/>
				<line class="st1" x1="627.6" y1="-382.1" x2="126.8" y2="-405.4"/>
				<line class="st1" x1="627.7" y1="-385.1" x2="126.9" y2="-408.4"/>
				<line class="st1" x1="627.8" y1="-388.1" x2="127" y2="-411.4"/>
				<line class="st1" x1="627.9" y1="-391.1" x2="127.2" y2="-414.3"/>
				<line class="st1" x1="628" y1="-394.1" x2="127.3" y2="-417.3"/>
				<line class="st1" x1="628.1" y1="-397.1" x2="127.4" y2="-420.3"/>
				<line class="st1" x1="628.2" y1="-400.1" x2="127.5" y2="-423.3"/>
				<line class="st1" x1="628.4" y1="-403.1" x2="127.6" y2="-426.3"/>
				<line class="st1" x1="628.5" y1="-406" x2="127.7" y2="-429.3"/>
				<line class="st1" x1="628.6" y1="-409" x2="127.9" y2="-432.3"/>
				<line class="st1" x1="628.7" y1="-412" x2="128" y2="-435.3"/>
				<line class="st1" x1="628.8" y1="-415" x2="128.1" y2="-438.3"/>
				<line class="st1" x1="628.9" y1="-418" x2="128.2" y2="-441.3"/>
				<line class="st1" x1="629.1" y1="-421" x2="128.3" y2="-444.3"/>
				<line class="st1" x1="629.2" y1="-424" x2="128.4" y2="-447.3"/>
				<line class="st1" x1="629.3" y1="-427" x2="128.6" y2="-450.3"/>
				<line class="st1" x1="629.4" y1="-430" x2="128.7" y2="-453.3"/>
				<line class="st1" x1="629.5" y1="-433" x2="128.8" y2="-456.3"/>
				<line class="st1" x1="629.6" y1="-436" x2="128.9" y2="-459.3"/>
				<line class="st1" x1="629.8" y1="-439" x2="129" y2="-462.3"/>
				<line class="st1" x1="629.9" y1="-442" x2="129.1" y2="-465.3"/>
				<line class="st1" x1="630" y1="-445" x2="129.3" y2="-468.3"/>
				<line class="st1" x1="630.1" y1="-448" x2="129.4" y2="-471.3"/>
				<line class="st1" x1="630.2" y1="-451" x2="129.5" y2="-474.3"/>
				<line class="st1" x1="630.3" y1="-454" x2="129.6" y2="-477.3"/>
				<line class="st1" x1="630.5" y1="-457" x2="129.7" y2="-480.3"/>
				<line class="st1" x1="630.6" y1="-460" x2="129.8" y2="-483.3"/>
				<line class="st1" x1="630.7" y1="-463" x2="130" y2="-486.3"/>
				<line class="st1" x1="630.8" y1="-466" x2="130.1" y2="-489.3"/>
				<line class="st1" x1="630.9" y1="-469" x2="130.2" y2="-492.3"/>
				<line class="st1" x1="631" y1="-472" x2="130.3" y2="-495.3"/>
				<line class="st1" x1="631.2" y1="-475" x2="130.4" y2="-498.3"/>
				<line class="st1" x1="631.3" y1="-478" x2="130.5" y2="-501.3"/>
				<line class="st1" x1="631.4" y1="-481" x2="130.7" y2="-504.3"/>
				<line class="st1" x1="631.5" y1="-484" x2="130.8" y2="-507.3"/>
				<line class="st1" x1="631.6" y1="-487" x2="130.9" y2="-510.3"/>
				<line class="st1" x1="631.7" y1="-490" x2="131" y2="-513.3"/>
				<line class="st1" x1="631.9" y1="-493" x2="131.1" y2="-516.3"/>
				<line class="st1" x1="632" y1="-496" x2="131.2" y2="-519.3"/>
				<line class="st1" x1="632.1" y1="-499" x2="131.3" y2="-522.3"/>
				<line class="st1" x1="632.2" y1="-502" x2="131.5" y2="-525.3"/>
				<line class="st1" x1="632.3" y1="-505" x2="131.6" y2="-528.3"/>
				<line class="st1" x1="632.4" y1="-508" x2="131.7" y2="-531.3"/>
				<line class="st1" x1="632.6" y1="-511" x2="131.8" y2="-534.3"/>
			</g>
		</g>
		<g>
			<line class="st1" x1="729.2" y1="275.4" x2="156.5" y2="252.5"/>
			<line class="st1" x1="729.3" y1="272.4" x2="156.6" y2="249.5"/>
			<line class="st1" x1="729.4" y1="269.4" x2="156.7" y2="246.5"/>
			<line class="st1" x1="729.5" y1="266.4" x2="156.8" y2="243.5"/>
			<line class="st1" x1="729.6" y1="263.4" x2="156.9" y2="240.5"/>
			<line class="st1" x1="729.7" y1="260.4" x2="157" y2="237.5"/>
			<line class="st1" x1="729.8" y1="257.4" x2="157.1" y2="234.5"/>
			<line class="st1" x1="729.9" y1="254.4" x2="157.2" y2="231.5"/>
			<line class="st1" x1="730" y1="251.4" x2="157.3" y2="228.5"/>
			<line class="st1" x1="730.1" y1="248.4" x2="157.4" y2="225.5"/>
			<line class="st1" x1="730.2" y1="245.4" x2="157.5" y2="222.5"/>
			<line class="st1" x1="730.3" y1="242.4" x2="157.6" y2="219.5"/>
			<line class="st1" x1="730.4" y1="239.4" x2="157.7" y2="216.5"/>
			<line class="st1" x1="730.5" y1="236.4" x2="157.8" y2="213.5"/>
			<line class="st1" x1="730.6" y1="233.4" x2="157.9" y2="210.5"/>
			<line class="st1" x1="730.7" y1="230.4" x2="158.1" y2="207.5"/>
			<line class="st1" x1="730.8" y1="227.4" x2="158.2" y2="204.5"/>
			<line class="st1" x1="730.9" y1="224.4" x2="158.3" y2="201.5"/>
			<line class="st1" x1="731" y1="221.4" x2="158.4" y2="198.5"/>
			<line class="st1" x1="731.1" y1="218.4" x2="158.5" y2="195.5"/>
			<line class="st1" x1="731.2" y1="215.4" x2="158.6" y2="192.5"/>
			<line class="st1" x1="731.3" y1="212.4" x2="158.7" y2="189.5"/>
			<line class="st1" x1="731.4" y1="209.4" x2="158.8" y2="186.5"/>
			<line class="st1" x1="731.5" y1="206.4" x2="158.9" y2="183.5"/>
			<line class="st1" x1="731.6" y1="203.4" x2="159" y2="180.5"/>
			<line class="st1" x1="731.7" y1="200.4" x2="159.1" y2="177.5"/>
			<line class="st1" x1="731.8" y1="197.4" x2="159.2" y2="174.5"/>
			<line class="st1" x1="731.9" y1="194.4" x2="159.3" y2="171.5"/>
			<line class="st1" x1="732" y1="191.4" x2="159.4" y2="168.5"/>
			<line class="st1" x1="732.1" y1="188.4" x2="159.5" y2="165.5"/>
			<line class="st1" x1="732.2" y1="185.4" x2="159.6" y2="162.5"/>
			<line class="st1" x1="732.3" y1="182.4" x2="159.7" y2="159.5"/>
			<line class="st1" x1="732.4" y1="179.4" x2="159.8" y2="156.5"/>
			<line class="st1" x1="732.5" y1="176.4" x2="159.9" y2="153.5"/>
			<line class="st1" x1="732.6" y1="173.4" x2="160" y2="150.5"/>
			<line class="st1" x1="732.8" y1="170.4" x2="160.1" y2="147.5"/>
			<line class="st1" x1="732.9" y1="167.4" x2="160.2" y2="144.5"/>
			<line class="st1" x1="733" y1="164.4" x2="160.3" y2="141.5"/>
			<line class="st1" x1="733.1" y1="161.4" x2="160.4" y2="138.5"/>
			<line class="st1" x1="733.2" y1="158.4" x2="160.5" y2="135.5"/>
			<line class="st1" x1="733.3" y1="155.4" x2="160.6" y2="132.5"/>
			<line class="st1" x1="733.4" y1="152.4" x2="160.7" y2="129.5"/>
			<line class="st1" x1="733.5" y1="149.4" x2="160.8" y2="126.5"/>
		</g>
	</g>
</g>
<g id="Layer_1">
</g>
</svg>
