<?xml version="1.0" encoding="utf-8"?>
<!-- Generator: Adobe Illustrator 22.0.0, SVG Export Plug-In . SVG Version: 6.00 Build 0)  -->
<svg version="1.1" xmlns="http://www.w3.org/2000/svg" xmlns:xlink="http://www.w3.org/1999/xlink" x="0px" y="0px"
	 viewBox="0 0 841.9 1190.6" style="enable-background:new 0 0 841.9 1190.6;" xml:space="preserve">
<style type="text/css">
	.st0{fill:#FFFFFF;stroke:#000000;stroke-miterlimit:10;}
	.st1{fill:none;stroke:#93278F;stroke-miterlimit:10;}
</style>
<g id="Layer_2">
	<rect class="st0" width="822" height="469.3"/>
</g>
<g id="Layer_1">
	<g>
		<g transform="translate(536,536) rotate(-0.2941) translate(-536,264)">
			<line class="st1" x1="239.1" y1="-729.5" x2="612.4" y2="-710.7"/>
			<line class="st1" x1="238.9" y1="-726.5" x2="612.3" y2="-707.7"/>
			<line class="st1" x1="238.8" y1="-723.5" x2="612.2" y2="-704.7"/>
			<line class="st1" x1="238.7" y1="-720.5" x2="612.1" y2="-701.7"/>
			<line class="st1" x1="238.6" y1="-717.5" x2="612" y2="-698.7"/>
			<line class="st1" x1="238.5" y1="-714.5" x2="611.9" y2="-695.7"/>
			<line class="st1" x1="238.4" y1="-711.5" x2="611.8" y2="-692.8"/>
			<line class="st1" x1="238.3" y1="-708.5" x2="611.7" y2="-689.8"/>
			<line class="st1" x1="238.1" y1="-705.5" x2="611.5" y2="-686.8"/>
			<line class="st1" x1="238" y1="-702.5" x2="611.4" y2="-683.8"/>
			<line class="st1" x1="237.9" y1="-699.5" x2="611.3" y2="-680.8"/>
			<line class="st1" x1="237.8" y1="-696.5" x2="611.2" y2="-677.8"/>
			<line class="st1" x1="237.7" y1="-693.5" x2="611.1" y2="-674.8"/>
			<line class="st1" x1="237.6" y1="-690.5" x2="611" y2="-671.8"/>
			<line class="st1" x1="237.5" y1="-687.5" x2="610.9" y2="-668.8"/>
			<line class="st1" x1="237.4" y1="-684.5" x2="610.7" y2="-665.8"/>
			<line class="st1" x1="237.2" y1="-681.5" x2="610.6" y2="-662.8"/>
			<line class="st1" x1="237.1" y1="-678.5" x2="610.5" y2="-659.8"/>
			<line class="st1" x1="237" y1="-675.5" x2="610.4" y2="-656.8"/>
			<line class="st1" x1="236.9" y1="-672.5" x2="610.3" y2="-653.8"/>
			<line class="st1" x1="236.8" y1="-669.5" x2="610.2" y2="-650.8"/>
			<line class="st1" x1="236.7" y1="-666.5" x2="610.1" y2="-647.8"/>
			<line class="st1" x1="236.6" y1="-663.6" x2="609.9" y2="-644.8"/>
			<line class="st1" x1="236.4" y1="-660.6" x2="609.8" y2="-641.8"/>
			<line class="st1" x1="236.3" y1="-657.6" x2="609.7" y2="-638.8"/>
			<line class="st1" x1="236.2" y1="-654.6" x2="609.6" y2="-635.8"/>
			<line class="st1" x1="236.1" y1="-651.6" x2="609.5" y2="-632.8"/>
			<line class="st1" x1="236" y1="-648.6" x2="609.4" y2="-629.8"/>
			<line class="st1" x1="235.9" y1="-645.6" x2="609.3" y2="-626.8"/>
			<line class="st1" x1="235.8" y1="-642.6" x2="609.1" y2="-623.8"/>
			<line class="st1" x1="235.6" y1="-639.6" x2="609" y2="-620.8"/>
			<line class="st1" x1="235.5" y1="-636.6" x2="608.9" y2="-617.8"/>
			<line class="st1" x1="235.4" y1="-633.6" x2="608.8" y2="-614.8"/>
			<line class="st1" x1="235.3" y1="-630.6" x2="608.7" y2="-611.8"/>
			<line class="st1" x1="235.2" y1="-627.6" x2="608.6" y2="-608.8"/>
			<line class="st1" x1="235.1" y1="-624.6" x2="608.5" y2="-605.8"/>
			<line class="st1" x1="235" y1="-621.6" x2="608.4" y2="-602.8"/>
			<line class="st1" x1="234.8" y1="-618.6" x2="608.2" y2="-599.8"/>
			<line class="st1" x1="234.7" y1="-615.6" x2="608.1" y2="-596.8"/>
			<line class="st1" x1="234.6" y1="-612.6" x2="608" y2="-593.8"/>
			<line class="st1" x1="234.5" y1="-609.6" x2="607.9" y2="-590.8"/>
			<line class="st1" x1="234.4" y1="-606.6" x2="607.8" y2="-587.8"/>
			<line class="st1" x1="234.3" y1="-603.6" x2="607.7" y2="-584.8"/>
			<line class="st1" x1="234.2" y1="-600.6" x2="607.6" y2="-581.8"/>
			<line class="st1" x1="234" y1="-597.6" x2="607.4" y2="-578.8"/>
			<line class="st1" x1="233.9" y1="-594.6" x2="607.3" y2="-575.8"/>
			<line class="st1" x1="233.8" y1="-591.6" x2="607.2" y2="-572.8"/>
			<line class="st1" x1="233.7" y1="-588.6" x2="607.1" y2="-569.8"/>
			<line class="st1" x1="233.6" y1="-585.6" x2="607" y2="-566.8"/>
			<line class="st1" x1="233.5" y1="-582.6" x2="606.9" y2="-563.8"/>
		</g>
	</g>
	<g>
		<line class="st1" x1="199.5" y1="214.2" x2="277.2" y2="222.1"/>
		<line class="st1" x1="199.4" y1="217.2" x2="277.1" y2="225.1"/>
		<line class="st1" x1="199.3" y1="220.2" x2="277" y2="228.1"/>
		<line class="st1" x1="199.2" y1="223.2" x2="276.9" y2="231.1"/>
		<line class="st1" x1="199.1" y1="226.2" x2="276.8" y2="234.1"/>
		<line class="st1" x1="199" y1="229.2" x2="276.7" y2="237.1"/>
		<line class="st1" x1="198.9" y1="232.2" x2="276.6" y2="240.1"/>
		<line class="st1" x1="198.8" y1="235.2" x2="276.5" y2="243.1"/>
		<line class="st1" x1="198.7" y1="238.2" x2="276.5" y2="246.1"/>
		<line class="st1" x1="198.6" y1="241.2" x2="276.4" y2="249.1"/>
		<line class="st1" x1="198.6" y1="244.2" x2="276.3" y2="252.1"/>
		<line class="st1" x1="198.5" y1="247.2" x2="276.2" y2="255.1"/>
		<line class="st1" x1="198.4" y1="250.2" x2="276.1" y2="258.1"/>
		<line class="st1" x1="198.3" y1="253.2" x2="276" y2="261.1"/>
		<line class="st1" x1="198.2" y1="256.2" x2="275.9" y2="264.1"/>
		<line class="st1" x1="198.1" y1="259.2" x2="275.8" y2="267.1"/>
		<line class="st1" x1="198" y1="262.2" x2="275.7" y2="270.1"/>
		<line class="st1" x1="197.9" y1="265.2" x2="275.6" y2="273.1"/>
		<line class="st1" x1="197.8" y1="268.2" x2="275.5" y2="276.1"/>
		<line class="st1" x1="197.7" y1="271.2" x2="275.4" y2="279.1"/>
		<line class="st1" x1="197.6" y1="274.2" x2="275.3" y2="282.1"/>
		<line class="st1" x1="197.5" y1="277.2" x2="275.2" y2="285.1"/>
		<line class="st1" x1="197.4" y1="280.2" x2="275.2" y2="288.1"/>
		<line class="st1" x1="197.3" y1="283.2" x2="275.1" y2="291.1"/>
		<line class="st1" x1="197.3" y1="286.2" x2="275" y2="294.1"/>
		<line class="st1" x1="197.2" y1="289.2" x2="274.9" y2="297.1"/>
		<line class="st1" x1="197.1" y1="292.2" x2="274.8" y2="300.1"/>
		<line class="st1" x1="197" y1="295.2" x2="274.7" y2="303.1"/>
		<line class="st1" x1="196.9" y1="298.2" x2="274.6" y2="306.1"/>
		<line class="st1" x1="196.8" y1="301.2" x2="274.5" y2="309.1"/>
		<line class="st1" x1="196.7" y1="304.2" x2="274.4" y2="312.1"/>
		<line class="st1" x1="196.6" y1="307.2" x2="274.3" y2="315.1"/>
		<line class="st1" x1="196.5" y1="310.2" x2="274.2" y2="318.1"/>
		<line class="st1" x1="196.4" y1="313.2" x2="274.1" y2="321.1"/>
		<line class="st1" x1="196.3" y1="316.2" x2="274" y2="324"/>
		<line class="st1" x1="196.2" y1="319.2" x2="274" y2="327"/>
		<line class="st1" x1="196.1" y1="322.2" x2="273.9" y2="330"/>
		<line class="st1" x1="196.1" y1="325.2" x2="273.8" y2="333"/>
		<line class="st1" x1="196" y1="328.2" x2="273.7" y2="336"/>
		<line class="st1" x1="195.9" y1="331.2" x2="273.6" y2="339"/>
		<line class="st1" x1="195.8" y1="334.2" x2="273.5" y2="342"/>
		<line class="st1" x1="195.7" y1="337.2" x2="273.4" y2="345"/>
		<line class="st1" x1="195.6" y1="340.2" x2="273.3" y2="348"/>
	</g>
	<g>
		<g transform="translate(536,536) rotate(-0.2941) translate(-536,264)">
			<line class="st1" x1="229.7" y1="-455.2" x2="617.7" y2="-477.9"/>
			<line class="st1" x1="229.9" y1="-452.3" x2="617.9" y2="-474.9"/>
			<line class="st1" x1="230.2" y1="-449.3" x2="618.1" y2="-471.9"/>
			<line class="st1" x1="230.4" y1="-446.3" x2="618.3" y2="-468.9"/>
			<line class="st1" x1="230.6" y1="-443.3" x2="618.5" y2="-465.9"/>
			<line class="st1" x1="230.8" y1="-440.3" x2="618.7" y2="-462.9"/>
			<line class="st1" x1="231" y1="-437.3" x2="618.9" y2="-459.9"/>
			<line class="st1" x1="231.2" y1="-434.3" x2="619.1" y2="-457"/>
			<line class="st1" x1="231.4" y1="-431.3" x2="619.3" y2="-454"/>
			<line class="st1" x1="231.6" y1="-428.3" x2="619.5" y2="-451"/>
			<line class="st1" x1="231.8" y1="-425.3" x2="619.7" y2="-448"/>
			<line class="st1" x1="232" y1="-422.3" x2="620" y2="-445"/>
			<line class="st1" x1="232.2" y1="-419.3" x2="620.2" y2="-442"/>
			<line class="st1" x1="232.5" y1="-416.3" x2="620.4" y2="-439"/>
			<line class="st1" x1="232.7" y1="-413.4" x2="620.6" y2="-436"/>
			<line class="st1" x1="232.9" y1="-410.4" x2="620.8" y2="-433"/>
			<line class="st1" x1="233.1" y1="-407.4" x2="621" y2="-430"/>
			<line class="st1" x1="233.3" y1="-404.4" x2="621.2" y2="-427"/>
			<line class="st1" x1="233.5" y1="-401.4" x2="621.4" y2="-424"/>
			<line class="st1" x1="233.7" y1="-398.4" x2="621.6" y2="-421"/>
		</g>
	</g>
</g>
</svg>
