<?xml version="1.0" encoding="utf-8"?>
<!-- Generator: Adobe Illustrator 22.0.0, SVG Export Plug-In . SVG Version: 6.00 Build 0)  -->
<svg version="1.1" xmlns="http://www.w3.org/2000/svg" xmlns:xlink="http://www.w3.org/1999/xlink" x="0px" y="0px"
	 viewBox="0 0 841.9 1190.6" style="enable-background:new 0 0 841.9 1190.6;" xml:space="preserve">
<style type="text/css">
	.st0{fill:#FFFFFF;stroke:#000000;stroke-miterlimit:10;}
	.st1{fill:none;stroke:#000000;stroke-miterlimit:10;}
</style>
<g id="Layer_2">
	<rect class="st0" width="822" height="469.3"/>
</g>
<g id="Layer_1">
	<g>
		<g>
			<g transform="translate(536,536) rotate(-2.442) translate(-536,26)">
				<path class="st1" d="M260.4-543.7"/>
				<path class="st1" d="M260.3-540.7"/>
				<path class="st1" d="M260.2-537.7"/>
				<path class="st1" d="M260.1-534.7"/>
				<path class="st1" d="M259.9-531.7"/>
				<path class="st1" d="M259.8-528.7"/>
				<path class="st1" d="M259.7-525.7"/>
				<path class="st1" d="M259.6-522.7"/>
				<path class="st1" d="M259.5-519.8"/>
				<path class="st1" d="M259.4-516.8"/>
				<path class="st1" d="M259.3-513.8"/>
				<path class="st1" d="M259.1-510.8"/>
				<path class="st1" d="M259-507.8"/>
				<path class="st1" d="M258.9-504.8"/>
				<path class="st1" d="M258.8-501.8"/>
				<path class="st1" d="M258.7-498.8"/>
				<line class="st1" x1="258.6" y1="-495.8" x2="595.5" y2="-522.4"/>
				<line class="st1" x1="258.5" y1="-492.8" x2="595.4" y2="-519.4"/>
				<line class="st1" x1="258.3" y1="-489.8" x2="595.3" y2="-516.4"/>
				<line class="st1" x1="258.2" y1="-486.8" x2="595.2" y2="-513.4"/>
				<line class="st1" x1="258.1" y1="-483.8" x2="595" y2="-510.5"/>
				<line class="st1" x1="258" y1="-480.8" x2="594.9" y2="-507.5"/>
				<line class="st1" x1="257.9" y1="-477.8" x2="594.8" y2="-504.5"/>
				<line class="st1" x1="257.8" y1="-474.8" x2="594.7" y2="-501.5"/>
				<line class="st1" x1="257.7" y1="-471.8" x2="594.6" y2="-498.5"/>
				<line class="st1" x1="257.5" y1="-468.8" x2="594.5" y2="-495.5"/>
				<line class="st1" x1="257.4" y1="-465.8" x2="594.4" y2="-492.5"/>
				<line class="st1" x1="257.3" y1="-462.8" x2="594.2" y2="-489.5"/>
				<line class="st1" x1="257.2" y1="-459.8" x2="594.1" y2="-486.5"/>
				<line class="st1" x1="257.1" y1="-456.8" x2="594" y2="-483.5"/>
				<line class="st1" x1="257" y1="-453.8" x2="593.9" y2="-480.5"/>
				<line class="st1" x1="256.8" y1="-450.9" x2="593.8" y2="-477.5"/>
				<line class="st1" x1="256.7" y1="-447.9" x2="593.7" y2="-474.5"/>
				<line class="st1" x1="256.6" y1="-444.9" x2="593.6" y2="-471.5"/>
				<line class="st1" x1="256.5" y1="-441.9" x2="593.4" y2="-468.5"/>
				<line class="st1" x1="256.4" y1="-438.9" x2="593.3" y2="-465.5"/>
				<line class="st1" x1="256.3" y1="-435.9" x2="593.2" y2="-462.5"/>
				<line class="st1" x1="256.2" y1="-432.9" x2="593.1" y2="-459.5"/>
				<line class="st1" x1="256" y1="-429.9" x2="593" y2="-456.5"/>
			</g>
		</g>
		<g>
			<g transform="translate(536,536) rotate(-2.442) translate(-536,26)">
				<path class="st1" d="M214.3-328.1"/>
				<path class="st1" d="M214-325.1"/>
				<path class="st1" d="M213.8-322.1"/>
				<path class="st1" d="M213.6-319.1"/>
				<path class="st1" d="M213.4-316.2"/>
				<path class="st1" d="M213.1-313.2"/>
				<path class="st1" d="M212.9-310.2"/>
				<path class="st1" d="M212.7-307.2"/>
				<path class="st1" d="M212.4-304.2"/>
				<path class="st1" d="M212.2-301.2"/>
				<path class="st1" d="M212-298.2"/>
				<path class="st1" d="M211.7-295.2"/>
				<path class="st1" d="M211.5-292.2"/>
				<path class="st1" d="M211.3-289.3"/>
				<path class="st1" d="M211.1-286.3"/>
				<path class="st1" d="M210.8-283.3"/>
				<line class="st1" x1="210.6" y1="-280.3" x2="633.5" y2="-283.9"/>
				<line class="st1" x1="210.4" y1="-277.3" x2="633.3" y2="-280.9"/>
				<line class="st1" x1="210.1" y1="-274.3" x2="633.1" y2="-277.9"/>
				<line class="st1" x1="209.9" y1="-271.3" x2="632.9" y2="-274.9"/>
				<line class="st1" x1="209.7" y1="-268.3" x2="632.6" y2="-272"/>
				<line class="st1" x1="209.4" y1="-265.3" x2="632.4" y2="-269"/>
				<line class="st1" x1="209.2" y1="-262.3" x2="632.2" y2="-266"/>
				<line class="st1" x1="209" y1="-259.4" x2="631.9" y2="-263"/>
				<line class="st1" x1="208.8" y1="-256.4" x2="631.7" y2="-260"/>
				<line class="st1" x1="208.5" y1="-253.4" x2="631.5" y2="-257"/>
				<line class="st1" x1="208.3" y1="-250.4" x2="631.3" y2="-254"/>
				<line class="st1" x1="208.1" y1="-247.4" x2="631" y2="-251"/>
				<line class="st1" x1="207.8" y1="-244.4" x2="630.8" y2="-248"/>
				<line class="st1" x1="207.6" y1="-241.4" x2="630.6" y2="-245.1"/>
				<line class="st1" x1="207.4" y1="-238.4" x2="630.3" y2="-242.1"/>
				<line class="st1" x1="207.2" y1="-235.4" x2="630.1" y2="-239.1"/>
				<line class="st1" x1="206.9" y1="-232.5" x2="629.9" y2="-236.1"/>
				<line class="st1" x1="206.7" y1="-229.5" x2="629.6" y2="-233.1"/>
				<line class="st1" x1="206.5" y1="-226.5" x2="629.4" y2="-230.1"/>
				<line class="st1" x1="206.2" y1="-223.5" x2="629.2" y2="-227.1"/>
				<line class="st1" x1="206" y1="-220.5" x2="629" y2="-224.1"/>
				<line class="st1" x1="205.8" y1="-217.5" x2="628.7" y2="-221.1"/>
				<line class="st1" x1="205.5" y1="-214.5" x2="628.5" y2="-218.2"/>
			</g>
		</g>
	</g>
</g>
</svg>
