<?xml version="1.0" encoding="utf-8"?>
<!-- Generator: Adobe Illustrator 22.0.0, SVG Export Plug-In . SVG Version: 6.00 Build 0)  -->
<svg version="1.1" xmlns="http://www.w3.org/2000/svg" xmlns:xlink="http://www.w3.org/1999/xlink" x="0px" y="0px"
	 viewBox="0 0 841.9 1190.6" style="enable-background:new 0 0 841.9 1190.6;" xml:space="preserve">
<style type="text/css">
	.st0{fill:#FFFFFF;stroke:#000000;stroke-miterlimit:10;}
	.st1{fill:none;stroke:#0000FF;stroke-miterlimit:10;}
</style>
<g id="Layer_2">
	<rect class="st0" width="822" height="469.3"/>
</g>
<g id="Layer_1">
	<g>
		<g>
			<g transform="translate(536,536) rotate(-2.442) translate(-536,26)">
				<line class="st1" x1="249.8" y1="-194.3" x2="593.9" y2="-194.4"/>
				<line class="st1" x1="249.5" y1="-191.3" x2="593.6" y2="-191.5"/>
				<line class="st1" x1="249.1" y1="-188.3" x2="593.3" y2="-188.5"/>
				<line class="st1" x1="248.8" y1="-185.4" x2="592.9" y2="-185.5"/>
				<line class="st1" x1="248.5" y1="-182.4" x2="592.6" y2="-182.5"/>
				<line class="st1" x1="248.1" y1="-179.4" x2="592.2" y2="-179.5"/>
				<line class="st1" x1="247.8" y1="-176.4" x2="591.9" y2="-176.6"/>
				<line class="st1" x1="247.4" y1="-173.4" x2="591.6" y2="-173.6"/>
				<line class="st1" x1="247.1" y1="-170.5" x2="591.2" y2="-170.6"/>
				<line class="st1" x1="246.7" y1="-167.5" x2="590.9" y2="-167.6"/>
				<line class="st1" x1="246.4" y1="-164.5" x2="590.5" y2="-164.7"/>
				<line class="st1" x1="246.1" y1="-161.5" x2="590.2" y2="-161.7"/>
				<line class="st1" x1="245.7" y1="-158.6" x2="589.8" y2="-158.7"/>
				<line class="st1" x1="245.4" y1="-155.6" x2="589.5" y2="-155.7"/>
				<line class="st1" x1="245" y1="-152.6" x2="589.2" y2="-152.7"/>
				<line class="st1" x1="244.7" y1="-149.6" x2="588.8" y2="-149.8"/>
				<line class="st1" x1="244.4" y1="-146.6" x2="588.5" y2="-146.8"/>
				<line class="st1" x1="244" y1="-143.7" x2="588.1" y2="-143.8"/>
				<line class="st1" x1="243.7" y1="-140.7" x2="587.8" y2="-140.8"/>
				<line class="st1" x1="243.3" y1="-137.7" x2="587.5" y2="-137.8"/>
				<line class="st1" x1="243" y1="-134.7" x2="587.1" y2="-134.9"/>
			</g>
		</g>
		<g>
			<g transform="translate(536,536) rotate(-2.442) translate(-536,26)">
				<line class="st1" x1="308.2" y1="-569.2" x2="587.6" y2="-551.9"/>
				<line class="st1" x1="307.6" y1="-566.3" x2="587" y2="-549"/>
				<line class="st1" x1="307" y1="-563.3" x2="586.4" y2="-546"/>
				<line class="st1" x1="306.3" y1="-560.4" x2="585.8" y2="-543.1"/>
				<line class="st1" x1="305.7" y1="-557.5" x2="585.1" y2="-540.2"/>
				<line class="st1" x1="305.1" y1="-554.5" x2="584.5" y2="-537.2"/>
				<line class="st1" x1="304.4" y1="-551.6" x2="583.9" y2="-534.3"/>
				<line class="st1" x1="303.8" y1="-548.7" x2="583.3" y2="-531.4"/>
				<line class="st1" x1="303.2" y1="-545.7" x2="582.6" y2="-528.4"/>
				<line class="st1" x1="302.6" y1="-542.8" x2="582" y2="-525.5"/>
				<line class="st1" x1="301.9" y1="-539.9" x2="581.4" y2="-522.6"/>
				<line class="st1" x1="301.3" y1="-537" x2="580.8" y2="-519.6"/>
				<line class="st1" x1="300.7" y1="-534" x2="580.1" y2="-516.7"/>
				<line class="st1" x1="300.1" y1="-531.1" x2="579.5" y2="-513.8"/>
				<line class="st1" x1="299.4" y1="-528.2" x2="578.9" y2="-510.9"/>
				<line class="st1" x1="298.8" y1="-525.2" x2="578.2" y2="-507.9"/>
				<line class="st1" x1="298.2" y1="-522.3" x2="577.6" y2="-505"/>
				<line class="st1" x1="297.6" y1="-519.4" x2="577" y2="-502.1"/>
				<line class="st1" x1="296.9" y1="-516.4" x2="576.4" y2="-499.1"/>
				<line class="st1" x1="296.3" y1="-513.5" x2="575.7" y2="-496.2"/>
				<line class="st1" x1="295.7" y1="-510.6" x2="575.1" y2="-493.3"/>
			</g>
		</g>
		<g transform="translate(379,536) rotate(2.6159) translate(-379,-119)">
			<line class="st1" x1="184" y1="-308.4" x2="607" y2="-295.2"/>
			<line class="st1" x1="184" y1="-305.4" x2="607.1" y2="-292.2"/>
			<line class="st1" x1="184.1" y1="-302.4" x2="607.2" y2="-289.2"/>
			<line class="st1" x1="184.2" y1="-299.4" x2="607.2" y2="-286.2"/>
			<line class="st1" x1="184.3" y1="-296.4" x2="607.3" y2="-283.2"/>
			<line class="st1" x1="184.3" y1="-293.4" x2="607.4" y2="-280.2"/>
			<line class="st1" x1="184.4" y1="-290.4" x2="607.5" y2="-277.2"/>
			<line class="st1" x1="184.5" y1="-287.4" x2="607.5" y2="-274.2"/>
			<line class="st1" x1="184.6" y1="-284.4" x2="607.6" y2="-271.2"/>
			<line class="st1" x1="184.6" y1="-281.4" x2="607.7" y2="-268.2"/>
			<line class="st1" x1="184.7" y1="-278.4" x2="607.8" y2="-265.2"/>
			<line class="st1" x1="184.8" y1="-275.4" x2="607.9" y2="-262.3"/>
			<line class="st1" x1="184.9" y1="-272.4" x2="607.9" y2="-259.3"/>
			<line class="st1" x1="185" y1="-269.4" x2="608" y2="-256.3"/>
			<line class="st1" x1="185" y1="-266.4" x2="608.1" y2="-253.3"/>
			<line class="st1" x1="185.1" y1="-263.4" x2="608.2" y2="-250.3"/>
			<line class="st1" x1="185.2" y1="-260.4" x2="608.2" y2="-247.3"/>
			<line class="st1" x1="185.3" y1="-257.5" x2="608.3" y2="-244.3"/>
			<line class="st1" x1="185.3" y1="-254.5" x2="608.4" y2="-241.3"/>
			<line class="st1" x1="185.4" y1="-251.5" x2="608.5" y2="-238.3"/>
			<line class="st1" x1="185.5" y1="-248.5" x2="608.5" y2="-235.3"/>
			<line class="st1" x1="185.6" y1="-245.5" x2="608.6" y2="-232.3"/>
			<line class="st1" x1="185.6" y1="-242.5" x2="608.7" y2="-229.3"/>
			<line class="st1" x1="185.7" y1="-239.5" x2="608.8" y2="-226.3"/>
			<line class="st1" x1="185.8" y1="-236.5" x2="608.8" y2="-223.3"/>
			<line class="st1" x1="185.9" y1="-233.5" x2="608.9" y2="-220.3"/>
			<line class="st1" x1="185.9" y1="-230.5" x2="609" y2="-217.3"/>
			<line class="st1" x1="186" y1="-227.5" x2="609.1" y2="-214.3"/>
			<line class="st1" x1="186.1" y1="-224.5" x2="609.1" y2="-211.3"/>
			<line class="st1" x1="186.2" y1="-221.5" x2="609.2" y2="-208.3"/>
			<line class="st1" x1="186.2" y1="-218.5" x2="609.3" y2="-205.3"/>
			<line class="st1" x1="186.3" y1="-215.5" x2="609.4" y2="-202.3"/>
			<line class="st1" x1="186.4" y1="-212.5" x2="609.4" y2="-199.3"/>
			<line class="st1" x1="186.5" y1="-209.5" x2="609.5" y2="-196.3"/>
			<line class="st1" x1="186.5" y1="-206.5" x2="609.6" y2="-193.3"/>
			<line class="st1" x1="186.6" y1="-203.5" x2="609.7" y2="-190.3"/>
			<line class="st1" x1="186.7" y1="-200.5" x2="609.7" y2="-187.3"/>
			<line class="st1" x1="186.8" y1="-197.5" x2="609.8" y2="-184.3"/>
			<line class="st1" x1="186.8" y1="-194.5" x2="609.9" y2="-181.3"/>
			<line class="st1" x1="186.9" y1="-191.5" x2="610" y2="-178.3"/>
			<line class="st1" x1="187" y1="-188.5" x2="610" y2="-175.3"/>
			<line class="st1" x1="187.1" y1="-185.5" x2="610.1" y2="-172.3"/>
			<line class="st1" x1="187.1" y1="-182.5" x2="610.2" y2="-169.3"/>
			<line class="st1" x1="187.2" y1="-179.5" x2="610.3" y2="-166.4"/>
			<line class="st1" x1="187.3" y1="-176.5" x2="610.3" y2="-163.4"/>
			<line class="st1" x1="187.4" y1="-173.5" x2="610.4" y2="-160.4"/>
			<line class="st1" x1="187.4" y1="-170.5" x2="610.5" y2="-157.4"/>
			<line class="st1" x1="187.5" y1="-167.5" x2="610.6" y2="-154.4"/>
			<line class="st1" x1="187.6" y1="-164.5" x2="610.6" y2="-151.4"/>
			<line class="st1" x1="187.7" y1="-161.5" x2="610.7" y2="-148.4"/>
			<line class="st1" x1="187.7" y1="-158.6" x2="610.8" y2="-145.4"/>
			<line class="st1" x1="187.8" y1="-155.6" x2="610.9" y2="-142.4"/>
			<line class="st1" x1="187.9" y1="-152.6" x2="611" y2="-139.4"/>
			<line class="st1" x1="188" y1="-149.6" x2="611" y2="-136.4"/>
		</g>
	</g>
</g>
</svg>
