<?xml version="1.0" encoding="utf-8"?>
<!-- Generator: Adobe Illustrator 22.0.0, SVG Export Plug-In . SVG Version: 6.00 Build 0)  -->
<svg version="1.1" xmlns="http://www.w3.org/2000/svg" xmlns:xlink="http://www.w3.org/1999/xlink" x="0px" y="0px"
	 viewBox="0 0 841.9 1190.6" style="enable-background:new 0 0 841.9 1190.6;" xml:space="preserve">
<style type="text/css">
	.st0{fill:#FFFFFF;stroke:#000000;stroke-miterlimit:10;}
	.st1{fill:none;stroke:#000000;stroke-miterlimit:10;}
</style>
<g id="Layer_2">
	<rect class="st0" width="822" height="408.4"/>
	<g>
		<g transform="translate(536,536) rotate(-2.442) translate(-536,26)">
			<line class="st1" x1="272.3" y1="-552.3" x2="551.5" y2="-559.2"/>
			<line class="st1" x1="272" y1="-549.3" x2="551.1" y2="-556.3"/>
			<line class="st1" x1="271.6" y1="-546.3" x2="550.8" y2="-553.3"/>
			<line class="st1" x1="271.2" y1="-543.4" x2="550.4" y2="-550.3"/>
			<line class="st1" x1="270.8" y1="-540.4" x2="550" y2="-547.4"/>
			<line class="st1" x1="270.5" y1="-537.4" x2="549.6" y2="-544.4"/>
			<line class="st1" x1="270.1" y1="-534.4" x2="549.3" y2="-541.4"/>
			<line class="st1" x1="269.7" y1="-531.5" x2="548.9" y2="-538.4"/>
			<line class="st1" x1="269.4" y1="-528.5" x2="548.5" y2="-535.5"/>
			<line class="st1" x1="269" y1="-525.5" x2="548.2" y2="-532.5"/>
			<line class="st1" x1="268.6" y1="-522.5" x2="547.8" y2="-529.5"/>
			<line class="st1" x1="268.2" y1="-519.6" x2="547.4" y2="-526.5"/>
			<line class="st1" x1="267.9" y1="-516.6" x2="547" y2="-523.6"/>
			<line class="st1" x1="267.5" y1="-513.6" x2="546.7" y2="-520.6"/>
			<line class="st1" x1="267.1" y1="-510.6" x2="546.3" y2="-517.6"/>
			<line class="st1" x1="266.8" y1="-507.7" x2="545.9" y2="-514.6"/>
			<line class="st1" x1="266.4" y1="-504.7" x2="545.6" y2="-511.7"/>
			<line class="st1" x1="266" y1="-501.7" x2="545.2" y2="-508.7"/>
			<line class="st1" x1="265.6" y1="-498.7" x2="544.8" y2="-505.7"/>
			<line class="st1" x1="265.3" y1="-495.8" x2="544.4" y2="-502.7"/>
		</g>
	</g>
	<g>
		<g transform="translate(536,536) rotate(-2.442) translate(-536,26)">
			<line class="st1" x1="228.7" y1="-328.5" x2="615.9" y2="-335.7"/>
			<line class="st1" x1="228.4" y1="-325.5" x2="615.6" y2="-332.7"/>
			<line class="st1" x1="228.2" y1="-322.5" x2="615.4" y2="-329.7"/>
			<line class="st1" x1="228" y1="-319.5" x2="615.2" y2="-326.7"/>
			<line class="st1" x1="227.7" y1="-316.5" x2="614.9" y2="-323.7"/>
			<line class="st1" x1="227.5" y1="-313.5" x2="614.7" y2="-320.7"/>
			<line class="st1" x1="227.3" y1="-310.5" x2="614.5" y2="-317.7"/>
			<line class="st1" x1="227" y1="-307.6" x2="614.2" y2="-314.8"/>
			<line class="st1" x1="226.8" y1="-304.6" x2="614" y2="-311.8"/>
			<line class="st1" x1="226.5" y1="-301.6" x2="613.7" y2="-308.8"/>
			<line class="st1" x1="226.3" y1="-298.6" x2="613.5" y2="-305.8"/>
			<line class="st1" x1="226.1" y1="-295.6" x2="613.3" y2="-302.8"/>
			<line class="st1" x1="225.8" y1="-292.6" x2="613" y2="-299.8"/>
			<line class="st1" x1="225.6" y1="-289.6" x2="612.8" y2="-296.8"/>
			<line class="st1" x1="225.4" y1="-286.6" x2="612.6" y2="-293.8"/>
			<line class="st1" x1="225.1" y1="-283.6" x2="612.3" y2="-290.8"/>
			<line class="st1" x1="224.9" y1="-280.7" x2="612.1" y2="-287.9"/>
			<line class="st1" x1="224.7" y1="-277.7" x2="611.9" y2="-284.9"/>
			<line class="st1" x1="224.4" y1="-274.7" x2="611.6" y2="-281.9"/>
			<line class="st1" x1="224.2" y1="-271.7" x2="611.4" y2="-278.9"/>
			<line class="st1" x1="224" y1="-268.7" x2="611.2" y2="-275.9"/>
			<line class="st1" x1="223.7" y1="-265.7" x2="610.9" y2="-272.9"/>
			<line class="st1" x1="223.5" y1="-262.7" x2="610.7" y2="-269.9"/>
		</g>
	</g>
</g>
<g id="Layer_1">
</g>
</svg>
