<?xml version="1.0" encoding="utf-8"?>
<!-- Generator: Adobe Illustrator 22.0.0, SVG Export Plug-In . SVG Version: 6.00 Build 0)  -->
<svg version="1.1" xmlns="http://www.w3.org/2000/svg" xmlns:xlink="http://www.w3.org/1999/xlink" x="0px" y="0px"
	 viewBox="0 0 841.9 1190.6" style="enable-background:new 0 0 841.9 1190.6;" xml:space="preserve">
<style type="text/css">
	.st0{fill:#FFFFFF;stroke:#000000;stroke-miterlimit:10;}
	.st1{fill:none;stroke:#93278F;stroke-miterlimit:10;}
</style>
<g id="Layer_2">
	<rect class="st0" width="822" height="408.4"/>
	<g>
		<g transform="translate(536,536) rotate(-0.2941) translate(-536,264)">
			<line class="st1" x1="241.8" y1="-763.7" x2="591.2" y2="-745.8"/>
			<line class="st1" x1="241.7" y1="-760.7" x2="591.1" y2="-742.8"/>
			<line class="st1" x1="241.5" y1="-757.7" x2="591" y2="-739.8"/>
			<line class="st1" x1="241.4" y1="-754.7" x2="590.9" y2="-736.8"/>
			<line class="st1" x1="241.3" y1="-751.7" x2="590.8" y2="-733.8"/>
			<line class="st1" x1="241.2" y1="-748.7" x2="590.7" y2="-730.8"/>
			<line class="st1" x1="241.1" y1="-745.7" x2="590.6" y2="-727.8"/>
			<line class="st1" x1="241" y1="-742.7" x2="590.5" y2="-724.8"/>
			<line class="st1" x1="240.9" y1="-739.7" x2="590.3" y2="-721.8"/>
			<line class="st1" x1="240.7" y1="-736.7" x2="590.2" y2="-718.8"/>
			<line class="st1" x1="240.6" y1="-733.7" x2="590.1" y2="-715.8"/>
			<line class="st1" x1="240.5" y1="-730.7" x2="590" y2="-712.8"/>
			<line class="st1" x1="240.4" y1="-727.7" x2="589.9" y2="-709.8"/>
			<line class="st1" x1="240.3" y1="-724.7" x2="589.8" y2="-706.8"/>
			<line class="st1" x1="240.2" y1="-721.7" x2="589.7" y2="-703.8"/>
			<line class="st1" x1="240.1" y1="-718.7" x2="589.5" y2="-700.8"/>
			<line class="st1" x1="239.9" y1="-715.7" x2="589.4" y2="-697.8"/>
			<line class="st1" x1="239.8" y1="-712.8" x2="589.3" y2="-694.8"/>
			<line class="st1" x1="239.7" y1="-709.8" x2="589.2" y2="-691.8"/>
			<line class="st1" x1="239.6" y1="-706.8" x2="589.1" y2="-688.8"/>
			<line class="st1" x1="239.5" y1="-703.8" x2="589" y2="-685.8"/>
			<line class="st1" x1="239.4" y1="-700.8" x2="588.9" y2="-682.8"/>
			<line class="st1" x1="239.3" y1="-697.8" x2="588.8" y2="-679.8"/>
			<line class="st1" x1="239.2" y1="-694.8" x2="588.6" y2="-676.8"/>
			<line class="st1" x1="239" y1="-691.8" x2="588.5" y2="-673.8"/>
			<line class="st1" x1="238.9" y1="-688.8" x2="588.4" y2="-670.9"/>
			<line class="st1" x1="238.8" y1="-685.8" x2="588.3" y2="-667.9"/>
			<line class="st1" x1="238.7" y1="-682.8" x2="588.2" y2="-664.9"/>
			<line class="st1" x1="238.6" y1="-679.8" x2="588.1" y2="-661.9"/>
			<line class="st1" x1="238.5" y1="-676.8" x2="588" y2="-658.9"/>
			<line class="st1" x1="238.4" y1="-673.8" x2="587.8" y2="-655.9"/>
			<line class="st1" x1="238.2" y1="-670.8" x2="587.7" y2="-652.9"/>
			<line class="st1" x1="238.1" y1="-667.8" x2="587.6" y2="-649.9"/>
			<line class="st1" x1="238" y1="-664.8" x2="587.5" y2="-646.9"/>
			<line class="st1" x1="237.9" y1="-661.8" x2="587.4" y2="-643.9"/>
			<line class="st1" x1="237.8" y1="-658.8" x2="587.3" y2="-640.9"/>
			<line class="st1" x1="237.7" y1="-655.8" x2="587.2" y2="-637.9"/>
			<line class="st1" x1="237.6" y1="-652.8" x2="587.1" y2="-634.9"/>
			<line class="st1" x1="237.5" y1="-649.8" x2="586.9" y2="-631.9"/>
			<line class="st1" x1="237.3" y1="-646.8" x2="586.8" y2="-628.9"/>
			<line class="st1" x1="237.2" y1="-643.8" x2="586.7" y2="-625.9"/>
			<line class="st1" x1="237.1" y1="-640.8" x2="586.6" y2="-622.9"/>
			<line class="st1" x1="237" y1="-637.8" x2="586.5" y2="-619.9"/>
			<line class="st1" x1="236.9" y1="-634.8" x2="586.4" y2="-616.9"/>
			<line class="st1" x1="236.8" y1="-631.8" x2="586.3" y2="-613.9"/>
			<line class="st1" x1="236.7" y1="-628.8" x2="586.1" y2="-610.9"/>
			<line class="st1" x1="236.5" y1="-625.8" x2="586" y2="-607.9"/>
			<line class="st1" x1="236.4" y1="-622.8" x2="585.9" y2="-604.9"/>
			<line class="st1" x1="236.3" y1="-619.8" x2="585.8" y2="-601.9"/>
			<line class="st1" x1="236.2" y1="-616.8" x2="585.7" y2="-598.9"/>
		</g>
	</g>
	<g>
		<g transform="translate(536,536) rotate(-0.2941) translate(-536,264)">
			<line class="st1" x1="230" y1="-516.2" x2="618" y2="-538.9"/>
			<line class="st1" x1="230.3" y1="-513.2" x2="618.2" y2="-535.9"/>
			<line class="st1" x1="230.5" y1="-510.2" x2="618.4" y2="-532.9"/>
			<line class="st1" x1="230.7" y1="-507.2" x2="618.6" y2="-529.9"/>
			<line class="st1" x1="230.9" y1="-504.2" x2="618.8" y2="-526.9"/>
			<line class="st1" x1="231.1" y1="-501.3" x2="619" y2="-523.9"/>
			<line class="st1" x1="231.3" y1="-498.3" x2="619.2" y2="-520.9"/>
			<line class="st1" x1="231.5" y1="-495.3" x2="619.4" y2="-517.9"/>
			<line class="st1" x1="231.7" y1="-492.3" x2="619.6" y2="-514.9"/>
			<line class="st1" x1="231.9" y1="-489.3" x2="619.9" y2="-511.9"/>
			<line class="st1" x1="232.1" y1="-486.3" x2="620.1" y2="-508.9"/>
			<line class="st1" x1="232.4" y1="-483.3" x2="620.3" y2="-505.9"/>
			<line class="st1" x1="232.6" y1="-480.3" x2="620.5" y2="-503"/>
			<line class="st1" x1="232.8" y1="-477.3" x2="620.7" y2="-500"/>
			<line class="st1" x1="233" y1="-474.3" x2="620.9" y2="-497"/>
			<line class="st1" x1="233.2" y1="-471.3" x2="621.1" y2="-494"/>
			<line class="st1" x1="233.4" y1="-468.3" x2="621.3" y2="-491"/>
			<line class="st1" x1="233.6" y1="-465.3" x2="621.5" y2="-488"/>
			<line class="st1" x1="233.8" y1="-462.3" x2="621.7" y2="-485"/>
			<line class="st1" x1="234" y1="-459.4" x2="621.9" y2="-482"/>
		</g>
	</g>
</g>
<g id="Layer_1">
</g>
</svg>
