<?xml version="1.0" encoding="utf-8"?>
<!-- Generator: Adobe Illustrator 22.0.0, SVG Export Plug-In . SVG Version: 6.00 Build 0)  -->
<svg version="1.1" id="Layer_1" xmlns="http://www.w3.org/2000/svg" xmlns:xlink="http://www.w3.org/1999/xlink" x="0px" y="0px"
	 viewBox="0 0 841.9 1190.6" style="enable-background:new 0 0 841.9 1190.6;" xml:space="preserve">
<style type="text/css">
	.st0{fill:#FFFFFF;stroke:#000000;stroke-miterlimit:10;}
	.st1{fill:none;stroke:#0000FF;stroke-miterlimit:10;}
</style>
<g id="Layer_2_1_">
	<rect y="0" class="st0" width="822" height="408.4"/>
	<g>
		<g transform="translate(536,536) rotate(-2.442) translate(-536,26)">
			<line class="st1" x1="262" y1="-244.8" x2="551.7" y2="-252.2"/>
			<line class="st1" x1="261.6" y1="-241.8" x2="551.3" y2="-249.2"/>
			<line class="st1" x1="261.3" y1="-238.8" x2="551" y2="-246.2"/>
			<line class="st1" x1="260.9" y1="-235.9" x2="550.6" y2="-243.3"/>
			<line class="st1" x1="260.6" y1="-232.9" x2="550.3" y2="-240.3"/>
			<line class="st1" x1="260.2" y1="-229.9" x2="549.9" y2="-237.3"/>
			<line class="st1" x1="259.9" y1="-226.9" x2="549.6" y2="-234.3"/>
			<line class="st1" x1="259.5" y1="-223.9" x2="549.2" y2="-231.4"/>
			<line class="st1" x1="259.2" y1="-221" x2="548.9" y2="-228.4"/>
			<line class="st1" x1="258.8" y1="-218" x2="548.5" y2="-225.4"/>
			<line class="st1" x1="258.5" y1="-215" x2="548.2" y2="-222.4"/>
			<line class="st1" x1="258.1" y1="-212" x2="547.8" y2="-219.4"/>
			<line class="st1" x1="257.8" y1="-209.1" x2="547.5" y2="-216.5"/>
			<line class="st1" x1="257.4" y1="-206.1" x2="547.1" y2="-213.5"/>
			<line class="st1" x1="257.1" y1="-203.1" x2="546.8" y2="-210.5"/>
			<line class="st1" x1="256.7" y1="-200.1" x2="546.4" y2="-207.5"/>
			<line class="st1" x1="256.4" y1="-197.2" x2="546.1" y2="-204.6"/>
			<line class="st1" x1="256" y1="-194.2" x2="545.7" y2="-201.6"/>
			<line class="st1" x1="255.7" y1="-191.2" x2="545.4" y2="-198.6"/>
			<line class="st1" x1="255.3" y1="-188.2" x2="545" y2="-195.6"/>
			<line class="st1" x1="255" y1="-185.2" x2="544.7" y2="-192.7"/>
		</g>
	</g>
	<g>
		<g transform="translate(536,536) rotate(-2.442) translate(-536,26)">
			<line class="st1" x1="274.3" y1="-533.7" x2="564" y2="-541.1"/>
			<line class="st1" x1="273.9" y1="-530.7" x2="563.6" y2="-538.1"/>
			<line class="st1" x1="273.6" y1="-527.7" x2="563.3" y2="-535.1"/>
			<line class="st1" x1="273.2" y1="-524.8" x2="562.9" y2="-532.2"/>
			<line class="st1" x1="272.9" y1="-521.8" x2="562.6" y2="-529.2"/>
			<line class="st1" x1="272.5" y1="-518.8" x2="562.2" y2="-526.2"/>
			<line class="st1" x1="272.2" y1="-515.8" x2="561.9" y2="-523.2"/>
			<line class="st1" x1="271.8" y1="-512.8" x2="561.5" y2="-520.3"/>
			<line class="st1" x1="271.5" y1="-509.9" x2="561.2" y2="-517.3"/>
			<line class="st1" x1="271.1" y1="-506.9" x2="560.8" y2="-514.3"/>
			<line class="st1" x1="270.8" y1="-503.9" x2="560.5" y2="-511.3"/>
			<line class="st1" x1="270.4" y1="-500.9" x2="560.1" y2="-508.3"/>
			<line class="st1" x1="270.1" y1="-498" x2="559.8" y2="-505.4"/>
			<line class="st1" x1="269.7" y1="-495" x2="559.4" y2="-502.4"/>
			<line class="st1" x1="269.4" y1="-492" x2="559.1" y2="-499.4"/>
			<line class="st1" x1="269" y1="-489" x2="558.7" y2="-496.4"/>
			<line class="st1" x1="268.7" y1="-486.1" x2="558.4" y2="-493.5"/>
			<line class="st1" x1="268.3" y1="-483.1" x2="558" y2="-490.5"/>
			<line class="st1" x1="268" y1="-480.1" x2="557.7" y2="-487.5"/>
			<line class="st1" x1="267.6" y1="-477.1" x2="557.3" y2="-484.5"/>
			<line class="st1" x1="267.3" y1="-474.1" x2="557" y2="-481.6"/>
		</g>
	</g>
	<g transform="translate(379,536) rotate(2.6159) translate(-379,-119)">
		<line class="st1" x1="191.3" y1="-328.5" x2="578" y2="-313.4"/>
		<line class="st1" x1="191.4" y1="-325.5" x2="578.1" y2="-310.5"/>
		<line class="st1" x1="191.5" y1="-322.5" x2="578.2" y2="-307.5"/>
		<line class="st1" x1="191.6" y1="-319.5" x2="578.3" y2="-304.5"/>
		<line class="st1" x1="191.7" y1="-316.5" x2="578.4" y2="-301.5"/>
		<line class="st1" x1="191.7" y1="-313.5" x2="578.5" y2="-298.5"/>
		<line class="st1" x1="191.8" y1="-310.5" x2="578.5" y2="-295.5"/>
		<line class="st1" x1="191.9" y1="-307.5" x2="578.6" y2="-292.5"/>
		<line class="st1" x1="192" y1="-304.5" x2="578.7" y2="-289.5"/>
		<line class="st1" x1="192.1" y1="-301.5" x2="578.8" y2="-286.5"/>
		<line class="st1" x1="192.2" y1="-298.5" x2="578.9" y2="-283.5"/>
		<line class="st1" x1="192.2" y1="-295.5" x2="578.9" y2="-280.5"/>
		<line class="st1" x1="192.3" y1="-292.5" x2="579" y2="-277.5"/>
		<line class="st1" x1="192.4" y1="-289.5" x2="579.1" y2="-274.5"/>
		<line class="st1" x1="192.5" y1="-286.5" x2="579.2" y2="-271.5"/>
		<line class="st1" x1="192.6" y1="-283.5" x2="579.3" y2="-268.5"/>
		<line class="st1" x1="192.6" y1="-280.5" x2="579.4" y2="-265.5"/>
		<line class="st1" x1="192.7" y1="-277.5" x2="579.4" y2="-262.5"/>
		<line class="st1" x1="192.8" y1="-274.5" x2="579.5" y2="-259.5"/>
		<line class="st1" x1="192.9" y1="-271.5" x2="579.6" y2="-256.5"/>
		<line class="st1" x1="193" y1="-268.5" x2="579.7" y2="-253.5"/>
		<line class="st1" x1="193.1" y1="-265.5" x2="579.8" y2="-250.5"/>
		<line class="st1" x1="193.1" y1="-262.5" x2="579.8" y2="-247.5"/>
		<line class="st1" x1="193.2" y1="-259.6" x2="579.9" y2="-244.5"/>
		<line class="st1" x1="193.3" y1="-256.6" x2="580" y2="-241.5"/>
		<line class="st1" x1="193.4" y1="-253.6" x2="580.1" y2="-238.5"/>
		<line class="st1" x1="193.5" y1="-250.6" x2="580.2" y2="-235.5"/>
		<line class="st1" x1="193.6" y1="-247.6" x2="580.3" y2="-232.5"/>
		<line class="st1" x1="193.6" y1="-244.6" x2="580.3" y2="-229.5"/>
		<line class="st1" x1="193.7" y1="-241.6" x2="580.4" y2="-226.5"/>
		<line class="st1" x1="193.8" y1="-238.6" x2="580.5" y2="-223.6"/>
		<line class="st1" x1="193.9" y1="-235.6" x2="580.6" y2="-220.6"/>
		<line class="st1" x1="194" y1="-232.6" x2="580.7" y2="-217.6"/>
		<line class="st1" x1="194" y1="-229.6" x2="580.8" y2="-214.6"/>
		<line class="st1" x1="194.1" y1="-226.6" x2="580.8" y2="-211.6"/>
		<line class="st1" x1="194.2" y1="-223.6" x2="580.9" y2="-208.6"/>
		<line class="st1" x1="194.3" y1="-220.6" x2="581" y2="-205.6"/>
		<line class="st1" x1="194.4" y1="-217.6" x2="581.1" y2="-202.6"/>
		<line class="st1" x1="194.5" y1="-214.6" x2="581.2" y2="-199.6"/>
		<line class="st1" x1="194.5" y1="-211.6" x2="581.2" y2="-196.6"/>
		<line class="st1" x1="194.6" y1="-208.6" x2="581.3" y2="-193.6"/>
		<line class="st1" x1="194.7" y1="-205.6" x2="581.4" y2="-190.6"/>
		<line class="st1" x1="194.8" y1="-202.6" x2="581.5" y2="-187.6"/>
		<line class="st1" x1="194.9" y1="-199.6" x2="581.6" y2="-184.6"/>
		<line class="st1" x1="195" y1="-196.6" x2="581.7" y2="-181.6"/>
		<line class="st1" x1="195" y1="-193.6" x2="581.7" y2="-178.6"/>
		<line class="st1" x1="195.1" y1="-190.6" x2="581.8" y2="-175.6"/>
		<line class="st1" x1="195.2" y1="-187.6" x2="581.9" y2="-172.6"/>
		<line class="st1" x1="195.3" y1="-184.6" x2="582" y2="-169.6"/>
		<line class="st1" x1="195.4" y1="-181.6" x2="582.1" y2="-166.6"/>
		<line class="st1" x1="195.4" y1="-178.6" x2="582.2" y2="-163.6"/>
		<line class="st1" x1="195.5" y1="-175.6" x2="582.2" y2="-160.6"/>
		<line class="st1" x1="195.6" y1="-172.7" x2="582.3" y2="-157.6"/>
		<line class="st1" x1="195.7" y1="-169.7" x2="582.4" y2="-154.6"/>
	</g>
</g>
<g id="Layer_1_1_">
</g>
</svg>
