<?xml version="1.0" encoding="utf-8"?>
<!-- Generator: Adobe Illustrator 22.0.0, SVG Export Plug-In . SVG Version: 6.00 Build 0)  -->
<svg version="1.1" id="Layer_1" xmlns="http://www.w3.org/2000/svg" xmlns:xlink="http://www.w3.org/1999/xlink" x="0px" y="0px"
	 viewBox="0 0 841.9 1190.6" style="enable-background:new 0 0 841.9 1190.6;" xml:space="preserve">
<style type="text/css">
	.st0{fill:#FFFFFF;stroke:#000000;stroke-miterlimit:10;}
	.st1{fill:none;stroke:#000000;stroke-miterlimit:10;}
</style>
<rect class="st0" width="462" height="323.5"/>
<g>
	<g>
		<g transform="translate(536,536) rotate(-2.442) translate(-536,26)">
			<line class="st1" x1="91.2" y1="-561.8" x2="370.4" y2="-568.8"/>
			<line class="st1" x1="90.9" y1="-558.9" x2="370.1" y2="-565.8"/>
			<line class="st1" x1="90.5" y1="-555.9" x2="369.7" y2="-562.9"/>
			<line class="st1" x1="90.1" y1="-552.9" x2="369.3" y2="-559.9"/>
			<line class="st1" x1="89.8" y1="-549.9" x2="368.9" y2="-556.9"/>
			<line class="st1" x1="89.4" y1="-547" x2="368.6" y2="-553.9"/>
			<line class="st1" x1="89" y1="-544" x2="368.2" y2="-551"/>
			<line class="st1" x1="88.6" y1="-541" x2="367.8" y2="-548"/>
			<line class="st1" x1="88.3" y1="-538" x2="367.5" y2="-545"/>
			<line class="st1" x1="87.9" y1="-535.1" x2="367.1" y2="-542"/>
			<line class="st1" x1="87.5" y1="-532.1" x2="366.7" y2="-539.1"/>
			<line class="st1" x1="87.2" y1="-529.1" x2="366.3" y2="-536.1"/>
			<line class="st1" x1="86.8" y1="-526.1" x2="366" y2="-533.1"/>
			<line class="st1" x1="86.4" y1="-523.2" x2="365.6" y2="-530.1"/>
			<line class="st1" x1="86" y1="-520.2" x2="365.2" y2="-527.2"/>
			<line class="st1" x1="85.7" y1="-517.2" x2="364.9" y2="-524.2"/>
			<line class="st1" x1="85.3" y1="-514.2" x2="364.5" y2="-521.2"/>
			<line class="st1" x1="84.9" y1="-511.3" x2="364.1" y2="-518.2"/>
			<line class="st1" x1="84.6" y1="-508.3" x2="363.7" y2="-515.3"/>
			<line class="st1" x1="84.2" y1="-505.3" x2="363.4" y2="-512.3"/>
		</g>
	</g>
	<g>
		<g transform="translate(536,536) rotate(-2.442) translate(-536,26)">
			<line class="st1" x1="82.6" y1="-425.2" x2="415.2" y2="-437.9"/>
			<line class="st1" x1="82.3" y1="-422.2" x2="415" y2="-434.9"/>
			<line class="st1" x1="82.1" y1="-419.2" x2="414.8" y2="-431.9"/>
			<line class="st1" x1="81.8" y1="-416.3" x2="414.5" y2="-428.9"/>
			<line class="st1" x1="81.6" y1="-413.3" x2="414.3" y2="-425.9"/>
			<line class="st1" x1="81.4" y1="-410.3" x2="414" y2="-422.9"/>
			<line class="st1" x1="81.1" y1="-407.3" x2="413.8" y2="-419.9"/>
			<line class="st1" x1="80.9" y1="-404.3" x2="413.5" y2="-417"/>
			<line class="st1" x1="80.6" y1="-401.3" x2="413.3" y2="-414"/>
			<line class="st1" x1="80.4" y1="-398.3" x2="413" y2="-411"/>
			<line class="st1" x1="80.1" y1="-395.3" x2="412.8" y2="-408"/>
			<line class="st1" x1="79.9" y1="-392.4" x2="412.6" y2="-405"/>
			<line class="st1" x1="79.6" y1="-389.4" x2="412.3" y2="-402"/>
			<line class="st1" x1="79.4" y1="-386.4" x2="412.1" y2="-399"/>
			<line class="st1" x1="79.2" y1="-383.4" x2="411.8" y2="-396"/>
			<line class="st1" x1="78.9" y1="-380.4" x2="411.6" y2="-393.1"/>
			<line class="st1" x1="78.7" y1="-377.4" x2="411.3" y2="-390.1"/>
			<line class="st1" x1="78.4" y1="-374.4" x2="411.1" y2="-387.1"/>
			<line class="st1" x1="78.2" y1="-371.4" x2="410.8" y2="-384.1"/>
			<line class="st1" x1="77.9" y1="-368.4" x2="410.6" y2="-381.1"/>
			<line class="st1" x1="77.7" y1="-365.5" x2="410.4" y2="-378.1"/>
			<line class="st1" x1="77.4" y1="-362.5" x2="410.1" y2="-375.1"/>
			<line class="st1" x1="77.2" y1="-359.5" x2="409.9" y2="-372.1"/>
		</g>
	</g>
</g>
</svg>
