<?xml version="1.0" encoding="utf-8"?>
<!-- Generator: Adobe Illustrator 22.0.0, SVG Export Plug-In . SVG Version: 6.00 Build 0)  -->
<svg version="1.1" id="Layer_1" xmlns="http://www.w3.org/2000/svg" xmlns:xlink="http://www.w3.org/1999/xlink" x="0px" y="0px"
	 viewBox="0 0 841.9 1190.6" style="enable-background:new 0 0 841.9 1190.6;" xml:space="preserve">
<style type="text/css">
	.st0{fill:#FFFFFF;stroke:#000000;stroke-miterlimit:10;}
	.st1{fill:none;stroke:#6B48FF;stroke-linecap:round;stroke-miterlimit:10;}
	.st2{fill:none;stroke:#0000FF;stroke-miterlimit:10;}
</style>
<rect class="st0" width="462" height="323.5"/>
<g>
	<g>
		<g transform="translate(536,536) rotate(2.9352) translate(-536,-323)">
			<line class="st1" x1="44.9" y1="-121.9" x2="344.5" y2="-198.3"/>
			<line class="st1" x1="45.2" y1="-119" x2="344.8" y2="-195.3"/>
			<line class="st1" x1="45.4" y1="-116" x2="345.1" y2="-192.3"/>
			<line class="st1" x1="45.7" y1="-113" x2="345.3" y2="-189.3"/>
			<line class="st1" x1="45.9" y1="-110" x2="345.6" y2="-186.3"/>
			<line class="st1" x1="46.2" y1="-107" x2="345.8" y2="-183.3"/>
			<line class="st1" x1="46.5" y1="-104" x2="346.1" y2="-180.3"/>
			<line class="st1" x1="46.7" y1="-101" x2="346.3" y2="-177.4"/>
			<line class="st1" x1="47" y1="-98.1" x2="346.6" y2="-174.4"/>
			<line class="st1" x1="47.2" y1="-95.1" x2="346.8" y2="-171.4"/>
			<line class="st1" x1="47.5" y1="-92.1" x2="347.1" y2="-168.4"/>
			<line class="st1" x1="47.7" y1="-89.1" x2="347.4" y2="-165.4"/>
			<line class="st1" x1="48" y1="-86.1" x2="347.6" y2="-162.4"/>
			<line class="st1" x1="48.3" y1="-83.1" x2="347.9" y2="-159.4"/>
			<line class="st1" x1="48.5" y1="-80.1" x2="348.1" y2="-156.5"/>
			<line class="st1" x1="48.8" y1="-77.2" x2="348.4" y2="-153.5"/>
			<line class="st1" x1="49" y1="-74.2" x2="348.6" y2="-150.5"/>
			<line class="st1" x1="49.3" y1="-71.2" x2="348.9" y2="-147.5"/>
			<line class="st1" x1="49.5" y1="-68.2" x2="349.2" y2="-144.5"/>
			<line class="st1" x1="49.8" y1="-65.2" x2="349.4" y2="-141.5"/>
			<line class="st1" x1="50" y1="-62.2" x2="349.7" y2="-138.5"/>
			<line class="st1" x1="50.3" y1="-59.2" x2="349.9" y2="-135.6"/>
			<line class="st1" x1="50.6" y1="-56.3" x2="350.2" y2="-132.6"/>
			<line class="st1" x1="50.8" y1="-53.3" x2="350.4" y2="-129.6"/>
			<line class="st1" x1="51.1" y1="-50.3" x2="350.7" y2="-126.6"/>
			<line class="st1" x1="51.3" y1="-47.3" x2="350.9" y2="-123.6"/>
			<line class="st1" x1="51.6" y1="-44.3" x2="351.2" y2="-120.6"/>
			<line class="st1" x1="51.8" y1="-41.3" x2="351.5" y2="-117.6"/>
			<line class="st1" x1="52.1" y1="-38.3" x2="351.7" y2="-114.7"/>
			<line class="st1" x1="52.3" y1="-35.4" x2="352" y2="-111.7"/>
			<line class="st1" x1="52.6" y1="-32.4" x2="352.2" y2="-108.7"/>
			<line class="st1" x1="52.9" y1="-29.4" x2="352.5" y2="-105.7"/>
			<line class="st1" x1="53.1" y1="-26.4" x2="352.7" y2="-102.7"/>
			<line class="st1" x1="53.4" y1="-23.4" x2="353" y2="-99.7"/>
			<line class="st1" x1="53.6" y1="-20.4" x2="353.2" y2="-96.7"/>
			<line class="st1" x1="53.9" y1="-17.5" x2="353.5" y2="-93.8"/>
			<line class="st1" x1="54.1" y1="-14.5" x2="353.8" y2="-90.8"/>
			<line class="st1" x1="54.4" y1="-11.5" x2="354" y2="-87.8"/>
			<line class="st1" x1="54.6" y1="-8.5" x2="354.3" y2="-84.8"/>
			<line class="st1" x1="54.9" y1="-5.5" x2="354.5" y2="-81.8"/>
			<line class="st1" x1="55.2" y1="-2.5" x2="354.8" y2="-78.8"/>
			<line class="st1" x1="55.4" y1="0.5" x2="355" y2="-75.9"/>
			<line class="st1" x1="55.7" y1="3.4" x2="355.3" y2="-72.9"/>
			<line class="st1" x1="55.9" y1="6.4" x2="355.5" y2="-69.9"/>
			<line class="st1" x1="56.2" y1="9.4" x2="355.8" y2="-66.9"/>
			<line class="st1" x1="56.4" y1="12.4" x2="356.1" y2="-63.9"/>
			<line class="st1" x1="56.7" y1="15.4" x2="356.3" y2="-60.9"/>
			<line class="st1" x1="56.9" y1="18.4" x2="356.6" y2="-57.9"/>
			<line class="st1" x1="57.2" y1="21.4" x2="356.8" y2="-55"/>
			<line class="st1" x1="57.5" y1="24.3" x2="357.1" y2="-52"/>
			<line class="st1" x1="57.7" y1="27.3" x2="357.3" y2="-49"/>
			<line class="st1" x1="58" y1="30.3" x2="357.6" y2="-46"/>
			<line class="st1" x1="58.2" y1="33.3" x2="357.8" y2="-43"/>
			<line class="st1" x1="58.5" y1="36.3" x2="358.1" y2="-40"/>
			<line class="st1" x1="58.7" y1="39.3" x2="358.4" y2="-37"/>
			<line class="st1" x1="59" y1="42.3" x2="358.6" y2="-34.1"/>
		</g>
	</g>
	<g>
		<g transform="translate(536,536) rotate(-2.442) translate(-536,26)">
			<line class="st2" x1="135" y1="-330.7" x2="375.6" y2="-344.6"/>
			<line class="st2" x1="134.6" y1="-327.7" x2="375.3" y2="-341.6"/>
			<line class="st2" x1="134.2" y1="-324.7" x2="374.9" y2="-338.7"/>
			<line class="st2" x1="133.9" y1="-321.7" x2="374.5" y2="-335.7"/>
			<line class="st2" x1="133.5" y1="-318.8" x2="374.2" y2="-332.7"/>
			<line class="st2" x1="133.2" y1="-315.8" x2="373.8" y2="-329.7"/>
			<line class="st2" x1="132.8" y1="-312.8" x2="373.5" y2="-326.8"/>
			<line class="st2" x1="132.4" y1="-309.8" x2="373.1" y2="-323.8"/>
			<line class="st2" x1="132.1" y1="-306.8" x2="372.7" y2="-320.8"/>
			<line class="st2" x1="131.7" y1="-303.9" x2="372.4" y2="-317.8"/>
			<line class="st2" x1="131.4" y1="-300.9" x2="372" y2="-314.8"/>
			<line class="st2" x1="131" y1="-297.9" x2="371.7" y2="-311.9"/>
			<line class="st2" x1="130.7" y1="-294.9" x2="371.3" y2="-308.9"/>
			<line class="st2" x1="130.3" y1="-292" x2="371" y2="-305.9"/>
			<line class="st2" x1="129.9" y1="-289" x2="370.6" y2="-302.9"/>
			<line class="st2" x1="129.6" y1="-286" x2="370.2" y2="-300"/>
			<line class="st2" x1="129.2" y1="-283" x2="369.9" y2="-297"/>
			<line class="st2" x1="128.9" y1="-280.1" x2="369.5" y2="-294"/>
			<line class="st2" x1="128.5" y1="-277.1" x2="369.2" y2="-291"/>
			<line class="st2" x1="128.1" y1="-274.1" x2="368.8" y2="-288.1"/>
			<line class="st2" x1="127.8" y1="-271.1" x2="368.4" y2="-285.1"/>
		</g>
	</g>
</g>
</svg>
