<?xml version="1.0" encoding="utf-8"?>
<!-- Generator: Adobe Illustrator 22.0.0, SVG Export Plug-In . SVG Version: 6.00 Build 0)  -->
<svg version="1.1" id="Layer_1" xmlns="http://www.w3.org/2000/svg" xmlns:xlink="http://www.w3.org/1999/xlink" x="0px" y="0px"
	 viewBox="0 0 841.9 1190.6" style="enable-background:new 0 0 841.9 1190.6;" xml:space="preserve">
<style type="text/css">
	.st0{fill:#FFFFFF;stroke:#000000;stroke-miterlimit:10;}
	.st1{fill:none;stroke:#93278F;stroke-miterlimit:10;}
</style>
<rect class="st0" width="462" height="323.5"/>
<g>
	<g>
		<g transform="translate(536,536) rotate(-0.2941) translate(-536,264)">
			<line class="st1" x1="91.1" y1="-793.8" x2="404.3" y2="-748.2"/>
			<line class="st1" x1="90.8" y1="-790.9" x2="403.9" y2="-745.3"/>
			<line class="st1" x1="90.4" y1="-787.9" x2="403.5" y2="-742.3"/>
			<line class="st1" x1="90" y1="-784.9" x2="403.1" y2="-739.3"/>
			<line class="st1" x1="89.6" y1="-781.9" x2="402.7" y2="-736.3"/>
			<line class="st1" x1="89.2" y1="-779" x2="402.3" y2="-733.4"/>
			<line class="st1" x1="88.8" y1="-776" x2="401.9" y2="-730.4"/>
			<line class="st1" x1="88.4" y1="-773" x2="401.6" y2="-727.4"/>
			<line class="st1" x1="88.1" y1="-770" x2="401.2" y2="-724.4"/>
			<line class="st1" x1="87.7" y1="-767.1" x2="400.8" y2="-721.5"/>
			<line class="st1" x1="87.3" y1="-764.1" x2="400.4" y2="-718.5"/>
			<line class="st1" x1="86.9" y1="-761.1" x2="400" y2="-715.5"/>
			<line class="st1" x1="86.5" y1="-758.1" x2="399.6" y2="-712.5"/>
			<line class="st1" x1="86.1" y1="-755.2" x2="399.2" y2="-709.6"/>
			<line class="st1" x1="85.7" y1="-752.2" x2="398.8" y2="-706.6"/>
			<line class="st1" x1="85.3" y1="-749.2" x2="398.5" y2="-703.6"/>
			<line class="st1" x1="85" y1="-746.2" x2="398.1" y2="-700.6"/>
			<line class="st1" x1="84.6" y1="-743.3" x2="397.7" y2="-697.7"/>
			<line class="st1" x1="84.2" y1="-740.3" x2="397.3" y2="-694.7"/>
			<line class="st1" x1="83.8" y1="-737.3" x2="396.9" y2="-691.7"/>
			<line class="st1" x1="83.4" y1="-734.3" x2="396.5" y2="-688.7"/>
			<line class="st1" x1="83" y1="-731.4" x2="396.1" y2="-685.8"/>
			<line class="st1" x1="82.6" y1="-728.4" x2="395.8" y2="-682.8"/>
			<line class="st1" x1="82.3" y1="-725.4" x2="395.4" y2="-679.8"/>
			<line class="st1" x1="81.9" y1="-722.4" x2="395" y2="-676.8"/>
			<line class="st1" x1="81.5" y1="-719.5" x2="394.6" y2="-673.9"/>
			<line class="st1" x1="81.1" y1="-716.5" x2="394.2" y2="-670.9"/>
			<line class="st1" x1="80.7" y1="-713.5" x2="393.8" y2="-667.9"/>
			<line class="st1" x1="80.3" y1="-710.5" x2="393.4" y2="-664.9"/>
			<line class="st1" x1="79.9" y1="-707.6" x2="393" y2="-662"/>
			<line class="st1" x1="79.5" y1="-704.6" x2="392.7" y2="-659"/>
			<line class="st1" x1="79.2" y1="-701.6" x2="392.3" y2="-656"/>
			<line class="st1" x1="78.8" y1="-698.6" x2="391.9" y2="-653"/>
			<line class="st1" x1="78.4" y1="-695.7" x2="391.5" y2="-650.1"/>
			<line class="st1" x1="78" y1="-692.7" x2="391.1" y2="-647.1"/>
			<line class="st1" x1="77.6" y1="-689.7" x2="390.7" y2="-644.1"/>
			<line class="st1" x1="77.2" y1="-686.7" x2="390.3" y2="-641.1"/>
			<line class="st1" x1="76.8" y1="-683.8" x2="390" y2="-638.2"/>
			<line class="st1" x1="76.5" y1="-680.8" x2="389.6" y2="-635.2"/>
			<line class="st1" x1="76.1" y1="-677.8" x2="389.2" y2="-632.2"/>
			<line class="st1" x1="75.7" y1="-674.8" x2="388.8" y2="-629.2"/>
			<line class="st1" x1="75.3" y1="-671.9" x2="388.4" y2="-626.3"/>
			<line class="st1" x1="74.9" y1="-668.9" x2="388" y2="-623.3"/>
			<line class="st1" x1="74.5" y1="-665.9" x2="387.6" y2="-620.3"/>
			<line class="st1" x1="74.1" y1="-662.9" x2="387.2" y2="-617.3"/>
			<line class="st1" x1="73.7" y1="-660" x2="386.9" y2="-614.4"/>
			<line class="st1" x1="73.4" y1="-657" x2="386.5" y2="-611.4"/>
			<line class="st1" x1="73" y1="-654" x2="386.1" y2="-608.4"/>
			<line class="st1" x1="72.6" y1="-651" x2="385.7" y2="-605.4"/>
			<line class="st1" x1="72.2" y1="-648.1" x2="385.3" y2="-602.5"/>
		</g>
	</g>
	<g>
		<g transform="translate(536,536) rotate(-0.2941) translate(-536,264)">
			<line class="st1" x1="83.8" y1="-588.3" x2="371.5" y2="-603.6"/>
			<line class="st1" x1="84" y1="-585.3" x2="371.7" y2="-600.6"/>
			<line class="st1" x1="84.2" y1="-582.3" x2="371.9" y2="-597.7"/>
			<line class="st1" x1="84.4" y1="-579.3" x2="372.1" y2="-594.7"/>
			<line class="st1" x1="84.6" y1="-576.3" x2="372.4" y2="-591.7"/>
			<line class="st1" x1="84.8" y1="-573.3" x2="372.6" y2="-588.7"/>
			<line class="st1" x1="85.1" y1="-570.3" x2="372.8" y2="-585.7"/>
			<line class="st1" x1="85.3" y1="-567.3" x2="373" y2="-582.7"/>
			<line class="st1" x1="85.5" y1="-564.3" x2="373.2" y2="-579.7"/>
			<line class="st1" x1="85.7" y1="-561.3" x2="373.4" y2="-576.7"/>
			<line class="st1" x1="85.9" y1="-558.3" x2="373.6" y2="-573.7"/>
			<line class="st1" x1="86.1" y1="-555.3" x2="373.8" y2="-570.7"/>
			<line class="st1" x1="86.3" y1="-552.4" x2="374" y2="-567.7"/>
			<line class="st1" x1="86.5" y1="-549.4" x2="374.3" y2="-564.7"/>
			<line class="st1" x1="86.8" y1="-546.4" x2="374.5" y2="-561.7"/>
			<line class="st1" x1="87" y1="-543.4" x2="374.7" y2="-558.8"/>
			<line class="st1" x1="87.2" y1="-540.4" x2="374.9" y2="-555.8"/>
			<line class="st1" x1="87.4" y1="-537.4" x2="375.1" y2="-552.8"/>
			<line class="st1" x1="87.6" y1="-534.4" x2="375.3" y2="-549.8"/>
			<line class="st1" x1="87.8" y1="-531.4" x2="375.5" y2="-546.8"/>
		</g>
	</g>
</g>
</svg>
