<?xml version="1.0" encoding="utf-8"?>
<!-- Generator: Adobe Illustrator 22.0.0, SVG Export Plug-In . SVG Version: 6.00 Build 0)  -->
<svg version="1.1" id="Layer_1" xmlns="http://www.w3.org/2000/svg" xmlns:xlink="http://www.w3.org/1999/xlink" x="0px" y="0px"
	 viewBox="0 0 841.9 1190.6" style="enable-background:new 0 0 841.9 1190.6;" xml:space="preserve">
<style type="text/css">
	.st0{fill:#FFFFFF;stroke:#000000;stroke-miterlimit:10;}
	.st1{fill:none;stroke:#000000;stroke-miterlimit:10;}
</style>
<rect class="st0" width="288" height="290"/>
<g>
	<g>
		<g transform="translate(536,536) rotate(-2.442) translate(-536,26)">
			<line class="st1" x1="60.1" y1="-543.7" x2="239.4" y2="-564.7"/>
			<line class="st1" x1="59.8" y1="-540.8" x2="239" y2="-561.7"/>
			<line class="st1" x1="59.4" y1="-537.8" x2="238.6" y2="-558.8"/>
			<line class="st1" x1="59" y1="-534.8" x2="238.2" y2="-555.8"/>
			<line class="st1" x1="58.6" y1="-531.8" x2="237.8" y2="-552.8"/>
			<line class="st1" x1="58.2" y1="-528.9" x2="237.4" y2="-549.9"/>
			<line class="st1" x1="57.8" y1="-525.9" x2="237.1" y2="-546.9"/>
			<line class="st1" x1="57.4" y1="-522.9" x2="236.7" y2="-543.9"/>
			<line class="st1" x1="57" y1="-520" x2="236.3" y2="-540.9"/>
			<line class="st1" x1="56.7" y1="-517" x2="235.9" y2="-538"/>
			<line class="st1" x1="56.3" y1="-514" x2="235.5" y2="-535"/>
			<line class="st1" x1="55.9" y1="-511" x2="235.1" y2="-532"/>
			<line class="st1" x1="55.5" y1="-508.1" x2="234.7" y2="-529"/>
			<line class="st1" x1="55.1" y1="-505.1" x2="234.3" y2="-526.1"/>
			<line class="st1" x1="54.7" y1="-502.1" x2="234" y2="-523.1"/>
			<line class="st1" x1="54.3" y1="-499.1" x2="233.6" y2="-520.1"/>
			<line class="st1" x1="53.9" y1="-496.2" x2="233.2" y2="-517.2"/>
			<line class="st1" x1="53.5" y1="-493.2" x2="232.8" y2="-514.2"/>
			<line class="st1" x1="53.2" y1="-490.2" x2="232.4" y2="-511.2"/>
			<line class="st1" x1="52.8" y1="-487.3" x2="232" y2="-508.2"/>
		</g>
	</g>
	<g>
		<g transform="translate(536,536) rotate(-2.442) translate(-536,26)">
			<line class="st1" x1="34.4" y1="-469.8" x2="283.9" y2="-490.8"/>
			<line class="st1" x1="34.2" y1="-466.8" x2="283.7" y2="-487.8"/>
			<line class="st1" x1="33.9" y1="-463.8" x2="283.4" y2="-484.8"/>
			<line class="st1" x1="33.7" y1="-460.8" x2="283.2" y2="-481.8"/>
			<line class="st1" x1="33.4" y1="-457.8" x2="282.9" y2="-478.8"/>
			<line class="st1" x1="33.1" y1="-454.9" x2="282.6" y2="-475.8"/>
			<line class="st1" x1="32.9" y1="-451.9" x2="282.4" y2="-472.8"/>
			<line class="st1" x1="32.6" y1="-448.9" x2="282.1" y2="-469.8"/>
			<line class="st1" x1="32.4" y1="-445.9" x2="281.9" y2="-466.9"/>
			<line class="st1" x1="32.1" y1="-442.9" x2="281.6" y2="-463.9"/>
			<line class="st1" x1="31.9" y1="-439.9" x2="281.4" y2="-460.9"/>
			<line class="st1" x1="31.6" y1="-436.9" x2="281.1" y2="-457.9"/>
			<line class="st1" x1="31.3" y1="-433.9" x2="280.8" y2="-454.9"/>
			<line class="st1" x1="31.1" y1="-431" x2="280.6" y2="-451.9"/>
			<line class="st1" x1="30.8" y1="-428" x2="280.3" y2="-448.9"/>
			<line class="st1" x1="30.6" y1="-425" x2="280.1" y2="-446"/>
			<line class="st1" x1="30.3" y1="-422" x2="279.8" y2="-443"/>
			<line class="st1" x1="30.1" y1="-419" x2="279.5" y2="-440"/>
			<line class="st1" x1="29.8" y1="-416" x2="279.3" y2="-437"/>
			<line class="st1" x1="29.5" y1="-413" x2="279" y2="-434"/>
			<line class="st1" x1="29.3" y1="-410.1" x2="278.8" y2="-431"/>
			<line class="st1" x1="29" y1="-407.1" x2="278.5" y2="-428"/>
			<line class="st1" x1="28.8" y1="-404.1" x2="278.3" y2="-425.1"/>
		</g>
	</g>
</g>
</svg>
