<?xml version="1.0" encoding="utf-8"?>
<!-- Generator: Adobe Illustrator 22.0.0, SVG Export Plug-In . SVG Version: 6.00 Build 0)  -->
<svg version="1.1" id="Layer_1" xmlns="http://www.w3.org/2000/svg" xmlns:xlink="http://www.w3.org/1999/xlink" x="0px" y="0px"
	 viewBox="0 0 841.9 1190.6" style="enable-background:new 0 0 841.9 1190.6;" xml:space="preserve">
<style type="text/css">
	.st0{fill:#FFFFFF;stroke:#000000;stroke-miterlimit:10;}
	.st1{fill:none;stroke:#0000FF;stroke-miterlimit:10;}
	.st2{fill:none;stroke:#6B48FF;stroke-linecap:round;stroke-miterlimit:10;}
</style>
<rect class="st0" width="288" height="290"/>
<g>
	<g>
		<g transform="translate(536,536) rotate(-2.442) translate(-536,26)">
			<line class="st1" x1="46.5" y1="-367.9" x2="287.1" y2="-381.9"/>
			<line class="st1" x1="46.1" y1="-365" x2="286.8" y2="-378.9"/>
			<line class="st1" x1="45.7" y1="-362" x2="286.4" y2="-375.9"/>
			<line class="st1" x1="45.4" y1="-359" x2="286" y2="-373"/>
			<line class="st1" x1="45" y1="-356" x2="285.7" y2="-370"/>
			<line class="st1" x1="44.7" y1="-353.1" x2="285.3" y2="-367"/>
			<line class="st1" x1="44.3" y1="-350.1" x2="285" y2="-364"/>
			<line class="st1" x1="44" y1="-347.1" x2="284.6" y2="-361.1"/>
			<line class="st1" x1="43.6" y1="-344.1" x2="284.3" y2="-358.1"/>
			<line class="st1" x1="43.2" y1="-341.2" x2="283.9" y2="-355.1"/>
			<line class="st1" x1="42.9" y1="-338.2" x2="283.5" y2="-352.1"/>
			<line class="st1" x1="42.5" y1="-335.2" x2="283.2" y2="-349.2"/>
			<line class="st1" x1="42.2" y1="-332.2" x2="282.8" y2="-346.2"/>
			<line class="st1" x1="41.8" y1="-329.2" x2="282.5" y2="-343.2"/>
			<line class="st1" x1="41.4" y1="-326.3" x2="282.1" y2="-340.2"/>
			<line class="st1" x1="41.1" y1="-323.3" x2="281.7" y2="-337.2"/>
			<line class="st1" x1="40.7" y1="-320.3" x2="281.4" y2="-334.3"/>
			<line class="st1" x1="40.4" y1="-317.3" x2="281" y2="-331.3"/>
			<line class="st1" x1="40" y1="-314.4" x2="280.7" y2="-328.3"/>
			<line class="st1" x1="39.7" y1="-311.4" x2="280.3" y2="-325.3"/>
			<line class="st1" x1="39.3" y1="-308.4" x2="280" y2="-322.4"/>
		</g>
	</g>
	<g>
		<g transform="translate(536,536) rotate(2.9352) translate(-536,-323)">
			<line class="st2" x1="0" y1="-137.9" x2="257.8" y2="-167.5"/>
			<line class="st2" x1="-0.2" y1="-134.9" x2="257.6" y2="-164.5"/>
			<line class="st2" x1="-0.5" y1="-131.9" x2="257.3" y2="-161.5"/>
			<line class="st2" x1="-0.8" y1="-128.9" x2="257.1" y2="-158.6"/>
			<line class="st2" x1="-1" y1="-125.9" x2="256.8" y2="-155.6"/>
			<line class="st2" x1="-1.3" y1="-123" x2="256.6" y2="-152.6"/>
			<line class="st2" x1="-1.5" y1="-120" x2="256.3" y2="-149.6"/>
			<line class="st2" x1="-1.8" y1="-117" x2="256" y2="-146.6"/>
			<line class="st2" x1="-2" y1="-114" x2="255.8" y2="-143.6"/>
			<line class="st2" x1="-2.3" y1="-111" x2="255.5" y2="-140.7"/>
			<line class="st2" x1="-2.6" y1="-108" x2="255.3" y2="-137.7"/>
			<line class="st2" x1="-2.8" y1="-105" x2="255" y2="-134.7"/>
			<line class="st2" x1="-3.1" y1="-102.1" x2="254.7" y2="-131.7"/>
			<line class="st2" x1="-3.3" y1="-99.1" x2="254.5" y2="-128.7"/>
			<line class="st2" x1="-3.6" y1="-96.1" x2="254.2" y2="-125.7"/>
			<line class="st2" x1="-3.9" y1="-93.1" x2="254" y2="-122.7"/>
			<line class="st2" x1="-4.1" y1="-90.1" x2="253.7" y2="-119.8"/>
			<line class="st2" x1="-4.4" y1="-87.1" x2="253.4" y2="-116.8"/>
			<line class="st2" x1="-4.6" y1="-84.2" x2="253.2" y2="-113.8"/>
			<line class="st2" x1="-4.9" y1="-81.2" x2="252.9" y2="-110.8"/>
			<line class="st2" x1="-5.2" y1="-78.2" x2="252.7" y2="-107.8"/>
			<line class="st2" x1="-5.4" y1="-75.2" x2="252.4" y2="-104.8"/>
			<line class="st2" x1="-5.7" y1="-72.2" x2="252.1" y2="-101.8"/>
			<line class="st2" x1="-5.9" y1="-69.2" x2="251.9" y2="-98.9"/>
			<line class="st2" x1="-6.2" y1="-66.2" x2="251.6" y2="-95.9"/>
			<line class="st2" x1="-6.4" y1="-63.3" x2="251.4" y2="-92.9"/>
			<line class="st2" x1="-6.7" y1="-60.3" x2="251.1" y2="-89.9"/>
			<line class="st2" x1="-7" y1="-57.3" x2="250.9" y2="-86.9"/>
			<line class="st2" x1="-7.2" y1="-54.3" x2="250.6" y2="-83.9"/>
			<line class="st2" x1="-7.5" y1="-51.3" x2="250.3" y2="-81"/>
			<line class="st2" x1="-7.7" y1="-48.3" x2="250.1" y2="-78"/>
			<line class="st2" x1="-8" y1="-45.3" x2="249.8" y2="-75"/>
			<line class="st2" x1="-8.3" y1="-42.4" x2="249.6" y2="-72"/>
			<line class="st2" x1="-8.5" y1="-39.4" x2="249.3" y2="-69"/>
			<line class="st2" x1="-8.8" y1="-36.4" x2="249" y2="-66"/>
			<line class="st2" x1="-9" y1="-33.4" x2="248.8" y2="-63"/>
			<line class="st2" x1="-9.3" y1="-30.4" x2="248.5" y2="-60.1"/>
			<line class="st2" x1="-9.6" y1="-27.4" x2="248.3" y2="-57.1"/>
			<line class="st2" x1="-9.8" y1="-24.5" x2="248" y2="-54.1"/>
			<line class="st2" x1="-10.1" y1="-21.5" x2="247.7" y2="-51.1"/>
			<line class="st2" x1="-10.3" y1="-18.5" x2="247.5" y2="-48.1"/>
			<line class="st2" x1="-10.6" y1="-15.5" x2="247.2" y2="-45.1"/>
			<line class="st2" x1="-10.9" y1="-12.5" x2="247" y2="-42.1"/>
			<line class="st2" x1="-11.1" y1="-9.5" x2="246.7" y2="-39.2"/>
			<line class="st2" x1="-11.4" y1="-6.5" x2="246.5" y2="-36.2"/>
			<line class="st2" x1="-11.6" y1="-3.6" x2="246.2" y2="-33.2"/>
			<line class="st2" x1="-11.9" y1="-0.6" x2="245.9" y2="-30.2"/>
			<line class="st2" x1="-12.1" y1="2.4" x2="245.7" y2="-27.2"/>
			<line class="st2" x1="-12.4" y1="5.4" x2="245.4" y2="-24.2"/>
			<line class="st2" x1="-12.7" y1="8.4" x2="245.2" y2="-21.3"/>
			<line class="st2" x1="-12.9" y1="11.4" x2="244.9" y2="-18.3"/>
			<line class="st2" x1="-13.2" y1="14.4" x2="244.6" y2="-15.3"/>
			<line class="st2" x1="-13.4" y1="17.3" x2="244.4" y2="-12.3"/>
			<line class="st2" x1="-13.7" y1="20.3" x2="244.1" y2="-9.3"/>
			<line class="st2" x1="-14" y1="23.3" x2="243.9" y2="-6.3"/>
			<line class="st2" x1="-14.2" y1="26.3" x2="243.6" y2="-3.3"/>
		</g>
	</g>
</g>
</svg>
