<?xml version="1.0" encoding="utf-8"?>
<!-- Generator: Adobe Illustrator 22.0.0, SVG Export Plug-In . SVG Version: 6.00 Build 0)  -->
<svg version="1.1" id="Layer_1" xmlns="http://www.w3.org/2000/svg" xmlns:xlink="http://www.w3.org/1999/xlink" x="0px" y="0px"
	 viewBox="0 0 841.9 1190.6" style="enable-background:new 0 0 841.9 1190.6;" xml:space="preserve">
<style type="text/css">
	.st0{fill:#FFFFFF;stroke:#000000;stroke-miterlimit:10;}
	.st1{fill:none;stroke:#93278F;stroke-miterlimit:10;}
</style>
<rect class="st0" width="288" height="290"/>
<g>
	<g>
		<g transform="translate(536,536) rotate(-0.2941) translate(-536,264)">
			<line class="st1" x1="22.9" y1="-769" x2="273.4" y2="-731.4"/>
			<line class="st1" x1="22.5" y1="-766" x2="273" y2="-728.5"/>
			<line class="st1" x1="22.1" y1="-763.1" x2="272.6" y2="-725.5"/>
			<line class="st1" x1="21.8" y1="-760.1" x2="272.2" y2="-722.5"/>
			<line class="st1" x1="21.4" y1="-757.1" x2="271.8" y2="-719.5"/>
			<line class="st1" x1="21" y1="-754.1" x2="271.4" y2="-716.6"/>
			<line class="st1" x1="20.6" y1="-751.2" x2="271.1" y2="-713.6"/>
			<line class="st1" x1="20.2" y1="-748.2" x2="270.7" y2="-710.6"/>
			<line class="st1" x1="19.8" y1="-745.2" x2="270.3" y2="-707.6"/>
			<line class="st1" x1="19.4" y1="-742.2" x2="269.9" y2="-704.7"/>
			<line class="st1" x1="19.1" y1="-739.3" x2="269.5" y2="-701.7"/>
			<line class="st1" x1="18.7" y1="-736.3" x2="269.1" y2="-698.7"/>
			<line class="st1" x1="18.3" y1="-733.3" x2="268.7" y2="-695.7"/>
			<line class="st1" x1="17.9" y1="-730.3" x2="268.4" y2="-692.8"/>
			<line class="st1" x1="17.5" y1="-727.4" x2="268" y2="-689.8"/>
			<line class="st1" x1="17.1" y1="-724.4" x2="267.6" y2="-686.8"/>
			<line class="st1" x1="16.8" y1="-721.4" x2="267.2" y2="-683.8"/>
			<line class="st1" x1="16.4" y1="-718.4" x2="266.8" y2="-680.9"/>
			<line class="st1" x1="16" y1="-715.5" x2="266.4" y2="-677.9"/>
			<line class="st1" x1="15.6" y1="-712.5" x2="266" y2="-674.9"/>
			<line class="st1" x1="15.2" y1="-709.5" x2="265.7" y2="-671.9"/>
			<line class="st1" x1="14.8" y1="-706.5" x2="265.3" y2="-669"/>
			<line class="st1" x1="14.4" y1="-703.6" x2="264.9" y2="-666"/>
			<line class="st1" x1="14.1" y1="-700.6" x2="264.5" y2="-663"/>
			<line class="st1" x1="13.7" y1="-697.6" x2="264.1" y2="-660"/>
			<line class="st1" x1="13.3" y1="-694.6" x2="263.7" y2="-657.1"/>
			<line class="st1" x1="12.9" y1="-691.7" x2="263.3" y2="-654.1"/>
			<line class="st1" x1="12.5" y1="-688.7" x2="263" y2="-651.1"/>
			<line class="st1" x1="12.1" y1="-685.7" x2="262.6" y2="-648.1"/>
			<line class="st1" x1="11.7" y1="-682.7" x2="262.2" y2="-645.2"/>
			<line class="st1" x1="11.4" y1="-679.8" x2="261.8" y2="-642.2"/>
			<line class="st1" x1="11" y1="-676.8" x2="261.4" y2="-639.2"/>
			<line class="st1" x1="10.6" y1="-673.8" x2="261" y2="-636.2"/>
			<line class="st1" x1="10.2" y1="-670.8" x2="260.6" y2="-633.3"/>
			<line class="st1" x1="9.8" y1="-667.9" x2="260.3" y2="-630.3"/>
			<line class="st1" x1="9.4" y1="-664.9" x2="259.9" y2="-627.3"/>
			<line class="st1" x1="9" y1="-661.9" x2="259.5" y2="-624.3"/>
			<line class="st1" x1="8.7" y1="-658.9" x2="259.1" y2="-621.4"/>
			<line class="st1" x1="8.3" y1="-656" x2="258.7" y2="-618.4"/>
			<line class="st1" x1="7.9" y1="-653" x2="258.3" y2="-615.4"/>
			<line class="st1" x1="7.5" y1="-650" x2="257.9" y2="-612.4"/>
			<line class="st1" x1="7.1" y1="-647" x2="257.6" y2="-609.5"/>
			<line class="st1" x1="6.7" y1="-644.1" x2="257.2" y2="-606.5"/>
			<line class="st1" x1="6.3" y1="-641.1" x2="256.8" y2="-603.5"/>
			<line class="st1" x1="6" y1="-638.1" x2="256.4" y2="-600.5"/>
			<line class="st1" x1="5.6" y1="-635.1" x2="256" y2="-597.6"/>
			<line class="st1" x1="5.2" y1="-632.2" x2="255.6" y2="-594.6"/>
			<line class="st1" x1="4.8" y1="-629.2" x2="255.2" y2="-591.6"/>
			<line class="st1" x1="4.4" y1="-626.2" x2="254.9" y2="-588.6"/>
			<line class="st1" x1="4" y1="-623.2" x2="254.5" y2="-585.7"/>
		</g>
	</g>
	<g>
		<g transform="translate(536,536) rotate(-0.2941) translate(-536,264)">
			<line class="st1" x1="40.1" y1="-580.7" x2="239.1" y2="-589.6"/>
			<line class="st1" x1="40.3" y1="-577.7" x2="239.3" y2="-586.6"/>
			<line class="st1" x1="40.5" y1="-574.7" x2="239.6" y2="-583.6"/>
			<line class="st1" x1="40.7" y1="-571.7" x2="239.8" y2="-580.7"/>
			<line class="st1" x1="41" y1="-568.7" x2="240" y2="-577.7"/>
			<line class="st1" x1="41.2" y1="-565.7" x2="240.2" y2="-574.7"/>
			<line class="st1" x1="41.4" y1="-562.7" x2="240.4" y2="-571.7"/>
			<line class="st1" x1="41.6" y1="-559.7" x2="240.6" y2="-568.7"/>
			<line class="st1" x1="41.8" y1="-556.8" x2="240.8" y2="-565.7"/>
			<line class="st1" x1="42" y1="-553.8" x2="241" y2="-562.7"/>
			<line class="st1" x1="42.2" y1="-550.8" x2="241.3" y2="-559.7"/>
			<line class="st1" x1="42.5" y1="-547.8" x2="241.5" y2="-556.7"/>
			<line class="st1" x1="42.7" y1="-544.8" x2="241.7" y2="-553.7"/>
			<line class="st1" x1="42.9" y1="-541.8" x2="241.9" y2="-550.7"/>
			<line class="st1" x1="43.1" y1="-538.8" x2="242.1" y2="-547.7"/>
			<line class="st1" x1="43.3" y1="-535.8" x2="242.3" y2="-544.7"/>
			<line class="st1" x1="43.5" y1="-532.8" x2="242.5" y2="-541.8"/>
			<line class="st1" x1="43.7" y1="-529.8" x2="242.8" y2="-538.8"/>
			<line class="st1" x1="43.9" y1="-526.8" x2="243" y2="-535.8"/>
			<line class="st1" x1="44.2" y1="-523.8" x2="243.2" y2="-532.8"/>
		</g>
	</g>
</g>
</svg>
