<?xml version="1.0" standalone="no"?>
  <!DOCTYPE svg PUBLIC "-//W3C//DTD SVG 1.1//EN" 
      "http://www.w3.org/Graphics/SVG/1.1/DTD/svg11.dtd">
  <svg width="20cm" height="20cm"
      xmlns="http://www.w3.org/2000/svg" version="1.1" viewBox="0 0 708.66142 708.66142">
    <g>
      <path d="M70.86614 50.61867 L70.86614 80.98988 M99.2126 50.61867 L99.2126 80.98988 M127.55906 50.61867 L127.55906 80.98988 M155.90551 50.61867 L155.90551 80.98988 M184.25197 50.61867 L184.25197 80.98988 M212.59843 50.61867 L212.59843 80.98988 M240.94488 50.61867 L240.94488 80.98988 M269.29134 50.61867 L269.29134 80.98988 M297.6378 50.61867 L297.6378 80.98988 M325.98425 50.61867 L325.98425 80.98988 M354.33071 50.61867 L354.33071 80.98988 M382.67717 50.61867 L382.67717 80.98988 M411.02362 50.61867 L411.02362 80.98988 M439.37008 50.61867 L439.37008 80.98988 M467.71654 50.61867 L467.71654 80.98988 M496.06299 50.61867 L496.06299 80.98988 M524.40945 50.61867 L524.40945 80.98988 M552.75591 50.61867 L552.75591 80.98988 M581.10236 50.61867 L581.10236 80.98988 M609.44882 50.61867 L609.44882 80.98988 M637.79528 50.61867 L637.79528 80.98988 M55.68054 79.47132 L55.68054 109.84252 M84.027 79.47132 L84.027 109.84252 M112.37345 79.47132 L112.37345 109.84252 M140.71991 79.47132 L140.71991 109.84252 M169.06637 79.47132 L169.06637 109.84252 M197.41282 79.47132 L197.41282 109.84252 M225.75928 79.47132 L225.75928 109.84252 M254.10574 79.47132 L254.10574 109.84252 M282.45219 79.47132 L282.45219 109.84252 M310.79865 79.47132 L310.79865 109.84252 M339.14511 79.47132 L339.14511 109.84252 M367.49156 79.47132 L367.49156 109.84252 M395.83802 79.47132 L395.83802 109.84252 M424.18448 79.47132 L424.18448 109.84252 M452.53093 79.47132 L452.53093 109.84252 M480.87739 79.47132 L480.87739 109.84252 M509.22385 79.47132 L509.22385 109.84252 M537.5703 79.47132 L537.5703 109.84252 M565.91676 79.47132 L565.91676 109.84252 M594.26322 79.47132 L594.26322 109.84252 M622.60967 79.47132 L622.60967 109.84252 M70.86614 108.32396 L70.86614 138.69516 M99.2126 108.32396 L99.2126 138.69516 M127.55906 108.32396 L127.55906 138.69516 M155.90551 108.32396 L155.90551 138.69516 M184.25197 108.32396 L184.25197 138.69516 M212.59843 108.32396 L212.59843 138.69516 M240.94488 108.32396 L240.94488 138.69516 M269.29134 108.32396 L269.29134 138.69516 M297.6378 108.32396 L297.6378 138.69516 M325.98425 108.32396 L325.98425 138.69516 M354.33071 108.32396 L354.33071 138.69516 M382.67717 108.32396 L382.67717 138.69516 M411.02362 108.32396 L411.02362 138.69516 M439.37008 108.32396 L439.37008 138.69516 M467.71654 108.32396 L467.71654 138.69516 M496.06299 108.32396 L496.06299 138.69516 M524.40945 108.32396 L524.40945 138.69516 M552.75591 108.32396 L552.75591 138.69516 M581.10236 108.32396 L581.10236 138.69516 M609.44882 108.32396 L609.44882 138.69516 M637.79528 108.32396 L637.79528 138.69516 M55.68054 137.1766 L55.68054 167.54781 M84.027 137.1766 L84.027 167.54781 M112.37345 137.1766 L112.37345 167.54781 M140.71991 137.1766 L140.71991 167.54781 M169.06637 137.1766 L169.06637 167.54781 M197.41282 137.1766 L197.41282 167.54781 M225.75928 137.1766 L225.75928 167.54781 M254.10574 137.1766 L254.10574 167.54781 M282.45219 137.1766 L282.45219 167.54781 M310.79865 137.1766 L310.79865 167.54781 M339.14511 137.1766 L339.14511 167.54781 M367.49156 137.1766 L367.49156 167.54781 M395.83802 137.1766 L395.83802 167.54781 M424.18448 137.1766 L424.18448 167.54781 M452.53093 137.1766 L452.53093 167.54781 M480.87739 137.1766 L480.87739 167.54781 M509.22385 137.1766 L509.22385 167.54781 M537.5703 137.1766 L537.5703 167.54781 M565.91676 137.1766 L565.91676 167.54781 M594.26322 137.1766 L594.26322 167.54781 M622.60967 137.1766 L622.60967 167.54781 M70.86614 166.02925 L70.86614 196.40045 M99.2126 166.02925 L99.2126 196.40045 M127.55906 166.02925 L127.55906 196.40045 M155.90551 166.02925 L155.90551 196.40045 M184.25197 166.02925 L184.25197 196.40045 M212.59843 166.02925 L212.59843 196.40045 M240.94488 166.02925 L240.94488 196.40045 M269.29134 166.02925 L269.29134 196.40045 M297.6378 166.02925 L297.6378 196.40045 M325.98425 166.02925 L325.98425 196.40045 M354.33071 166.02925 L354.33071 196.40045 M382.67717 166.02925 L382.67717 196.40045 M411.02362 166.02925 L411.02362 196.40045 M439.37008 166.02925 L439.37008 196.40045 M467.71654 166.02925 L467.71654 196.40045 M496.06299 166.02925 L496.06299 196.40045 M524.40945 166.02925 L524.40945 196.40045 M552.75591 166.02925 L552.75591 196.40045 M581.10236 166.02925 L581.10236 196.40045 M609.44882 166.02925 L609.44882 196.40045 M637.79528 166.02925 L637.79528 196.40045 M55.68054 194.88189 L55.68054 225.25309 M84.027 194.88189 L84.027 225.25309 M112.37345 194.88189 L112.37345 225.25309 M140.71991 194.88189 L140.71991 225.25309 M169.06637 194.88189 L169.06637 225.25309 M197.41282 194.88189 L197.41282 225.25309 M225.75928 194.88189 L225.75928 225.25309 M254.10574 194.88189 L254.10574 225.25309 M282.45219 194.88189 L282.45219 225.25309 M310.79865 194.88189 L310.79865 225.25309 M339.14511 194.88189 L339.14511 225.25309 M367.49156 194.88189 L367.49156 225.25309 M395.83802 194.88189 L395.83802 225.25309 M424.18448 194.88189 L424.18448 225.25309 M452.53093 194.88189 L452.53093 225.25309 M480.87739 194.88189 L480.87739 225.25309 M509.22385 194.88189 L509.22385 225.25309 M537.5703 194.88189 L537.5703 225.25309 M565.91676 194.88189 L565.91676 225.25309 M594.26322 194.88189 L594.26322 225.25309 M622.60967 194.88189 L622.60967 225.25309 M70.86614 223.73453 L70.86614 254.10574 M99.2126 223.73453 L99.2126 254.10574 M127.55906 223.73453 L127.55906 254.10574 M155.90551 223.73453 L155.90551 254.10574 M184.25197 223.73453 L184.25197 254.10574 M212.59843 223.73453 L212.59843 254.10574 M240.94488 223.73453 L240.94488 254.10574 M269.29134 223.73453 L269.29134 254.10574 M297.6378 223.73453 L297.6378 254.10574 M325.98425 223.73453 L325.98425 254.10574 M354.33071 223.73453 L354.33071 254.10574 M382.67717 223.73453 L382.67717 254.10574 M411.02362 223.73453 L411.02362 254.10574 M439.37008 223.73453 L439.37008 254.10574 M467.71654 223.73453 L467.71654 254.10574 M496.06299 223.73453 L496.06299 254.10574 M524.40945 223.73453 L524.40945 254.10574 M552.75591 223.73453 L552.75591 254.10574 M581.10236 223.73453 L581.10236 254.10574 M609.44882 223.73453 L609.44882 254.10574 M637.79528 223.73453 L637.79528 254.10574 M55.68054 252.58718 L55.68054 282.95838 M84.027 252.58718 L84.027 282.95838 M112.37345 252.58718 L112.37345 282.95838 M140.71991 252.58718 L140.71991 282.95838 M169.06637 252.58718 L169.06637 282.95838 M197.41282 252.58718 L197.41282 282.95838 M225.75928 252.58718 L225.75928 282.95838 M254.10574 252.58718 L254.10574 282.95838 M282.45219 252.58718 L282.45219 282.95838 M310.79865 252.58718 L310.79865 282.95838 M339.14511 252.58718 L339.14511 282.95838 M367.49156 252.58718 L367.49156 282.95838 M395.83802 252.58718 L395.83802 282.95838 M424.18448 252.58718 L424.18448 282.95838 M452.53093 252.58718 L452.53093 282.95838 M480.87739 252.58718 L480.87739 282.95838 M509.22385 252.58718 L509.22385 282.95838 M537.5703 252.58718 L537.5703 282.95838 M565.91676 252.58718 L565.91676 282.95838 M594.26322 252.58718 L594.26322 282.95838 M622.60967 252.58718 L622.60967 282.95838 M70.86614 281.43982 L70.86614 311.81102 M99.2126 281.43982 L99.2126 311.81102 M127.55906 281.43982 L127.55906 311.81102 M155.90551 281.43982 L155.90551 311.81102 M184.25197 281.43982 L184.25197 311.81102 M212.59843 281.43982 L212.59843 311.81102 M240.94488 281.43982 L240.94488 311.81102 M269.29134 281.43982 L269.29134 311.81102 M297.6378 281.43982 L297.6378 311.81102 M325.98425 281.43982 L325.98425 311.81102 M354.33071 281.43982 L354.33071 311.81102 M382.67717 281.43982 L382.67717 311.81102 M411.02362 281.43982 L411.02362 311.81102 M439.37008 281.43982 L439.37008 311.81102 M467.71654 281.43982 L467.71654 311.81102 M496.06299 281.43982 L496.06299 311.81102 M524.40945 281.43982 L524.40945 311.81102 M552.75591 281.43982 L552.75591 311.81102 M581.10236 281.43982 L581.10236 311.81102 M609.44882 281.43982 L609.44882 311.81102 M637.79528 281.43982 L637.79528 311.81102 M55.68054 310.29246 L55.68054 340.66367 M84.027 310.29246 L84.027 340.66367 M112.37345 310.29246 L112.37345 340.66367 M140.71991 310.29246 L140.71991 340.66367 M169.06637 310.29246 L169.06637 340.66367 M197.41282 310.29246 L197.41282 340.66367 M225.75928 310.29246 L225.75928 340.66367 M254.10574 310.29246 L254.10574 340.66367 M282.45219 310.29246 L282.45219 340.66367 M310.79865 310.29246 L310.79865 340.66367 M339.14511 310.29246 L339.14511 340.66367 M367.49156 310.29246 L367.49156 340.66367 M395.83802 310.29246 L395.83802 340.66367 M424.18448 310.29246 L424.18448 340.66367 M452.53093 310.29246 L452.53093 340.66367 M480.87739 310.29246 L480.87739 340.66367 M509.22385 310.29246 L509.22385 340.66367 M537.5703 310.29246 L537.5703 340.66367 M565.91676 310.29246 L565.91676 340.66367 M594.26322 310.29246 L594.26322 340.66367 M622.60967 310.29246 L622.60967 340.66367 M70.86614 339.14511 L70.86614 369.51631 M99.2126 339.14511 L99.2126 369.51631 M127.55906 339.14511 L127.55906 369.51631 M155.90551 339.14511 L155.90551 369.51631 M184.25197 339.14511 L184.25197 369.51631 M212.59843 339.14511 L212.59843 369.51631 M240.94488 339.14511 L240.94488 369.51631 M269.29134 339.14511 L269.29134 369.51631 M297.6378 339.14511 L297.6378 369.51631 M325.98425 339.14511 L325.98425 369.51631 M354.33071 339.14511 L354.33071 369.51631 M382.67717 339.14511 L382.67717 369.51631 M411.02362 339.14511 L411.02362 369.51631 M439.37008 339.14511 L439.37008 369.51631 M467.71654 339.14511 L467.71654 369.51631 M496.06299 339.14511 L496.06299 369.51631 M524.40945 339.14511 L524.40945 369.51631 M552.75591 339.14511 L552.75591 369.51631 M581.10236 339.14511 L581.10236 369.51631 M609.44882 339.14511 L609.44882 369.51631 M637.79528 339.14511 L637.79528 369.51631 M55.68054 367.99775 L55.68054 398.36895 M84.027 367.99775 L84.027 398.36895 M112.37345 367.99775 L112.37345 398.36895 M140.71991 367.99775 L140.71991 398.36895 M169.06637 367.99775 L169.06637 398.36895 M197.41282 367.99775 L197.41282 398.36895 M225.75928 367.99775 L225.75928 398.36895 M254.10574 367.99775 L254.10574 398.36895 M282.45219 367.99775 L282.45219 398.36895 M310.79865 367.99775 L310.79865 398.36895 M339.14511 367.99775 L339.14511 398.36895 M367.49156 367.99775 L367.49156 398.36895 M395.83802 367.99775 L395.83802 398.36895 M424.18448 367.99775 L424.18448 398.36895 M452.53093 367.99775 L452.53093 398.36895 M480.87739 367.99775 L480.87739 398.36895 M509.22385 367.99775 L509.22385 398.36895 M537.5703 367.99775 L537.5703 398.36895 M565.91676 367.99775 L565.91676 398.36895 M594.26322 367.99775 L594.26322 398.36895 M622.60967 367.99775 L622.60967 398.36895 M70.86614 396.85039 L70.86614 427.2216 M99.2126 396.85039 L99.2126 427.2216 M127.55906 396.85039 L127.55906 427.2216 M155.90551 396.85039 L155.90551 427.2216 M184.25197 396.85039 L184.25197 427.2216 M212.59843 396.85039 L212.59843 427.2216 M240.94488 396.85039 L240.94488 427.2216 M269.29134 396.85039 L269.29134 427.2216 M297.6378 396.85039 L297.6378 427.2216 M325.98425 396.85039 L325.98425 427.2216 M354.33071 396.85039 L354.33071 427.2216 M382.67717 396.85039 L382.67717 427.2216 M411.02362 396.85039 L411.02362 427.2216 M439.37008 396.85039 L439.37008 427.2216 M467.71654 396.85039 L467.71654 427.2216 M496.06299 396.85039 L496.06299 427.2216 M524.40945 396.85039 L524.40945 427.2216 M552.75591 396.85039 L552.75591 427.2216 M581.10236 396.85039 L581.10236 427.2216 M609.44882 396.85039 L609.44882 427.2216 M637.79528 396.85039 L637.79528 427.2216 M55.68054 425.70304 L55.68054 456.07424 M84.027 425.70304 L84.027 456.07424 M112.37345 425.70304 L112.37345 456.07424 M140.71991 425.70304 L140.71991 456.07424 M169.06637 425.70304 L169.06637 456.07424 M197.41282 425.70304 L197.41282 456.07424 M225.75928 425.70304 L225.75928 456.07424 M254.10574 425.70304 L254.10574 456.07424 M282.45219 425.70304 L282.45219 456.07424 M310.79865 425.70304 L310.79865 456.07424 M339.14511 425.70304 L339.14511 456.07424 M367.49156 425.70304 L367.49156 456.07424 M395.83802 425.70304 L395.83802 456.07424 M424.18448 425.70304 L424.18448 456.07424 M452.53093 425.70304 L452.53093 456.07424 M480.87739 425.70304 L480.87739 456.07424 M509.22385 425.70304 L509.22385 456.07424 M537.5703 425.70304 L537.5703 456.07424 M565.91676 425.70304 L565.91676 456.07424 M594.26322 425.70304 L594.26322 456.07424 M622.60967 425.70304 L622.60967 456.07424 M70.86614 454.55568 L70.86614 484.92688 M99.2126 454.55568 L99.2126 484.92688 M127.55906 454.55568 L127.55906 484.92688 M155.90551 454.55568 L155.90551 484.92688 M184.25197 454.55568 L184.25197 484.92688 M212.59843 454.55568 L212.59843 484.92688 M240.94488 454.55568 L240.94488 484.92688 M269.29134 454.55568 L269.29134 484.92688 M297.6378 454.55568 L297.6378 484.92688 M325.98425 454.55568 L325.98425 484.92688 M354.33071 454.55568 L354.33071 484.92688 M382.67717 454.55568 L382.67717 484.92688 M411.02362 454.55568 L411.02362 484.92688 M439.37008 454.55568 L439.37008 484.92688 M467.71654 454.55568 L467.71654 484.92688 M496.06299 454.55568 L496.06299 484.92688 M524.40945 454.55568 L524.40945 484.92688 M552.75591 454.55568 L552.75591 484.92688 M581.10236 454.55568 L581.10236 484.92688 M609.44882 454.55568 L609.44882 484.92688 M637.79528 454.55568 L637.79528 484.92688 M55.68054 483.40832 L55.68054 513.77953 M84.027 483.40832 L84.027 513.77953 M112.37345 483.40832 L112.37345 513.77953 M140.71991 483.40832 L140.71991 513.77953 M169.06637 483.40832 L169.06637 513.77953 M197.41282 483.40832 L197.41282 513.77953 M225.75928 483.40832 L225.75928 513.77953 M254.10574 483.40832 L254.10574 513.77953 M282.45219 483.40832 L282.45219 513.77953 M310.79865 483.40832 L310.79865 513.77953 M339.14511 483.40832 L339.14511 513.77953 M367.49156 483.40832 L367.49156 513.77953 M395.83802 483.40832 L395.83802 513.77953 M424.18448 483.40832 L424.18448 513.77953 M452.53093 483.40832 L452.53093 513.77953 M480.87739 483.40832 L480.87739 513.77953 M509.22385 483.40832 L509.22385 513.77953 M537.5703 483.40832 L537.5703 513.77953 M565.91676 483.40832 L565.91676 513.77953 M594.26322 483.40832 L594.26322 513.77953 M622.60967 483.40832 L622.60967 513.77953 M70.86614 512.26097 L70.86614 542.63217 M99.2126 512.26097 L99.2126 542.63217 M127.55906 512.26097 L127.55906 542.63217 M155.90551 512.26097 L155.90551 542.63217 M184.25197 512.26097 L184.25197 542.63217 M212.59843 512.26097 L212.59843 542.63217 M240.94488 512.26097 L240.94488 542.63217 M269.29134 512.26097 L269.29134 542.63217 M297.6378 512.26097 L297.6378 542.63217 M325.98425 512.26097 L325.98425 542.63217 M354.33071 512.26097 L354.33071 542.63217 M382.67717 512.26097 L382.67717 542.63217 M411.02362 512.26097 L411.02362 542.63217 M439.37008 512.26097 L439.37008 542.63217 M467.71654 512.26097 L467.71654 542.63217 M496.06299 512.26097 L496.06299 542.63217 M524.40945 512.26097 L524.40945 542.63217 M552.75591 512.26097 L552.75591 542.63217 M581.10236 512.26097 L581.10236 542.63217 M609.44882 512.26097 L609.44882 542.63217 M637.79528 512.26097 L637.79528 542.63217 M55.68054 541.11361 L55.68054 571.48481 M84.027 541.11361 L84.027 571.48481 M112.37345 541.11361 L112.37345 571.48481 M140.71991 541.11361 L140.71991 571.48481 M169.06637 541.11361 L169.06637 571.48481 M197.41282 541.11361 L197.41282 571.48481 M225.75928 541.11361 L225.75928 571.48481 M254.10574 541.11361 L254.10574 571.48481 M282.45219 541.11361 L282.45219 571.48481 M310.79865 541.11361 L310.79865 571.48481 M339.14511 541.11361 L339.14511 571.48481 M367.49156 541.11361 L367.49156 571.48481 M395.83802 541.11361 L395.83802 571.48481 M424.18448 541.11361 L424.18448 571.48481 M452.53093 541.11361 L452.53093 571.48481 M480.87739 541.11361 L480.87739 571.48481 M509.22385 541.11361 L509.22385 571.48481 M537.5703 541.11361 L537.5703 571.48481 M565.91676 541.11361 L565.91676 571.48481 M594.26322 541.11361 L594.26322 571.48481 M622.60967 541.11361 L622.60967 571.48481 M70.86614 569.96625 L70.86614 600.33746 M99.2126 569.96625 L99.2126 600.33746 M127.55906 569.96625 L127.55906 600.33746 M155.90551 569.96625 L155.90551 600.33746 M184.25197 569.96625 L184.25197 600.33746 M212.59843 569.96625 L212.59843 600.33746 M240.94488 569.96625 L240.94488 600.33746 M269.29134 569.96625 L269.29134 600.33746 M297.6378 569.96625 L297.6378 600.33746 M325.98425 569.96625 L325.98425 600.33746 M354.33071 569.96625 L354.33071 600.33746 M382.67717 569.96625 L382.67717 600.33746 M411.02362 569.96625 L411.02362 600.33746 M439.37008 569.96625 L439.37008 600.33746 M467.71654 569.96625 L467.71654 600.33746 M496.06299 569.96625 L496.06299 600.33746 M524.40945 569.96625 L524.40945 600.33746 M552.75591 569.96625 L552.75591 600.33746 M581.10236 569.96625 L581.10236 600.33746 M609.44882 569.96625 L609.44882 600.33746 M637.79528 569.96625 L637.79528 600.33746 M55.68054 598.8189 L55.68054 629.1901 M84.027 598.8189 L84.027 629.1901 M112.37345 598.8189 L112.37345 629.1901 M140.71991 598.8189 L140.71991 629.1901 M169.06637 598.8189 L169.06637 629.1901 M197.41282 598.8189 L197.41282 629.1901 M225.75928 598.8189 L225.75928 629.1901 M254.10574 598.8189 L254.10574 629.1901 M282.45219 598.8189 L282.45219 629.1901 M310.79865 598.8189 L310.79865 629.1901 M339.14511 598.8189 L339.14511 629.1901 M367.49156 598.8189 L367.49156 629.1901 M395.83802 598.8189 L395.83802 629.1901 M424.18448 598.8189 L424.18448 629.1901 M452.53093 598.8189 L452.53093 629.1901 M480.87739 598.8189 L480.87739 629.1901 M509.22385 598.8189 L509.22385 629.1901 M537.5703 598.8189 L537.5703 629.1901 M565.91676 598.8189 L565.91676 629.1901 M594.26322 598.8189 L594.26322 629.1901 M622.60967 598.8189 L622.60967 629.1901 M70.86614 627.67154 L70.86614 658.04274 M99.2126 627.67154 L99.2126 658.04274 M127.55906 627.67154 L127.55906 658.04274 M155.90551 627.67154 L155.90551 658.04274 M184.25197 627.67154 L184.25197 658.04274 M212.59843 627.67154 L212.59843 658.04274 M240.94488 627.67154 L240.94488 658.04274 M269.29134 627.67154 L269.29134 658.04274 M297.6378 627.67154 L297.6378 658.04274 M325.98425 627.67154 L325.98425 658.04274 M354.33071 627.67154 L354.33071 658.04274 M382.67717 627.67154 L382.67717 658.04274 M411.02362 627.67154 L411.02362 658.04274 M439.37008 627.67154 L439.37008 658.04274 M467.71654 627.67154 L467.71654 658.04274 M496.06299 627.67154 L496.06299 658.04274 M524.40945 627.67154 L524.40945 658.04274 M552.75591 627.67154 L552.75591 658.04274 M581.10236 627.67154 L581.10236 658.04274 M609.44882 627.67154 L609.44882 658.04274 M637.79528 627.67154 L637.79528 658.04274" fill="none" stroke="black" stroke-width="0.03cm" />
    </g>
</svg>