<?xml version="1.0" standalone="no"?>
  <!DOCTYPE svg PUBLIC "-//W3C//DTD SVG 1.1//EN" 
      "http://www.w3.org/Graphics/SVG/1.1/DTD/svg11.dtd">
  <svg width="20cm" height="20cm"
      xmlns="http://www.w3.org/2000/svg" version="1.1" viewBox="0 0 708.66142 708.66142">
    <g>
      <path d="M59.88519 62.58569 L81.8471 54.84963 M81.79385 92.29497 L59.93844 84.26296 M78.95274 126.21583 L62.77955 109.46471 M82.50295 147.04428 L59.22933 147.75887 M77.44502 167.3576 L64.28726 186.56816 M59.22522 206.70297 L82.50706 206.3454 M71.50883 224.46095 L70.22345 247.71003 M67.77353 278.86702 L83.98639 262.15428 M57.74589 269.1393 L73.95875 252.42657 M72.21647 281.69828 L58.31027 300.37419 M83.42202 290.04201 L69.51581 308.71791 M68.02125 311.49367 L60.49103 333.52701 M81.24125 316.0118 L73.71104 338.04514 M68.14617 341.02882 L60.40917 362.9904 M81.32312 345.67102 L73.58611 367.6326 M65.60736 371.37468 L62.29616 394.42263 M79.43613 373.3614 L76.12493 396.40935 M72.82948 426.88775 L81.79612 405.39888 M59.93616 421.50776 L68.90281 400.01889 M59.0408 436.3438 L70.54499 456.58796 M71.1873 429.44129 L82.69148 449.68545 M85.60338 474.83522 L69.83532 457.70219 M78.75017 481.14244 L62.98211 464.00942 M71.89696 487.44966 L56.1289 470.31664 M82.51633 492.83328 L59.23175 492.81352 M82.50843 502.14711 L59.22385 502.12735 M82.50053 511.46094 L59.21595 511.44119 M65.81648 545.72678 L85.66069 533.54567 M60.94404 537.78909 L80.78825 525.60798 M56.07159 529.85141 L75.9158 517.6703 M85.66924 563.03713 L69.35062 546.42766 M79.02545 569.56458 L62.70683 552.9551 M72.38166 576.09203 L56.06304 559.48255 M77.75794 604.0421 L82.2518 581.19528 M68.61921 602.24456 L73.11307 579.39774 M59.48048 600.44702 L63.97434 577.60019 M74.20236 605.8511 L55.95687 620.31742 M79.98888 613.14929 L61.7434 627.61561 M85.77541 620.44749 L67.52993 634.91381 M74.5942 635.50796 L55.96409 649.47546 M80.1812 642.96001 L61.55108 656.92751 M85.7682 650.41205 L67.13808 664.37955 M87.60633 57.80247 L110.81887 59.63285 M90.71926 96.24176 L107.70594 80.31617 M90.14524 125.14273 L108.27996 110.53781 M97.28287 158.88283 L101.14233 135.92032 M99.45819 188.60258 L98.96701 165.32318 M110.15434 202.54658 L88.27086 210.50179 M96.16179 224.85003 L102.2634 247.32095 M98.5411 252.08628 L87.56344 272.62071 M110.86176 258.67287 L99.8841 279.20731 M91.95605 306.68334 L112.75265 296.21082 M85.67254 294.20538 L106.46914 283.73286 M86.14328 328.4479 L108.6086 334.5701 M89.81659 314.96871 L112.28192 321.0909 M108.45879 364.27287 L103.63395 341.49364 M94.79125 367.16777 L89.96641 344.38855 M85.94432 381.01254 L102.91578 396.95436 M95.50941 370.82967 L112.48087 386.77148 M98.63016 427.01795 L111.45548 407.58387 M86.96972 419.32276 L99.79503 399.88868 M91.40453 431.9073 L93.08641 455.13107 M105.33879 430.89818 L107.02067 454.12194 M107.7947 460.3842 L85.43436 466.87938 M110.39277 469.32834 L88.03243 475.82352 M112.99084 478.27248 L90.6305 484.76765 M112.06691 509.69086 L103.76031 487.93833 M103.3659 513.0135 L95.0593 491.26097 M94.66488 516.33614 L86.35829 494.58361 M94.38235 545.80383 L114.03416 533.31469 M89.3867 537.94311 L109.0385 525.45397 M84.39104 530.08239 L104.04284 517.59324 M100.83456 576.08077 L113.316 556.42407 M92.97188 571.08819 L105.45332 551.43149 M85.1092 566.09562 L97.59063 546.43892 M94.68716 605.02717 L114.06552 592.11782 M89.52342 597.27582 L108.90178 584.36647 M84.35968 589.52448 L103.73804 576.61513 M101.63254 605.67074 L84.3285 621.25094 M107.86461 612.59235 L90.56058 628.17255 M114.09669 619.51397 L96.79266 635.09416 M112.2464 642.70424 L89.28858 638.81701 M110.69151 651.88737 L87.73369 648.00014 M109.13662 661.0705 L86.1788 657.18327 M116.95052 53.92162 L138.16759 63.5137 M135.90881 96.3922 L119.2093 80.16573 M138.47297 113.78693 L116.64514 121.89361 M116.24052 144.67509 L138.87759 150.12806 M123.28771 187.79333 L131.8304 166.13243 M137.76023 200.91356 L117.35788 212.13481 M139.14395 237.24016 L115.97416 234.93082 M117.77828 275.06353 L140.47066 269.84549 M114.64745 261.4481 L137.33983 256.23006 M130.471 281.94691 L114.48768 298.87929 M140.63043 291.5369 L124.64711 308.46929 M126.29597 311.25115 L116.22558 332.24542 M138.89253 317.29339 L128.82214 338.28766 M118.32823 364.28713 L140.68805 357.79018 M114.43006 350.87123 L136.78988 344.37429 M138.30229 375.59012 L115.17821 378.31946 M139.9399 389.46456 L116.81582 392.19391 M114.84103 418.20625 L137.73777 422.43843 M117.38034 404.46821 L140.27708 408.70038 M133.62775 430.86928 L113.98672 443.37535 M141.13139 442.6539 L121.49036 455.15997 M126.63669 457.69507 L113.24362 476.74233 M134.25559 463.0523 L120.86252 482.09956 M141.87449 468.40953 L128.48142 487.45678 M126.16889 516.98169 L142.34661 500.23495 M119.47019 510.5106 L135.64792 493.76386 M112.7715 504.03951 L128.94922 487.29277 M116.98209 521.19052 L119.6291 544.32416 M126.23555 520.13172 L128.88256 543.26536 M135.48901 519.07291 L138.13602 542.20656 M112.79494 559.18342 L128.77418 576.11965 M119.56943 552.79173 L135.54868 569.72796 M126.34393 546.40003 L142.32317 563.33626 M140.29426 598.57389 L132.32717 576.69473 M131.5426 601.76073 L123.57551 579.88157 M122.79094 604.94756 L114.82385 583.0684 M137.74766 609.49747 L114.70303 612.83174 M139.08137 618.71532 L116.03674 622.04959 M140.41508 627.93317 L117.37045 631.26744 M135.84272 662.34019 L137.83477 639.14097 M126.56303 661.54337 L128.55508 638.34415 M117.28334 660.74655 L119.27539 637.54733 M150.02813 48.66782 L161.7829 68.7675 M148.01415 96.83872 L163.79687 79.71921 M145.33767 112.95522 L166.47336 122.72532 M149.32955 157.00885 L162.48148 137.7943 M144.30667 177.96783 L167.50435 175.95793 M164.33988 214.54943 L147.47115 198.49894 M146.76754 228.87157 L165.04348 243.2994 M144.83603 273.50842 L168.05141 271.71439 M143.75962 259.5792 L166.97499 257.78517 M169.42393 293.94674 L148.43095 283.87367 M163.38008 306.54253 L142.3871 296.46945 M143.20012 329.55601 L166.10799 333.72752 M145.70303 315.81128 L168.6109 319.9828 M144.68602 346.68469 L154.43879 367.82838 M157.37224 340.83303 L167.125 361.97672 M160.54738 371.13303 L142.46318 385.80047 M169.34784 381.98356 L151.26364 396.65099 M168.03914 407.36123 L144.8202 405.61404 M166.99083 421.2926 L143.77188 419.54541 M163.43168 431.71439 L142.39299 441.69164 M169.41803 444.3376 L148.37934 454.31486 M170.63658 470.27678 L150.42879 458.70884 M166.00941 478.3599 L145.80162 466.79196 M161.38223 486.44302 L141.17444 474.87507 M162.76588 515.37452 L167.31401 492.53844 M153.63145 513.55527 L158.17957 490.71919 M144.49702 511.73603 L149.04514 488.89994 M148.8113 544.81199 L170.25639 535.74116 M145.18297 536.23396 L166.62806 527.16312 M141.55463 527.65592 L162.99972 518.58508 M142.27996 567.31252 L164.80154 573.22443 M144.64472 558.30389 L167.1663 564.2158 M147.00949 549.29526 L169.53106 555.20716 M141.67397 586.37663 L154.69339 605.68121 M149.3958 581.16886 L162.41522 600.47344 M157.11763 575.96109 L170.13705 595.26567 M151.9634 634.76127 L170.79897 621.07208 M146.48773 627.22704 L165.32329 613.53786 M141.01206 619.69282 L159.84762 606.00364 M141.0062 649.39501 L158.64073 664.60013 M147.08825 642.3412 L164.72277 657.54632 M153.1703 635.28739 L170.80482 650.49251 M178.03302 48.87552 L190.47092 68.5598 M172.65377 89.29131 L195.85017 87.26662 M189.12394 107.26639 L179.38 128.41415 M186.01077 158.91025 L182.49317 135.8929 M174.82308 183.79217 L193.68085 170.13359 M178.01994 196.69032 L190.484 216.35805 M174.60437 229.56882 L193.89956 242.60215 M173.38129 257.5125 L182.19026 279.06648 M186.31368 252.22711 L195.12265 273.78109 M196.80702 300.37619 L182.90379 281.69807 M185.60014 308.71813 L171.69692 290.04 M196.88512 319.79527 L173.91802 315.96327 M194.58592 333.57554 L171.61882 329.74353 M184.11789 367.90718 L196.2943 348.06009 M172.20963 360.60133 L184.38605 340.75424 M187.47302 397.08153 L194.37399 374.84308 M174.12995 392.94095 L181.03092 370.7025 M195.05794 405.23325 L171.9138 407.78691 M196.59013 419.11973 L173.446 421.67339 M175.88894 432.31891 L178.75012 455.42704 M189.75382 430.6022 L192.615 453.71033 M189.12344 458.48482 L169.4352 470.91645 M194.09609 466.36011 L174.40785 478.79174 M199.06874 474.23541 L179.3805 486.66704 M187.74747 487.64337 L169.34431 501.90857 M193.45355 495.00463 L175.05039 509.26983 M199.15963 502.3659 L180.75647 516.6311 M174.9667 543.36363 L197.67078 538.1967 M172.89993 534.282 L195.60401 529.11508 M170.83316 525.20037 L193.53724 520.03345 M183.56787 546.36613 L169.87169 565.19661 M191.10006 551.84461 L177.40388 570.67508 M198.63225 557.32308 L184.93607 576.15355 M187.37062 576.24155 L169.34339 590.97896 M193.26558 583.45245 L175.23835 598.18985 M199.16055 590.66334 L181.13332 605.40074 M178.74323 606.52806 L171.94472 628.79804 M187.65122 609.24746 L180.85272 631.51745 M196.55922 611.96686 L189.76071 634.23685 M181.87536 664.66253 L199.13344 649.03144 M175.62293 657.7593 L192.88101 642.12821 M169.3705 650.85607 L186.62857 635.22498 M212.2018 47.08212 L212.99505 70.3532 M203.33342 81.22894 L221.86343 95.32899 M208.43152 106.96921 L216.76533 128.71133 M219.89217 156.47595 L205.30468 138.3272 M223.91766 174.2393 L201.27919 179.68646 M222.21393 213.08811 L202.98292 199.96026 M201.94264 231.39537 L223.25421 240.77561 M220.93389 276.364 L218.13222 253.24858 M207.06463 278.04501 L204.26296 254.92958 M211.60117 308.74856 L225.01519 289.71605 M200.18166 300.70015 L213.59568 281.66764 M221.59333 314.59934 L199.39194 321.61864 M225.80491 327.92017 L203.60352 334.93947 M200.11323 348.99607 L213.76678 367.85748 M211.43007 340.80394 L225.08362 359.66534 M216.47449 396.90411 L222.25566 374.34862 M202.94119 393.43541 L208.72236 370.87992 M202.39553 422.41096 L225.30359 418.24051 M199.89326 408.66613 L222.80132 404.49567 M226.15535 442.27413 L205.56532 431.4011 M219.63153 454.62815 L199.0415 443.75512 M198.84269 478.3266 L221.22839 484.73382 M201.40557 469.37232 L223.79128 475.77954 M203.96846 460.41804 L226.35416 466.82526 M202.91291 513.4722 L225.78302 509.09835 M201.16337 504.32416 L224.03348 499.95031 M199.41383 495.17612 L222.28394 490.80227 M226.26696 537.65351 L215.40774 517.05619 M218.02803 541.9972 L207.16882 521.39988 M209.78911 546.34088 L198.92989 525.74357 M224.18859 570.63846 L219.20412 547.89364 M215.09066 572.63226 L210.10619 549.88743 M205.99273 574.62605 L201.00826 551.88122 M210.22442 576.10195 L198.75936 596.36829 M218.33096 580.68798 L206.86589 600.95432 M226.43749 585.274 L214.97243 605.54034 M199.58355 627.65594 L222.55143 631.48327 M201.11448 618.46878 L224.08237 622.29612 M202.64542 609.28163 L225.6133 613.10897 M206.73519 663.6519 L227.25927 652.65488 M202.33639 655.44226 L222.86046 644.44525 M197.93758 647.23263 L218.46166 636.23562 M231.82206 65.95072 L250.0677 51.4846 M252.34448 85.91419 L229.54528 90.64374 M229.95796 113.98922 L251.9318 121.69132 M252.47212 145.76886 L229.41764 149.03428 M238.08647 188.24882 L243.8033 165.67694 M240.85961 218.16617 L241.03016 194.8822 M243.42029 247.46158 L238.46948 224.7094 M241.02465 252.0699 L228.92773 271.96554 M252.96204 259.32805 L240.86511 279.22369 M253.13529 289.23043 L229.93381 287.26488 M251.95595 303.15132 L228.75447 301.18576 M228.42066 330.01177 L251.46425 333.35319 M230.42551 316.18562 L253.4691 319.52704 M241.33689 367.90218 L252.73524 347.59825 M229.15453 361.06317 L240.55288 340.75924 M252.95737 377.56441 L229.70877 376.27045 M252.181 391.51358 L228.93239 390.21962 M254.52149 413.33415 L234.45074 401.53004 M247.43902 425.3766 L227.36827 413.57249 M250.28163 433.15746 L227.85362 439.41499 M254.03614 446.61426 L231.60814 452.87179 M227.83304 479.67313 L250.74719 483.81004 M229.48781 470.50747 L252.40195 474.64438 M231.14257 461.34181 L254.05672 465.47873 M255.10847 497.4807 L233.29284 489.34126 M251.8527 506.20695 L230.03707 498.06751 M248.59692 514.9332 L226.78129 506.79376 M236.64388 545.97411 L255.81639 532.76097 M231.35863 538.30511 L250.53114 525.09197 M226.07337 530.63611 L245.24588 517.42296 M252.91317 552.3688 L229.64351 551.53516 M252.57971 561.67667 L229.31005 560.84302 M252.24625 570.98453 L228.97659 570.15088 M230.42045 601.38177 L253.55817 598.7707 M229.37602 592.12668 L252.51375 589.51561 M228.33159 582.87159 L251.46932 580.26052 M232.09727 632.38289 L254.59478 626.38002 M229.69613 623.38388 L252.19363 617.38102 M227.29498 614.38488 L249.79249 608.38202 M227.04307 655.33171 L249.25304 662.32378 M229.83989 646.44772 L252.04987 653.43979 M232.63672 637.56373 L254.8467 644.5558 M272.0812 47.41458 L266.50147 70.02074 M277.79725 80.3296 L260.78542 96.22833 M266.81492 106.4644 L271.76776 129.21614 M268.50745 159.01745 L270.07523 135.7857 M280.83831 178.44965 L257.74437 175.47611 M258.6376 211.21896 L279.94508 201.82941 M274.90021 246.28763 L263.68247 225.88335 M256.86853 260.16844 L270.30352 279.18614 M268.27916 252.10744 L281.71415 271.12515 M255.97063 297.83434 L277.87718 305.72579 M260.7055 284.69041 L282.61205 292.58186 M258.4604 332.95655 L281.6122 330.47334 M256.97048 319.06547 L280.12227 316.58226 M269.7479 340.76126 L257.10344 360.31349 M281.47924 348.34793 L268.83478 367.90016 M265.12897 396.81537 L282.65306 381.48311 M255.92961 386.30092 L273.4537 370.96865 M260.83853 424.07822 L282.64404 415.91172 M255.93863 410.99491 L277.74415 402.82842 M276.28275 431.37595 L255.73185 442.32275 M282.85083 443.7065 L262.29992 454.65329 M271.60702 487.30441 L283.15227 467.08364 M263.51872 482.68631 L275.06396 462.46554 M255.43041 478.06821 L266.97565 457.84745 M259.55032 513.42453 L282.44161 509.16297 M257.84569 504.26801 L280.73698 500.00645 M256.14107 495.1115 L279.03236 490.84994 M271.94785 546.36938 L283.02121 525.88639 M263.75466 541.94003 L274.82802 521.45704 M255.56146 537.51069 L266.63482 517.0277 M281.91158 553.32132 L258.77614 550.69002 M280.85906 562.5755 L257.72362 559.94419 M279.80653 571.82967 L256.6711 569.19836 M261.6194 578.0371 L258.50318 601.11222 M270.84945 579.28359 L267.73323 602.35871 M280.0795 580.53007 L276.96328 603.6052 M272.03314 635.03759 L282.98717 614.49054 M263.81432 630.65598 L274.76835 610.10893 M255.5955 626.27437 L266.54953 605.72731 M275.10603 663.67256 L281.40889 641.25725 M266.13991 661.15141 L272.44277 638.7361 M257.17378 658.63027 L263.47665 636.21496 M285.99644 58.57008 L309.27915 58.86525 M295.07246 76.92282 L300.20313 99.63511 M298.62318 106.23975 L296.65241 129.44079 M286.00594 147.89461 L309.26965 146.90854 M299.68858 188.42313 L295.58701 165.50263 M289.82029 197.89692 L305.4553 215.15145 M296.78426 224.47452 L298.49133 247.69645 M293.80275 278.67104 L310.9345 262.9016 M284.34109 268.39198 L301.47284 252.62255 M290.99582 283.36654 L290.31499 306.64117 M304.9606 283.77503 L304.27978 307.04966 M295.53836 338.18324 L310.4615 320.30945 M284.81409 329.22936 L299.73723 311.35557 M284.09129 355.2422 L304.81687 365.85457 M290.45872 342.80685 L311.1843 353.41922 M297.97346 370.31903 L285.50367 389.98312 M309.77192 377.8009 L297.30213 397.465 M309.83569 407.49096 L286.6367 405.49628 M308.63889 421.41035 L285.4399 419.41568 M309.46498 449.68218 L297.9552 429.4412 M297.32039 456.58804 L285.81061 436.34707 M284.26506 465.98347 L294.14161 487.06962 M292.69952 462.03285 L302.57607 483.11901 M301.13398 458.08223 L311.01053 479.16839 M285.99568 492.82317 L291.10649 515.53994 M295.08239 490.77885 L300.1932 513.49562 M304.1691 488.73452 L309.27991 511.45129 M285.27357 540.0302 L308.48034 541.93229 M286.03441 530.74749 L309.24118 532.64959 M286.79525 521.46478 L310.00202 523.36688 M310.50475 568.79191 L302.1617 547.05333 M301.80932 572.12913 L293.46627 550.39056 M293.11389 575.46635 L284.77084 553.72778 M288.24779 602.40209 L310.9975 597.43997 M286.26294 593.30221 L309.01265 588.34009 M284.27809 584.20232 L307.02781 579.2402 M282.7917 621.75505 L302.23581 634.56515 M287.91574 613.9774 L307.35985 626.7875 M293.03978 606.19976 L312.48389 619.00986 M282.99644 647.1293 L298.10594 664.84582 M290.08304 641.0855 L305.19255 658.80202 M297.16965 635.0417 L312.27915 652.75821 M336.81541 54.44812 L315.15309 62.9872 M327.16195 76.69639 L324.80655 99.86154 M314.61209 120.33366 L337.35641 115.34688 M318.55731 156.36726 L333.41119 138.43589 M335.41279 170.13311 L316.55572 183.79265 M325.65476 194.88655 L326.31374 218.16182 M324.78225 224.50541 L327.18626 247.66557 M337.56654 258.56237 L314.2828 258.76097 M337.6857 272.53261 L314.40196 272.73122 M319.69408 283.17597 L318.32774 306.42043 M333.64076 283.99577 L332.27442 307.24023 M321.32969 312.01505 L316.92079 334.87842 M335.04771 314.66039 L330.63881 337.52376 M335.82572 344.97742 L313.10007 350.04861 M338.86844 358.6128 L316.14279 363.684 M324.6725 397.40563 L338.52533 378.69009 M313.44318 389.09393 L327.296 370.3784 M337.2351 421.05312 L327.39544 399.94972 M324.57306 426.95691 L314.73341 405.85352 M331.50197 430.60925 L312.44176 443.98387 M339.52674 442.04538 L320.46653 455.42 M320.47154 486.42875 L340.7093 474.91332 M315.86537 478.33364 L336.10313 466.81821 M311.2592 470.23854 L331.49696 458.72311 M311.08474 502.68056 L329.78495 516.55407 M316.63415 495.20047 L335.33435 509.07399 M322.18356 487.72039 L340.88376 501.59391 M315.50891 542.30786 L338.63428 539.5895 M314.42157 533.05772 L337.54694 530.33936 M313.33422 523.80757 L336.45959 521.08921 M311.09188 560.5473 L328.55815 575.9454 M317.25112 553.56079 L334.71739 568.95889 M323.41035 546.57428 L340.87663 561.97238 M326.83594 605.70621 L340.31931 586.72277 M319.24257 600.31287 L332.72593 581.32943 M311.64919 594.91952 L325.13256 575.93608 M316.03433 631.48604 L339.00115 627.65232 M314.50084 622.29931 L337.46766 618.46559 M312.96735 613.11259 L335.93417 609.27886 M340.13456 654.64049 L327.46027 635.10759 M332.3214 659.71021 L319.6471 640.1773 M324.50824 664.77993 L311.83394 645.24702 M352.26898 47.25938 L356.39244 70.17595 M365.02295 92.88537 L343.63847 83.67256 M355.25043 106.23436 L353.41099 129.44618 M355.1695 135.78954 L353.49192 159.01361 M361.57448 167.84856 L347.08694 186.0772 M342.95126 208.9841 L365.71016 204.06426 M344.0402 230.64045 L364.62122 241.53053 M367.89231 264.9976 L347.37596 253.98618 M361.28545 277.30741 L340.76911 266.29599 M341.13991 291.9923 L357.70067 308.36036 M350.96075 282.05584 L367.52151 298.4239 M343.17668 332.5106 L366.41013 330.96828 M342.25129 318.57052 L365.48474 317.02821 M358.11601 367.3695 L364.05421 344.85484 M344.60721 363.80658 L350.54541 341.29192 M363.83894 393.58386 L358.40788 370.94152 M350.25354 396.8425 L344.82247 374.20016 M350.99731 400.29175 L344.28622 422.58823 M364.3752 404.3184 L357.66411 426.61489 M366.92033 437.93132 L343.92091 434.29828 M364.74051 451.73097 L341.74109 448.09793 M365.18067 482.80182 L361.92549 459.74589 M355.9583 484.10389 L352.70312 461.04796 M346.73593 485.40597 L343.48074 462.35004 M362.22286 514.78652 L364.93905 491.6609 M352.97262 513.70004 L355.6888 490.57442 M343.72237 512.61357 L346.43855 489.48795 M369.21048 530.75887 L350.14767 517.38796 M363.86212 538.38399 L344.7993 525.01308 M358.51375 546.00912 L339.45094 532.63821 M339.52682 563.03057 L359.30788 575.31396 M344.44018 555.11814 L364.22124 567.40154 M349.35354 547.20572 L369.1346 559.48912 M341.42329 583.35864 L349.88355 605.05187 M350.10058 579.97453 L358.56084 601.66776 M358.77787 576.59043 L367.23813 598.28366 M341.58215 628.11323 L364.67139 631.12307 M342.78609 618.87753 L365.87533 621.88737 M343.99002 609.64184 L367.07926 612.65168 M367.16653 657.52875 L358.91309 635.756 M358.45743 660.83013 L350.20399 639.05738 M349.74833 664.13151 L341.49488 642.35876 M371.15944 60.41622 L394.19489 57.0191 M382.4604 99.91924 L382.89393 76.63869 M390.86644 109.56508 L374.48789 126.11546 M378.41497 136.56752 L386.93936 158.23563 M388.89486 167.11995 L376.45947 186.80581 M383.50842 218.13677 L381.84592 194.9116 M393.45208 231.67592 L371.90225 240.49506 M373.16096 275.33082 L395.70011 269.48626 M369.65422 261.80733 L392.19337 255.96277 M381.43731 281.6877 L371.33086 302.66463 M394.02347 287.75157 L383.91702 308.7285 M387.82094 312.20437 L369.16977 326.14373 M396.18456 323.39507 L377.53339 337.33444 M394.65196 347.93206 L371.3961 346.77584 M393.95823 361.88558 L370.70237 360.72936 M373.18967 393.60416 L395.71142 387.69291 M369.64291 380.09112 L392.16466 374.17986 M372.6848 422.64522 L395.48996 417.94451 M369.86437 408.96212 L392.66953 404.26142 M375.67212 431.38415 L375.71148 454.66871 M389.64285 431.36054 L389.68221 454.64509 M367.8185 471.3469 L384.73977 487.34198 M374.21653 464.57839 L391.1378 480.57347 M380.61456 457.80988 L397.53583 473.80496 M367.91442 504.22333 L387.95298 516.08199 M372.65788 496.2079 L392.69645 508.06656 M377.40135 488.19247 L397.43991 500.05114 M374.31763 519.35315 L372.4679 542.56415 M383.60203 520.09304 L381.7523 543.30404 M392.88643 520.83293 L391.0367 544.04393 M389.34727 547.92567 L368.20404 557.67944 M393.24878 556.38296 L372.10555 566.13673 M397.15029 564.84025 L376.00706 574.59402 M396.12197 597.26536 L386.0129 576.28968 M387.7317 601.30898 L377.62263 580.33331 M379.34143 605.35261 L369.23236 584.37694 M370.91451 629.54381 L394.19712 629.84719 M371.03586 620.23076 L394.31847 620.53414 M371.15721 610.91772 L394.43982 611.2211 M370.77927 658.92878 L394.05477 659.57914 M371.03941 649.61857 L394.31492 650.26894 M371.29956 640.30837 L394.57506 640.95874 M401.48534 52.04202 L420.5619 65.3933 M400.62996 83.0335 L421.41728 93.52443 M400.04348 121.7106 L422.00377 113.96994 M415.96181 157.94469 L406.08544 136.85846 M400.95173 171.12337 L421.09552 182.80239 M407.85216 195.32218 L414.19509 217.72619 M403.90713 226.87145 L418.14011 245.29953 M422.91639 259.09694 L399.64774 258.23546 M422.3995 273.05813 L399.13086 272.19665 M397.86736 291.8538 L414.25513 308.39506 M407.79212 282.02114 L424.17988 298.5624 M401.78199 334.7158 L424.14886 328.24313 M397.89839 321.29568 L420.26525 314.82301 M416.10062 366.92287 L419.74518 343.92528 M402.30207 364.73614 L405.94662 341.73855 M424.30954 381.09509 L402.30355 373.48534 M419.7437 394.29868 L397.7377 386.68894 M397.86818 416.81083 L420.17693 423.48105 M401.87031 403.42558 L424.17906 410.0958 M409.90996 456.546 L423.48715 437.62955 M398.56009 448.39969 L412.13728 429.48324 M425.9316 472.36898 L407.54924 458.07699 M420.2148 479.72193 L401.83244 465.42993 M414.498 487.07487 L396.11565 472.78287 M409.18962 487.34105 L396.99091 507.17445 M417.12298 492.22053 L404.92427 512.05393 M425.05634 497.10002 L412.85763 516.93341 M425.9155 532.42147 L408.45997 517.01119 M419.75139 539.40368 L402.29586 523.9934 M413.58727 546.38589 L396.13175 530.97561 M424.70172 567.19281 L413.80938 546.613 M416.46979 571.54975 L405.57745 550.96993 M408.23787 575.90669 L397.34552 555.32687 M400.9893 579.79378 L402.46787 603.03137 M410.28434 579.20235 L411.76291 602.43995 M419.57938 578.61092 L421.05795 601.84852 M420.20091 608.63222 L397.54546 614.00832 M422.35135 617.69441 L399.69589 623.0705 M424.50179 626.75659 L401.84633 632.13268 M424.6672 643.93183 L402.1634 637.95264 M422.27553 652.93336 L399.77172 646.95416 M419.88385 661.93488 L397.38004 655.95568 M450.98233 57.88187 L427.75782 59.55345 M428.29839 91.87908 L450.44176 84.67885 M434.30944 128.32516 L444.43072 107.35538 M431.94577 156.36944 L446.79439 138.43371 M450.96066 175.86682 L427.77949 178.05894 M451.01185 206.4137 L427.72831 206.63467 M429.67805 242.53588 L449.06211 229.6351 M452.80148 263.66285 L431.29888 254.72918 M447.44127 276.56441 L425.93868 267.63073 M434.21512 307.76855 L452.87869 293.84579 M425.86147 296.57041 L444.52503 282.64765 M449.78374 316.05768 L426.78271 319.68052 M451.95744 329.85829 L428.95642 333.48113 M426.76684 349.28125 L440.84561 367.82742 M437.89455 340.83399 L451.97331 359.38016 M434.85676 396.69703 L452.79254 381.84846 M425.94762 385.93557 L443.88339 371.08699 M441.65934 400.07058 L426.48448 417.73115 M452.25568 409.17549 L437.08082 426.83606 M433.78256 430.64053 L431.08118 453.76789 M447.65897 432.26136 L444.9576 455.38871 M452.85364 478.93863 L442.61779 458.02454 M444.48801 483.03298 L434.25215 462.11888 M436.12237 487.12732 L425.88651 466.21322 M424.6454 499.79748 L440.31964 517.01638 M431.53296 493.52779 L447.2072 510.74668 M438.42052 487.25809 L454.09476 504.47699 M454.17582 529.94337 L434.40768 517.63919 M449.25415 537.85062 L429.48601 525.54645 M444.33248 545.75788 L424.56434 533.45371 M430.93667 573.55489 L453.21648 566.78864 M428.23017 564.64297 L450.50998 557.87672 M425.52367 555.73104 L447.80348 548.96479 M432.68047 577.49675 L427.83911 600.27247 M441.79076 579.43329 L436.9494 602.20901 M450.90104 581.36983 L446.05969 604.14555 M448.57586 608.65453 L425.90742 613.97563 M450.7043 617.7219 L428.03586 623.043 M452.83274 626.78928 L430.1643 632.11038 M424.84164 646.59486 L439.29203 664.85296 M432.14488 640.81471 L446.59527 659.07281 M439.44812 635.03455 L453.89852 653.29265 M461.00013 49.20804 L474.43294 68.22728 M472.07932 77.48502 L463.35375 99.07291 M463.98717 128.86909 L471.4459 106.81145 M473.03852 157.75626 L462.39456 137.04689 M460.31584 167.97551 L475.11723 185.95025 M460.04698 215.28324 L475.38609 197.76513 M471.74136 225.16103 L463.69171 247.00995 M459.29312 276.29501 L481.07598 268.0683 M454.35709 263.22529 L476.13995 254.99858 M455.02906 300.04198 L477.9523 304.12816 M457.48077 286.28803 L480.40401 290.37422 M469.62359 311.32687 L454.95804 329.41261 M480.47503 320.1262 L465.80948 338.21194 M458.81549 344.0784 L462.85911 367.00919 M472.57396 341.65223 L476.61758 364.58302 M459.34687 394.58253 L481.08801 386.24619 M454.34506 381.53784 L476.08621 373.2015 M462.34998 425.92483 L481.24625 412.31956 M454.18682 414.58707 L473.08309 400.9818 M460.73574 431.36958 L460.72658 454.65417 M474.70649 431.37508 L474.69733 454.65966 M457.53129 483.46405 L480.57488 480.12268 M456.19474 474.24661 L479.23833 470.90524 M454.85819 465.02918 L477.90178 461.6878 M453.77734 496.84674 L465.6149 516.89778 M461.79775 492.11171 L473.63532 512.16275 M469.81817 487.37669 L481.65573 507.42773 M475.30194 544.53412 L478.57397 521.48057 M466.08052 543.22531 L469.35255 520.17176 M456.85911 541.9165 L460.13113 518.86296 M468.37768 576.15459 L482.10286 557.34524 M460.85394 570.66451 L474.57913 551.85517 M453.33021 565.17444 L467.05539 546.3651 M452.90359 589.12788 L469.31619 605.6445 M459.51023 582.56284 L475.92284 599.07945 M466.11688 575.9978 L482.52948 592.51441 M470.67051 605.7686 L452.81069 620.70844 M476.64645 612.91253 L458.78662 627.85237 M482.62238 620.05646 L464.76256 634.9963 M457.93627 638.69045 L458.88459 661.95572 M467.24237 638.31112 L468.1907 661.57639 M476.54848 637.93179 L477.4968 661.19706 M506.13167 64.56271 L485.99431 52.87261 M501.7492 78.11973 L490.37678 98.4382 M507.04987 113.98908 L485.07612 121.69146 M484.49187 146.1162 L507.63411 148.68695 M484.6215 174.80989 L507.50448 179.11587 M506.57195 211.53465 L485.55403 201.51372 M487.68011 228.00649 L504.44587 244.16449 M501.40049 278.13077 L504.5665 255.06242 M487.55949 276.23116 L490.72549 253.16282 M482.58836 293.54289 L500.93469 307.88111 M491.1913 282.53509 L509.53762 296.87331 M501.39001 312.28095 L482.53694 325.94601 M509.58904 323.59279 L490.73598 337.25786 M509.06386 358.24428 L493.39809 341.01768 M498.72789 367.64374 L483.06213 350.41713 M487.67057 394.56468 L509.42942 386.27466 M482.69656 381.50937 L504.45541 373.21935 M485.62297 422.13343 L508.63487 418.58034 M483.49111 408.32629 L506.50302 404.7732 M495.399 456.57551 L508.34095 437.2189 M483.78504 448.81034 L496.72698 429.45374 M509.00495 465.17348 L486.00017 461.57455 M507.56538 474.37539 L484.5606 470.77646 M506.12581 483.5773 L483.12103 479.97838 M486.72653 513.76139 L509.4531 508.69433 M484.69971 504.67076 L507.42628 499.6037 M482.67288 495.58013 L505.39945 490.51308 M481.38804 534.33222 L501.85377 545.43744 M485.83013 526.14593 L506.29586 537.25115 M490.27221 517.95964 L510.73795 529.06485 M506.46248 571.94353 L504.20329 548.7688 M497.19258 572.84721 L494.9334 549.67248 M487.92269 573.75088 L485.66351 550.57615 M481.74009 594.9618 L503.2467 603.88579 M485.30968 586.35915 L506.8163 595.28314 M488.87928 577.75651 L510.3859 586.6805 M507.38417 610.68083 L484.11286 611.46703 M507.69865 619.98935 L484.42734 620.77555 M508.01313 629.29788 L484.74181 630.08408 M481.15427 649.80049 L499.19586 664.5203 M487.04219 642.58385 L505.08379 657.30366 M492.93012 635.36721 L510.97172 650.08703 M518.94743 48.43615 L529.87147 68.99917 M514.06276 82.94145 L534.75614 93.61648 M513.56986 113.59218 L535.24904 122.08836 M520.09751 136.58722 L528.72139 158.21593 M521.06405 165.81159 L527.75484 188.11417 M535.91166 204.72359 L512.90724 208.32478 M530.88954 245.75769 L517.92936 226.41329 M529.84664 253.20592 L510.87352 266.7038 M537.94537 264.58979 L518.97226 278.08767 M527.7715 282.05382 L511.22059 298.43183 M537.59831 291.98437 L521.04739 308.36238 M527.89336 337.89194 L534.34867 315.52005 M514.47023 334.01875 L520.92554 311.64687 M515.7213 364.76405 L537.70388 357.08692 M511.11502 351.5745 L533.0976 343.89737 M518.49289 396.11219 L537.97623 383.36184 M510.84267 384.42219 L530.32601 371.67183 M512.73128 406.52808 L523.79455 427.01652 M525.02435 399.89012 L536.08762 420.37856 M528.58369 430.0951 L511.04552 445.41124 M537.77338 440.618 L520.2352 455.93415 M511.12766 479.34976 L533.93357 484.04683 M513.00649 470.22739 L535.8124 474.92447 M514.88532 461.10503 L537.69123 465.8021 M527.23262 516.77691 L538.07234 496.16933 M518.98959 512.44102 L529.82931 491.83344 M510.74655 508.10514 L521.58628 487.49755 M509.91549 535.19365 L531.00091 545.07176 M513.86674 526.75948 L534.95216 536.6376 M517.81799 518.32531 L538.90341 528.20343 M533.2463 573.2682 L534.18512 550.00254 M523.94004 572.89267 L524.87886 549.62701 M514.63377 572.51714 L515.5726 549.25149 M532.13753 603.57133 L535.15225 580.48273 M522.90209 602.36545 L525.91681 579.27685 M513.66665 601.15956 L516.68136 578.07096 M523.85186 635.28143 L539.06744 617.65593 M516.80166 629.1952 L532.01724 611.5697 M509.75146 623.10897 L524.96704 605.48347 M515.99281 662.25029 L538.26338 655.45368 M513.27416 653.34206 L535.54473 646.54545 M510.55552 644.43383 L532.82609 637.63723 M563.26388 63.7302 L542.24793 53.70512 M564.24433 90.16551 L541.26748 86.39242 M541.40821 120.44274 L564.1036 115.2378 M561.21199 155.40392 L544.29982 139.39922 M550.56727 188.3976 L554.94454 165.52816 M555.90334 195.31541 L549.60847 217.73296 M553.21665 224.45232 L552.29516 247.71866 M539.75 261.75001 L555.43799 278.95637 M550.07382 252.33721 L565.76181 269.54358 M552.43509 281.63476 L540.9304 301.87863 M564.58141 288.53757 L553.07672 308.78144 M562.68358 315.50767 L539.91194 320.36815 M565.59987 329.17066 L542.82823 334.03114 M566.03572 351.50495 L544.01326 343.94299 M561.49855 364.71843 L539.47609 357.15647 M549.50236 370.71047 L542.65621 392.96586 M562.8556 374.81816 L556.00945 397.07355 M565.9925 410.43155 L543.86065 403.19598 M561.65116 423.71066 L539.51931 416.47509 M540.15624 448.07296 L563.1484 451.75158 M542.36341 434.27766 L565.35558 437.95628 M559.82561 459.44924 L538.3975 468.56012 M563.46996 468.02049 L542.04185 477.13137 M567.11431 476.59173 L545.6862 485.70261 M560.27385 515.01245 L563.66681 491.97639 M551.05942 513.65526 L554.45239 490.6192 M541.845 512.29808 L545.23796 489.26202 M554.66103 546.48573 L566.76424 526.59391 M546.7043 541.64445 L558.80751 521.75263 M538.74758 536.80317 L550.85078 516.91135 M538.94004 555.65516 L550.32067 575.96903 M547.06559 551.10291 L558.44622 571.41678 M555.19114 546.55066 L566.57177 566.86453 M538.12379 593.68329 L558.76017 604.4681 M542.43772 585.42874 L563.07409 596.21355 M546.75165 577.17419 L567.38802 587.95901 M545.54902 607.33058 L541.60437 630.2786 M554.72823 608.90844 L550.78358 631.85646 M563.90744 610.4863 L559.96279 633.43433 M554.73506 635.16629 L537.90442 651.25671 M561.17123 641.89855 L544.34059 657.98897 M567.60739 648.6308 L550.77675 664.72122 M587.65409 49.09384 L574.55064 68.34148 M581.89659 76.66379 L580.30814 99.89414 M578.80193 129.25303 L583.4028 106.42751 M569.80616 144.58396 L592.39856 150.21919 M591.4473 182.30379 L570.75743 171.62197 M575.03556 216.46083 L587.16916 196.58754 M591.09411 242.0611 L571.11061 230.10988 M573.90694 277.16046 L594.64756 266.5775 M567.55717 264.71609 L588.29778 254.13313 M574.76763 283.19936 L573.48747 306.44874 M588.71726 283.96746 L587.43709 307.21683 M576.11986 337.39926 L594.59106 323.22227 M567.61367 326.31653 L586.08487 312.13955 M589.16171 343.40434 L567.66882 352.36134 M594.53591 356.30007 L573.04302 365.25708 M594.50152 386.08314 L576.73022 371.03811 M585.4745 396.74592 L567.7032 381.70088 M568.97023 407.35825 L581.43361 427.02641 M580.77112 399.88023 L593.2345 419.54838 M580.66548 456.58472 L593.28157 437.01417 M568.92315 449.01507 L581.53924 429.44452 M590.98795 461.41502 L568.04367 465.38141 M592.5745 470.59273 L569.63022 474.55912 M594.16106 479.77044 L571.21678 483.73683 M580.50045 487.23998 L566.70058 505.9946 M588.0023 492.75992 L574.20243 511.51454 M595.50414 498.27987 L581.70428 517.03449 M595.68988 528.61717 L574.89401 518.14321 M591.5003 536.93552 L570.70443 526.46156 M587.31071 545.25387 L566.51484 534.77991 M594.66996 555.07835 L572.09338 549.38008 M592.39065 564.10898 L569.81407 558.41071 M590.11134 573.13961 L567.53477 567.44134 M585.09273 605.18664 L594.24155 583.7747 M576.52796 601.52712 L585.67677 580.11518 M567.96318 597.8676 L577.11199 576.45565 M571.65338 608.84957 L571.92494 632.13258 M580.96658 608.74095 L581.23814 632.02396 M590.27979 608.63233 L590.55134 631.91533 M583.92379 664.58378 L594.76597 643.97749 M575.68127 660.2469 L586.52345 639.64061 M567.43875 655.91003 L578.28094 635.30374 M613.3369 69.69153 L605.56073 47.74379 M616.81326 97.29606 L602.08438 79.26187 M609.59353 106.19887 L609.30411 129.48167 M603.83815 137.20043 L615.05949 157.60272 M612.9856 188.05496 L605.91204 165.8708 M606.10576 195.37219 L612.79188 217.67618 M607.60015 247.58007 L611.29748 224.59091 M619.36671 256.37458 L596.60021 261.2591 M622.29743 270.03448 L599.53092 274.919 M595.97448 293.54055 L614.31831 307.88195 M604.57932 282.53425 L622.92316 296.87565 M595.92864 326.01168 L616.90738 336.11437 M601.99026 313.42443 L622.969 323.52713 M611.30499 367.78036 L620.44267 346.36366 M598.45497 362.29775 L607.59265 340.88106 M612.62358 397.09275 L619.60252 374.87864 M599.29512 392.90538 L606.27406 370.69128 M608.4122 426.99082 L621.88149 407.99739 M597.01614 418.90924 L610.48544 399.91582 M596.52018 438.86869 L611.87471 456.37328 M607.02293 429.65597 L622.37746 447.16056 M594.60697 473.99371 L614.08999 486.74456 M599.70731 466.20051 L619.19033 478.95135 M604.80765 458.4073 L624.29067 471.15814 M596.21505 495.27007 L605.65412 516.55565 M604.72928 491.49444 L614.16835 512.78002 M613.24352 487.71881 L622.68259 509.0044 M605.10046 545.95976 L624.31672 532.81033 M599.84069 538.27325 L619.05695 525.12382 M594.58092 530.58675 L613.79718 517.43732 M618.72635 549.5886 L596.02571 554.77057 M620.79914 558.66885 L598.0985 563.85083 M622.87193 567.74911 L600.17129 572.93109 M615.21246 604.57146 L621.59857 582.17972 M606.25576 602.01701 L612.64187 579.62528 M597.29907 599.46257 L603.68518 577.07084 M603.77248 606.59587 L597.24452 628.94666 M612.7128 609.20706 L606.18484 631.55785 M621.65312 611.81824 L615.12515 634.16903 M618.95021 661.4335 L618.57265 638.15197 M609.6376 661.58452 L609.26004 638.30299 M600.32498 661.73554 L599.94743 638.45401 M627.9042 52.57685 L647.68635 64.85847 M638.73634 76.67477 L636.85421 99.88316 M642.34436 128.55703 L633.24619 107.12351 M627.85809 153.4675 L647.73246 141.33565 M636.97922 188.57654 L638.61133 165.34922 M642.70381 195.96723 L632.88674 217.08114 M649.25259 238.15261 L626.33796 234.01837 M637.89363 279.22357 L649.7285 259.17094 M625.86205 272.12265 L637.69692 252.07002 M650.43445 290.24929 L627.47201 286.38944 M648.11854 304.02675 L625.1561 300.16691 M627.30481 333.3885 L650.33704 329.96965 M625.25351 319.56916 L648.28574 316.15031 M649.93748 360.40569 L637.44158 340.75818 M638.14898 367.90323 L625.65307 348.25573 M631.11023 372.07471 L630.51415 395.35167 M645.0764 372.43236 L644.48032 395.70932 M625.14729 418.3896 L648.10281 422.29036 M627.48774 404.61628 L650.44327 408.51704 M650.47127 438.15072 L627.53842 434.11882 M648.05213 451.91043 L625.11928 447.87853 M631.78115 486.21854 L652.42532 475.44864 M627.47319 477.96088 L648.11736 467.19098 M623.16524 469.70321 L643.8094 458.93331 M623.2548 498.84101 L637.77126 517.04663 M630.53705 493.03442 L645.0535 511.24004 M637.8193 487.22784 L652.33575 505.43346 M652.48306 529.13735 L632.07241 517.93121 M648.0006 537.30161 L627.58995 526.09546 M643.51814 545.46587 L623.10749 534.25972 M647.45741 549.90494 L624.59637 554.32591 M649.22579 559.04936 L626.36476 563.47033 M650.99418 568.19377 L628.13315 572.61475 M625.96789 581.74351 L631.5353 604.35271 M635.01157 579.51655 L640.57898 602.12575 M644.05525 577.28958 L649.62266 599.89878 M626.8943 630.55394 L650.11158 628.78479 M626.18663 621.26703 L649.40392 619.49787 M625.47897 611.98012 L648.69625 610.21096 M636.60996 635.08154 L623.55574 654.3626 M644.32238 640.30322 L631.26817 659.58429 M652.03481 645.52491 L638.98059 664.80598" fill="none" stroke="black" stroke-width="0.1cm" />
    </g>
</svg>