<?xml version="1.0" encoding="utf-8"?>
<!-- Generator: Adobe Illustrator 22.0.0, SVG Export Plug-In . SVG Version: 6.00 Build 0)  -->
<svg version="1.1" id="Layer_1" xmlns="http://www.w3.org/2000/svg" xmlns:xlink="http://www.w3.org/1999/xlink" x="0px" y="0px"
	 width="595.3px" height="841.9px" viewBox="0 0 595.3 841.9" style="enable-background:new 0 0 595.3 841.9;" xml:space="preserve"
	>
<style type="text/css">
	.st0{fill:none;stroke:#F6EB16;stroke-linecap:round;stroke-miterlimit:10;stroke-opacity:0.898;}
	.st1{fill:none;stroke:#231F20;stroke-linecap:round;stroke-miterlimit:10;stroke-opacity:0.898;}
</style>
<g>
	<g transform="translate(105,105) rotate(2.095) translate(-102,-92)">
		<line class="st0" x1="16.4" y1="50.7" x2="206" y2="50.7"/>
		<line class="st0" x1="10.1" y1="50.7" x2="16.4" y2="50.7"/>
		<line class="st0" x1="3.9" y1="50.7" x2="10.1" y2="50.7"/>
	</g>
	<g transform="translate(105,105) rotate(2.095) translate(-102,-92)">
		<line class="st0" x1="3.9" y1="53.7" x2="206" y2="53.7"/>
		<line class="st0" x1="3.9" y1="56.7" x2="206" y2="56.7"/>
		<line class="st0" x1="3.9" y1="59.7" x2="206" y2="59.7"/>
		<line class="st0" x1="3.9" y1="62.7" x2="206" y2="62.7"/>
		<line class="st0" x1="3.9" y1="65.7" x2="206" y2="65.7"/>
		<line class="st0" x1="3.9" y1="68.7" x2="206" y2="68.7"/>
		<line class="st0" x1="3.9" y1="71.7" x2="206" y2="71.7"/>
		<line class="st0" x1="3.9" y1="74.7" x2="206" y2="74.7"/>
		<line class="st0" x1="3.9" y1="77.7" x2="206" y2="77.7"/>
		<line class="st0" x1="3.9" y1="80.7" x2="206" y2="80.7"/>
		<line class="st0" x1="3.9" y1="83.7" x2="206" y2="83.7"/>
		<line class="st0" x1="3.9" y1="86.7" x2="206" y2="86.7"/>
		<line class="st0" x1="3.9" y1="89.7" x2="206" y2="89.7"/>
		<line class="st0" x1="3.9" y1="92.7" x2="206" y2="92.7"/>
		<line class="st0" x1="3.9" y1="95.7" x2="206" y2="95.7"/>
		<line class="st0" x1="3.9" y1="98.7" x2="206" y2="98.7"/>
		<line class="st0" x1="3.9" y1="101.7" x2="206" y2="101.7"/>
		<line class="st0" x1="3.9" y1="104.7" x2="206" y2="104.7"/>
		<line class="st0" x1="3.9" y1="107.7" x2="206" y2="107.7"/>
		<line class="st0" x1="3.9" y1="110.7" x2="206" y2="110.7"/>
		<line class="st0" x1="3.9" y1="113.7" x2="206" y2="113.7"/>
		<line class="st0" x1="3.9" y1="116.7" x2="206" y2="116.7"/>
		<line class="st0" x1="3.9" y1="119.7" x2="206" y2="119.7"/>
		<line class="st0" x1="3.9" y1="122.7" x2="206" y2="122.7"/>
		<line class="st0" x1="3.9" y1="125.7" x2="206" y2="125.7"/>
		<line class="st0" x1="3.9" y1="128.7" x2="206" y2="128.7"/>
		<line class="st0" x1="3.9" y1="131.7" x2="206" y2="131.7"/>
		<line class="st0" x1="3.9" y1="134.7" x2="206" y2="134.7"/>
		<line class="st0" x1="3.9" y1="137.7" x2="206" y2="137.7"/>
		<line class="st0" x1="3.9" y1="140.7" x2="206" y2="140.7"/>
		<line class="st0" x1="3.9" y1="143.7" x2="206" y2="143.7"/>
		<line class="st0" x1="3.9" y1="146.7" x2="206" y2="146.7"/>
		<line class="st0" x1="3.9" y1="149.7" x2="206" y2="149.7"/>
		<line class="st0" x1="3.9" y1="152.7" x2="206" y2="152.7"/>
		<line class="st0" x1="3.9" y1="155.7" x2="206" y2="155.7"/>
		<line class="st0" x1="3.9" y1="158.7" x2="206" y2="158.7"/>
		<line class="st0" x1="3.9" y1="161.7" x2="206" y2="161.7"/>
		<line class="st0" x1="3.9" y1="164.7" x2="206" y2="164.7"/>
		<line class="st0" x1="3.9" y1="167.7" x2="206" y2="167.7"/>
		<line class="st0" x1="3.9" y1="170.7" x2="206" y2="170.7"/>
		<line class="st0" x1="3.9" y1="173.7" x2="206" y2="173.7"/>
		<line class="st0" x1="3.9" y1="176.7" x2="206" y2="176.7"/>
		<line class="st0" x1="3.9" y1="179.7" x2="206" y2="179.7"/>
		<line class="st0" x1="3.9" y1="182.7" x2="206" y2="182.7"/>
		<line class="st0" x1="3.9" y1="185.7" x2="206" y2="185.7"/>
		<line class="st0" x1="3.9" y1="188.7" x2="206" y2="188.7"/>
		<line class="st0" x1="3.9" y1="191.7" x2="206" y2="191.7"/>
		<line class="st0" x1="3.9" y1="194.7" x2="206" y2="194.7"/>
		<line class="st0" x1="3.9" y1="197.7" x2="206" y2="197.7"/>
		<line class="st0" x1="3.9" y1="200.7" x2="206" y2="200.7"/>
		<line class="st0" x1="3.9" y1="203.7" x2="206" y2="203.7"/>
		<line class="st0" x1="3.9" y1="206.7" x2="206" y2="206.7"/>
		<line class="st0" x1="3.9" y1="209.7" x2="206" y2="209.7"/>
		<line class="st0" x1="3.9" y1="212.7" x2="206" y2="212.7"/>
		<line class="st0" x1="3.9" y1="215.7" x2="206" y2="215.7"/>
		<line class="st0" x1="3.9" y1="218.7" x2="206" y2="218.7"/>
		<line class="st0" x1="3.9" y1="221.7" x2="206" y2="221.7"/>
	</g>
</g>
<g>
	<g transform="translate(105,105) rotate(0.3212) translate(-94,-69)">
		<line class="st0" x1="404.4" y1="248.7" x2="592.1" y2="248.7"/>
	</g>
	<g transform="translate(105,105) rotate(0.3212) translate(-94,-69)">
		<line class="st0" x1="404.4" y1="251.7" x2="592.1" y2="251.7"/>
		<line class="st0" x1="404.4" y1="254.7" x2="592.1" y2="254.7"/>
		<line class="st0" x1="404.4" y1="257.7" x2="592.1" y2="257.7"/>
		<line class="st0" x1="404.4" y1="260.7" x2="592.1" y2="260.7"/>
		<line class="st0" x1="404.4" y1="263.7" x2="592.1" y2="263.7"/>
		<line class="st0" x1="404.4" y1="266.7" x2="592.1" y2="266.7"/>
		<line class="st0" x1="404.4" y1="269.7" x2="592.1" y2="269.7"/>
		<line class="st0" x1="404.4" y1="272.7" x2="592.1" y2="272.7"/>
		<line class="st0" x1="404.4" y1="275.7" x2="592.1" y2="275.7"/>
		<line class="st0" x1="404.4" y1="278.7" x2="592.1" y2="278.7"/>
		<line class="st0" x1="404.4" y1="281.7" x2="592.1" y2="281.7"/>
		<line class="st0" x1="404.4" y1="284.7" x2="592.1" y2="284.7"/>
		<line class="st0" x1="404.4" y1="287.7" x2="592.1" y2="287.7"/>
		<line class="st0" x1="404.4" y1="290.7" x2="592.1" y2="290.7"/>
		<line class="st0" x1="404.4" y1="293.7" x2="592.1" y2="293.7"/>
		<line class="st0" x1="404.4" y1="296.7" x2="592.1" y2="296.7"/>
		<line class="st0" x1="404.4" y1="299.7" x2="592.1" y2="299.7"/>
		<line class="st0" x1="404.4" y1="302.7" x2="592.1" y2="302.7"/>
		<line class="st0" x1="404.4" y1="305.7" x2="592.1" y2="305.7"/>
		<line class="st0" x1="404.4" y1="308.7" x2="592.1" y2="308.7"/>
		<line class="st0" x1="404.4" y1="311.7" x2="592.1" y2="311.7"/>
		<line class="st0" x1="404.4" y1="314.7" x2="592.1" y2="314.7"/>
		<line class="st0" x1="404.4" y1="317.7" x2="592.1" y2="317.7"/>
		<line class="st0" x1="404.4" y1="320.7" x2="592.1" y2="320.7"/>
		<line class="st0" x1="404.4" y1="323.7" x2="592.1" y2="323.7"/>
		<line class="st0" x1="404.4" y1="326.7" x2="592.1" y2="326.7"/>
		<line class="st0" x1="404.4" y1="329.7" x2="592.1" y2="329.7"/>
		<line class="st0" x1="404.4" y1="332.7" x2="592.1" y2="332.7"/>
		<line class="st0" x1="404.4" y1="335.7" x2="592.1" y2="335.7"/>
		<line class="st0" x1="404.4" y1="338.7" x2="592.1" y2="338.7"/>
		<line class="st0" x1="404.4" y1="341.7" x2="592.1" y2="341.7"/>
		<line class="st0" x1="404.4" y1="344.7" x2="592.1" y2="344.7"/>
		<line class="st0" x1="404.4" y1="347.7" x2="592.1" y2="347.7"/>
		<line class="st0" x1="404.4" y1="350.7" x2="592.1" y2="350.7"/>
		<line class="st0" x1="404.4" y1="353.7" x2="592.1" y2="353.7"/>
		<line class="st0" x1="404.4" y1="356.7" x2="592.1" y2="356.7"/>
		<line class="st0" x1="404.4" y1="359.7" x2="592.1" y2="359.7"/>
		<line class="st0" x1="404.4" y1="362.7" x2="592.1" y2="362.7"/>
		<line class="st0" x1="404.4" y1="365.7" x2="592.1" y2="365.7"/>
		<line class="st0" x1="404.4" y1="368.7" x2="592.1" y2="368.7"/>
		<line class="st0" x1="404.4" y1="371.7" x2="592.1" y2="371.7"/>
		<line class="st0" x1="404.4" y1="374.7" x2="592.1" y2="374.7"/>
		<line class="st0" x1="404.4" y1="377.7" x2="592.1" y2="377.7"/>
		<line class="st0" x1="404.4" y1="380.7" x2="592.1" y2="380.7"/>
		<line class="st0" x1="404.4" y1="383.7" x2="592.1" y2="383.7"/>
		<line class="st0" x1="404.4" y1="386.7" x2="592.1" y2="386.7"/>
		<line class="st0" x1="404.4" y1="389.7" x2="592.1" y2="389.7"/>
		<line class="st0" x1="404.4" y1="392.7" x2="592.1" y2="392.7"/>
		<line class="st0" x1="404.4" y1="395.7" x2="592.1" y2="395.7"/>
		<line class="st0" x1="404.4" y1="398.7" x2="592.1" y2="398.7"/>
		<line class="st0" x1="404.4" y1="401.7" x2="592.1" y2="401.7"/>
		<line class="st0" x1="404.4" y1="404.7" x2="592.1" y2="404.7"/>
		<line class="st0" x1="404.4" y1="407.7" x2="592.1" y2="407.7"/>
	</g>
</g>
<g>
	<g transform="translate(105,105) rotate(0.2667) translate(-100,-68)">
		<line class="st0" x1="210.1" y1="445" x2="408.7" y2="445"/>
	</g>
	<g transform="translate(105,105) rotate(0.2667) translate(-100,-68)">
		<line class="st0" x1="210.1" y1="448" x2="408.7" y2="448"/>
		<line class="st0" x1="210.1" y1="451" x2="408.7" y2="451"/>
		<line class="st0" x1="210.1" y1="454" x2="408.7" y2="454"/>
		<line class="st0" x1="210.1" y1="457" x2="408.7" y2="457"/>
		<line class="st0" x1="210.1" y1="460" x2="408.7" y2="460"/>
		<line class="st0" x1="210.1" y1="463" x2="408.7" y2="463"/>
		<line class="st0" x1="210.1" y1="466" x2="408.7" y2="466"/>
		<line class="st0" x1="210.1" y1="469" x2="408.7" y2="469"/>
		<line class="st0" x1="210.1" y1="472" x2="408.7" y2="472"/>
		<line class="st0" x1="210.1" y1="475" x2="408.7" y2="475"/>
		<line class="st0" x1="210.1" y1="478" x2="408.7" y2="478"/>
		<line class="st0" x1="210.1" y1="481" x2="408.7" y2="481"/>
		<line class="st0" x1="210.1" y1="484" x2="408.7" y2="484"/>
		<line class="st0" x1="210.1" y1="487" x2="408.7" y2="487"/>
		<line class="st0" x1="210.1" y1="490" x2="408.7" y2="490"/>
		<line class="st0" x1="210.1" y1="493" x2="408.7" y2="493"/>
		<line class="st0" x1="210.1" y1="496" x2="408.7" y2="496"/>
		<line class="st0" x1="210.1" y1="499" x2="408.7" y2="499"/>
		<line class="st0" x1="210.1" y1="502" x2="408.7" y2="502"/>
		<line class="st0" x1="210.1" y1="505" x2="408.7" y2="505"/>
		<line class="st0" x1="210.1" y1="508" x2="408.7" y2="508"/>
		<line class="st0" x1="210.1" y1="511" x2="408.7" y2="511"/>
		<line class="st0" x1="210.1" y1="514" x2="408.7" y2="514"/>
		<line class="st0" x1="210.1" y1="517" x2="408.7" y2="517"/>
		<line class="st0" x1="210.1" y1="520" x2="408.7" y2="520"/>
		<line class="st0" x1="210.1" y1="523" x2="408.7" y2="523"/>
		<line class="st0" x1="210.1" y1="526" x2="408.7" y2="526"/>
		<line class="st0" x1="210.1" y1="529" x2="408.7" y2="529"/>
		<line class="st0" x1="210.1" y1="532" x2="408.7" y2="532"/>
		<line class="st0" x1="210.1" y1="535" x2="408.7" y2="535"/>
		<line class="st0" x1="210.1" y1="538" x2="408.7" y2="538"/>
		<line class="st0" x1="210.1" y1="541" x2="408.7" y2="541"/>
		<line class="st0" x1="210.1" y1="544" x2="408.7" y2="544"/>
		<line class="st0" x1="210.1" y1="547" x2="408.7" y2="547"/>
		<line class="st0" x1="210.1" y1="550" x2="408.7" y2="550"/>
		<line class="st0" x1="210.1" y1="553" x2="408.7" y2="553"/>
		<line class="st0" x1="210.1" y1="556" x2="408.7" y2="556"/>
		<line class="st0" x1="210.1" y1="559" x2="408.7" y2="559"/>
		<line class="st0" x1="210.1" y1="562" x2="408.7" y2="562"/>
		<line class="st0" x1="210.1" y1="565" x2="408.7" y2="565"/>
	</g>
</g>
<g>
	<g transform="translate(105,105) rotate(0.6663) translate(-86,-91)">
		<line class="st0" x1="5.5" y1="475" x2="177.3" y2="475"/>
	</g>
	<g transform="translate(105,105) rotate(0.6663) translate(-86,-91)">
		<line class="st0" x1="5.5" y1="478" x2="177.3" y2="478"/>
		<line class="st0" x1="5.5" y1="481" x2="177.3" y2="481"/>
		<line class="st0" x1="5.5" y1="484" x2="177.3" y2="484"/>
		<line class="st0" x1="5.5" y1="487" x2="177.3" y2="487"/>
		<line class="st0" x1="5.5" y1="490" x2="177.3" y2="490"/>
		<line class="st0" x1="5.5" y1="493" x2="177.3" y2="493"/>
		<line class="st0" x1="5.5" y1="496" x2="177.3" y2="496"/>
		<line class="st0" x1="5.5" y1="499" x2="177.3" y2="499"/>
		<line class="st0" x1="5.5" y1="502" x2="177.3" y2="502"/>
		<line class="st0" x1="5.5" y1="505" x2="177.3" y2="505"/>
		<line class="st0" x1="5.5" y1="508" x2="177.3" y2="508"/>
		<line class="st0" x1="5.5" y1="511" x2="177.3" y2="511"/>
		<line class="st0" x1="5.5" y1="514" x2="177.3" y2="514"/>
		<line class="st0" x1="5.5" y1="517" x2="177.3" y2="517"/>
		<line class="st0" x1="5.5" y1="520" x2="177.3" y2="520"/>
		<line class="st0" x1="5.5" y1="523" x2="177.3" y2="523"/>
		<line class="st0" x1="5.5" y1="526" x2="177.3" y2="526"/>
		<line class="st0" x1="5.5" y1="529" x2="177.3" y2="529"/>
		<line class="st0" x1="5.5" y1="532" x2="177.3" y2="532"/>
		<line class="st0" x1="5.5" y1="535" x2="177.3" y2="535"/>
		<line class="st0" x1="5.5" y1="538" x2="177.3" y2="538"/>
		<line class="st0" x1="5.5" y1="541" x2="177.3" y2="541"/>
		<line class="st0" x1="5.5" y1="544" x2="177.3" y2="544"/>
		<line class="st0" x1="5.5" y1="547" x2="177.3" y2="547"/>
		<line class="st0" x1="5.5" y1="550" x2="177.3" y2="550"/>
		<line class="st0" x1="5.5" y1="553" x2="177.3" y2="553"/>
		<line class="st0" x1="5.5" y1="556" x2="177.3" y2="556"/>
		<line class="st0" x1="5.5" y1="559" x2="177.3" y2="559"/>
		<line class="st0" x1="5.5" y1="562" x2="177.3" y2="562"/>
		<line class="st0" x1="5.5" y1="565" x2="177.3" y2="565"/>
		<line class="st0" x1="5.5" y1="568" x2="177.3" y2="568"/>
		<line class="st0" x1="5.5" y1="571" x2="177.3" y2="571"/>
		<line class="st0" x1="5.5" y1="574" x2="177.3" y2="574"/>
		<line class="st0" x1="5.5" y1="577" x2="177.3" y2="577"/>
		<line class="st0" x1="5.5" y1="580" x2="177.3" y2="580"/>
		<line class="st0" x1="5.5" y1="583" x2="177.3" y2="583"/>
		<line class="st0" x1="5.5" y1="586" x2="177.3" y2="586"/>
		<line class="st0" x1="5.5" y1="589" x2="177.3" y2="589"/>
		<line class="st0" x1="5.5" y1="592" x2="177.3" y2="592"/>
		<line class="st0" x1="5.5" y1="595" x2="177.3" y2="595"/>
		<line class="st0" x1="5.5" y1="598" x2="177.3" y2="598"/>
		<line class="st0" x1="5.5" y1="601" x2="177.3" y2="601"/>
		<line class="st0" x1="5.5" y1="604" x2="177.3" y2="604"/>
		<line class="st0" x1="5.5" y1="607" x2="177.3" y2="607"/>
		<line class="st0" x1="5.5" y1="610" x2="177.3" y2="610"/>
	</g>
</g>
<g>
	<g transform="translate(105,105) rotate(-1.2732) translate(-101,-78)">
		<line class="st0" x1="195.3" y1="257.4" x2="395.7" y2="257.4"/>
	</g>
	<g transform="translate(105,105) rotate(-1.2732) translate(-101,-78)">
		<line class="st0" x1="195.3" y1="260.4" x2="395.7" y2="260.4"/>
		<line class="st0" x1="195.3" y1="263.4" x2="395.7" y2="263.4"/>
		<line class="st0" x1="195.3" y1="266.4" x2="395.7" y2="266.4"/>
		<line class="st0" x1="195.3" y1="269.4" x2="395.7" y2="269.4"/>
		<line class="st0" x1="195.3" y1="272.4" x2="395.7" y2="272.4"/>
		<line class="st0" x1="195.3" y1="275.4" x2="395.7" y2="275.4"/>
		<line class="st0" x1="195.3" y1="278.4" x2="395.7" y2="278.4"/>
		<line class="st0" x1="195.3" y1="281.4" x2="395.7" y2="281.4"/>
		<line class="st0" x1="195.3" y1="284.4" x2="395.7" y2="284.4"/>
		<line class="st0" x1="195.3" y1="287.4" x2="395.7" y2="287.4"/>
		<line class="st0" x1="195.3" y1="290.4" x2="395.7" y2="290.4"/>
		<line class="st0" x1="195.3" y1="293.4" x2="395.7" y2="293.4"/>
		<line class="st0" x1="195.3" y1="296.4" x2="395.7" y2="296.4"/>
		<line class="st0" x1="195.3" y1="299.4" x2="395.7" y2="299.4"/>
		<line class="st0" x1="195.3" y1="302.4" x2="395.7" y2="302.4"/>
		<line class="st0" x1="195.3" y1="305.4" x2="395.7" y2="305.4"/>
		<line class="st0" x1="195.3" y1="308.4" x2="395.7" y2="308.4"/>
		<line class="st0" x1="195.3" y1="311.4" x2="395.7" y2="311.4"/>
		<line class="st0" x1="195.3" y1="314.4" x2="395.7" y2="314.4"/>
		<line class="st0" x1="195.3" y1="317.4" x2="395.7" y2="317.4"/>
		<line class="st0" x1="195.3" y1="320.4" x2="395.7" y2="320.4"/>
		<line class="st0" x1="195.3" y1="323.4" x2="395.7" y2="323.4"/>
		<line class="st0" x1="195.3" y1="326.4" x2="395.7" y2="326.4"/>
		<line class="st0" x1="195.3" y1="329.4" x2="395.7" y2="329.4"/>
		<line class="st0" x1="195.3" y1="332.4" x2="395.7" y2="332.4"/>
		<line class="st0" x1="195.3" y1="335.4" x2="395.7" y2="335.4"/>
		<line class="st0" x1="195.3" y1="338.4" x2="395.7" y2="338.4"/>
		<line class="st0" x1="195.3" y1="341.4" x2="395.7" y2="341.4"/>
		<line class="st0" x1="195.3" y1="344.4" x2="395.7" y2="344.4"/>
		<line class="st0" x1="195.3" y1="347.4" x2="395.7" y2="347.4"/>
		<line class="st0" x1="195.3" y1="350.4" x2="395.7" y2="350.4"/>
		<line class="st0" x1="195.3" y1="353.4" x2="395.7" y2="353.4"/>
		<line class="st0" x1="195.3" y1="356.4" x2="395.7" y2="356.4"/>
		<line class="st0" x1="195.3" y1="359.4" x2="395.7" y2="359.4"/>
		<line class="st0" x1="195.3" y1="362.4" x2="395.7" y2="362.4"/>
		<line class="st0" x1="195.3" y1="365.4" x2="395.7" y2="365.4"/>
		<line class="st0" x1="195.3" y1="368.4" x2="395.7" y2="368.4"/>
		<line class="st0" x1="195.3" y1="371.4" x2="395.7" y2="371.4"/>
		<line class="st0" x1="195.3" y1="374.4" x2="395.7" y2="374.4"/>
		<line class="st0" x1="195.3" y1="377.4" x2="395.7" y2="377.4"/>
		<line class="st0" x1="195.3" y1="380.4" x2="395.7" y2="380.4"/>
		<line class="st0" x1="195.3" y1="383.4" x2="395.7" y2="383.4"/>
		<line class="st0" x1="195.3" y1="386.4" x2="395.7" y2="386.4"/>
		<line class="st0" x1="195.3" y1="389.4" x2="395.7" y2="389.4"/>
		<line class="st0" x1="195.3" y1="392.4" x2="395.7" y2="392.4"/>
		<line class="st0" x1="195.3" y1="395.4" x2="395.7" y2="395.4"/>
		<line class="st0" x1="195.3" y1="398.4" x2="395.7" y2="398.4"/>
		<line class="st0" x1="195.3" y1="401.4" x2="395.7" y2="401.4"/>
		<line class="st0" x1="195.3" y1="404.4" x2="395.7" y2="404.4"/>
		<line class="st0" x1="195.3" y1="407.4" x2="395.7" y2="407.4"/>
		<line class="st0" x1="195.3" y1="410.4" x2="395.7" y2="410.4"/>
		<line class="st0" x1="195.3" y1="413.4" x2="395.7" y2="413.4"/>
		<line class="st0" x1="195.3" y1="416.4" x2="395.7" y2="416.4"/>
		<line class="st0" x1="195.3" y1="419.4" x2="395.7" y2="419.4"/>
		<line class="st0" x1="195.3" y1="422.4" x2="395.7" y2="422.4"/>
	</g>
</g>
<g>
	<g transform="translate(105,105) rotate(2.9975) translate(-100,-68)">
		<line class="st0" x1="394.1" y1="29.4" x2="593.2" y2="29.4"/>
	</g>
	<g transform="translate(105,105) rotate(2.9975) translate(-100,-68)">
		<line class="st0" x1="394.1" y1="32.4" x2="593.2" y2="32.4"/>
		<line class="st0" x1="394.1" y1="35.4" x2="593.2" y2="35.4"/>
		<line class="st0" x1="394.1" y1="38.4" x2="593.2" y2="38.4"/>
		<line class="st0" x1="394.1" y1="41.4" x2="593.2" y2="41.4"/>
		<line class="st0" x1="394.1" y1="44.4" x2="593.2" y2="44.4"/>
		<line class="st0" x1="394.1" y1="47.4" x2="593.2" y2="47.4"/>
		<line class="st0" x1="394.1" y1="50.4" x2="593.2" y2="50.4"/>
		<line class="st0" x1="394.1" y1="53.4" x2="593.2" y2="53.4"/>
		<line class="st0" x1="394.1" y1="56.4" x2="593.2" y2="56.4"/>
		<line class="st0" x1="394.1" y1="59.4" x2="593.2" y2="59.4"/>
		<line class="st0" x1="394.1" y1="62.4" x2="593.2" y2="62.4"/>
		<line class="st0" x1="394.1" y1="65.4" x2="593.2" y2="65.4"/>
		<line class="st0" x1="394.1" y1="68.4" x2="593.2" y2="68.4"/>
		<line class="st0" x1="394.1" y1="71.4" x2="593.2" y2="71.4"/>
		<line class="st0" x1="394.1" y1="74.4" x2="593.2" y2="74.4"/>
		<line class="st0" x1="394.1" y1="77.4" x2="593.2" y2="77.4"/>
		<line class="st0" x1="394.1" y1="80.4" x2="593.2" y2="80.4"/>
		<line class="st0" x1="394.1" y1="83.4" x2="593.2" y2="83.4"/>
		<line class="st0" x1="394.1" y1="86.4" x2="593.2" y2="86.4"/>
		<line class="st0" x1="394.1" y1="89.4" x2="593.2" y2="89.4"/>
		<line class="st0" x1="394.1" y1="92.4" x2="593.2" y2="92.4"/>
		<line class="st0" x1="394.1" y1="95.4" x2="593.2" y2="95.4"/>
		<line class="st0" x1="394.1" y1="98.4" x2="593.2" y2="98.4"/>
		<line class="st0" x1="394.1" y1="101.4" x2="593.2" y2="101.4"/>
		<line class="st0" x1="394.1" y1="104.4" x2="593.2" y2="104.4"/>
		<line class="st0" x1="394.1" y1="107.4" x2="593.2" y2="107.4"/>
		<line class="st0" x1="394.1" y1="110.4" x2="593.2" y2="110.4"/>
		<line class="st0" x1="394.1" y1="113.4" x2="593.2" y2="113.4"/>
		<line class="st0" x1="394.1" y1="116.4" x2="593.2" y2="116.4"/>
		<line class="st0" x1="394.1" y1="119.4" x2="593.2" y2="119.4"/>
		<line class="st0" x1="394.1" y1="122.4" x2="593.2" y2="122.4"/>
		<line class="st0" x1="394.1" y1="125.4" x2="593.2" y2="125.4"/>
		<line class="st0" x1="394.1" y1="128.4" x2="593.2" y2="128.4"/>
		<line class="st0" x1="394.1" y1="131.4" x2="593.2" y2="131.4"/>
		<line class="st0" x1="394.1" y1="134.4" x2="593.2" y2="134.4"/>
		<line class="st0" x1="394.1" y1="137.4" x2="593.2" y2="137.4"/>
		<line class="st0" x1="394.1" y1="140.4" x2="593.2" y2="140.4"/>
		<line class="st0" x1="394.1" y1="143.4" x2="593.2" y2="143.4"/>
		<line class="st0" x1="394.1" y1="146.4" x2="593.2" y2="146.4"/>
		<line class="st0" x1="394.1" y1="149.4" x2="593.2" y2="149.4"/>
		<line class="st0" x1="394.1" y1="152.4" x2="593.2" y2="152.4"/>
		<line class="st0" x1="394.1" y1="155.4" x2="593.2" y2="155.4"/>
		<line class="st0" x1="394.1" y1="158.4" x2="593.2" y2="158.4"/>
		<line class="st0" x1="394.1" y1="161.4" x2="593.2" y2="161.4"/>
		<line class="st0" x1="394.1" y1="164.4" x2="593.2" y2="164.4"/>
		<line class="st0" x1="394.1" y1="167.4" x2="593.2" y2="167.4"/>
		<line class="st0" x1="394.1" y1="170.4" x2="593.2" y2="170.4"/>
		<line class="st0" x1="394.1" y1="173.4" x2="593.2" y2="173.4"/>
		<line class="st0" x1="394.1" y1="176.4" x2="593.2" y2="176.4"/>
		<line class="st0" x1="394.1" y1="179.4" x2="593.2" y2="179.4"/>
		<line class="st0" x1="394.1" y1="182.4" x2="593.2" y2="182.4"/>
		<line class="st0" x1="394.1" y1="185.4" x2="593.2" y2="185.4"/>
		<line class="st0" x1="394.1" y1="188.4" x2="593.2" y2="188.4"/>
		<line class="st0" x1="394.1" y1="191.4" x2="593.2" y2="191.4"/>
		<line class="st0" x1="394.1" y1="194.4" x2="593.2" y2="194.4"/>
		<line class="st0" x1="394.1" y1="197.4" x2="593.2" y2="197.4"/>
		<line class="st0" x1="394.1" y1="200.4" x2="593.2" y2="200.4"/>
		<line class="st0" x1="394.1" y1="203.4" x2="593.2" y2="203.4"/>
	</g>
</g>
<g>
	<line class="st1" x1="10" y1="10" x2="0" y2="0"/>
</g>
</svg>
