<?xml version="1.0" encoding="utf-8"?>
<!-- Generator: Adobe Illustrator 22.0.0, SVG Export Plug-In . SVG Version: 6.00 Build 0)  -->
<svg version="1.1" id="Layer_1" xmlns="http://www.w3.org/2000/svg" xmlns:xlink="http://www.w3.org/1999/xlink" x="0px" y="0px"
	 width="612px" height="792px" viewBox="0 0 612 792" style="enable-background:new 0 0 612 792;" xml:space="preserve">
<style type="text/css">
	.st0{fill:none;stroke:#000000;stroke-miterlimit:10;}
	.st1{fill:#4EB748;}
	.st2{fill:#4BC3C7;}
	.st3{fill:#50B848;}
	.st4{fill:#9D6DAF;}
	.st5{fill:#ED2D85;}
	.st6{fill:#489DD6;}
	.st7{fill:#EF4423;}
	.st8{fill:#FBAC18;}
</style>
<rect class="st0" width="612" height="792"/>
<g transform="matrix(1,0,0,1,20,20) translate(97.3333,3) scale(1.2459,1.2459)">
	<path class="st1" d="M-1.1,53.3l-18,31.1h36L-1.1,53.3z"/>
</g>
<g transform="matrix(1,0,0,1,20,20) translate(191.6667,3) scale(1.2459,1.2459)">
	<path class="st2" d="M-13.5,56.6h-37.2V69h12.5v12.2H-26V69h12.5V56.6z"/>
</g>
<g transform="matrix(1,0,0,1,20,20) translate(3,97.3333) scale(1.2459,1.2459)">
	<path class="st2" d="M46.6,54.8V21.1c-18.5,0-33.5,15-33.5,33.5c0,0.1,0,0.1,0,0.2H46.6z"/>
</g>
<g transform="matrix(1,0,0,1,20,20) translate(191.6667,97.3333) scale(1.2459,1.2459)">
	<path class="st3" d="M-21.5,22.6h-10.6v20h-10.6v10.6h21.2l0,0h0.1V22.6z"/>
</g>
<g transform="matrix(1,0,0,1,20,20) translate(3,191.6667) scale(1.2459,1.2459)">
	<path class="st4" d="M29.9,0.7v-13.2H16.6V13h13.2v13.4H43V0.7H29.9z"/>
</g>
<g transform="matrix(1,0,0,1,20,20) translate(97.3333,191.6667) scale(1.2459,1.2459)">
	<circle class="st5" cx="-1.1" cy="7" r="17"/>
</g>
<g transform="matrix(1,0,0,1,20,20) translate(191.6667,191.6667) scale(1.2459,1.2459)">
	<path class="st6" d="M-32.1-10c-9.3,0-17,7.6-17,17s7.6,17,17,17s17-7.6,17-17S-22.7-10-32.1-10z M-32.1,13.9
		c-3.8,0-6.9-3.1-6.9-6.9s3.1-6.9,6.9-6.9c3.8,0,6.9,3.1,6.9,6.9S-28.3,13.9-32.1,13.9z"/>
</g>
<g transform="matrix(1,0,0,1,20,20) translate(326,3) scale(1.2459,1.2459)">
	<path class="st7" d="M-64.6,86h-23.2c-3.1,0-5.6-2.5-5.6-5.6V57.3c0-3.1,2.5-5.6,5.6-5.6h23.2c3.1,0,5.6,2.5,5.6,5.6v23.2
		C-59.1,83.5-61.5,86-64.6,86z"/>
</g>
<g transform="matrix(1,0,0,1,343,20) translate(97.3333,3) scale(1.2459,1.2459)">
	<path class="st3" d="M-96.5,53.6h-10.6v20h-10.6v10.6h21.2l0,0h0.1V53.6z"/>
</g>
<g transform="matrix(1,0,0,1,343,20) translate(191.6667,3) scale(1.2459,1.2459)">
	<circle class="st5" cx="-138.1" cy="68.9" r="17"/>
</g>
<g transform="matrix(1,0,0,1,343,20) translate(3,97.3333) scale(1.2459,1.2459)">
	<path class="st1" d="M-76.2,22.4l-18,31.1h36L-76.2,22.4z"/>
</g>
<g transform="matrix(1,0,0,1,343,20) translate(97.3333,97.3333) scale(1.2459,1.2459)">
	<path class="st4" d="M-107.1,31.7V18.5h-13.2v25.4h13.2v13.4H-94V31.7H-107.1z"/>
</g>
<g transform="matrix(1,0,0,1,343,20) translate(191.6667,97.3333) scale(1.2459,1.2459)">
	<path class="st6" d="M-138.1,21c-9.3,0-17,7.6-17,17s7.6,17,17,17s17-7.6,17-17S-128.7,21-138.1,21z M-138.1,44.8
		c-3.8,0-6.9-3.1-6.9-6.9s3.1-6.9,6.9-6.9c3.8,0,6.9,3.1,6.9,6.9S-134.3,44.8-138.1,44.8z"/>
</g>
<g transform="matrix(1,0,0,1,343,20) translate(3,191.6667) scale(1.2459,1.2459)">
	<rect x="-93.3" y="-10.2" class="st8" width="34.3" height="34.3"/>
</g>
<g transform="matrix(1,0,0,1,343,20) translate(97.3333,191.6667) scale(1.2459,1.2459)">
	<path class="st2" d="M-90.4,23.8V-9.9c-18.5,0-33.5,15-33.5,33.5c0,0.1,0,0.1,0,0.2H-90.4z"/>
</g>
<g transform="matrix(1,0,0,1,343,20) translate(191.6667,191.6667) scale(1.2459,1.2459)">
	<path class="st2" d="M-119.5-5.3h-37.2V7.1h12.5v12.2h12.3V7.1h12.5V-5.3z"/>
</g>
<g transform="matrix(1,0,0,1,20,20) translate(649,3) scale(1.2459,1.2459)">
	<path class="st2" d="M-165.4,85.7V52c-18.5,0-33.5,15-33.5,33.5c0,0.1,0,0.1,0,0.2H-165.4z"/>
</g>
<g transform="matrix(1,0,0,1,666,20) translate(191.6667,3) scale(1.2459,1.2459)">
	<path class="st4" d="M-244.1,62.7V49.5h-13.2v25.4h13.2v13.4h13.2V62.7H-244.1z"/>
</g>
<g transform="matrix(1,0,0,1,666,20) translate(3,97.3333) scale(1.2459,1.2459)">
	<rect x="-199.4" y="20.8" class="st8" width="34.3" height="34.3"/>
</g>
<g transform="matrix(1,0,0,1,666,20) translate(97.3333,97.3333) scale(1.2459,1.2459)">
	<circle class="st5" cx="-213.2" cy="37.9" r="17"/>
</g>
<g transform="matrix(1,0,0,1,666,20) translate(191.6667,97.3333) scale(1.2459,1.2459)">
	<path class="st2" d="M-225.5,25.6h-37.2V38h12.5v12.2h12.3V38h12.5V25.6z"/>
</g>
<g transform="matrix(1,0,0,1,666,20) translate(3,191.6667) scale(1.2459,1.2459)">
	<path class="st3" d="M-171.6-8.4h-10.6v20h-10.6v10.6h21.2l0,0h0.1V-8.4z"/>
</g>
<g transform="matrix(1,0,0,1,666,20) translate(97.3333,191.6667) scale(1.2459,1.2459)">
	<path class="st7" d="M-201.6,24.1h-23.2c-3.1,0-5.6-2.5-5.6-5.6V-4.6c0-3.1,2.5-5.6,5.6-5.6h23.2c3.1,0,5.6,2.5,5.6,5.6v23.2
		C-196.1,21.6-198.5,24.1-201.6,24.1z"/>
</g>
<g transform="matrix(1,0,0,1,666,20) translate(191.6667,191.6667) scale(1.2459,1.2459)">
	<path class="st1" d="M-244.2-8.6l-18,31.1h36L-244.2-8.6z"/>
</g>
<g transform="matrix(1,0,0,1,20,20) translate(3,326) scale(1.2459,1.2459)">
	<circle class="st5" cx="29.8" cy="-37.1" r="17"/>
</g>
<g transform="matrix(1,0,0,1,20,343) translate(97.3333,3) scale(1.2459,1.2459)">
	<path class="st6" d="M-1.1-54.1c-9.3,0-17,7.6-17,17s7.6,17,17,17s17-7.6,17-17S8.3-54.1-1.1-54.1z M-1.1-30.2
		c-3.8,0-6.9-3.1-6.9-6.9S-4.9-44-1.1-44s6.9,3.1,6.9,6.9S2.7-30.2-1.1-30.2z"/>
</g>
<g transform="matrix(1,0,0,1,20,343) translate(191.6667,3) scale(1.2459,1.2459)">
	<path class="st7" d="M-20.5-20h-23.2c-3.1,0-5.6-2.5-5.6-5.6v-23.2c0-3.1,2.5-5.6,5.6-5.6h23.2c3.1,0,5.6,2.5,5.6,5.6v23.2
		C-15-22.5-17.5-20-20.5-20z"/>
</g>
<g transform="matrix(1,0,0,1,20,343) translate(3,97.3333) scale(1.2459,1.2459)">
	<path class="st2" d="M48.4-80.4H11.2V-68h12.5v12.2H36V-68h12.5V-80.4z"/>
</g>
<g transform="matrix(1,0,0,1,20,343) translate(191.6667,97.3333) scale(1.2459,1.2459)">
	<rect x="-49.3" y="-85.2" class="st8" width="34.3" height="34.3"/>
</g>
<g transform="matrix(1,0,0,1,20,343) translate(3,191.6667) scale(1.2459,1.2459)">
	<path class="st1" d="M29.8-114.6l-18,31.1h36L29.8-114.6z"/>
</g>
<g transform="matrix(1,0,0,1,20,343) translate(97.3333,191.6667) scale(1.2459,1.2459)">
	<path class="st4" d="M-1.1-105.3v-13.2h-13.2V-93h13.2v13.4H12v-25.7H-1.1z"/>
</g>
<g transform="matrix(1,0,0,1,20,343) translate(191.6667,191.6667) scale(1.2459,1.2459)">
	<path class="st2" d="M-15.3-82.2v-33.7c-18.5,0-33.5,15-33.5,33.5c0,0.1,0,0.1,0,0.2H-15.3z"/>
</g>
<g transform="matrix(1,0,0,1,20,20) translate(326,326) scale(1.2459,1.2459)">
	<path class="st3" d="M-65.6-52.5h-10.6v20h-10.6v10.6h21.2l0,0h0.1V-52.5z"/>
</g>
<g transform="matrix(1,0,0,1,343,343) translate(97.3333,3) scale(1.2459,1.2459)">
	<path class="st2" d="M-88.6-49.4h-37.2V-37h12.5v12.2h12.3V-37h12.5V-49.4z"/>
</g>
<g transform="matrix(1,0,0,1,343,343) translate(191.6667,3) scale(1.2459,1.2459)">
	<path class="st1" d="M-138.1-52.7l-18,31.1h36L-138.1-52.7z"/>
</g>
<g transform="matrix(1,0,0,1,343,343) translate(3,97.3333) scale(1.2459,1.2459)">
	<path class="st2" d="M-59.4-51.3V-85c-18.5,0-33.5,15-33.5,33.5c0,0.1,0,0.1,0,0.2H-59.4z"/>
</g>
<g transform="matrix(1,0,0,1,343,343) translate(191.6667,97.3333) scale(1.2459,1.2459)">
	<path class="st4" d="M-138.1-74.3v-13.2h-13.2v25.4h13.2v13.4h13.2v-25.7H-138.1z"/>
</g>
<g transform="matrix(1,0,0,1,343,343) translate(3,191.6667) scale(1.2459,1.2459)">
	<path class="st6" d="M-76.2-116c-9.3,0-17,7.6-17,17s7.6,17,17,17s17-7.6,17-17S-66.8-116-76.2-116z M-76.2-92.2
		c-3.8,0-6.9-3.1-6.9-6.9c0-3.8,3.1-6.9,6.9-6.9c3.8,0,6.9,3.1,6.9,6.9S-72.4-92.2-76.2-92.2z"/>
</g>
<g transform="matrix(1,0,0,1,343,343) translate(97.3333,191.6667) scale(1.2459,1.2459)">
	<circle class="st5" cx="-107.2" cy="-99.1" r="17"/>
</g>
<g transform="matrix(1,0,0,1,343,343) translate(191.6667,191.6667) scale(1.2459,1.2459)">
	<rect x="-155.3" y="-116.2" class="st8" width="34.3" height="34.3"/>
</g>
<g transform="matrix(1,0,0,1,20,20) translate(649,326) scale(1.2459,1.2459)">
	<path class="st4" d="M-182.2-43.3v-13.2h-13.2v25.4h13.2v13.4h13.2v-25.7H-182.2z"/>
</g>
<g transform="matrix(1,0,0,1,666,343) translate(97.3333,3) scale(1.2459,1.2459)">
	<path class="st2" d="M-196.4-20.3V-54c-18.5,0-33.5,15-33.5,33.5c0,0.1,0,0.1,0,0.2H-196.4z"/>
</g>
<g transform="matrix(1,0,0,1,666,343) translate(191.6667,3) scale(1.2459,1.2459)">
	<rect x="-261.3" y="-54.3" class="st8" width="34.3" height="34.3"/>
</g>
<g transform="matrix(1,0,0,1,666,343) translate(3,97.3333) scale(1.2459,1.2459)">
	<path class="st6" d="M-182.2-85.1c-9.3,0-17,7.6-17,17c0,9.3,7.6,17,17,17s17-7.6,17-17C-165.2-77.4-172.8-85.1-182.2-85.1z
		 M-182.2-61.2c-3.8,0-6.9-3.1-6.9-6.9c0-3.8,3.1-6.9,6.9-6.9c3.8,0,6.9,3.1,6.9,6.9C-175.3-64.2-178.4-61.2-182.2-61.2z"/>
</g>
<g transform="matrix(1,0,0,1,666,343) translate(97.3333,97.3333) scale(1.2459,1.2459)">
	<path class="st1" d="M-213.2-83.7l-18,31.1h36L-213.2-83.7z"/>
</g>
<g transform="matrix(1,0,0,1,666,343) translate(191.6667,97.3333) scale(1.2459,1.2459)">
	<circle class="st5" cx="-244.2" cy="-68.1" r="17"/>
</g>
<g transform="matrix(1,0,0,1,666,343) translate(3,191.6667) scale(1.2459,1.2459)">
	<path class="st7" d="M-170.6-81.9h-23.2c-3.1,0-5.6-2.5-5.6-5.6v-23.2c0-3.1,2.5-5.6,5.6-5.6h23.2c3.1,0,5.6,2.5,5.6,5.6v23.2
		C-165.1-84.4-167.6-81.9-170.6-81.9z"/>
</g>
<g transform="matrix(1,0,0,1,666,343) translate(97.3333,191.6667) scale(1.2459,1.2459)">
	<path class="st2" d="M-194.6-111.4h-37.2V-99h12.5v12.2h12.3V-99h12.5V-111.4z"/>
</g>
<g transform="matrix(1,0,0,1,666,343) translate(191.6667,191.6667) scale(1.2459,1.2459)">
	<path class="st3" d="M-233.5-114.4h-10.6v20h-10.6v10.6h21.2l0,0h0.1V-114.4z"/>
</g>
<g transform="matrix(1,0,0,1,20,20) translate(3,649) scale(1.2459,1.2459)">
	<path class="st6" d="M29.8-160.1c-9.3,0-17,7.6-17,17c0,9.3,7.6,17,17,17s17-7.6,17-17C46.8-152.5,39.2-160.1,29.8-160.1z
		 M29.8-136.3c-3.8,0-6.9-3.1-6.9-6.9s3.1-6.9,6.9-6.9s6.9,3.1,6.9,6.9S33.7-136.3,29.8-136.3z"/>
</g>
<g transform="matrix(1,0,0,1,20,666) translate(97.3333,3) scale(1.2459,1.2459)">
	<path class="st2" d="M15.6-126.3V-160c-18.5,0-33.5,15-33.5,33.5c0,0.1,0,0.1,0,0.2H15.6z"/>
</g>
<g transform="matrix(1,0,0,1,20,666) translate(191.6667,3) scale(1.2459,1.2459)">
	<circle class="st5" cx="-32.1" cy="-143.2" r="17"/>
</g>
<g transform="matrix(1,0,0,1,20,666) translate(3,97.3333) scale(1.2459,1.2459)">
	<path class="st3" d="M40.5-189.4H29.8v20H19.2v10.6h21.2l0,0h0.1V-189.4z"/>
</g>
<g transform="matrix(1,0,0,1,20,666) translate(97.3333,97.3333) scale(1.2459,1.2459)">
	<rect x="-18.3" y="-191.3" class="st8" width="34.3" height="34.3"/>
</g>
<g transform="matrix(1,0,0,1,20,666) translate(191.6667,97.3333) scale(1.2459,1.2459)">
	<path class="st1" d="M-32.1-189.7l-18,31.1h36L-32.1-189.7z"/>
</g>
<g transform="matrix(1,0,0,1,20,666) translate(3,191.6667) scale(1.2459,1.2459)">
	<path class="st7" d="M41.4-188H18.2c-3.1,0-5.6-2.5-5.6-5.6v-23.2c0-3.1,2.5-5.6,5.6-5.6h23.2c3.1,0,5.6,2.5,5.6,5.6v23.2
		C47-190.4,44.5-188,41.4-188z"/>
</g>
<g transform="matrix(1,0,0,1,20,666) translate(191.6667,191.6667) scale(1.2459,1.2459)">
	<path class="st4" d="M-32.1-211.3v-13.2h-13.2v25.4h13.2v13.4h13.2v-25.7H-32.1z"/>
</g>
<g transform="matrix(1,0,0,1,20,20) translate(326,649) scale(1.2459,1.2459)">
	<path class="st4" d="M-76.1-149.4v-13.2h-13.2v25.4h13.2v13.4H-63v-25.7H-76.1z"/>
</g>
<g transform="matrix(1,0,0,1,343,666) translate(97.3333,3) scale(1.2459,1.2459)">
	<path class="st1" d="M-107.2-158.7l-18,31.1h36L-107.2-158.7z"/>
</g>
<g transform="matrix(1,0,0,1,343,666) translate(191.6667,3) scale(1.2459,1.2459)">
	<path class="st3" d="M-127.5-158.5h-10.6v20h-10.6v10.6h21.2l0,0h0.1V-158.5z"/>
</g>
<g transform="matrix(1,0,0,1,343,666) translate(3,97.3333) scale(1.2459,1.2459)">
	<path class="st2" d="M-57.6-186.4h-37.2v12.4h12.5v12.2h12.3V-174h12.5V-186.4z"/>
</g>
<g transform="matrix(1,0,0,1,343,666) translate(97.3333,97.3333) scale(1.2459,1.2459)">
	<path class="st6" d="M-107.2-191.1c-9.3,0-17,7.6-17,17c0,9.3,7.6,17,17,17s17-7.6,17-17C-90.1-183.5-97.8-191.1-107.2-191.1z
		 M-107.2-167.2c-3.8,0-6.9-3.1-6.9-6.9c0-3.8,3.1-6.9,6.9-6.9s6.9,3.1,6.9,6.9S-103.3-167.2-107.2-167.2z"/>
</g>
<g transform="matrix(1,0,0,1,343,666) translate(191.6667,97.3333) scale(1.2459,1.2459)">
	<path class="st7" d="M-126.5-157h-23.2c-3.1,0-5.6-2.5-5.6-5.6v-23.2c0-3.1,2.5-5.6,5.6-5.6h23.2c3.1,0,5.6,2.5,5.6,5.6v23.2
		C-121-159.5-123.5-157-126.5-157z"/>
</g>
<g transform="matrix(1,0,0,1,343,666) translate(3,191.6667) scale(1.2459,1.2459)">
	<circle class="st5" cx="-76.2" cy="-205.1" r="17"/>
</g>
<g transform="matrix(1,0,0,1,343,666) translate(97.3333,191.6667) scale(1.2459,1.2459)">
	<rect x="-124.3" y="-222.2" class="st8" width="34.3" height="34.3"/>
</g>
<g transform="matrix(1,0,0,1,343,666) translate(191.6667,191.6667) scale(1.2459,1.2459)">
	<path class="st2" d="M-121.3-188.3v-33.7c-18.5,0-33.5,15-33.5,33.5c0,0.1,0,0.1,0,0.2H-121.3z"/>
</g>
<g transform="matrix(1,0,0,1,20,20) translate(649,649) scale(1.2459,1.2459)">
	<path class="st2" d="M-163.6-155.5h-37.2v12.4h12.5v12.2h12.3V-143h12.5V-155.5z"/>
</g>
<g transform="matrix(1,0,0,1,666,666) translate(97.3333,3) scale(1.2459,1.2459)">
	<rect x="-230.3" y="-160.3" class="st8" width="34.3" height="34.3"/>
</g>
<g transform="matrix(1,0,0,1,666,666) translate(191.6667,3) scale(1.2459,1.2459)">
	<path class="st7" d="M-232.6-126h-23.2c-3.1,0-5.6-2.5-5.6-5.6v-23.2c0-3.1,2.5-5.6,5.6-5.6h23.2c3.1,0,5.6,2.5,5.6,5.6v23.2
		C-227-128.5-229.5-126-232.6-126z"/>
</g>
<g transform="matrix(1,0,0,1,666,666) translate(3,97.3333) scale(1.2459,1.2459)">
	<circle class="st5" cx="-182.2" cy="-174.1" r="17"/>
</g>
<g transform="matrix(1,0,0,1,666,666) translate(97.3333,97.3333) scale(1.2459,1.2459)">
	<path class="st4" d="M-213.1-180.3v-13.2h-13.2v25.4h13.2v13.4h13.2v-25.7H-213.1z"/>
</g>
<g transform="matrix(1,0,0,1,666,666) translate(191.6667,97.3333) scale(1.2459,1.2459)">
	<path class="st2" d="M-227.4-157.3V-191c-18.5,0-33.5,15-33.5,33.5c0,0.1,0,0.1,0,0.2H-227.4z"/>
</g>
<g transform="matrix(1,0,0,1,666,666) translate(3,191.6667) scale(1.2459,1.2459)">
	<path class="st1" d="M-182.2-220.6l-18,31.1h36L-182.2-220.6z"/>
</g>
<g transform="matrix(1,0,0,1,666,666) translate(97.3333,191.6667) scale(1.2459,1.2459)">
	<path class="st3" d="M-202.6-220.4h-10.6v20h-10.6v10.6h21.2l0,0h0.1V-220.4z"/>
</g>
</svg>
