<?xml version="1.0"?><svg  viewBox="0 0 200 200" width="86mm" height="86mm" xmlns="http://www.w3.org/2000/svg"  version="1.2" viewport-fill="#fff">
  <polyline points="77.700,91.400,75.300,97.700"  style="fill:none;stroke:#000;stroke-width:0.1953;opacity:1"/>
  <polyline points="77.700,91.400,80.100,97.700"  style="fill:none;stroke:#000;stroke-width:0.1953;opacity:1"/>
  <polyline points="76.200,95.600,79.200,95.600"  style="fill:none;stroke:#000;stroke-width:0.1953;opacity:1"/>
  <polyline points="84.900,94.400,84.300,93.800,83.700,93.500,82.800,93.500,82.200,93.800,81.600,94.400,81.300,95.300,81.300,95.900,81.600,96.800,82.200,97.400,82.800,97.700,83.700,97.700,84.300,97.400,84.900,96.800"  style="fill:none;stroke:#000;stroke-width:0.1953;opacity:1"/>
  <polyline points="87.300,91.400,87.300,96.500,87.600,97.400,88.200,97.700,88.800,97.700"  style="fill:none;stroke:#000;stroke-width:0.1953;opacity:1"/>
  <polyline points="86.400,93.500,88.500,93.500"  style="fill:none;stroke:#000;stroke-width:0.1953;opacity:1"/>
  <polyline points="90.300,91.400,90.600,91.700,90.900,91.400,90.600,91.100,90.300,91.400"  style="fill:none;stroke:#000;stroke-width:0.1953;opacity:1"/>
  <polyline points="90.600,93.500,90.600,97.700"  style="fill:none;stroke:#000;stroke-width:0.1953;opacity:1"/>
  <polyline points="93.300,91.400,93.300,96.500,93.600,97.400,94.200,97.700,94.800,97.700"  style="fill:none;stroke:#000;stroke-width:0.1953;opacity:1"/>
  <polyline points="92.400,93.500,94.500,93.500"  style="fill:none;stroke:#000;stroke-width:0.1953;opacity:1"/>
  <polyline points="96.600,93.500,96.600,96.500,96.900,97.400,97.500,97.700,98.400,97.700,99.000,97.400,99.900,96.500"  style="fill:none;stroke:#000;stroke-width:0.1953;opacity:1"/>
  <polyline points="99.900,93.500,99.900,97.700"  style="fill:none;stroke:#000;stroke-width:0.1953;opacity:1"/>
  <polyline points="105.600,91.400,105.600,97.700"  style="fill:none;stroke:#000;stroke-width:0.1953;opacity:1"/>
  <polyline points="105.600,94.400,105.000,93.800,104.400,93.500,103.500,93.500,102.900,93.800,102.300,94.400,102.000,95.300,102.000,95.900,102.300,96.800,102.900,97.400,103.500,97.700,104.400,97.700,105.000,97.400,105.600,96.800"  style="fill:none;stroke:#000;stroke-width:0.1953;opacity:1"/>
  <polyline points="90.300,110.300,90.300,109.700,90.600,108.800,91.200,108.500,91.800,108.500,92.400,108.800,93.600,109.700,94.200,110.000,94.800,110.000,95.400,109.700,95.700,109.100"  style="fill:none;stroke:#000;stroke-width:0.1953;opacity:1"/>
  <polyline points="90.300,109.700,90.600,109.100,91.200,108.800,91.800,108.800,92.400,109.100,93.600,110.000,94.200,110.300,94.800,110.300,95.400,110.000,95.700,109.100,95.700,108.500"  style="fill:none;stroke:#000;stroke-width:0.1953;opacity:1"/>
</svg>