<?xml version="1.0"?><svg  viewBox="0 0 200 200" width="86mm" height="86mm" xmlns="http://www.w3.org/2000/svg"  version="1.2" viewport-fill="#fff">
  <polyline points="76.200,95.600,79.200,95.600"  style="fill:none;stroke:#000;stroke-width:0.1953;opacity:1"/>
  <polyline points="80.100,97.700,77.700,91.400,75.300,97.700"  style="fill:none;stroke:#000;stroke-width:0.1953;opacity:1"/>
  <polyline points="85.800,96.200,85.500,96.800,84.900,97.400,84.300,97.700,83.100,97.700,82.500,97.400,81.900,96.800,81.600,96.200,81.300,95.300,81.300,93.800,81.600,92.900,81.900,92.300,82.500,91.700,83.100,91.400,84.300,91.400,84.900,91.700,85.500,92.300,85.800,92.900"  style="fill:none;stroke:#000;stroke-width:0.1953;opacity:1"/>
  <polyline points="87.000,91.400,91.200,91.400"  style="fill:none;stroke:#000;stroke-width:0.1953;opacity:1"/>
  <polyline points="92.700,91.400,92.700,97.700"  style="fill:none;stroke:#000;stroke-width:0.1953;opacity:1"/>
  <polyline points="96.300,97.700,96.300,91.400"  style="fill:none;stroke:#000;stroke-width:0.1953;opacity:1"/>
  <polyline points="94.200,91.400,98.400,91.400"  style="fill:none;stroke:#000;stroke-width:0.1953;opacity:1"/>
  <polyline points="99.900,91.400,99.900,95.900,100.200,96.800,100.800,97.400,101.700,97.700,102.300,97.700,103.200,97.400,103.800,96.800,104.100,95.900,104.100,91.400"  style="fill:none;stroke:#000;stroke-width:0.1953;opacity:1"/>
  <polyline points="106.500,91.400,106.500,97.700,108.600,97.700,109.500,97.400,110.100,96.800,110.400,96.200,110.700,95.300,110.700,93.800,110.400,92.900,110.100,92.300,109.500,91.700,108.600,91.400,106.500,91.400"  style="fill:none;stroke:#000;stroke-width:0.1953;opacity:1"/>
  <polyline points="89.100,91.400,89.100,97.700"  style="fill:none;stroke:#000;stroke-width:0.1953;opacity:1"/>
  <polyline points="90.300,109.700,90.600,109.100,91.200,108.800,91.800,108.800,92.400,109.100,93.600,110.000,94.200,110.300,94.800,110.300,95.400,110.000,95.700,109.100,95.700,108.500"  style="fill:none;stroke:#000;stroke-width:0.1953;opacity:1"/>
  <polyline points="95.700,109.100,95.400,109.700,94.800,110.000,94.200,110.000,93.600,109.700,92.400,108.800,91.800,108.500,91.200,108.500,90.600,108.800,90.300,109.700,90.300,110.300"  style="fill:none;stroke:#000;stroke-width:0.1953;opacity:1"/>
</svg>