<?xml version="1.0" encoding="utf-8"?>
<!-- Generator: Adobe Illustrator 22.0.0, SVG Export Plug-In . SVG Version: 6.00 Build 0)  -->
<svg version="1.1" id="Layer_1" xmlns="http://www.w3.org/2000/svg" xmlns:xlink="http://www.w3.org/1999/xlink" x="0px" y="0px"
	 viewBox="0 0 154 243" style="enable-background:new 0 0 154 243;" xml:space="preserve">
<style type="text/css">
	.st0{fill:#FFFFFF;}
	.st1{fill:none;stroke:#000000;stroke-linecap:round;stroke-miterlimit:10;}
	.st2{fill:none;stroke:#000000;stroke-width:0.1953;}
</style>
<g>
	<g>
		<path class="st0" d="M144,0c6.7,0,10,3.3,10,10v223c0,6.7-3.3,10-10,10H10c-6.7,0-10-3.3-10-10V10C0,3.3,3.3,0,10,0H144z"/>
	</g>
	<g>
		<path class="st1" d="M144,0c6.7,0,10,3.3,10,10v223c0,6.7-3.3,10-10,10H10c-6.7,0-10-3.3-10-10V10C0,3.3,3.3,0,10,0H144z"/>
		<line class="st1" x1="0" y1="0" x2="-10" y2="-10"/>
		<line class="st1" x1="154" y1="0" x2="164" y2="-10"/>
		<line class="st1" x1="0" y1="243" x2="-10" y2="253"/>
		<line class="st1" x1="154" y1="243" x2="164" y2="253"/>
	</g>
</g>
<g>
	<line class="st2" x1="57.4" y1="159.4" x2="61.1" y2="159.4"/>
	<polyline class="st2" points="62.2,162 59.3,154.3 56.3,162 	"/>
	<polyline class="st2" points="69.1,160.2 68.8,160.9 68,161.6 67.3,162 65.8,162 65.1,161.6 64.4,160.9 64,160.2 63.6,159.1 
		63.6,157.2 64,156.1 64.4,155.4 65.1,154.7 65.8,154.3 67.3,154.3 68,154.7 68.8,155.4 69.1,156.1 	"/>
	<line class="st2" x1="70.6" y1="154.3" x2="75.7" y2="154.3"/>
	<line class="st2" x1="77.5" y1="154.3" x2="77.5" y2="162"/>
	<line class="st2" x1="81.9" y1="162" x2="81.9" y2="154.3"/>
	<line class="st2" x1="79.4" y1="154.3" x2="84.5" y2="154.3"/>
	<polyline class="st2" points="86.3,154.3 86.3,159.8 86.7,160.9 87.4,161.6 88.5,162 89.2,162 90.3,161.6 91.1,160.9 91.4,159.8 
		91.4,154.3 	"/>
	<polyline class="st2" points="94.4,154.3 94.4,162 96.9,162 98,161.6 98.7,160.9 99.1,160.2 99.5,159.1 99.5,157.2 99.1,156.1 
		98.7,155.4 98,154.7 96.9,154.3 94.4,154.3 	"/>
	<line class="st2" x1="73.1" y1="154.3" x2="73.1" y2="162"/>
	<polyline class="st2" points="74.6,176.6 75,175.9 75.7,175.5 76.4,175.5 77.2,175.9 78.6,177 79.4,177.3 80.1,177.3 80.8,177 
		81.2,175.9 81.2,175.1 	"/>
	<polyline class="st2" points="81.2,175.9 80.8,176.6 80.1,177 79.4,177 78.6,176.6 77.2,175.5 76.4,175.1 75.7,175.1 75,175.5 
		74.6,176.6 74.6,177.3 	"/>
</g>
</svg>
