<?xml version="1.0" standalone="no"?>
  <!DOCTYPE svg PUBLIC "-//W3C//DTD SVG 1.1//EN" 
      "http://www.w3.org/Graphics/SVG/1.1/DTD/svg11.dtd">
  <svg width="12cm" height="12cm"
      xmlns="http://www.w3.org/2000/svg" version="1.1" viewBox="0 0 425.19685 425.19685">
    <g>
      <path d="M70.99343 90.0859 L70.88415 111.69811 L70.88601 251.59861 L70.97171 266.5809 L71.13578 269.15253 L71.87447 271.20352 L73.78842 271.19275 L76.34006 270.17236 L84.69098 266.48723 L97.39999 260.74418 L142.45162 240.17888 L170.02735 227.56451 L188.68749 219.02242 L201.91535 212.75322 L210.55476 208.51328 L210.99013 204.90339 L212.22756 191.37012 L220.05728 96.41556 L221.40044 78.9634 L221.47939 77.92885 L221.577 76.38178 L221.86807 71.27358 L221.33775 71.11853 L211.06252 70.95532 L203.65504 70.89191 L76.40945 70.87158 L73.05586 71.25558 L71.19604 71.57857 L71.16717 71.61291 L70.99343 90.0859 M70.98562 274.92239 L70.87524 290.0356 L70.91458 321.92611 L71.00348 346.69642 L71.67899 351.65448 L72.09381 353.3366 L72.3828 353.96286 L75.99216 354.21598 L103.28996 354.27606 L176.69313 354.29369 L211.36971 354.28078 L220.58202 354.06818 L225.29429 352.55625 L225.05114 346.0012 L211.87103 229.37994 L209.84958 213.73789 L209.39648 213.16755 L206.63087 210.87951 L158.05075 233.08089 L107.00962 256.4104 L91.91823 263.35525 L87.36637 265.48707 L77.94813 269.90329 L73.98886 271.83322 L71.11052 274.70778 L70.98562 274.92239 M219.07994 108.81148 L215.0516 159.03968 L217.07412 159.83792 L218.82728 160.24458 L222.09822 160.69887 L239.23999 161.75111 L273.53724 163.8046 L335.97014 167.40011 L350.63118 168.15006 L352.87709 168.26351 L353.52775 165.85205 L354.24073 159.5206 L354.30688 109.80097 L354.25961 104.46422 L354.05025 83.49019 L353.72586 74.16706 L351.82428 71.69544 L348.97732 71.49726 L340.75316 71.00226 L306.00401 70.87413 L252.63095 70.90535 L236.11481 71.12736 L222.1532 71.67469 L219.07994 108.81148 M282.57451 243.42187 L282.5263 245.4541 L282.64669 254.28667 L283.89753 257.78973 L289.81226 260.01411 L353.67334 282.41909 L353.85201 281.7089 L354.31608 272.20785 L354.27625 209.35048 L354.21921 179.97202 L353.93986 177.18648 L352.952 171.3188 L350.52961 169.09832 L347.50682 168.47013 L343.16594 168.04692 L318.19318 166.47914 L309.8967 165.9691 L290.25616 164.80958 L286.15618 165.6494 L285.58061 166.4019 L285.27337 171.31577 L283.64918 214.70194 L282.57451 243.42187 M278.57071 342.86736 L276.44111 353.90071 L278.78744 354.2537 L285.7079 354.29112 L295.61322 354.31997 L350.00162 354.32082 L353.48914 353.92664 L353.90473 352.15051 L354.16094 346.9459 L354.32831 343.31979 L354.3161 298.10118 L354.18756 286.27842 L352.65683 283.02328 L351.90597 282.227 L344.01199 279.20206 L338.8198 277.30902 L323.73396 272.05314 L306.86894 266.21362 L300.43165 264.00001 L297.24288 264.0486 L295.05747 264.33154 L294.62671 264.77971 L292.13201 275.66762 L286.05831 305.66982 L278.57071 342.86736 M219.27563 291.00228 L219.21553 293.35012 L221.93736 317.88672 L224.51709 341.04105 L225.83122 352.14198 L227.45684 353.51531 L230.55252 354.21314 L251.38483 354.3107 L268.11546 354.17282 L273.23769 353.71607 L275.74748 353.4574 L276.1112 351.93495 L278.24727 342.68378 L279.59416 336.63236 L283.90733 316.01865 L288.77331 291.48194 L287.72682 290.52673 L283.74929 290.21892 L270.45191 289.99264 L247.43139 289.77213 L226.37954 289.62438 L223.54262 289.76132 L220.14792 290.19507 L219.27563 291.00228 M240.02849 283.47551 L238.61041 288.1012 L239.52344 289.23527 L240.02103 289.52256 L288.3229 290.01497 L289.14242 288.41402 L289.61771 287.02421 L290.48793 282.67628 L292.00291 274.87937 L292.75148 270.65175 L293.55993 266.06607 L293.89316 264.08402 L283.00136 222.09661 L280.03302 221.77797 L278.16195 221.77551 L265.36767 225.13681 L261.34424 227.80513 L251.61063 253.03273 L240.02849 283.47551 M215.15438 237.48043 L213.04167 239.10403 L217.41622 278.00324 L218.21265 284.57887 L218.91611 288.3741 L219.95312 289.28864 L234.48611 289.48283 L235.44456 289.19946 L238.95442 285.85102 L249.7141 257.9579 L255.31478 241.53606 L248.33779 240.76574 L228.60444 238.6439 L220.17849 237.80144 L215.15438 237.48043 M212.02922 198.32013 L211.84267 202.01488 L229.05119 200.80521 L245.1903 199.56908 L246.50351 198.21594 L249.44614 190.73165 L250.70853 186.47911 L255.75535 169.23587 L257.23715 163.57086 L249.47245 162.67551 L244.49822 162.12787 L242.80771 162.01988 L222.95156 161.0116 L216.75368 160.91077 L214.86052 161.46613 L212.02922 198.32013 M242.75602 199.96602 L242.4447 200.78529 L242.81712 209.38735 L243.24402 213.28762 L244.36643 223.26264 L246.07461 236.46677 L248.48956 240.56587 L252.07781 240.91556 L254.00574 240.84076 L282.62094 218.53247 L283.21354 217.51661 L283.13194 207.80035 L281.87331 206.39549 L278.11209 203.7589 L274.6277 202.65436 L249.17221 195.25333 L242.75602 199.96602 M255.7222 170.91344 L253.08042 180.92458 L266.26825 182.17268 L279.41955 183.40006 L281.7232 183.41244 L283.52437 183.38129 L284.27778 182.47007 L284.68812 180.33117 L284.80198 169.16013 L284.80269 165.80529 L283.96226 165.13915 L281.94769 164.64423 L262.56828 163.22388 L258.66924 163.053 L258.00417 163.47079 L255.7222 170.91344 M253.4137 181.36633 L238.94713 200.34369 L239.50508 201.12516 L241.78769 203.93461 L262.9113 198.58822 L264.77955 197.70843 L265.12902 197.369 L266.8056 185.93706 L266.47647 182.72194 L258.78337 181.85821 L253.4137 181.36633 M274.44251 198.67665 L274.20413 201.70766 L276.76075 202.7899 L278.41386 203.44005 L282.30677 203.94453 L283.073 202.88645 L283.85418 197.1681 L284.35766 191.85058 L284.28961 188.12186 L283.31031 183.85785 L277.68357 184.08165 L276.94566 184.75611 L275.46508 191.94124 L275.02687 194.49248 L274.44251 198.67665 M266.08923 192.10554 L265.6823 197.34374 L266.82565 199.24113 L267.05112 199.4966 L268.07616 200.20498 L269.47053 200.6864 L271.77948 200.99114 L271.7923 200.98492 L273.93336 199.73421 L276.21754 185.70682 L275.28832 185.04944 L271.7324 183.07052 L270.8787 182.99399 L267.79491 183.23459 L267.26792 184.35233 L266.08923 192.10554 M227.9383 223.33737 L224.6625 235.96612 L225.55643 238.20015 L229.06071 238.5349 L242.952 239.43447 L244.64983 238.85173 L244.95383 238.26391 L245.39451 235.91472 L244.0915 223.13337 L243.44833 217.50085 L242.71871 215.842 L236.65013 217.54407 L232.67319 219.06867 L230.23677 221.08094 L227.9383 223.33737 M215.42495 220.47259 L211.47534 221.28467 L212.41443 229.56257 L213.15086 234.612 L215.3838 236.78235 L215.89502 237.04292 L220.17587 237.43533 L223.00285 237.35364 L224.66935 234.42692 L227.7183 222.98086 L227.86751 220.25749 L226.85466 218.85993 L215.42495 220.47259 M211.74323 203.82093 L211.7122 205.44492 L213.04501 206.92386 L214.92304 207.98279 L224.06588 212.99788 L225.79784 211.87328 L226.73671 211.04275 L228.78235 202.76701 L228.29216 201.83376 L221.28311 201.64338 L216.89459 202.05042 L211.74323 203.82093 M228.44507 206.1792 L223.53547 213.4168 L224.07269 218.29678 L228.61499 219.61789 L230.17078 219.56534 L231.30521 219.15313 L237.1417 216.88319 L236.97495 215.03527 L232.01104 209.63219 L229.05504 206.74306 L228.44507 206.1792 M212.40159 207.21508 L209.47907 210.3463 L211.49914 215.41532 L212.43912 216.12873 L220.08402 211.65984 L218.71901 210.73896 L213.75433 207.64535 L212.40159 207.21508 M216.61893 214.05542 L210.7936 219.26946 L211.2868 219.95603 L212.84755 220.02325 L222.94933 219.12772 L222.76281 213.45712 L221.13499 211.88399 L216.61893 214.05542 M235.39786 209.62495 L233.84637 210.72765 L238.84302 216.48853 L240.41536 215.84453 L242.20147 214.98967 L242.82357 210.63818 L241.23247 209.73621 L235.39786 209.62495 M231.94263 205.51356 L228.54336 205.64887 L233.1567 210.04952 L234.56186 209.42929 L235.56562 208.12438 L235.25623 206.0843 L233.40551 205.72753 L231.94263 205.51356 M230.20549 201.79782 L228.98349 204.07451 L230.40106 204.60115 L231.12184 204.68552 L231.69346 204.70501 L231.86997 204.35821 L232.1986 201.18706 L230.20549 201.79782 M236.18791 200.39003 L233.40605 200.75732 L233.50391 202.74928 L235.2222 204.194 L236.41715 204.19316 L236.74377 203.16265 L236.75525 200.52543 L236.18791 200.39003 M239.7017 206.77989 L239.4473 208.49619 L240.67386 208.15671 L241.42279 207.49359 L242.14108 205.77585 L239.7017 206.77989 M238.41657 200.98093 L237.33698 202.46976 L237.42105 205.08478 L238.05105 202.90934 L238.41657 200.98093 M240.31567 202.96802 L239.40653 202.81143 L239.47047 203.19593 L240.31356 203.78263 L240.31567 202.96802 M237.12524 206.9944 L236.69859 206.62142 L237.06469 207.17222 L237.66752 207.53991 L237.12524 206.9944 M238.74557 207.01618 L238.00373 207.44677 L238.28341 207.74725 L238.89406 207.53709 L238.74557 207.01618" fill="none" stroke="black" stroke-width="0.03cm" />
    </g>
</svg>