<?xml version="1.0" standalone="no"?>
  <!DOCTYPE svg PUBLIC "-//W3C//DTD SVG 1.1//EN" 
      "http://www.w3.org/Graphics/SVG/1.1/DTD/svg11.dtd">
  <svg width="21cm" height="29.7cm"
      xmlns="http://www.w3.org/2000/svg" version="1.1" viewBox="0 0 744.09449 1052.3622">
    <g>
      <path d="M41.60845 470.13981 L36.57369 511.74902 L37.76154 556.87979 L40.27884 581.68941 L47.9253 615.18283 L61.82235 654.18202 L73.08916 680.57579 L86.48771 700.08967 L113.20222 686.99457 L146.5402 666.65555 L207.54013 629.26383 L324.17256 557.63391 L359.94161 534.02321 L364.33323 527.18378 L363.39639 523.11834 L344.10712 506.74093 L259.48366 435.59239 L125.69118 323.60067 L118.51451 317.70527 L115.59546 320.32885 L88.60621 348.40736 L76.23997 366.17651 L59.82371 403.30546 L50.89541 425.37123 L41.60845 470.13981 M401.11402 387.01919 L400.02851 464.46929 L403.62949 473.76993 L506.70698 446.74511 L511.91746 445.24315 L598.07681 420.22984 L671.65929 398.02793 L680.58066 394.08506 L654.17835 346.21574 L638.25553 321.7169 L637.77284 320.97465 L620.3209 299.98779 L600.24711 279.24775 L589.86836 270.24549 L573.02988 256.9607 L532.58243 231.48988 L514.15644 221.62797 L493.57169 212.6381 L459.36363 201.25115 L443.38819 197.63657 L431.03196 195.03653 L418.72876 192.83631 L408.407 197.55956 L407.64662 205.29482 L404.95191 263.37231 L401.11402 387.01919 M488.97749 614.64862 L475.42478 635.67841 L514.83099 795.01691 L522.7746 820.7463 L526.2233 821.76377 L534.93489 820.42347 L563.60077 802.4367 L587.41704 784.63476 L595.77758 777.64942 L604.31529 768.4266 L629.85811 740.72099 L654.21712 709.43442 L673.2072 676.34703 L690.38034 632.84964 L694.09177 620.60573 L700.31926 598.85198 L702.03656 578.70612 L700.83332 577.46303 L687.31075 577.7078 L546.96888 603.34079 L488.97749 614.64862 M498.90004 450.8354 L496.12461 453.69302 L496.46973 465.93201 L497.10469 470.2015 L513.85993 575.65733 L519.0322 605.01342 L540.12911 603.711 L601.57012 592.75816 L704.96177 572.97389 L707.10938 558.09596 L707.11798 539.84057 L706.22799 490.04455 L702.7116 465.16357 L698.19309 446.46966 L689.79873 416.41273 L681.72262 405.83739 L665.34749 404.62397 L651.87815 406.71816 L562.07381 432.22094 L498.90004 450.8354 M215.61219 387.21941 L212.07413 392.87236 L214.31623 395.50458 L235.60136 414.72683 L281.88524 453.00264 L298.14445 465.63149 L329.76293 489.89438 L338.15677 495.69782 L349.67837 501.25094 L354.23516 499.59222 L361.66239 495.89117 L383.83922 483.69158 L389.62266 480.32551 L397.60203 466.74624 L402.59948 328.92021 L398.23008 302.52611 L347.5817 323.61106 L344.67737 324.98356 L259.53622 365.68966 L225.31255 382.26948 L215.61219 387.21941 M271.4216 592.0221 L235.85956 615.52209 L236.71011 628.99434 L243.91865 641.77416 L258.62071 663.45534 L315.35434 746.05521 L319.19802 748.94679 L448.28511 677.14671 L454.26712 671.97198 L457.14625 668.20584 L425.16079 633.49747 L339.47673 553.87369 L301.23145 573.70927 L271.4216 592.0221 M211.52575 807.60027 L209.06356 814.09366 L213.88925 820.48938 L223.76718 826.23894 L245.28914 836.59495 L252.0176 839.60471 L306.04886 854.44498 L329.96812 859.29226 L351.33471 861.51046 L379.35124 861.10469 L380.44788 851.39695 L380.40493 836.26918 L362.97363 726.03884 L283.42858 709.96608 L280.46141 711.39086 L273.97442 719.38501 L224.23137 787.53836 L211.52575 807.60027 M482.37807 546.21582 L380.21312 582.85355 L440.47678 684.20232 L444.71828 686.35856 L479.67199 689.04228 L487.4647 688.58834 L517.61965 602.24216 L507.79079 544.00099 L496.91128 541.74131 L482.37807 546.21582 M303.1712 197.14925 L294.39122 199.27619 L301.03563 221.81242 L307.9077 244.07293 L312.61364 256.5095 L345.07726 317.95271 L384.90291 301.40501 L397.0703 294.62302 L401.61995 291.48227 L405.79642 215.33607 L406.24202 195.08244 L402.26571 192.34823 L373.23842 191.5162 L347.4084 191.2768 L332.20104 192.27224 L324.97747 193.18407 L303.1712 197.14925 M381.93174 715.46791 L366.55591 723.26119 L366.71404 729.14057 L368.62977 752.88461 L370.43779 766.55112 L374.97302 794.86006 L383.32828 842.25218 L386.60125 856.70723 L392.03559 861.83674 L401.07657 861.36861 L414.85097 859.37026 L442.81072 855.25956 L477.84373 845.4634 L477.73182 843.87726 L463.23961 816.00791 L451.30177 797.12563 L420.36187 748.33435 L407.59614 729.26525 L404.36521 725.23455 L390.08814 713.46991 L381.93174 715.46791 M189.2866 351.0539 L181.33435 363.34558 L199.51225 379.28279 L210.02208 385.95098 L231.64904 376.76326 L263.93442 362.25272 L315.7384 336.94068 L316.82982 333.33121 L234.78906 294.9027 L229.2273 298.41398 L214.55319 316.80394 L189.2866 351.0539 M149.03371 274.81935 L116.10977 309.54017 L118.2397 313.74567 L129.10132 323.77117 L165.6501 354.7514 L175.87473 353.23478 L188.2014 345.8006 L218.9424 309.36632 L228.06066 294.47341 L228.59444 290.75881 L227.98012 284.72467 L224.47086 267.05747 L219.45255 249.76135 L214.39233 233.81296 L203.52358 236.5273 L178.86222 251.30531 L164.77606 260.96901 L153.87906 270.095 L149.03371 274.81935 M251.85955 212.99453 L220.49561 226.40282 L231.29756 281.22081 L235.90596 292.21099 L269.05671 309.21696 L301.0314 324.08675 L310.79944 328.33956 L316.94038 330.08765 L325.63869 330.35845 L338.04995 326.17704 L339.18545 314.68819 L295.79046 224.75741 L284.95299 208.99785 L279.1731 203.14979 L251.85955 212.99453 M461.1202 770.47254 L442.94894 777.49178 L445.51463 786.43517 L453.00226 798.62654 L476.58961 833.7017 L487.24093 842.36908 L514.04099 830.68467 L513.55954 810.45681 L512.21342 794.0655 L508.38924 776.57418 L501.87325 760.34701 L496.48749 757.5168 L461.1202 770.47254 M351.14432 504.80179 L340.16255 549.24701 L364.74087 571.53058 L369.27099 575.57705 L376.39292 578.45111 L376.77831 578.40807 L394.04624 575.40266 L415.98847 568.90725 L400.86388 531.78966 L399.70438 529.00472 L392.95424 513.39078 L387.38611 506.36657 L378.17153 496.47073 L372.7319 495.11461 L351.14432 504.80179 M404.53992 702.51493 L397.71728 709.65313 L430.66688 761.72843 L434.10516 766.83336 L440.18257 772.96612 L442.91455 775.14684 L455.29094 770.85332 L477.39488 761.06734 L494.34369 752.05564 L499.43418 744.56121 L498.58611 732.14145 L497.49672 726.96903 L489.70495 703.68513 L488.04431 701.02424 L478.82128 692.99309 L473.7746 691.73244 L447.66168 689.06865 L443.59621 689.42875 L421.1484 694.1393 L404.53992 702.51493 M441.39965 514.29579 L404.87289 527.44883 L418.64683 563.54191 L422.91998 566.14188 L438.53165 560.87669 L446.10968 556.90225 L457.8763 542.79996 L450.82918 528.32948 L441.39965 514.29579 M453.59031 464.22067 L445.58593 470.12448 L451.82515 497.34321 L456.21267 503.36598 L470.2336 503.1982 L476.64752 502.83303 L486.97565 501.27026 L498.03363 497.77944 L499.63625 495.45003 L494.23846 462.56708 L492.3181 456.71398 L485.23053 456.03599 L468.47335 458.91203 L453.59031 464.22067 M180.68136 646.90168 L164.92591 658.07354 L187.31589 696.41386 L190.2242 696.11703 L197.75979 694.45381 L231.45256 684.82399 L256.37857 675.84459 L258.12829 674.4592 L259.05433 672.01266 L259.22951 670.54238 L257.74398 665.48886 L238.73486 638.00357 L229.24348 625.07594 L219.39479 626.69564 L207.18715 631.07056 L185.72889 643.36386 L180.68136 646.90168 M467.61194 504.13877 L452.4309 511.82763 L456.23476 524.76101 L462.74491 542.61173 L468.52131 546.30004 L473.88533 546.80086 L476.33524 546.10549 L500.92229 535.05998 L503.17225 521.89342 L502.44397 509.3107 L501.12413 505.11672 L498.38376 503.95873 L467.61194 504.13877 M388.90645 485.23362 L386.77831 494.14846 L400.74803 526.40606 L413.0293 523.461 L434.138 515.32619 L448.65882 507.7684 L450.40474 500.82851 L441.8299 470.78218 L422.15775 470.81093 L398.58716 478.20788 L388.90645 485.23362 M123.32052 687.53969 L121.6404 692.07153 L124.85254 695.37137 L150.89251 712.96581 L153.83653 712.37508 L177.91181 683.35245 L167.42286 669.6589 L149.59602 667.77273 L140.4706 671.91914 L134.27705 675.489 L123.32052 687.53969 M111.86516 690.8838 L87.10888 704.24252 L87.5589 705.86052 L104.51909 727.94324 L122.7208 743.31093 L125.18028 744.54823 L126.52936 743.67423 L136.03853 736.1653 L151.3018 721.32764 L150.51516 715.9594 L136.45311 705.50031 L134.75776 704.44989 L114.43088 692.38799 L111.86516 690.8838 M156.29014 717.58998 L124.50195 749.98241 L147.16864 772.48888 L156.14493 776.96829 L162.19215 778.01362 L173.40541 764.44577 L180.10897 749.32112 L176.93796 739.08021 L156.29014 717.58998 M188.68304 796.10909 L185.46885 805.64957 L201.43127 814.6642 L223.39707 786.88679 L224.21384 782.85592 L220.999 768.81189 L220.3362 768.41242 L209.6393 763.49015 L192.26972 785.88536 L188.68304 796.10909 M177.34636 762.14055 L160.65192 785.62276 L163.59639 790.05691 L167.59922 792.09306 L181.01357 793.36983 L184.29388 791.81086 L184.69825 791.54761 L197.56648 775.94793 L177.34636 762.14055 M194.89014 731.93365 L180.46726 740.52399 L181.58209 756.6548 L184.77978 763.75023 L196.90254 772.09622 L207.89179 762.11756 L209.69491 757.20051 L209.89946 742.93132 L208.19903 736.02049 L194.89014 731.93365 M245.76643 715.26314 L244.95852 721.91101 L251.11194 737.39207 L262.78771 729.10002 L275.38568 714.7309 L277.80763 711.68623 L280.3378 707.67931 L272.26074 706.71943 L246.95716 708.22473 L245.76643 715.26314 M162.62429 707.5206 L159.49331 712.58475 L160.19246 718.74553 L180.49389 734.69233 L195.68051 721.8651 L177.06666 711.59878 L162.62429 707.5206 M252.7616 686.10703 L248.13341 691.98158 L256.14847 698.406 L275.58425 700.71915 L268.5838 683.07026 L265.66939 682.57489 L252.7616 686.10703 M238.27516 737.73939 L229.35268 741.01174 L233.75566 754.2253 L236.75854 761.1327 L241.1065 759.86026 L243.49703 755.60032 L249.52795 744.81819 L238.27516 737.73939 M219.4371 758.28852 L216.01849 763.92748 L228.11305 764.69759 L234.74413 763.30345 L228.84401 753.07897 L222.42668 754.81886 L219.4371 758.28852 M234.52222 711.54458 L222.93467 710.12739 L228.97506 726.80789 L235.98355 727.05479 L234.52222 711.54458 M210.19482 695.33715 L202.90697 702.00587 L214.45145 707.02094 L222.56873 691.83441 L219.46871 691.55459 L210.19482 695.33715 M229.01338 697.64091 L225.74991 705.87787 L235.31625 708.68168 L236.60883 707.64533 L235.37274 700.79656 L229.01338 697.64091 M234.47037 687.46449 L230.50772 689.26768 L243.10604 692.01967 L243.85996 688.13029 L244.16574 686.52778 L234.47037 687.46449 M238.05709 695.73505 L234.67082 695.22936 L246.70293 706.80431 L246.40907 697.71146 L238.05709 695.73505 M205.22516 713.80103 L196.96833 719.92268 L202.10686 726.25083 L207.62032 720.76232 L205.22516 713.80103" fill="none" stroke="black" stroke-width="0.03cm" />
    </g>
</svg>