<?xml version="1.0" standalone="no"?>
  <!DOCTYPE svg PUBLIC "-//W3C//DTD SVG 1.1//EN" 
      "http://www.w3.org/Graphics/SVG/1.1/DTD/svg11.dtd">
  <svg width="21cm" height="29.7cm"
      xmlns="http://www.w3.org/2000/svg" version="1.1" viewBox="0 0 744.09449 1052.3622">
    <g>
      <path d="M51.29516 35.44338 L50.17227 66.02405 M50.90324 82.17192 L50.56419 112.77133 M52.3921 128.99903 L49.07533 159.42004 M49.37811 175.70696 L52.08932 206.18791 M45.44365 223.3283 L56.02378 252.0424 M51.46301 269.14 L50.00442 299.70651 M51.1705 315.86675 L50.29693 346.45557 M44.43916 363.95317 L57.02827 391.84497 M79.87223 363.95317 L92.46135 391.84497 M56.70287 410.54872 L44.76456 438.72523 M92.13594 410.54872 L80.19763 438.72523 M51.22 456.08197 L50.24743 486.6678 M86.65307 456.08197 L85.6805 486.6678 M45.29188 503.81258 L56.17555 532.41301 M80.72495 503.81258 L91.60862 532.41301 M39.25347 554.73568 L62.21396 574.96572 M74.68654 554.73568 L97.64703 574.96572 M50.4097 596.2914 L51.05773 626.88582 M85.84278 596.2914 L86.4908 626.88582 M50.6143 643.02634 L50.85313 673.62669 M86.04737 643.02634 L86.2862 673.62669 M61.76513 694.46171 L39.7023 715.66714 M97.1982 694.46171 L75.13537 715.66714 M55.08619 737.13381 L46.38124 766.47086 M90.51927 737.13381 L81.81431 766.47086 M37.57167 790.73829 L63.89576 806.34218 M73.00474 790.73829 L99.32883 806.34218 M59.00228 832.40412 L42.46515 858.15217 M94.43535 832.40412 L77.89822 858.15217 M54.7976 877.26497 L46.66983 906.76714 M90.23068 877.26497 L82.1029 906.76714 M48.8778 923.56629 L52.58963 953.94163 M84.31088 923.56629 L88.0227 953.94163 M49.74033 970.22351 L51.7271 1000.76023 M85.1734 970.22351 L87.16017 1000.76023 M82.01603 35.45277 L83.56838 66.01466 M83.22547 82.17711 L82.35894 112.76613 M84.30105 128.98346 L81.28337 159.4356 M80.13715 175.87892 L85.44727 206.01596 M82.15069 222.39816 L83.43372 252.97254 M83.53999 269.14089 L82.04443 299.70561 M90.39889 317.88532 L75.18552 344.43701 M86.36691 363.02186 L79.21751 392.77627 M121.79998 363.02186 L114.65058 392.77627 M80.41734 409.52176 L85.16708 439.75219 M115.85041 409.52176 L120.60015 439.75219 M79.60516 456.40984 L85.97925 486.33993 M115.03823 456.40984 L121.41232 486.33993 M93.15391 506.85469 L72.4305 529.37089 M128.58698 506.85469 L107.86358 529.37089 M79.89273 549.82729 L85.69169 579.87411 M115.3258 549.82729 L121.12476 579.87411 M82.37715 596.29359 L83.20727 626.88362 M117.81022 596.29359 L118.64034 626.88362 M71.70508 647.78207 L93.87934 668.87096 M107.13815 647.78207 L129.31241 668.87096 M80.86088 689.88616 L84.72353 720.24269 M116.29395 689.88616 L120.1566 720.24269 M51.0396 736.95094 L43.67868 766.65373 M86.47267 736.95094 L79.11175 766.65373 M121.90574 736.95094 L114.54482 766.65373 M50.89175 783.65298 L43.82652 813.42749 M86.32482 783.65298 L79.25959 813.42749 M121.75789 783.65298 L114.69266 813.42749 M40.43829 831.63221 L54.27999 858.92408 M75.87136 831.63221 L89.71306 858.92408 M111.30443 831.63221 L125.14613 858.92408 M55.38255 878.98783 L39.33573 905.04428 M90.81562 878.98783 L74.7688 905.04428 M126.24869 878.98783 L110.20187 905.04428 M43.18752 924.03298 L51.53075 953.47495 M78.62059 924.03298 L86.96382 953.47495 M114.05367 924.03298 L122.39689 953.47495 M54.08704 971.74978 L40.63123 999.23396 M89.52011 971.74978 L76.0643 999.23396 M124.95318 971.74978 L111.49738 999.23396 M115.75062 35.45956 L113.95078 66.00787 M115.86633 82.20472 L113.83507 112.73852 M114.77668 128.90907 L114.92472 159.51 M113.07925 175.74969 L116.62215 206.14519 M116.75246 222.50335 L112.94894 252.86734 M119.33757 269.79528 L110.36383 299.05123 M115.05166 315.86184 L114.64974 346.46049 M105.93623 365.46356 L123.76517 390.33458 M141.3693 365.46356 L159.19824 390.33458 M107.55236 411.18915 L122.14904 438.0848 M142.98543 411.18915 L157.58211 438.0848 M107.82905 457.78054 L121.87235 484.96923 M143.26212 457.78054 L157.30542 484.96923 M107.61599 504.63063 L122.08541 531.59496 M143.04906 504.63063 L157.51848 531.59496 M107.38028 551.4977 L122.32112 578.2037 M142.81335 551.4977 L157.75419 578.2037 M113.03994 596.39549 L116.66146 626.78173 M148.47301 596.39549 L152.09453 626.78173 M101.36883 651.09126 L128.33257 665.56177 M136.8019 651.09126 L163.76564 665.56177 M117.1619 689.93934 L112.5395 720.18951 M152.59497 689.93934 L147.97257 720.18951 M76.3577 736.81078 L82.47756 766.79388 M111.79077 736.81078 L117.91063 766.79388 M147.22384 736.81078 L153.3437 766.79388 M92.20195 790.13364 L66.63331 806.94684 M127.63502 790.13364 L102.06638 806.94684 M163.06809 790.13364 L137.49945 806.94684 M91.7701 836.24897 L67.06516 854.30733 M127.20317 836.24897 L102.49823 854.30733 M162.63624 836.24897 L137.9313 854.30733 M94.37584 888.79712 L64.45942 895.23499 M129.80892 888.79712 L99.89249 895.23499 M165.24199 888.79712 L135.32556 895.23499 M93.09866 931.90275 L65.7366 945.60518 M128.53173 931.90275 L101.16967 945.60518 M163.9648 931.90275 L136.60274 945.60518 M74.20824 971.10535 L84.62702 999.87839 M109.64131 971.10535 L120.06009 999.87839 M145.07438 971.10535 L155.49316 999.87839 M146.0621 35.45654 L147.75629 66.01089 M147.10279 82.1722 L146.7156 112.77104 M144.62077 129.08099 L149.19762 159.33807 M148.20029 175.70136 L145.6181 206.19351 M146.62875 222.38727 L147.18964 252.98342 M149.76045 269.39062 L144.05794 299.45589 M141.03185 317.03436 L152.78654 345.28796 M153.73052 364.20311 L140.08786 391.59502 M189.16359 364.20311 L175.52094 391.59502 M153.27194 410.72205 L140.54645 438.5519 M188.70501 410.72205 L175.97952 438.5519 M138.94214 458.31212 L154.87625 484.43765 M174.37521 458.31212 L190.30932 484.43765 M137.75859 505.85 L156.0598 530.37559 M173.19166 505.85 L191.49287 530.37559 M149.43017 549.75917 L144.38821 579.94223 M184.86324 549.75917 L179.82128 579.94223 M151.20087 596.90218 L142.61751 626.27504 M186.63394 596.90218 L178.05059 626.27504 M158.19095 647.99058 L135.62743 668.66245 M193.62402 647.99058 L171.0605 668.66245 M132.9207 698.86509 L160.89769 711.26376 M168.35377 698.86509 L196.33076 711.26376 M106.44778 737.35154 L116.50447 766.25313 M141.88085 737.35154 L151.93754 766.25313 M177.31392 737.35154 L187.37061 766.25313 M99.05796 789.60161 L123.89428 807.47887 M134.49104 789.60161 L159.32735 807.47887 M169.92411 789.60161 L194.76042 807.47887 M126.6165 843.06936 L96.33575 847.48693 M162.04957 843.06936 L131.76882 847.48693 M197.48264 843.06936 L167.20189 847.48693 M112.64236 876.75992 L110.30988 907.27219 M148.07544 876.75992 L145.74295 907.27219 M183.50851 876.75992 L181.17602 907.27219 M104.30373 925.23855 L118.64852 952.26938 M139.7368 925.23855 L154.08159 952.26938 M175.16987 925.23855 L189.51466 952.26938 M123.62681 976.19291 L99.32544 994.79083 M159.05988 976.19291 L134.75851 994.79083 M194.49295 976.19291 L170.19158 994.79083 M179.17575 35.43449 L178.75962 66.03294 M179.06119 82.17126 L178.87419 112.77198 M175.7334 129.25463 L182.20197 159.16443 M177.43362 175.72389 L180.50175 206.17098 M173.70088 223.31975 L184.23449 252.05095 M175.75891 269.46286 L182.17646 299.38365 M186.00478 317.57481 L171.93059 344.74751 M175.26455 363.05331 L182.67082 392.74483 M210.69762 363.05331 L218.10389 392.74483 M177.32397 409.42488 L180.6114 439.84907 M212.75704 409.42488 L216.04447 439.84907 M186.32959 457.96176 L171.60578 484.78801 M221.76267 457.96176 L207.03885 484.78801 M190.37729 507.91815 L167.55809 528.30744 M225.81036 507.91815 L202.99116 528.30744 M179.90242 549.57863 L178.03295 580.12277 M215.33549 549.57863 L213.46603 580.12277 M184.99429 597.52484 L172.94108 625.65238 M220.42737 597.52484 L208.37415 625.65238 M173.93564 643.87701 L183.99973 672.77602 M209.36871 643.87701 L219.4328 672.77602 M168.47129 693.93179 L189.46408 716.19706 M203.90437 693.93179 L224.89715 716.19706 M138.12613 737.48947 L148.9431 766.11519 M173.5592 737.48947 L184.37617 766.11519 M208.99227 737.48947 L219.80925 766.11519 M150.1448 784.74114 L136.92443 812.33934 M185.57787 784.74114 L172.3575 812.33934 M221.01094 784.74114 L207.79058 812.33934 M135.23973 832.42107 L151.8295 858.13523 M170.6728 832.42107 L187.26257 858.13523 M206.10587 832.42107 L222.69564 858.13523 M150.43026 878.35737 L136.63897 905.67474 M185.86333 878.35737 L172.07204 905.67474 M221.2964 878.35737 L207.50511 905.67474 M147.67031 924.02285 L139.39892 953.48508 M183.10339 924.02285 L174.83199 953.48508 M218.53646 924.02285 L210.26506 953.48508 M137.20244 971.563 L149.86679 999.42074 M172.63551 971.563 L185.29986 999.42074 M208.06858 971.563 L220.73293 999.42074 M211.50272 35.44049 L210.54964 66.02694 M212.41256 82.23392 L209.6398 112.70933 M209.02599 129.04019 L213.02637 159.37887 M211.57207 175.65654 L210.48029 206.23834 M215.32876 223.00211 L206.72359 252.36858 M216.84409 270.27187 L205.20827 298.57464 M206.17586 316.64965 L215.8765 345.67268 M215.14296 363.16266 L206.90939 392.63548 M250.57603 363.16266 L242.34246 392.63548 M218.70274 411.40141 L203.34962 437.87254 M254.13581 411.40141 L238.78269 437.87254 M203.99752 457.78417 L218.05484 484.9656 M239.43059 457.78417 L253.48791 484.9656 M202.56701 505.3632 L219.48535 530.86239 M238.00008 505.3632 L254.91842 530.86239 M205.28068 550.66976 L216.77168 579.03164 M240.71375 550.66976 L252.20475 579.03164 M209.47898 596.36639 L212.57337 626.81083 M244.91205 596.36639 L248.00645 626.81083 M219.02807 645.28507 L203.02428 671.36796 M254.46115 645.28507 L238.45735 671.36796 M219.97368 692.65266 L202.07868 717.47619 M255.40675 692.65266 L237.51175 717.47619 M183.92187 738.96717 L167.26435 764.6375 M219.35494 738.96717 L202.69742 764.6375 M254.78801 738.96717 L238.13049 764.6375 M190.12342 793.74651 L161.0628 803.33397 M225.55649 793.74651 L196.49587 803.33397 M260.98956 793.74651 L231.92894 803.33397 M179.14948 830.39655 L172.03673 860.15974 M214.58256 830.39655 L207.4698 860.15974 M250.01563 830.39655 L242.90287 860.15974 M162.22006 884.58159 L188.96616 899.45052 M197.65313 884.58159 L224.39923 899.45052 M233.0862 884.58159 L259.8323 899.45052 M167.53286 925.7485 L183.65335 951.75943 M202.96593 925.7485 L219.08643 951.75943 M238.399 925.7485 L254.5195 951.75943 M160.65734 982.17035 L190.52888 988.81339 M196.09041 982.17035 L225.96195 988.81339 M231.52348 982.17035 L261.39502 988.81339 M242.34402 35.45101 L243.82533 66.01642 M244.24266 82.21486 L241.92668 112.72838 M240.59601 129.11263 L245.57333 159.30643 M247.0344 176.16538 L239.13494 205.7295 M239.73771 222.75526 L246.43164 252.61543 M237.70129 270.10093 L248.46805 298.74558 M236.43136 317.3828 L249.73798 344.93952 M239.11024 363.12363 L247.0591 392.67451 M274.54331 363.12363 L282.49217 392.67451 M251.84065 412.08936 L234.3287 437.18459 M287.27372 412.08936 L269.76177 437.18459 M237.62707 457.08068 L248.54227 485.66909 M273.06015 457.08068 L283.97534 485.66909 M251.84689 505.56954 L234.32245 530.65605 M287.27996 505.56954 L269.75552 530.65605 M237.68489 550.53455 L248.48446 579.16685 M273.11796 550.53455 L283.91753 579.16685 M252.56432 599.57836 L233.60502 623.59885 M287.99739 599.57836 L269.0381 623.59885 M249.24975 644.32289 L236.91959 672.33014 M284.68282 644.32289 L272.35267 672.33014 M230.53211 696.31554 L255.63723 713.81331 M265.96518 696.31554 L291.0703 713.81331 M205.65743 736.6322 L209.64577 766.97247 M241.09051 736.6322 L245.07884 766.97247 M276.52358 736.6322 L280.51191 766.97247 M218.84094 788.10432 L196.46226 808.97616 M254.27401 788.10432 L231.89534 808.97616 M289.70708 788.10432 L267.32841 808.97616 M212.2871 830.69659 L203.0161 859.85971 M247.72017 830.69659 L238.44917 859.85971 M283.15324 830.69659 L273.88224 859.85971 M222.76695 889.64204 L192.53625 894.39007 M258.20002 889.64204 L227.96932 894.39007 M293.63309 889.64204 L263.40239 894.39007 M216.17022 926.04401 L199.13298 951.46392 M251.60329 926.04401 L234.56606 951.46392 M287.03636 926.04401 L269.99913 951.46392 M221.2842 978.54479 L194.019 992.43895 M256.71727 978.54479 L229.45207 992.43895 M292.15034 978.54479 L264.88514 992.43895 M275.03197 35.43347 L275.25436 66.03396 M273.53245 82.256 L276.75388 112.68725 M274.37931 128.92797 L275.90702 159.4911 M273.21863 175.76831 L277.0677 206.12656 M280.47752 223.34469 L269.80881 252.026 M278.24524 269.44037 L272.04108 299.40614 M275.08128 315.86064 L275.20505 346.46168 M268.03832 364.34802 L282.248 391.45012 M303.47139 364.34802 L317.68107 391.45012 M284.5252 412.55033 L265.76113 436.72363 M319.95827 412.55033 L301.1942 436.72363 M280.10873 456.9024 L270.17759 485.84737 M315.5418 456.9024 L305.61067 485.84737 M266.15386 505.73127 L284.13246 530.49432 M301.58693 505.73127 L319.56553 530.49432 M273.18971 549.67527 L277.09661 580.02613 M308.62278 549.67527 L312.52968 580.02613 M267.92906 598.09541 L282.35727 625.08181 M303.36213 598.09541 L317.79034 625.08181 M274.11029 643.06077 L276.17604 673.59226 M309.54336 643.06077 L311.60911 673.59226 M277.05886 689.88418 L273.22747 720.24467 M312.49193 689.88418 L308.66054 720.24467 M250.14731 740.61421 L229.27287 762.99046 M285.58039 740.61421 L264.70594 762.99046 M321.01346 740.61421 L300.13901 762.99046 M241.61655 783.35883 L237.80363 813.72165 M277.04962 783.35883 L273.2367 813.72165 M312.48269 783.35883 L308.66978 813.72165 M227.70349 835.79389 L251.7167 854.7624 M263.13656 835.79389 L287.14977 854.7624 M298.56963 835.79389 L322.58284 854.7624 M228.8307 881.25741 L250.58949 902.7747 M264.26377 881.25741 L286.02256 902.7747 M299.69684 881.25741 L321.45563 902.7747 M231.0354 926.15002 L248.38479 951.35791 M266.46847 926.15002 L283.81786 951.35791 M301.90154 926.15002 L319.25093 951.35791 M254.36628 981.09803 L225.05391 989.88571 M289.79935 981.09803 L260.48698 989.88571 M325.23242 981.09803 L295.92005 989.88571 M308.10617 35.45983 L306.29715 66.0076 M306.90571 82.17384 L307.4976 112.7694 M305.16265 129.04536 L309.24066 159.3737 M310.498 176.00609 L303.90532 205.88879 M307.51601 222.38793 L306.8873 252.98276 M304.42547 269.37658 L309.97784 299.46993 M303.74767 316.25547 L310.65565 346.06685 M306.86347 362.60216 L307.53984 393.19598 M342.29654 362.60216 L342.97291 393.19598 M299.25089 411.5643 L315.15243 437.70966 M334.68396 411.5643 L350.5855 437.70966 M310.91229 456.531 L303.49103 486.21877 M346.34536 456.531 L338.9241 486.21877 M312.93462 503.92679 L301.46869 532.2988 M348.36769 503.92679 L336.90176 532.2988 M297.82275 552.76162 L316.58056 576.93978 M333.25582 552.76162 L352.01363 576.93978 M294.91157 602.47469 L319.49174 620.70253 M330.34464 602.47469 L354.92481 620.70253 M320.13087 650.14451 L294.27244 666.50852 M355.56394 650.14451 L329.70551 666.50852 M304.34325 690.03315 L310.06006 720.0957 M339.77633 690.03315 L345.49313 720.0957 M263.71883 738.79037 L279.81834 764.81429 M299.1519 738.79037 L315.25141 764.81429 M334.58497 738.79037 L350.68448 764.81429 M281.28059 786.5556 L262.25659 810.52488 M316.71366 786.5556 L297.68966 810.52488 M352.14673 786.5556 L333.12273 810.52488 M267.97025 830.45646 L275.56692 860.09983 M303.40333 830.45646 L310.99999 860.09983 M338.8364 830.45646 L346.43306 860.09983 M256.5655 890.291 L286.97167 893.74111 M291.99857 890.291 L322.40475 893.74111 M327.43164 890.291 L357.83782 893.74111 M278.68389 925.10521 L264.85328 952.40271 M314.11696 925.10521 L300.28636 952.40271 M349.55003 925.10521 L335.71943 952.40271 M273.89241 970.33934 L269.64476 1000.6444 M309.32548 970.33934 L305.07783 1000.6444 M344.75855 970.33934 L340.5109 1000.6444 M339.97303 35.44969 L338.54727 66.01774 M338.96326 82.17386 L339.55704 112.76939 M336.78328 129.11069 L341.73702 159.30837 M343.3756 176.21066 L335.1447 205.68422 M337.50095 222.48617 L341.01935 252.88452 M340.78308 269.19859 L337.73722 299.64792 M342.98158 316.31998 L335.53872 346.00234 M341.70392 362.79484 L336.81638 393.0033 M377.13699 362.79484 L372.24945 393.0033 M330.05602 412.41431 L348.46428 436.85965 M365.48909 412.41431 L383.89735 436.85965 M337.97684 456.12815 L340.54346 486.62162 M373.40991 456.12815 L375.97653 486.62162 M332.84406 504.22238 L345.67624 532.0032 M368.27713 504.22238 L381.10931 532.0032 M337.20365 549.68889 L341.31665 580.01251 M372.63672 549.68889 L376.74972 580.01251 M337.27241 596.41763 L341.24789 626.75959 M372.70548 596.41763 L376.68096 626.75959 M347.66336 645.53997 L330.85694 671.11306 M383.09643 645.53997 L366.29001 671.11306 M328.39704 694.28934 L350.12326 715.83951 M363.83011 694.28934 L385.55633 715.83951 M313.81719 740.21322 L293.83697 763.39144 M349.25026 740.21322 L329.27004 763.39144 M384.68333 740.21322 L364.70311 763.39144 M316.19709 789.53511 L291.45706 807.54537 M351.63016 789.53511 L326.89013 807.54537 M387.06324 789.53511 L362.3232 807.54537 M316.61631 836.87903 L291.03785 853.67727 M352.04938 836.87903 L326.47092 853.67727 M387.48245 836.87903 L361.90399 853.67727 M315.57294 882.21072 L292.08122 901.82139 M351.00601 882.21072 L327.51429 901.82139 M386.43908 882.21072 L362.94736 901.82139 M288.68538 936.55428 L318.96878 940.95364 M324.11845 936.55428 L354.40185 940.95364 M359.55152 936.55428 L389.83492 940.95364 M317.49117 978.60693 L290.16299 992.37681 M352.92424 978.60693 L325.59606 992.37681 M388.35731 978.60693 L361.02913 992.37681 M371.99907 35.44821 L370.63822 66.01922 M372.60414 82.22508 L370.03315 112.71817 M368.56108 129.15943 L374.0762 159.25963 M368.89221 175.84042 L373.74508 206.05446 M374.21384 222.66111 L368.42345 252.70958 M365.24177 270.38113 L377.39552 298.46538 M364.68915 317.37133 L377.94814 344.951 M362.97378 365.07437 L379.66351 390.72377 M398.40685 365.07437 L415.09658 390.72377 M376.24435 410.15087 L366.39294 439.12308 M411.67742 410.15087 L401.82601 439.12308 M380.43823 459.089 L362.19906 483.66077 M415.8713 459.089 L397.63213 483.66077 M370.92229 502.81728 L371.715 533.4083 M406.35536 502.81728 L407.14807 533.4083 M382.36208 554.26051 L360.2752 575.44089 M417.79515 554.26051 L395.70827 575.44089 M365.12397 597.59805 L377.51331 625.57917 M400.55704 597.59805 L412.94638 625.57917 M379.15607 645.18557 L363.48122 671.46746 M414.58914 645.18557 L398.91429 671.46746 M381.80829 693.92544 L360.829 716.20341 M417.24136 693.92544 L396.26207 716.20341 M348.85924 743.691 L322.9119 759.91366 M384.29231 743.691 L358.34497 759.91366 M419.72538 743.691 L393.77804 759.91366 M324.71591 788.08326 L347.05523 808.99721 M360.14898 788.08326 L382.48831 808.99721 M395.58205 788.08326 L417.92138 808.99721 M346.26911 834.04019 L325.50203 856.51611 M381.70218 834.04019 L360.9351 856.51611 M417.13525 834.04019 L396.36817 856.51611 M338.5518 876.9495 L333.21934 907.08261 M373.98487 876.9495 L368.65241 907.08261 M409.41794 876.9495 L404.08548 907.08261 M325.50136 927.51662 L346.26978 949.99131 M360.93443 927.51662 L381.70285 949.99131 M396.36751 927.51662 L417.13592 949.99131 M340.8445 971.01711 L330.92664 999.96663 M376.27757 971.01711 L366.35971 999.96663 M411.71064 971.01711 L401.79278 999.96663 M403.45714 35.43328 L403.29713 66.03415 M401.93038 82.23953 L404.82389 112.70371 M400.21413 129.23939 L406.54014 159.17967 M399.76067 176.08033 L406.9936 205.81455 M402.0764 222.44009 L404.67787 252.9306 M399.83 269.53945 L406.92427 299.30705 M397.04612 317.23177 L409.70815 345.09055 M407.67769 363.21524 L399.07658 392.5829 M443.11076 363.21524 L434.50965 392.5829 M397.73246 410.41561 L409.02181 438.85835 M433.16553 410.41561 L444.45488 438.85835 M402.67394 456.09041 L404.08033 486.65936 M438.10701 456.09041 L439.5134 486.65936 M408.71614 503.77387 L398.03813 532.45172 M444.14921 503.77387 L433.4712 532.45172 M397.88383 550.57018 L408.87044 579.13122 M433.3169 550.57018 L444.30351 579.13122 M404.25452 596.31314 L402.49975 626.86408 M439.6876 596.31314 L437.93282 626.86408 M407.44488 643.57649 L399.30939 673.07654 M442.87795 643.57649 L434.74246 673.07654 M396.23323 691.53393 L410.52104 718.59492 M431.6663 691.53393 L445.95411 718.59492 M362.61605 737.45932 L373.27208 766.14534 M398.04912 737.45932 L408.70515 766.14534 M433.48219 737.45932 L444.13822 766.14534 M380.77267 790.20139 L355.11545 806.87909 M416.20575 790.20139 L390.54852 806.87909 M451.63882 790.20139 L425.98159 806.87909 M369.29003 830.03682 L366.59809 860.51947 M404.72311 830.03682 L402.03116 860.51947 M440.15618 830.03682 L437.46423 860.51947 M354.07671 885.55029 L381.81142 898.48182 M389.50978 885.55029 L417.24449 898.48182 M424.94285 885.55029 L452.67756 898.48182 M381.75433 932.16714 L354.13379 945.34078 M417.1874 932.16714 L389.56687 945.34078 M452.62047 932.16714 L424.99994 945.34078 M353.66073 980.00587 L382.22739 990.97787 M389.0938 980.00587 L417.66046 990.97787 M424.52688 980.00587 L453.09354 990.97787 M435.27151 35.43395 L435.59974 66.03348 M434.78598 82.18478 L436.08528 112.75847 M438.01334 129.12758 L432.85791 159.29148 M435.02358 175.65234 L435.84768 206.24253 M434.83797 222.39638 L436.03328 252.97431 M439.68031 269.72317 L431.19094 299.12333 M430.71794 316.60599 L440.15332 345.71634 M438.68121 362.94662 L432.19004 392.85152 M474.11428 362.94662 L467.62311 392.85152 M436.08888 409.35028 L434.78237 439.92367 M471.52195 409.35028 L470.21544 439.92367 M433.38613 456.21212 L437.48512 486.53765 M468.81921 456.21212 L472.91819 486.53765 M439.27123 503.30071 L431.60002 532.92488 M474.7043 503.30071 L467.0331 532.92488 M438.73934 549.91098 L432.13192 579.79042 M474.17241 549.91098 L467.56499 579.79042 M434.27005 596.33242 L436.60121 626.84479 M469.70312 596.33242 L472.03428 626.84479 M444.86883 646.27976 L426.00242 670.37327 M480.30191 646.27976 L461.43549 670.37327 M432.04281 690.14469 L438.82845 719.98416 M467.47588 690.14469 L474.26152 719.98416 M414.20814 746.11805 L385.79697 757.48661 M449.64121 746.11805 L421.23004 757.48661 M485.07428 746.11805 L456.66311 757.48661 M394.24324 784.36491 L405.76187 812.71557 M429.67631 784.36491 L441.19494 812.71557 M465.10938 784.36491 L476.62801 812.71557 M408.21793 832.37011 L391.78719 858.18618 M443.651 832.37011 L427.22026 858.18618 M479.08407 832.37011 L462.65333 858.18618 M415.00572 889.01358 L384.9994 895.01853 M450.43879 889.01358 L420.43247 895.01853 M485.87186 889.01358 L455.86554 895.01853 M408.85534 926.27446 L391.14977 951.23346 M444.28841 926.27446 L426.58284 951.23346 M479.72149 926.27446 L462.01591 951.23346 M387.8965 976.13488 L412.10861 994.84886 M423.32957 976.13488 L447.54168 994.84886 M458.76265 976.13488 L482.97475 994.84886 M468.15759 35.44746 L466.83065 66.01997 M466.38968 82.21089 L468.59856 112.73235 M469.69049 129.06735 L465.29775 159.35171 M467.43086 175.64692 L467.55738 206.24795 M461.92385 223.43467 L473.06439 251.93602 M461.41224 270.38329 L473.576 298.46321 M467.63399 315.86116 L467.35425 346.46117 M466.14617 362.65792 L468.84207 393.14022 M501.57924 362.65792 L504.27514 393.14022 M474.73716 411.15929 L460.25108 438.11466 M510.17023 411.15929 L495.68415 438.11466 M469.70273 456.23448 L465.28551 486.51529 M505.1358 456.23448 L500.71858 486.51529 M457.73663 506.32716 L477.25161 529.89842 M493.1697 506.32716 L512.68468 529.89842 M470.18096 549.78781 L464.80728 579.91359 M505.61403 549.78781 L500.24035 579.91359 M463.5547 596.80379 L471.43354 626.37342 M498.98777 596.80379 L506.86661 626.37342 M471.20145 643.48181 L463.78679 673.17123 M506.63452 643.48181 L499.21986 673.17123 M467.41555 689.76398 L467.57269 720.36487 M502.84862 689.76398 L503.00576 720.36487 M442.71931 740.82457 L421.40279 762.78009 M478.15238 740.82457 L456.83586 762.78009 M513.58545 740.82457 L492.26893 762.78009 M445.75347 791.71181 L418.36863 805.36867 M481.18654 791.71181 L453.8017 805.36867 M516.61961 791.71181 L489.23477 805.36867 M442.28458 833.89443 L421.83752 856.66187 M477.71765 833.89443 L457.27059 856.66187 M513.15072 833.89443 L492.70366 856.66187 M416.84919 890.37011 L447.27291 893.662 M452.28226 890.37011 L482.70598 893.662 M487.71533 890.37011 L518.13905 893.662 M417.77104 933.28538 L446.35106 944.22254 M453.20411 933.28538 L481.78413 944.22254 M488.63718 933.28538 L517.2172 944.22254 M418.28803 978.82751 L445.83407 992.15623 M453.7211 978.82751 L481.26714 992.15623 M489.15417 978.82751 L516.70021 992.15623 M498.88004 35.44786 L500.22518 66.01957 M500.54876 82.20344 L498.55646 112.73981 M500.75127 128.95591 L498.35396 159.46315 M501.20714 175.73651 L497.89809 206.15836 M497.03627 222.59304 L502.06895 252.77765 M495.68566 269.61932 L503.41956 299.22719 M504.34168 316.62931 L494.76355 345.69301 M493.15448 364.00038 L505.95074 391.79776 M528.58756 364.00038 L541.38381 391.79776 M498.66346 409.36219 L500.44177 439.91176 M534.09653 409.36219 L535.87484 439.91176 M505.20678 457.15729 L493.89845 485.59248 M540.63985 457.15729 L529.33152 485.59248 M488.02946 508.04668 L511.07577 528.17891 M523.46253 508.04668 L546.50884 528.17891 M497.30381 549.71622 L501.80141 579.98518 M532.73688 549.71622 L537.23449 579.98518 M493.26152 597.64114 L505.8437 625.53608 M528.69459 597.64114 L541.27677 625.53608 M507.07553 645.00303 L492.02969 671.65001 M542.5086 645.00303 L527.46276 671.65001 M491.77093 691.89039 L507.3343 718.23845 M527.204 691.89039 L542.76737 718.23845 M453.06698 741.22166 L475.17211 762.383 M488.50005 741.22166 L510.60518 762.383 M523.93312 741.22166 L546.03825 762.383 M456.88502 785.05798 L471.35406 812.0225 M492.31809 785.05798 L506.78713 812.0225 M527.75116 785.05798 L542.2202 812.0225 M453.82632 833.9574 L474.41276 856.5989 M489.25939 833.9574 L509.84583 856.5989 M524.69246 833.9574 L545.2789 856.5989 M479.33149 890.37094 L448.9076 893.66116 M514.76456 890.37094 L484.34067 893.66116 M550.19763 890.37094 L519.77374 893.66116 M454.21686 927.09006 L474.02223 950.41786 M489.64993 927.09006 L509.4553 950.41786 M525.083 927.09006 L544.88837 950.41786 M455.1254 973.11386 L473.11368 997.86988 M490.55847 973.11386 L508.54675 997.86988 M525.99154 973.11386 L543.97982 997.86988 M531.5944 35.43308 L531.62781 66.03435 M533.36639 82.27199 L529.85582 112.67125 M528.61021 129.20605 L534.612 159.21301 M527.4621 176.22007 L535.76011 205.67481 M527.89952 222.8417 L535.32269 252.52899 M527.88256 269.58386 L535.33965 299.26265 M532.66349 315.89675 L530.55872 346.42557 M531.32673 362.60107 L531.89548 393.19707 M566.7598 362.60107 L567.32855 393.19707 M528.16322 409.72987 L535.05899 439.54408 M563.59629 409.72987 L570.49206 439.54408 M537.29053 457.16736 L525.93168 485.58241 M572.7236 457.16736 L561.36475 485.58241 M535.07648 503.20974 L528.14573 533.01584 M570.50955 503.20974 L563.5788 533.01584 M520.94883 553.87684 L542.27338 575.82456 M556.3819 553.87684 L577.70645 575.82456 M519.15078 602.70885 L544.07143 620.46837 M554.58385 602.70885 L579.5045 620.46837 M543.83875 649.129 L519.38346 667.52403 M579.27182 649.129 L554.81653 667.52403 M540.69634 692.75312 L522.52587 717.37573 M576.12941 692.75312 L557.95894 717.37573 M502.41115 737.82886 L489.94492 765.7758 M537.84422 737.82886 L525.37799 765.7758 M573.2773 737.82886 L560.81106 765.7758 M509.04585 790.26201 L483.31022 806.81846 M544.47892 790.26201 L518.74329 806.81846 M579.91199 790.26201 L554.17636 806.81846 M505.47041 833.12243 L486.88566 857.43387 M540.90348 833.12243 L522.31873 857.43387 M576.33655 833.12243 L557.7518 857.43387 M494.23554 876.83922 L498.12053 907.19289 M529.66861 876.83922 L533.5536 907.19289 M565.10168 876.83922 L568.98667 907.19289 M480.88852 938.17057 L511.46755 939.33736 M516.32159 938.17057 L546.90062 939.33736 M551.75466 938.17057 L582.33369 939.33736 M481.24938 982.13849 L511.10668 988.84525 M516.68246 982.13849 L546.53976 988.84525 M552.11553 982.13849 L581.97283 988.84525 M564.02851 35.43728 L563.31069 66.03015 M562.63787 82.2058 L564.70132 112.73744 M566.60842 129.19377 L560.73078 159.22529 M562.27038 175.71091 L565.06882 206.18397 M559.84361 222.87077 L567.49558 252.49992 M557.93333 270.23858 L569.40586 298.60793 M570.01768 317.23954 L557.32152 345.08279 M567.80161 363.16692 L559.53758 392.63122 M603.23468 363.16692 L594.97065 392.63122 M564.71594 409.37215 L562.62326 439.9018 M600.14901 409.37215 L598.05633 439.9018 M565.50382 456.18458 L561.83537 486.56519 M600.93689 456.18458 L597.26845 486.56519 M574.62984 507.43652 L552.70935 528.78906 M610.06292 507.43652 L588.14242 528.78906 M573.07197 552.77986 L554.26723 576.92154 M608.50504 552.77986 L589.7003 576.92154 M570.27705 597.7882 L557.06215 625.38902 M605.71012 597.7882 L592.49522 625.38902 M574.27839 647.30094 L553.06081 669.35209 M609.71146 647.30094 L588.49388 669.35209 M565.14293 689.83488 L562.19626 720.29397 M600.576 689.83488 L597.62933 720.29397 M522.89999 737.46249 L533.57306 766.14218 M558.33307 737.46249 L569.00613 766.14218 M593.76614 737.46249 L604.4392 766.14218 M529.02143 783.25974 L527.45162 813.82074 M564.4545 783.25974 L562.8847 813.82074 M599.88757 783.25974 L598.31777 813.82074 M531.25924 830.27905 L525.21382 860.27725 M566.69231 830.27905 L560.64689 860.27725 M602.12538 830.27905 L596.07996 860.27725 M513.0146 890.466 L543.45845 893.56611 M548.44767 890.466 L578.89152 893.56611 M583.88074 890.466 L614.3246 893.56611 M541.50386 931.13243 L514.9692 946.37549 M576.93693 931.13243 L550.40227 946.37549 M612.37 931.13243 L585.83534 946.37549 M538.93093 974.54932 L517.54212 996.43442 M574.364 974.54932 L552.97519 996.43442 M609.79707 974.54932 L588.40826 996.43442 M596.12504 35.43822 L595.33114 66.02921 M597.74729 82.3048 L593.70889 112.63845 M594.31421 128.97435 L597.14197 159.44471 M599.20173 176.04631 L592.25445 205.84856 M593.8854 222.49607 L597.57078 252.87463 M589.82337 270.30787 L601.63282 298.53863 M590.28746 316.86049 L601.16872 345.46184 M593.10046 362.82574 L598.35572 392.9724 M628.53354 362.82574 L633.78879 392.9724 M603.92228 411.71549 L587.5339 437.55847 M639.35535 411.71549 L622.96697 437.55847 M589.46996 457.41259 L601.98622 485.33718 M624.90304 457.41259 L637.41929 485.33718 M584.38542 507.84374 L607.07076 528.38185 M619.81849 507.84374 L642.50383 528.38185 M606.34892 553.83672 L585.10726 575.86468 M641.78199 553.83672 L620.54033 575.86468 M589.02244 597.83565 L602.43374 625.34157 M624.45551 597.83565 L637.86681 625.34157 M605.86033 646.86146 L585.59585 669.79157 M641.2934 646.86146 L621.02892 669.79157 M606.63796 694.33668 L584.81822 715.79216 M642.07103 694.33668 L620.25129 715.79216 M547.35323 743.64023 L573.23681 759.96443 M582.7863 743.64023 L608.66988 759.96443 M618.21937 743.64023 L644.10295 759.96443 M571.62464 788.25678 L548.9654 808.8237 M607.05771 788.25678 L584.39847 808.8237 M642.49078 788.25678 L619.83155 808.8237 M558.61118 830.07044 L561.97886 860.48586 M594.04426 830.07044 L597.41193 860.48586 M629.47733 830.07044 L632.845 860.48586 M546.39078 885.62999 L574.19926 898.40212 M581.82385 885.62999 L609.63233 898.40212 M617.25692 885.62999 L645.0654 898.40212 M544.99482 938.63728 L575.59522 938.87065 M580.42789 938.63728 L611.02829 938.87065 M615.86096 938.63728 L646.46136 938.87065 M545.0055 984.90852 L575.58454 986.07522 M580.43857 984.90852 L611.01761 986.07522 M615.87164 984.90852 L646.45068 986.07522 M628.17787 35.43807 L627.3953 66.02936 M626.74175 82.20669 L628.83142 112.73655 M626.82485 128.93914 L628.74832 159.47992 M626.43608 175.70651 L629.13709 206.18837 M627.52561 222.38693 L628.04756 252.98376 M631.21093 269.51072 L624.36224 299.33578 M633.88448 317.12815 L621.68869 345.19417 M635.08806 364.45295 L620.4851 391.34519 M670.52114 364.45295 L655.91817 391.34519 M626.21128 409.41764 L629.36189 439.85631 M661.64435 409.41764 L664.79496 439.85631 M623.06893 456.8197 L632.50424 485.93007 M658.502 456.8197 L667.93731 485.93007 M633.14173 503.77989 L622.43144 532.4457 M668.5748 503.77989 L657.86451 532.4457 M639.18489 554.64344 L616.38827 575.05796 M674.61796 554.64344 L651.82134 575.05796 M639.77813 602.08531 L615.79504 621.0919 M675.2112 602.08531 L651.22811 621.0919 M616.20878 648.32331 L639.36439 668.32972 M651.64185 648.32331 L674.79746 668.32972 M636.13458 692.24176 L619.43859 717.88709 M671.56765 692.24176 L654.87166 717.88709 M598.18803 737.65779 L586.519 765.94688 M633.6211 737.65779 L621.95207 765.94688 M669.05417 737.65779 L657.38514 765.94688 M582.90388 786.50636 L601.80314 810.57412 M618.33695 786.50636 L637.23622 810.57412 M653.77002 786.50636 L672.66929 810.57412 M607.3511 842.24795 L577.35593 848.30835 M642.78417 842.24795 L612.789 848.30835 M678.21724 842.24795 L648.22207 848.30835 M584.00231 879.19548 L600.70471 904.83663 M619.43538 879.19548 L636.13778 904.83663 M654.86846 879.19548 L671.57085 904.83663 M607.18212 934.98273 L577.52491 942.5252 M642.61519 934.98273 L612.95798 942.5252 M678.04826 934.98273 L648.39105 942.5252 M577.07785 986.36588 L607.62917 984.61786 M612.51092 986.36588 L643.06224 984.61786 M647.94399 986.36588 L678.49532 984.61786 M659.25884 35.44431 L660.43131 66.02312 M659.09131 82.18956 L660.59884 112.75369 M657.53805 129.08381 L662.1521 159.33525 M662.40741 175.86287 L657.28274 206.032 M656.00346 222.87482 L663.68669 252.49587 M653.36943 270.56051 L666.32072 298.286 M657.87234 315.98822 L661.81781 346.3341 M656.33031 363.00759 L663.35984 392.79055 M691.76339 363.00759 L698.79291 392.79055 M654.21451 410.41001 L665.47564 438.86394 M689.64758 410.41001 L700.90871 438.86394 M653.7492 457.34099 L665.94095 485.40877 M689.18228 457.34099 L701.37402 485.40877 M651.36051 505.38009 L668.32965 530.8455 M686.79358 505.38009 L703.76272 530.8455 M661.81544 549.67746 L657.87471 580.02395 M697.24851 549.67746 L693.30778 580.02395 M649.1666 600.63051 L670.52355 622.54671 M684.59967 600.63051 L705.95662 622.54671 M667.34662 644.99098 L652.34353 671.66205 M702.77969 644.99098 L687.7766 671.66205 M673.52714 698.21528 L646.16301 711.91357 M708.66142 698.36486 L681.59608 711.91357 M611.34647 743.83982 L637.47754 759.76484 M646.77954 743.83982 L672.91061 759.76484 M682.21261 743.83982 L708.34368 759.76484 M638.52459 792.62885 L610.29942 804.45163 M673.95766 792.62885 L645.73249 804.45163 M708.66142 792.93434 L681.16556 804.45163 M626.43562 830.11191 L622.38839 860.44438 M661.86869 830.11191 L657.82146 860.44438 M697.30176 830.11191 L693.25454 860.44438 M627.30699 876.99178 L621.51702 907.04033 M662.74006 876.99178 L656.95009 907.04033 M698.17314 876.99178 L692.38316 907.04033 M638.91922 933.8908 L609.90479 943.61712 M674.35229 933.8908 L645.33786 943.61712 M708.66142 934.26758 L680.77093 943.61712 M615.60202 972.98212 L633.22199 998.00162 M651.03509 972.98212 L668.65506 998.00162 M686.46816 972.98212 L704.08813 998.00162 M691.99791 35.43336 L691.80923 66.03407 M691.61986 82.17361 L692.18728 112.76964 M689.3884 129.11703 L694.41874 159.30203 M695.31123 176.03109 L688.49591 205.86379 M696.93823 223.23675 L686.86891 252.13394 M692.72766 269.14482 L691.07948 299.70169 M685.67944 317.18368 L698.12769 345.13864 M685.99175 363.78666 L697.81539 392.01148 M685.05276 410.95575 L698.75438 438.31821 M695.60739 456.5293 L688.19975 486.22047 M684.44626 504.75247 L699.36088 531.47312 M700.93358 552.49883 L682.87356 577.20257 M686.09997 597.43135 L697.70717 625.74586 M700.22119 645.48413 L683.58595 671.1689 M687.13352 690.52632 L696.67362 719.60252 M648.04931 739.02762 L664.89169 764.57705 M683.48238 739.02762 L700.32476 764.57705 M657.29509 783.26183 L655.6459 813.81865 M692.72816 783.26183 L691.07897 813.81865 M650.79141 831.07048 L662.14958 859.48581 M686.22449 831.07048 L697.58265 859.48581 M671.05372 887.38578 L641.88728 896.64633 M706.48679 887.38578 L677.32035 896.64633 M650.59243 924.62746 L662.34856 952.88046 M686.0255 924.62746 L697.78164 952.88046 M657.94135 970.26209 L654.99964 1000.72165 M693.37442 970.26209 L690.43271 1000.72165 M683.6266 737.30832 L693.43138 766.29634 M681.47521 784.96254 L695.58277 812.11794 M676.89092 835.34512 L700.16706 855.21118 M691.86571 877.08367 L685.19227 906.94844 M703.44487 935.34424 L673.61311 942.16369 M700.08758 975.46646 L676.9704 995.51728" fill="none" stroke="black" stroke-width="0.03cm" />
    </g>
</svg>