<?xml version="1.0" encoding="utf-8"?>
<!-- Generator: Adobe Illustrator 22.0.0, SVG Export Plug-In . SVG Version: 6.00 Build 0)  -->
<svg version="1.1" id="Layer_1" xmlns="http://www.w3.org/2000/svg" xmlns:xlink="http://www.w3.org/1999/xlink" x="0px" y="0px"
	 width="758px" height="1072px" viewBox="0 0 758 1072" style="enable-background:new 0 0 758 1072;" xml:space="preserve">
<style type="text/css">
	.st0{fill:none;stroke:#6B48FF;stroke-linecap:round;stroke-miterlimit:10;}
</style>
<g>
	<g transform="translate(379,536) rotate(0.5038) translate(-379,509)">
		<line class="st0" x1="0" y1="0" x2="758" y2="0"/>
	</g>
	<g transform="translate(379,536) rotate(0.5038) translate(-379,509)">
		<line class="st0" x1="0" y1="3" x2="758" y2="3"/>
		<line class="st0" x1="0" y1="6" x2="758" y2="6"/>
		<line class="st0" x1="0" y1="9" x2="758" y2="9"/>
		<line class="st0" x1="0" y1="12" x2="758" y2="12"/>
		<line class="st0" x1="0" y1="15" x2="758" y2="15"/>
		<line class="st0" x1="0" y1="18" x2="758" y2="18"/>
		<line class="st0" x1="0" y1="21" x2="758" y2="21"/>
		<line class="st0" x1="0" y1="24" x2="758" y2="24"/>
		<line class="st0" x1="0" y1="27" x2="758" y2="27"/>
	</g>
	<g>
		<line class="st0" x1="0" y1="0" x2="-10" y2="-10"/>
		<line class="st0" x1="758" y1="0" x2="768" y2="-10"/>
		<line class="st0" x1="0" y1="1072" x2="-10" y2="1082"/>
		<line class="st0" x1="758" y1="1072" x2="768" y2="1082"/>
	</g>
</g>
</svg>
