<?xml version="1.0" encoding="UTF-8" standalone="no"?><svg id="SvgjsSvg1001" width="600" height="600" xmlns="http://www.w3.org/2000/svg" version="1.1" xmlns:xlink="http://www.w3.org/1999/xlink" xmlns:svgjs="http://svgjs.com/svgjs"><title xmlns="http://www.w3.org/1999/xhtml">function vectorField(p) {
  return {
    x: (Math.cos(Math.sin(Math.log(Math.abs(p.x))))-p.x),
    y: Math.sqrt(p.x*p.x + p.y * p.y)*Math.cos(Math.cos(Math.exp(p.y)/Math.max(p.x,p.y)))
  };
}</title><g id="SvgjsG1975"><polyline id="SvgjsPolyline1976" points="599.8,457.6 534.6,412.6 498.4,386.9 478.1,372 466.6,363.3 454.3,353.7 445.9,346.9 434.5,337.2 425.6,329.1 417.1,320.7 411,314.1 404.8,306.7 399.8,299.9 396.2,294.4 391.8,286.6 388.7,280.1 385.4,271.7 383,264.3 379.9,252.7 376,235.1 372.9,222.3 371.4,215.2 370,207.6 368.7,199.3 367.2,186.7 366.1,172.4 365.6,162.2 364.8,137 363.9,117.2 362.7,59 362,0.2" fill="none" stroke="#000000" stroke-width="1"/><polyline id="SvgjsPolyline1977" points="599.9,472.3 550.8,437.8 523,417.9 503.1,403.4 481,386.9 474.4,381.7 472.9,380.7 458.3,369.2 443,356.6 430.4,345.5 420.4,336 413.7,329.1 406.9,321.5 402,315.4 397.4,309.1 393.5,303.1 388.8,294.7 386,288.7 384.4,284.8 381.2,275.8 379.7,270.6 377.5,261.9 375.2,250.7 373.2,239.5 370.5,225.9 369.2,218.3 367.7,208.2 366.1,193.8 365.1,180.7 364.4,165.7 363.7,137.5 363,117.7 362.1,61.9 361.6,0.1" fill="none" stroke="#000000" stroke-width="1"/><polyline id="SvgjsPolyline1978" points="599.7,442.9 564.8,419.5 561.9,417.4 537,400.6 535.6,399.5 512.8,383.9 492.2,369.4 485.4,364.5 484.5,363.7 478.1,359.2 465.6,349.9 450.9,338.5 441.6,330.9 429.4,320.2 424.6,315.7 415.8,306.7 409.9,299.9 405.8,294.7 401,287.8 396.7,280.6 393.7,274.7 389.9,265.9 386.9,257.4 384.8,250.5 378.9,228.5 375.5,217 373.2,207.7 371.4,198.9 370.3,192.3 369.1,183.4 368.6,178.7 367.5,164.3 366.3,137.3 365.1,116.4 363.6,61.8 362.7,0.6" fill="none" stroke="#000000" stroke-width="1"/><polyline id="SvgjsPolyline1979" points="599.9,487 566.2,462.9 545.8,448.1 519.7,428.9 498.1,412.7 495.8,410.8 494.3,409.8 484.3,402.1 469.7,390.6 453.9,377.7 446.1,371.1 435.3,361.6 426.5,353.4 418.4,345.4 409,335.3 401,325.6 395.7,318.3 392.4,313.3 388.2,306 386.3,302.3 384,297.4 380.3,287.9 377.2,277.5 374.8,267 371.9,250.4 367.8,223.8 366.2,210.6 364.8,195.1 363.9,180.1 363.5,169.3 362.9,138.8 362.3,117.2 361.6,60.2 361.2,0.2" fill="none" stroke="#000000" stroke-width="1"/><polyline id="SvgjsPolyline1980" points="599.9,428.6 558.9,401.5 514.5,371.7 513.1,370.6 498.7,360.8 483.5,350.1 472.3,342 456.5,330.1 449.9,324.9 438.4,315.3 428.6,306.4 421.4,299.2 414.6,291.6 410.5,286.4 406.3,280.5 403.4,276 401.3,272.4 396.7,263.2 393.9,256.6 392,251.6 389.3,243.6 384.3,227.6 379.1,212.9 377,206 374.6,196.7 372.9,188.5 371.5,179.6 370.6,171.8 369.7,161.1 368.6,141.9 366.7,115.6 366.1,97 365.5,86.2 365.2,72.4 364.8,63.4 364,29.8 363.5,0.4" fill="none" stroke="#000000" stroke-width="1"/><polyline id="SvgjsPolyline1981" points="599.7,501.7 591.9,496.1 591,495.3 588.5,493.6 549.9,465.1 549,464.3 533.1,452.5 506.4,432.1 487.5,417.3 469.3,402.6 456.9,392.2 446,382.7 437.1,374.7 428.8,366.9 417.4,355.4 413.3,351 407,343.8 401.3,336.8 397.7,332 394.6,327.5 390.1,320.5 387.4,315.8 384.4,309.9 380.8,301.7 379.1,297.2 377.6,292.6 374.9,282.8 373.1,274.6 370.5,258.6 366.8,230 365.5,218.1 364.3,203.7 363.4,188.8 362.9,175.6 361.8,117.4 361.2,52 361,0.4" fill="none" stroke="#000000" stroke-width="1"/><polyline id="SvgjsPolyline1982" points="600,414.3 555.2,385.2 511.2,356 510.8,355.6 499.3,347.9 481.6,335.5 470.9,327.8 455.6,316.2 444,306.7 434.6,298.3 426.9,290.7 420.5,283.6 415.6,277.5 413.8,275.1 410.1,269.6 406.7,264 402.8,256.5 400.3,251.1 396.7,242.2 390.3,224.7 387.6,218 384.7,211.4 381.9,204.2 379.4,196.8 376.9,187.5 376,183.4 374.2,172.7 372.9,161.4 371.1,138.7 369.3,121.4 368.7,113 368.2,100.4 367.2,84.8 366.9,74.1 366.3,62.7 366.2,56.1 365.3,30.9 364.6,0.3" fill="none" stroke="#000000" stroke-width="1"/><polyline id="SvgjsPolyline1983" points="599.8,516.8 587.3,507.5 570.1,494.4 568.6,493.4 566.3,491.5 564.8,490.5 547.6,477.4 530.5,464.2 502.7,442.3 483.6,426.8 466.6,412.5 463.5,409.7 462.5,409 443.7,392.2 435.4,384.4 423.9,373 416.1,364.7 411.3,359.3 405.9,352.9 398.9,343.9 396.1,340 391.8,333.5 387.8,326.8 383.1,317.7 380,310.6 376.9,302.1 374.4,293.5 372,282.9 370,271.1 368.9,262.8 365.2,228.2 364,213.2 362.8,191.7 362.3,176.1 362,159.9 361.8,137.1 361.4,116.1 361.1,78.9 360.8,0.3" fill="none" stroke="#000000" stroke-width="1"/><polyline id="SvgjsPolyline1984" points="600,400 575.7,384.5 557.1,372.4 555.5,371.5 542,362.6 540.4,361.7 504.9,338.2 494.5,331.1 478.3,319.7 477.4,318.9 472,315.1 462.9,308.2 456.3,303 451.2,298.8 449,296.8 448,296.1 441.3,290.1 434,283 426.7,275 422.2,269.4 419,265 416,260.5 412.6,254.9 409.5,249.1 406.6,243.1 404.4,238.2 397,220.5 394.2,214.5 390.6,207.6 386.8,199.4 385,195 382.8,188.7 380.8,181.8 379.1,174.2 377.7,165.9 376.7,158.2 374.5,137.3 372.3,121.3 371.4,111.7 370.6,97.3 369.5,84.8 369.1,74.6 368.3,62.6 367,31.4 366,0.2" fill="none" stroke="#000000" stroke-width="1"/><polyline id="SvgjsPolyline1985" points="599.8,531.9 575,512.9 569.4,508.4 566,505.9 549,492.6 524.1,472.8 509.2,460.7 489.8,444.6 471.6,429 456.8,415.8 445.8,405.6 432.5,392.6 421.3,380.9 411,369.2 404.2,360.8 399.2,354.1 391.8,343.1 388.7,338 385.8,332.7 383.1,327.4 381.1,323 378.8,317.5 375.8,309 374.4,304.4 372.3,296.2 370.2,285.7 368.6,275 366.9,259.5 364.9,236.8 363.6,220 362.4,196 361.7,167.8 360.9,83.8 360.6,0.4" fill="none" stroke="#000000" stroke-width="1"/><polyline id="SvgjsPolyline1986" points="599.9,385.7 584.2,375.7 582.1,374.5 577.1,371.2 575,370 570,366.7 567.9,365.5 552.3,355.4 550.2,354.2 520,334.6 497.1,319.2 494.7,317.4 490.2,314.4 478.5,306 465.6,296.2 459.1,290.9 450.9,283.8 445.2,278.5 438.9,272.1 433.7,266.3 428.5,259.7 424,253.3 419.9,246.7 415.6,238.8 411.9,231.2 407.4,221.4 403.9,214.4 400.4,208.1 396.1,200.9 391.7,192.4 388.9,185.8 387.1,180.7 385.6,175.5 383.9,168.5 382,157.8 379.8,141.8 375.9,119.3 374.9,110.4 373.8,96 372.7,87.1 372.1,79.3 371.8,72.7 370.9,62.6 369.2,32 367.9,0.2" fill="none" stroke="#000000" stroke-width="1"/><polyline id="SvgjsPolyline1987" points="599.5,547 580.2,531.8 556.3,512.7 554.5,511.1 550.2,507.8 548.9,506.6 539.5,499.1 521.9,484.6 506.8,471.8 505.8,471.1 503.6,469.1 502.6,468.4 485.4,453.4 484.9,453.1 468.8,438.7 454.3,425.2 444.4,415.6 432.2,403.2 424.9,395.3 414.2,383.1 410,378 404.1,370.4 397.8,361.6 393.2,354.6 390.1,349.5 385.7,341.6 383.3,336.8 380.3,330.2 376.8,321.3 374.2,313.3 371.1,301.1 369.1,290.5 367.4,278 366.2,266 363.4,228.3 362.1,200.8 361.4,169.6 360.9,115.6 360.5,0.4" fill="none" stroke="#000000" stroke-width="1"/><polyline id="SvgjsPolyline1988" points="599.7,371.4 572.2,354.2 552.5,341.6 550.4,340.4 521.2,321.5 500.3,307.4 490,300.1 479.4,292.3 471.8,286.4 463.5,279.5 455.9,272.7 449.9,266.8 446.2,262.9 440.3,256 435.2,249.4 430.5,242.4 425.6,234.2 417,217.7 415.5,215.1 415.3,214.5 412.9,210.3 409.5,204.7 404.4,197.3 398.9,188 397.3,184.8 394.9,179.3 392.5,172.5 390.7,166.1 388.4,155.6 385.5,139.6 380.8,119.2 379.7,112 378,95.9 376.3,84.7 375.2,70.9 374.2,62.6 373.6,52.4 372.9,45.8 372.6,39.2 372.1,33.8 371.7,25.5 371.3,20.7 370.3,0.3" fill="none" stroke="#000000" stroke-width="1"/><polyline id="SvgjsPolyline1989" points="599.6,562.5 585.1,550.8 583.3,549.2 580.9,547.4 579.6,546.2 551.7,523.4 529.2,504.5 515.6,492.7 514.6,492 509.7,487.6 507.8,486.1 489.4,469.8 473.9,455.6 460.4,442.8 445.1,427.6 433.5,415.4 423.1,403.8 413.5,392.2 408.7,386.1 403,378.4 393.7,364.4 389.8,357.7 385.2,349.2 380.4,338.9 377.3,331.1 375.5,326 373.4,319.1 371,309.8 369,299.8 367.4,289.1 365.9,275.4 365,264 363.4,238.9 362,209.5 361.2,174.1 360.6,85.9 360.4,0.1" fill="none" stroke="#000000" stroke-width="1"/><polyline id="SvgjsPolyline1990" points="599.9,357.4 589.8,351 572.4,340.3 543.5,322 521.9,307.9 508.5,298.8 495.3,289.4 485.7,282.2 476.8,275.1 466.4,266 460.8,260.6 454.2,253.6 448.8,247.2 443.4,240 438.4,232.5 435.9,228.4 428.5,215.3 422.7,205.5 418.3,199.1 412.8,192 409.7,187.5 405.8,180.8 403.7,176.5 401.6,171.5 399.8,166.4 396.3,153.7 395,147.8 392.4,137.3 387.3,120.7 386.1,115.4 385.2,110.1 383.9,100 380.9,83.4 379.7,71.5 378.4,63.2 377.5,52.4 376.7,46.5 376,36.9 375.2,29.2 375.1,26.2 374.4,19 373.2,0.4" fill="none" stroke="#000000" stroke-width="1"/><polyline id="SvgjsPolyline1991" points="599.9,578.3 578.2,560.3 561.7,546.4 554,539.7 553,539 549.9,536.2 548.9,535.5 533.1,521.7 531.2,520.2 507.4,499.1 489.7,482.9 488.9,482 481.4,475.1 468,462.2 449,443 438.4,431.6 425.3,416.7 419.2,409.3 413.6,402.2 406.8,393.1 398.7,381.2 395.8,376.6 391.3,368.9 388.9,364.7 385.6,358.3 380.6,347.4 376.9,337.9 373.9,328.7 371.8,321.2 369.1,308.9 367.7,300.6 366.3,289.9 364.8,273.2 364.1,262.4 362.6,234.3 362,219.9 361.1,182.7 360.6,113.7 360.3,0.3" fill="none" stroke="#000000" stroke-width="1"/><polyline id="SvgjsPolyline1992" points="599.6,343.1 560.9,319 538.2,304.4 525.7,296.1 511.4,286.2 496.9,275.5 485.7,266.5 478.9,260.5 472.8,254.8 468.2,250.1 462.2,243.4 458,238.3 454.4,233.5 449.6,226.5 445.1,219.5 436.4,205.1 433.4,200.6 429.1,194.9 422.5,187.1 418.5,181.8 415.4,176.7 414,174 410.3,165.8 407.3,157.3 404.1,146.4 401.2,137.2 395.8,123.3 394,118.1 393.1,114.7 392.1,110 390.2,98.7 389.3,94.6 387.6,88.2 386.6,83.5 385.4,74 383.1,61 382.4,53.9 381.1,45.6 380.4,37.8 379.6,32.4 379.1,25.9 378.4,20.5 378,14.5 377.4,9.7 377.2,5.6 376.8,2.6 376.7,0.2" fill="none" stroke="#000000" stroke-width="1"/><polyline id="SvgjsPolyline1993" points="599.6,593.8 577.2,574.7 558.2,558.2 529.9,533.1 510.4,515.3 509.6,514.4 497.7,503.4 481.3,487.6 463.1,469.3 450.3,455.8 435.1,438.8 426.6,428.7 419.5,419.8 413.7,412.1 404.7,399.4 398.2,389.3 393.9,382.1 390.4,375.8 385,365.1 380.4,354.6 377,345.7 374,336.5 371.6,327.9 369,316.1 367.3,306.1 366.2,297.8 365.3,289.4 364,272.1 361.9,226.5 361,188.7 360.5,113.7 360.3,0.3" fill="none" stroke="#000000" stroke-width="1"/><polyline id="SvgjsPolyline1994" points="599.8,329.1 579.9,316.8 558.1,303 545.1,294.5 529.6,284.1 519.8,277.2 506.8,267.5 498.4,260.7 489.8,253.2 485,248.7 477.9,241.4 473.9,236.9 469.7,231.8 465,225.6 461.2,220.2 455.9,212.2 452.1,206.1 448.1,200.1 444.6,195.2 442,191.9 431.1,179.9 427.5,175.1 424.2,169.4 421.1,162.9 418.4,156.2 415,146.6 411.8,138.2 408.6,131.1 406.1,126.3 403.8,121.4 401.7,115.8 400.9,112.9 397,95.9 393.6,85 392.4,78.6 391.6,73.2 390.6,68.5 389.5,64.5 387.2,49.6 386.3,45.5 385.6,39 384.3,31.3 383.8,25.9 383,21.2 382.6,16.4 381.9,11.6 381.4,5.7 380.7,0.3" fill="none" stroke="#000000" stroke-width="1"/><polyline id="SvgjsPolyline1995" points="588.2,599.8 567.9,581.9 541.2,557.8 523.6,541.5 504.5,523.3 486.1,505.2 468.1,486.7 457.5,475.3 442.7,458.7 432.3,446.3 429,442 426.3,438.8 420.1,430.7 412.7,420.5 402.4,405 394.5,391.6 390.5,384.2 387,377.2 383.5,369.5 379.2,359 375.8,349.4 373.5,341.9 371.2,333.2 368.9,322.7 366.9,310.8 365.3,297.7 364.1,283.4 363.3,269.6 361.6,225.8 360.8,184.4 360.4,105.2 360.3,0.2" fill="none" stroke="#000000" stroke-width="1"/><polyline id="SvgjsPolyline1996" points="599.5,314.8 570,296.3 554.9,286.5 540,276.4 530.7,269.8 521.1,262.6 509.9,253.6 502.2,246.8 498.7,243.6 493.2,238.1 489.9,234.6 483.2,226.9 479.1,221.7 475.2,216.4 469.7,208.5 464.4,200.5 459.5,193.7 457.3,190.9 455.4,188.5 452.2,184.9 443.3,176 441.3,173.8 438.3,170 434.9,164.4 433,160.6 429.8,153.5 425.9,144.1 422.6,137 419.4,131.2 414.5,123 412.1,118.1 409.8,111.9 405.9,97.5 404.5,93.5 401.8,86.8 400.5,82.2 398.2,71 395.8,63 395.1,59.5 394.1,52.9 392.1,44.8 391.5,40 390.1,33 389.5,29.4 389.2,26.4 387.9,19.3 387.5,15.2 386.7,11 386.3,6.8 385.6,2.7 385.4,0.3" fill="none" stroke="#000000" stroke-width="1"/><polyline id="SvgjsPolyline1997" points="569.9,599.7 552.2,583.4 551.4,582.5 540.4,572.3 523.5,556.1 506.4,539.3 490.8,523.5 476.3,508.3 460.9,491.5 447.5,476.1 437.2,463.6 424,446.5 416,435.3 407,421.8 401.4,412.6 396,403.2 395.8,402.6 391.8,395.2 388.1,387.7 382.3,374.5 379.7,367.8 376.9,359.9 373.2,347.8 370.7,337.9 368.5,327.4 367,318.5 365.5,307.2 364.6,298.2 363.7,286.3 363.1,275.5 361.3,223.3 360.7,186.7 360.3,90.1 360.2,0.1" fill="none" stroke="#000000" stroke-width="1"/><polyline id="SvgjsPolyline1998" points="599.7,300.8 588.5,293.8 571.9,283.1 558.4,274.1 549.5,267.9 535,257.3 525.6,249.8 517.4,242.8 511.7,237.5 506.2,232 498.1,223.1 491.3,214.7 484.9,206 476.3,193.7 470,185.7 464.3,179.5 456.4,172.1 452.6,168.3 449.9,165.1 448.5,163.1 446.6,160.1 444.9,156.9 440.5,147.7 435.8,138.6 432.1,132.5 424.6,121.6 421.5,115.8 418.8,108.5 416.7,101.6 415.1,97 410.4,86.7 408.5,81 406.3,71.6 403.1,62.6 400.9,52 399.1,46.3 397.5,37.4 396.2,32.8 394.7,23.9 394.2,22.2 392.9,13.9 392.3,11.6 391.6,6.2 390.5,0.3" fill="none" stroke="#000000" stroke-width="1"/><polyline id="SvgjsPolyline1999" points="552.4,599.9 534.8,582.8 515.7,563.7 514.1,561.9 511.5,559.4 499.4,546.9 483,529.4 463.8,507.9 459.5,502.9 444.2,484.4 435,472.6 424,457.6 414.5,443.7 405.9,430 399.9,419.6 399.7,419 397.6,415.4 395.1,410.6 391.6,403.6 386.1,391.6 383.1,384.4 380.4,377.1 380.1,376.6 376.8,366.9 373.7,356.6 371.3,347.3 368.9,336.1 366.6,322.5 365.3,312.4 364.2,301.1 363.5,291.5 362.8,278.3 361.3,231.5 360.6,187.1 360.3,114.5 360.2,0.5" fill="none" stroke="#000000" stroke-width="1"/><polyline id="SvgjsPolyline2000" points="599.5,286.5 588.4,279.4 571.4,268.1 555.7,257 548.5,251.6 539.6,244.5 535.9,241.4 527.4,233.8 523.5,230.1 518.9,225.4 514.8,221 509.7,215.1 501.9,205.2 490.2,189.2 485.3,183.1 480.9,178.2 477.1,174.4 467.2,165.6 464.7,163.1 460.8,158.5 458.2,154.5 451.9,142.9 449.1,138.3 445,132.3 437.9,123.4 435.8,120.5 433.3,116.4 431,111.5 426,98 423.6,93.1 421.2,89 419.1,84.6 417.9,81.3 415.3,72 413.8,68.1 411.6,63.2 410.9,60.9 408.8,52.1 407.6,48.7 407.3,48.2 406.1,44.2 404.8,37.7 403,32 401.8,25.5 400.2,19.7 399.2,13.8 398.5,11.5 397.3,4.4 396.8,2.6 396.4,0.3" fill="none" stroke="#000000" stroke-width="1"/><polyline id="SvgjsPolyline2001" points="535,599.7 524.1,588.6 503.5,566.8 489.4,551.3 473.1,532.8 457.7,514.4 446.5,500.3 436.4,486.9 426.3,472.7 417,458.7 410.1,447.5 402.6,434.5 398.1,426 393.8,417.4 388.3,405.4 383.3,393.2 380,384.2 375.6,370.5 372.6,359.5 369.9,347.8 368.5,340.7 366.4,327.7 364.8,314.6 363.7,302 362.5,280.4 361.1,230.7 360.5,185.1 360.2,84.9 360.2,0.3" fill="none" stroke="#000000" stroke-width="1"/><polyline id="SvgjsPolyline2002" points="599.9,272.5 590.9,266.6 580,259.1 571.7,253.2 562.1,246 557.4,242.3 549.1,235.4 542.8,229.8 533.8,221 525.3,211.7 521.1,206.6 513,196.2 505.1,185.6 501.7,181.4 498.1,177.3 496.1,175.1 491.4,170.5 482.7,163.1 477.8,158.7 474.2,154.7 470.7,149.8 465,139.9 463.7,137.9 459.3,132.2 451.7,123.7 448.7,120 446,116 444,112.3 441.8,107.4 439.6,101.8 437.6,97.4 434.9,92.8 430.7,86.2 429.4,83.5 425.1,71 421.3,63.5 420.1,60.1 418.4,53.7 417.4,50.9 416.1,48.2 414.7,44.2 413,37.2 410.9,31.6 409.8,26.3 408.1,21.2 407.5,18.8 406.9,15.3 405.2,9.5 404.5,5.4 403.6,2.5 403.2,0.2" fill="none" stroke="#000000" stroke-width="1"/><polyline id="SvgjsPolyline2003" points="518.4,599.9 505.9,586.2 487.3,565 486.6,564 483.4,560.4 474.2,549.4 461.7,534 451.8,521.2 439,503.8 431.1,492.4 420.9,476.9 413.1,464.1 404.3,448.4 398,436.1 391.9,423 387.9,413.7 383.2,401.4 378.3,387.2 374.6,374.5 372.1,364.6 369.9,354.6 366.7,336.3 365.3,325.6 364.3,316.1 363.3,303.5 362.4,286.7 361.8,268.7 361.2,242.9 360.5,195.5 360.2,106.1 360.2,16.7" fill="none" stroke="#000000" stroke-width="1"/><polyline id="SvgjsPolyline2004" points="0.2,403.9 71.6,367 90.6,356.8 91.2,356.6 101.2,351.1 116.2,342.3 126.7,335.4 133.5,330.4 143.3,322.5 147.8,319.4 151.9,317.1 160.2,313.5 163.3,311.7 164.2,310.9 166.2,309.6 170.1,307.9 172.6,306.3 174.2,305.6 175.2,304.9 180,302.5 184.2,300.1 186.4,299.1 187.4,298.4 193.8,295.2 194.9,294.8 197,293.6 199.8,292.5 203.9,290.1 213.5,286.5 217.2,284.5 221.8,281.7 226.1,279.5 231,277.3 236.6,275.2 242.9,273.1 269.3,265.3 278.4,262.1 280,261.4 285.5,258.8 294.3,253.7 297.6,252.2 300.1,250.6 301,249.8 302.1,249.3 304.6,247.7 307.3,245.3 309.5,242.4 311.9,238.3 313,236.1 315.9,229.5 319.8,219.5 325,204.8 328.5,193.9 331.3,183.5 333,175.3 334.9,163.4 338,136.6 340.6,120 341.2,114.6 342.4,98.5 343.7,87.1 344.3,79.4 344.7,71.6 345.6,62 346.1,51.8 346.6,46.4 346.9,38.6 347.4,32.7 347.6,26.1 348,21.3 348.1,16.5 348.5,10.5 348.9,0.3" fill="none" stroke="#000000" stroke-width="1"/><polyline id="SvgjsPolyline2005" points="599.6,257.9 590.2,251.4 582,245.4 575.3,240.3 569.2,235.4 562.8,230 557,224.8 548.4,216.4 544.7,212.5 536.4,203 529.3,194.1 519.8,181.7 515.6,176.6 512.8,173.5 506.4,167.2 503.7,164.8 494.8,157.6 491.2,154.4 487.9,151 485.6,148.2 484.2,146.2 481.3,141.7 478.6,137 474.8,131.6 473.2,129.8 465.6,122.1 461.8,117.5 460.1,115 458,111.4 453.4,101.6 450.8,96.8 448.9,93.8 444.6,88 442.4,84.5 440.4,80.1 438.6,75 436.7,70.6 433,64.4 431.7,61.7 428.7,52.6 425.3,45.6 424.5,43.3 422.9,37.5 420.9,33.1 420.1,30.9 419,26.2 416.5,19.4 415.6,15.4 413.8,10.2 413.1,6.7 411.6,2.2 411.2,0.4" fill="none" stroke="#000000" stroke-width="1"/><polyline id="SvgjsPolyline2006" points="501.9,599.6 493.3,589.5 478.5,571.4 464.8,553.9 451.9,536.6 441.5,521.9 428.9,502.9 421,490.1 415,479.8 408.3,467.7 401.2,453.8 393.9,438 389.5,427.5 385.2,416.3 382.2,407.8 379.6,399.8 375.4,385.4 372.9,375.5 369.5,359.7 366.9,344.3 365.4,333 364.2,321.6 363.2,309.1 362.6,298.9 362,284.5 360.9,235.9 360.4,192.1 360.1,0.1" fill="none" stroke="#000000" stroke-width="1"/><polyline id="SvgjsPolyline2007" points="0.4,417.4 50.9,391 103.8,363.9 120.2,355.2 120.8,355 131.8,348.9 132.4,348.7 150,338.4 160.5,331.4 173.5,321.7 178,318.8 181.2,317.2 183.4,316.2 191.3,313.2 192.9,312.4 197.5,309.5 202.5,307.5 205.1,306 206.8,305.4 207.8,304.8 213.8,302.2 215.4,301.3 218.2,300.3 228.1,296.1 233.2,294.2 234.2,293.6 238.8,292.2 244.3,289.7 253,287.4 258.1,285.7 269.1,280.9 276.9,277.8 285.4,274.7 290.9,272.5 295.5,270.9 299,269.9 301.7,268.8 305.1,267.7 306.8,266.9 309.3,265.3 312.8,262 314.7,259.7 318.1,254.7 322.5,246.9 324.1,243.7 327.8,235.5 331.6,226 335.6,214.7 337.6,208.4 339.9,200.3 341.5,193.9 343,186.9 344.5,178 346.1,164.3 347.8,140.9 349.3,125.4 350.3,112.3 350.9,97.3 351.7,85.9 352.1,73.3 352.7,61.9 352.9,52.9 353.3,45.1 353.4,37.9 353.7,32.5 354.5,0.1" fill="none" stroke="#000000" stroke-width="1"/><polyline id="SvgjsPolyline2008" points="0.5,390.3 39.4,370.1 58.4,359.9 59,359.7 69,354.2 84.6,345.2 92.7,340.1 101.1,334.3 106.8,329.9 114.6,323.3 119.9,319.3 124.5,316.6 132.7,312.8 134.7,311.5 137.5,309.3 140.8,307.8 142.8,306.4 147,304.1 154.6,299.4 161.4,295.7 165.5,293.2 168.8,291.7 171.2,290 172.3,289.4 177.3,287.4 180,286 182,284.8 186.9,281.3 191.5,278.5 194.2,277.1 199.7,274.6 209.7,270.7 223.3,266 250.1,257.1 260.8,253.2 268,250.3 272.4,248.3 277.2,245.8 279.8,244.3 285.2,240.5 294.2,232.6 299.1,229.1 301.5,226.5 303.9,224.6 306,222.5 308.1,219.5 309.3,217.5 310.9,214.2 313.2,208.7 316,200.8 318.5,192.8 321.4,181.7 323,174.1 324.5,165.2 327.9,138.4 331.8,116 333.8,95.7 335.5,83.8 336.5,71.2 337.5,63.5 338.2,53.3 339.3,42.6 339.4,39.6 341.1,19.2 341.3,14.5 341.7,10.9 342.3,0.1" fill="none" stroke="#000000" stroke-width="1"/><polyline id="SvgjsPolyline2009" points="599.6,243.3 588.6,235 577.5,225.8 568.2,217.3 562.7,211.8 559,207.9 551.8,199.8 547.6,194.7 535.4,179.1 529.6,172.3 525.9,168.3 522.9,165.4 518.4,161.4 508,153.2 505.3,150.9 501.4,147.1 497.6,142.5 494.6,138 491.8,133.4 488.7,129 486.3,126.2 480.3,120.4 476.1,115.3 472.6,109.7 469.1,102.7 465.8,97 463.7,94.1 459.8,89.5 456.9,85.7 454.8,82 450.5,72.1 448.7,69 445.6,64.6 444.4,62.5 443.2,59.8 440.7,53 440.2,51.9 436.9,46.2 436,44 433.7,37.2 431,31.8 428.8,24.9 426.8,20.6 425.2,14.8 423.4,10.4 422.3,6.3 420.8,2.4 420.2,0.1" fill="none" stroke="#000000" stroke-width="1"/><polyline id="SvgjsPolyline2010" points="486.5,599.9 475.8,586.2 464,570.3 450.5,551.2 441.8,538.2 433.7,525.6 425.9,512.8 419.6,501.9 419.4,501.3 416.4,496.1 410.5,485 404.6,473.2 400,463.4 393.8,449.1 387.9,434 382.6,418.7 377.9,403.2 374.1,388.7 371.1,375.2 369.6,367.5 367.4,354.5 365.9,343.8 364.8,334.3 363.4,318.7 362.8,309.8 361.8,287 361.2,261.8 360.7,231.2 360.3,184.4 360.1,0.2" fill="none" stroke="#000000" stroke-width="1"/><polyline id="SvgjsPolyline2011" points="0.2,431.1 21.3,419.8 21.9,419.6 36.7,411.7 42.1,409 46.8,406.4 64.9,397 99.6,379.2 141.4,358.1 162.7,347 170.6,342.7 181.5,336.4 189.6,331.3 203.1,322.2 209.3,318.7 213.7,316.8 218.8,315 224,313.4 226.8,312.3 232.1,309.5 234.9,308.5 238.4,307.5 241.1,306.2 244,305.4 244.5,305.1 247.4,304.2 250.2,303.1 258.7,300.3 273.6,295.9 274.8,295.7 277.7,294.8 279.5,294.5 283.5,293.2 287.6,292.5 294,290.9 306.5,288.9 308.8,288.4 310.5,287.8 312.6,286.7 313.6,286 315.3,284.3 319.2,279 322.2,275.2 327.3,269.3 331.6,263.5 336.2,255.8 338.5,250.9 341.7,242.5 342.8,239.1 345.2,230.4 347.8,218.7 350,206.3 351.5,195.6 352.3,188.4 353.4,174.7 354.2,157.9 354.8,138.1 355.7,118.9 357,59.5 357.7,0.1" fill="none" stroke="#000000" stroke-width="1"/><polyline id="SvgjsPolyline2012" points="0.3,376.8 18.4,367.4 30.5,360.8 31.1,360.6 34.7,358.5 35.3,358.3 43.7,353.6 58.7,344.8 69.2,337.9 75.5,333.3 81.6,328.4 89.3,321.7 93.7,318.5 96.8,316.7 104.9,312.8 106.4,311.8 109.2,309.5 110.7,308.6 112.4,307.9 113.4,307.3 114.3,306.5 116.4,305.4 131.7,296 132.3,295.8 133.8,294.8 134.9,294.3 136.3,293.3 139.5,291.6 141.9,289.8 148.5,286.8 152,284.5 157.7,280.1 163.9,276.4 172.6,272.3 180.3,269.1 224.5,251.9 247.3,242.6 258.8,237.5 263.1,235.4 270,231.7 274.6,228.9 278,226.5 281.8,223.5 284.5,221.1 288.7,216.8 293.5,211.5 298.9,206.7 301.5,203.4 304.5,200.5 306,198.6 308.1,195 310,190.6 311.4,186.6 313.7,177.9 315.9,166.1 317.2,156.6 319.5,137.5 322.1,122.8 323.5,113.9 325.1,97.1 326.9,85.3 328,72.7 329.3,63.2 330.2,51.8 331,45.9 331.6,37.5 332.4,31 332.6,26.8 333.2,21.4 334.9,0.5" fill="none" stroke="#000000" stroke-width="1"/><polyline id="SvgjsPolyline2013" points="599.7,228.4 590.1,220.3 583.9,214.6 577.5,208.3 571.7,202.2 562.3,191.3 554.5,181.4 546.9,172.1 542.5,167.2 535.6,160.5 530,155.9 520.5,148.6 516.9,145.5 514.8,143.4 513.1,141.6 509.8,137.4 506.1,131.9 505.2,130.3 502.1,125.9 498.1,121.5 491.5,115.3 490,113.4 488.3,110.9 482.7,101 480.1,97 477.5,93.7 472.6,88.4 470.7,86.1 469,83.6 467,79.9 464.8,75 463.4,72.3 460.8,68.3 457.5,64 455.7,60.9 453,54.2 451.3,51 447.8,45.5 446.8,43.3 444.5,37.1 441.5,31.9 439.6,26.2 436.9,20.8 434.6,14 433,10.8 431.4,5.6 431,4.5 429.9,2.4 429.2,0.1" fill="none" stroke="#000000" stroke-width="1"/><polyline id="SvgjsPolyline2014" points="471.1,599.7 462.8,587.9 451.1,570.4 442.7,557.3 434.3,543.5 425.3,527.9 420.1,518.4 413.2,505.1 408.2,494.8 401,479 395,464.6 391,453.9 390.7,453.4 386.7,442.1 382.3,428.4 379.6,419.1 377.1,409.9 373.2,393.5 369.9,377.1 367.9,365.2 366,351.6 364.4,337.2 363.2,322.9 362.2,305.5 361.7,292.3 361.2,271.9 360.5,222.1 360.2,165.7 360.1,91.3" fill="none" stroke="#000000" stroke-width="1"/><polyline id="SvgjsPolyline2015" points="0.5,444.5 48.6,418.7 49.2,418.5 62.4,411.4 90.6,396.7 135,374.2 178.7,352.8 181.3,351.4 183,350.7 202.8,340.7 211.3,336.2 214.9,334.1 215.5,333.9 234.2,323.1 238.5,320.9 244,318.5 247.4,317.3 251.4,316.1 264.8,312.7 273.2,309.5 274.9,309 281.4,307.6 285.4,306.3 294.2,304.7 306.8,303.7 310.3,302.8 311.4,302.4 312.4,301.8 316.4,299.1 322.1,295.7 325.8,292.6 328.7,289.6 330.9,286.8 333.3,283.3 335.7,279.2 338.2,274.4 342,265.6 345.8,254.8 347.9,247.3 349.7,239.1 351.5,228.4 353.6,211.8 355,196.2 355.6,187.3 356.5,164.5 357,136.9 357.6,115.9 357.7,100.3 358,87.1 358.7,0.1" fill="none" stroke="#000000" stroke-width="1"/><polyline id="SvgjsPolyline2016" points="0.1,363.4 10.1,358 15.8,354.7 16.4,354.5 24.7,349.7 35.4,343.1 43.9,337.4 48.2,334.2 54.3,329.3 63.3,321.4 67.2,318.5 70.8,316.4 77.3,313.3 79.3,312 82.6,309.3 86.3,307.4 87.2,306.6 89.8,305.1 90.2,304.7 92.8,303.1 98.9,299.4 100.5,298.6 102.5,297.2 105.6,295.4 106,295 107.6,294.2 109.1,293.1 111.2,292.1 113.6,290.2 115.7,289 119.5,287.3 121.6,286.1 129.6,279.8 132.6,277.8 135.2,276.3 141.6,273 147.1,270.5 183.5,254.9 222.9,237.3 237.7,230.6 255,222.3 259.8,219.8 267.6,215.3 272.6,212 277.4,208.4 282.3,204 284.7,201.4 287.5,198.2 291.8,192.4 295.5,187.7 297.6,185.5 299.3,183.1 299.5,182.5 300.5,181 301.2,179.3 304.1,174.8 305.4,172.1 307.5,165.8 308.6,161.1 309.7,155.2 312.4,137.4 314.1,128 315,123.9 316.4,115 318,98.3 319.9,85.2 320.9,73.3 322.3,62.5 322.9,54.2 324,45.2 324.6,36.9 325.1,33.3 325.7,24.9 326.2,21.3 327.9,0.4" fill="none" stroke="#000000" stroke-width="1"/><polyline id="SvgjsPolyline2017" points="599.8,212.8 592,205.3 586.2,199.2 581.8,194.3 575.6,187 564.7,173.4 556.8,164.4 549.9,157.7 543.4,152.4 531.9,143.7 529.2,141.3 525.9,137.9 522.1,133.2 517.8,126.7 514.6,122.3 510.1,117.5 505.1,113.2 502.7,110.6 500.8,108.2 496.5,101 494.1,97.5 491,93.8 486,88.7 482.5,84.6 479.7,80 477.3,75.1 474.9,71 473.5,69 470.4,65.4 468.9,63.4 467.4,60.9 466.3,58.7 465.2,56 463.6,52.7 461.3,49.2 459.8,47.3 458.6,45.3 457.3,42.5 456.3,39.7 455.3,37.5 452.1,32.5 451.1,30.3 449.2,25.2 446.5,20.5 445.8,18.9 444.5,14.9 442,10.1 440.5,5.5 438.9,2.3 438.1,0.1" fill="none" stroke="#000000" stroke-width="1"/><polyline id="SvgjsPolyline2018" points="456.4,599.7 449.7,589 442.9,577.7 435.4,564.7 424.8,545.2 417.2,530.2 413.3,522.1 405.4,504.6 399.4,490.2 395.7,480.7 390.6,466.6 385.2,450 381,435.6 377.8,423.4 374,407.1 371.5,394.7 369.1,381.1 367.4,369.9 365.7,356.8 363.6,335.3 362.8,323.9 362.1,310.7 361.2,281.9 360.5,230.9 360.2,181.7 360.1,0.5" fill="none" stroke="#000000" stroke-width="1"/><polyline id="SvgjsPolyline2019" points="0.5,458.3 22.5,446.1 23.1,445.9 53.6,429.2 54.2,429 66.3,422.4 94.4,407.5 133.9,387.2 150,379.2 172.7,368.2 199.9,355.5 240.3,337.1 241.3,336.5 249.5,332.7 263.4,325.7 274.3,320.6 282.7,317.5 287.4,316.3 291.3,314.8 296,313.7 298.4,313.4 300.7,312.8 306,311.8 309.4,310.7 311,309.8 312.9,308.4 318.7,305.2 321.2,303.5 323.5,301.6 325.2,299.9 327.2,297.7 329.1,295.3 332.8,289.9 335.2,285.7 337.6,280.9 341.1,272.6 345.4,260.1 348,250.9 350,242.1 352.2,228.5 353.9,214.2 355.7,192 356.4,177.6 356.9,160.3 357.1,144.7 357.8,116.5 357.9,99.7 358.2,85.3 358.8,0.1" fill="none" stroke="#000000" stroke-width="1"/><polyline id="SvgjsPolyline2020" points="0.1,349.7 10.3,343.5 16.3,339.5 22.2,335.3 30.6,328.5 37.7,322.1 41.5,319.1 46.1,316.3 51,314 53.6,312.5 54.6,311.8 56.8,309.8 61,307.5 62.4,306.3 64,305.5 69,302.2 73.1,299.8 77.5,296.7 78.1,296.5 80,295.1 81.1,294.6 82.5,293.5 85.2,292.1 87.5,290.2 89.6,289 92.9,287.5 94.9,286.3 97.4,284.5 99.6,282.5 102.9,279.9 108.4,276.3 110.5,275.1 117.5,271.6 145.4,259 158.4,252.9 186,239.6 187,239 191.4,237 192.4,236.4 232,217.7 247.1,210.3 254.5,206.3 255.1,206.1 261.3,202.5 265.8,199.6 269.8,196.8 273.1,194.2 277.1,190.6 278.3,189.3 281.5,185.6 284.6,181.2 287,177.1 289.6,171.7 292.7,163.9 295.6,156 298.6,148.8 301.4,139 304.3,133 306.4,128.1 307.6,124.7 308.9,120.1 310.5,111.2 311.8,99.3 313.8,86.8 314.5,80.9 315.2,71.9 316.5,62.4 317.2,52.8 318,46.9 318.7,37.3 319.3,32.5 319.9,24.1 320.3,21.2 322,0.2" fill="none" stroke="#000000" stroke-width="1"/><polyline id="SvgjsPolyline2021" points="599.8,196 591.4,186.6 575.8,167.6 571.8,163.1 567.2,158.4 560.9,152.8 556.2,149.1 545.1,140.9 540.6,136.9 538.5,134.8 535.4,131.1 529.6,122.7 526.7,118.9 523,115 518.4,111.1 514.9,107.8 513,105.5 511.6,103.5 507.5,96.9 504.3,93.3 498.3,87.5 495.5,84.3 492.9,80.3 488.9,72.9 487.2,70.4 484.5,67.2 482.8,65.5 480.6,62.6 479.3,60.6 476.2,54.1 475,52.1 473.6,50.1 471.3,47.3 469.4,44.3 466.7,38.2 465.5,36.2 462.7,32.2 461.2,29 459.9,25.6 457,21 456.2,19.4 454.8,15.5 454.3,14.4 452.1,10.8 451.2,8.6 450.5,6.3 448.2,2 447.6,0.4" fill="none" stroke="#000000" stroke-width="1"/><polyline id="SvgjsPolyline2022" points="442.4,599.9 436.9,589.9 436.7,589.3 431.6,579.8 426.2,569.1 419.7,555.6 411.3,537 407.8,528.7 398.8,505.8 393.6,491.1 389.3,478 386.5,468.8 382.9,456.1 379.3,442.1 377.1,432.8 373.6,416.4 371.4,404.6 369.5,393.3 367.5,379.7 365.4,362.4 364.5,353.4 363.1,336.1 361.8,311.5 361.1,286.9 360.5,240.1 360.2,193.9 360.1,130.3" fill="none" stroke="#000000" stroke-width="1"/><polyline id="SvgjsPolyline2023" points="0.5,472 49.2,444.8 49.8,444.6 59.2,439.3 90.8,422.1 91.4,421.9 108.8,412.5 109.4,412.3 114.1,409.7 124.3,404.5 130.6,401.1 157.9,387.3 184.4,374.5 205.1,365 227.1,355.4 255.9,343.3 264.1,339.6 270,336.6 276.2,333 279.7,330.7 285,327.8 290,325.9 292.6,324.4 298.4,322.6 300,321.9 304.6,320.4 307.9,319.1 312.7,315.5 316.8,313 319.2,311.2 323.1,307.5 325.5,304.8 328.1,301.5 332.7,294.5 336.4,287.6 339.8,279.9 341,276.5 341.3,276 343.8,268.6 347,257.7 349.6,247.2 351.9,234.2 353.7,219.9 355.1,204.4 355.8,194.8 356.6,178.6 357,164.8 357.4,138.4 357.9,118.6 358.1,94 358.3,86.8 358.9,0.4" fill="none" stroke="#000000" stroke-width="1"/><polyline id="SvgjsPolyline2024" points="0.4,335.5 7,330.3 16.4,321.9 20.7,318.6 23.2,317 29.7,313.8 32.2,312.3 36,309.2 39.6,307.2 40.5,306.4 42.6,305.2 50.6,300 53.1,298.3 54,297.5 57.1,295.6 57.5,295.2 58.6,294.7 60,293.6 62.6,292.2 65.5,289.9 70.3,287.5 72.3,286.3 75.2,284.1 80.2,279.8 85.7,276.2 91.5,273 95.8,270.9 118.7,260.3 131.1,254.3 185.2,227 223.1,208.8 224.1,208.2 225.8,207.5 242.4,199.1 248.7,195.6 257.8,189.9 260.8,187.8 264.1,185.2 266.4,183.3 269.4,180.4 273.4,175.9 275.2,173.5 279.2,166.8 281,163 284.2,154.6 287.6,143.7 291,134.1 293.5,128.6 294.9,126 298.1,120.9 298.9,119.3 300.5,114.1 300.8,112.3 302.2,107.1 307.8,88.1 309.1,81 310.4,69.7 311.9,60.2 312.4,53.7 313.5,45.3 314.2,36.4 314.9,31 315.2,25.6 315.8,20.8 316.1,16 317.5,0.5" fill="none" stroke="#000000" stroke-width="1"/><polyline id="SvgjsPolyline2025" points="599.9,177.9 589.9,165.9 584.7,160.1 579.2,154.6 575.6,151.4 571.4,148 560.2,139.9 555.5,136.2 551.2,132.1 547.6,128 541,118.7 538,115 535.9,112.8 529,107 526,104.1 523.4,100.8 519.9,95.2 518.1,92.8 515.6,90.2 512.9,87.8 509.3,83.8 507.9,81.8 502.4,72.5 500.6,70.1 494.1,63.1 492.1,60.1 489.4,54.7 488.5,53.2 487.5,51.7 483.6,47.1 482.2,45.1 480.8,42.5 478.8,38.1 474.2,31.8 471.5,25.8 467.6,19.8 465.5,14.8 462.6,10.2 460.6,5.2 459,2.7 458,0.5" fill="none" stroke="#000000" stroke-width="1"/><polyline id="SvgjsPolyline2026" points="428.7,599.8 426.6,595.5 419.5,579.6 410.3,557.4 403.5,539.5 398.1,524.2 395.1,515.1 388.3,492.7 382.3,470.1 377.6,449.6 373.5,429 370.3,410.1 368.4,397 366.8,384.5 364.5,362.4 362.9,341.5 361.7,317.5 361,291.7 360.4,238.9 360.3,208.9" fill="none" stroke="#000000" stroke-width="1"/><polyline id="SvgjsPolyline2027" points="0.1,486.1 49.1,458.1 50.2,457.6 58.5,452.8 86.8,437 87.4,436.8 105.2,426.9 129.5,413.8 157.7,399.1 176.5,389.7 196.5,380.1 223.3,368 252,355.8 259.7,352.3 267.2,348.5 274.9,343.9 280.2,340 283,337.7 287.5,334.8 290.8,333.3 293.3,331.6 296,330.4 298.9,329.4 301.5,328 304.3,327 307,325.7 308,325 310.6,322.5 316.9,317.9 321.9,312.7 327.1,306.1 332.3,298.1 336.8,289.6 340.3,281.3 343.8,271.1 347.5,257.8 350,247.3 351.1,241.4 352.3,233.6 354,219.4 355.1,207.4 355.9,196 356.7,179.8 357.1,166.1 357.5,138.5 358,118.1 358.2,92.3 358.4,84.5 358.9,0.5" fill="none" stroke="#000000" stroke-width="1"/><polyline id="SvgjsPolyline2028" points="0.1,320.4 3.5,317.9 5,317 13,312.9 15,311.5 17.2,309.5 20.9,307.5 22.3,306.3 23.9,305.5 24.8,304.7 25.9,304.1 26.3,303.7 26.9,303.5 30.8,300.7 34.3,298.5 35.2,297.7 37.7,296 38.2,295.8 41.7,293.4 43.8,292.3 47.1,289.7 52.9,286.7 55.4,284.9 58.5,282.1 61.8,279.5 65.3,277.1 69.9,274.4 79.6,269.5 92.1,263.7 93.1,263.1 94.8,262.4 95.8,261.8 97.5,261.1 107.7,256.1 121.1,249.3 141.8,238.4 169,224.4 183.5,217.2 204.1,207.3 205.1,206.7 206.8,206 209.4,204.6 211.1,203.9 227.7,195.5 239.2,189 247.2,183.8 253,179.4 256.6,176.3 259.2,173.8 264.3,167.9 266.7,164.5 269.6,159.9 273.2,153 279.1,139.8 282.2,133.3 286.6,124.8 288.8,119.8 290.4,115.3 291.4,111.9 294.1,100.8 295,97.9 296.6,94.1 298.6,90.3 299.4,88.1 300.6,84.1 301,81.7 302.9,74.1 305.9,65 306.5,62.7 307.2,58.5 307.6,55 309.3,45.5 309.9,38.9 310.8,33 311.4,25.8 312.2,19.9 312.5,15.1 313.1,10.3 313.9,0.2" fill="none" stroke="#000000" stroke-width="1"/><polyline id="SvgjsPolyline2029" points="599.8,159.1 594.4,153.5 590.4,149.8 583.4,144.2 570.7,135.1 568.8,133.6 564.8,130 562.3,127.4 560,124.6 554.4,116.8 550.2,111.7 545.4,107.2 540.7,103.5 538.1,101 535.8,98.2 530.8,90.7 528,87.6 523.5,83.6 522.7,82.7 520.9,80.3 518.8,76.7 515.5,71.7 512.7,68.5 508.8,64.8 506.5,62 504.6,59 502,54.2 500.7,52.2 498.8,49.9 496.3,47.3 494.5,44.9 490.9,38 489.5,36 486.4,32.3 485.2,30.3 483.5,26.4 481.9,23.9 480,21.5 478.8,19.5 477.1,15.6 473.5,10.1 471.9,6.2 469.6,2.7 468.5,0.6" fill="none" stroke="#000000" stroke-width="1"/><polyline id="SvgjsPolyline2030" points="415.5,599.9 412.9,593.2 407.8,579.1 407.5,577.9 402.4,563.2 397.5,547.7 393.1,532.8 389.9,521.2 386.3,507.3 382.7,492.1 380,479.8 376.7,463.3 372.1,436.7 369.5,418.9 367.9,406.4 366.6,395.1 365,378.9 363.5,360.4 362.1,336.4 361.2,311.3 360.7,284.3 360.3,236.9 360.1,185.3 360,0.5" fill="none" stroke="#000000" stroke-width="1"/><polyline id="SvgjsPolyline2031" points="0.4,499.8 35.6,479.2 91.8,446.9 92.9,446.4 101.2,441.6 127.4,427 128,426.8 135.3,422.7 152.2,413.6 167.6,405.5 191.7,393.3 193.4,392.6 194.4,392 212.8,383.2 254.4,364.4 261.9,360.7 267.2,357.8 271.8,355 276.2,351.9 281.7,347.2 286.5,342.7 288.5,341.3 292.1,339.3 294,337.8 297.3,336.3 301.9,333.6 303.6,332.9 306.7,331.2 309.7,328.2 313.5,325.2 316.1,322.8 318.9,319.6 324.7,312 330.1,304 334,297.3 335.4,294.6 339.1,286.4 342.6,276.8 346.3,264.2 348.9,253.7 350.2,247.8 352.3,235.4 353.9,222.3 355.3,206.8 356,196.6 357.1,170.2 357.6,137.2 358.1,115.6 358.6,66.4 359,0.4" fill="none" stroke="#000000" stroke-width="1"/><polyline id="SvgjsPolyline2032" points="0.4,305.9 1.5,305.3 2.4,304.5 2.9,304.3 7.4,301.3 13.7,296.7 17.3,294.5 18.7,293.4 20.8,292.3 23.6,290 30.4,286.3 31.9,285.2 39.2,279 41.7,277.3 48.4,273.4 55.9,269.6 71.1,262.4 82.4,256.8 100.5,247.4 127.4,232.9 147.6,222.3 168.5,211.8 196.5,198 208.2,191.9 220.2,185 226.2,181.1 231.1,177.6 234.4,175 239.8,170.2 245.2,164.6 249,159.9 252.2,155.6 264.5,137.1 268.1,132.3 273,126.2 275.1,123.3 278.2,118.2 279.7,114.9 281.3,110.4 284.8,97.7 289.4,85.3 290.3,81.8 291.7,74.7 292.7,70.6 296.1,61.6 299.3,50.1 299.5,48.9 300.3,46.6 301.6,39 304.1,31.5 305.4,24.5 306.2,21.6 306.8,18 307.1,15 308,10.3 308.3,6.7 308.9,3.2 309.2,0.2" fill="none" stroke="#000000" stroke-width="1"/><polyline id="SvgjsPolyline2033" points="599.7,142.1 596.4,139.6 587,133.1 582.3,129.4 579.6,127 575.5,122.6 571.1,116.9 568.7,113.5 565.3,109.3 561.9,105.9 556.7,101.8 552.6,98.3 549.1,94.2 545.8,89.2 543.6,86.3 541.5,84.2 536.1,79.4 533.9,76.5 532.4,74 530.3,71 522.2,63 520.7,61.1 519.4,59.1 517.9,56.5 517.7,55.9 515.4,52.4 509.3,45.8 507.7,43.3 504.8,38 504.1,37 500.5,33 499.1,31 496.4,25.7 495.4,24.2 493.8,22.4 492,20 490.5,16.7 489.6,15.1 488.7,13.6 486.8,11.3 485.6,9.2 484.4,6.4 483.5,4.9 481.7,2.5 480.6,0.3" fill="none" stroke="#000000" stroke-width="1"/><polyline id="SvgjsPolyline2034" points="402.6,599.6 401,594.5 396.5,578.3 392.6,563.2 388.9,548 383.6,524 378.8,499.3 374.6,474.4 371,449.5 369.2,435.2 367.4,419.1 365.5,399.4 363.6,374.8 362.5,356.3 361.7,338.3 360.9,310.1 360.5,280.7 360.2,232.1 360.1,119.9" fill="none" stroke="#000000" stroke-width="1"/><polyline id="SvgjsPolyline2035" points="0.3,513.9 35.8,492.6 68.4,473.4 70.9,471.8 80.3,466.4 82.8,464.8 127.5,439 156.3,422.9 156.9,422.7 160.5,420.6 161.1,420.4 167.9,416.6 168.5,416.4 182.2,409 199.3,400.2 215.4,392.2 250.1,375.7 259.2,371.1 265,367.9 271.6,363.8 276.4,360.2 280,357 282.1,354.9 286.1,350.4 289.2,347.5 292.7,345.3 294.6,343.7 298.2,341.8 301,339.5 306.2,336.5 309.5,333 312.3,330.7 314.4,328.6 318.8,322.9 326.6,311.5 331.3,303.9 333.7,299.7 335.9,295.4 338.6,289.4 339.7,286.6 343.8,274.7 345.9,267.2 348.5,256.7 350.2,249.1 351.2,243.8 352.4,236.1 353.4,228.3 355,212.2 356,198.4 356.8,182.3 357.2,169.1 358.2,112.1 358.2,101.3 358.7,59.3 359,0.5" fill="none" stroke="#000000" stroke-width="1"/><polyline id="SvgjsPolyline2036" points="0.3,291.8 2.6,289.9 8.9,286.5 11.8,284.3 14.4,281.9 17.7,279.2 21.2,276.8 26.3,273.8 34.3,269.7 49.5,262.4 61.8,256.2 75.1,249.2 80.3,246.3 80.9,246.1 111.4,229.4 112,229.2 125.2,222.1 145.5,211.7 177.7,195.6 193,187.3 201.7,182 207.2,178.3 213.4,173.6 220.2,167.7 223.6,164.3 228.8,158.5 234.8,151 241,142.9 245.7,137.4 247.7,135.2 252.8,130.1 259.3,123.9 262.9,119.9 265.4,116.5 268.3,111.2 270.2,106.8 273.7,97.9 275,95.2 279.3,87.3 281.4,81.6 284,71.2 287,62.7 289,52.7 291.2,45.2 292.5,38.1 294.3,32.4 295.9,25.4 297.8,20.3 300.1,9.8 301,3.8 301.9,0.3" fill="none" stroke="#000000" stroke-width="1"/><polyline id="SvgjsPolyline2037" points="599.8,127.4 595.2,123.5 592.3,120.5 588.8,116.3 582.3,107.7 579.5,104.6 576.4,101.8 570.2,97 566.7,93.8 563.6,90.1 559.1,83.7 557.1,81.5 551.2,76.4 548.5,73.2 545.9,69.1 544.4,67.2 543.2,65.9 539.2,62.3 537.7,60.4 534.3,54.8 532.9,52.8 530.5,50.1 527.8,47.7 526.2,45.9 525.1,44.5 521.8,38.8 520.4,36.8 515.9,32 514.6,30 513.5,27.8 512,25.3 508.4,21.2 507.7,20.2 504.9,14.9 501.5,10.7 498.7,5.4 496.1,2.1 495.3,0.5" fill="none" stroke="#000000" stroke-width="1"/><polyline id="SvgjsPolyline2038" points="390,599.5 387.5,587.2 384.6,571.2 384.4,570.7 379.1,539.3 375.5,515 372.4,491.2 369,460.8 366.6,435.1 364.5,407.6 362.7,377 361.9,359 361.1,333.8 360.4,287.6 360.1,221.6 360,0.2" fill="none" stroke="#000000" stroke-width="1"/><polyline id="SvgjsPolyline2039" points="0.3,527.9 55.6,494.1 64.4,488.9 90.5,473 129.2,450 158.8,432.9 180.8,420.6 181.4,420.4 195.6,412.6 213.1,403.4 250.1,384.7 259.6,379.6 264.8,376.6 271.8,372 277,367.9 280,365 283.6,361 288.1,355.3 289.3,354 290.7,352.8 293.2,351.2 295.5,349.2 298.6,347.4 301.7,344.7 305.7,342.1 308.1,339.4 311.6,336.2 314.3,332.9 325.9,314.7 332.4,303.9 336.5,295.9 340,287.6 342.4,280.8 344,275.6 347.1,264 350.5,248.8 352.8,234.6 354.4,220.3 355.6,205.9 356.6,189.2 357.1,176 358.2,116 358.7,63.8 359,0.2" fill="none" stroke="#000000" stroke-width="1"/><polyline id="SvgjsPolyline2040" points="0.5,277.5 3.5,275.5 9.3,272.3 37.3,258.5 48.4,252.6 49,252.4 63.7,244.3 64.3,244.1 87.9,231 106.9,220.8 124.5,211.7 152.4,197.7 161.9,192.6 162.5,192.4 165.6,190.6 166.2,190.4 176.6,184.4 183.7,179.9 189.1,176.1 194.3,172.1 201.5,165.7 205.3,161.9 211.3,155.2 217,148.2 224.1,140.1 229.2,135 233.7,131 244.3,122.2 249.3,117 251.5,114.1 253.7,110.6 256.3,105.8 258.4,101.5 261.7,95.8 267.4,88.1 269.3,85 271,81.2 273.3,74.3 274.8,70.4 278,64 279.2,60.6 281.4,51.9 283.7,45.6 285.1,38.6 287,32.3 288.4,24.6 289.7,20 290.7,14.1 291.8,10 292.3,6.4 293.4,2.4 293.8,0" fill="none" stroke="#000000" stroke-width="1"/><polyline id="SvgjsPolyline2041" points="599.9,110.9 595.5,105.2 592.7,102.1 589.6,99.3 582.9,94.2 578.9,90.6 576.6,87.8 571.3,80.5 568.8,78 564.1,74.1 562.4,72.5 560.9,70.6 558.3,66.6 556.8,64.7 555.6,63.4 551.1,59.4 549.3,57 548.4,55.4 546.3,52.5 539.5,45.8 538,43.8 534.6,38.2 532.6,35.9 530.9,34.3 528.9,32.1 527.8,30.6 524.8,25.4 520.4,20.5 519.1,18.5 517.1,14.8 513.6,10.7 510.7,5.5 508,2.2 506.8,0.1" fill="none" stroke="#000000" stroke-width="1"/><polyline id="SvgjsPolyline2042" points="377.8,599.6 375.3,578.1 373.2,557.8 369.2,513.6 367.5,491.5 365.8,466.3 364.2,438.8 363.2,418.4 361.6,375.8 360.7,336.2 360.2,281.6 360.1,214.4" fill="none" stroke="#000000" stroke-width="1"/><polyline id="SvgjsPolyline2043" points="0.5,542 83.9,489.8 110.5,473.4 147.9,450.7 169.6,437.9 196.7,422.4 197.3,422.2 203,418.9 203.6,418.7 219.9,409.7 251.1,393 261.5,387 265,384.8 271,380.7 275.7,377 277.9,375 282.8,369.7 286.4,364.9 288.4,361.9 290.7,359.1 294.5,356.2 295.8,354.9 296.3,354.7 298.3,353.3 301.7,350 305.2,347.6 307.5,344.9 309.3,343.3 311.3,341.1 313.1,338.6 323.5,320.4 327.6,313.8 332.7,304.9 336.2,298 338.2,293.6 340.2,288.6 343.3,279.5 346.9,266.2 350.4,250.4 351.9,242.1 353,234.4 354.5,220.6 355.6,207.5 356.6,190.7 357.3,170.9 357.8,136.1 358.2,119.3 358.6,80.9 359,0.5" fill="none" stroke="#000000" stroke-width="1"/><polyline id="SvgjsPolyline2044" points="0.3,263.5 11.6,257.9 25.9,250.3 64.7,228.7 65.3,228.5 68.9,226.4 69.5,226.2 81.6,219.6 106.1,206.9 123.8,198 133.3,192.9 133.9,192.7 137,190.9 137.6,190.7 150,183.5 160.1,176.9 168.2,170.7 174.9,164.7 182,157.4 193.9,143.9 200.7,137.1 207.6,131.3 218.7,123.1 221.5,120.8 224.6,118 227.1,115.4 229,113.1 231.4,109.7 235.2,103.5 238.5,98.5 241.1,95.2 246.5,89.6 250.4,85 252.9,80.9 257,72.2 259.2,68.7 262.1,64.8 263.3,62.8 264.8,59.5 267.3,52.7 271,45.8 272.2,42.5 273.3,38.4 275.9,32.4 276.8,29.5 277.6,26 279.5,20.9 280.1,18.6 280.5,16.2 281.1,13.9 282.1,11.1 283.3,5.2 284.6,0.6" fill="none" stroke="#000000" stroke-width="1"/><polyline id="SvgjsPolyline2045" points="600,92.4 596.2,89.5 593.2,86.5 591.7,84.7 587.5,78.8 585.1,76.1 582.9,74.1 580,71.9 577,69.1 575.4,67.2 573.1,63.7 571.6,61.8 570,60.1 565.5,56.1 564.3,54.7 561.3,50.2 559.3,48 557.9,46.9 556.2,45.2 554.4,42.8 552.9,40.2 550.8,37.3 546,32.7 544.5,30.8 541.4,25.7 539.4,23.4 537.7,21.8 536.1,19.9 532.7,14.3 529.4,10.8 527.8,8.3 527.6,7.7 526.7,6.2 525.6,4.7 523.2,2 522.3,0.5" fill="none" stroke="#000000" stroke-width="1"/><polyline id="SvgjsPolyline2046" points="365.7,599.8 363.9,545.8 362.3,484.6 361.2,428.2 360.5,374.8 360.1,312.4 360,247.6 360,40.6" fill="none" stroke="#000000" stroke-width="1"/><polyline id="SvgjsPolyline2047" points="0.3,556.4 91.7,497.7 93.8,496.5 115,482.9 117.1,481.7 122.6,478.1 147,462.8 184.4,440 223.3,417.4 226,416 234.8,410.9 235.4,410.7 253.6,400.2 258.7,397.1 265.7,392.5 268.2,390.8 273,387.1 276.6,384 280,380.6 282.7,377.4 284.5,375 289.7,366.9 292,364.1 294.4,362.3 295.6,361 299,358.5 301,356.4 303.4,354.5 304.4,353.9 307.2,350.7 309.7,348.2 312.4,344.2 315.7,337.8 318,332.9 321.6,326 332.9,306.2 336.9,298.1 339.9,290.9 343.4,280.7 346.1,270.9 347.9,263.3 350.4,251.5 352,242.7 353.3,233.2 354.1,226 355.3,212.9 356.6,192.5 357.2,176.9 358,131.3" fill="none" stroke="#000000" stroke-width="1"/><polyline id="SvgjsPolyline2048" points="0.3,250.2 27.5,234.9 28.1,234.7 34.3,231.1 34.9,230.9 51.7,221.6 72.4,210.7 97,198.2 106.5,193.1 107.1,192.9 110.2,191.1 110.8,190.9 123.3,183.7 128.8,180.2 137.7,174 142.4,170.3 149.6,163.9 155.9,157.5 169.3,142.9 171.4,140.8 177.2,135.6 182.4,131.5 195.7,122.2 200.8,118 203.8,115.1 207.3,110.9 214.5,100.6 217.1,97.3 220.8,93.4 226.2,88.6 229.9,84.7 232,81.7 234.7,77.1 236.1,74.4 238,71.4 239.9,69 243.5,65 245.3,62.6 247.1,59.5 249.6,54 251.4,51 254.3,47.1 255.8,44.5 258,38.9 258.8,37.3 262.2,31.6 264.4,25.4 266.7,21.2 269.2,13.8 269.8,12.8 270.7,10.6 271.3,8.9 271.7,7.1 273.6,2.1 274.1,0.3" fill="none" stroke="#000000" stroke-width="1"/><polyline id="SvgjsPolyline2049" points="599.7,75.3 598.5,73.9 596.8,72.3 591.6,68.2 590.3,67 588.3,64.7 584.5,59.3 583.3,58 578.3,53.7 576.3,51.4 574.7,48.9 572.9,46.5 568.9,42.9 567.3,41 565,37.5 563.4,35.8 559.4,32.1 557.3,29.2 555.1,25.6 550.9,21.4 549.3,19.5 546.5,14.9 542.4,10.5 541.7,9.6 539.6,5.9 538.5,4.5 536.4,2.4 535.1,0.4" fill="none" stroke="#000000" stroke-width="1"/><polyline id="SvgjsPolyline2050" points="353.7,599.6 355.6,545 357.4,481.5 358.5,432.3 359.4,374.7 359.9,303.9 360,58.5" fill="none" stroke="#000000" stroke-width="1"/><polyline id="SvgjsPolyline2051" points="0.3,570.7 114.5,495.5 156.3,468.4 158.4,467.2 172.5,458.1 195.9,443.5 212.3,433.5 237.1,418.8 250.4,410.7 257.5,406.2 264,401.8 271.2,396.4 274.4,393.7 278.3,390 281.5,386.4 284.4,382.6 291.6,370.8 292.8,369.5 294.7,368 295.9,366.7 298.7,364.4 300.4,362.7 301.4,361.3 304.6,358.6 306.1,356.7 308.3,354.6 310.1,352.2 312.9,346.9 318.5,334.3 321.4,328.4 324.8,322 331.3,310.5 335.7,302 338.4,296 340.6,290.4 343.1,283 345.4,274.9 346.7,269.7 350.6,251.5 352.6,239.7 354.1,227.1 355.4,212.8 356.7,191.8 357.3,175.7 358.4,108.5 358.8,62.9 359.1,0.5" fill="none" stroke="#000000" stroke-width="1"/><polyline id="SvgjsPolyline2052" points="0.2,236.5 13.3,229.1 13.9,228.9 23.3,223.6 32.8,218.5 54.6,207.1 69.1,199.8 83.9,191.9 84.5,191.7 96,185.2 101.1,182.1 106.6,178.5 113.5,173.6 118.2,169.9 124.5,164.3 128.4,160.6 133.8,155 138.2,150.1 144,144 147,141.1 152.4,136.3 158.1,131.9 171.1,123.2 176.4,119.3 178.7,117.3 182.1,114 184.5,111.3 187.1,108 190.9,102.6 193.5,99.3 195.9,96.6 200.3,92.5 206.3,87.5 209.6,84.1 212.8,79.7 215.2,75.6 217.9,71.6 221.1,68 224.1,65.1 225.7,63.3 227.1,61.4 228.7,58.8 230,56.1 231.8,53 233.2,51 236,47.9 237.5,46 239,43.4 241,39 242.5,36.5 244.4,34.1 246.1,31.6 249.3,24.5 251.4,21.6 252.3,20 254,15.5 254.8,13.9 257,10.3 258.6,5.8 260.6,2.1 261.3,0.4" fill="none" stroke="#000000" stroke-width="1"/><polyline id="SvgjsPolyline2053" points="599.7,59.3 597.6,56.4 595.5,54.3 592.2,51.7 590.5,50 589.7,49.1 587,45.1 585.8,43.7 584.1,42.1 582.2,40.6 579.5,37.4 578.6,35.8 577.5,34.4 576.7,33.5 573.6,30.7 572.8,29.7 570.9,26.7 569.4,24.8 566.3,22 564.3,19.8 561.4,15.2 560.2,13.8 556.8,10.5 553.6,5.4 550.3,2 549.3,0.5" fill="none" stroke="#000000" stroke-width="1"/><polyline id="SvgjsPolyline2054" points="341.7,599.8 346.5,545.4 349.8,505.9 353.1,462.2 356.1,414.3 357.5,385.6 358.3,364.6 359.2,329.8 359.7,285.4 359.9,233.8 360,82" fill="none" stroke="#000000" stroke-width="1"/><polyline id="SvgjsPolyline2055" points="0.4,585.1 43.2,556.3 44.6,555.2 58.1,546.2 59.5,545.1 73,536.1 74.4,535 117.7,505.8 120.6,503.7 160,477.3 180,464.1 181.6,463.2 203.2,449.1 244.3,423.2 253.3,417.3 262.7,410.8 266.1,408.3 270.8,404.5 275.7,400.1 279,396.7 281.4,393.9 284.6,389.6 286.2,387.1 290.8,378.7 292.4,376.1 293.6,374.8 295.5,373.2 297.1,371.5 297.6,371.2 298.9,369.9 301.1,367.1 304.2,364.3 305.7,362.4 307.8,360.3 309.8,357.3 311.4,354.1 316.8,340.7 321.7,329.8 326.4,320.7 332.5,309.7 336,302.7 338.9,296.1 342,287.7 344.8,278.5 347.9,265.7 350.1,255.1 352.4,242.1 354.1,228.4 355.4,214 356.5,197.3 357,186.5 357.5,169.7 357.9,137.9 358.3,120.5 358.4,100.7" fill="none" stroke="#000000" stroke-width="1"/><polyline id="SvgjsPolyline2056" points="0.1,222.8 14.9,214.8 45.9,198.9 57.5,192.7 58.1,192.5 61.2,190.7 61.8,190.5 74.8,183 82.8,177.8 88.7,173.6 92.9,170.3 99.8,164.4 107.9,156.4 116.5,147.2 121.6,142.1 126.1,138.1 129.8,135.1 134.2,131.9 140.2,127.9 146.3,124.1 152.2,120 157.3,115.8 159.4,113.7 162.6,110.1 166.7,104.9 167.7,103.4 173.6,96.6 176.7,93.8 181,90.5 185.2,87 188.5,83.7 190.1,81.8 191.8,79.4 194.7,74.8 197.6,71 199.7,68.8 203.3,65.6 206.2,62.6 208.3,59.6 212.6,52.5 214.2,50.6 218.3,46.3 220.3,43.3 221.6,40.6 223.4,37.5 224.5,36 227.3,32.9 228,31.9 230.4,27.1 231.9,24.5 235.2,20.2 237.4,15.3 240.8,10.3 242.7,5.9 245.3,1.9 246,0.2" fill="none" stroke="#000000" stroke-width="1"/><polyline id="SvgjsPolyline2057" points="599.8,42.4 597.8,40.2 595,37.9 593.7,36.6 590.2,31.7 586.3,28.1 585.1,26.7 584.2,25.1 582.7,23.2 580.5,21.2 578.9,19.4 575.9,14.9 574.3,13.2 572,11.2 570.2,8.8 569,6.7 568.3,5.8 567.1,4.4 564.9,2.4 563.5,0.4" fill="none" stroke="#000000" stroke-width="1"/><polyline id="SvgjsPolyline2058" points="329.6,599.9 334.3,559.4 346.6,464.2 351.1,426 354.1,396.2 355.7,377 356.9,359.7 357.7,345.3 358.3,331.5 359,307.5 359.6,257.7 359.9,192.9 360,0.3" fill="none" stroke="#000000" stroke-width="1"/><polyline id="SvgjsPolyline2059" points="0.2,599.8 45.1,568.8 119.8,516.5 124.3,513.5 131.1,508.6 148.4,496.7 150.8,494.9 157.8,490.2 159.2,489.1 193.9,465.4 240.9,434.2 241.3,433.8 250.3,427.8 256.7,423.3 263.4,418.3 272.2,411 276.9,406.4 280.1,402.8 282,400.5 285.1,396 288.1,390.9 290.8,385.5 293.2,381.4 294,380.4 295.4,379.3 297,377.5 298.7,375.9 300.6,373.5 301.2,372.5 303.4,370.5 304.9,368.6 307,366.5 309,363.5 311.4,358 316.6,343.9 320,335.6 323.8,327.4 327.1,321 331.7,312.6 335.5,305.1 338.2,299.1 340.2,294.1 343.5,284.4 346.3,274 348.9,262.3 350.4,254.6 352.8,240.4 354.4,226.7 355.8,210 356.8,192.6 357.5,172.2 358,134.4 358.4,115.8 358.5,93.6 358.7,84 359.1,0" fill="none" stroke="#000000" stroke-width="1"/><polyline id="SvgjsPolyline2060" points="0.3,209.1 25.9,195.9 39.1,188.8 51,181.8 60,175.8 66.7,170.8 72.7,165.8 77.1,161.7 84.3,154.5 93,145.4 96.9,141.7 101,138.1 105.7,134.4 109.2,132 114.2,128.7 124.4,122.4 128.8,119.3 133.9,115.1 138.9,109.9 146.8,100.1 149.7,97.1 153.4,93.9 161.5,87.8 165.5,84.2 167.9,81.5 173.4,73.6 175.4,71.3 177,69.6 182.5,64.9 185.4,61.9 187.5,59 189,56.4 191,53.4 192.5,51.5 196.4,47.8 198.8,45.1 203.1,37.9 204.6,36 207.5,33 209,31 211.8,25.8 212.9,24.3 216,20.7 219.1,14.9 222.1,11.1 223.3,9 225.1,5.2 227.3,2.4 228.4,0.3" fill="none" stroke="#000000" stroke-width="1"/><polyline id="SvgjsPolyline2061" points="600,24.9 597.2,20.9 596,19.6 594.6,18.5 593.3,17.2 591.3,14.2 589.7,12.5 588.3,11.3 587.1,9.9 586.4,9 585.5,7.4 583.7,5 580.6,2.2 579.2,0.2" fill="none" stroke="#000000" stroke-width="1"/><polyline id="SvgjsPolyline2062" points="317.5,599.8 319.9,578.3 323,553.3 326.2,530.1 328.8,512.9 333.8,482.7 345.8,416.6 348.4,401.2 350.7,386.4 353.8,363.2 355.4,348.3 356.7,332.7 357.6,318.3 358.4,299.2 359,272.8 359.5,233.2 359.8,185.2 359.9,0.4" fill="none" stroke="#000000" stroke-width="1"/><polyline id="SvgjsPolyline2063" points="21.3,599.8 40.4,586.3 76.5,560.4 91.1,549.9 94.9,547 109.1,536.9 112.9,534 126.1,524.6 130.9,521 176.7,488.1 180.7,485.4 186,481.5 206.6,467 242.1,442.3 252.8,434.6 262.3,427.3 269.2,421.5 270,420.6 272.7,418.2 276.1,414.8 279.3,411.2 282.6,407 285.6,402.5 288,398.3 291.9,390.2 293.7,387.1 298.6,381.9 300.1,380 301.7,377.5 303,376.3 304.9,373.9 306.6,372.2 308.2,369.7 310.1,365.3 316.8,346 321,335.4 324.5,327.8 333.4,310.8 336,305.4 338.9,298.8 342.2,289.8 343.5,285.8 345.7,277.7 348.4,266 350.8,253.6 353,240 354.5,226.9 356,208.3 356.9,192.1 357.4,178.4 358.5,108.8 359,41.6 359.1,0.2" fill="none" stroke="#000000" stroke-width="1"/><polyline id="SvgjsPolyline2064" points="0.1,195.6 10.2,190.3 19.6,185 27.2,180.3 36.2,174.2 44.2,167.9 50.5,162.3 59,153.9 67.8,144.9 72.2,140.8 75.9,137.7 79.7,134.8 84.7,131.4 89.2,128.5 97.5,123.6 101.5,121 106.8,117.1 110.9,113.5 113,111.4 116.2,107.8 118.8,104.5 122.4,100.4 125.7,97 128.9,94.3 137.7,88 142.3,84.1 145.1,81 149.3,75.2 152.4,71.5 155,69 159.7,65.3 162.8,62.4 164.7,60.1 169,53.6 171.4,50.9 175.9,46.9 177.1,45.6 178.9,43.2 180.7,40.1 182.4,37.6 184,35.8 185.8,34.2 188.2,31.5 189.5,29.5 191.2,26.3 193,24 196.3,20.4 198.9,15.7 199.9,14.2 203.1,10.6 205.6,5.8 208.3,2.6 209.5,0.5" fill="none" stroke="#000000" stroke-width="1"/><polyline id="SvgjsPolyline2065" points="600,6 598.9,4.6 596.7,2.6 594.8,0.2" fill="none" stroke="#000000" stroke-width="1"/><polyline id="SvgjsPolyline2066" points="305.3,599.6 306.2,596.1 307.8,588.5 310.6,571.9 318.5,516.1 321,500.1 324.9,477.6 328.1,461.1 332.1,442.4 344.5,389.2 348.5,370.4 350.4,360.4 353.1,343.8 354.5,333.1 355.6,322.9 357,305 357.8,288.8 358.5,265.4 359.3,223.4 359.7,170.6 359.9,0.2" fill="none" stroke="#000000" stroke-width="1"/><polyline id="SvgjsPolyline2067" points="42,599.9 42.9,599.1 50.7,593.5 51.6,592.7 61.8,585.3 62.7,584.5 87.8,566 88.7,565.2 93.6,561.7 99.3,557.3 111.4,548.4 173.3,502 178.2,498.5 179.1,497.7 197.9,483.8 200.4,482.1 201.3,481.3 236.7,455.5 254.4,442.1 261.4,436.4 268.6,430.1 273.3,425.5 276.6,422 280.8,416.9 284.6,411.5 287.9,405.8 292.8,395.5 294.6,392.4 296.7,390.3 298.7,388 299.9,385.9 300.9,384.5 302.9,382.2 304.3,380.3 306,378.6 307.3,376.6 309.2,372.2 311.2,366.5 315.9,351.6 319.3,342 321.3,337 325.5,327.7 332.1,314.9 336.8,305.2 339.4,299.1 341.5,293.5 344.7,283.2 347.8,270.3 351.5,250.9 352.9,242 354.5,228.3 356,209.7 356.9,193.6 357.5,176.8 358.5,113.2 359.2,0.4" fill="none" stroke="#000000" stroke-width="1"/><polyline id="SvgjsPolyline2068" points="0.3,182 11.3,174.7 19.4,168.5 24.4,164.2 25.2,163.3 30.5,158.4 36,152.9 37.6,151.1 44,144.8 50.3,139.2 55,135.5 62,130.8 78.4,120.9 81.9,118.5 85.2,115.9 89.2,112.3 93.2,107.9 98.3,101.9 102.5,97.7 105.7,94.9 107.2,93.9 108.1,93.1 115.1,88.4 119.8,84.7 123.5,80.8 127.1,76 130.2,72.3 133.7,69 138.5,65.4 140.8,63.4 144,59.9 147.4,55 149.7,52.2 151.4,50.5 152.4,49.8 156,46.6 157.6,44.9 159.4,42.4 161.6,38.9 163.1,37 167.1,33.3 168.7,31.6 170.4,29.1 172.2,26 173.8,24.1 176.7,21.2 178.2,19.3 180.6,15.1 181.7,13.7 184.6,10.6 185.6,9.1 187.6,5.5 190.8,1.8 191.7,0.3" fill="none" stroke="#000000" stroke-width="1"/><polyline id="SvgjsPolyline2069" points="292.8,599.5 294.6,593.7 298.7,582.5 301.3,568.3 305.1,557.6 306.7,551.8 307.8,547.1 309.6,538.3 311.4,528.3 314.7,507.5 319.7,477.9 323.4,458.5 326.4,444.4 330.8,425.7 336.5,403.6 341.2,386.3 344.5,373.5 347.3,361.8 349.7,350.7 351.8,339.5 353.3,330 354.9,317.5 356.4,300.7 357.3,285.2 358,266.6 359,227.6 359.4,199.4 359.6,169.4 359.8,49.4" fill="none" stroke="#000000" stroke-width="1"/><polyline id="SvgjsPolyline2070" points="62.1,599.9 86,581.7 121.6,554.2 132.9,545.3 136.3,542.8 141.9,538.3 169,517.4 174.6,512.9 234.1,467.2 248.7,455.7 260.7,445.7 265.6,441.3 272,435 277.2,429.2 281.3,424 284,420 287.9,413.3 289.8,409.5 292.7,402.9 294.6,399.2 295.3,398.2 296.6,397 299.2,393.7 299.8,392.6 300.2,392.2 301.2,390 302.8,388.2 303.8,386.7 305.1,385.5 307,382.4 309.2,376.8 315.8,355 320.5,341.4 325.2,330.4 333.8,313.2 337.6,305 340.3,298.4 342.7,291.6 345.5,281.8 348.2,270.1 350.2,259.5 353.2,241.1 354.6,228.6 355.8,214.2 356.8,197.5 357.5,179.5 358.5,117.1 358.9,67.3 359.2,0.1" fill="none" stroke="#000000" stroke-width="1"/><polyline id="SvgjsPolyline2071" points="0.1,167.8 5.6,163.1 11.7,157.3 23.1,145.8 29.8,139.8 34.5,136.1 40.5,132 50.2,126.1 57.5,121.9 63.9,117.5 66.3,115.6 70.7,111.6 73.2,109 79.9,101.3 83.8,97.5 87.5,94.5 98.4,87.1 100.8,85.2 103,83.2 105.8,80.1 109.1,75.8 111.9,72.6 116.3,68.6 121.1,65.1 125.2,61.5 127.8,58.2 130.2,54.8 133,51.6 137.2,48.2 140.7,44.9 145.9,37.6 151.6,32.3 153.5,29.9 156.4,25.4 161.5,20.3 164.7,15.2 169.2,10.4 172.3,5.3 174.8,2.7 176.5,0.2" fill="none" stroke="#000000" stroke-width="1"/><polyline id="SvgjsPolyline2072" points="280.1,599.6 284.7,585.9 292.5,560.1 295.1,552.7 297.5,547.2 298.7,543.8 299.3,540.9 299.5,539.1 300.3,536.2 301.5,529.7 305.3,519.6 307.2,513.3 309.2,505.1 310.8,497.5 318.8,455 323.5,433.3 326.2,422.2 329.7,408.9 334.5,392.2 340.6,372.1 346.4,351.3 349.2,339.6 350.9,331.4 353.7,314.2 355.2,301.1 356.2,288.5 356.9,276.5 358.2,243.6 358.9,217.2 359.3,190.8 359.5,160.2 359.8,0.6" fill="none" stroke="#000000" stroke-width="1"/><polyline id="SvgjsPolyline2073" points="81.8,600 124.5,565.9 158.5,538.3 160.9,536.5 162.7,534.9 165.1,533.1 166.9,531.5 187.5,515 189.3,513.4 231.4,479.6 250.8,463.5 263.3,452.3 270.1,445.5 275.3,439.7 278.7,435.5 281.2,432.1 284.5,427.1 288.3,420.3 291.4,413.8 294.5,406.6 295.4,405.1 298.5,401.4 301.1,396.7 302.8,394.3 305.2,391.5 306.1,390 307.5,386.7 308.7,383.3 310.8,376.4 313.8,365.4 316.7,355.6 321.4,342 323.4,337 326.8,329.3 333.2,316.4 337.5,307.2 339.8,301.6 343,292.6 345,285.7 347.8,274 349.6,264.6 353.2,242.6 354.8,228.3 355.9,214.6 357,195.4 357.6,178.6 358.6,111.4 359,56.8 359.2,0.4" fill="none" stroke="#000000" stroke-width="1"/><polyline id="SvgjsPolyline2074" points="0.4,151.5 3.3,148.5 8.5,143.6 12.6,140 17.3,136.3 26.8,130 40.3,122.2 44.4,119.6 47.8,117.2 53.3,112.5 57.9,107.8 59.8,105.5 64.3,100.6 69.6,95.8 73,93.3 81.1,88.1 84,86 87.6,82.8 91.2,78.8 94.2,75 97.4,71.5 99.2,69.9 102.1,67.7 106.5,64.6 108.8,62.6 110.9,60.5 114.1,56.2 116.8,52.9 119.4,50.5 124.6,46.4 125.8,45.1 128.4,41.8 130.8,38.3 132,37 137,32.7 139,30.4 140.9,27.4 142.7,25 146.3,21.7 147.9,20 150.8,15.4 152.4,13.6 155.4,10.7 156.8,8.7 158.3,6.1 159.4,4.7 161.9,2.2 163.3,0.2" fill="none" stroke="#000000" stroke-width="1"/><polyline id="SvgjsPolyline2075" points="266.6,599.8 272,589.1 276.2,579.8 280.1,570.4 287,551.2 290.5,540.3 293.5,531.8 295.5,526.8 297.5,522.4 298.5,519.6 299.6,514.3 300.3,512 301.9,505 306.1,493.8 309,483.4 312,469.9 318.6,437.6 321.4,425.3 324,414.8 327.8,400.9 331.6,388.3 341.2,358.6 345.5,344.2 349.2,329.7 350.7,322.6 352.4,313.2 353.6,304.9 354.5,297.1 356,279.2 356.9,263 358.1,235.4 358.8,210.2 359.2,184.4 359.4,154.4 359.7,64.4 359.7,0.2" fill="none" stroke="#000000" stroke-width="1"/><polyline id="SvgjsPolyline2076" points="101.5,599.6 122.3,582.4 125,580 128.3,577.4 203,514.3 204,513.6 225,495.7 226,495 229.1,492.2 230.1,491.5 240.1,482.9 250.9,473.3 261.4,463.5 267.3,457.5 273.3,450.8 277.8,445.2 282.6,438.3 285.4,433.7 289.3,426.2 292.3,419.7 294.1,415.3 295.7,412 297.7,409.7 299.5,406.7 300.3,405.1 300.7,403.9 301.6,402.4 302.6,400.9 304.6,398.6 306,396 307.5,392.1 309.8,384.6 315.9,362 317.8,355.7 322.1,343.2 326.7,332.2 334.5,315.9 338.2,307.7 340.2,302.7 343,294.8 345.8,285 348.3,273.8 352,252.6 353.3,243.7 354.6,232.3 355.9,216.8 357,197.6 357.7,177.8 358.6,117.2 359.1,45.8 359.2,0.2" fill="none" stroke="#000000" stroke-width="1"/><polyline id="SvgjsPolyline2077" points="0.5,134.7 7.5,130.2 22.1,121.8 29.1,117.1 31.9,114.9 34.6,112.5 38,109.1 44,102.4 49.2,97.4 55,93.1 64.1,87.3 68.8,83.6 72.5,79.7 76.3,75 78.3,72.8 81.9,69.6 88.8,64.8 91.6,62.5 95.2,58.5 97.7,55.1 99.3,53.3 101,51.6 106.7,47.2 109.3,44.8 110.5,43.4 113.6,39 115.2,37.2 120.3,33 122,31.3 126.2,25.4 131.9,20.1 135.6,14.7 139.5,11 140.7,9.6 142.9,6 144.5,4.2 146.3,2.6 148.1,0.2" fill="none" stroke="#000000" stroke-width="1"/><polyline id="SvgjsPolyline2078" points="252.4,599.9 257.6,591.8 265.6,578.4 272.7,565.2 276.1,558.2 281.9,545 286.2,533.8 292.2,516.8 294.9,510.1 296.9,505.8 298,503 302.3,487.4 305.7,478.4 308.3,469.8 311.7,455.8 315.8,436.4 319.1,421.8 322,410.1 324.8,399.7 330.4,381.3 340.3,352.4 344.7,338.7 348.2,325.9 349.7,319.5 351,313 352.5,304.2 353.4,297.6 354.1,291.7 355.2,279.7 356.1,266.5 357.6,239 358.4,216.8 358.9,194.6 359.2,168.8 359.6,79.4 359.7,0.2" fill="none" stroke="#000000" stroke-width="1"/><polyline id="SvgjsPolyline2079" points="120.3,599.7 156,568.5 183.4,544.2 183.9,543.9 234.6,498.8 250.9,483.8 263.2,471.5 271.6,462.1 277.5,454.5 282.2,447.5 286.4,440.3 288.6,436 290.9,431.1 295.9,419.6 298.7,415.7 299.4,414 300.3,412.5 301.2,410.3 302.8,407.7 304,406.4 304.6,405.4 306.1,402.1 308.7,394.1 315.7,367.4 320,353 322.8,345.1 325.9,337.3 338.6,309.4 340.8,303.9 343.7,295.3 346.1,286.7 349,273.2 351.3,259.6 353.4,245.3 354.8,232.8 356.4,211.9 357.1,198.7 357.8,178.3 358.7,113.5 359.3,0.1" fill="none" stroke="#000000" stroke-width="1"/><polyline id="SvgjsPolyline2080" points="0.3,120.6 3.8,118.3 7.2,115.8 11.3,112.3 14.7,108.9 21.6,101.4 25.1,98.1 30.4,94.1 39.5,88.4 43,86 44.9,84.5 48,81.7 54.7,74 56.8,71.9 58.6,70.3 61,68.5 68,63.8 70.7,61.4 72.7,59.2 76.4,54.5 79,51.9 80.8,50.4 85.7,46.9 87.5,45.3 88.7,44 93.1,38.3 94.8,36.6 99.1,33.3 100.4,32.1 102.4,29.8 105.2,25.9 106.4,24.6 109.7,21.9 111.4,20.3 112.2,19.4 114.9,15.4 116.1,14.1 120.1,10.5 123.2,6 124.4,4.7 127.1,2.3 128.5,0.4" fill="none" stroke="#000000" stroke-width="1"/><polyline id="SvgjsPolyline2081" points="237.7,599.7 248,585.6 259.2,569.2 263.1,563.2 268.1,555 273.1,546.1 276.7,539.2 282,527.8 287.2,515 292.7,500.4 297.5,489.4 299.2,484.3 299.4,483.1 300.6,479.7 300.8,478.5 301.1,478 306.4,462.7 308,457.5 311.1,445.3 316.6,420.7 319.4,409 324.6,389.9 329.7,373.9 337.4,352.5 343.7,334.3 347.1,322.8 349.5,312.9 350.7,307 352.2,298.1 354.2,281.5 355.4,267.1 356.7,247.4 357.9,223.4 358.7,195.2 359,175.4 359.4,114.2 359.6,20.6" fill="none" stroke="#000000" stroke-width="1"/><polyline id="SvgjsPolyline2082" points="138.6,599.6 154.1,585.5 192.9,549.7 193.7,548.8 208.3,535.4 209.1,534.5 230.2,514.9 241.9,503.7 253.4,492.3 260.4,484.9 266.4,478.2 269.9,474 275.4,466.9 279.8,460.5 282.9,455.4 285.3,451.2 289.6,442.6 296.3,427.2 298,424.8 298.9,423.2 299.5,421.5 302.1,416.1 303.3,414.7 305,411.6 307,405.9 308.7,400.2 315.5,373.4 318.4,363 321.1,354.4 323.9,346.5 327,338.7 335.9,319 339.2,311.3 343.1,300.6 344.7,295.4 346.8,287.3 348.8,277.9 351.1,264.3 353.6,246.5 355.1,232.7 356.2,218.4 357.1,202.2 357.9,179.4 358.8,109.8 359.2,44.4 359.3,0" fill="none" stroke="#000000" stroke-width="1"/><polyline id="SvgjsPolyline2083" points="0.1,106 5.5,100.4 9.1,97.2 15,93 24.2,87.4 29,83.8 32,80.9 38,74.1 41,71.2 44.9,68.3 50.4,64.7 53.7,62.1 56.6,59.1 59.2,55.8 61.6,53.1 64.8,50.4 70.2,46.6 72,45 78.1,37.6 79.9,36 84.7,32.4 86.7,30.2 88.1,28.2 90.4,25.4 92.1,23.8 95.9,20.8 98.2,18 99.5,16 100.7,14.6 105.2,10.7 106,9.8 108.7,5.8 112.7,2.2 114.1,0.3" fill="none" stroke="#000000" stroke-width="1"/><polyline id="SvgjsPolyline2084" points="222.1,600 234.5,584.6 247.4,568 252.8,560.8 261.5,548.6 266.8,540.6 270.3,535 275.1,526.7 280.6,516 284.1,508.4 293.6,485 296.8,477.9 299.3,471.2 299.7,469.4 300.4,467.8 301,465.4 302.2,462.7 306,451.9 307.6,446.8 309.8,438.7 317.2,407.1 320,396.1 322.9,385.7 326.1,375.4 330.6,362.3 330.9,361.8 332.9,356.1 338.2,342.1 338.5,341.6 343.1,328.6 346,319.4 348.3,310.7 350.3,301.3 351.8,292.4 353,283.5 353.9,275.2 355.2,260.2 356.8,238.1 357.9,214.7 358.6,189.5 359,156.5 359.4,89.9 359.6,0.5" fill="none" stroke="#000000" stroke-width="1"/><polyline id="SvgjsPolyline2085" points="156,600 187.5,569.6 192.6,564.5 194.4,562.9 196.9,560.3 199.1,558.3 224.4,533.5 238.4,519.5 250.5,507 256.6,500.4 266,489.5 271.2,482.9 274.4,478.5 280,470 283.3,464.3 286.9,457.4 290.5,449.8 296.9,434.9 298.3,432.9 301.9,424.7 302.7,423.8 303.9,421.7 305.6,417.3 307.3,412.1 309.4,404.6 316.8,374.9 319.4,365.7 321.9,357.7 325.1,348.6 327.5,342.5 339.2,315.5 341.3,309.9 344.4,300.8 346.9,291.5 348.9,282.1 351,269.7 352,262.6 354.2,245.3 355.5,232.2 357,208.8 357.8,189 358.3,165 358.5,137.4 358.8,120.6 359.3,17.4" fill="none" stroke="#000000" stroke-width="1"/><polyline id="SvgjsPolyline2086" points="0.5,88.8 4,86.6 7.4,84.1 11.3,80.4 16.9,74.1 19.5,71.7 21.4,70.1 28.9,65.2 32.3,62.7 34.5,60.7 37.7,57.1 38.4,56.1 41.7,52.6 44,50.7 49.5,47 51.3,45.5 54.2,42.4 56,40 58,37.8 59.8,36.2 64.7,32.6 67.2,30.1 69.7,26.7 70.9,25.4 72.7,23.8 75.6,21.6 77.8,19.6 80.6,15.7 81.4,14.8 85.6,11.3 86.8,10.1 90.5,5.3 93.7,2.6 95.6,0.3" fill="none" stroke="#000000" stroke-width="1"/><polyline id="SvgjsPolyline2087" points="206.4,599.7 222.6,581.1 238.9,561.9 248.4,550.3 259.8,535.6 267.1,525.3 273.6,515.2 279.5,504.8 283.5,496.7 288.6,485.2 292.7,475.2 295.9,468.1 297.6,463.6 298.9,460.9 299.8,458 300.5,456.4 301.1,454.1 302,452.5 302.9,450.3 305.7,442.4 308.8,432 311.6,421 317.1,397.6 320.8,383.7 323.2,375.6 325.6,368.2 329.6,356.9 339.7,331.2 344.1,318.8 347.7,306.1 350.1,294.9 351.2,288.4 352.3,280.7 353.4,271.1 356.1,241.3 357.2,223.3 357.8,209.5 358.6,178.9 359.1,125.5 359.4,66.7 359.5,0.1" fill="none" stroke="#000000" stroke-width="1"/><polyline id="SvgjsPolyline2088" points="173.4,599.9 196.1,576.8 197.7,575 200.3,572.5 201.9,570.7 207.4,565.2 211.5,560.8 214.1,558.3 224.5,547.5 241.4,529.6 249,521.2 259.3,509.4 263.5,504.3 267.9,498.6 273.5,490.8 276.8,485.8 279.6,481.2 283.1,474.9 286.6,467.9 290.6,459.2 296.7,444.8 297.2,443.7 298.5,441.7 299.5,438.9 300.3,437.3 300.6,436.1 301.7,433.3 302.8,431.9 303.6,430.3 304.7,427.5 307.1,420.1 308.9,413.7 316.5,382.8 319.5,371.8 322.3,362.7 324.6,355.8 327.1,349.1 330,341.8 339.6,319.2 341.7,313.6 344.2,306.2 345.9,300.4 347.9,292.3 349,287 351.6,271 352.9,260.9 355.1,241.2 356.2,227.4 357.1,211.9 358,188.5 358.5,159.7 359.1,90.7 359.4,0.1" fill="none" stroke="#000000" stroke-width="1"/><polyline id="SvgjsPolyline2089" points="0,74.5 2.6,72 6.4,69.1 12,65.6 15.5,63.2 18.6,60.4 22.9,55.4 25.9,52.4 27.8,50.9 31.3,48.6 35.6,45.4 38.1,42.8 41.9,38.2 44.2,36.2 48.6,33.1 50,31.9 52.4,29.3 55.4,25.5 58.2,23.2 61.1,21.1 62.8,19.4 66.1,15.1 68.3,13.1 71.6,10.5 75.7,5.3 79.4,2.2 80.2,1.4 80.9,0.4" fill="none" stroke="#000000" stroke-width="1"/><polyline id="SvgjsPolyline2090" points="190.4,599.7 206.3,582.6 224.5,562.7 242.9,542.1 243.6,541.1 247.2,537.1 247.9,536.1 254.9,527.9 260.9,520.4 269.8,508.3 276,498.7 281.6,488.8 287.6,476.4 294.3,461 297.5,453.2 298.9,450.6 299.4,448.8 300.1,447.2 301.4,443.2 302.4,441.7 303.4,439.5 305.6,433.3 308.2,424.7 310.5,416 314.5,399 318.5,383.3 323.4,366.6 328.6,351.9 337.7,329.7 341.8,319.1 345.5,307.7 347.5,300.1 349.3,291.9 351.3,280.1 352.7,269.4 355.2,245.5 356.1,234.7 357.4,212 358.2,188.6 358.6,165.2 359.2,90.8 359.5,0.2" fill="none" stroke="#000000" stroke-width="1"/><polyline id="SvgjsPolyline2091" points="0.3,58.8 3.8,54.7 6.4,52.3 9.3,50.1 12.4,48.2 15.8,45.7 17.5,44.1 22.2,38.6 23.5,37.4 30.8,32.1 32.5,30.4 35.1,27.1 37.2,24.9 43.4,20.2 47.2,15.5 49.8,13.1 52.7,11 54,9.7 56.9,5.9 61.1,2.4 63.1,0.2" fill="none" stroke="#000000" stroke-width="1"/><polyline id="SvgjsPolyline2092" points="0.1,42 2,39.7 4.6,37.2 7,35.4 10.5,33.1 12.4,31.6 17.5,25.7 18.4,24.9 23.3,21.4 24.7,20.2 26.3,18.5 28.1,16.1 29.8,14.4 34.6,10.7 35.8,9.5 38.9,5.7 39.7,4.9 43.1,2.4 45.1,0.2" fill="none" stroke="#000000" stroke-width="1"/><polyline id="SvgjsPolyline2093" points="0.3,25.5 1.7,24.3 6.6,20.9 7.5,20.1 11.8,15.1 18,10.3 22.3,5.3 25.7,2.8 28.2,0.3" fill="none" stroke="#000000" stroke-width="1"/><polyline id="SvgjsPolyline2094" points="0.1,10.3 1,9.5 2.9,7.1 4.5,5.4 9.3,1.8 10.5,0.4" fill="none" stroke="#000000" stroke-width="1"/></g></svg>