<?xml version="1.0" encoding="utf-8"?>
<!-- Generator: Adobe Illustrator 22.0.0, SVG Export Plug-In . SVG Version: 6.00 Build 0)  -->
<svg version="1.1" id="Layer_1" xmlns="http://www.w3.org/2000/svg" xmlns:xlink="http://www.w3.org/1999/xlink" x="0px" y="0px"
	 width="595.3px" height="841.9px" viewBox="0 0 595.3 841.9" style="enable-background:new 0 0 595.3 841.9;" xml:space="preserve"
	>
<style type="text/css">
	.st0{fill:none;stroke:#ED2224;stroke-linecap:round;stroke-miterlimit:10;stroke-opacity:0.898;}
	.st1{fill:none;stroke:#231F20;stroke-linecap:round;stroke-miterlimit:10;stroke-opacity:0.898;}
</style>
<g>
	<g transform="translate(105,105) rotate(0.9565) translate(-89,-95)">
		<line class="st0" x1="9.4" y1="264.2" x2="185.9" y2="264.2"/>
	</g>
	<g transform="translate(105,105) rotate(0.9565) translate(-89,-95)">
		<line class="st0" x1="9.4" y1="267.2" x2="185.9" y2="267.2"/>
		<line class="st0" x1="9.4" y1="270.2" x2="185.9" y2="270.2"/>
		<line class="st0" x1="9.4" y1="273.2" x2="185.9" y2="273.2"/>
		<line class="st0" x1="9.4" y1="276.2" x2="185.9" y2="276.2"/>
		<line class="st0" x1="9.4" y1="279.2" x2="185.9" y2="279.2"/>
		<line class="st0" x1="9.4" y1="282.2" x2="185.9" y2="282.2"/>
		<line class="st0" x1="9.4" y1="285.2" x2="185.9" y2="285.2"/>
		<line class="st0" x1="9.4" y1="288.2" x2="185.9" y2="288.2"/>
		<line class="st0" x1="9.4" y1="291.2" x2="185.9" y2="291.2"/>
		<line class="st0" x1="9.4" y1="294.2" x2="185.9" y2="294.2"/>
		<line class="st0" x1="9.4" y1="297.2" x2="185.9" y2="297.2"/>
		<line class="st0" x1="9.4" y1="300.2" x2="185.9" y2="300.2"/>
		<line class="st0" x1="9.4" y1="303.2" x2="185.9" y2="303.2"/>
		<line class="st0" x1="9.4" y1="306.2" x2="185.9" y2="306.2"/>
		<line class="st0" x1="9.4" y1="309.2" x2="185.9" y2="309.2"/>
		<line class="st0" x1="9.4" y1="312.2" x2="185.9" y2="312.2"/>
		<line class="st0" x1="9.4" y1="315.2" x2="185.9" y2="315.2"/>
		<line class="st0" x1="9.4" y1="318.2" x2="185.9" y2="318.2"/>
		<line class="st0" x1="9.4" y1="321.2" x2="185.9" y2="321.2"/>
		<line class="st0" x1="9.4" y1="324.2" x2="185.9" y2="324.2"/>
		<line class="st0" x1="9.4" y1="327.2" x2="185.9" y2="327.2"/>
		<line class="st0" x1="9.4" y1="330.2" x2="185.9" y2="330.2"/>
		<line class="st0" x1="9.4" y1="333.2" x2="185.9" y2="333.2"/>
		<line class="st0" x1="9.4" y1="336.2" x2="185.9" y2="336.2"/>
		<line class="st0" x1="9.4" y1="339.2" x2="185.9" y2="339.2"/>
		<line class="st0" x1="9.4" y1="342.2" x2="185.9" y2="342.2"/>
		<line class="st0" x1="9.4" y1="345.2" x2="185.9" y2="345.2"/>
		<line class="st0" x1="9.4" y1="348.2" x2="185.9" y2="348.2"/>
		<line class="st0" x1="9.4" y1="351.2" x2="185.9" y2="351.2"/>
		<line class="st0" x1="9.4" y1="354.2" x2="185.9" y2="354.2"/>
		<line class="st0" x1="9.4" y1="357.2" x2="185.9" y2="357.2"/>
		<line class="st0" x1="9.4" y1="360.2" x2="185.9" y2="360.2"/>
		<line class="st0" x1="9.4" y1="363.2" x2="185.9" y2="363.2"/>
		<line class="st0" x1="9.4" y1="366.2" x2="185.9" y2="366.2"/>
		<line class="st0" x1="9.4" y1="369.2" x2="185.9" y2="369.2"/>
		<line class="st0" x1="9.4" y1="372.2" x2="185.9" y2="372.2"/>
		<line class="st0" x1="9.4" y1="375.2" x2="185.9" y2="375.2"/>
		<line class="st0" x1="9.4" y1="378.2" x2="185.9" y2="378.2"/>
		<line class="st0" x1="9.4" y1="381.2" x2="185.9" y2="381.2"/>
		<line class="st0" x1="9.4" y1="384.2" x2="185.9" y2="384.2"/>
		<line class="st0" x1="9.4" y1="387.2" x2="185.9" y2="387.2"/>
		<line class="st0" x1="9.4" y1="390.2" x2="185.9" y2="390.2"/>
		<line class="st0" x1="9.4" y1="393.2" x2="185.9" y2="393.2"/>
		<line class="st0" x1="9.4" y1="396.2" x2="185.9" y2="396.2"/>
		<line class="st0" x1="9.4" y1="399.2" x2="185.9" y2="399.2"/>
		<line class="st0" x1="9.4" y1="402.2" x2="185.9" y2="402.2"/>
		<line class="st0" x1="9.4" y1="405.2" x2="185.9" y2="405.2"/>
		<line class="st0" x1="9.4" y1="408.2" x2="185.9" y2="408.2"/>
	</g>
</g>
<g>
	<g transform="translate(105,105) rotate(2.5555) translate(-86,-74)">
		<line class="st0" x1="202.4" y1="26" x2="373.7" y2="26"/>
	</g>
	<g transform="translate(105,105) rotate(2.5555) translate(-86,-74)">
		<line class="st0" x1="202.4" y1="29" x2="373.7" y2="29"/>
		<line class="st0" x1="202.4" y1="32" x2="373.7" y2="32"/>
		<line class="st0" x1="202.4" y1="35" x2="373.7" y2="35"/>
		<line class="st0" x1="202.4" y1="38" x2="373.7" y2="38"/>
		<line class="st0" x1="202.4" y1="41" x2="373.7" y2="41"/>
		<line class="st0" x1="202.4" y1="44" x2="373.7" y2="44"/>
		<line class="st0" x1="202.4" y1="47" x2="373.7" y2="47"/>
		<line class="st0" x1="202.4" y1="50" x2="373.7" y2="50"/>
		<line class="st0" x1="202.4" y1="53" x2="373.7" y2="53"/>
		<line class="st0" x1="202.4" y1="56" x2="373.7" y2="56"/>
		<line class="st0" x1="202.4" y1="59" x2="373.7" y2="59"/>
		<line class="st0" x1="202.4" y1="62" x2="373.7" y2="62"/>
		<line class="st0" x1="202.4" y1="65" x2="373.7" y2="65"/>
		<line class="st0" x1="202.4" y1="68" x2="373.7" y2="68"/>
		<line class="st0" x1="202.4" y1="71" x2="373.7" y2="71"/>
		<line class="st0" x1="202.4" y1="74" x2="373.7" y2="74"/>
		<line class="st0" x1="202.4" y1="77" x2="373.7" y2="77"/>
		<line class="st0" x1="202.4" y1="80" x2="373.7" y2="80"/>
		<line class="st0" x1="202.4" y1="83" x2="373.7" y2="83"/>
		<line class="st0" x1="202.4" y1="86" x2="373.7" y2="86"/>
		<line class="st0" x1="202.4" y1="89" x2="373.7" y2="89"/>
		<line class="st0" x1="202.4" y1="92" x2="373.7" y2="92"/>
		<line class="st0" x1="202.4" y1="95" x2="373.7" y2="95"/>
		<line class="st0" x1="202.4" y1="98" x2="373.7" y2="98"/>
		<line class="st0" x1="202.4" y1="101" x2="373.7" y2="101"/>
		<line class="st0" x1="202.4" y1="104" x2="373.7" y2="104"/>
		<line class="st0" x1="202.4" y1="107" x2="373.7" y2="107"/>
		<line class="st0" x1="202.4" y1="110" x2="373.7" y2="110"/>
		<line class="st0" x1="202.4" y1="113" x2="373.7" y2="113"/>
		<line class="st0" x1="202.4" y1="116" x2="373.7" y2="116"/>
		<line class="st0" x1="202.4" y1="119" x2="373.7" y2="119"/>
		<line class="st0" x1="202.4" y1="122" x2="373.7" y2="122"/>
		<line class="st0" x1="202.4" y1="125" x2="373.7" y2="125"/>
		<line class="st0" x1="202.4" y1="128" x2="373.7" y2="128"/>
		<line class="st0" x1="202.4" y1="131" x2="373.7" y2="131"/>
		<line class="st0" x1="202.4" y1="134" x2="373.7" y2="134"/>
		<line class="st0" x1="202.4" y1="137" x2="373.7" y2="137"/>
		<line class="st0" x1="202.4" y1="140" x2="373.7" y2="140"/>
		<line class="st0" x1="202.4" y1="143" x2="373.7" y2="143"/>
		<line class="st0" x1="202.4" y1="146" x2="373.7" y2="146"/>
		<line class="st0" x1="202.4" y1="149" x2="373.7" y2="149"/>
		<line class="st0" x1="202.4" y1="152" x2="373.7" y2="152"/>
		<line class="st0" x1="202.4" y1="155" x2="373.7" y2="155"/>
		<line class="st0" x1="202.4" y1="158" x2="373.7" y2="158"/>
		<line class="st0" x1="202.4" y1="161" x2="373.7" y2="161"/>
		<line class="st0" x1="202.4" y1="164" x2="373.7" y2="164"/>
		<line class="st0" x1="202.4" y1="167" x2="373.7" y2="167"/>
		<line class="st0" x1="202.4" y1="170" x2="373.7" y2="170"/>
		<line class="st0" x1="202.4" y1="173" x2="373.7" y2="173"/>
		<line class="st0" x1="202.4" y1="176" x2="373.7" y2="176"/>
		<line class="st0" x1="202.4" y1="179" x2="373.7" y2="179"/>
		<line class="st0" x1="202.4" y1="182" x2="373.7" y2="182"/>
		<line class="st0" x1="202.4" y1="185" x2="373.7" y2="185"/>
		<line class="st0" x1="202.4" y1="188" x2="373.7" y2="188"/>
		<line class="st0" x1="202.4" y1="191" x2="373.7" y2="191"/>
		<line class="st0" x1="202.4" y1="194" x2="373.7" y2="194"/>
		<line class="st0" x1="202.4" y1="197" x2="373.7" y2="197"/>
		<line class="st0" x1="202.4" y1="200" x2="373.7" y2="200"/>
		<line class="st0" x1="202.4" y1="203" x2="373.7" y2="203"/>
		<line class="st0" x1="202.4" y1="206" x2="373.7" y2="206"/>
		<line class="st0" x1="202.4" y1="209" x2="373.7" y2="209"/>
		<line class="st0" x1="202.4" y1="212" x2="373.7" y2="212"/>
	</g>
</g>
<g>
	<g transform="translate(105,105) rotate(2.3749) translate(-85,-85)">
		<line class="st0" x1="409.5" y1="437.4" x2="579.1" y2="437.4"/>
	</g>
	<g transform="translate(105,105) rotate(2.3749) translate(-85,-85)">
		<line class="st0" x1="409.5" y1="440.4" x2="579.1" y2="440.4"/>
		<line class="st0" x1="409.5" y1="443.4" x2="579.1" y2="443.4"/>
		<line class="st0" x1="409.5" y1="446.4" x2="579.1" y2="446.4"/>
		<line class="st0" x1="409.5" y1="449.4" x2="579.1" y2="449.4"/>
		<line class="st0" x1="409.5" y1="452.4" x2="579.1" y2="452.4"/>
		<line class="st0" x1="409.5" y1="455.4" x2="579.1" y2="455.4"/>
		<line class="st0" x1="409.5" y1="458.4" x2="579.1" y2="458.4"/>
		<line class="st0" x1="409.5" y1="461.4" x2="579.1" y2="461.4"/>
		<line class="st0" x1="409.5" y1="464.4" x2="579.1" y2="464.4"/>
		<line class="st0" x1="409.5" y1="467.4" x2="579.1" y2="467.4"/>
		<line class="st0" x1="409.5" y1="470.4" x2="579.1" y2="470.4"/>
		<line class="st0" x1="409.5" y1="473.4" x2="579.1" y2="473.4"/>
		<line class="st0" x1="409.5" y1="476.4" x2="579.1" y2="476.4"/>
		<line class="st0" x1="409.5" y1="479.4" x2="579.1" y2="479.4"/>
		<line class="st0" x1="409.5" y1="482.4" x2="579.1" y2="482.4"/>
		<line class="st0" x1="409.5" y1="485.4" x2="579.1" y2="485.4"/>
		<line class="st0" x1="409.5" y1="488.4" x2="579.1" y2="488.4"/>
		<line class="st0" x1="409.5" y1="491.4" x2="579.1" y2="491.4"/>
		<line class="st0" x1="409.5" y1="494.4" x2="579.1" y2="494.4"/>
		<line class="st0" x1="409.5" y1="497.4" x2="579.1" y2="497.4"/>
		<line class="st0" x1="409.5" y1="500.4" x2="579.1" y2="500.4"/>
		<line class="st0" x1="409.5" y1="503.4" x2="579.1" y2="503.4"/>
		<line class="st0" x1="409.5" y1="506.4" x2="579.1" y2="506.4"/>
		<line class="st0" x1="409.5" y1="509.4" x2="579.1" y2="509.4"/>
		<line class="st0" x1="409.5" y1="512.4" x2="579.1" y2="512.4"/>
		<line class="st0" x1="409.5" y1="515.4" x2="579.1" y2="515.4"/>
		<line class="st0" x1="409.5" y1="518.4" x2="579.1" y2="518.4"/>
		<line class="st0" x1="409.5" y1="521.4" x2="579.1" y2="521.4"/>
		<line class="st0" x1="409.5" y1="524.4" x2="579.1" y2="524.4"/>
		<line class="st0" x1="409.5" y1="527.4" x2="579.1" y2="527.4"/>
		<line class="st0" x1="409.5" y1="530.4" x2="579.1" y2="530.4"/>
		<line class="st0" x1="409.5" y1="533.4" x2="579.1" y2="533.4"/>
		<line class="st0" x1="409.5" y1="536.4" x2="579.1" y2="536.4"/>
		<line class="st0" x1="409.5" y1="539.4" x2="579.1" y2="539.4"/>
		<line class="st0" x1="409.5" y1="542.4" x2="579.1" y2="542.4"/>
		<line class="st0" x1="409.5" y1="545.4" x2="579.1" y2="545.4"/>
		<line class="st0" x1="409.5" y1="548.4" x2="579.1" y2="548.4"/>
		<line class="st0" x1="409.5" y1="551.4" x2="579.1" y2="551.4"/>
		<line class="st0" x1="409.5" y1="554.4" x2="579.1" y2="554.4"/>
		<line class="st0" x1="409.5" y1="557.4" x2="579.1" y2="557.4"/>
		<line class="st0" x1="409.5" y1="560.4" x2="579.1" y2="560.4"/>
		<line class="st0" x1="409.5" y1="563.4" x2="579.1" y2="563.4"/>
	</g>
</g>
<g>
	<g transform="translate(105,105) rotate(2.6582) translate(-85,-88)">
		<line class="st0" x1="12.7" y1="58.7" x2="181.8" y2="58.7"/>
	</g>
	<g transform="translate(105,105) rotate(2.6582) translate(-85,-88)">
		<line class="st0" x1="12.7" y1="61.7" x2="181.8" y2="61.7"/>
		<line class="st0" x1="12.7" y1="64.7" x2="181.8" y2="64.7"/>
		<line class="st0" x1="12.7" y1="67.7" x2="181.8" y2="67.7"/>
		<line class="st0" x1="12.7" y1="70.7" x2="181.8" y2="70.7"/>
		<line class="st0" x1="12.7" y1="73.7" x2="181.8" y2="73.7"/>
		<line class="st0" x1="12.7" y1="76.7" x2="181.8" y2="76.7"/>
		<line class="st0" x1="12.7" y1="79.7" x2="181.8" y2="79.7"/>
		<line class="st0" x1="12.7" y1="82.7" x2="181.8" y2="82.7"/>
		<line class="st0" x1="12.7" y1="85.7" x2="181.8" y2="85.7"/>
		<line class="st0" x1="12.7" y1="88.7" x2="181.8" y2="88.7"/>
		<line class="st0" x1="12.7" y1="91.7" x2="181.8" y2="91.7"/>
		<line class="st0" x1="12.7" y1="94.7" x2="181.8" y2="94.7"/>
		<line class="st0" x1="12.7" y1="97.7" x2="181.8" y2="97.7"/>
		<line class="st0" x1="12.7" y1="100.7" x2="181.8" y2="100.7"/>
		<line class="st0" x1="12.7" y1="103.7" x2="181.8" y2="103.7"/>
		<line class="st0" x1="12.7" y1="106.7" x2="181.8" y2="106.7"/>
		<line class="st0" x1="12.7" y1="109.7" x2="181.8" y2="109.7"/>
		<line class="st0" x1="12.7" y1="112.7" x2="181.8" y2="112.7"/>
		<line class="st0" x1="12.7" y1="115.7" x2="181.8" y2="115.7"/>
		<line class="st0" x1="12.7" y1="118.7" x2="181.8" y2="118.7"/>
		<line class="st0" x1="12.7" y1="121.7" x2="181.8" y2="121.7"/>
		<line class="st0" x1="12.7" y1="124.7" x2="181.8" y2="124.7"/>
		<line class="st0" x1="12.7" y1="127.7" x2="181.8" y2="127.7"/>
		<line class="st0" x1="12.7" y1="130.7" x2="181.8" y2="130.7"/>
		<line class="st0" x1="12.7" y1="133.7" x2="181.8" y2="133.7"/>
		<line class="st0" x1="12.7" y1="136.7" x2="181.8" y2="136.7"/>
		<line class="st0" x1="12.7" y1="139.7" x2="181.8" y2="139.7"/>
		<line class="st0" x1="12.7" y1="142.7" x2="181.8" y2="142.7"/>
		<line class="st0" x1="12.7" y1="145.7" x2="181.8" y2="145.7"/>
		<line class="st0" x1="12.7" y1="148.7" x2="181.8" y2="148.7"/>
		<line class="st0" x1="12.7" y1="151.7" x2="181.8" y2="151.7"/>
		<line class="st0" x1="12.7" y1="154.7" x2="181.8" y2="154.7"/>
		<line class="st0" x1="12.7" y1="157.7" x2="181.8" y2="157.7"/>
		<line class="st0" x1="12.7" y1="160.7" x2="181.8" y2="160.7"/>
		<line class="st0" x1="12.7" y1="163.7" x2="181.8" y2="163.7"/>
		<line class="st0" x1="12.7" y1="166.7" x2="181.8" y2="166.7"/>
		<line class="st0" x1="12.7" y1="169.7" x2="181.8" y2="169.7"/>
		<line class="st0" x1="12.7" y1="172.7" x2="181.8" y2="172.7"/>
		<line class="st0" x1="12.7" y1="175.7" x2="181.8" y2="175.7"/>
		<line class="st0" x1="12.7" y1="178.7" x2="181.8" y2="178.7"/>
		<line class="st0" x1="12.7" y1="181.7" x2="181.8" y2="181.7"/>
		<line class="st0" x1="12.7" y1="184.7" x2="181.8" y2="184.7"/>
		<line class="st0" x1="12.7" y1="187.7" x2="181.8" y2="187.7"/>
		<line class="st0" x1="12.7" y1="190.7" x2="181.8" y2="190.7"/>
		<line class="st0" x1="12.7" y1="193.7" x2="181.8" y2="193.7"/>
		<line class="st0" x1="12.7" y1="196.7" x2="181.8" y2="196.7"/>
		<line class="st0" x1="12.7" y1="199.7" x2="181.8" y2="199.7"/>
		<line class="st0" x1="12.7" y1="202.7" x2="181.8" y2="202.7"/>
		<line class="st0" x1="12.7" y1="205.7" x2="181.8" y2="205.7"/>
		<line class="st0" x1="12.7" y1="208.7" x2="181.8" y2="208.7"/>
		<line class="st0" x1="12.7" y1="211.7" x2="181.8" y2="211.7"/>
		<line class="st0" x1="12.7" y1="214.7" x2="181.8" y2="214.7"/>
		<line class="st0" x1="12.7" y1="217.7" x2="181.8" y2="217.7"/>
		<line class="st0" x1="12.7" y1="220.7" x2="181.8" y2="220.7"/>
		<line class="st0" x1="12.7" y1="223.7" x2="181.8" y2="223.7"/>
		<line class="st0" x1="12.7" y1="226.7" x2="181.8" y2="226.7"/>
		<line class="st0" x1="12.7" y1="229.7" x2="181.8" y2="229.7"/>
		<line class="st0" x1="12.7" y1="232.7" x2="181.8" y2="232.7"/>
		<line class="st0" x1="12.7" y1="235.7" x2="181.8" y2="235.7"/>
	</g>
</g>
<g>
	<g transform="translate(105,105) rotate(1.151) translate(-102,-76)">
		<line class="st0" x1="408" y1="242.9" x2="610.3" y2="242.9"/>
	</g>
	<g transform="translate(105,105) rotate(1.151) translate(-102,-76)">
		<line class="st0" x1="408" y1="245.9" x2="610.3" y2="245.9"/>
		<line class="st0" x1="408" y1="248.9" x2="610.3" y2="248.9"/>
		<line class="st0" x1="408" y1="251.9" x2="610.3" y2="251.9"/>
		<line class="st0" x1="408" y1="254.9" x2="610.3" y2="254.9"/>
		<line class="st0" x1="408" y1="257.9" x2="610.3" y2="257.9"/>
		<line class="st0" x1="408" y1="260.9" x2="610.3" y2="260.9"/>
		<line class="st0" x1="408" y1="263.9" x2="610.3" y2="263.9"/>
		<line class="st0" x1="408" y1="266.9" x2="610.3" y2="266.9"/>
		<line class="st0" x1="408" y1="269.9" x2="610.3" y2="269.9"/>
		<line class="st0" x1="408" y1="272.9" x2="610.3" y2="272.9"/>
		<line class="st0" x1="408" y1="275.9" x2="610.3" y2="275.9"/>
		<line class="st0" x1="408" y1="278.9" x2="610.3" y2="278.9"/>
		<line class="st0" x1="408" y1="281.9" x2="610.3" y2="281.9"/>
		<line class="st0" x1="408" y1="284.9" x2="610.3" y2="284.9"/>
		<line class="st0" x1="408" y1="287.9" x2="610.3" y2="287.9"/>
		<line class="st0" x1="408" y1="290.9" x2="610.3" y2="290.9"/>
		<line class="st0" x1="408" y1="293.9" x2="610.3" y2="293.9"/>
		<line class="st0" x1="408" y1="296.9" x2="610.3" y2="296.9"/>
		<line class="st0" x1="408" y1="299.9" x2="610.3" y2="299.9"/>
		<line class="st0" x1="408" y1="302.9" x2="610.3" y2="302.9"/>
		<line class="st0" x1="408" y1="305.9" x2="610.3" y2="305.9"/>
		<line class="st0" x1="408" y1="308.9" x2="610.3" y2="308.9"/>
		<line class="st0" x1="408" y1="311.9" x2="610.3" y2="311.9"/>
		<line class="st0" x1="408" y1="314.9" x2="610.3" y2="314.9"/>
		<line class="st0" x1="408" y1="317.9" x2="610.3" y2="317.9"/>
		<line class="st0" x1="408" y1="320.9" x2="610.3" y2="320.9"/>
		<line class="st0" x1="408" y1="323.9" x2="610.3" y2="323.9"/>
		<line class="st0" x1="408" y1="326.9" x2="610.3" y2="326.9"/>
		<line class="st0" x1="408" y1="329.9" x2="610.3" y2="329.9"/>
		<line class="st0" x1="408" y1="332.9" x2="610.3" y2="332.9"/>
		<line class="st0" x1="408" y1="335.9" x2="610.3" y2="335.9"/>
		<line class="st0" x1="408" y1="338.9" x2="610.3" y2="338.9"/>
		<line class="st0" x1="408" y1="341.9" x2="610.3" y2="341.9"/>
		<line class="st0" x1="408" y1="344.9" x2="610.3" y2="344.9"/>
		<line class="st0" x1="408" y1="347.9" x2="610.3" y2="347.9"/>
		<line class="st0" x1="408" y1="350.9" x2="610.3" y2="350.9"/>
		<line class="st0" x1="408" y1="353.9" x2="610.3" y2="353.9"/>
		<line class="st0" x1="408" y1="356.9" x2="610.3" y2="356.9"/>
		<line class="st0" x1="408" y1="359.9" x2="610.3" y2="359.9"/>
		<line class="st0" x1="408" y1="362.9" x2="610.3" y2="362.9"/>
		<line class="st0" x1="408" y1="365.9" x2="610.3" y2="365.9"/>
		<line class="st0" x1="408" y1="368.9" x2="610.3" y2="368.9"/>
		<line class="st0" x1="408" y1="371.9" x2="610.3" y2="371.9"/>
		<line class="st0" x1="408" y1="374.9" x2="610.3" y2="374.9"/>
		<line class="st0" x1="408" y1="377.9" x2="610.3" y2="377.9"/>
		<line class="st0" x1="408" y1="380.9" x2="610.3" y2="380.9"/>
		<line class="st0" x1="408" y1="383.9" x2="610.3" y2="383.9"/>
		<line class="st0" x1="408" y1="386.9" x2="610.3" y2="386.9"/>
		<line class="st0" x1="408" y1="389.9" x2="610.3" y2="389.9"/>
		<line class="st0" x1="408" y1="392.9" x2="610.3" y2="392.9"/>
		<line class="st0" x1="408" y1="395.9" x2="610.3" y2="395.9"/>
		<line class="st0" x1="408" y1="398.9" x2="610.3" y2="398.9"/>
		<line class="st0" x1="408" y1="401.9" x2="610.3" y2="401.9"/>
		<line class="st0" x1="408" y1="404.9" x2="610.3" y2="404.9"/>
		<line class="st0" x1="408" y1="407.9" x2="610.3" y2="407.9"/>
		<line class="st0" x1="408" y1="410.9" x2="610.3" y2="410.9"/>
		<line class="st0" x1="408" y1="413.9" x2="610.3" y2="413.9"/>
		<line class="st0" x1="408" y1="416.9" x2="610.3" y2="416.9"/>
		<line class="st0" x1="408" y1="419.9" x2="610.3" y2="419.9"/>
	</g>
</g>
<g>
	<g transform="translate(105,105) rotate(-1.257) translate(-100,-69)">
		<line class="st0" x1="198.2" y1="450.5" x2="397.3" y2="450.5"/>
	</g>
	<g transform="translate(105,105) rotate(-1.257) translate(-100,-69)">
		<line class="st0" x1="198.2" y1="453.5" x2="397.3" y2="453.5"/>
		<line class="st0" x1="198.2" y1="456.5" x2="397.3" y2="456.5"/>
		<line class="st0" x1="198.2" y1="459.5" x2="397.3" y2="459.5"/>
		<line class="st0" x1="198.2" y1="462.5" x2="397.3" y2="462.5"/>
		<line class="st0" x1="198.2" y1="465.5" x2="397.3" y2="465.5"/>
		<line class="st0" x1="198.2" y1="468.5" x2="397.3" y2="468.5"/>
		<line class="st0" x1="198.2" y1="471.5" x2="397.3" y2="471.5"/>
		<line class="st0" x1="198.2" y1="474.5" x2="397.3" y2="474.5"/>
		<line class="st0" x1="198.2" y1="477.5" x2="397.3" y2="477.5"/>
		<line class="st0" x1="198.2" y1="480.5" x2="397.3" y2="480.5"/>
		<line class="st0" x1="198.2" y1="483.5" x2="397.3" y2="483.5"/>
		<line class="st0" x1="198.2" y1="486.5" x2="397.3" y2="486.5"/>
		<line class="st0" x1="198.2" y1="489.5" x2="397.3" y2="489.5"/>
		<line class="st0" x1="198.2" y1="492.5" x2="397.3" y2="492.5"/>
		<line class="st0" x1="198.2" y1="495.5" x2="397.3" y2="495.5"/>
		<line class="st0" x1="198.2" y1="498.5" x2="397.3" y2="498.5"/>
		<line class="st0" x1="198.2" y1="501.5" x2="397.3" y2="501.5"/>
		<line class="st0" x1="198.2" y1="504.5" x2="397.3" y2="504.5"/>
		<line class="st0" x1="198.2" y1="507.5" x2="397.3" y2="507.5"/>
		<line class="st0" x1="198.2" y1="510.5" x2="397.3" y2="510.5"/>
		<line class="st0" x1="198.2" y1="513.5" x2="397.3" y2="513.5"/>
		<line class="st0" x1="198.2" y1="516.5" x2="397.3" y2="516.5"/>
		<line class="st0" x1="198.2" y1="519.5" x2="397.3" y2="519.5"/>
		<line class="st0" x1="198.2" y1="522.5" x2="397.3" y2="522.5"/>
		<line class="st0" x1="198.2" y1="525.5" x2="397.3" y2="525.5"/>
		<line class="st0" x1="198.2" y1="528.5" x2="397.3" y2="528.5"/>
		<line class="st0" x1="198.2" y1="531.5" x2="397.3" y2="531.5"/>
		<line class="st0" x1="198.2" y1="534.5" x2="397.3" y2="534.5"/>
		<line class="st0" x1="198.2" y1="537.5" x2="397.3" y2="537.5"/>
		<line class="st0" x1="198.2" y1="540.5" x2="397.3" y2="540.5"/>
		<line class="st0" x1="198.2" y1="543.5" x2="397.3" y2="543.5"/>
		<line class="st0" x1="198.2" y1="546.5" x2="397.3" y2="546.5"/>
		<line class="st0" x1="198.2" y1="549.5" x2="397.3" y2="549.5"/>
		<line class="st0" x1="198.2" y1="552.5" x2="397.3" y2="552.5"/>
		<line class="st0" x1="198.2" y1="555.5" x2="397.3" y2="555.5"/>
		<line class="st0" x1="198.2" y1="558.5" x2="397.3" y2="558.5"/>
		<line class="st0" x1="198.2" y1="561.5" x2="397.3" y2="561.5"/>
		<line class="st0" x1="198.2" y1="564.5" x2="397.3" y2="564.5"/>
		<line class="st0" x1="198.2" y1="567.5" x2="397.3" y2="567.5"/>
		<line class="st0" x1="198.2" y1="570.5" x2="397.3" y2="570.5"/>
		<line class="st0" x1="198.2" y1="573.5" x2="397.3" y2="573.5"/>
		<line class="st0" x1="198.2" y1="576.5" x2="397.3" y2="576.5"/>
		<line class="st0" x1="198.2" y1="579.5" x2="397.3" y2="579.5"/>
		<line class="st0" x1="198.2" y1="582.5" x2="397.3" y2="582.5"/>
		<line class="st0" x1="198.2" y1="585.5" x2="397.3" y2="585.5"/>
		<line class="st0" x1="198.2" y1="588.5" x2="397.3" y2="588.5"/>
		<line class="st0" x1="198.2" y1="591.5" x2="397.3" y2="591.5"/>
		<line class="st0" x1="198.2" y1="594.5" x2="397.3" y2="594.5"/>
		<line class="st0" x1="198.2" y1="597.5" x2="397.3" y2="597.5"/>
		<line class="st0" x1="198.2" y1="600.5" x2="397.3" y2="600.5"/>
		<line class="st0" x1="198.2" y1="603.5" x2="397.3" y2="603.5"/>
		<line class="st0" x1="198.2" y1="606.5" x2="397.3" y2="606.5"/>
		<line class="st0" x1="198.2" y1="609.5" x2="397.3" y2="609.5"/>
		<line class="st0" x1="198.2" y1="612.5" x2="397.3" y2="612.5"/>
		<line class="st0" x1="198.2" y1="615.5" x2="397.3" y2="615.5"/>
		<line class="st0" x1="198.2" y1="618.5" x2="397.3" y2="618.5"/>
		<line class="st0" x1="198.2" y1="621.5" x2="397.3" y2="621.5"/>
		<line class="st0" x1="198.2" y1="624.5" x2="397.3" y2="624.5"/>
		<line class="st0" x1="198.2" y1="627.5" x2="397.3" y2="627.5"/>
	</g>
</g>
<g>
	<line class="st1" x1="10" y1="10" x2="0" y2="0"/>
</g>
</svg>
