<?xml version="1.0" encoding="utf-8"?>
<!-- Generator: Adobe Illustrator 22.0.0, SVG Export Plug-In . SVG Version: 6.00 Build 0)  -->
<svg version="1.1" id="Layer_1" xmlns="http://www.w3.org/2000/svg" xmlns:xlink="http://www.w3.org/1999/xlink" x="0px" y="0px"
	 width="595.3px" height="841.9px" viewBox="0 0 595.3 841.9" style="enable-background:new 0 0 595.3 841.9;" xml:space="preserve"
	>
<style type="text/css">
	.st0{fill:none;stroke:#3A53A4;stroke-linecap:round;stroke-miterlimit:10;stroke-opacity:0.898;}
	.st1{fill:none;stroke:#231F20;stroke-linecap:round;stroke-miterlimit:10;stroke-opacity:0.898;}
</style>
<g>
	<g transform="translate(105,105) rotate(-0.5693) translate(-104,-80)">
		<line class="st0" x1="2.4" y1="261.4" x2="209.8" y2="261.4"/>
	</g>
	<g transform="translate(105,105) rotate(-0.5693) translate(-104,-80)">
		<line class="st0" x1="2.4" y1="264.4" x2="209.8" y2="264.4"/>
		<line class="st0" x1="2.4" y1="267.4" x2="209.8" y2="267.4"/>
		<line class="st0" x1="2.4" y1="270.4" x2="209.8" y2="270.4"/>
		<line class="st0" x1="2.4" y1="273.4" x2="209.8" y2="273.4"/>
		<line class="st0" x1="2.4" y1="276.4" x2="209.8" y2="276.4"/>
		<line class="st0" x1="2.4" y1="279.4" x2="209.8" y2="279.4"/>
		<line class="st0" x1="2.4" y1="282.4" x2="209.8" y2="282.4"/>
		<line class="st0" x1="2.4" y1="285.4" x2="209.8" y2="285.4"/>
		<line class="st0" x1="2.4" y1="288.4" x2="209.8" y2="288.4"/>
		<line class="st0" x1="2.4" y1="291.4" x2="209.8" y2="291.4"/>
		<line class="st0" x1="2.4" y1="294.4" x2="209.8" y2="294.4"/>
		<line class="st0" x1="2.4" y1="297.4" x2="209.8" y2="297.4"/>
		<line class="st0" x1="2.4" y1="300.4" x2="209.8" y2="300.4"/>
		<line class="st0" x1="2.4" y1="303.4" x2="209.8" y2="303.4"/>
		<line class="st0" x1="2.4" y1="306.4" x2="209.8" y2="306.4"/>
		<line class="st0" x1="2.4" y1="309.4" x2="209.8" y2="309.4"/>
		<line class="st0" x1="2.4" y1="312.4" x2="209.8" y2="312.4"/>
		<line class="st0" x1="2.4" y1="315.4" x2="209.8" y2="315.4"/>
		<line class="st0" x1="2.4" y1="318.4" x2="209.8" y2="318.4"/>
		<line class="st0" x1="2.4" y1="321.4" x2="209.8" y2="321.4"/>
		<line class="st0" x1="2.4" y1="324.4" x2="209.8" y2="324.4"/>
		<line class="st0" x1="2.4" y1="327.4" x2="209.8" y2="327.4"/>
		<line class="st0" x1="2.4" y1="330.4" x2="209.8" y2="330.4"/>
		<line class="st0" x1="2.4" y1="333.4" x2="209.8" y2="333.4"/>
		<line class="st0" x1="2.4" y1="336.4" x2="209.8" y2="336.4"/>
		<line class="st0" x1="2.4" y1="339.4" x2="209.8" y2="339.4"/>
		<line class="st0" x1="2.4" y1="342.4" x2="209.8" y2="342.4"/>
		<line class="st0" x1="2.4" y1="345.4" x2="209.8" y2="345.4"/>
		<line class="st0" x1="2.4" y1="348.4" x2="209.8" y2="348.4"/>
		<line class="st0" x1="2.4" y1="351.4" x2="209.8" y2="351.4"/>
		<line class="st0" x1="2.4" y1="354.4" x2="209.8" y2="354.4"/>
		<line class="st0" x1="2.4" y1="357.4" x2="209.8" y2="357.4"/>
		<line class="st0" x1="2.4" y1="360.4" x2="209.8" y2="360.4"/>
		<line class="st0" x1="2.4" y1="363.4" x2="209.8" y2="363.4"/>
		<line class="st0" x1="2.4" y1="366.4" x2="209.8" y2="366.4"/>
		<line class="st0" x1="2.4" y1="369.4" x2="209.8" y2="369.4"/>
		<line class="st0" x1="2.4" y1="372.4" x2="209.8" y2="372.4"/>
		<line class="st0" x1="2.4" y1="375.4" x2="209.8" y2="375.4"/>
		<line class="st0" x1="2.4" y1="378.4" x2="209.8" y2="378.4"/>
		<line class="st0" x1="2.4" y1="381.4" x2="209.8" y2="381.4"/>
		<line class="st0" x1="2.4" y1="384.4" x2="209.8" y2="384.4"/>
		<line class="st0" x1="2.4" y1="387.4" x2="209.8" y2="387.4"/>
		<line class="st0" x1="2.4" y1="390.4" x2="209.8" y2="390.4"/>
		<line class="st0" x1="2.4" y1="393.4" x2="209.8" y2="393.4"/>
		<line class="st0" x1="2.4" y1="396.4" x2="209.8" y2="396.4"/>
		<line class="st0" x1="2.4" y1="399.4" x2="209.8" y2="399.4"/>
		<line class="st0" x1="2.4" y1="402.4" x2="209.8" y2="402.4"/>
		<line class="st0" x1="2.4" y1="405.4" x2="209.8" y2="405.4"/>
		<line class="st0" x1="2.4" y1="408.4" x2="209.8" y2="408.4"/>
		<line class="st0" x1="2.4" y1="411.4" x2="209.8" y2="411.4"/>
		<line class="st0" x1="2.4" y1="414.4" x2="209.8" y2="414.4"/>
		<line class="st0" x1="2.4" y1="417.4" x2="209.8" y2="417.4"/>
		<line class="st0" x1="2.4" y1="420.4" x2="209.8" y2="420.4"/>
		<line class="st0" x1="2.4" y1="423.4" x2="209.8" y2="423.4"/>
		<line class="st0" x1="2.4" y1="426.4" x2="209.8" y2="426.4"/>
		<line class="st0" x1="2.4" y1="429.4" x2="209.8" y2="429.4"/>
		<line class="st0" x1="2.4" y1="432.4" x2="209.8" y2="432.4"/>
		<line class="st0" x1="2.4" y1="435.4" x2="209.8" y2="435.4"/>
		<line class="st0" x1="2.4" y1="438.4" x2="209.8" y2="438.4"/>
		<line class="st0" x1="2.4" y1="441.4" x2="209.8" y2="441.4"/>
	</g>
</g>
<g>
	<g transform="translate(105,105) rotate(-0.3059) translate(-94,-88)">
		<line class="st0" x1="200.6" y1="82.1" x2="387.7" y2="82.1"/>
	</g>
	<g transform="translate(105,105) rotate(-0.3059) translate(-94,-88)">
		<line class="st0" x1="200.6" y1="85.1" x2="387.7" y2="85.1"/>
		<line class="st0" x1="200.6" y1="88.1" x2="387.7" y2="88.1"/>
		<line class="st0" x1="200.6" y1="91.1" x2="387.7" y2="91.1"/>
		<line class="st0" x1="200.6" y1="94.1" x2="387.7" y2="94.1"/>
		<line class="st0" x1="200.6" y1="97.1" x2="387.7" y2="97.1"/>
		<line class="st0" x1="200.6" y1="100.1" x2="387.7" y2="100.1"/>
		<line class="st0" x1="200.6" y1="103.1" x2="387.7" y2="103.1"/>
		<line class="st0" x1="200.6" y1="106.1" x2="387.7" y2="106.1"/>
		<line class="st0" x1="200.6" y1="109.1" x2="387.7" y2="109.1"/>
		<line class="st0" x1="200.6" y1="112.1" x2="387.7" y2="112.1"/>
		<line class="st0" x1="200.6" y1="115.1" x2="387.7" y2="115.1"/>
		<line class="st0" x1="200.6" y1="118.1" x2="387.7" y2="118.1"/>
		<line class="st0" x1="200.6" y1="121.1" x2="387.7" y2="121.1"/>
		<line class="st0" x1="200.6" y1="124.1" x2="387.7" y2="124.1"/>
		<line class="st0" x1="200.6" y1="127.1" x2="387.7" y2="127.1"/>
		<line class="st0" x1="200.6" y1="130.1" x2="387.7" y2="130.1"/>
		<line class="st0" x1="200.6" y1="133.1" x2="387.7" y2="133.1"/>
		<line class="st0" x1="200.6" y1="136.1" x2="387.7" y2="136.1"/>
		<line class="st0" x1="200.6" y1="139.1" x2="387.7" y2="139.1"/>
		<line class="st0" x1="200.6" y1="142.1" x2="387.7" y2="142.1"/>
		<line class="st0" x1="200.6" y1="145.1" x2="387.7" y2="145.1"/>
		<line class="st0" x1="200.6" y1="148.1" x2="387.7" y2="148.1"/>
		<line class="st0" x1="200.6" y1="151.1" x2="387.7" y2="151.1"/>
		<line class="st0" x1="200.6" y1="154.1" x2="387.7" y2="154.1"/>
		<line class="st0" x1="200.6" y1="157.1" x2="387.7" y2="157.1"/>
		<line class="st0" x1="200.6" y1="160.1" x2="387.7" y2="160.1"/>
		<line class="st0" x1="200.6" y1="163.1" x2="387.7" y2="163.1"/>
		<line class="st0" x1="200.6" y1="166.1" x2="387.7" y2="166.1"/>
		<line class="st0" x1="200.6" y1="169.1" x2="387.7" y2="169.1"/>
		<line class="st0" x1="200.6" y1="172.1" x2="387.7" y2="172.1"/>
		<line class="st0" x1="200.6" y1="175.1" x2="387.7" y2="175.1"/>
		<line class="st0" x1="200.6" y1="178.1" x2="387.7" y2="178.1"/>
		<line class="st0" x1="200.6" y1="181.1" x2="387.7" y2="181.1"/>
		<line class="st0" x1="200.6" y1="184.1" x2="387.7" y2="184.1"/>
		<line class="st0" x1="200.6" y1="187.1" x2="387.7" y2="187.1"/>
		<line class="st0" x1="200.6" y1="190.1" x2="387.7" y2="190.1"/>
		<line class="st0" x1="200.6" y1="193.1" x2="387.7" y2="193.1"/>
		<line class="st0" x1="200.6" y1="196.1" x2="387.7" y2="196.1"/>
		<line class="st0" x1="200.6" y1="199.1" x2="387.7" y2="199.1"/>
		<line class="st0" x1="200.6" y1="202.1" x2="387.7" y2="202.1"/>
		<line class="st0" x1="200.6" y1="205.1" x2="387.7" y2="205.1"/>
		<line class="st0" x1="200.6" y1="208.1" x2="387.7" y2="208.1"/>
		<line class="st0" x1="200.6" y1="211.1" x2="387.7" y2="211.1"/>
		<line class="st0" x1="200.6" y1="214.1" x2="387.7" y2="214.1"/>
		<line class="st0" x1="200.6" y1="217.1" x2="387.7" y2="217.1"/>
	</g>
</g>
<g>
	<g transform="translate(105,105) rotate(-1.3051) translate(-95,-100)">
		<line class="st0" x1="380.6" y1="462.8" x2="568.8" y2="462.8"/>
	</g>
	<g transform="translate(105,105) rotate(-1.3051) translate(-95,-100)">
		<line class="st0" x1="380.6" y1="465.8" x2="568.8" y2="465.8"/>
		<line class="st0" x1="380.6" y1="468.8" x2="568.8" y2="468.8"/>
		<line class="st0" x1="380.6" y1="471.8" x2="568.8" y2="471.8"/>
		<line class="st0" x1="380.6" y1="474.8" x2="568.8" y2="474.8"/>
		<line class="st0" x1="380.6" y1="477.8" x2="568.8" y2="477.8"/>
		<line class="st0" x1="380.6" y1="480.8" x2="568.8" y2="480.8"/>
		<line class="st0" x1="380.6" y1="483.8" x2="568.8" y2="483.8"/>
		<line class="st0" x1="380.6" y1="486.8" x2="568.8" y2="486.8"/>
		<line class="st0" x1="380.6" y1="489.8" x2="568.8" y2="489.8"/>
		<line class="st0" x1="380.6" y1="492.8" x2="568.8" y2="492.8"/>
		<line class="st0" x1="380.6" y1="495.8" x2="568.8" y2="495.8"/>
		<line class="st0" x1="380.6" y1="498.8" x2="568.8" y2="498.8"/>
		<line class="st0" x1="380.6" y1="501.8" x2="568.8" y2="501.8"/>
		<line class="st0" x1="380.6" y1="504.8" x2="568.8" y2="504.8"/>
		<line class="st0" x1="380.6" y1="507.8" x2="568.8" y2="507.8"/>
		<line class="st0" x1="380.6" y1="510.8" x2="568.8" y2="510.8"/>
		<line class="st0" x1="380.6" y1="513.8" x2="568.8" y2="513.8"/>
		<line class="st0" x1="380.6" y1="516.8" x2="568.8" y2="516.8"/>
		<line class="st0" x1="380.6" y1="519.8" x2="568.8" y2="519.8"/>
		<line class="st0" x1="380.6" y1="522.8" x2="568.8" y2="522.8"/>
		<line class="st0" x1="380.6" y1="525.8" x2="568.8" y2="525.8"/>
		<line class="st0" x1="380.6" y1="528.8" x2="568.8" y2="528.8"/>
		<line class="st0" x1="380.6" y1="531.8" x2="568.8" y2="531.8"/>
		<line class="st0" x1="380.6" y1="534.8" x2="568.8" y2="534.8"/>
		<line class="st0" x1="380.6" y1="537.8" x2="568.8" y2="537.8"/>
		<line class="st0" x1="380.6" y1="540.8" x2="568.8" y2="540.8"/>
		<line class="st0" x1="380.6" y1="543.8" x2="568.8" y2="543.8"/>
		<line class="st0" x1="380.6" y1="546.8" x2="568.8" y2="546.8"/>
		<line class="st0" x1="380.6" y1="549.8" x2="568.8" y2="549.8"/>
		<line class="st0" x1="380.6" y1="552.8" x2="568.8" y2="552.8"/>
		<line class="st0" x1="380.6" y1="555.8" x2="568.8" y2="555.8"/>
		<line class="st0" x1="380.6" y1="558.8" x2="568.8" y2="558.8"/>
		<line class="st0" x1="380.6" y1="561.8" x2="568.8" y2="561.8"/>
		<line class="st0" x1="380.6" y1="564.8" x2="568.8" y2="564.8"/>
		<line class="st0" x1="380.6" y1="567.8" x2="568.8" y2="567.8"/>
		<line class="st0" x1="380.6" y1="570.8" x2="568.8" y2="570.8"/>
		<line class="st0" x1="380.6" y1="573.8" x2="568.8" y2="573.8"/>
		<line class="st0" x1="380.6" y1="576.8" x2="568.8" y2="576.8"/>
		<line class="st0" x1="380.6" y1="579.8" x2="568.8" y2="579.8"/>
		<line class="st0" x1="380.6" y1="582.8" x2="568.8" y2="582.8"/>
		<line class="st0" x1="380.6" y1="585.8" x2="568.8" y2="585.8"/>
		<line class="st0" x1="380.6" y1="588.8" x2="568.8" y2="588.8"/>
		<line class="st0" x1="380.6" y1="591.8" x2="568.8" y2="591.8"/>
		<line class="st0" x1="380.6" y1="594.8" x2="568.8" y2="594.8"/>
		<line class="st0" x1="380.6" y1="597.8" x2="568.8" y2="597.8"/>
		<line class="st0" x1="380.6" y1="600.8" x2="568.8" y2="600.8"/>
		<line class="st0" x1="380.6" y1="603.8" x2="568.8" y2="603.8"/>
		<line class="st0" x1="380.6" y1="606.8" x2="568.8" y2="606.8"/>
		<line class="st0" x1="380.6" y1="609.8" x2="568.8" y2="609.8"/>
		<line class="st0" x1="380.6" y1="612.8" x2="568.8" y2="612.8"/>
		<line class="st0" x1="380.6" y1="615.8" x2="568.8" y2="615.8"/>
		<line class="st0" x1="380.6" y1="618.8" x2="568.8" y2="618.8"/>
		<line class="st0" x1="380.6" y1="621.8" x2="568.8" y2="621.8"/>
		<line class="st0" x1="380.6" y1="624.8" x2="568.8" y2="624.8"/>
		<line class="st0" x1="380.6" y1="627.8" x2="568.8" y2="627.8"/>
		<line class="st0" x1="380.6" y1="630.8" x2="568.8" y2="630.8"/>
		<line class="st0" x1="380.6" y1="633.8" x2="568.8" y2="633.8"/>
		<line class="st0" x1="380.6" y1="636.8" x2="568.8" y2="636.8"/>
		<line class="st0" x1="380.6" y1="639.8" x2="568.8" y2="639.8"/>
		<line class="st0" x1="380.6" y1="642.8" x2="568.8" y2="642.8"/>
		<line class="st0" x1="380.6" y1="645.8" x2="568.8" y2="645.8"/>
		<line class="st0" x1="380.6" y1="648.8" x2="568.8" y2="648.8"/>
	</g>
</g>
<g>
	<g transform="translate(105,105) rotate(-2.0849) translate(-100,-79)">
		<line class="st0" x1="-17" y1="465.7" x2="181.7" y2="465.7"/>
	</g>
	<g transform="translate(105,105) rotate(-2.0849) translate(-100,-79)">
		<line class="st0" x1="-17" y1="468.7" x2="181.7" y2="468.7"/>
		<line class="st0" x1="-17" y1="471.7" x2="181.7" y2="471.7"/>
		<line class="st0" x1="-17" y1="474.7" x2="181.7" y2="474.7"/>
		<line class="st0" x1="-17" y1="477.7" x2="181.7" y2="477.7"/>
		<line class="st0" x1="-17" y1="480.7" x2="181.7" y2="480.7"/>
		<line class="st0" x1="-17" y1="483.7" x2="181.7" y2="483.7"/>
		<line class="st0" x1="-17" y1="486.7" x2="181.7" y2="486.7"/>
		<line class="st0" x1="-17" y1="489.7" x2="181.7" y2="489.7"/>
		<line class="st0" x1="-17" y1="492.7" x2="181.7" y2="492.7"/>
		<line class="st0" x1="-17" y1="495.7" x2="181.7" y2="495.7"/>
		<line class="st0" x1="-17" y1="498.7" x2="181.7" y2="498.7"/>
		<line class="st0" x1="-17" y1="501.7" x2="181.7" y2="501.7"/>
		<line class="st0" x1="-17" y1="504.7" x2="181.7" y2="504.7"/>
		<line class="st0" x1="-17" y1="507.7" x2="181.7" y2="507.7"/>
		<line class="st0" x1="-17" y1="510.7" x2="181.7" y2="510.7"/>
		<line class="st0" x1="-17" y1="513.7" x2="181.7" y2="513.7"/>
		<line class="st0" x1="-17" y1="516.7" x2="181.7" y2="516.7"/>
		<line class="st0" x1="-17" y1="519.7" x2="181.7" y2="519.7"/>
		<line class="st0" x1="-17" y1="522.7" x2="181.7" y2="522.7"/>
		<line class="st0" x1="-17" y1="525.7" x2="181.7" y2="525.7"/>
		<line class="st0" x1="-17" y1="528.7" x2="181.7" y2="528.7"/>
		<line class="st0" x1="-17" y1="531.7" x2="181.7" y2="531.7"/>
		<line class="st0" x1="-17" y1="534.7" x2="181.7" y2="534.7"/>
		<line class="st0" x1="-17" y1="537.7" x2="181.7" y2="537.7"/>
		<line class="st0" x1="-17" y1="540.7" x2="181.7" y2="540.7"/>
		<line class="st0" x1="-17" y1="543.7" x2="181.7" y2="543.7"/>
		<line class="st0" x1="-17" y1="546.7" x2="181.7" y2="546.7"/>
		<line class="st0" x1="-17" y1="549.7" x2="181.7" y2="549.7"/>
		<line class="st0" x1="-17" y1="552.7" x2="181.7" y2="552.7"/>
		<line class="st0" x1="-17" y1="555.7" x2="181.7" y2="555.7"/>
		<line class="st0" x1="-17" y1="558.7" x2="181.7" y2="558.7"/>
		<line class="st0" x1="-17" y1="561.7" x2="181.7" y2="561.7"/>
		<line class="st0" x1="-17" y1="564.7" x2="181.7" y2="564.7"/>
		<line class="st0" x1="-17" y1="567.7" x2="181.7" y2="567.7"/>
		<line class="st0" x1="-17" y1="570.7" x2="181.7" y2="570.7"/>
		<line class="st0" x1="-17" y1="573.7" x2="181.7" y2="573.7"/>
		<line class="st0" x1="-17" y1="576.7" x2="181.7" y2="576.7"/>
		<line class="st0" x1="-17" y1="579.7" x2="181.7" y2="579.7"/>
		<line class="st0" x1="-17" y1="582.7" x2="181.7" y2="582.7"/>
		<line class="st0" x1="-17" y1="585.7" x2="181.7" y2="585.7"/>
		<line class="st0" x1="-17" y1="588.7" x2="181.7" y2="588.7"/>
		<line class="st0" x1="-17" y1="591.7" x2="181.7" y2="591.7"/>
		<line class="st0" x1="-17" y1="594.7" x2="181.7" y2="594.7"/>
		<line class="st0" x1="-17" y1="597.7" x2="181.7" y2="597.7"/>
		<line class="st0" x1="-17" y1="600.7" x2="181.7" y2="600.7"/>
		<line class="st0" x1="-17" y1="603.7" x2="181.7" y2="603.7"/>
		<line class="st0" x1="-17" y1="606.7" x2="181.7" y2="606.7"/>
	</g>
</g>
<g>
	<g transform="translate(105,105) rotate(-2.8078) translate(-102,-84)">
		<line class="st0" x1="188.4" y1="262.5" x2="391.5" y2="262.5"/>
	</g>
	<g transform="translate(105,105) rotate(-2.8078) translate(-102,-84)">
		<line class="st0" x1="188.4" y1="265.5" x2="391.5" y2="265.5"/>
		<line class="st0" x1="188.4" y1="268.5" x2="391.5" y2="268.5"/>
		<line class="st0" x1="188.4" y1="271.5" x2="391.5" y2="271.5"/>
		<line class="st0" x1="188.4" y1="274.5" x2="391.5" y2="274.5"/>
		<line class="st0" x1="188.4" y1="277.5" x2="391.5" y2="277.5"/>
		<line class="st0" x1="188.4" y1="280.5" x2="391.5" y2="280.5"/>
		<line class="st0" x1="188.4" y1="283.5" x2="391.5" y2="283.5"/>
		<line class="st0" x1="188.4" y1="286.5" x2="391.5" y2="286.5"/>
		<line class="st0" x1="188.4" y1="289.5" x2="391.5" y2="289.5"/>
		<line class="st0" x1="188.4" y1="292.5" x2="391.5" y2="292.5"/>
		<line class="st0" x1="188.4" y1="295.5" x2="391.5" y2="295.5"/>
		<line class="st0" x1="188.4" y1="298.5" x2="391.5" y2="298.5"/>
		<line class="st0" x1="188.4" y1="301.5" x2="391.5" y2="301.5"/>
		<line class="st0" x1="188.4" y1="304.5" x2="391.5" y2="304.5"/>
		<line class="st0" x1="188.4" y1="307.5" x2="391.5" y2="307.5"/>
		<line class="st0" x1="188.4" y1="310.5" x2="391.5" y2="310.5"/>
		<line class="st0" x1="188.4" y1="313.5" x2="391.5" y2="313.5"/>
		<line class="st0" x1="188.4" y1="316.5" x2="391.5" y2="316.5"/>
		<line class="st0" x1="188.4" y1="319.5" x2="391.5" y2="319.5"/>
		<line class="st0" x1="188.4" y1="322.5" x2="391.5" y2="322.5"/>
		<line class="st0" x1="188.4" y1="325.5" x2="391.5" y2="325.5"/>
		<line class="st0" x1="188.4" y1="328.5" x2="391.5" y2="328.5"/>
		<line class="st0" x1="188.4" y1="331.5" x2="391.5" y2="331.5"/>
		<line class="st0" x1="188.4" y1="334.5" x2="391.5" y2="334.5"/>
		<line class="st0" x1="188.4" y1="337.5" x2="391.5" y2="337.5"/>
		<line class="st0" x1="188.4" y1="340.5" x2="391.5" y2="340.5"/>
		<line class="st0" x1="188.4" y1="343.5" x2="391.5" y2="343.5"/>
		<line class="st0" x1="188.4" y1="346.5" x2="391.5" y2="346.5"/>
		<line class="st0" x1="188.4" y1="349.5" x2="391.5" y2="349.5"/>
		<line class="st0" x1="188.4" y1="352.5" x2="391.5" y2="352.5"/>
		<line class="st0" x1="188.4" y1="355.5" x2="391.5" y2="355.5"/>
		<line class="st0" x1="188.4" y1="358.5" x2="391.5" y2="358.5"/>
		<line class="st0" x1="188.4" y1="361.5" x2="391.5" y2="361.5"/>
		<line class="st0" x1="188.4" y1="364.5" x2="391.5" y2="364.5"/>
		<line class="st0" x1="188.4" y1="367.5" x2="391.5" y2="367.5"/>
		<line class="st0" x1="188.4" y1="370.5" x2="391.5" y2="370.5"/>
		<line class="st0" x1="188.4" y1="373.5" x2="391.5" y2="373.5"/>
		<line class="st0" x1="188.4" y1="376.5" x2="391.5" y2="376.5"/>
		<line class="st0" x1="188.4" y1="379.5" x2="391.5" y2="379.5"/>
		<line class="st0" x1="188.4" y1="382.5" x2="391.5" y2="382.5"/>
		<line class="st0" x1="188.4" y1="385.5" x2="391.5" y2="385.5"/>
		<line class="st0" x1="188.4" y1="388.5" x2="391.5" y2="388.5"/>
		<line class="st0" x1="188.4" y1="391.5" x2="391.5" y2="391.5"/>
		<line class="st0" x1="188.4" y1="394.5" x2="391.5" y2="394.5"/>
		<line class="st0" x1="188.4" y1="397.5" x2="391.5" y2="397.5"/>
		<line class="st0" x1="188.4" y1="400.5" x2="391.5" y2="400.5"/>
		<line class="st0" x1="188.4" y1="403.5" x2="391.5" y2="403.5"/>
		<line class="st0" x1="188.4" y1="406.5" x2="391.5" y2="406.5"/>
		<line class="st0" x1="188.4" y1="409.5" x2="391.5" y2="409.5"/>
		<line class="st0" x1="188.4" y1="412.5" x2="391.5" y2="412.5"/>
		<line class="st0" x1="188.4" y1="415.5" x2="391.5" y2="415.5"/>
		<line class="st0" x1="188.4" y1="418.5" x2="391.5" y2="418.5"/>
		<line class="st0" x1="188.4" y1="421.5" x2="391.5" y2="421.5"/>
		<line class="st0" x1="188.4" y1="424.5" x2="391.5" y2="424.5"/>
		<line class="st0" x1="188.4" y1="427.5" x2="391.5" y2="427.5"/>
		<line class="st0" x1="188.4" y1="430.5" x2="391.5" y2="430.5"/>
		<line class="st0" x1="188.4" y1="433.5" x2="391.5" y2="433.5"/>
		<line class="st0" x1="188.4" y1="436.5" x2="391.5" y2="436.5"/>
		<line class="st0" x1="188.4" y1="439.5" x2="391.5" y2="439.5"/>
		<line class="st0" x1="188.4" y1="442.5" x2="391.5" y2="442.5"/>
	</g>
</g>
<g>
	<g transform="translate(105,105) rotate(-1.1386) translate(-93,-88)">
		<line class="st0" x1="390.9" y1="57.8" x2="575.4" y2="57.8"/>
	</g>
	<g transform="translate(105,105) rotate(-1.1386) translate(-93,-88)">
		<line class="st0" x1="390.9" y1="60.8" x2="575.4" y2="60.8"/>
		<line class="st0" x1="390.9" y1="63.8" x2="575.4" y2="63.8"/>
		<line class="st0" x1="390.9" y1="66.8" x2="575.4" y2="66.8"/>
		<line class="st0" x1="390.9" y1="69.8" x2="575.4" y2="69.8"/>
		<line class="st0" x1="390.9" y1="72.8" x2="575.4" y2="72.8"/>
		<line class="st0" x1="390.9" y1="75.8" x2="575.4" y2="75.8"/>
		<line class="st0" x1="390.9" y1="78.8" x2="575.4" y2="78.8"/>
		<line class="st0" x1="390.9" y1="81.8" x2="575.4" y2="81.8"/>
		<line class="st0" x1="390.9" y1="84.8" x2="575.4" y2="84.8"/>
		<line class="st0" x1="390.9" y1="87.8" x2="575.4" y2="87.8"/>
		<line class="st0" x1="390.9" y1="90.8" x2="575.4" y2="90.8"/>
		<line class="st0" x1="390.9" y1="93.8" x2="575.4" y2="93.8"/>
		<line class="st0" x1="390.9" y1="96.8" x2="575.4" y2="96.8"/>
		<line class="st0" x1="390.9" y1="99.8" x2="575.4" y2="99.8"/>
		<line class="st0" x1="390.9" y1="102.8" x2="575.4" y2="102.8"/>
		<line class="st0" x1="390.9" y1="105.8" x2="575.4" y2="105.8"/>
		<line class="st0" x1="390.9" y1="108.8" x2="575.4" y2="108.8"/>
		<line class="st0" x1="390.9" y1="111.8" x2="575.4" y2="111.8"/>
		<line class="st0" x1="390.9" y1="114.8" x2="575.4" y2="114.8"/>
		<line class="st0" x1="390.9" y1="117.8" x2="575.4" y2="117.8"/>
		<line class="st0" x1="390.9" y1="120.8" x2="575.4" y2="120.8"/>
		<line class="st0" x1="390.9" y1="123.8" x2="575.4" y2="123.8"/>
		<line class="st0" x1="390.9" y1="126.8" x2="575.4" y2="126.8"/>
		<line class="st0" x1="390.9" y1="129.8" x2="575.4" y2="129.8"/>
		<line class="st0" x1="390.9" y1="132.8" x2="575.4" y2="132.8"/>
		<line class="st0" x1="390.9" y1="135.8" x2="575.4" y2="135.8"/>
		<line class="st0" x1="390.9" y1="138.8" x2="575.4" y2="138.8"/>
		<line class="st0" x1="390.9" y1="141.8" x2="575.4" y2="141.8"/>
		<line class="st0" x1="390.9" y1="144.8" x2="575.4" y2="144.8"/>
		<line class="st0" x1="390.9" y1="147.8" x2="575.4" y2="147.8"/>
		<line class="st0" x1="390.9" y1="150.8" x2="575.4" y2="150.8"/>
		<line class="st0" x1="390.9" y1="153.8" x2="575.4" y2="153.8"/>
		<line class="st0" x1="390.9" y1="156.8" x2="575.4" y2="156.8"/>
		<line class="st0" x1="390.9" y1="159.8" x2="575.4" y2="159.8"/>
		<line class="st0" x1="390.9" y1="162.8" x2="575.4" y2="162.8"/>
		<line class="st0" x1="390.9" y1="165.8" x2="575.4" y2="165.8"/>
		<line class="st0" x1="390.9" y1="168.8" x2="575.4" y2="168.8"/>
		<line class="st0" x1="390.9" y1="171.8" x2="575.4" y2="171.8"/>
		<line class="st0" x1="390.9" y1="174.8" x2="575.4" y2="174.8"/>
		<line class="st0" x1="390.9" y1="177.8" x2="575.4" y2="177.8"/>
		<line class="st0" x1="390.9" y1="180.8" x2="575.4" y2="180.8"/>
		<line class="st0" x1="390.9" y1="183.8" x2="575.4" y2="183.8"/>
		<line class="st0" x1="390.9" y1="186.8" x2="575.4" y2="186.8"/>
		<line class="st0" x1="390.9" y1="189.8" x2="575.4" y2="189.8"/>
		<line class="st0" x1="390.9" y1="192.8" x2="575.4" y2="192.8"/>
		<line class="st0" x1="390.9" y1="195.8" x2="575.4" y2="195.8"/>
		<line class="st0" x1="390.9" y1="198.8" x2="575.4" y2="198.8"/>
		<line class="st0" x1="390.9" y1="201.8" x2="575.4" y2="201.8"/>
		<line class="st0" x1="390.9" y1="204.8" x2="575.4" y2="204.8"/>
		<line class="st0" x1="390.9" y1="207.8" x2="575.4" y2="207.8"/>
		<line class="st0" x1="390.9" y1="210.8" x2="575.4" y2="210.8"/>
		<line class="st0" x1="390.9" y1="213.8" x2="575.4" y2="213.8"/>
		<line class="st0" x1="390.9" y1="216.8" x2="575.4" y2="216.8"/>
		<line class="st0" x1="390.9" y1="219.8" x2="575.4" y2="219.8"/>
		<line class="st0" x1="390.9" y1="222.8" x2="575.4" y2="222.8"/>
		<line class="st0" x1="390.9" y1="225.8" x2="575.4" y2="225.8"/>
		<line class="st0" x1="390.9" y1="228.8" x2="575.4" y2="228.8"/>
	</g>
</g>
<g>
	<line class="st1" x1="10" y1="10" x2="0" y2="0"/>
</g>
</svg>
