<?xml version="1.0" encoding="utf-8"?>
<!-- Generator: Adobe Illustrator 22.0.0, SVG Export Plug-In . SVG Version: 6.00 Build 0)  -->
<svg version="1.1" id="Layer_1" xmlns="http://www.w3.org/2000/svg" xmlns:xlink="http://www.w3.org/1999/xlink" x="0px" y="0px"
	 width="595.3px" height="841.9px" viewBox="0 0 595.3 841.9" style="enable-background:new 0 0 595.3 841.9;" xml:space="preserve"
	>
<style type="text/css">
	.st0{fill:none;stroke:#613193;stroke-miterlimit:10;stroke-opacity:0.898;}
	.st1{fill:none;stroke:#231F20;stroke-linecap:round;stroke-miterlimit:10;stroke-opacity:0.898;}
</style>
<g>
	<g transform="translate(105,105) rotate(2.7158) translate(-101,-65)">
		<line class="st0" x1="412.1" y1="435" x2="613.8" y2="435"/>
	</g>
	<g transform="translate(105,105) rotate(2.7158) translate(-101,-65)">
		<line class="st0" x1="412.1" y1="438" x2="613.8" y2="438"/>
		<line class="st0" x1="412.1" y1="441" x2="613.8" y2="441"/>
		<line class="st0" x1="412.1" y1="444" x2="613.8" y2="444"/>
		<line class="st0" x1="412.1" y1="447" x2="613.8" y2="447"/>
		<line class="st0" x1="412.1" y1="450" x2="613.8" y2="450"/>
		<line class="st0" x1="412.1" y1="453" x2="613.8" y2="453"/>
		<line class="st0" x1="412.1" y1="456" x2="613.8" y2="456"/>
		<line class="st0" x1="412.1" y1="459" x2="613.8" y2="459"/>
		<line class="st0" x1="412.1" y1="462" x2="613.8" y2="462"/>
		<line class="st0" x1="412.1" y1="465" x2="613.8" y2="465"/>
		<line class="st0" x1="412.1" y1="468" x2="613.8" y2="468"/>
		<line class="st0" x1="412.1" y1="471" x2="613.8" y2="471"/>
		<line class="st0" x1="412.1" y1="474" x2="613.8" y2="474"/>
		<line class="st0" x1="412.1" y1="477" x2="613.8" y2="477"/>
		<line class="st0" x1="412.1" y1="480" x2="613.8" y2="480"/>
		<line class="st0" x1="412.1" y1="483" x2="613.8" y2="483"/>
		<line class="st0" x1="412.1" y1="486" x2="613.8" y2="486"/>
		<line class="st0" x1="412.1" y1="489" x2="613.8" y2="489"/>
		<line class="st0" x1="412.1" y1="492" x2="613.8" y2="492"/>
		<line class="st0" x1="412.1" y1="495" x2="613.8" y2="495"/>
		<line class="st0" x1="412.1" y1="498" x2="613.8" y2="498"/>
		<line class="st0" x1="412.1" y1="501" x2="613.8" y2="501"/>
		<line class="st0" x1="412.1" y1="504" x2="613.8" y2="504"/>
		<line class="st0" x1="412.1" y1="507" x2="613.8" y2="507"/>
		<line class="st0" x1="412.1" y1="510" x2="613.8" y2="510"/>
		<line class="st0" x1="412.1" y1="513" x2="613.8" y2="513"/>
		<line class="st0" x1="412.1" y1="516" x2="613.8" y2="516"/>
		<line class="st0" x1="412.1" y1="519" x2="613.8" y2="519"/>
		<line class="st0" x1="412.1" y1="522" x2="613.8" y2="522"/>
		<line class="st0" x1="412.1" y1="525" x2="613.8" y2="525"/>
		<line class="st0" x1="412.1" y1="528" x2="613.8" y2="528"/>
		<line class="st0" x1="412.1" y1="531" x2="613.8" y2="531"/>
		<line class="st0" x1="412.1" y1="534" x2="613.8" y2="534"/>
		<line class="st0" x1="412.1" y1="537" x2="613.8" y2="537"/>
		<line class="st0" x1="412.1" y1="540" x2="613.8" y2="540"/>
		<line class="st0" x1="412.1" y1="543" x2="613.8" y2="543"/>
		<line class="st0" x1="412.1" y1="546" x2="613.8" y2="546"/>
		<line class="st0" x1="412.1" y1="549" x2="613.8" y2="549"/>
		<line class="st0" x1="412.1" y1="552" x2="613.8" y2="552"/>
		<line class="st0" x1="412.1" y1="555" x2="613.8" y2="555"/>
	</g>
</g>
<g>
	<g transform="translate(105,105) rotate(2.8206) translate(-99,-93)">
		<line class="st0" x1="17.9" y1="260.8" x2="214.2" y2="260.8"/>
	</g>
	<g transform="translate(105,105) rotate(2.8206) translate(-99,-93)">
		<line class="st0" x1="17.9" y1="263.8" x2="214.2" y2="263.8"/>
		<line class="st0" x1="17.9" y1="266.8" x2="214.2" y2="266.8"/>
		<line class="st0" x1="17.9" y1="269.8" x2="214.2" y2="269.8"/>
		<line class="st0" x1="17.9" y1="272.8" x2="214.2" y2="272.8"/>
		<line class="st0" x1="17.9" y1="275.8" x2="214.2" y2="275.8"/>
		<line class="st0" x1="17.9" y1="278.8" x2="214.2" y2="278.8"/>
		<line class="st0" x1="17.9" y1="281.8" x2="214.2" y2="281.8"/>
		<line class="st0" x1="17.9" y1="284.8" x2="214.2" y2="284.8"/>
		<line class="st0" x1="17.9" y1="287.8" x2="214.2" y2="287.8"/>
		<line class="st0" x1="17.9" y1="290.8" x2="214.2" y2="290.8"/>
		<line class="st0" x1="17.9" y1="293.8" x2="214.2" y2="293.8"/>
		<line class="st0" x1="17.9" y1="296.8" x2="214.2" y2="296.8"/>
		<line class="st0" x1="17.9" y1="299.8" x2="214.2" y2="299.8"/>
		<line class="st0" x1="17.9" y1="302.8" x2="214.2" y2="302.8"/>
		<line class="st0" x1="17.9" y1="305.8" x2="214.2" y2="305.8"/>
		<line class="st0" x1="17.9" y1="308.8" x2="214.2" y2="308.8"/>
		<line class="st0" x1="17.9" y1="311.8" x2="214.2" y2="311.8"/>
		<line class="st0" x1="17.9" y1="314.8" x2="214.2" y2="314.8"/>
		<line class="st0" x1="17.9" y1="317.8" x2="214.2" y2="317.8"/>
		<line class="st0" x1="17.9" y1="320.8" x2="214.2" y2="320.8"/>
		<line class="st0" x1="17.9" y1="323.8" x2="214.2" y2="323.8"/>
		<line class="st0" x1="17.9" y1="326.8" x2="214.2" y2="326.8"/>
		<line class="st0" x1="17.9" y1="329.8" x2="214.2" y2="329.8"/>
		<line class="st0" x1="17.9" y1="332.8" x2="214.2" y2="332.8"/>
		<line class="st0" x1="17.9" y1="335.8" x2="214.2" y2="335.8"/>
		<line class="st0" x1="17.9" y1="338.8" x2="214.2" y2="338.8"/>
		<line class="st0" x1="17.9" y1="341.8" x2="214.2" y2="341.8"/>
		<line class="st0" x1="17.9" y1="344.8" x2="214.2" y2="344.8"/>
		<line class="st0" x1="17.9" y1="347.8" x2="214.2" y2="347.8"/>
		<line class="st0" x1="17.9" y1="350.8" x2="214.2" y2="350.8"/>
		<line class="st0" x1="17.9" y1="353.8" x2="214.2" y2="353.8"/>
		<line class="st0" x1="17.9" y1="356.8" x2="214.2" y2="356.8"/>
		<line class="st0" x1="17.9" y1="359.8" x2="214.2" y2="359.8"/>
		<line class="st0" x1="17.9" y1="362.8" x2="214.2" y2="362.8"/>
		<line class="st0" x1="17.9" y1="365.8" x2="214.2" y2="365.8"/>
		<line class="st0" x1="17.9" y1="368.8" x2="214.2" y2="368.8"/>
		<line class="st0" x1="17.9" y1="371.8" x2="214.2" y2="371.8"/>
		<line class="st0" x1="17.9" y1="374.8" x2="214.2" y2="374.8"/>
		<line class="st0" x1="17.9" y1="377.8" x2="214.2" y2="377.8"/>
		<line class="st0" x1="17.9" y1="380.8" x2="214.2" y2="380.8"/>
		<line class="st0" x1="17.9" y1="383.8" x2="214.2" y2="383.8"/>
		<line class="st0" x1="17.9" y1="386.8" x2="214.2" y2="386.8"/>
		<line class="st0" x1="17.9" y1="389.8" x2="214.2" y2="389.8"/>
		<line class="st0" x1="17.9" y1="392.8" x2="214.2" y2="392.8"/>
		<line class="st0" x1="17.9" y1="395.8" x2="214.2" y2="395.8"/>
		<line class="st0" x1="17.9" y1="398.8" x2="214.2" y2="398.8"/>
		<line class="st0" x1="17.9" y1="401.8" x2="214.2" y2="401.8"/>
		<line class="st0" x1="17.9" y1="404.8" x2="214.2" y2="404.8"/>
		<line class="st0" x1="17.9" y1="407.8" x2="214.2" y2="407.8"/>
		<line class="st0" x1="17.9" y1="410.8" x2="214.2" y2="410.8"/>
		<line class="st0" x1="17.9" y1="413.8" x2="214.2" y2="413.8"/>
		<line class="st0" x1="17.9" y1="416.8" x2="214.2" y2="416.8"/>
		<line class="st0" x1="17.9" y1="419.8" x2="214.2" y2="419.8"/>
	</g>
</g>
<g>
	<g transform="translate(105,105) rotate(2.0587) translate(-90,-79)">
		<line class="st0" x1="202.5" y1="36.8" x2="382.1" y2="36.8"/>
	</g>
	<g transform="translate(105,105) rotate(2.0587) translate(-90,-79)">
		<line class="st0" x1="202.5" y1="39.8" x2="382.1" y2="39.8"/>
		<line class="st0" x1="202.5" y1="42.8" x2="382.1" y2="42.8"/>
		<line class="st0" x1="202.5" y1="45.8" x2="382.1" y2="45.8"/>
		<line class="st0" x1="202.5" y1="48.8" x2="382.1" y2="48.8"/>
		<line class="st0" x1="202.5" y1="51.8" x2="382.1" y2="51.8"/>
		<line class="st0" x1="202.5" y1="54.8" x2="382.1" y2="54.8"/>
		<line class="st0" x1="202.5" y1="57.8" x2="382.1" y2="57.8"/>
		<line class="st0" x1="202.5" y1="60.8" x2="382.1" y2="60.8"/>
		<line class="st0" x1="202.5" y1="63.8" x2="382.1" y2="63.8"/>
		<line class="st0" x1="202.5" y1="66.8" x2="382.1" y2="66.8"/>
		<line class="st0" x1="202.5" y1="69.8" x2="382.1" y2="69.8"/>
		<line class="st0" x1="202.5" y1="72.8" x2="382.1" y2="72.8"/>
		<line class="st0" x1="202.5" y1="75.8" x2="382.1" y2="75.8"/>
		<line class="st0" x1="202.5" y1="78.8" x2="382.1" y2="78.8"/>
		<line class="st0" x1="202.5" y1="81.8" x2="382.1" y2="81.8"/>
		<line class="st0" x1="202.5" y1="84.8" x2="382.1" y2="84.8"/>
		<line class="st0" x1="202.5" y1="87.8" x2="382.1" y2="87.8"/>
		<line class="st0" x1="202.5" y1="90.8" x2="382.1" y2="90.8"/>
		<line class="st0" x1="202.5" y1="93.8" x2="382.1" y2="93.8"/>
		<line class="st0" x1="202.5" y1="96.8" x2="382.1" y2="96.8"/>
		<line class="st0" x1="202.5" y1="99.8" x2="382.1" y2="99.8"/>
		<line class="st0" x1="202.5" y1="102.8" x2="382.1" y2="102.8"/>
		<line class="st0" x1="202.5" y1="105.8" x2="382.1" y2="105.8"/>
		<line class="st0" x1="202.5" y1="108.8" x2="382.1" y2="108.8"/>
		<line class="st0" x1="202.5" y1="111.8" x2="382.1" y2="111.8"/>
		<line class="st0" x1="202.5" y1="114.8" x2="382.1" y2="114.8"/>
		<line class="st0" x1="202.5" y1="117.8" x2="382.1" y2="117.8"/>
		<line class="st0" x1="202.5" y1="120.8" x2="382.1" y2="120.8"/>
		<line class="st0" x1="202.5" y1="123.8" x2="382.1" y2="123.8"/>
		<line class="st0" x1="202.5" y1="126.8" x2="382.1" y2="126.8"/>
		<line class="st0" x1="202.5" y1="129.8" x2="382.1" y2="129.8"/>
		<line class="st0" x1="202.5" y1="132.8" x2="382.1" y2="132.8"/>
		<line class="st0" x1="202.5" y1="135.8" x2="382.1" y2="135.8"/>
		<line class="st0" x1="202.5" y1="138.8" x2="382.1" y2="138.8"/>
		<line class="st0" x1="202.5" y1="141.8" x2="382.1" y2="141.8"/>
		<line class="st0" x1="202.5" y1="144.8" x2="382.1" y2="144.8"/>
		<line class="st0" x1="202.5" y1="147.8" x2="382.1" y2="147.8"/>
		<line class="st0" x1="202.5" y1="150.8" x2="382.1" y2="150.8"/>
		<line class="st0" x1="202.5" y1="153.8" x2="382.1" y2="153.8"/>
		<line class="st0" x1="202.5" y1="156.8" x2="382.1" y2="156.8"/>
		<line class="st0" x1="202.5" y1="159.8" x2="382.1" y2="159.8"/>
		<line class="st0" x1="202.5" y1="162.8" x2="382.1" y2="162.8"/>
		<line class="st0" x1="202.5" y1="165.8" x2="382.1" y2="165.8"/>
		<line class="st0" x1="202.5" y1="168.8" x2="382.1" y2="168.8"/>
		<line class="st0" x1="202.5" y1="171.8" x2="382.1" y2="171.8"/>
		<line class="st0" x1="202.5" y1="174.8" x2="382.1" y2="174.8"/>
		<line class="st0" x1="202.5" y1="177.8" x2="382.1" y2="177.8"/>
		<line class="st0" x1="202.5" y1="180.8" x2="382.1" y2="180.8"/>
		<line class="st0" x1="202.5" y1="183.8" x2="382.1" y2="183.8"/>
		<line class="st0" x1="202.5" y1="186.8" x2="382.1" y2="186.8"/>
		<line class="st0" x1="202.5" y1="189.8" x2="382.1" y2="189.8"/>
		<line class="st0" x1="202.5" y1="192.8" x2="382.1" y2="192.8"/>
		<line class="st0" x1="202.5" y1="195.8" x2="382.1" y2="195.8"/>
		<line class="st0" x1="202.5" y1="198.8" x2="382.1" y2="198.8"/>
		<line class="st0" x1="202.5" y1="201.8" x2="382.1" y2="201.8"/>
		<line class="st0" x1="202.5" y1="204.8" x2="382.1" y2="204.8"/>
		<line class="st0" x1="202.5" y1="207.8" x2="382.1" y2="207.8"/>
		<line class="st0" x1="202.5" y1="210.8" x2="382.1" y2="210.8"/>
	</g>
</g>
<g>
	<line class="st1" x1="10" y1="10" x2="0" y2="0"/>
</g>
</svg>
