<?xml version="1.0" encoding="utf-8"?>
<!-- Generator: Adobe Illustrator 22.0.0, SVG Export Plug-In . SVG Version: 6.00 Build 0)  -->
<svg version="1.1" id="Layer_1" xmlns="http://www.w3.org/2000/svg" xmlns:xlink="http://www.w3.org/1999/xlink" x="0px" y="0px"
	 width="595.3px" height="841.9px" viewBox="0 0 595.3 841.9" style="enable-background:new 0 0 595.3 841.9;" xml:space="preserve"
	>
<style type="text/css">
	.st0{fill:none;stroke:#36B168;stroke-miterlimit:10;stroke-opacity:0.898;}
	.st1{opacity:0.898;fill:none;stroke:#02A856;stroke-miterlimit:10;}
	.st2{opacity:0.898;fill:none;stroke:#36B168;stroke-miterlimit:10;}
	.st3{fill:none;stroke:#231F20;stroke-linecap:round;stroke-miterlimit:10;stroke-opacity:0.898;}
</style>
<g>
	<g>
		<g transform="translate(105,105) rotate(-0.2254) translate(-105,-88)">
			<line class="st0" x1="0.2" y1="450" x2="209.7" y2="450"/>
		</g>
		<g transform="translate(105,105) rotate(-0.2254) translate(-105,-88)">
			<line class="st0" x1="0.2" y1="453" x2="209.7" y2="453"/>
			<line class="st0" x1="0.2" y1="456" x2="209.7" y2="456"/>
			<line class="st0" x1="0.2" y1="459" x2="209.7" y2="459"/>
			<line class="st0" x1="0.2" y1="462" x2="209.7" y2="462"/>
			<line class="st0" x1="0.2" y1="465" x2="209.7" y2="465"/>
			<line class="st0" x1="0.2" y1="468" x2="209.7" y2="468"/>
			<line class="st0" x1="0.2" y1="471" x2="209.7" y2="471"/>
			<line class="st0" x1="0.2" y1="474" x2="209.7" y2="474"/>
			<line class="st0" x1="0.2" y1="477" x2="209.7" y2="477"/>
			<line class="st0" x1="0.2" y1="480" x2="209.7" y2="480"/>
			<line class="st0" x1="0.2" y1="483" x2="209.7" y2="483"/>
			<line class="st0" x1="0.2" y1="486" x2="209.7" y2="486"/>
			<line class="st0" x1="0.2" y1="489" x2="209.7" y2="489"/>
			<line class="st0" x1="0.2" y1="492" x2="209.7" y2="492"/>
			<line class="st0" x1="0.2" y1="495" x2="209.7" y2="495"/>
			<line class="st0" x1="0.2" y1="498" x2="209.7" y2="498"/>
			<line class="st0" x1="0.2" y1="501" x2="209.7" y2="501"/>
			<line class="st0" x1="0.2" y1="504" x2="209.7" y2="504"/>
			<line class="st0" x1="0.2" y1="507" x2="209.7" y2="507"/>
			<line class="st0" x1="0.2" y1="510" x2="209.7" y2="510"/>
			<line class="st0" x1="0.2" y1="513" x2="209.7" y2="513"/>
			<line class="st0" x1="0.2" y1="516" x2="209.7" y2="516"/>
			<line class="st0" x1="0.2" y1="519" x2="209.7" y2="519"/>
			<line class="st0" x1="0.2" y1="522" x2="209.7" y2="522"/>
			<line class="st0" x1="0.2" y1="525" x2="209.7" y2="525"/>
			<line class="st0" x1="0.2" y1="528" x2="209.7" y2="528"/>
			<line class="st0" x1="0.2" y1="531" x2="209.7" y2="531"/>
			<line class="st0" x1="0.2" y1="534" x2="209.7" y2="534"/>
			<line class="st0" x1="0.2" y1="537" x2="209.7" y2="537"/>
			<line class="st0" x1="0.2" y1="540" x2="209.7" y2="540"/>
			<line class="st0" x1="0.2" y1="543" x2="209.7" y2="543"/>
			<line class="st0" x1="0.2" y1="546" x2="209.7" y2="546"/>
			<line class="st0" x1="0.2" y1="549" x2="209.7" y2="549"/>
			<line class="st0" x1="0.2" y1="552" x2="209.7" y2="552"/>
			<line class="st0" x1="0.2" y1="555" x2="209.7" y2="555"/>
			<line class="st0" x1="0.2" y1="558" x2="209.7" y2="558"/>
			<line class="st0" x1="0.2" y1="561" x2="209.7" y2="561"/>
			<line class="st0" x1="0.2" y1="564" x2="209.7" y2="564"/>
			<line class="st0" x1="0.2" y1="567" x2="209.7" y2="567"/>
			<line class="st0" x1="0.2" y1="570" x2="209.7" y2="570"/>
			<line class="st0" x1="0.2" y1="573" x2="209.7" y2="573"/>
		</g>
	</g>
	<g>
		<g>
			<g transform="translate(105,105) rotate(-0.699) translate(-90,-97)">
				<g>
					<line class="st1" x1="401.7" y1="61.9" x2="580.3" y2="61.9"/>
				</g>
				<g>
					<line class="st1" x1="401.7" y1="64.9" x2="580.3" y2="64.9"/>
				</g>
				<g>
					<line class="st1" x1="401.7" y1="67.9" x2="580.3" y2="67.9"/>
				</g>
				<g>
					<line class="st1" x1="401.7" y1="70.9" x2="580.3" y2="70.9"/>
				</g>
				<g>
					<line class="st1" x1="401.7" y1="73.9" x2="580.3" y2="73.9"/>
				</g>
				<g>
					<line class="st1" x1="401.7" y1="76.9" x2="580.3" y2="76.9"/>
				</g>
				<g>
					<line class="st1" x1="401.7" y1="79.9" x2="580.3" y2="79.9"/>
				</g>
				<g>
					<line class="st1" x1="401.7" y1="82.9" x2="580.3" y2="82.9"/>
				</g>
				<g>
					<line class="st1" x1="401.7" y1="85.9" x2="580.3" y2="85.9"/>
				</g>
				<g>
					<line class="st1" x1="401.7" y1="88.9" x2="580.3" y2="88.9"/>
				</g>
				<g>
					<line class="st1" x1="401.7" y1="91.9" x2="580.3" y2="91.9"/>
				</g>
				<g>
					<line class="st1" x1="401.7" y1="94.9" x2="580.3" y2="94.9"/>
				</g>
				<g>
					<line class="st1" x1="401.7" y1="97.9" x2="580.3" y2="97.9"/>
				</g>
				<g>
					<line class="st1" x1="401.7" y1="100.9" x2="580.3" y2="100.9"/>
				</g>
				<g>
					<line class="st1" x1="401.7" y1="103.9" x2="580.3" y2="103.9"/>
				</g>
				<g>
					<line class="st1" x1="401.7" y1="106.9" x2="580.3" y2="106.9"/>
				</g>
				<g>
					<line class="st1" x1="401.7" y1="109.9" x2="580.3" y2="109.9"/>
				</g>
				<g>
					<line class="st1" x1="401.7" y1="112.9" x2="580.3" y2="112.9"/>
				</g>
				<g>
					<line class="st1" x1="401.7" y1="115.9" x2="580.3" y2="115.9"/>
				</g>
				<g>
					<line class="st1" x1="401.7" y1="118.9" x2="580.3" y2="118.9"/>
				</g>
				<g>
					<line class="st1" x1="401.7" y1="121.9" x2="580.3" y2="121.9"/>
				</g>
				<g>
					<line class="st1" x1="401.7" y1="124.9" x2="580.3" y2="124.9"/>
				</g>
				<g>
					<line class="st1" x1="401.7" y1="127.9" x2="580.3" y2="127.9"/>
				</g>
				<g>
					<line class="st1" x1="401.7" y1="130.9" x2="580.3" y2="130.9"/>
				</g>
				<g>
					<line class="st1" x1="401.7" y1="133.9" x2="580.3" y2="133.9"/>
				</g>
			</g>
		</g>
	</g>
	<g>
		<g>
			<g transform="translate(105,105) rotate(-0.4743) translate(-100,-66)">
				<g>
					<line class="st2" x1="199" y1="245.7" x2="397.2" y2="245.7"/>
				</g>
			</g>
			<g transform="translate(105,105) rotate(-0.4743) translate(-100,-66)">
				<g>
					<line class="st2" x1="199" y1="248.7" x2="397.2" y2="248.7"/>
				</g>
				<g>
					<line class="st2" x1="199" y1="251.7" x2="397.2" y2="251.7"/>
				</g>
				<g>
					<line class="st2" x1="199" y1="254.7" x2="397.2" y2="254.7"/>
				</g>
				<g>
					<line class="st2" x1="199" y1="257.7" x2="397.2" y2="257.7"/>
				</g>
				<g>
					<line class="st2" x1="199" y1="260.7" x2="397.2" y2="260.7"/>
				</g>
				<g>
					<line class="st2" x1="199" y1="263.7" x2="397.2" y2="263.7"/>
				</g>
				<g>
					<line class="st2" x1="199" y1="266.7" x2="397.2" y2="266.7"/>
				</g>
				<g>
					<line class="st2" x1="199" y1="269.7" x2="397.2" y2="269.7"/>
				</g>
				<g>
					<line class="st2" x1="199" y1="272.7" x2="397.2" y2="272.7"/>
				</g>
				<g>
					<line class="st2" x1="199" y1="275.7" x2="397.2" y2="275.7"/>
				</g>
				<g>
					<line class="st2" x1="199" y1="278.7" x2="397.2" y2="278.7"/>
				</g>
				<g>
					<line class="st2" x1="199" y1="281.7" x2="397.2" y2="281.7"/>
				</g>
				<g>
					<line class="st2" x1="199" y1="284.7" x2="397.2" y2="284.7"/>
				</g>
				<g>
					<line class="st2" x1="199" y1="287.7" x2="397.2" y2="287.7"/>
				</g>
				<g>
					<line class="st2" x1="199" y1="290.7" x2="397.2" y2="290.7"/>
				</g>
				<g>
					<line class="st2" x1="199" y1="293.7" x2="397.2" y2="293.7"/>
				</g>
				<g>
					<line class="st2" x1="199" y1="296.7" x2="397.2" y2="296.7"/>
				</g>
				<g>
					<line class="st2" x1="199" y1="299.7" x2="397.2" y2="299.7"/>
				</g>
				<g>
					<line class="st2" x1="199" y1="302.7" x2="397.2" y2="302.7"/>
				</g>
				<g>
					<line class="st2" x1="199" y1="305.7" x2="397.2" y2="305.7"/>
				</g>
				<g>
					<line class="st2" x1="199" y1="308.7" x2="397.2" y2="308.7"/>
				</g>
				<g>
					<line class="st2" x1="199" y1="311.7" x2="397.2" y2="311.7"/>
				</g>
				<g>
					<line class="st2" x1="199" y1="314.7" x2="397.2" y2="314.7"/>
				</g>
				<g>
					<line class="st2" x1="199" y1="317.7" x2="397.2" y2="317.7"/>
				</g>
				<g>
					<line class="st2" x1="199" y1="320.7" x2="397.2" y2="320.7"/>
				</g>
				<g>
					<line class="st2" x1="199" y1="323.7" x2="397.2" y2="323.7"/>
				</g>
				<g>
					<line class="st2" x1="199" y1="326.7" x2="397.2" y2="326.7"/>
				</g>
				<g>
					<line class="st2" x1="199" y1="329.7" x2="397.2" y2="329.7"/>
				</g>
				<g>
					<line class="st2" x1="199" y1="332.7" x2="397.2" y2="332.7"/>
				</g>
				<g>
					<line class="st2" x1="199" y1="335.7" x2="397.2" y2="335.7"/>
				</g>
				<g>
					<line class="st2" x1="199" y1="338.7" x2="397.2" y2="338.7"/>
				</g>
				<g>
					<line class="st2" x1="199" y1="341.7" x2="397.2" y2="341.7"/>
				</g>
				<g>
					<line class="st2" x1="199" y1="344.7" x2="397.2" y2="344.7"/>
				</g>
				<g>
					<line class="st2" x1="199" y1="347.7" x2="397.2" y2="347.7"/>
				</g>
				<g>
					<line class="st2" x1="199" y1="350.7" x2="397.2" y2="350.7"/>
				</g>
				<g>
					<line class="st2" x1="199" y1="353.7" x2="397.2" y2="353.7"/>
				</g>
				<g>
					<line class="st2" x1="199" y1="356.7" x2="397.2" y2="356.7"/>
				</g>
				<g>
					<line class="st2" x1="199" y1="359.7" x2="397.2" y2="359.7"/>
				</g>
				<g>
					<line class="st2" x1="199" y1="362.7" x2="397.2" y2="362.7"/>
				</g>
				<g>
					<line class="st2" x1="199" y1="365.7" x2="397.2" y2="365.7"/>
				</g>
				<g>
					<line class="st2" x1="199" y1="368.7" x2="397.2" y2="368.7"/>
				</g>
				<g>
					<line class="st2" x1="199" y1="371.7" x2="397.2" y2="371.7"/>
				</g>
				<g>
					<line class="st2" x1="199" y1="374.7" x2="397.2" y2="374.7"/>
				</g>
				<g>
					<line class="st2" x1="199" y1="377.7" x2="397.2" y2="377.7"/>
				</g>
				<g>
					<line class="st2" x1="199" y1="380.7" x2="397.2" y2="380.7"/>
				</g>
				<g>
					<line class="st2" x1="199" y1="383.7" x2="397.2" y2="383.7"/>
				</g>
				<g>
					<line class="st2" x1="199" y1="386.7" x2="397.2" y2="386.7"/>
				</g>
			</g>
		</g>
	</g>
	<g>
		<g>
			<g transform="translate(105,105) rotate(-0.699) translate(-90,-97)">
				<g>
					<line class="st1" x1="400.3" y1="137.9" x2="579" y2="137.9"/>
				</g>
			</g>
			<g transform="translate(105,105) rotate(-0.699) translate(-90,-97)">
				<g>
					<line class="st1" x1="400.3" y1="140.9" x2="579" y2="140.9"/>
				</g>
				<g>
					<line class="st1" x1="400.3" y1="143.9" x2="579" y2="143.9"/>
				</g>
				<g>
					<line class="st1" x1="400.3" y1="146.9" x2="579" y2="146.9"/>
				</g>
				<g>
					<line class="st1" x1="400.3" y1="149.9" x2="579" y2="149.9"/>
				</g>
				<g>
					<line class="st1" x1="400.3" y1="152.9" x2="579" y2="152.9"/>
				</g>
				<g>
					<line class="st1" x1="400.3" y1="155.9" x2="579" y2="155.9"/>
				</g>
				<g>
					<line class="st1" x1="400.3" y1="158.9" x2="579" y2="158.9"/>
				</g>
				<g>
					<line class="st1" x1="400.3" y1="161.9" x2="579" y2="161.9"/>
				</g>
				<g>
					<line class="st1" x1="400.3" y1="164.9" x2="579" y2="164.9"/>
				</g>
				<g>
					<line class="st1" x1="400.3" y1="167.9" x2="579" y2="167.9"/>
				</g>
				<g>
					<line class="st1" x1="400.3" y1="170.9" x2="579" y2="170.9"/>
				</g>
				<g>
					<line class="st1" x1="400.3" y1="173.9" x2="579" y2="173.9"/>
				</g>
				<g>
					<line class="st1" x1="400.3" y1="176.9" x2="579" y2="176.9"/>
				</g>
				<g>
					<line class="st1" x1="400.3" y1="179.9" x2="579" y2="179.9"/>
				</g>
				<g>
					<line class="st1" x1="400.3" y1="182.9" x2="579" y2="182.9"/>
				</g>
				<g>
					<line class="st1" x1="400.3" y1="185.9" x2="579" y2="185.9"/>
				</g>
				<g>
					<line class="st1" x1="400.3" y1="188.9" x2="579" y2="188.9"/>
				</g>
				<g>
					<line class="st1" x1="400.3" y1="191.9" x2="579" y2="191.9"/>
				</g>
				<g>
					<line class="st1" x1="400.3" y1="194.9" x2="579" y2="194.9"/>
				</g>
				<g>
					<line class="st1" x1="400.3" y1="197.9" x2="579" y2="197.9"/>
				</g>
				<g>
					<line class="st1" x1="400.3" y1="200.9" x2="579" y2="200.9"/>
				</g>
				<g>
					<line class="st1" x1="400.3" y1="203.9" x2="579" y2="203.9"/>
				</g>
				<g>
					<line class="st1" x1="400.3" y1="206.9" x2="579" y2="206.9"/>
				</g>
				<g>
					<line class="st1" x1="400.3" y1="209.9" x2="579" y2="209.9"/>
				</g>
				<g>
					<line class="st1" x1="400.3" y1="212.9" x2="579" y2="212.9"/>
				</g>
				<g>
					<line class="st1" x1="400.3" y1="215.9" x2="579" y2="215.9"/>
				</g>
				<g>
					<line class="st1" x1="400.3" y1="218.9" x2="579" y2="218.9"/>
				</g>
				<g>
					<line class="st1" x1="400.3" y1="221.9" x2="579" y2="221.9"/>
				</g>
				<g>
					<line class="st1" x1="400.3" y1="224.9" x2="579" y2="224.9"/>
				</g>
				<g>
					<line class="st1" x1="400.3" y1="227.9" x2="579" y2="227.9"/>
				</g>
				<g>
					<line class="st1" x1="400.3" y1="230.9" x2="579" y2="230.9"/>
				</g>
				<g>
					<line class="st1" x1="400.3" y1="233.9" x2="579" y2="233.9"/>
				</g>
				<g>
					<line class="st1" x1="400.3" y1="236.9" x2="579" y2="236.9"/>
				</g>
				<g>
					<line class="st1" x1="400.3" y1="239.9" x2="579" y2="239.9"/>
				</g>
				<g>
					<line class="st1" x1="400.3" y1="242.9" x2="579" y2="242.9"/>
				</g>
			</g>
		</g>
	</g>
	<g>
		<line class="st3" x1="10" y1="10" x2="0" y2="0"/>
	</g>
</g>
</svg>
