<?xml version="1.0" encoding="utf-8"?>
<!-- Generator: Adobe Illustrator 22.0.0, SVG Export Plug-In . SVG Version: 6.00 Build 0)  -->
<svg version="1.1" id="Layer_1" xmlns="http://www.w3.org/2000/svg" xmlns:xlink="http://www.w3.org/1999/xlink" x="0px" y="0px"
	 width="595.3px" height="841.9px" viewBox="0 0 595.3 841.9" style="enable-background:new 0 0 595.3 841.9;" xml:space="preserve"
	>
<style type="text/css">
	.st0{opacity:0.9;}
	.st1{fill:none;stroke:#F9A11B;stroke-miterlimit:10;stroke-opacity:0.898;}
	.st2{fill:none;stroke:#231F20;stroke-linecap:round;stroke-miterlimit:10;stroke-opacity:0.898;}
</style>
<g class="st0">
	<g transform="translate(105,105) rotate(-2.9564) translate(-93,-96)">
		<line class="st1" x1="5.1" y1="94.1" x2="189.2" y2="94.1"/>
	</g>
	<g transform="translate(105,105) rotate(-2.9564) translate(-93,-96)">
		<line class="st1" x1="5.1" y1="97.1" x2="189.2" y2="97.1"/>
		<line class="st1" x1="5.1" y1="100.1" x2="189.2" y2="100.1"/>
		<line class="st1" x1="5.1" y1="103.1" x2="189.2" y2="103.1"/>
		<line class="st1" x1="5.1" y1="106.1" x2="189.2" y2="106.1"/>
		<line class="st1" x1="5.1" y1="109.1" x2="189.2" y2="109.1"/>
		<line class="st1" x1="5.1" y1="112.1" x2="189.2" y2="112.1"/>
		<line class="st1" x1="5.1" y1="115.1" x2="189.2" y2="115.1"/>
		<line class="st1" x1="5.1" y1="118.1" x2="189.2" y2="118.1"/>
		<line class="st1" x1="5.1" y1="121.1" x2="189.2" y2="121.1"/>
		<line class="st1" x1="5.1" y1="124.1" x2="189.2" y2="124.1"/>
		<line class="st1" x1="5.1" y1="127.1" x2="189.2" y2="127.1"/>
		<line class="st1" x1="5.1" y1="130.1" x2="189.2" y2="130.1"/>
		<line class="st1" x1="5.1" y1="133.1" x2="189.2" y2="133.1"/>
		<line class="st1" x1="5.1" y1="136.1" x2="189.2" y2="136.1"/>
		<line class="st1" x1="5.1" y1="139.1" x2="189.2" y2="139.1"/>
		<line class="st1" x1="5.1" y1="142.1" x2="189.2" y2="142.1"/>
		<line class="st1" x1="5.1" y1="145.1" x2="189.2" y2="145.1"/>
		<line class="st1" x1="5.1" y1="148.1" x2="189.2" y2="148.1"/>
		<line class="st1" x1="5.1" y1="151.1" x2="189.2" y2="151.1"/>
		<line class="st1" x1="5.1" y1="154.1" x2="189.2" y2="154.1"/>
		<line class="st1" x1="5.1" y1="157.1" x2="189.2" y2="157.1"/>
		<line class="st1" x1="5.1" y1="160.1" x2="189.2" y2="160.1"/>
		<line class="st1" x1="5.1" y1="163.1" x2="189.2" y2="163.1"/>
		<line class="st1" x1="5.1" y1="166.1" x2="189.2" y2="166.1"/>
		<line class="st1" x1="5.1" y1="169.1" x2="189.2" y2="169.1"/>
		<line class="st1" x1="5.1" y1="172.1" x2="189.2" y2="172.1"/>
		<line class="st1" x1="5.1" y1="175.1" x2="189.2" y2="175.1"/>
		<line class="st1" x1="5.1" y1="178.1" x2="189.2" y2="178.1"/>
		<line class="st1" x1="5.1" y1="181.1" x2="189.2" y2="181.1"/>
		<line class="st1" x1="5.1" y1="184.1" x2="189.2" y2="184.1"/>
		<line class="st1" x1="5.1" y1="187.1" x2="189.2" y2="187.1"/>
		<line class="st1" x1="5.1" y1="190.1" x2="189.2" y2="190.1"/>
		<line class="st1" x1="5.1" y1="193.1" x2="189.2" y2="193.1"/>
		<line class="st1" x1="5.1" y1="196.1" x2="189.2" y2="196.1"/>
		<line class="st1" x1="5.1" y1="199.1" x2="189.2" y2="199.1"/>
		<line class="st1" x1="5.1" y1="202.1" x2="189.2" y2="202.1"/>
		<line class="st1" x1="5.1" y1="205.1" x2="189.2" y2="205.1"/>
		<line class="st1" x1="5.1" y1="208.1" x2="189.2" y2="208.1"/>
		<line class="st1" x1="5.1" y1="211.1" x2="189.2" y2="211.1"/>
		<line class="st1" x1="5.1" y1="214.1" x2="189.2" y2="214.1"/>
		<line class="st1" x1="5.1" y1="217.1" x2="189.2" y2="217.1"/>
		<line class="st1" x1="5.1" y1="220.1" x2="189.2" y2="220.1"/>
		<line class="st1" x1="5.1" y1="223.1" x2="189.2" y2="223.1"/>
		<line class="st1" x1="5.1" y1="226.1" x2="189.2" y2="226.1"/>
		<line class="st1" x1="5.1" y1="229.1" x2="189.2" y2="229.1"/>
		<line class="st1" x1="5.1" y1="232.1" x2="189.2" y2="232.1"/>
		<line class="st1" x1="5.1" y1="235.1" x2="189.2" y2="235.1"/>
		<line class="st1" x1="5.1" y1="238.1" x2="189.2" y2="238.1"/>
		<line class="st1" x1="5.1" y1="241.1" x2="189.2" y2="241.1"/>
	</g>
</g>
<g>
	<g transform="translate(105,105) rotate(-1.1135) translate(-91,-83)">
		<line class="st1" x1="398" y1="258.8" x2="578.5" y2="258.8"/>
	</g>
	<g transform="translate(105,105) rotate(-1.1135) translate(-91,-83)">
		<line class="st1" x1="398" y1="261.8" x2="578.5" y2="261.8"/>
		<line class="st1" x1="398" y1="264.8" x2="578.5" y2="264.8"/>
		<line class="st1" x1="398" y1="267.8" x2="578.5" y2="267.8"/>
		<line class="st1" x1="398" y1="270.8" x2="578.5" y2="270.8"/>
		<line class="st1" x1="398" y1="273.8" x2="578.5" y2="273.8"/>
		<line class="st1" x1="398" y1="276.8" x2="578.5" y2="276.8"/>
		<line class="st1" x1="398" y1="279.8" x2="578.5" y2="279.8"/>
		<line class="st1" x1="398" y1="282.8" x2="578.5" y2="282.8"/>
		<line class="st1" x1="398" y1="285.8" x2="578.5" y2="285.8"/>
		<line class="st1" x1="398" y1="288.8" x2="578.5" y2="288.8"/>
		<line class="st1" x1="398" y1="291.8" x2="578.5" y2="291.8"/>
		<line class="st1" x1="398" y1="294.8" x2="578.5" y2="294.8"/>
		<line class="st1" x1="398" y1="297.8" x2="578.5" y2="297.8"/>
		<line class="st1" x1="398" y1="300.8" x2="578.5" y2="300.8"/>
		<line class="st1" x1="398" y1="303.8" x2="578.5" y2="303.8"/>
		<line class="st1" x1="398" y1="306.8" x2="578.5" y2="306.8"/>
		<line class="st1" x1="398" y1="309.8" x2="578.5" y2="309.8"/>
		<line class="st1" x1="398" y1="312.8" x2="578.5" y2="312.8"/>
		<line class="st1" x1="398" y1="315.8" x2="578.5" y2="315.8"/>
		<line class="st1" x1="398" y1="318.8" x2="578.5" y2="318.8"/>
		<line class="st1" x1="398" y1="321.8" x2="578.5" y2="321.8"/>
		<line class="st1" x1="398" y1="324.8" x2="578.5" y2="324.8"/>
		<line class="st1" x1="398" y1="327.8" x2="578.5" y2="327.8"/>
		<line class="st1" x1="398" y1="330.8" x2="578.5" y2="330.8"/>
		<line class="st1" x1="398" y1="333.8" x2="578.5" y2="333.8"/>
		<line class="st1" x1="398" y1="336.8" x2="578.5" y2="336.8"/>
		<line class="st1" x1="398" y1="339.8" x2="578.5" y2="339.8"/>
		<line class="st1" x1="398" y1="342.8" x2="578.5" y2="342.8"/>
		<line class="st1" x1="398" y1="345.8" x2="578.5" y2="345.8"/>
		<line class="st1" x1="398" y1="348.8" x2="578.5" y2="348.8"/>
		<line class="st1" x1="398" y1="351.8" x2="578.5" y2="351.8"/>
		<line class="st1" x1="398" y1="354.8" x2="578.5" y2="354.8"/>
		<line class="st1" x1="398" y1="357.8" x2="578.5" y2="357.8"/>
		<line class="st1" x1="398" y1="360.8" x2="578.5" y2="360.8"/>
		<line class="st1" x1="398" y1="363.8" x2="578.5" y2="363.8"/>
		<line class="st1" x1="398" y1="366.8" x2="578.5" y2="366.8"/>
	</g>
</g>
<g>
	<g transform="translate(105,105) rotate(-1.0151) translate(-97,-94)">
		<line class="st1" x1="199.9" y1="459.6" x2="392.9" y2="459.6"/>
	</g>
	<g transform="translate(105,105) rotate(-1.0151) translate(-97,-94)">
		<line class="st1" x1="199.9" y1="462.6" x2="392.9" y2="462.6"/>
		<line class="st1" x1="199.9" y1="465.6" x2="392.9" y2="465.6"/>
		<line class="st1" x1="199.9" y1="468.6" x2="392.9" y2="468.6"/>
		<line class="st1" x1="199.9" y1="471.6" x2="392.9" y2="471.6"/>
		<line class="st1" x1="199.9" y1="474.6" x2="392.9" y2="474.6"/>
		<line class="st1" x1="199.9" y1="477.6" x2="392.9" y2="477.6"/>
		<line class="st1" x1="199.9" y1="480.6" x2="392.9" y2="480.6"/>
		<line class="st1" x1="199.9" y1="483.6" x2="392.9" y2="483.6"/>
		<line class="st1" x1="199.9" y1="486.6" x2="392.9" y2="486.6"/>
		<line class="st1" x1="199.9" y1="489.6" x2="392.9" y2="489.6"/>
		<line class="st1" x1="199.9" y1="492.6" x2="392.9" y2="492.6"/>
		<line class="st1" x1="199.9" y1="495.6" x2="392.9" y2="495.6"/>
		<line class="st1" x1="199.9" y1="498.6" x2="392.9" y2="498.6"/>
		<line class="st1" x1="199.9" y1="501.6" x2="392.9" y2="501.6"/>
		<line class="st1" x1="199.9" y1="504.6" x2="392.9" y2="504.6"/>
		<line class="st1" x1="199.9" y1="507.6" x2="392.9" y2="507.6"/>
		<line class="st1" x1="199.9" y1="510.6" x2="392.9" y2="510.6"/>
		<line class="st1" x1="199.9" y1="513.6" x2="392.9" y2="513.6"/>
		<line class="st1" x1="199.9" y1="516.6" x2="392.9" y2="516.6"/>
		<line class="st1" x1="199.9" y1="519.6" x2="392.9" y2="519.6"/>
		<line class="st1" x1="199.9" y1="522.6" x2="392.9" y2="522.6"/>
		<line class="st1" x1="199.9" y1="525.6" x2="392.9" y2="525.6"/>
		<line class="st1" x1="199.9" y1="528.6" x2="392.9" y2="528.6"/>
		<line class="st1" x1="199.9" y1="531.6" x2="392.9" y2="531.6"/>
		<line class="st1" x1="199.9" y1="534.6" x2="392.9" y2="534.6"/>
		<line class="st1" x1="199.9" y1="537.6" x2="392.9" y2="537.6"/>
		<line class="st1" x1="199.9" y1="540.6" x2="392.9" y2="540.6"/>
		<line class="st1" x1="199.9" y1="543.6" x2="392.9" y2="543.6"/>
		<line class="st1" x1="199.9" y1="546.6" x2="392.9" y2="546.6"/>
		<line class="st1" x1="199.9" y1="549.6" x2="392.9" y2="549.6"/>
		<line class="st1" x1="199.9" y1="552.6" x2="392.9" y2="552.6"/>
		<line class="st1" x1="199.9" y1="555.6" x2="392.9" y2="555.6"/>
		<line class="st1" x1="199.9" y1="558.6" x2="392.9" y2="558.6"/>
		<line class="st1" x1="199.9" y1="561.6" x2="392.9" y2="561.6"/>
		<line class="st1" x1="199.9" y1="564.6" x2="392.9" y2="564.6"/>
		<line class="st1" x1="199.9" y1="567.6" x2="392.9" y2="567.6"/>
		<line class="st1" x1="199.9" y1="570.6" x2="392.9" y2="570.6"/>
		<line class="st1" x1="199.9" y1="573.6" x2="392.9" y2="573.6"/>
		<line class="st1" x1="199.9" y1="576.6" x2="392.9" y2="576.6"/>
		<line class="st1" x1="199.9" y1="579.6" x2="392.9" y2="579.6"/>
		<line class="st1" x1="199.9" y1="582.6" x2="392.9" y2="582.6"/>
		<line class="st1" x1="199.9" y1="585.6" x2="392.9" y2="585.6"/>
	</g>
</g>
<g>
	<line class="st2" x1="10" y1="10" x2="0" y2="0"/>
</g>
</svg>
