<svg viewBox="-576,-300,1152,600" xmlns="http://www.w3.org/2000/svg" xmlns:xlink="http://www.w3.org/1999/xlink"><g stroke="#999" stroke-opacity="0.6"><line x1="16.264528620086814" y1="-66.72108159520225" x2="2.5058805619793536" y2="-11.378851377133568"/><line x1="16.264528620086814" y1="-66.72108159520225" x2="122.00201096943366" y2="-61.726983244529194"/><line x1="16.264528620086814" y1="-66.72108159520225" x2="92.924438332947" y2="-130.74933351702694"/><line x1="16.264528620086814" y1="-66.72108159520225" x2="30.097949249976956" y2="-51.75233504373637"/><line x1="16.264528620086814" y1="-66.72108159520225" x2="47.49354127416667" y2="-60.01352734324088"/><line x1="16.264528620086814" y1="-66.72108159520225" x2="48.029086473605624" y2="-84.7462178740328"/><line x1="16.264528620086814" y1="-66.72108159520225" x2="-119.79559824778691" y2="-58.17994725691885"/><line x1="16.264528620086814" y1="-66.72108159520225" x2="0.4339870378576306" y2="-81.9711660019481"/><line x1="16.264528620086814" y1="-66.72108159520225" x2="-7.8531749874825145" y2="-181.193742700079"/><line x1="16.264528620086814" y1="-66.72108159520225" x2="65.07026410984976" y2="117.54442341649664"/><line x1="2.5058805619793536" y1="-11.378851377133568" x2="-22.97699486024564" y2="23.97087882732856"/><line x1="2.5058805619793536" y1="-11.378851377133568" x2="20.440817110004236" y2="9.0083909370399"/><line x1="2.5058805619793536" y1="-11.378851377133568" x2="-11.787150782327316" y2="-3.150381526908111"/><line x1="122.00201096943366" y1="-61.726983244529194" x2="122.46073130538024" y2="-48.74198021371682"/><line x1="122.00201096943366" y1="-61.726983244529194" x2="125.9424282611553" y2="-72.62114020640107"/><line x1="122.00201096943366" y1="-61.726983244529194" x2="184.0752538934911" y2="-62.57969410250491"/><line x1="122.00201096943366" y1="-61.726983244529194" x2="143.18546234416758" y2="-39.22819165882436"/><line x1="122.00201096943366" y1="-61.726983244529194" x2="133.54156307696041" y2="-57.343081779123075"/><line x1="122.00201096943366" y1="-61.726983244529194" x2="132.46801379480578" y2="-41.524168406026185"/><line x1="122.00201096943366" y1="-61.726983244529194" x2="136.23616747058074" y2="-77.72821650135543"/><line x1="122.00201096943366" y1="-61.726983244529194" x2="144.31991939631573" y2="-55.24113382961516"/><line x1="122.00201096943366" y1="-61.726983244529194" x2="143.80038592932644" y2="-68.39162525355529"/><line x1="122.00201096943366" y1="-61.726983244529194" x2="148.1554395266018" y2="-79.77695669820383"/><line x1="122.00201096943366" y1="-61.726983244529194" x2="152.76618710606562" y2="-47.35455599800656"/><line x1="122.00201096943366" y1="-61.726983244529194" x2="154.62182326729985" y2="-63.043038402351165"/><line x1="92.924438332947" y1="-130.74933351702694" x2="139.28737774351947" y2="-166.53466588236643"/><line x1="92.924438332947" y1="-130.74933351702694" x2="108.73944150079936" y2="-133.89355437603382"/><line x1="92.924438332947" y1="-130.74933351702694" x2="94.12313796104952" y2="-151.77165557640055"/><line x1="92.924438332947" y1="-130.74933351702694" x2="119.6190132342237" y2="-137.33657219510718"/><line x1="92.924438332947" y1="-130.74933351702694" x2="104.42903538017757" y2="-145.72704617819775"/><line x1="92.924438332947" y1="-130.74933351702694" x2="104.90324118327712" y2="-159.10773624118778"/><line x1="92.924438332947" y1="-130.74933351702694" x2="116.22821389787305" y2="-150.01957403236955"/><line x1="30.097949249976956" y1="-51.75233504373637" x2="41.31528307716553" y2="-33.377370425572074"/><line x1="30.097949249976956" y1="-51.75233504373637" x2="51.42659977439437" y2="-40.46653054817271"/><line x1="30.097949249976956" y1="-51.75233504373637" x2="27.317582202428326" y2="-37.826495182779844"/><line x1="30.097949249976956" y1="-51.75233504373637" x2="40.10068658310029" y2="-46.47867445899897"/><line x1="47.49354127416667" y1="-60.01352734324088" x2="73.70066316967193" y2="-47.30370254537078"/><line x1="48.029086473605624" y1="-84.7462178740328" x2="48.82916996882096" y2="-96.2135377974318"/><line x1="48.029086473605624" y1="-84.7462178740328" x2="64.3194227079698" y2="-94.07183673970789"/><line x1="48.029086473605624" y1="-84.7462178740328" x2="67.98277912167204" y2="-76.8310180101345"/><line x1="48.029086473605624" y1="-84.7462178740328" x2="49.87313525529099" y2="-107.19698901569677"/><line x1="48.029086473605624" y1="-84.7462178740328" x2="70.3086998993084" y2="-103.50887617950383"/><line x1="48.029086473605624" y1="-84.7462178740328" x2="59.47133700315271" y2="-83.77763634991832"/><line x1="48.029086473605624" y1="-84.7462178740328" x2="60.69904457550548" y2="-111.0644851169722"/><line x1="48.029086473605624" y1="-84.7462178740328" x2="75.97926792107374" y2="-89.37836983565977"/><line x1="-119.79559824778691" y1="-58.17994725691885" x2="-121.34702802895879" y2="-36.159565633852445"/><line x1="-119.79559824778691" y1="-58.17994725691885" x2="-106.9295302606585" y2="-54.738093732458054"/><line x1="-119.79559824778691" y1="-58.17994725691885" x2="-109.40727210680647" y2="-26.38092101782536"/><line x1="-119.79559824778691" y1="-58.17994725691885" x2="-121.21513703055038" y2="-90.25707609074206"/><line x1="-119.79559824778691" y1="-58.17994725691885" x2="-99.9645094039357" y2="-34.695830988141196"/><line x1="-119.79559824778691" y1="-58.17994725691885" x2="-118.43118102242809" y2="-47.804372589139994"/><line x1="-119.79559824778691" y1="-58.17994725691885" x2="-105.61941473571011" y2="-68.01502425920124"/><line x1="-119.79559824778691" y1="-58.17994725691885" x2="-109.11076106633676" y2="-40.26644204062497"/><line x1="-119.79559824778691" y1="-58.17994725691885" x2="-110.5046765586465" y2="-81.7319715372093"/><line x1="-119.79559824778691" y1="-58.17994725691885" x2="-95.12061417975545" y2="-70.9726234698837"/><line x1="-119.79559824778691" y1="-58.17994725691885" x2="-119.21020680068325" y2="-21.823136486606302"/><line x1="-119.79559824778691" y1="-58.17994725691885" x2="-124.66155920349847" y2="-101.2806060936624"/><line x1="-119.79559824778691" y1="-58.17994725691885" x2="-96.31714859887514" y2="-46.494447383117596"/><line x1="-119.79559824778691" y1="-58.17994725691885" x2="-122.25634431992336" y2="-77.89831371115535"/><line x1="-119.79559824778691" y1="-58.17994725691885" x2="-99.95015857423728" y2="-84.18229578452981"/><line x1="-119.79559824778691" y1="-58.17994725691885" x2="-117.16863472688621" y2="-68.759223989968"/><line x1="-119.79559824778691" y1="-58.17994725691885" x2="-110.12210652951386" y2="-95.5479475720389"/><line x1="-119.79559824778691" y1="-58.17994725691885" x2="-94.13434272694798" y2="-58.91223797100483"/><line x1="-119.79559824778691" y1="-58.17994725691885" x2="-173.12895324105475" y2="-43.29617509438019"/><line x1="-119.79559824778691" y1="-58.17994725691885" x2="-139.81238578096466" y2="-99.86080269214766"/><line x1="-119.79559824778691" y1="-58.17994725691885" x2="-131.5227005267672" y2="-48.010086241937046"/><line x1="-119.79559824778691" y1="-58.17994725691885" x2="-146.75329973847565" y2="-86.3601339706854"/><line x1="-119.79559824778691" y1="-58.17994725691885" x2="-139.88727541344028" y2="-55.39790169502046"/><line x1="-119.79559824778691" y1="-58.17994725691885" x2="-135.04794845233124" y2="-36.79474049025657"/><line x1="-119.79559824778691" y1="-58.17994725691885" x2="-134.93079884014935" y2="-90.462481214289"/><line x1="-119.79559824778691" y1="-58.17994725691885" x2="-130.2391711497061" y2="-25.219460697325708"/><line x1="-119.79559824778691" y1="-58.17994725691885" x2="-144.20952180473725" y2="-70.72211995558379"/><line x1="-119.79559824778691" y1="-58.17994725691885" x2="-135.15220926914876" y2="-78.51461460544286"/><line x1="-119.79559824778691" y1="-58.17994725691885" x2="-133.1031538466654" y2="-65.71389474553663"/><line x1="0.4339870378576306" y1="-81.9711660019481" x2="-12.13106655572491" y2="-83.3748765338554"/><line x1="0.4339870378576306" y1="-81.9711660019481" x2="-3.4506364188172878" y2="-69.56071258742438"/><line x1="0.4339870378576306" y1="-81.9711660019481" x2="-15.431359630717088" y2="-71.65125715126236"/><line x1="0.4339870378576306" y1="-81.9711660019481" x2="-23.01749724265784" y2="-87.0852970125627"/><line x1="0.4339870378576306" y1="-81.9711660019481" x2="9.856382292415047" y2="-85.0549370749098"/><line x1="0.4339870378576306" y1="-81.9711660019481" x2="-17.310649093741336" y2="-97.46451910999888"/><line x1="0.4339870378576306" y1="-81.9711660019481" x2="-3.14833707737817" y2="-95.32818079518547"/><line x1="0.4339870378576306" y1="-81.9711660019481" x2="10.198423495333147" y2="-97.63740480201007"/><line x1="0.4339870378576306" y1="-81.9711660019481" x2="-10.306521307167602" y2="-106.83216935951187"/><line x1="0.4339870378576306" y1="-81.9711660019481" x2="3.01880052082943" y2="-107.64760991017218"/><line x1="-7.8531749874825145" y1="-181.193742700079" x2="-31.850204294113908" y2="-178.92940619275564"/><line x1="-7.8531749874825145" y1="-181.193742700079" x2="0.26411871219946054" y2="-181.16959071288824"/><line x1="-7.8531749874825145" y1="-181.193742700079" x2="-14.128844211030401" y2="-171.23331969912616"/><line x1="-7.8531749874825145" y1="-181.193742700079" x2="-33.57863868740362" y2="-190.15292387667003"/><line x1="-7.8531749874825145" y1="-181.193742700079" x2="6.761610749623266" y2="-174.2618583448391"/><line x1="-7.8531749874825145" y1="-181.193742700079" x2="-21.579099562007443" y2="-180.72310529234963"/><line x1="-7.8531749874825145" y1="-181.193742700079" x2="22.671612664437045" y2="-219.3834762895023"/><line x1="-7.8531749874825145" y1="-181.193742700079" x2="-0.796146191877121" y2="-193.66841572364527"/><line x1="-7.8531749874825145" y1="-181.193742700079" x2="-18.072503313215933" y2="-192.58796475170334"/><line x1="-7.8531749874825145" y1="-181.193742700079" x2="8.628351130631412" y2="-202.18968014308737"/><line x1="-7.8531749874825145" y1="-181.193742700079" x2="-41.151100633829486" y2="-220.84322442299163"/><line x1="-7.8531749874825145" y1="-181.193742700079" x2="18.104695155668036" y2="-195.96769245650898"/><line x1="-7.8531749874825145" y1="-181.193742700079" x2="13.074634483354023" y2="-186.63911584172945"/><line x1="-7.8531749874825145" y1="-181.193742700079" x2="-5.96924662893552" y2="-235.16304171501656"/><line x1="-7.8531749874825145" y1="-181.193742700079" x2="-12.209853216126314" y2="-213.30679020712282"/><line x1="-7.8531749874825145" y1="-181.193742700079" x2="-9.544940426608727" y2="-201.53056700394097"/><line x1="-7.8531749874825145" y1="-181.193742700079" x2="-31.732813629335496" y2="-201.25787933136624"/><line x1="-7.8531749874825145" y1="-181.193742700079" x2="0.8453537522773595" y2="-210.97745570640024"/><line x1="-7.8531749874825145" y1="-181.193742700079" x2="-22.457536753740698" y2="-207.59218571340045"/><line x1="65.07026410984976" y1="117.54442341649664" x2="36.723134857228864" y2="117.90388738486722"/><line x1="65.07026410984976" y1="117.54442341649664" x2="80.22307499021181" y2="105.88668680242522"/><line x1="65.07026410984976" y1="117.54442341649664" x2="148.8645858711664" y2="141.0681606022961"/><line x1="65.07026410984976" y1="117.54442341649664" x2="89.27503825615655" y2="154.2773266256751"/><line x1="65.07026410984976" y1="117.54442341649664" x2="119.23015871783136" y2="110.3501107606528"/><line x1="65.07026410984976" y1="117.54442341649664" x2="7.301175299989316" y2="209.88575928832975"/><line x1="65.07026410984976" y1="117.54442341649664" x2="64.41719753109298" y2="138.1394462707473"/><line x1="-22.97699486024564" y1="23.97087882732856" x2="-31.843001392308032" y2="36.441421791500915"/><line x1="-22.97699486024564" y1="23.97087882732856" x2="-40.62728538264517" y2="29.067117525214154"/><line x1="-22.97699486024564" y1="23.97087882732856" x2="-23.838863647617938" y2="43.862928340550354"/><line x1="-22.97699486024564" y1="23.97087882732856" x2="-40.69361993661562" y2="45.08711834445009"/><line x1="20.440817110004236" y1="9.0083909370399" x2="18.101647018027183" y2="28.59445094187335"/><line x1="20.440817110004236" y1="9.0083909370399" x2="28.854833008462155" y2="24.080979145696972"/><line x1="20.440817110004236" y1="9.0083909370399" x2="13.506758252516706" y2="17.921482199306613"/><line x1="20.440817110004236" y1="9.0083909370399" x2="34.447249725744626" y2="9.680851603846893"/><line x1="20.440817110004236" y1="9.0083909370399" x2="40.05191768890987" y2="20.066749776939485"/><line x1="-11.787150782327316" y1="-3.150381526908111" x2="-25.575719258597648" y2="1.9608151559628038"/><line x1="184.0752538934911" y1="-62.57969410250491" x2="201.30912532429875" y2="-44.32064022352611"/><line x1="184.0752538934911" y1="-62.57969410250491" x2="199.18341417719245" y2="-81.06758802770557"/><line x1="184.0752538934911" y1="-62.57969410250491" x2="199.61206158892608" y2="-69.31989375493227"/><line x1="184.0752538934911" y1="-62.57969410250491" x2="200.98208856062462" y2="-56.16436117262703"/><line x1="184.0752538934911" y1="-62.57969410250491" x2="211.10610568352152" y2="-80.81030169337652"/><line x1="184.0752538934911" y1="-62.57969410250491" x2="210.5996483972545" y2="-63.7218250314284"/><line x1="184.0752538934911" y1="-62.57969410250491" x2="213.2407957473189" y2="-47.18351524659885"/><line x1="184.0752538934911" y1="-62.57969410250491" x2="219.84957971656289" y2="-71.60615997636556"/><line x1="184.0752538934911" y1="-62.57969410250491" x2="221.0797214923914" y2="-57.23462587323215"/><line x1="139.28737774351947" y1="-166.53466588236643" x2="145.4815198850658" y2="-186.76329055518252"/><line x1="139.28737774351947" y1="-166.53466588236643" x2="164.32818045698528" y2="-169.85233485918383"/><line x1="139.28737774351947" y1="-166.53466588236643" x2="155.15577203662517" y2="-176.74162053291747"/><line x1="139.28737774351947" y1="-166.53466588236643" x2="156.3315138701867" y2="-191.8445800345894"/><line x1="139.28737774351947" y1="-166.53466588236643" x2="167.16478186689113" y2="-183.3060917338926"/><line x1="-173.12895324105475" y1="-43.29617509438019" x2="-169.10431258280875" y2="-29.863911068021263"/><line x1="-173.12895324105475" y1="-43.29617509438019" x2="-175.77588852130796" y2="-53.82354145212627"/><line x1="-173.12895324105475" y1="-43.29617509438019" x2="-172.20861159551626" y2="-6.1884822749785435"/><line x1="-173.12895324105475" y1="-43.29617509438019" x2="-180.96275742941847" y2="-63.29077518242198"/><line x1="-173.12895324105475" y1="-43.29617509438019" x2="-179.8293553929224" y2="-28.9419005079541"/><line x1="-173.12895324105475" y1="-43.29617509438019" x2="-185.28655878559545" y2="-45.531559078492585"/><line x1="-173.12895324105475" y1="-43.29617509438019" x2="-181.95035060749527" y2="-75.84929554825061"/><line x1="-173.12895324105475" y1="-43.29617509438019" x2="-181.76334109435027" y2="-14.087571876380702"/><line x1="-173.12895324105475" y1="-43.29617509438019" x2="-192.6908741750013" y2="-70.89581325849305"/><line x1="-173.12895324105475" y1="-43.29617509438019" x2="-169.47106508411204" y2="-17.97085834168323"/><line x1="-173.12895324105475" y1="-43.29617509438019" x2="-191.89256077353755" y2="-35.90001798172635"/><line x1="-173.12895324105475" y1="-43.29617509438019" x2="-192.70350366661046" y2="-83.64324892611721"/><line x1="-173.12895324105475" y1="-43.29617509438019" x2="-182.8316630246831" y2="-1.5263729810693099"/><line x1="-173.12895324105475" y1="-43.29617509438019" x2="-197.88939206323053" y2="-45.600900214318116"/><line x1="-173.12895324105475" y1="-43.29617509438019" x2="-192.97892914590236" y2="-57.54172946526803"/><line x1="-173.12895324105475" y1="-43.29617509438019" x2="-193.3334854019227" y2="-1.420014210896845"/><line x1="-173.12895324105475" y1="-43.29617509438019" x2="-202.7988317403133" y2="-66.47024439884113"/><line x1="-173.12895324105475" y1="-43.29617509438019" x2="-190.81437600853423" y2="-23.565687203074173"/><line x1="-173.12895324105475" y1="-43.29617509438019" x2="-206.28541256436574" y2="-38.52594849247477"/><line x1="-173.12895324105475" y1="-43.29617509438019" x2="-204.43684413396096" y2="-79.20178124857789"/><line x1="-173.12895324105475" y1="-43.29617509438019" x2="-202.9074974586587" y2="-25.546700522028008"/><line x1="-173.12895324105475" y1="-43.29617509438019" x2="-207.35217351670457" y2="-54.80586806570745"/><line x1="-173.12895324105475" y1="-43.29617509438019" x2="-197.42027461806404" y2="-12.959942664833306"/><line x1="-173.12895324105475" y1="-43.29617509438019" x2="-213.37292316421718" y2="-30.289202247774444"/><line x1="-173.12895324105475" y1="-43.29617509438019" x2="-216.9799752087576" y2="-60.96577420366043"/><line x1="-173.12895324105475" y1="-43.29617509438019" x2="-211.68756108653696" y2="-14.150828366195563"/><line x1="-173.12895324105475" y1="-43.29617509438019" x2="-217.26767298204854" y2="-44.87841486137302"/><line x1="-173.12895324105475" y1="-43.29617509438019" x2="-215.20425307038053" y2="-72.16501656376023"/><line x1="-173.12895324105475" y1="-43.29617509438019" x2="-221.15885331425764" y2="-21.79923778799266"/><line x1="-173.12895324105475" y1="-43.29617509438019" x2="-225.68759861209048" y2="-52.47712162878918"/><line x1="-173.12895324105475" y1="-43.29617509438019" x2="-205.86466170173554" y2="-3.9929328343883475"/><line x1="-173.12895324105475" y1="-43.29617509438019" x2="-225.4948230303134" y2="-35.15959776737617"/><line x1="22.671612664437045" y1="-219.3834762895023" x2="35.289159188237264" y2="-247.0297994376641"/><line x1="22.671612664437045" y1="-219.3834762895023" x2="44.80214349312596" y2="-240.12743330228543"/><line x1="-41.151100633829486" y1="-220.84322442299163" x2="-50.146863934630495" y2="-246.54129631272806"/><line x1="-41.151100633829486" y1="-220.84322442299163" x2="-62.43927996088619" y2="-234.48628335787754"/><line x1="-41.151100633829486" y1="-220.84322442299163" x2="-62.544187914862206" y2="-246.25813741310986"/><line x1="-5.96924662893552" y1="-235.16304171501656" x2="-6.069011572555017" y2="-255.33473904500752"/><line x1="-5.96924662893552" y1="-235.16304171501656" x2="6.543602529798384" y2="-260.8990236602767"/><line x1="-5.96924662893552" y1="-235.16304171501656" x2="-16.68351141215021" y2="-262.8135100535255"/><line x1="-5.96924662893552" y1="-235.16304171501656" x2="-4.191667849621957" y2="-268.74159222064975"/><line x1="36.723134857228864" y1="117.90388738486722" x2="23.44466321893297" y2="133.41935022802204"/><line x1="36.723134857228864" y1="117.90388738486722" x2="14.515176006927337" y2="126.33005488387819"/><line x1="36.723134857228864" y1="117.90388738486722" x2="32.87459164362874" y2="129.47050641018646"/><line x1="36.723134857228864" y1="117.90388738486722" x2="12.740903626571143" y2="115.30207071994319"/><line x1="36.723134857228864" y1="117.90388738486722" x2="24.374317282013088" y2="111.67058101539524"/><line x1="80.22307499021181" y1="105.88668680242522" x2="76.33507942732393" y2="88.33466774492463"/><line x1="80.22307499021181" y1="105.88668680242522" x2="65.50362980116535" y2="106.54858686363613"/><line x1="80.22307499021181" y1="105.88668680242522" x2="68.98281040488418" y2="96.77811309451134"/><line x1="80.22307499021181" y1="105.88668680242522" x2="77.16471823954639" y2="116.18270016059635"/><line x1="80.22307499021181" y1="105.88668680242522" x2="85.78529319252294" y2="94.98985006929999"/><line x1="80.22307499021181" y1="105.88668680242522" x2="91.85659887082244" y2="107.3854621246914"/><line x1="80.22307499021181" y1="105.88668680242522" x2="85.5504241367683" y2="124.95147120202132"/><line x1="80.22307499021181" y1="105.88668680242522" x2="101.56304938267701" y2="96.01394169687055"/><line x1="80.22307499021181" y1="105.88668680242522" x2="97.03062707549596" y2="122.33169183888599"/><line x1="80.22307499021181" y1="105.88668680242522" x2="93.59080306082414" y2="86.52314368430274"/><line x1="80.22307499021181" y1="105.88668680242522" x2="102.2952732131293" y2="110.43254900253864"/><line x1="148.8645858711664" y1="141.0681606022961" x2="152.3247359681221" y2="152.8477037503803"/><line x1="148.8645858711664" y1="141.0681606022961" x2="163.25790834017053" y2="151.0074532783712"/><line x1="148.8645858711664" y1="141.0681606022961" x2="171.9371762536936" y2="127.95401337996601"/><line x1="148.8645858711664" y1="141.0681606022961" x2="155.610336846983" y2="164.98455075178194"/><line x1="148.8645858711664" y1="141.0681606022961" x2="164.48414789115174" y2="137.2335345580473"/><line x1="148.8645858711664" y1="141.0681606022961" x2="195.98730831668937" y2="158.5583351905274"/><line x1="148.8645858711664" y1="141.0681606022961" x2="168.9362375512582" y2="163.28854153925485"/><line x1="148.8645858711664" y1="141.0681606022961" x2="179.50325545971623" y2="138.05256650995588"/><line x1="148.8645858711664" y1="141.0681606022961" x2="175.27115279855565" y2="150.0032540589167"/><line x1="89.27503825615655" y1="154.2773266256751" x2="100.44363246319261" y2="170.0481355355938"/><line x1="89.27503825615655" y1="154.2773266256751" x2="109.24873500350672" y2="164.08946212251354"/><line x1="89.27503825615655" y1="154.2773266256751" x2="105.53517511535429" y2="181.13777507081497"/><line x1="89.27503825615655" y1="154.2773266256751" x2="90.79166283922633" y2="176.14692314526428"/><line x1="119.23015871783136" y1="110.3501107606528" x2="138.55342750634716" y2="113.18417273888456"/><line x1="119.23015871783136" y1="110.3501107606528" x2="139.66618646520604" y2="98.05889233153268"/><line x1="119.23015871783136" y1="110.3501107606528" x2="149.69977584191727" y2="102.88079347528772"/><line x1="7.301175299989316" y1="209.88575928832975" x2="-2.905711215206249" y2="197.51225825947603"/><line x1="7.301175299989316" y1="209.88575928832975" x2="-40.87989712880595" y2="201.84721679956712"/><line x1="7.301175299989316" y1="209.88575928832975" x2="22.912475840652178" y2="250.27608969310657"/><line x1="7.301175299989316" y1="209.88575928832975" x2="22.272938639714063" y2="208.12288097069546"/><line x1="7.301175299989316" y1="209.88575928832975" x2="40.37638190159641" y2="233.27637837142592"/><line x1="7.301175299989316" y1="209.88575928832975" x2="-26.77999104978579" y2="245.69547174053582"/><line x1="7.301175299989316" y1="209.88575928832975" x2="0.8023820047037312" y2="217.79025519230547"/><line x1="7.301175299989316" y1="209.88575928832975" x2="20.54540947846518" y2="219.47194836370699"/><line x1="7.301175299989316" y1="209.88575928832975" x2="-9.387370251149195" y2="213.63859571266713"/><line x1="7.301175299989316" y1="209.88575928832975" x2="14.337559404211806" y2="228.50400613513034"/><line x1="7.301175299989316" y1="209.88575928832975" x2="2.5630357574030525" y2="228.0834653879611"/><line x1="195.98730831668937" y1="158.5583351905274" x2="206.75012150465895" y2="176.17192645144553"/><line x1="195.98730831668937" y1="158.5583351905274" x2="217.0862227631871" y2="153.42038209103063"/><line x1="195.98730831668937" y1="158.5583351905274" x2="216.7501355779345" y2="172.43256207795"/><line x1="195.98730831668937" y1="158.5583351905274" x2="222.91757415227815" y2="162.8025249437535"/><line x1="-2.905711215206249" y1="197.51225825947603" x2="5.434166376665433" y2="189.7608582141161"/><line x1="-2.905711215206249" y1="197.51225825947603" x2="-11.19240324794336" y2="185.51456330472098"/><line x1="-2.905711215206249" y1="197.51225825947603" x2="-21.067309861279114" y2="192.10513804037868"/><line x1="-40.87989712880595" y1="201.84721679956712" x2="-57.11106707186266" y2="190.257705642718"/><line x1="-40.87989712880595" y1="201.84721679956712" x2="-59.56144258999973" y2="207.33782404057047"/><line x1="-40.87989712880595" y1="201.84721679956712" x2="-75.00440549075101" y2="208.21923591040982"/><line x1="-40.87989712880595" y1="201.84721679956712" x2="-66.05483785509048" y2="198.3208235858061"/><line x1="-40.87989712880595" y1="201.84721679956712" x2="-75.00008177905046" y2="192.77534381072348"/><line x1="22.912475840652178" y1="250.27608969310657" x2="32.96636402763275" y2="268.10558869048236"/><line x1="22.912475840652178" y1="250.27608969310657" x2="23.615665324860235" y2="277.67301474268135"/><line x1="22.912475840652178" y1="250.27608969310657" x2="37.75910581426019" y2="278.9832036333095"/><line x1="40.37638190159641" y1="233.27637837142592" x2="51.652589605532185" y2="250.63052611483997"/><line x1="40.37638190159641" y1="233.27637837142592" x2="61.180750226703815" y2="241.62739961662496"/><line x1="40.37638190159641" y1="233.27637837142592" x2="62.51790845586253" y2="255.6587132515736"/><line x1="-26.77999104978579" y1="245.69547174053582" x2="-38.09900706590881" y2="242.68310213970125"/><line x1="-26.77999104978579" y1="245.69547174053582" x2="-15.297001084633548" y2="263.15554746278093"/><line x1="-26.77999104978579" y1="245.69547174053582" x2="-24.02582878033991" y2="256.435668351393"/><line x1="-26.77999104978579" y1="245.69547174053582" x2="-49.168711909772426" y2="240.20610765779017"/><line x1="-26.77999104978579" y1="245.69547174053582" x2="-19.623813397826552" y2="273.3442137853757"/><line x1="-26.77999104978579" y1="245.69547174053582" x2="-50.83581761551231" y2="253.79032095214492"/><line x1="-26.77999104978579" y1="245.69547174053582" x2="-38.67281991298751" y2="255.828398630516"/><line x1="-26.77999104978579" y1="245.69547174053582" x2="-28.84214450595605" y2="280.04974604985796"/><line x1="-26.77999104978579" y1="245.69547174053582" x2="-61.000125765316085" y2="244.79061182937772"/><line x1="-26.77999104978579" y1="245.69547174053582" x2="-31.768650816024653" y2="267.5452656256182"/><line x1="-26.77999104978579" y1="245.69547174053582" x2="-43.996739738370955" y2="265.82360827817087"/><line x1="-26.77999104978579" y1="245.69547174053582" x2="-64.67451987437009" y2="255.89149875195872"/><line x1="-26.77999104978579" y1="245.69547174053582" x2="-52.37338070687212" y2="275.06126223684817"/><line x1="-26.77999104978579" y1="245.69547174053582" x2="-60.539032785032674" y2="266.61126197179584"/><line x1="-26.77999104978579" y1="245.69547174053582" x2="-41.53542015519505" y2="279.468203058724"/></g><g fill="#fff" stroke="#000" stroke-width="1.5"><circle r="3.5" cx="16.264528620086814" cy="-66.72108159520225"><title>flare</title></circle><circle r="3.5" cx="2.5058805619793536" cy="-11.378851377133568"><title>analytics</title></circle><circle r="3.5" cx="122.00201096943366" cy="-61.726983244529194"><title>animate</title></circle><circle r="3.5" cx="92.924438332947" cy="-130.74933351702694"><title>data</title></circle><circle r="3.5" cx="30.097949249976956" cy="-51.75233504373637"><title>display</title></circle><circle r="3.5" cx="47.49354127416667" cy="-60.01352734324088"><title>flex</title></circle><circle r="3.5" cx="48.029086473605624" cy="-84.7462178740328"><title>physics</title></circle><circle r="3.5" cx="-119.79559824778691" cy="-58.17994725691885"><title>query</title></circle><circle r="3.5" cx="0.4339870378576306" cy="-81.9711660019481"><title>scale</title></circle><circle r="3.5" cx="-7.8531749874825145" cy="-181.193742700079"><title>util</title></circle><circle r="3.5" cx="65.07026410984976" cy="117.54442341649664"><title>vis</title></circle><circle r="3.5" cx="-22.97699486024564" cy="23.97087882732856"><title>cluster</title></circle><circle r="3.5" cx="20.440817110004236" cy="9.0083909370399"><title>graph</title></circle><circle r="3.5" cx="-11.787150782327316" cy="-3.150381526908111"><title>optimization</title></circle><circle fill="#000" stroke="#fff" r="3.5" cx="122.46073130538024" cy="-48.74198021371682"><title>Easing</title></circle><circle fill="#000" stroke="#fff" r="3.5" cx="125.9424282611553" cy="-72.62114020640107"><title>FunctionSequence</title></circle><circle r="3.5" cx="184.0752538934911" cy="-62.57969410250491"><title>interpolate</title></circle><circle fill="#000" stroke="#fff" r="3.5" cx="143.18546234416758" cy="-39.22819165882436"><title>ISchedulable</title></circle><circle fill="#000" stroke="#fff" r="3.5" cx="133.54156307696041" cy="-57.343081779123075"><title>Parallel</title></circle><circle fill="#000" stroke="#fff" r="3.5" cx="132.46801379480578" cy="-41.524168406026185"><title>Pause</title></circle><circle fill="#000" stroke="#fff" r="3.5" cx="136.23616747058074" cy="-77.72821650135543"><title>Scheduler</title></circle><circle fill="#000" stroke="#fff" r="3.5" cx="144.31991939631573" cy="-55.24113382961516"><title>Sequence</title></circle><circle fill="#000" stroke="#fff" r="3.5" cx="143.80038592932644" cy="-68.39162525355529"><title>Transition</title></circle><circle fill="#000" stroke="#fff" r="3.5" cx="148.1554395266018" cy="-79.77695669820383"><title>Transitioner</title></circle><circle fill="#000" stroke="#fff" r="3.5" cx="152.76618710606562" cy="-47.35455599800656"><title>TransitionEvent</title></circle><circle fill="#000" stroke="#fff" r="3.5" cx="154.62182326729985" cy="-63.043038402351165"><title>Tween</title></circle><circle r="3.5" cx="139.28737774351947" cy="-166.53466588236643"><title>converters</title></circle><circle fill="#000" stroke="#fff" r="3.5" cx="108.73944150079936" cy="-133.89355437603382"><title>DataField</title></circle><circle fill="#000" stroke="#fff" r="3.5" cx="94.12313796104952" cy="-151.77165557640055"><title>DataSchema</title></circle><circle fill="#000" stroke="#fff" r="3.5" cx="119.6190132342237" cy="-137.33657219510718"><title>DataSet</title></circle><circle fill="#000" stroke="#fff" r="3.5" cx="104.42903538017757" cy="-145.72704617819775"><title>DataSource</title></circle><circle fill="#000" stroke="#fff" r="3.5" cx="104.90324118327712" cy="-159.10773624118778"><title>DataTable</title></circle><circle fill="#000" stroke="#fff" r="3.5" cx="116.22821389787305" cy="-150.01957403236955"><title>DataUtil</title></circle><circle fill="#000" stroke="#fff" r="3.5" cx="41.31528307716553" cy="-33.377370425572074"><title>DirtySprite</title></circle><circle fill="#000" stroke="#fff" r="3.5" cx="51.42659977439437" cy="-40.46653054817271"><title>LineSprite</title></circle><circle fill="#000" stroke="#fff" r="3.5" cx="27.317582202428326" cy="-37.826495182779844"><title>RectSprite</title></circle><circle fill="#000" stroke="#fff" r="3.5" cx="40.10068658310029" cy="-46.47867445899897"><title>TextSprite</title></circle><circle fill="#000" stroke="#fff" r="3.5" cx="73.70066316967193" cy="-47.30370254537078"><title>FlareVis</title></circle><circle fill="#000" stroke="#fff" r="3.5" cx="48.82916996882096" cy="-96.2135377974318"><title>DragForce</title></circle><circle fill="#000" stroke="#fff" r="3.5" cx="64.3194227079698" cy="-94.07183673970789"><title>GravityForce</title></circle><circle fill="#000" stroke="#fff" r="3.5" cx="67.98277912167204" cy="-76.8310180101345"><title>IForce</title></circle><circle fill="#000" stroke="#fff" r="3.5" cx="49.87313525529099" cy="-107.19698901569677"><title>NBodyForce</title></circle><circle fill="#000" stroke="#fff" r="3.5" cx="70.3086998993084" cy="-103.50887617950383"><title>Particle</title></circle><circle fill="#000" stroke="#fff" r="3.5" cx="59.47133700315271" cy="-83.77763634991832"><title>Simulation</title></circle><circle fill="#000" stroke="#fff" r="3.5" cx="60.69904457550548" cy="-111.0644851169722"><title>Spring</title></circle><circle fill="#000" stroke="#fff" r="3.5" cx="75.97926792107374" cy="-89.37836983565977"><title>SpringForce</title></circle><circle fill="#000" stroke="#fff" r="3.5" cx="-121.34702802895879" cy="-36.159565633852445"><title>AggregateExpression</title></circle><circle fill="#000" stroke="#fff" r="3.5" cx="-106.9295302606585" cy="-54.738093732458054"><title>And</title></circle><circle fill="#000" stroke="#fff" r="3.5" cx="-109.40727210680647" cy="-26.38092101782536"><title>Arithmetic</title></circle><circle fill="#000" stroke="#fff" r="3.5" cx="-121.21513703055038" cy="-90.25707609074206"><title>Average</title></circle><circle fill="#000" stroke="#fff" r="3.5" cx="-99.9645094039357" cy="-34.695830988141196"><title>BinaryExpression</title></circle><circle fill="#000" stroke="#fff" r="3.5" cx="-118.43118102242809" cy="-47.804372589139994"><title>Comparison</title></circle><circle fill="#000" stroke="#fff" r="3.5" cx="-105.61941473571011" cy="-68.01502425920124"><title>CompositeExpression</title></circle><circle fill="#000" stroke="#fff" r="3.5" cx="-109.11076106633676" cy="-40.26644204062497"><title>Count</title></circle><circle fill="#000" stroke="#fff" r="3.5" cx="-110.5046765586465" cy="-81.7319715372093"><title>DateUtil</title></circle><circle fill="#000" stroke="#fff" r="3.5" cx="-95.12061417975545" cy="-70.9726234698837"><title>Distinct</title></circle><circle fill="#000" stroke="#fff" r="3.5" cx="-119.21020680068325" cy="-21.823136486606302"><title>Expression</title></circle><circle fill="#000" stroke="#fff" r="3.5" cx="-124.66155920349847" cy="-101.2806060936624"><title>ExpressionIterator</title></circle><circle fill="#000" stroke="#fff" r="3.5" cx="-96.31714859887514" cy="-46.494447383117596"><title>Fn</title></circle><circle fill="#000" stroke="#fff" r="3.5" cx="-122.25634431992336" cy="-77.89831371115535"><title>If</title></circle><circle fill="#000" stroke="#fff" r="3.5" cx="-99.95015857423728" cy="-84.18229578452981"><title>IsA</title></circle><circle fill="#000" stroke="#fff" r="3.5" cx="-117.16863472688621" cy="-68.759223989968"><title>Literal</title></circle><circle fill="#000" stroke="#fff" r="3.5" cx="-110.12210652951386" cy="-95.5479475720389"><title>Match</title></circle><circle fill="#000" stroke="#fff" r="3.5" cx="-94.13434272694798" cy="-58.91223797100483"><title>Maximum</title></circle><circle r="3.5" cx="-173.12895324105475" cy="-43.29617509438019"><title>methods</title></circle><circle fill="#000" stroke="#fff" r="3.5" cx="-139.81238578096466" cy="-99.86080269214766"><title>Minimum</title></circle><circle fill="#000" stroke="#fff" r="3.5" cx="-131.5227005267672" cy="-48.010086241937046"><title>Not</title></circle><circle fill="#000" stroke="#fff" r="3.5" cx="-146.75329973847565" cy="-86.3601339706854"><title>Or</title></circle><circle fill="#000" stroke="#fff" r="3.5" cx="-139.88727541344028" cy="-55.39790169502046"><title>Query</title></circle><circle fill="#000" stroke="#fff" r="3.5" cx="-135.04794845233124" cy="-36.79474049025657"><title>Range</title></circle><circle fill="#000" stroke="#fff" r="3.5" cx="-134.93079884014935" cy="-90.462481214289"><title>StringUtil</title></circle><circle fill="#000" stroke="#fff" r="3.5" cx="-130.2391711497061" cy="-25.219460697325708"><title>Sum</title></circle><circle fill="#000" stroke="#fff" r="3.5" cx="-144.20952180473725" cy="-70.72211995558379"><title>Variable</title></circle><circle fill="#000" stroke="#fff" r="3.5" cx="-135.15220926914876" cy="-78.51461460544286"><title>Variance</title></circle><circle fill="#000" stroke="#fff" r="3.5" cx="-133.1031538466654" cy="-65.71389474553663"><title>Xor</title></circle><circle fill="#000" stroke="#fff" r="3.5" cx="-12.13106655572491" cy="-83.3748765338554"><title>IScaleMap</title></circle><circle fill="#000" stroke="#fff" r="3.5" cx="-3.4506364188172878" cy="-69.56071258742438"><title>LinearScale</title></circle><circle fill="#000" stroke="#fff" r="3.5" cx="-15.431359630717088" cy="-71.65125715126236"><title>LogScale</title></circle><circle fill="#000" stroke="#fff" r="3.5" cx="-23.01749724265784" cy="-87.0852970125627"><title>OrdinalScale</title></circle><circle fill="#000" stroke="#fff" r="3.5" cx="9.856382292415047" cy="-85.0549370749098"><title>QuantileScale</title></circle><circle fill="#000" stroke="#fff" r="3.5" cx="-17.310649093741336" cy="-97.46451910999888"><title>QuantitativeScale</title></circle><circle fill="#000" stroke="#fff" r="3.5" cx="-3.14833707737817" cy="-95.32818079518547"><title>RootScale</title></circle><circle fill="#000" stroke="#fff" r="3.5" cx="10.198423495333147" cy="-97.63740480201007"><title>Scale</title></circle><circle fill="#000" stroke="#fff" r="3.5" cx="-10.306521307167602" cy="-106.83216935951187"><title>ScaleType</title></circle><circle fill="#000" stroke="#fff" r="3.5" cx="3.01880052082943" cy="-107.64760991017218"><title>TimeScale</title></circle><circle fill="#000" stroke="#fff" r="3.5" cx="-31.850204294113908" cy="-178.92940619275564"><title>Arrays</title></circle><circle fill="#000" stroke="#fff" r="3.5" cx="0.26411871219946054" cy="-181.16959071288824"><title>Colors</title></circle><circle fill="#000" stroke="#fff" r="3.5" cx="-14.128844211030401" cy="-171.23331969912616"><title>Dates</title></circle><circle fill="#000" stroke="#fff" r="3.5" cx="-33.57863868740362" cy="-190.15292387667003"><title>Displays</title></circle><circle fill="#000" stroke="#fff" r="3.5" cx="6.761610749623266" cy="-174.2618583448391"><title>Filter</title></circle><circle fill="#000" stroke="#fff" r="3.5" cx="-21.579099562007443" cy="-180.72310529234963"><title>Geometry</title></circle><circle r="3.5" cx="22.671612664437045" cy="-219.3834762895023"><title>heap</title></circle><circle fill="#000" stroke="#fff" r="3.5" cx="-0.796146191877121" cy="-193.66841572364527"><title>IEvaluable</title></circle><circle fill="#000" stroke="#fff" r="3.5" cx="-18.072503313215933" cy="-192.58796475170334"><title>IPredicate</title></circle><circle fill="#000" stroke="#fff" r="3.5" cx="8.628351130631412" cy="-202.18968014308737"><title>IValueProxy</title></circle><circle r="3.5" cx="-41.151100633829486" cy="-220.84322442299163"><title>math</title></circle><circle fill="#000" stroke="#fff" r="3.5" cx="18.104695155668036" cy="-195.96769245650898"><title>Maths</title></circle><circle fill="#000" stroke="#fff" r="3.5" cx="13.074634483354023" cy="-186.63911584172945"><title>Orientation</title></circle><circle r="3.5" cx="-5.96924662893552" cy="-235.16304171501656"><title>palette</title></circle><circle fill="#000" stroke="#fff" r="3.5" cx="-12.209853216126314" cy="-213.30679020712282"><title>Property</title></circle><circle fill="#000" stroke="#fff" r="3.5" cx="-9.544940426608727" cy="-201.53056700394097"><title>Shapes</title></circle><circle fill="#000" stroke="#fff" r="3.5" cx="-31.732813629335496" cy="-201.25787933136624"><title>Sort</title></circle><circle fill="#000" stroke="#fff" r="3.5" cx="0.8453537522773595" cy="-210.97745570640024"><title>Stats</title></circle><circle fill="#000" stroke="#fff" r="3.5" cx="-22.457536753740698" cy="-207.59218571340045"><title>Strings</title></circle><circle r="3.5" cx="36.723134857228864" cy="117.90388738486722"><title>axis</title></circle><circle r="3.5" cx="80.22307499021181" cy="105.88668680242522"><title>controls</title></circle><circle r="3.5" cx="148.8645858711664" cy="141.0681606022961"><title>data</title></circle><circle r="3.5" cx="89.27503825615655" cy="154.2773266256751"><title>events</title></circle><circle r="3.5" cx="119.23015871783136" cy="110.3501107606528"><title>legend</title></circle><circle r="3.5" cx="7.301175299989316" cy="209.88575928832975"><title>operator</title></circle><circle fill="#000" stroke="#fff" r="3.5" cx="64.41719753109298" cy="138.1394462707473"><title>Visualization</title></circle><circle fill="#000" stroke="#fff" r="3.5" cx="-31.843001392308032" cy="36.441421791500915"><title>AgglomerativeCluster</title></circle><circle fill="#000" stroke="#fff" r="3.5" cx="-40.62728538264517" cy="29.067117525214154"><title>CommunityStructure</title></circle><circle fill="#000" stroke="#fff" r="3.5" cx="-23.838863647617938" cy="43.862928340550354"><title>HierarchicalCluster</title></circle><circle fill="#000" stroke="#fff" r="3.5" cx="-40.69361993661562" cy="45.08711834445009"><title>MergeEdge</title></circle><circle fill="#000" stroke="#fff" r="3.5" cx="18.101647018027183" cy="28.59445094187335"><title>BetweennessCentrality</title></circle><circle fill="#000" stroke="#fff" r="3.5" cx="28.854833008462155" cy="24.080979145696972"><title>LinkDistance</title></circle><circle fill="#000" stroke="#fff" r="3.5" cx="13.506758252516706" cy="17.921482199306613"><title>MaxFlowMinCut</title></circle><circle fill="#000" stroke="#fff" r="3.5" cx="34.447249725744626" cy="9.680851603846893"><title>ShortestPaths</title></circle><circle fill="#000" stroke="#fff" r="3.5" cx="40.05191768890987" cy="20.066749776939485"><title>SpanningTree</title></circle><circle fill="#000" stroke="#fff" r="3.5" cx="-25.575719258597648" cy="1.9608151559628038"><title>AspectRatioBanker</title></circle><circle fill="#000" stroke="#fff" r="3.5" cx="201.30912532429875" cy="-44.32064022352611"><title>ArrayInterpolator</title></circle><circle fill="#000" stroke="#fff" r="3.5" cx="199.18341417719245" cy="-81.06758802770557"><title>ColorInterpolator</title></circle><circle fill="#000" stroke="#fff" r="3.5" cx="199.61206158892608" cy="-69.31989375493227"><title>DateInterpolator</title></circle><circle fill="#000" stroke="#fff" r="3.5" cx="200.98208856062462" cy="-56.16436117262703"><title>Interpolator</title></circle><circle fill="#000" stroke="#fff" r="3.5" cx="211.10610568352152" cy="-80.81030169337652"><title>MatrixInterpolator</title></circle><circle fill="#000" stroke="#fff" r="3.5" cx="210.5996483972545" cy="-63.7218250314284"><title>NumberInterpolator</title></circle><circle fill="#000" stroke="#fff" r="3.5" cx="213.2407957473189" cy="-47.18351524659885"><title>ObjectInterpolator</title></circle><circle fill="#000" stroke="#fff" r="3.5" cx="219.84957971656289" cy="-71.60615997636556"><title>PointInterpolator</title></circle><circle fill="#000" stroke="#fff" r="3.5" cx="221.0797214923914" cy="-57.23462587323215"><title>RectangleInterpolator</title></circle><circle fill="#000" stroke="#fff" r="3.5" cx="145.4815198850658" cy="-186.76329055518252"><title>Converters</title></circle><circle fill="#000" stroke="#fff" r="3.5" cx="164.32818045698528" cy="-169.85233485918383"><title>DelimitedTextConverter</title></circle><circle fill="#000" stroke="#fff" r="3.5" cx="155.15577203662517" cy="-176.74162053291747"><title>GraphMLConverter</title></circle><circle fill="#000" stroke="#fff" r="3.5" cx="156.3315138701867" cy="-191.8445800345894"><title>IDataConverter</title></circle><circle fill="#000" stroke="#fff" r="3.5" cx="167.16478186689113" cy="-183.3060917338926"><title>JSONConverter</title></circle><circle fill="#000" stroke="#fff" r="3.5" cx="-169.10431258280875" cy="-29.863911068021263"><title>add</title></circle><circle fill="#000" stroke="#fff" r="3.5" cx="-175.77588852130796" cy="-53.82354145212627"><title>and</title></circle><circle fill="#000" stroke="#fff" r="3.5" cx="-172.20861159551626" cy="-6.1884822749785435"><title>average</title></circle><circle fill="#000" stroke="#fff" r="3.5" cx="-180.96275742941847" cy="-63.29077518242198"><title>count</title></circle><circle fill="#000" stroke="#fff" r="3.5" cx="-179.8293553929224" cy="-28.9419005079541"><title>distinct</title></circle><circle fill="#000" stroke="#fff" r="3.5" cx="-185.28655878559545" cy="-45.531559078492585"><title>div</title></circle><circle fill="#000" stroke="#fff" r="3.5" cx="-181.95035060749527" cy="-75.84929554825061"><title>eq</title></circle><circle fill="#000" stroke="#fff" r="3.5" cx="-181.76334109435027" cy="-14.087571876380702"><title>fn</title></circle><circle fill="#000" stroke="#fff" r="3.5" cx="-192.6908741750013" cy="-70.89581325849305"><title>gt</title></circle><circle fill="#000" stroke="#fff" r="3.5" cx="-169.47106508411204" cy="-17.97085834168323"><title>gte</title></circle><circle fill="#000" stroke="#fff" r="3.5" cx="-191.89256077353755" cy="-35.90001798172635"><title>iff</title></circle><circle fill="#000" stroke="#fff" r="3.5" cx="-192.70350366661046" cy="-83.64324892611721"><title>isa</title></circle><circle fill="#000" stroke="#fff" r="3.5" cx="-182.8316630246831" cy="-1.5263729810693099"><title>lt</title></circle><circle fill="#000" stroke="#fff" r="3.5" cx="-197.88939206323053" cy="-45.600900214318116"><title>lte</title></circle><circle fill="#000" stroke="#fff" r="3.5" cx="-192.97892914590236" cy="-57.54172946526803"><title>max</title></circle><circle fill="#000" stroke="#fff" r="3.5" cx="-193.3334854019227" cy="-1.420014210896845"><title>min</title></circle><circle fill="#000" stroke="#fff" r="3.5" cx="-202.7988317403133" cy="-66.47024439884113"><title>mod</title></circle><circle fill="#000" stroke="#fff" r="3.5" cx="-190.81437600853423" cy="-23.565687203074173"><title>mul</title></circle><circle fill="#000" stroke="#fff" r="3.5" cx="-206.28541256436574" cy="-38.52594849247477"><title>neq</title></circle><circle fill="#000" stroke="#fff" r="3.5" cx="-204.43684413396096" cy="-79.20178124857789"><title>not</title></circle><circle fill="#000" stroke="#fff" r="3.5" cx="-202.9074974586587" cy="-25.546700522028008"><title>or</title></circle><circle fill="#000" stroke="#fff" r="3.5" cx="-207.35217351670457" cy="-54.80586806570745"><title>orderby</title></circle><circle fill="#000" stroke="#fff" r="3.5" cx="-197.42027461806404" cy="-12.959942664833306"><title>range</title></circle><circle fill="#000" stroke="#fff" r="3.5" cx="-213.37292316421718" cy="-30.289202247774444"><title>select</title></circle><circle fill="#000" stroke="#fff" r="3.5" cx="-216.9799752087576" cy="-60.96577420366043"><title>stddev</title></circle><circle fill="#000" stroke="#fff" r="3.5" cx="-211.68756108653696" cy="-14.150828366195563"><title>sub</title></circle><circle fill="#000" stroke="#fff" r="3.5" cx="-217.26767298204854" cy="-44.87841486137302"><title>sum</title></circle><circle fill="#000" stroke="#fff" r="3.5" cx="-215.20425307038053" cy="-72.16501656376023"><title>update</title></circle><circle fill="#000" stroke="#fff" r="3.5" cx="-221.15885331425764" cy="-21.79923778799266"><title>variance</title></circle><circle fill="#000" stroke="#fff" r="3.5" cx="-225.68759861209048" cy="-52.47712162878918"><title>where</title></circle><circle fill="#000" stroke="#fff" r="3.5" cx="-205.86466170173554" cy="-3.9929328343883475"><title>xor</title></circle><circle fill="#000" stroke="#fff" r="3.5" cx="-225.4948230303134" cy="-35.15959776737617"><title>_</title></circle><circle fill="#000" stroke="#fff" r="3.5" cx="35.289159188237264" cy="-247.0297994376641"><title>FibonacciHeap</title></circle><circle fill="#000" stroke="#fff" r="3.5" cx="44.80214349312596" cy="-240.12743330228543"><title>HeapNode</title></circle><circle fill="#000" stroke="#fff" r="3.5" cx="-50.146863934630495" cy="-246.54129631272806"><title>DenseMatrix</title></circle><circle fill="#000" stroke="#fff" r="3.5" cx="-62.43927996088619" cy="-234.48628335787754"><title>IMatrix</title></circle><circle fill="#000" stroke="#fff" r="3.5" cx="-62.544187914862206" cy="-246.25813741310986"><title>SparseMatrix</title></circle><circle fill="#000" stroke="#fff" r="3.5" cx="-6.069011572555017" cy="-255.33473904500752"><title>ColorPalette</title></circle><circle fill="#000" stroke="#fff" r="3.5" cx="6.543602529798384" cy="-260.8990236602767"><title>Palette</title></circle><circle fill="#000" stroke="#fff" r="3.5" cx="-16.68351141215021" cy="-262.8135100535255"><title>ShapePalette</title></circle><circle fill="#000" stroke="#fff" r="3.5" cx="-4.191667849621957" cy="-268.74159222064975"><title>SizePalette</title></circle><circle fill="#000" stroke="#fff" r="3.5" cx="23.44466321893297" cy="133.41935022802204"><title>Axes</title></circle><circle fill="#000" stroke="#fff" r="3.5" cx="14.515176006927337" cy="126.33005488387819"><title>Axis</title></circle><circle fill="#000" stroke="#fff" r="3.5" cx="32.87459164362874" cy="129.47050641018646"><title>AxisGridLine</title></circle><circle fill="#000" stroke="#fff" r="3.5" cx="12.740903626571143" cy="115.30207071994319"><title>AxisLabel</title></circle><circle fill="#000" stroke="#fff" r="3.5" cx="24.374317282013088" cy="111.67058101539524"><title>CartesianAxes</title></circle><circle fill="#000" stroke="#fff" r="3.5" cx="76.33507942732393" cy="88.33466774492463"><title>AnchorControl</title></circle><circle fill="#000" stroke="#fff" r="3.5" cx="65.50362980116535" cy="106.54858686363613"><title>ClickControl</title></circle><circle fill="#000" stroke="#fff" r="3.5" cx="68.98281040488418" cy="96.77811309451134"><title>Control</title></circle><circle fill="#000" stroke="#fff" r="3.5" cx="77.16471823954639" cy="116.18270016059635"><title>ControlList</title></circle><circle fill="#000" stroke="#fff" r="3.5" cx="85.78529319252294" cy="94.98985006929999"><title>DragControl</title></circle><circle fill="#000" stroke="#fff" r="3.5" cx="91.85659887082244" cy="107.3854621246914"><title>ExpandControl</title></circle><circle fill="#000" stroke="#fff" r="3.5" cx="85.5504241367683" cy="124.95147120202132"><title>HoverControl</title></circle><circle fill="#000" stroke="#fff" r="3.5" cx="101.56304938267701" cy="96.01394169687055"><title>IControl</title></circle><circle fill="#000" stroke="#fff" r="3.5" cx="97.03062707549596" cy="122.33169183888599"><title>PanZoomControl</title></circle><circle fill="#000" stroke="#fff" r="3.5" cx="93.59080306082414" cy="86.52314368430274"><title>SelectionControl</title></circle><circle fill="#000" stroke="#fff" r="3.5" cx="102.2952732131293" cy="110.43254900253864"><title>TooltipControl</title></circle><circle fill="#000" stroke="#fff" r="3.5" cx="152.3247359681221" cy="152.8477037503803"><title>Data</title></circle><circle fill="#000" stroke="#fff" r="3.5" cx="163.25790834017053" cy="151.0074532783712"><title>DataList</title></circle><circle fill="#000" stroke="#fff" r="3.5" cx="171.9371762536936" cy="127.95401337996601"><title>DataSprite</title></circle><circle fill="#000" stroke="#fff" r="3.5" cx="155.610336846983" cy="164.98455075178194"><title>EdgeSprite</title></circle><circle fill="#000" stroke="#fff" r="3.5" cx="164.48414789115174" cy="137.2335345580473"><title>NodeSprite</title></circle><circle r="3.5" cx="195.98730831668937" cy="158.5583351905274"><title>render</title></circle><circle fill="#000" stroke="#fff" r="3.5" cx="168.9362375512582" cy="163.28854153925485"><title>ScaleBinding</title></circle><circle fill="#000" stroke="#fff" r="3.5" cx="179.50325545971623" cy="138.05256650995588"><title>Tree</title></circle><circle fill="#000" stroke="#fff" r="3.5" cx="175.27115279855565" cy="150.0032540589167"><title>TreeBuilder</title></circle><circle fill="#000" stroke="#fff" r="3.5" cx="100.44363246319261" cy="170.0481355355938"><title>DataEvent</title></circle><circle fill="#000" stroke="#fff" r="3.5" cx="109.24873500350672" cy="164.08946212251354"><title>SelectionEvent</title></circle><circle fill="#000" stroke="#fff" r="3.5" cx="105.53517511535429" cy="181.13777507081497"><title>TooltipEvent</title></circle><circle fill="#000" stroke="#fff" r="3.5" cx="90.79166283922633" cy="176.14692314526428"><title>VisualizationEvent</title></circle><circle fill="#000" stroke="#fff" r="3.5" cx="138.55342750634716" cy="113.18417273888456"><title>Legend</title></circle><circle fill="#000" stroke="#fff" r="3.5" cx="139.66618646520604" cy="98.05889233153268"><title>LegendItem</title></circle><circle fill="#000" stroke="#fff" r="3.5" cx="149.69977584191727" cy="102.88079347528772"><title>LegendRange</title></circle><circle r="3.5" cx="-2.905711215206249" cy="197.51225825947603"><title>distortion</title></circle><circle r="3.5" cx="-40.87989712880595" cy="201.84721679956712"><title>encoder</title></circle><circle r="3.5" cx="22.912475840652178" cy="250.27608969310657"><title>filter</title></circle><circle fill="#000" stroke="#fff" r="3.5" cx="22.272938639714063" cy="208.12288097069546"><title>IOperator</title></circle><circle r="3.5" cx="40.37638190159641" cy="233.27637837142592"><title>label</title></circle><circle r="3.5" cx="-26.77999104978579" cy="245.69547174053582"><title>layout</title></circle><circle fill="#000" stroke="#fff" r="3.5" cx="0.8023820047037312" cy="217.79025519230547"><title>Operator</title></circle><circle fill="#000" stroke="#fff" r="3.5" cx="20.54540947846518" cy="219.47194836370699"><title>OperatorList</title></circle><circle fill="#000" stroke="#fff" r="3.5" cx="-9.387370251149195" cy="213.63859571266713"><title>OperatorSequence</title></circle><circle fill="#000" stroke="#fff" r="3.5" cx="14.337559404211806" cy="228.50400613513034"><title>OperatorSwitch</title></circle><circle fill="#000" stroke="#fff" r="3.5" cx="2.5630357574030525" cy="228.0834653879611"><title>SortOperator</title></circle><circle fill="#000" stroke="#fff" r="3.5" cx="206.75012150465895" cy="176.17192645144553"><title>ArrowType</title></circle><circle fill="#000" stroke="#fff" r="3.5" cx="217.0862227631871" cy="153.42038209103063"><title>EdgeRenderer</title></circle><circle fill="#000" stroke="#fff" r="3.5" cx="216.7501355779345" cy="172.43256207795"><title>IRenderer</title></circle><circle fill="#000" stroke="#fff" r="3.5" cx="222.91757415227815" cy="162.8025249437535"><title>ShapeRenderer</title></circle><circle fill="#000" stroke="#fff" r="3.5" cx="5.434166376665433" cy="189.7608582141161"><title>BifocalDistortion</title></circle><circle fill="#000" stroke="#fff" r="3.5" cx="-11.19240324794336" cy="185.51456330472098"><title>Distortion</title></circle><circle fill="#000" stroke="#fff" r="3.5" cx="-21.067309861279114" cy="192.10513804037868"><title>FisheyeDistortion</title></circle><circle fill="#000" stroke="#fff" r="3.5" cx="-57.11106707186266" cy="190.257705642718"><title>ColorEncoder</title></circle><circle fill="#000" stroke="#fff" r="3.5" cx="-59.56144258999973" cy="207.33782404057047"><title>Encoder</title></circle><circle fill="#000" stroke="#fff" r="3.5" cx="-75.00440549075101" cy="208.21923591040982"><title>PropertyEncoder</title></circle><circle fill="#000" stroke="#fff" r="3.5" cx="-66.05483785509048" cy="198.3208235858061"><title>ShapeEncoder</title></circle><circle fill="#000" stroke="#fff" r="3.5" cx="-75.00008177905046" cy="192.77534381072348"><title>SizeEncoder</title></circle><circle fill="#000" stroke="#fff" r="3.5" cx="32.96636402763275" cy="268.10558869048236"><title>FisheyeTreeFilter</title></circle><circle fill="#000" stroke="#fff" r="3.5" cx="23.615665324860235" cy="277.67301474268135"><title>GraphDistanceFilter</title></circle><circle fill="#000" stroke="#fff" r="3.5" cx="37.75910581426019" cy="278.9832036333095"><title>VisibilityFilter</title></circle><circle fill="#000" stroke="#fff" r="3.5" cx="51.652589605532185" cy="250.63052611483997"><title>Labeler</title></circle><circle fill="#000" stroke="#fff" r="3.5" cx="61.180750226703815" cy="241.62739961662496"><title>RadialLabeler</title></circle><circle fill="#000" stroke="#fff" r="3.5" cx="62.51790845586253" cy="255.6587132515736"><title>StackedAreaLabeler</title></circle><circle fill="#000" stroke="#fff" r="3.5" cx="-38.09900706590881" cy="242.68310213970125"><title>AxisLayout</title></circle><circle fill="#000" stroke="#fff" r="3.5" cx="-15.297001084633548" cy="263.15554746278093"><title>BundledEdgeRouter</title></circle><circle fill="#000" stroke="#fff" r="3.5" cx="-24.02582878033991" cy="256.435668351393"><title>CircleLayout</title></circle><circle fill="#000" stroke="#fff" r="3.5" cx="-49.168711909772426" cy="240.20610765779017"><title>CirclePackingLayout</title></circle><circle fill="#000" stroke="#fff" r="3.5" cx="-19.623813397826552" cy="273.3442137853757"><title>DendrogramLayout</title></circle><circle fill="#000" stroke="#fff" r="3.5" cx="-50.83581761551231" cy="253.79032095214492"><title>ForceDirectedLayout</title></circle><circle fill="#000" stroke="#fff" r="3.5" cx="-38.67281991298751" cy="255.828398630516"><title>IcicleTreeLayout</title></circle><circle fill="#000" stroke="#fff" r="3.5" cx="-28.84214450595605" cy="280.04974604985796"><title>IndentedTreeLayout</title></circle><circle fill="#000" stroke="#fff" r="3.5" cx="-61.000125765316085" cy="244.79061182937772"><title>Layout</title></circle><circle fill="#000" stroke="#fff" r="3.5" cx="-31.768650816024653" cy="267.5452656256182"><title>NodeLinkTreeLayout</title></circle><circle fill="#000" stroke="#fff" r="3.5" cx="-43.996739738370955" cy="265.82360827817087"><title>PieLayout</title></circle><circle fill="#000" stroke="#fff" r="3.5" cx="-64.67451987437009" cy="255.89149875195872"><title>RadialTreeLayout</title></circle><circle fill="#000" stroke="#fff" r="3.5" cx="-52.37338070687212" cy="275.06126223684817"><title>RandomLayout</title></circle><circle fill="#000" stroke="#fff" r="3.5" cx="-60.539032785032674" cy="266.61126197179584"><title>StackedAreaLayout</title></circle><circle fill="#000" stroke="#fff" r="3.5" cx="-41.53542015519505" cy="279.468203058724"><title>TreeMapLayout</title></circle></g></svg>