<?xml version="1.0" encoding="UTF-8" standalone="no"?>
<svg
   xmlns:osb="http://www.openswatchbook.org/uri/2009/osb"
   xmlns:dc="http://purl.org/dc/elements/1.1/"
   xmlns:cc="http://creativecommons.org/ns#"
   xmlns:rdf="http://www.w3.org/1999/02/22-rdf-syntax-ns#"
   xmlns:svg="http://www.w3.org/2000/svg"
   xmlns="http://www.w3.org/2000/svg"
   xmlns:sodipodi="http://sodipodi.sourceforge.net/DTD/sodipodi-0.dtd"
   xmlns:inkscape="http://www.inkscape.org/namespaces/inkscape"
   inkscape:version="1.0 (4035a4f, 2020-05-01)"
   sodipodi:docname="3d-rabbit--print.svg"
   id="svg869"
   version="1.1"
   viewBox="0 0 210 297"
   height="297mm"
   width="210mm">
  <defs
     id="defs863">
    <linearGradient
       osb:paint="solid"
       id="linearGradient1442">
      <stop
         id="stop1440"
         offset="0"
         style="stop-color:#000000;stop-opacity:1;" />
    </linearGradient>
  </defs>
  <sodipodi:namedview
     inkscape:window-maximized="0"
     inkscape:window-y="25"
     inkscape:window-x="0"
     inkscape:window-height="1341"
     inkscape:window-width="2039"
     showgrid="false"
     inkscape:document-rotation="0"
     inkscape:current-layer="layer1"
     inkscape:document-units="mm"
     inkscape:cy="498.8239"
     inkscape:cx="95.407746"
     inkscape:zoom="0.7"
     inkscape:pageshadow="2"
     inkscape:pageopacity="0.0"
     borderopacity="1.0"
     bordercolor="#666666"
     pagecolor="#ffffff"
     id="base" />
  <metadata
     id="metadata866">
    <rdf:RDF>
      <cc:Work
         rdf:about="">
        <dc:format>image/svg+xml</dc:format>
        <dc:type
           rdf:resource="http://purl.org/dc/dcmitype/StillImage" />
      </cc:Work>
    </rdf:RDF>
  </metadata>
  <g
     id="layer1"
     inkscape:groupmode="layer"
     inkscape:label="Layer 1">
    <path
       d="m 132.66023,124.63383 -6.35829,5.95847 -2.54942,7.54574 0.26177,5.36687 -6.59211,5.26025 -4.64444,-4.12505 -5.01948,0.46615 -1.34843,4.50995 -6.886732,-2.26272 -4.347227,-8.77397 -5.486797,3.8552 -7.001263,6.81357 -3.72501,-2.47704 6.462379,-8.09534 -10.860444,3.15637 1.411075,-7.46989 8.881951,-4.61955 -10.293026,12.08944 4.398065,4.93897 -6.644068,6.91337 2.246003,-11.85234 -7.991312,0.91956 -4.715044,-5.16608 2.055731,-8.49356 2.151663,1.06284 -4.207394,7.43072 -1.289117,9.91329 6.004161,-4.74721 -1.51222,8.43111 -4.491941,-3.6839 0.07099,-8.54801 1.21813,-1.36528 0.07738,-5.12738 1.394303,-3.68002 m 0.584044,0.31384 -1.978347,3.36618 -1.295513,6.49266 m 5.933175,3.8008 -0.507652,-12.5968 -0.69346,-0.78344 m -0.226499,-0.43072 -5.916692,-1.35376 -4.647071,-6.59621 -0.49389,-5.08396 2.194118,-6.61514 0.847438,-2.41759 1.216873,-11.932938 2.812171,-6.986246 -2.596892,8.814472 -0.215279,-1.828226 -1.206228,-6.652741 -0.337958,-0.651356 0.117274,4.997013 1.081352,5.695847 m 0.560839,-1.560537 -1.432152,10.104712 -3.041556,9.03273 3.618322,5.70264 3.562103,-13.9988 2.181351,8.26298 9.736623,-1.80793 -6.084409,4.23966 -3.652214,-2.43173 4.429431,-5.42126 5.307192,3.61333 -1.165485,-8.6838 -2.866576,-9.153481 8.174513,-2.689913 -5.307937,11.843394 -4.141707,5.07047 1.275131,-14.223951 -0.711274,-8.745879 5.940793,0.151965 -5.229519,8.593914 -7.885913,11.382231 6.610782,2.84172 m 5.307192,3.61333 5.301585,-6.53084 -6.46707,-2.15296 m 6.46707,2.15296 2.771019,11.53897 -8.072604,-5.00813 1.166732,7.66044 6.905872,-2.65231 0.400928,8.11263 -7.3068,-5.46032 -0.756119,4.98302 -5.340327,-2.8641 6.096446,-2.11892 -7.251141,-3.42078 1.154695,5.5397 -5.179285,-1.67801 0.372376,-6.29342 -5.743454,5.73582 5.371078,0.5576 4.02459,-3.86169 m -4.02459,3.86169 2.068253,6.77369 2.189664,1.00098 -8.106356,-2.35474 -1.522639,-5.97753 -3.124432,-0.61868 m 3.124432,0.61868 7.439331,7.33129 6.001041,1.40765 -3.811377,-0.40667 6.894728,1.6707 1.745603,2.74983 5.330994,-4.40873 3.550959,-0.21082 0.567419,8.93307 -2.737372,10.57238 10.795981,-1.23998 -3.794717,-5.57359 -4.263892,-3.75881 9.750689,-0.0963 -10.318108,-8.83668 4.96837,-0.96205 5.349738,9.79873 6.01034,-8.74869 -11.360078,-1.05004 -0.293463,-3.3748 6.220356,-0.59658 -5.926893,3.97138 -3.816234,-1.65062 -1.152136,2.61267 m 1.152136,-2.61267 3.440019,-4.49586 -7.789825,4.55228 3.831125,-4.16741 -4.232053,-3.94522 4.329197,-3.32205 -7.100216,-8.21691 4.619357,-0.47338 2.480859,8.69029 -0.09714,7.26727 4.504985,-6.33637 -4.40784,-0.9309 4.011915,-4.44416 -6.492775,-4.24613 -0.272622,-7.740177 -4.346734,8.213557 -1.159133,-13.996357 -2.944995,-5.904002 9.579067,-4.242246 -6.634072,10.146248 5.505867,5.7828 2.01163,-11.248696 -7.517497,5.465896 m -2.944995,-5.904002 -4.211176,-4.709504 -1.729617,4.557539 -6.458724,7.775357 7.169999,0.970522 m -7.17,-0.970522 -0.715914,12.352757 -4.13887,-0.73657 m -1.674253,-0.89373 0.826815,3.31132 -2.26244,2.11027 1.435625,-5.42159 2.192549,-4.18887 m -0.101522,0.99571 -2.091024,3.19316 m -1.435625,5.42159 0.854487,2.13459 m -0.500374,1.50863 -0.354113,-3.64322 m 0.06835,4.50486 7.180426,-8.29615 -2.706718,-10.841285 3.422632,-1.511472 -0.825739,-7.303001 1.879596,-4.823512 3.215168,-2.72177 8.367674,-0.563581 -11.582842,3.285351 -4.382538,0.933749 -1.515456,4.223269 -0.220687,4.345656 1.342683,3.133095 m 0.08424,-0.826011 -1.426912,-2.307084 m 0.220685,-4.345656 4.018398,-0.333506 9.01408,-5.029895 13.790244,0.467258 -9.341886,-3.546226 -4.448358,3.078968 -7.134482,0.206383 m 3.215166,-2.72177 -7.597706,3.655519 -1.853416,3.571912 m 1.853416,-3.571912 2.502942,3.889763 7.284463,-0.472356 m -2.189699,-7.072926 14.503872,-1.709525 11.546582,2.703558 4.454805,2.373504 -4.6482,0.359737 0.193395,-2.733241 -0.965445,-1.88036 4.184504,1.317254 -3.219059,0.563106 -8.340894,1.988612 8.147499,0.744629 -1.20829,6.812653 -6.055785,-2.87693 2.212222,5.786542 -4.223852,5.462154 4.565871,3.540787 -4.293249,4.19939 m 4.293249,-4.19939 2.199526,8.44552 0.395925,5.37506 -0.546283,5.9515 -3.958702,0.38487 m 3.958702,-0.38487 0.08275,2.77168 -3.522771,1.72418 -4.703094,2.8235 -7.076597,1.65889 -4.631501,0.0529 -3.532933,-1.51036 0.767502,-0.35906 m -0.767502,0.35906 -0.20499,-0.64156 m -0.71497,-0.57258 3.111033,-5.0957 2.890009,6.50334 3.083352,1.26405 2.557254,-1.93618 -5.640606,0.67213 2.450318,-3.63923 3.190288,2.9671 4.519343,0.27727 0.353289,-2.76707 -8.06292,-0.4773 m 3.190288,2.9671 4.872632,-2.4898 4.349805,-0.0563 m 3.44002,-4.49586 6.723984,-7.21353 -6.1777,1.26203 4.332339,-9.54034 -4.728265,4.16528 m 4.728265,-4.16528 1.845361,8.27831 -0.420878,9.38863 5.433183,5.02142 1.19464,6.5554 -7.204977,2.19328 m -5.486797,3.8552 9.834024,4.91877 -6.039307,0.65482 -6.743074,6.97101 -4.052905,-5.73102 -1.643379,11.52915 5.696284,-5.79813 0.08027,5.13159 8.483014,-6.18677 -5.064457,13.02426 -3.418557,-6.83749 -5.776551,0.66654 -10.36608,-2.67556 1.640382,-4.41726 8.725698,7.09282 -1.935363,7.04823 -8.430717,-9.72379 -3.328001,0.4912 -2.289147,-7.41013 7.25753,2.50167 -4.968383,4.90846 -1.181332,-1.81334 -1.649316,0.20043 -0.479162,-3.72803 m 1.020663,-2.06919 1.107815,5.59679 -5.599757,-9.2807 m 6.004162,-4.74719 3.025283,-11.08647 -0.282181,-1.24351 m 0.282181,1.24351 6.377104,2.697 m -6.377104,-2.697 4.96603,10.16689 m 4.398065,4.93897 2.08163,14.0062 9.195108,6.17095 7.554195,-6.3871 -3.092559,6.5195 -4.461636,-0.1324 -11.130471,0.87728 -4.756015,-0.093 -9.833351,-10.75252 m 2.830648,1.61291 4.467921,5.07343 2.534782,4.06618 -3.321097,-2.42539 -1.295209,-2.62245 m 2.081524,0.98166 -1.13992,-5.56463 m -2.182539,1.79188 5.857241,7.83893 1.676591,1.45676 -4.997688,-3.88215 m 0.786315,-1.64079 7.290797,4.15916 7.340175,5.27498 -12.09619,-5.36796 11.645135,7.19933 -9.968544,-5.74257 5.008374,4.7419 4.96017,1.00067 0.451055,-1.83137 3.790296,-6.15225 4.995955,5.89361 -0.534319,-5.76121 6.672088,-5.90401 -3.579529,-0.61549 -2.489738,-6.63716 -8.56328,1.05518 m 8.56328,-1.05518 -1.820206,-5.91583 m 6.039307,-0.65483 -4.219101,6.57066 m 2.489738,6.63716 1.729363,-13.20782 2.857756,-10.96724 1.6351,8.10781 -4.492856,2.85943 5.906726,8.03183 -7.636089,5.17599 m 3.579529,0.61549 2.62329,5.71398 -9.295378,0.19003 6.897138,4.97687 -0.85288,4.33638 6.25704,-1.0544 3.11503,-4.06206 -0.80283,-10.49266 -3.44394,7.64811 -1.87418,-1.54227 1.43327,-11.50546 -4.05656,5.79148 m 2.62329,5.71398 5.31812,-6.10584 -3.88485,-5.39962 0.98,-5.7691 -2.39387,-5.12216 3.74231,0.61221 -5.37741,-8.72002 6.72133,-1.8338 -7.91598,-4.72161 -1.497494,-8.1907 -3.935686,3.16929 -6.303105,-2.1751 m 6.723984,-7.21353 3.514807,6.21934 3.611664,-1.72751 -2.11417,9.91821 10.53741,-2.17221 -2.62143,6.89382 -1.34392,10.55382 m -1.34844,4.50995 5.26675,5.94716 -6.24675,-0.17806 m 0.98,-5.7691 6.36792,-4.97611 -3.67556,-10.08766 5.33403,3.49798 -1.65847,6.58968 -1.10117,10.92327 -2.3619,5.22156 5.10409,1.10924 -4.30126,9.38342 -4.24677,-2.84455 1.13174,6.90661 4.21893,5.30747 -4.47087,6.27525 -3.86363,2.82687 -1.04662,2.43707 -3.679851,6.21972 -5.607725,-3.38459 -1.407678,2.70504 7.015403,0.67955 1.204946,-7.10537 2.474905,0.88565 6.28465,0.99505 -0.87956,6.41837 -5.40509,-7.41342 m -2.474905,-0.88565 -6.812671,3.72078 -4.024246,0.50124 10.662136,-6.24325 0.174781,2.02123 -4.849195,0.96649 4.674414,-2.98772 3.696306,0.46981 5.23803,3.43212 -1.3744,-6.25899 4.07296,3.38775 0.39791,-9.663 -1.1039,-9.36953 7.96443,4.72511 -6.86053,4.64442 4.95557,6.73825 -5.35348,2.92475 1.61974,9.60601 -4.3183,-6.73477 2.69856,-2.87124 3.87162,11.21186 -2.25188,-1.60585 -5.19786,-0.3164 -9.084941,-1.1937 1.804003,7.32512 -5.088405,0.38572 3.284402,-7.71084 m -5.607725,-3.38459 1.963476,-2.75429 -5.987722,3.25553 -2.843994,7.73268 5.460562,-5.52888 3.731001,8.39039 -5.359638,-0.75208 -3.831925,-2.10943 0.385803,-2.82018 2.458191,-4.9125 2.616568,2.2038 -1.628637,7.63831 -3.328955,1.03162 -0.50297,-3.14105 -0.439293,0.52175 0.825096,-3.34193 m 1.050259,-2.09886 -4.539437,-1.54342 -2.767107,-4.08832 4.593872,-5.88683 8.576231,-4.84846 0.753927,2.39612 -9.330158,2.45234 -1.826765,9.97515 3.782661,-3.65978 -1.955896,-6.31537 10.141609,5.1793 m 1.325911,-0.77638 -2.137362,-6.85526 5.699628,1.38435 m 0.002,-0.0278 -3.623609,-6.91717 -0.260873,-0.84615 m 0.260873,0.84615 -2.831883,3.16446 1.261866,-4.45289 m 0.171366,0.0465 2.531752,-0.10793 1.905113,-0.0935 4.156215,6.56921 -2.8191,-1.31706 -0.999022,6.6394 0.580222,-8.28442 m -0.164021,-0.64427 -0.13916,4.97321 m -0.03582,0.51125 -1.870295,4.42355 m 0.123468,-0.0724 1.505607,-0.90703 m -0.0018,0.0264 1.000701,-6.6658 -1.337112,-5.25216 1.891252,-0.96744 2.26496,7.53664 3.74014,2.99168 0.25194,-11.5827 -5.40416,-3.28199 -6.362823,0.78434 -8.786251,0.25864 12.404942,4.26083 -12.855998,-2.42946 8.419134,2.63091 4.924218,1.71287 m -0.05584,-0.21933 -2.336621,-1.60145 -10.950887,-2.523 m 0.451056,-1.83137 14.29619,3.29339 -5.50994,-3.55203 m -0.818173,4.72092 -13.379301,-3.63157 m 2.649631,12.52709 -2.28582,3.4993 -0.7013,1.61076 m 0.136221,-0.17452 2.850899,-4.93554 0.720207,0.3593 m -0.720207,-0.3593 9.296438,-4.48916 0.519375,-4.65441 m 2.312509,1.48995 -2.077957,5.56058 m 2.077957,-5.56058 1.491304,-0.23665 m 4.291037,-6.51051 2.39824,-5.1669 m 1.87418,1.54227 -4.27242,3.62463 m 5.40416,3.28199 -3.99208,8.59102 -0.12349,5.81856 -3.521527,1.55142 m -0.17478,-2.02122 3.819797,-5.34876 m 7.81309,6.37944 7.14942,3.15594 -1.79594,-6.08069 1.90498,-11.38267 0.63345,-12.64169 -8.59789,7.91659 m 7.96444,4.7251 2.02347,6.36332 -3.92845,5.01935 5.554,0.72655 -3.75806,5.35414 2.12646,5.43677 1.6316,-10.79091 -1.62555,-5.7459 3.99543,-12.87406 -6.0189,6.51074 m 2.02347,6.36332 5.57619,-3.89731 -3.95064,9.64321 4.36883,-1.11007 -0.41819,-8.53314 -1.58076,-8.97675 -5.38545,-6.13095 -4.29662,-1.46684 -2.7422,-6.3308 4.78904,1.87984 -2.04684,4.45096 m 4.29662,1.46684 -2.24978,-5.9178 0.95656,-8.67806 -5.7456,6.79822 m 4.78904,1.87984 4.85762,-2.29272 -3.90106,-6.38534 -2.98596,-10.71473 -2.7126,-10.39181 -8.42325,-7.74599 9.00159,-0.98796 -0.57834,8.73395 5.07288,0.18727 -2.36028,10.20454 9.57808,5.45448 0.72115,9.33407 -7.31327,-4.07382 m 3.90106,6.38534 -2.60784,8.21052 4.68979,-3.06126 -2.08195,-5.14926 3.41221,-2.31152 -1.33026,7.46078 0.69566,9.19221 2.32531,-0.11728 -3.02097,-9.07493 5.05801,6.50558 2.86964,-4.12004 2.71633,7.68835 6.42435,-1.99351 -9.14068,-5.69484 1.54901,-5.5533 5.3375,-6.24661 1.53075,10.96214 4.67458,-11.45066 -6.20533,0.48852 1.13675,-5.42328 8.61687,-3.95429 -5.09405,-2.37629 -3.44556,-3.07027 -5.53313,-2.87911 -7.59829,-2.58984 -9.50547,-2.7464 -4.49454,-8.92122 -7.21278,-3.10527 -1.78881,4.09323 -7.126462,-4.49183 6.491242,-6.38549 -4.923983,-9.694908 -9.189133,-0.311091 -5.717148,0.292149 m 5.717148,-0.292149 -1.151278,3.832929 6.927792,4.28025 -5.776514,-8.113179 -1.493296,-5.170005 3.843563,-2.909612 -2.350267,8.079617 5.660992,-4.988465 3.528141,5.299556 -3.412619,7.802088 8.336602,1.89282 0.63522,10.87732 m 1.78881,-4.09323 -2.42403,-6.78409 3.07606,1.68182 -0.65203,5.10227 2.8988,-2.35775 4.31398,5.46302 8.87952,0.95855 -1.48621,-7.53259 3.70689,3.18592 -2.22068,4.34667 5.53785,-0.93929 -3.31717,-3.40738 -2.35215,-5.42566 -7.30358,-3.04981 6.64511,2.49449 0.65847,0.55532 6.06121,0.60888 -2.54725,-1.59842 13.05339,-1.37212 -10.50614,2.97054 7.61498,3.67832 2.89116,-6.64886 10.87025,-1.03352 -9.40281,-1.21907 -0.58637,-0.55717 6.7334,-1.17983 -6.14703,1.737 -14.52083,3.62471 13.93446,-4.18188 -18.10689,4.6161 4.17243,-0.43422 -3.51396,0.98954 -1.35474,2.23974 -5.66596,2.5415 -1.72735,4.03254 m 1.72735,-4.03254 7.15217,4.99109 -4.38498,7.96267 6.95603,10.29216 -9.31631,-0.0876 m 9.31631,0.0876 6.62513,0.2508 -4.07571,-7.79653 -5.12047,-10.7091 m 2.22068,-4.34667 3.70906,-4.81678 m -3.70906,4.81678 11.32404,-1.13846 5.78921,-1.26569 7.9722,-6.41669 1.01378,-3.1822 -10.41659,1.96313 -1.46744,2.25259 2.89805,5.38317 -3.38673,4.74891 -4.46845,6.75253 -5.9409,-5.68991 -0.41738,11.64839 m -2.54942,7.54573 7.11011,6.64737 -6.84834,-1.28051 4.66309,3.60876 -3.94193,5.72531 9.17427,-4.85045 -1.02788,9.14347 6.86825,4.71552 0.72343,6.53263 3.75281,3.61758 -2.39779,6.21981 -1.35502,-9.83739 2.61317,-9.59214 -3.3366,3.05951 -8.41726,0.83779 -6.59738,-9.84633 8.14639,4.29302 m -1.54901,5.55331 -7.92764,-2.38555 m 5.058,6.50558 5.58598,3.56831 4.19279,10.0242 3.58658,-2.18031 4.48487,-2.13862 9.25963,-5.08189 4.17054,4.58309 -13.43017,0.4988 8.81678,5.01371 8.08864,1.40148 -5.50716,3.46455 7.7905,-0.11772 -2.28334,-3.34683 4.8034,-6.09783 0.67595,3.96677 -5.47935,2.13106 -3.47525,-6.91399 2.32752,-7.60982 -0.45843,-4.26905 -7.99037,-1.87054 8.19711,-4.36292 -0.20674,6.23346 7.58769,-2.39329 -7.12926,6.66234 5.09653,0.87557 2.03273,-7.53791 1.54134,4.72196 -3.57407,2.81595 0.8546,7.55041 -8.27865,-0.81616 -4.61339,5.51251 2.58148,4.86603 -6.05825,2.59818 5.61323,3.64013 1.07312,2.60627 -0.81039,2.30014 6.71006,-1.47958 0.0218,1.24972 -6.73197,0.22986 -7.87664,-0.85135 -1.39948,4.33902 9.27612,-3.48767 1.32657,4.99137 -10.60269,-1.5037 -3.95448,-4.66372 -5.03056,-2.3605 -4.7976,5.01256 -8.17414,6.24755 3.30218,-9.5666 4.87196,3.31905 -2.79738,6.39004 -5.37676,-0.14249 -4.40182,-0.8308 7.704,-8.7358 5.04738,-3.69445 -0.17542,7.0135 9.82816,-2.65206 -0.40114,-2.85071 -3.70994,-3.20796 -0.91948,3.69817 -4.62218,-2.00094 -3.60699,-1.8055 -1.44039,5.49995 -9.4993,3.64249 4.66526,-7.5073 1.33517,-4.39366 4.93926,2.75852 -1.23909,-12.2334 -3.3738,-8.15231 -0.74456,9.09405 4.11836,-0.94174 5.56723,9.07782 -4.32814,3.15558 -6.27443,1.63514 -3.03366,-3.28361 m 3.03366,3.28361 4.83404,3.86481 m 4.87196,3.31905 1.09313,8.03795 8.73503,-10.69001 5.58636,-2.33354 -0.2324,2.65824 8.68703,-1.44879 5.89968,0.82056 -2.92658,-3.29291 -2.9731,2.47235 -8.45463,-1.20945 1.76829,-5.03695 3.47677,-7.46421 -6.27201,2.76187 -6.33619,-1.66281 1.89757,5.28669 -4.23187,2.39028 -5.54166,1.69723 0.72115,-4.96108 2.87478,-6.20696 4.28003,1.79384 -2.3343,7.67697 -1.94573,-9.47081 -8.44201,-2.87086 -3.70017,9.47488 m 9.2674,-0.39706 4.82051,3.26385 m -0.91948,3.69817 4.62942,-0.49021 0.52193,-5.59824 4.43862,-3.62388 -2.54478,-7.77558 -2.08707,-4.08119 5.85825,-3.79202 -9.61106,0.17444 8.37644,-3.79149 -5.76328,-5.80065 1.33799,-8.39114 5.5685,5.32681 3.62913,6.10703 1.95072,9.16632 6.03964,-7.29578 8.23196,-6.23976 -2.89512,-3.86081 -5.13009,3.86711 -11.82624,-1.74411 1.23293,-4.64294 5.49323,-9.25199 4.63383,3.40444 -10.12706,5.84755 10.59331,6.38705 8.02521,-0.007 -0.64426,3.84648 5.40335,2.79266 -1.20585,11.08027 3.30149,2.98911 -7.05406,3.00791 -4.14312,4.66301 3.19601,-5.47788 0.94711,0.81487 6e-5,7.16922 -8.33249,3.98374 -4.04622,-0.13391 0.44503,-6.2383 3.60119,6.37221 4.18931,-6.48995 4.14318,2.50621 -5.40591,7.27665 3.93861,-0.7905 5.4962,1.95732 -9.41291,0.0829 3.91671,-2.04023 1.4673,-6.48615 3.46687,-1.52782 -4.93417,8.01397 5.99266,-3.84395 5.49914,1.93184 0.71988,-5.80737 -0.1995,-2.34199 4.37548,-5.43657 -4.17598,7.77856 1.79669,2.58529 -2.51657,3.22208 -5.9956,3.86945 0.49646,-5.80129 6.01952,-6.21752 -2.16388,-1.5456 -1.34373,4.71146 -3.5704,-1.11836 4.91413,-3.5931 4.71656,-5.39978 -0.44663,-8.77864 2.99666,-1.23784 -2.55003,10.01648 -2.55268,6.94538 -3.50761,3.16586 -2.51191,3.05166 6.21902,-3.87553 7.64748,-8.08373 1.4421,-5.9542 2.45301,-2.21394 -1.89189,6.68495 -4.80968,8.79047 11.45848,-4.75924 -4.31236,6.49107 -7.14612,-1.73183 -3.55628,4.2448 m 0.51195,-0.88306 5.85079,-10.66902 3.89511,-8.16814 -0.27689,2.33885 5.0338,8.37733 -0.18119,-6.49284 -4.85261,-1.88449 2.36619,-7.08422 2.48642,8.96871 3.07484,-8.8401 -5.56126,-0.12861 -0.24492,-5.65205 -2.12127,12.73627 -1.615,4.3461 6.6488,4.03123 5.21625,-8.0152 -5.39744,1.52236 m 5.39744,-1.52236 -2.3226,-7.31774 4.15834,-1.17311 0.84862,-4.38869 1.46278,8.7154 -3.15551,9.00234 0.99275,0.11874 2.16276,-9.12108 -2.3114,-4.32671 -1.83574,8.49085 4.14714,-4.16414 -0.89965,-6.13552 -0.56313,-2.57988 -3.72273,-1.00476 2.87411,5.39345 m -4.15834,1.17311 -5.77651,-5.10682 -0.0297,-0.67384 -1.06568,1.99306 0.72122,-10.87951 -0.39861,-12.32247 1.14765,10.69811 -0.74904,1.62436 0.34446,8.88645 0.40458,-10.51081 -0.37491,11.18465 7.06074,-1.45974 -2.98981,-2.98444 6.71254,3.9892 m -3.72273,-1.00476 -1.28424,6.56656 m -5.56125,-0.12861 -0.21525,-4.97821 m -1.09535,1.31922 -1.8024,-1.60835 2.52362,-9.27116 -3.07216,2.58159 0.54854,6.68957 -2.19334,-5.5005 -4.74697,6.35188 2.01171,-7.41614 2.73526,1.06426 -1.32258,7.74626 -3.42439,-1.39438 -1.67203,7.34719 5.09642,-5.95281 -2.09977,4.71497 3.54537,0.42771 -6.0954,9.58877 1.82281,1.50881 4.27259,-11.09758 3.87272,-5.78009 -3.23172,10.6183 -0.641,-4.83821 2.07032,-7.38844 -3.51592,2.24576 m -3.42439,-1.39438 0.0766,-7.15496 -3.54514,3.29371 -4.10085,-8.73627 -2.67839,-6.28759 -9.0701,-1.78033 -6.14417,-3.42677 10.49889,-0.46321 -4.35472,3.88998 9.05995,7.16732 -12.35722,-2.96931 5.59635,8.3675 6.76087,-5.39819 0.0101,-5.38699 6.18342,-1.21521 -3.50504,7.5028 -1.23472,5.83737 5.33557,2.8989 -0.59581,-16.23907 -10.89881,-4.4551 -4.72395,-6.17908 -6.33506,-4.6692 1.07243,7.63824 5.26263,-2.96904 -5.77493,6.64229 -8.03067,-6.5411 -2.81137,6.73621 10.84204,-0.19511 0.5123,-3.67325 -8.54297,-2.86785 -2.94309,-12.48847 10.41361,7.71808 -5.35471,-11.65554 -4.10384,-7.92566 7.74525,4.31229 -3.64141,3.61337 9.49436,7.17175 -4.13965,4.48379 -7.47055,4.77039 -10.85715,-2.27809 -5.71822,4.39294 -3.52258,5.20672 0.485,6.39655 -2.18526,2.32826 5.23234,0.87485 -3.04708,-3.20311 5.11735,-2.67518 -5.60235,-3.72137 m 3.52258,-5.20672 -1.23999,-8.5483 6.95821,4.15536 -0.18507,7.27206 -3.45338,6.04897 -2.07977,-8.92809 m 5.71822,-4.39294 -2.48977,-10.9079 -10.40934,1.06263 8.00686,-4.54585 2.40248,3.48322 10.40386,0.69752 5.0589,-3.93746 -12.07602,-1.50897 7.01712,5.44643 -7.91409,10.21038 3.26047,10.34233 4.78532,-1.32803 -8.04579,-9.0143 m 3.26047,10.34233 -6.89892,2.9787 11.99298,-0.60241 -0.30874,-3.70432 9.05511,4.02524 7.93109,-0.79358 -3.29727,4.19801 0.46626,12.23461 m -0.20675,6.23346 -1.86909,11.87887 m -4.17055,-4.58309 -11.34669,1.0007 m 2.08708,4.08118 -3.79143,6.11278 -0.69344,-3.97413 m -3.58658,2.1803 2.23155,-12.01771 m -6.42434,1.99351 -4.24922,7.15333 m 4.24922,-7.15333 -7.62302,-0.99896 m 16.66053,-10.58669 6.9065,-3.06432 -1.14323,8.86498 1.23462,3.61704 5.48845,2.79132 m -5.48845,-2.79132 3.53772,-6.375 -4.77234,2.75796 m 13.22114,3.38164 5.95114,8.42597 2.71948,-10.36637 2.65614,9.15099 -3.75255,5.99703 -1.62307,-4.78165 5.37562,-1.21538 2.58475,-6.10752 -1.37889,-4.97274 4.99733,5.55248 -3.61844,-0.57974 m 3.61844,0.57974 -6.20319,5.52778 m 3.3015,2.98913 -3.58713,8.64929 1.0585,4.17002 m -1.0585,-4.17002 -3.46692,-5.64139 m 7.05405,-3.0079 1.327,5.05619 m -1.327,-5.05619 6.04356,-0.34359 m 1.82281,1.50881 4.91358,-6.25937 m 2.45301,-2.21394 0.7787,-8.40436 m -1.8024,-1.60835 -5.61567,6.96073 m -2.99665,1.23784 -5.59694,9.12223 2.90169,-8.51691 0.89871,-11.81376 3.46855,3.86125 -4.36726,7.95251 2.69525,-0.60532 m -7.69258,-4.94716 -3.862,1.92927 m 3.862,-1.92927 0.56048,-9.16018 -1.45382,-6.73797 2.68853,0.9006 m -2.68853,-0.9006 -3.86576,9.259 5.31958,-2.52103 -5.96383,6.36751 m 5.40335,2.79267 5.89604,-6.26128 m 3.54516,-3.29371 -4.14097,-12.94536 -5.82244,-11.16568 -5.07637,6.71058 4.7154,5.67031 m 6.18341,-1.21521 2.90594,-5.80602 -8.72838,-5.35966 -9.80033,0.5315 4.23276,-7.79916 -3.06821,-9.34406 7.01429,4.94673 -3.94608,4.39733 7.78341,5.0359 -3.83733,-9.43323 -1.9789,-7.6896 -5.03539,2.74287 -3.35994,7.99023 6.42815,1.35383 5.56757,7.26766 2.21584,-2.23176 6.21136,-0.0148 -0.50398,5.19057 -5.70738,-5.17582 5.99994,-5.94263 -7.47902,-7.5194 7.37307,2.84557 0.1059,4.67383 3.39421,2.22949 3.59214,4.10642 2.66007,12.84717 -6.25221,-16.95359 -3.18278,3.69839 7.43223,14.96753 1.66463,3.68093 -2.2604,3.35127 -0.62987,5.16091 1.64478,-1.18907 -1.01491,-3.97184 -3.36515,4.09666 -1.93512,0.26116 1.01025,-9.50967 4.88579,-1.88035 -0.59577,7.0322 -4.29002,-5.15185 0.92487,9.24851 m 4.38006,-0.12482 1.24549,-7.32311 0.33813,-5.39326 -2.00276,1.71233 -4.24945,-18.66592 -3.50015,-6.90332 7.09229,11.00974 3.75002,10.65948 -1.08995,2.18769 1.48854,10.1348 -1.82667,-4.74154 m -1.66463,-3.68093 -7.13106,-7.36135 -0.80515,-2.41561 -7.92323,-2.94404 m 7.92323,2.94404 7.93621,9.77696 m -4.88579,1.88035 -2.24527,-9.2417 m -2.90593,5.80603 5.1512,3.43567 m 8.88188,12.20422 3.94027,-0.54601 -3.94361,0.64613 m -0.0161,0.47838 6.94946,1.85993 m 1.03838,13.88431 0.99163,4.8382 -10.52023,9.66806 4.76817,-1.96764 5.75206,-7.70042 -6.20789,3.17699 m 0.45583,4.52343 6.7448,-7.58169 m -6.7448,7.58169 -8.70511,4.93495 3.93694,-2.96731 -10.60628,5.41413 6.66934,-2.44682 m -3.20919,-4.69913 -3.04434,3.36173 -4.30509,7.42555 -2.84679,3.16586 -5.5387,3.67485 4.17842,-7.17473 1.36028,3.49988 4.6353,-7.36933 -1.78851,4.20347 -3.9634,4.68164 1.11661,-1.51578 m -1.11661,1.51578 -4.42209,2.15907 -5.23449,-7.09184 -5.40539,5.22124 -3.59523,3.96507 -8.68209,1.58652 -11.01489,-1.02902 12.68951,-6.02629 -1.67462,7.05531 -5.90695,1.09329 -5.10794,-2.12231 -3.89052,-1.6479 -4.13319,3.68453 -1.24356,-3.82701 -3.44458,4.48428 -0.95724,-5.31509 -3.49284,-0.28042 1.69753,-4.81288 1.79531,5.0933 m -0.982,2.87667 -20.984671,2.27092 -5.743488,0.0796 0.691526,-3.10646 5.051962,3.02685 0.03644,-3.41256 4.643051,2.71199 2.63788,-8.8434 -7.280931,6.13141 m -0.03644,3.41256 4.679491,-0.70057 4.6589,-1.93315 -2.02102,-6.91025 m 5.19787,0.31638 -3.17685,6.59387 5.42873,-4.98801 5.40424,-2.61917 m -1.69753,4.81289 -3.70671,-2.19372 3.27779,-8.05593 m -3.27779,8.05593 0.65197,5.17008 3.05474,-2.97636 4.45008,5.5955 4.68814,-0.65725 8.02371,-2.03663 m 5.10794,2.1223 -17.81979,0.57158 -5.7922,-2.02144 m -1.71262,-0.5977 -10.7396,1.75108 m 4.6589,-1.93315 6.0807,0.18207 m -21.162579,2.53126 -4.668112,-3.85852 m -3.328955,1.03161 7.997067,2.82691 m -7.997067,-2.82691 -0.942262,-2.61929 m -2.664081,-6.98423 -2.903531,-3.24421 0.136421,-0.84409 m 0.698997,-0.89573 0.88885,-1.85111 m 4.961921,3.17537 3.861375,1.39605 m -1.171005,0.68571 -2.69037,-2.08176 6.446742,-0.11781 m -4.758826,3.46021 -1.687916,-3.3424 M 72.31855,153.68401 66.57324,142.75123 m 36.09172,-33.71656 1.96552,-4.58171 1.11054,6.26354 2.16031,-2.28785 -0.85228,-2.36648 6.69719,0.99828 -5.84491,1.3682 -3.27085,-3.97569 -6.889504,-5.113192 -0.598199,-9.639331 -2.866629,-1.261081 -3.37404,2.509704 3.310726,3.091151 0.06331,-5.600855 -2.165749,-4.302949 -7.264075,3.935721 -0.883423,-4.68035 m 0.183312,-4.428501 0.758201,-6.402223 2.979101,6.594396 -0.404674,-4.011038 -2.574427,-2.583358 -3.448058,1.927563 2.457005,4.456539 m 3.11309,0.242188 0.857064,-0.03189 m 1.96512,0.251466 3.338016,-3.753231 -2.802839,3.265185 -0.468062,0.493254 m 0.468062,-0.493254 0.954538,0.603935 -10.581138,-0.823198 -6.136197,1.145945 17.68278,1.557614 m -0.965445,-1.880361 2.591324,-0.969627 3.17836,1.72675 3.59677,5.277527 -1.876104,-0.0035 -1.720666,-5.274073 1.465237,-8.505117 5.421813,0.495226 -6.88705,8.009891 6.66646,-4.31811 -3.06969,9.595635 -0.0873,6.05394 1.02321,-0.226238 -0.70373,1.389774 m -0.31946,-1.163141 -1.788856,-6.057392 -2.070102,-1.777334 -2.482449,4.662686 m 2.866628,1.261082 -0.384179,-5.923768 -1.235745,-2.936611 3.305847,4.713945 -1.685923,4.146434 -2.929942,4.339775 m 3.975634,-2.788938 2.882227,7.56437 -0.45314,-7.204249 -2.429087,-0.360121 -0.447493,8.088495 3.32972,-0.524125 1.73053,0.748776 -2.18367,-7.953025 6.0361,-8.381941 -5.94885,2.328 m -1.876105,-0.0035 -0.640232,5.697272 -1.045692,-1.550837 m 4.497989,1.684719 5.01289,-8.155701 -2.87917,-7.267636 0.2206,-3.691781 1.56657,-4.496911 -6.988387,4.001686 -4.643596,6.778365 -3.545861,0.365693 8.189457,-7.144058 2.698677,-3.631991 8.41252,-6.03582 -7.00515,4.921954 6.28001,-4.803856 0.72514,-0.118098 1.89839,0.892338 -1.64961,4.218006 -4.37159,0.555781 6.0212,-4.773787 5.42193,-4.460119 3.2458,-1.273139 -3.45971,3.695617 0.21391,-2.422478 -7.32032,3.567781 8.90645,-5.75315 4.27089,-1.116004 3.52586,2.669799 -1.2573,-4.159532 -2.26856,1.489733 -5.87109,11.711133 0.44779,3.793145 5.91794,-3.744096 -6.36573,-0.04904 -5.39131,5.122345 5.8391,-1.3292 -5.47233,4.103324 6.13296,-0.599953 -0.66063,-3.503371 7.08703,1.728176 -1.16909,-5.472274 8.08704,6.549039 -6.91795,-1.076765 3.39615,2.303047 2.18861,1.639177 1.33319,-2.865459 3.09271,-2.653268 -1.48246,2.305403 -1.61025,0.347865 -3.5218,1.226282 -2.57811,3.415141 -5.3288,-0.607534 -5.30077,-1.395181 7.93564,-0.355646 -2.63487,1.750827 -1.8623,3.516031 -4.24235,2.704233 6.10465,-6.220264 -7.28353,0.255706 1.17888,5.964558 -4.86001,2.128814 -7.40935,5.45512 m 4.07992,-3.003836 8.18944,-4.580098 -4.90166,-4.172228 -2.35481,3.600463 -1.00998,-4.406872 -1.86919,-2.860766 4.31937,0.626258 1.84405,-6.120926 -4.37625,-2.694022 4.12281,-5.666125 m -0.72514,0.118096 9.63159,-5.871248 1.65967,0.912232 2.61122,-2.028235 0.077,-2.054484 2.19159,0.564752 3.89282,-1.466716 4.88022,9.581642 -2.22661,1.238121 -2.65361,-10.819763 -1.27357,-1.605128 2.15248,2.135718 -0.87891,-0.53059 -2.63552,5.626247 -9.39695,9.041335 -7.05281,3.518168 -0.004,-3.249804 3.76795,-3.018155 -3.7633,6.267959 -5.94281,1.802889 m -0.2206,3.691779 6.16341,-5.494668 1.66151,1.604177 0.36677,2.774124 2.74783,1.340325 3.38513,-1.940278 4.55051,1.584632 2.69392,2.358361 4.76672,-1.775964 -5.18087,1.96724 m 0.41415,-0.191276 -7.19109,2.908497 -2.11752,1.390906 -2.12483,1.313327 m 2.12483,-1.313327 9.30861,-4.299403 m -2.69392,-2.358361 1.87589,-3.359827 -6.4264,1.775195 m -3.38513,1.940278 -1.98276,1.650887 -3.72278,1.79233 -3.36479,-0.806409 2.45018,-2.234508 0.91461,3.040917 0.0417,6.301042 -2.39647,-2.700579 m 1.44022,-6.64138 4.63738,1.248587 -0.76507,-2.991212 -3.87231,1.742625 3.50554,-4.516749 m -6.03775,-4.298199 -4.2897,0.369694 1.40736,-1.113865 m -1.40736,1.113865 -4.909241,5.223801 m 2.21056,-1.59181 -5.386619,3.878873 m -1.848305,3.869121 5.769683,0.757124 -1.585179,0.56013 m -7.9934,-5.19092 v -0.233565 m -0.0517,-0.271216 -3.829571,-6.446191 -4.394468,-4.875555 5.854718,5.255477 -1.320414,-4.164063 -4.534304,-1.091414 1.030548,3.372632 -2.21414,2.5555 -4.083357,2.995542 3.347589,4.047024 0.735768,-7.042566 -1.46679,-1.687475 3.68093,-0.868025 -4.268607,-2.680284 0.587677,3.548309 -2.616567,4.683017 -1.58971,-5.296414 4.206277,0.613397 m 1.46679,1.687475 3.385146,4.73782 -1.699003,4.328852 m -0.416769,0.04912 -2.005142,-2.073226 4.120914,-2.304746 m 3.448061,-1.927563 -1.255144,-3.862834 1.460249,0.379923 1.381188,0.826283 -2.701602,-4.990346 3.228448,2.774763 -1.569176,-7.307332 -1.659272,4.532569 -2.019886,-5.686968 -7.437704,1.443259 3.438504,-1.990384 -3.657657,1.672223 3.701974,-1.728504 3.954883,0.603406 -3.9992,-0.547125 m -3.43835,1.990651 1.685227,3.844642 -3.655102,-0.223829 1.969875,-3.620813 4.923286,3.152294 -3.238059,0.692348 -3.6186,2.934912 -0.03653,-3.158741 0.382975,-1.782722 1.586896,-1.838091 m -0.219149,-0.318161 -1.367743,2.156252 m -0.382975,1.782722 -0.795996,4.632234 0.832491,-1.473493 -0.543378,4.896817 -0.289113,-3.423324 m 0.832491,-1.473493 -0.390555,7.99208 1.980268,-2.695667 -1.336109,3.741194 1.245869,2.919147 3.437828,-2.613316 -1.856723,2.528411 m -1.312925,0.154757 -0.268181,-0.06986 0.09024,-6.66034 m -2.133091,-0.399598 0.152824,3.095263 0.644159,1.045527 0.364016,3.124546 m -0.249918,0.02947 -0.04074,-0.184736 -0.717501,-4.014801 m 0.644159,1.045527 0.07335,2.969274 m 5.346122,-9.706008 6.833204,2.810256 -4.619065,-5.365757 3.36392,1.502923 m 1.46025,0.379923 2.36932,6.066271 m -0.738291,-1.890281 0.991257,-3.200883 -0.714251,-2.364407 0.39651,-1.974108 -1.965688,-5.333224 -3.679157,-1.1544 -2.514417,4.595553 m 8.159262,1.892071 0.317741,4.338515 m -1.241098,-0.148824 0.108293,2.987266 m 0.0944,0.241731 0.324153,-5.44458 -0.526847,2.215583 m 25.092156,-6.905085 5.20802,-2.037641 -3.08967,3.237491 3.28951,2.749791 -0.19984,-5.987282 m 0.21391,-2.42248 1.58613,-2.185369 4.34785,-3.170487 2.30896,-1.580978 -0.11736,2.145729 2.61925,-3.071844 -2.50189,0.926115 m 4.65437,1.209604 4.00131,9.051053 0.6328,9.030757 -11.17975,-3.89577 8.32035,-3.896868 2.8594,7.792638 0.84841,-1.521371 -1.48121,-7.509386 1.3014,3.179163 0.17981,4.330223 m -0.17981,-4.330223 -2.69688,-8.887268 1.39548,5.708105 m -2.2266,1.238119 -5.28914,-5.193515 -3.03121,9.090383 m -6.36574,-0.04905 3.25987,-9.6829 m -6.54938,6.933109 -2.11835,-1.19985 m 11.06679,12.83079 5.27205,-1.056781 m 2.1886,1.639179 2.94342,-3.213325 m -0.54579,-17.044265 -2.60583,-3.342948 m 15.32952,50.947017 4.26957,-0.22613 9.51314,1.1516 -2.13629,-1.36163 -7.37685,0.21003 m -1.01378,3.1822 10.52692,-2.03061 5.16459,2.75573 -15.69151,-0.72512 m 7.74526,4.31228 7.94625,-3.58716 6.30202,3.63919 4.33714,3.66079 -2.35824,4.02881 9.83727,3.49059 0.21141,5.92788 m -0.31737,-10.60171 -8.64777,-7.60748 1.2747,4.76191 m -1.2747,-4.76191 -3.06244,1.10112 -4.13139,-4.77882 -7.33522,-1.6161 m -2.13628,-1.36163 9.4715,2.97773 7.19383,3.6777 m -7.19383,-3.6777 -2.17063,1.13963 1.26662,6.38206 -9.21287,-2.7949 5.85294,10.78512 m -4.13968,4.4838 10.56781,-3.12996 m -10.00766,14.44145 -1.78692,4.22036 -8.74638,-0.32091 -3.54829,8.88903 6.80144,0.68388 m -6.80144,-0.68388 12.29467,-8.56812 m -12.29467,8.56812 -5.06859,-4.93476 -5.44636,2.52641 2.07026,-5.87828 3.3761,3.35187 m -1.13675,5.42328 -4.30961,-2.89687 m -14.21444,-35.63789 -6.46816,-3.20714 0.80219,5.74862 -6.04134,-1.43047 -0.0865,-5.03237 -3.61496,-5.9485 0.34412,1.97282 -3.55979,-5.637326 3.21567,3.664506 -1.48513,-2.915729 4.24781,6.497749 -2.76268,-3.58202 m 2.63253,3.3829 6.82734,1.19741 -0.5193,2.08241 -5.32561,-0.71422 m -2.1603,2.28786 2.24677,2.74451 5.23914,-4.31815 7.82289,0.9674 m 27.80818,73.74361 2.79523,4.70235 -7.23385,-1.07846 5.46557,6.11541 7.38149,-1.39682 m -7.38149,1.39682 -5.9875,-0.51717 m 0.40112,2.8507 5.35395,0.3247 m -1.39947,4.339 7.00748,5.46879 14.2351,-2.09448 -4.56327,0.63767 -0.67121,-7.72949 m 0.54424,6.26722 -5.94964,-1.046 m 20.41301,-7.36356 2.50165,-1.24787 3.46016,-7.14597 2.80644,-7.30728 2.00323,-1.48317 m -2.00323,1.48317 -3.47149,0.30519"
       style="fill:none;stroke:#205a24;stroke-width:0.182516;stroke-miterlimit:4;stroke-dasharray:none;stroke-opacity:1"
       id="path835" />
    <rect
       y="0.0024905307"
       x="0.0024905307"
       height="0.99501967"
       width="0.99501967"
       id="rect1438"
       style="fill:none;stroke:#000000;stroke-width:0.00498035;stroke-miterlimit:4;stroke-dasharray:none;stroke-opacity:1;stop-color:#000000" />
  </g>
</svg>
