<?xml version="1.0"?><svg  viewBox="0 0 200 200" width="180mm" height="180mm" xmlns="http://www.w3.org/2000/svg"  version="1.2" viewport-fill="#fff">
  <polyline points="76.20,91.40,76.20,97.70"  style="fill:none;stroke:#000;stroke-width:0.1953;opacity:1"/>
  <polyline points="76.20,91.40,78.90,91.40,79.80,91.70,80.10,92.00,80.40,92.60,80.40,93.20,80.10,93.80,79.80,94.10,78.90,94.40,76.20,94.40"  style="fill:none;stroke:#000;stroke-width:0.1953;opacity:1"/>
  <polyline points="78.30,94.40,80.40,97.70"  style="fill:none;stroke:#000;stroke-width:0.1953;opacity:1"/>
  <polyline points="82.50,91.40,82.50,97.70"  style="fill:none;stroke:#000;stroke-width:0.1953;opacity:1"/>
  <polyline points="82.50,91.40,86.40,91.40"  style="fill:none;stroke:#000;stroke-width:0.1953;opacity:1"/>
  <polyline points="82.50,94.40,84.90,94.40"  style="fill:none;stroke:#000;stroke-width:0.1953;opacity:1"/>
  <polyline points="82.50,97.70,86.40,97.70"  style="fill:none;stroke:#000;stroke-width:0.1953;opacity:1"/>
  <polyline points="92.40,92.90,92.10,92.30,91.50,91.70,90.90,91.40,89.70,91.40,89.10,91.70,88.50,92.30,88.20,92.90,87.90,93.80,87.90,95.30,88.20,96.20,88.50,96.80,89.10,97.40,89.70,97.70,90.90,97.70,91.50,97.40,92.10,96.80,92.40,96.20"  style="fill:none;stroke:#000;stroke-width:0.1953;opacity:1"/>
  <polyline points="94.50,91.40,94.50,97.70"  style="fill:none;stroke:#000;stroke-width:0.1953;opacity:1"/>
  <polyline points="94.50,91.40,97.20,91.40,98.10,91.70,98.40,92.00,98.70,92.60,98.70,93.20,98.40,93.80,98.10,94.10,97.20,94.40,94.50,94.40"  style="fill:none;stroke:#000;stroke-width:0.1953;opacity:1"/>
  <polyline points="96.60,94.40,98.70,97.70"  style="fill:none;stroke:#000;stroke-width:0.1953;opacity:1"/>
  <polyline points="100.80,91.40,100.80,97.70"  style="fill:none;stroke:#000;stroke-width:0.1953;opacity:1"/>
  <polyline points="100.80,91.40,104.70,91.40"  style="fill:none;stroke:#000;stroke-width:0.1953;opacity:1"/>
  <polyline points="100.80,94.40,103.20,94.40"  style="fill:none;stroke:#000;stroke-width:0.1953;opacity:1"/>
  <polyline points="100.80,97.70,104.70,97.70"  style="fill:none;stroke:#000;stroke-width:0.1953;opacity:1"/>
  <polyline points="108.00,91.40,107.40,91.70,106.80,92.30,106.50,92.90,106.20,93.80,106.20,95.30,106.50,96.20,106.80,96.80,107.40,97.40,108.00,97.70,109.20,97.70,109.80,97.40,110.40,96.80,110.70,96.20,111.00,95.30,111.00,93.80,110.70,92.90,110.40,92.30,109.80,91.70,109.20,91.40,108.00,91.40"  style="fill:none;stroke:#000;stroke-width:0.1953;opacity:1"/>
</svg>