<?xml version="1.0"?><svg  viewBox="0 0 200 200" width="86mm" height="86mm" xmlns="http://www.w3.org/2000/svg"  version="1.2" viewport-fill="#fff">
  <polyline points="77.700,91.400,75.300,97.700"  style="fill:none;stroke:#000;stroke-width:0.1953;opacity:1"/>
  <polyline points="77.700,91.400,80.100,97.700"  style="fill:none;stroke:#000;stroke-width:0.1953;opacity:1"/>
  <polyline points="76.200,95.600,79.200,95.600"  style="fill:none;stroke:#000;stroke-width:0.1953;opacity:1"/>
  <polyline points="81.600,93.500,81.600,97.700"  style="fill:none;stroke:#000;stroke-width:0.1953;opacity:1"/>
  <polyline points="81.600,94.700,82.500,93.800,83.100,93.500,84.000,93.500,84.600,93.800,84.900,94.700,84.900,97.700"  style="fill:none;stroke:#000;stroke-width:0.1953;opacity:1"/>
  <polyline points="84.900,94.700,85.800,93.800,86.400,93.500,87.300,93.500,87.900,93.800,88.200,94.700,88.200,97.700"  style="fill:none;stroke:#000;stroke-width:0.1953;opacity:1"/>
  <polyline points="91.800,93.500,91.200,93.800,90.600,94.400,90.300,95.300,90.300,95.900,90.600,96.800,91.200,97.400,91.800,97.700,92.700,97.700,93.300,97.400,93.900,96.800,94.200,95.900,94.200,95.300,93.900,94.400,93.300,93.800,92.700,93.500,91.800,93.500"  style="fill:none;stroke:#000;stroke-width:0.1953;opacity:1"/>
  <polyline points="96.300,93.500,96.300,97.700"  style="fill:none;stroke:#000;stroke-width:0.1953;opacity:1"/>
  <polyline points="96.300,95.300,96.600,94.400,97.200,93.800,97.800,93.500,98.700,93.500"  style="fill:none;stroke:#000;stroke-width:0.1953;opacity:1"/>
  <polyline points="85.500,110.300,85.500,109.700,85.800,108.800,86.400,108.500,87.000,108.500,87.600,108.800,88.800,109.700,89.400,110.000,90.000,110.000,90.600,109.700,90.900,109.100"  style="fill:none;stroke:#000;stroke-width:0.1953;opacity:1"/>
  <polyline points="85.500,109.700,85.800,109.100,86.400,108.800,87.000,108.800,87.600,109.100,88.800,110.000,89.400,110.300,90.000,110.300,90.600,110.000,90.900,109.100,90.900,108.500"  style="fill:none;stroke:#000;stroke-width:0.1953;opacity:1"/>
</svg>