<?xml version="1.0"?><svg  viewBox="0 0 200 200" width="86mm" height="86mm" xmlns="http://www.w3.org/2000/svg"  version="1.2" viewport-fill="#fff">
  <polyline points="77.700,91.400,75.300,97.700"  style="fill:none;stroke:#000;stroke-width:0.1953;opacity:1"/>
  <polyline points="77.700,91.400,80.100,97.700"  style="fill:none;stroke:#000;stroke-width:0.1953;opacity:1"/>
  <polyline points="76.200,95.600,79.200,95.600"  style="fill:none;stroke:#000;stroke-width:0.1953;opacity:1"/>
  <polyline points="81.600,91.400,81.600,97.700"  style="fill:none;stroke:#000;stroke-width:0.1953;opacity:1"/>
  <polyline points="81.600,91.400,84.000,97.700"  style="fill:none;stroke:#000;stroke-width:0.1953;opacity:1"/>
  <polyline points="86.400,91.400,84.000,97.700"  style="fill:none;stroke:#000;stroke-width:0.1953;opacity:1"/>
  <polyline points="86.400,91.400,86.400,97.700"  style="fill:none;stroke:#000;stroke-width:0.1953;opacity:1"/>
  <polyline points="90.300,91.400,89.700,91.700,89.100,92.300,88.800,92.900,88.500,93.800,88.500,95.300,88.800,96.200,89.100,96.800,89.700,97.400,90.300,97.700,91.500,97.700,92.100,97.400,92.700,96.800,93.000,96.200,93.300,95.300,93.300,93.800,93.000,92.900,92.700,92.300,92.100,91.700,91.500,91.400,90.300,91.400"  style="fill:none;stroke:#000;stroke-width:0.1953;opacity:1"/>
  <polyline points="95.400,91.400,95.400,97.700"  style="fill:none;stroke:#000;stroke-width:0.1953;opacity:1"/>
  <polyline points="95.400,91.400,98.100,91.400,99.000,91.700,99.300,92.000,99.600,92.600,99.600,93.200,99.300,93.800,99.000,94.100,98.100,94.400,95.400,94.400"  style="fill:none;stroke:#000;stroke-width:0.1953;opacity:1"/>
  <polyline points="97.500,94.400,99.600,97.700"  style="fill:none;stroke:#000;stroke-width:0.1953;opacity:1"/>
  <polyline points="85.500,110.300,85.500,109.700,85.800,108.800,86.400,108.500,87.000,108.500,87.600,108.800,88.800,109.700,89.400,110.000,90.000,110.000,90.600,109.700,90.900,109.100"  style="fill:none;stroke:#000;stroke-width:0.1953;opacity:1"/>
  <polyline points="85.500,109.700,85.800,109.100,86.400,108.800,87.000,108.800,87.600,109.100,88.800,110.000,89.400,110.300,90.000,110.300,90.600,110.000,90.900,109.100,90.900,108.500"  style="fill:none;stroke:#000;stroke-width:0.1953;opacity:1"/>
</svg>