<?xml version="1.0" encoding="utf-8"?>
<!-- Generator: Adobe Illustrator 22.0.0, SVG Export Plug-In . SVG Version: 6.00 Build 0)  -->
<svg version="1.1" id="Layer_1" xmlns="http://www.w3.org/2000/svg" xmlns:xlink="http://www.w3.org/1999/xlink" x="0px" y="0px"
	 viewBox="0 0 154 243" style="enable-background:new 0 0 154 243;" xml:space="preserve">
<style type="text/css">
	.st0{fill:none;stroke:#000000;stroke-linecap:round;stroke-miterlimit:10;}
</style>
<g>
	<g>
		<line class="st0" x1="0" y1="0" x2="-10" y2="-10"/>
		<line class="st0" x1="154" y1="0" x2="164" y2="-10"/>
		<line class="st0" x1="0" y1="243" x2="-10" y2="253"/>
		<line class="st0" x1="154" y1="243" x2="164" y2="253"/>
	</g>
	<line class="st0" x1="23" y1="60.2" x2="32.8" y2="62.5"/>
	<line class="st0" x1="18.9" y1="50.7" x2="23" y2="60.2"/>
	<line class="st0" x1="18.9" y1="50.7" x2="25.5" y2="33.9"/>
	<line class="st0" x1="18.9" y1="50.7" x2="32.8" y2="62.5"/>
	<line class="st0" x1="18.9" y1="50.7" x2="19.5" y2="46.1"/>
	<line class="st0" x1="12.4" y1="10.5" x2="25.7" y2="17.5"/>
	<line class="st0" x1="12.4" y1="10.5" x2="20.6" y2="11.1"/>
	<line class="st0" x1="12.4" y1="10.5" x2="16.6" y2="17.7"/>
	<line class="st0" x1="25.7" y1="17.5" x2="12.4" y2="10.5"/>
	<line class="st0" x1="25.7" y1="17.5" x2="20.6" y2="11.1"/>
	<line class="st0" x1="25.7" y1="17.5" x2="16.6" y2="17.7"/>
	<line class="st0" x1="25.7" y1="17.5" x2="25.5" y2="33.9"/>
	<line class="st0" x1="20.6" y1="11.1" x2="12.4" y2="10.5"/>
	<line class="st0" x1="20.6" y1="11.1" x2="25.7" y2="17.5"/>
	<line class="st0" x1="20.6" y1="11.1" x2="16.6" y2="17.7"/>
	<line class="st0" x1="16.6" y1="17.7" x2="12.4" y2="10.5"/>
	<line class="st0" x1="16.6" y1="17.7" x2="25.7" y2="17.5"/>
	<line class="st0" x1="16.6" y1="17.7" x2="20.6" y2="11.1"/>
	<line class="st0" x1="16.6" y1="17.7" x2="25.5" y2="33.9"/>
	<line class="st0" x1="44.5" y1="65.9" x2="32.8" y2="62.5"/>
	<line class="st0" x1="25.5" y1="33.9" x2="18.9" y2="50.7"/>
	<line class="st0" x1="25.5" y1="33.9" x2="25.7" y2="17.5"/>
	<line class="st0" x1="25.5" y1="33.9" x2="16.6" y2="17.7"/>
	<line class="st0" x1="25.5" y1="33.9" x2="19.5" y2="46.1"/>
	<line class="st0" x1="32.8" y1="62.5" x2="23" y2="60.2"/>
	<line class="st0" x1="32.8" y1="62.5" x2="18.9" y2="50.7"/>
	<line class="st0" x1="32.8" y1="62.5" x2="44.5" y2="65.9"/>
	<line class="st0" x1="19.5" y1="46.1" x2="18.9" y2="50.7"/>
	<line class="st0" x1="19.5" y1="46.1" x2="25.5" y2="33.9"/>
	<line class="st0" x1="112.7" y1="43.2" x2="109.2" y2="48.6"/>
	<line class="st0" x1="112.7" y1="43.2" x2="104.2" y2="35.1"/>
	<line class="st0" x1="112.7" y1="43.2" x2="109.3" y2="30.4"/>
	<line class="st0" x1="106.5" y1="7.1" x2="104.7" y2="19.9"/>
	<line class="st0" x1="106.5" y1="7.1" x2="115.6" y2="16.8"/>
	<line class="st0" x1="109.2" y1="48.6" x2="112.7" y2="43.2"/>
	<line class="st0" x1="109.2" y1="48.6" x2="104.2" y2="35.1"/>
	<line class="st0" x1="109.2" y1="48.6" x2="109.3" y2="30.4"/>
	<line class="st0" x1="73.7" y1="19.1" x2="87.9" y2="30.2"/>
	<line class="st0" x1="73.7" y1="19.1" x2="77.9" y2="32.7"/>
	<line class="st0" x1="104.2" y1="35.1" x2="112.7" y2="43.2"/>
	<line class="st0" x1="104.2" y1="35.1" x2="109.2" y2="48.6"/>
	<line class="st0" x1="104.2" y1="35.1" x2="109.3" y2="30.4"/>
	<line class="st0" x1="104.2" y1="35.1" x2="104.7" y2="19.9"/>
	<line class="st0" x1="104.2" y1="35.1" x2="87.9" y2="30.2"/>
	<line class="st0" x1="109.3" y1="30.4" x2="112.7" y2="43.2"/>
	<line class="st0" x1="109.3" y1="30.4" x2="109.2" y2="48.6"/>
	<line class="st0" x1="109.3" y1="30.4" x2="104.2" y2="35.1"/>
	<line class="st0" x1="109.3" y1="30.4" x2="104.7" y2="19.9"/>
	<line class="st0" x1="109.3" y1="30.4" x2="115.6" y2="16.8"/>
	<line class="st0" x1="104.7" y1="19.9" x2="106.5" y2="7.1"/>
	<line class="st0" x1="104.7" y1="19.9" x2="104.2" y2="35.1"/>
	<line class="st0" x1="104.7" y1="19.9" x2="109.3" y2="30.4"/>
	<line class="st0" x1="104.7" y1="19.9" x2="87.9" y2="30.2"/>
	<line class="st0" x1="104.7" y1="19.9" x2="115.6" y2="16.8"/>
	<line class="st0" x1="87.9" y1="30.2" x2="73.7" y2="19.1"/>
	<line class="st0" x1="87.9" y1="30.2" x2="104.2" y2="35.1"/>
	<line class="st0" x1="87.9" y1="30.2" x2="104.7" y2="19.9"/>
	<line class="st0" x1="87.9" y1="30.2" x2="77.9" y2="32.7"/>
	<line class="st0" x1="115.6" y1="16.8" x2="106.5" y2="7.1"/>
	<line class="st0" x1="115.6" y1="16.8" x2="109.3" y2="30.4"/>
	<line class="st0" x1="115.6" y1="16.8" x2="104.7" y2="19.9"/>
	<line class="st0" x1="77.9" y1="32.7" x2="73.7" y2="19.1"/>
	<line class="st0" x1="77.9" y1="32.7" x2="87.9" y2="30.2"/>
</g>
<g>
	<g>
		<line class="st0" x1="0" y1="0" x2="-10" y2="-10"/>
		<line class="st0" x1="154" y1="0" x2="164" y2="-10"/>
		<line class="st0" x1="0" y1="243" x2="-10" y2="253"/>
		<line class="st0" x1="154" y1="243" x2="164" y2="253"/>
	</g>
</g>
<line class="st0" x1="147.8" y1="9" x2="139.7" y2="13"/>
<line class="st0" x1="132.7" y1="38.2" x2="128.8" y2="49.8"/>
<line class="st0" x1="132.7" y1="38.2" x2="143" y2="29.8"/>
<line class="st0" x1="132.7" y1="38.2" x2="142" y2="32.7"/>
<line class="st0" x1="128.8" y1="49.8" x2="132.7" y2="38.2"/>
<line class="st0" x1="143" y1="29.8" x2="132.7" y2="38.2"/>
<line class="st0" x1="143" y1="29.8" x2="142" y2="32.7"/>
<line class="st0" x1="142" y1="32.7" x2="132.7" y2="38.2"/>
<line class="st0" x1="142" y1="32.7" x2="143" y2="29.8"/>
<line class="st0" x1="82.7" y1="71" x2="76.1" y2="58.6"/>
<line class="st0" x1="82.7" y1="72" x2="96.7" y2="77.5"/>
<line class="st0" x1="82.7" y1="72" x2="91.5" y2="74.6"/>
<line class="st0" x1="58.1" y1="76.7" x2="40.1" y2="82.4"/>
<line class="st0" x1="58.1" y1="76.7" x2="64.6" y2="82.2"/>
<line class="st0" x1="58.1" y1="76.7" x2="59.9" y2="72.9"/>
<line class="st0" x1="76.1" y1="58.6" x2="82.7" y2="71"/>
<line class="st0" x1="76.1" y1="59.6" x2="66.7" y2="57.6"/>
<line class="st0" x1="76.1" y1="59.6" x2="75.8" y2="52.9"/>
<line class="st0" x1="76.1" y1="59.6" x2="61.9" y2="55.1"/>
<line class="st0" x1="40.1" y1="82.4" x2="58.1" y2="76.7"/>
<line class="st0" x1="134.8" y1="92.9" x2="136.8" y2="73.2"/>
<line class="st0" x1="134.8" y1="92.9" x2="143.9" y2="82.6"/>
<line class="st0" x1="66.7" y1="57.6" x2="76.1" y2="59.6"/>
<line class="st0" x1="66.7" y1="57.6" x2="75.8" y2="52.9"/>
<line class="st0" x1="66.7" y1="57.6" x2="61.9" y2="55.1"/>
<line class="st0" x1="112.1" y1="72.5" x2="121.5" y2="66.5"/>
<line class="st0" x1="112.1" y1="72.5" x2="96.7" y2="77.5"/>
<line class="st0" x1="121.5" y1="66.5" x2="112.1" y2="72.5"/>
<line class="st0" x1="121.5" y1="66.5" x2="136.8" y2="73.2"/>
<line class="st0" x1="75.8" y1="52.9" x2="76.1" y2="59.6"/>
<line class="st0" x1="75.8" y1="52.9" x2="66.7" y2="57.6"/>
<line class="st0" x1="75.8" y1="52.9" x2="61.9" y2="55.1"/>
<line class="st0" x1="64.6" y1="82.2" x2="58.1" y2="76.7"/>
<line class="st0" x1="64.6" y1="82.2" x2="59.9" y2="72.9"/>
<line class="st0" x1="97" y1="94.8" x2="96.7" y2="77.5"/>
<line class="st0" x1="136.8" y1="73.2" x2="134.8" y2="92.9"/>
<line class="st0" x1="136.8" y1="73.2" x2="121.5" y2="66.5"/>
<line class="st0" x1="136.8" y1="73.2" x2="143.9" y2="82.6"/>
<line class="st0" x1="61.9" y1="55.1" x2="76.1" y2="59.6"/>
<line class="st0" x1="61.9" y1="55.1" x2="66.7" y2="57.6"/>
<line class="st0" x1="61.9" y1="55.1" x2="75.8" y2="52.9"/>
<line class="st0" x1="96.7" y1="77.5" x2="82.7" y2="72"/>
<line class="st0" x1="96.7" y1="77.5" x2="112.1" y2="72.5"/>
<line class="st0" x1="96.7" y1="77.5" x2="97" y2="94.8"/>
<line class="st0" x1="96.7" y1="77.5" x2="91.5" y2="74.6"/>
<line class="st0" x1="91.5" y1="74.6" x2="82.7" y2="72"/>
<line class="st0" x1="91.5" y1="74.6" x2="96.7" y2="77.5"/>
<line class="st0" x1="59.9" y1="72.9" x2="58.1" y2="76.7"/>
<line class="st0" x1="59.9" y1="72.9" x2="64.6" y2="82.2"/>
<line class="st0" x1="143.9" y1="82.6" x2="134.8" y2="92.9"/>
<line class="st0" x1="143.9" y1="82.6" x2="136.8" y2="73.2"/>
<line class="st0" x1="8.1" y1="70.8" x2="12.1" y2="70"/>
<line class="st0" x1="8.1" y1="70.8" x2="17.4" y2="84.7"/>
<line class="st0" x1="12.1" y1="70" x2="8.1" y2="70.8"/>
<line class="st0" x1="12.1" y1="70" x2="17.4" y2="84.7"/>
<line class="st0" x1="17.4" y1="84.7" x2="8.1" y2="70.8"/>
<line class="st0" x1="17.4" y1="84.7" x2="12.1" y2="70"/>
<line class="st0" x1="52.2" y1="39.9" x2="48.2" y2="23.7"/>
<line class="st0" x1="48.2" y1="23.7" x2="52.2" y2="39.9"/>
</svg>
