<?xml version="1.0" encoding="utf-8"?>
<!-- Generator: Adobe Illustrator 22.0.0, SVG Export Plug-In . SVG Version: 6.00 Build 0)  -->
<svg version="1.1" id="Layer_1" xmlns="http://www.w3.org/2000/svg" xmlns:xlink="http://www.w3.org/1999/xlink" x="0px" y="0px"
	 viewBox="0 0 154 243" style="enable-background:new 0 0 154 243;" xml:space="preserve">
<style type="text/css">
	.st0{fill:#FFFFFF;}
	.st1{fill:none;stroke:#000000;stroke-linecap:round;stroke-miterlimit:10;}
	.st2{fill:none;stroke:#000000;stroke-width:0.1953;}
</style>
<g>
	<g>
		<path class="st0" d="M144,0c6.7,0,10,3.3,10,10v223c0,6.7-3.3,10-10,10H10c-6.7,0-10-3.3-10-10V10C0,3.3,3.3,0,10,0H144z"/>
	</g>
	<g>
		<path class="st1" d="M144,0c6.7,0,10,3.3,10,10v223c0,6.7-3.3,10-10,10H10c-6.7,0-10-3.3-10-10V10C0,3.3,3.3,0,10,0H144z"/>
		<line class="st1" x1="0" y1="0" x2="-10" y2="-10"/>
		<line class="st1" x1="154" y1="0" x2="164" y2="-10"/>
		<line class="st1" x1="0" y1="243" x2="-10" y2="253"/>
		<line class="st1" x1="154" y1="243" x2="164" y2="253"/>
	</g>
</g>
<g>
	<line class="st2" x1="65.1" y1="154.3" x2="62.2" y2="161.9"/>
	<line class="st2" x1="65.1" y1="154.3" x2="68" y2="161.9"/>
	<line class="st2" x1="63.3" y1="159.4" x2="66.9" y2="159.4"/>
	<line class="st2" x1="69.9" y1="154.3" x2="69.9" y2="161.9"/>
	<line class="st2" x1="69.9" y1="154.3" x2="72.8" y2="161.9"/>
	<line class="st2" x1="75.7" y1="154.3" x2="72.8" y2="161.9"/>
	<line class="st2" x1="75.7" y1="154.3" x2="75.7" y2="161.9"/>
	<polyline class="st2" points="80.5,154.3 79.7,154.6 79,155.4 78.6,156.1 78.3,157.2 78.3,159 78.6,160.1 79,160.8 79.7,161.6 
		80.5,161.9 81.9,161.9 82.7,161.6 83.4,160.8 83.8,160.1 84.1,159 84.1,157.2 83.8,156.1 83.4,155.4 82.7,154.6 81.9,154.3 
		80.5,154.3 	"/>
	<line class="st2" x1="86.7" y1="154.3" x2="86.7" y2="161.9"/>
	<polyline class="st2" points="86.7,154.3 90,154.3 91.1,154.6 91.4,155 91.8,155.7 91.8,156.5 91.4,157.2 91.1,157.5 90,157.9 
		86.7,157.9 	"/>
	<line class="st2" x1="89.2" y1="157.9" x2="91.8" y2="161.9"/>
	<polyline class="st2" points="74.6,177.3 74.6,176.6 75,175.5 75.7,175.1 76.5,175.1 77.2,175.5 78.6,176.6 79.4,176.9 80.1,176.9 
		80.8,176.6 81.2,175.8 	"/>
	<polyline class="st2" points="74.6,176.6 75,175.8 75.7,175.5 76.5,175.5 77.2,175.8 78.6,176.9 79.4,177.3 80.1,177.3 80.8,176.9 
		81.2,175.8 81.2,175.1 	"/>
</g>
</svg>
