<?xml version="1.0" encoding="utf-8"?>
<!-- Generator: Adobe Illustrator 22.0.0, SVG Export Plug-In . SVG Version: 6.00 Build 0)  -->
<svg version="1.1" id="Layer_1" xmlns="http://www.w3.org/2000/svg" xmlns:xlink="http://www.w3.org/1999/xlink" x="0px" y="0px"
	 viewBox="0 0 154 243" style="enable-background:new 0 0 154 243;" xml:space="preserve">
<style type="text/css">
	.st0{fill:none;stroke:#000000;stroke-linecap:round;stroke-miterlimit:10;}
</style>
<g>
	<g>
		<line class="st0" x1="0" y1="0" x2="-10" y2="-10"/>
		<line class="st0" x1="154" y1="0" x2="164" y2="-10"/>
		<line class="st0" x1="0" y1="243" x2="-10" y2="253"/>
		<line class="st0" x1="154" y1="243" x2="164" y2="253"/>
	</g>
</g>
<g>
	<g transform="translate(77,145.8)">
		<line class="st0" x1="0" y1="0" x2="0" y2="10"/>
	</g>
	<g transform="translate(77,145.8)">
		<line class="st0" x1="3" y1="0" x2="3" y2="10"/>
		<line class="st0" x1="6" y1="0" x2="6" y2="10"/>
		<line class="st0" x1="9" y1="0" x2="9" y2="10"/>
		<line class="st0" x1="12" y1="0" x2="12" y2="10"/>
		<line class="st0" x1="15" y1="0" x2="15" y2="10"/>
		<line class="st0" x1="18" y1="0" x2="18" y2="10"/>
		<line class="st0" x1="21" y1="0" x2="21" y2="10"/>
		<line class="st0" x1="24" y1="0" x2="24" y2="10"/>
		<line class="st0" x1="27" y1="0" x2="27" y2="10"/>
		<line class="st0" x1="30" y1="0" x2="30" y2="10"/>
		<line class="st0" x1="33" y1="0" x2="33" y2="10"/>
		<line class="st0" x1="36" y1="0" x2="36" y2="10"/>
		<line class="st0" x1="39" y1="0" x2="39" y2="10"/>
		<line class="st0" x1="42" y1="0" x2="42" y2="10"/>
		<line class="st0" x1="45" y1="0" x2="45" y2="10"/>
		<line class="st0" x1="48" y1="0" x2="48" y2="10"/>
		<line class="st0" x1="51" y1="0" x2="51" y2="10"/>
		<line class="st0" x1="54" y1="0" x2="54" y2="10"/>
		<line class="st0" x1="57" y1="0" x2="57" y2="10"/>
		<line class="st0" x1="60" y1="0" x2="60" y2="10"/>
		<line class="st0" x1="63" y1="0" x2="63" y2="10"/>
		<line class="st0" x1="66" y1="0" x2="66" y2="10"/>
		<line class="st0" x1="69" y1="0" x2="69" y2="10"/>
		<line class="st0" x1="72" y1="0" x2="72" y2="10"/>
		<line class="st0" x1="75" y1="0" x2="75" y2="10"/>
		<line class="st0" x1="0" y1="10" x2="0" y2="20"/>
		<line class="st0" x1="4" y1="10" x2="4" y2="20"/>
		<line class="st0" x1="8" y1="10" x2="8" y2="20"/>
		<line class="st0" x1="12" y1="10" x2="12" y2="20"/>
		<line class="st0" x1="16" y1="10" x2="16" y2="20"/>
		<line class="st0" x1="20" y1="10" x2="20" y2="20"/>
		<line class="st0" x1="24" y1="10" x2="24" y2="20"/>
		<line class="st0" x1="28" y1="10" x2="28" y2="20"/>
		<line class="st0" x1="32" y1="10" x2="32" y2="20"/>
		<line class="st0" x1="36" y1="10" x2="36" y2="20"/>
		<line class="st0" x1="40" y1="10" x2="40" y2="20"/>
		<line class="st0" x1="44" y1="10" x2="44" y2="20"/>
		<line class="st0" x1="48" y1="10" x2="48" y2="20"/>
		<line class="st0" x1="52" y1="10" x2="52" y2="20"/>
		<line class="st0" x1="56" y1="10" x2="56" y2="20"/>
		<line class="st0" x1="60" y1="10" x2="60" y2="20"/>
		<line class="st0" x1="64" y1="10" x2="64" y2="20"/>
		<line class="st0" x1="68" y1="10" x2="68" y2="20"/>
		<line class="st0" x1="72" y1="10" x2="72" y2="20"/>
		<line class="st0" x1="76" y1="10" x2="76" y2="20"/>
		<line class="st0" x1="0" y1="20" x2="0" y2="30"/>
		<line class="st0" x1="5" y1="20" x2="5" y2="30"/>
		<line class="st0" x1="10" y1="20" x2="10" y2="30"/>
		<line class="st0" x1="15" y1="20" x2="15" y2="30"/>
		<line class="st0" x1="20" y1="20" x2="20" y2="30"/>
		<line class="st0" x1="25" y1="20" x2="25" y2="30"/>
		<line class="st0" x1="30" y1="20" x2="30" y2="30"/>
		<line class="st0" x1="35" y1="20" x2="35" y2="30"/>
		<line class="st0" x1="40" y1="20" x2="40" y2="30"/>
		<line class="st0" x1="45" y1="20" x2="45" y2="30"/>
		<line class="st0" x1="50" y1="20" x2="50" y2="30"/>
		<line class="st0" x1="55" y1="20" x2="55" y2="30"/>
		<line class="st0" x1="60" y1="20" x2="60" y2="30"/>
		<line class="st0" x1="65" y1="20" x2="65" y2="30"/>
		<line class="st0" x1="70" y1="20" x2="70" y2="30"/>
		<line class="st0" x1="75" y1="20" x2="75" y2="30"/>
		<line class="st0" x1="0" y1="30" x2="0" y2="40"/>
		<line class="st0" x1="6" y1="30" x2="6" y2="40"/>
		<line class="st0" x1="12" y1="30" x2="12" y2="40"/>
		<line class="st0" x1="18" y1="30" x2="18" y2="40"/>
		<line class="st0" x1="24" y1="30" x2="24" y2="40"/>
		<line class="st0" x1="30" y1="30" x2="30" y2="40"/>
		<line class="st0" x1="36" y1="30" x2="36" y2="40"/>
		<line class="st0" x1="42" y1="30" x2="42" y2="40"/>
		<line class="st0" x1="48" y1="30" x2="48" y2="40"/>
		<line class="st0" x1="54" y1="30" x2="54" y2="40"/>
		<line class="st0" x1="60" y1="30" x2="60" y2="40"/>
		<line class="st0" x1="66" y1="30" x2="66" y2="40"/>
		<line class="st0" x1="72" y1="30" x2="72" y2="40"/>
		<line class="st0" x1="0" y1="40" x2="0" y2="50"/>
		<line class="st0" x1="7" y1="40" x2="7" y2="50"/>
		<line class="st0" x1="14" y1="40" x2="14" y2="50"/>
		<line class="st0" x1="21" y1="40" x2="21" y2="50"/>
		<line class="st0" x1="28" y1="40" x2="28" y2="50"/>
		<line class="st0" x1="35" y1="40" x2="35" y2="50"/>
		<line class="st0" x1="42" y1="40" x2="42" y2="50"/>
		<line class="st0" x1="49" y1="40" x2="49" y2="50"/>
		<line class="st0" x1="56" y1="40" x2="56" y2="50"/>
		<line class="st0" x1="63" y1="40" x2="63" y2="50"/>
		<line class="st0" x1="70" y1="40" x2="70" y2="50"/>
		<line class="st0" x1="0" y1="50" x2="0" y2="60"/>
		<line class="st0" x1="8" y1="50" x2="8" y2="60"/>
		<line class="st0" x1="16" y1="50" x2="16" y2="60"/>
		<line class="st0" x1="24" y1="50" x2="24" y2="60"/>
		<line class="st0" x1="32" y1="50" x2="32" y2="60"/>
		<line class="st0" x1="40" y1="50" x2="40" y2="60"/>
		<line class="st0" x1="48" y1="50" x2="48" y2="60"/>
		<line class="st0" x1="56" y1="50" x2="56" y2="60"/>
		<line class="st0" x1="64" y1="50" x2="64" y2="60"/>
		<line class="st0" x1="72" y1="50" x2="72" y2="60"/>
		<line class="st0" x1="0" y1="60" x2="0" y2="70"/>
		<line class="st0" x1="9" y1="60" x2="9" y2="70"/>
		<line class="st0" x1="18" y1="60" x2="18" y2="70"/>
		<line class="st0" x1="27" y1="60" x2="27" y2="70"/>
		<line class="st0" x1="36" y1="60" x2="36" y2="70"/>
		<line class="st0" x1="45" y1="60" x2="45" y2="70"/>
		<line class="st0" x1="54" y1="60" x2="54" y2="70"/>
		<line class="st0" x1="63" y1="60" x2="63" y2="70"/>
		<line class="st0" x1="72" y1="60" x2="72" y2="70"/>
		<line class="st0" x1="0" y1="70" x2="0" y2="80"/>
		<line class="st0" x1="10" y1="70" x2="10" y2="80"/>
		<line class="st0" x1="20" y1="70" x2="20" y2="80"/>
		<line class="st0" x1="30" y1="70" x2="30" y2="80"/>
		<line class="st0" x1="40" y1="70" x2="40" y2="80"/>
		<line class="st0" x1="50" y1="70" x2="50" y2="80"/>
		<line class="st0" x1="60" y1="70" x2="60" y2="80"/>
		<line class="st0" x1="70" y1="70" x2="70" y2="80"/>
		<line class="st0" x1="0" y1="80" x2="0" y2="90"/>
		<line class="st0" x1="11" y1="80" x2="11" y2="90"/>
		<line class="st0" x1="22" y1="80" x2="22" y2="90"/>
		<line class="st0" x1="33" y1="80" x2="33" y2="90"/>
		<line class="st0" x1="44" y1="80" x2="44" y2="90"/>
		<line class="st0" x1="55" y1="80" x2="55" y2="90"/>
		<line class="st0" x1="66" y1="80" x2="66" y2="90"/>
		<line class="st0" x1="0" y1="90" x2="0" y2="100"/>
		<line class="st0" x1="12" y1="90" x2="12" y2="100"/>
		<line class="st0" x1="24" y1="90" x2="24" y2="100"/>
		<line class="st0" x1="36" y1="90" x2="36" y2="100"/>
		<line class="st0" x1="48" y1="90" x2="48" y2="100"/>
		<line class="st0" x1="60" y1="90" x2="60" y2="100"/>
		<line class="st0" x1="72" y1="90" x2="72" y2="100"/>
		<line class="st0" x1="0" y1="0" x2="0" y2="10"/>
		<line class="st0" x1="-3" y1="0" x2="-3" y2="10"/>
		<line class="st0" x1="-6" y1="0" x2="-6" y2="10"/>
		<line class="st0" x1="-9" y1="0" x2="-9" y2="10"/>
		<line class="st0" x1="-12" y1="0" x2="-12" y2="10"/>
		<line class="st0" x1="-15" y1="0" x2="-15" y2="10"/>
		<line class="st0" x1="-18" y1="0" x2="-18" y2="10"/>
		<line class="st0" x1="-21" y1="0" x2="-21" y2="10"/>
		<line class="st0" x1="-24" y1="0" x2="-24" y2="10"/>
		<line class="st0" x1="-27" y1="0" x2="-27" y2="10"/>
		<line class="st0" x1="-30" y1="0" x2="-30" y2="10"/>
		<line class="st0" x1="-33" y1="0" x2="-33" y2="10"/>
		<line class="st0" x1="-36" y1="0" x2="-36" y2="10"/>
		<line class="st0" x1="-39" y1="0" x2="-39" y2="10"/>
		<line class="st0" x1="-42" y1="0" x2="-42" y2="10"/>
		<line class="st0" x1="-45" y1="0" x2="-45" y2="10"/>
		<line class="st0" x1="-48" y1="0" x2="-48" y2="10"/>
		<line class="st0" x1="-51" y1="0" x2="-51" y2="10"/>
		<line class="st0" x1="-54" y1="0" x2="-54" y2="10"/>
		<line class="st0" x1="-57" y1="0" x2="-57" y2="10"/>
		<line class="st0" x1="-60" y1="0" x2="-60" y2="10"/>
		<line class="st0" x1="-63" y1="0" x2="-63" y2="10"/>
		<line class="st0" x1="-66" y1="0" x2="-66" y2="10"/>
		<line class="st0" x1="-69" y1="0" x2="-69" y2="10"/>
		<line class="st0" x1="-72" y1="0" x2="-72" y2="10"/>
		<line class="st0" x1="-75" y1="0" x2="-75" y2="10"/>
		<line class="st0" x1="0" y1="10" x2="0" y2="20"/>
		<line class="st0" x1="-4" y1="10" x2="-4" y2="20"/>
		<line class="st0" x1="-8" y1="10" x2="-8" y2="20"/>
		<line class="st0" x1="-12" y1="10" x2="-12" y2="20"/>
		<line class="st0" x1="-16" y1="10" x2="-16" y2="20"/>
		<line class="st0" x1="-20" y1="10" x2="-20" y2="20"/>
		<line class="st0" x1="-24" y1="10" x2="-24" y2="20"/>
		<line class="st0" x1="-28" y1="10" x2="-28" y2="20"/>
		<line class="st0" x1="-32" y1="10" x2="-32" y2="20"/>
		<line class="st0" x1="-36" y1="10" x2="-36" y2="20"/>
		<line class="st0" x1="-40" y1="10" x2="-40" y2="20"/>
		<line class="st0" x1="-44" y1="10" x2="-44" y2="20"/>
		<line class="st0" x1="-48" y1="10" x2="-48" y2="20"/>
		<line class="st0" x1="-52" y1="10" x2="-52" y2="20"/>
		<line class="st0" x1="-56" y1="10" x2="-56" y2="20"/>
		<line class="st0" x1="-60" y1="10" x2="-60" y2="20"/>
		<line class="st0" x1="-64" y1="10" x2="-64" y2="20"/>
		<line class="st0" x1="-68" y1="10" x2="-68" y2="20"/>
		<line class="st0" x1="-72" y1="10" x2="-72" y2="20"/>
		<line class="st0" x1="-76" y1="10" x2="-76" y2="20"/>
		<line class="st0" x1="0" y1="20" x2="0" y2="30"/>
		<line class="st0" x1="-5" y1="20" x2="-5" y2="30"/>
		<line class="st0" x1="-10" y1="20" x2="-10" y2="30"/>
		<line class="st0" x1="-15" y1="20" x2="-15" y2="30"/>
		<line class="st0" x1="-20" y1="20" x2="-20" y2="30"/>
		<line class="st0" x1="-25" y1="20" x2="-25" y2="30"/>
		<line class="st0" x1="-30" y1="20" x2="-30" y2="30"/>
		<line class="st0" x1="-35" y1="20" x2="-35" y2="30"/>
		<line class="st0" x1="-40" y1="20" x2="-40" y2="30"/>
		<line class="st0" x1="-45" y1="20" x2="-45" y2="30"/>
		<line class="st0" x1="-50" y1="20" x2="-50" y2="30"/>
		<line class="st0" x1="-55" y1="20" x2="-55" y2="30"/>
		<line class="st0" x1="-60" y1="20" x2="-60" y2="30"/>
		<line class="st0" x1="-65" y1="20" x2="-65" y2="30"/>
		<line class="st0" x1="-70" y1="20" x2="-70" y2="30"/>
		<line class="st0" x1="-75" y1="20" x2="-75" y2="30"/>
		<line class="st0" x1="0" y1="30" x2="0" y2="40"/>
		<line class="st0" x1="-6" y1="30" x2="-6" y2="40"/>
		<line class="st0" x1="-12" y1="30" x2="-12" y2="40"/>
		<line class="st0" x1="-18" y1="30" x2="-18" y2="40"/>
		<line class="st0" x1="-24" y1="30" x2="-24" y2="40"/>
		<line class="st0" x1="-30" y1="30" x2="-30" y2="40"/>
		<line class="st0" x1="-36" y1="30" x2="-36" y2="40"/>
		<line class="st0" x1="-42" y1="30" x2="-42" y2="40"/>
		<line class="st0" x1="-48" y1="30" x2="-48" y2="40"/>
		<line class="st0" x1="-54" y1="30" x2="-54" y2="40"/>
		<line class="st0" x1="-60" y1="30" x2="-60" y2="40"/>
		<line class="st0" x1="-66" y1="30" x2="-66" y2="40"/>
		<line class="st0" x1="-72" y1="30" x2="-72" y2="40"/>
		<line class="st0" x1="0" y1="40" x2="0" y2="50"/>
		<line class="st0" x1="-7" y1="40" x2="-7" y2="50"/>
		<line class="st0" x1="-14" y1="40" x2="-14" y2="50"/>
		<line class="st0" x1="-21" y1="40" x2="-21" y2="50"/>
		<line class="st0" x1="-28" y1="40" x2="-28" y2="50"/>
		<line class="st0" x1="-35" y1="40" x2="-35" y2="50"/>
		<line class="st0" x1="-42" y1="40" x2="-42" y2="50"/>
		<line class="st0" x1="-49" y1="40" x2="-49" y2="50"/>
		<line class="st0" x1="-56" y1="40" x2="-56" y2="50"/>
		<line class="st0" x1="-63" y1="40" x2="-63" y2="50"/>
		<line class="st0" x1="-70" y1="40" x2="-70" y2="50"/>
		<line class="st0" x1="0" y1="50" x2="0" y2="60"/>
		<line class="st0" x1="-8" y1="50" x2="-8" y2="60"/>
		<line class="st0" x1="-16" y1="50" x2="-16" y2="60"/>
		<line class="st0" x1="-24" y1="50" x2="-24" y2="60"/>
		<line class="st0" x1="-32" y1="50" x2="-32" y2="60"/>
		<line class="st0" x1="-40" y1="50" x2="-40" y2="60"/>
		<line class="st0" x1="-48" y1="50" x2="-48" y2="60"/>
		<line class="st0" x1="-56" y1="50" x2="-56" y2="60"/>
		<line class="st0" x1="-64" y1="50" x2="-64" y2="60"/>
		<line class="st0" x1="-72" y1="50" x2="-72" y2="60"/>
		<line class="st0" x1="0" y1="60" x2="0" y2="70"/>
		<line class="st0" x1="-9" y1="60" x2="-9" y2="70"/>
		<line class="st0" x1="-18" y1="60" x2="-18" y2="70"/>
		<line class="st0" x1="-27" y1="60" x2="-27" y2="70"/>
		<line class="st0" x1="-36" y1="60" x2="-36" y2="70"/>
		<line class="st0" x1="-45" y1="60" x2="-45" y2="70"/>
		<line class="st0" x1="-54" y1="60" x2="-54" y2="70"/>
		<line class="st0" x1="-63" y1="60" x2="-63" y2="70"/>
		<line class="st0" x1="-72" y1="60" x2="-72" y2="70"/>
		<line class="st0" x1="0" y1="70" x2="0" y2="80"/>
		<line class="st0" x1="-10" y1="70" x2="-10" y2="80"/>
		<line class="st0" x1="-20" y1="70" x2="-20" y2="80"/>
		<line class="st0" x1="-30" y1="70" x2="-30" y2="80"/>
		<line class="st0" x1="-40" y1="70" x2="-40" y2="80"/>
		<line class="st0" x1="-50" y1="70" x2="-50" y2="80"/>
		<line class="st0" x1="-60" y1="70" x2="-60" y2="80"/>
		<line class="st0" x1="-70" y1="70" x2="-70" y2="80"/>
		<line class="st0" x1="0" y1="80" x2="0" y2="90"/>
		<line class="st0" x1="-11" y1="80" x2="-11" y2="90"/>
		<line class="st0" x1="-22" y1="80" x2="-22" y2="90"/>
		<line class="st0" x1="-33" y1="80" x2="-33" y2="90"/>
		<line class="st0" x1="-44" y1="80" x2="-44" y2="90"/>
		<line class="st0" x1="-55" y1="80" x2="-55" y2="90"/>
		<line class="st0" x1="-66" y1="80" x2="-66" y2="90"/>
		<line class="st0" x1="0" y1="90" x2="0" y2="100"/>
		<line class="st0" x1="-12" y1="90" x2="-12" y2="100"/>
		<line class="st0" x1="-24" y1="90" x2="-24" y2="100"/>
		<line class="st0" x1="-36" y1="90" x2="-36" y2="100"/>
		<line class="st0" x1="-48" y1="90" x2="-48" y2="100"/>
		<line class="st0" x1="-60" y1="90" x2="-60" y2="100"/>
		<line class="st0" x1="-72" y1="90" x2="-72" y2="100"/>
	</g>
	<g>
		<line class="st0" x1="0" y1="0" x2="-10" y2="-10"/>
		<line class="st0" x1="154" y1="0" x2="164" y2="-10"/>
		<line class="st0" x1="0" y1="243" x2="-10" y2="253"/>
		<line class="st0" x1="154" y1="243" x2="164" y2="253"/>
	</g>
</g>
</svg>
