<?xml version="1.0"?><svg  viewBox="0 0 200 200" width="86mm" height="86mm" xmlns="http://www.w3.org/2000/svg"  version="1.2" viewport-fill="#fff">
  <polyline points="95.700,109.100,95.400,109.700,94.800,110.000,94.200,110.000,93.600,109.700,92.400,108.800,91.800,108.500,91.200,108.500,90.600,108.800,90.300,109.700,90.300,110.300"  style="fill:none;stroke:#000;stroke-width:0.1953;opacity:1"/>
  <polyline points="90.300,109.700,90.600,109.100,91.200,108.800,91.800,108.800,92.400,109.100,93.600,110.000,94.200,110.300,94.800,110.300,95.400,110.000,95.700,109.100,95.700,108.500"  style="fill:none;stroke:#000;stroke-width:0.1953;opacity:1"/>
  <polyline points="94.200,97.700,94.200,91.400,96.900,91.400,97.800,91.700,98.100,92.000,98.400,92.600,98.400,93.500,98.100,94.100,97.800,94.400,96.900,94.700,94.200,94.700"  style="fill:none;stroke:#000;stroke-width:0.1953;opacity:1"/>
  <polyline points="92.100,92.300,91.500,91.700,90.600,91.400,89.400,91.400,88.500,91.700,87.900,92.300,87.900,92.900,88.200,93.500,88.500,93.800,89.100,94.100,90.900,94.700,91.500,95.000,91.800,95.300,92.100,95.900,92.100,96.800,91.500,97.400,90.600,97.700,89.400,97.700,88.500,97.400,87.900,96.800"  style="fill:none;stroke:#000;stroke-width:0.1953;opacity:1"/>
  <polyline points="86.400,97.700,82.500,97.700,82.500,91.400,86.400,91.400"  style="fill:none;stroke:#000;stroke-width:0.1953;opacity:1"/>
  <polyline points="84.900,94.400,82.500,94.400"  style="fill:none;stroke:#000;stroke-width:0.1953;opacity:1"/>
  <polyline points="80.400,97.700,78.300,94.400"  style="fill:none;stroke:#000;stroke-width:0.1953;opacity:1"/>
  <polyline points="76.200,94.400,78.900,94.400,79.800,94.100,80.100,93.800,80.400,93.200,80.400,92.600,80.100,92.000,79.800,91.700,78.900,91.400,76.200,91.400,76.200,97.700"  style="fill:none;stroke:#000;stroke-width:0.1953;opacity:1"/>
  <polyline points="100.500,94.400,102.900,94.400"  style="fill:none;stroke:#000;stroke-width:0.1953;opacity:1"/>
  <polyline points="104.400,91.400,100.500,91.400,100.500,97.700,104.400,97.700"  style="fill:none;stroke:#000;stroke-width:0.1953;opacity:1"/>
  <polyline points="107.400,97.700,107.400,91.400"  style="fill:none;stroke:#000;stroke-width:0.1953;opacity:1"/>
  <polyline points="105.300,91.400,109.500,91.400"  style="fill:none;stroke:#000;stroke-width:0.1953;opacity:1"/>
  <polyline points="112.500,91.400,111.900,91.700,111.300,92.300,111.000,92.900,110.700,93.800,110.700,95.300,111.000,96.200,111.300,96.800,111.900,97.400,112.500,97.700,113.700,97.700,114.300,97.400,114.900,96.800,115.200,96.200,115.500,95.300,115.500,93.800,115.200,92.900,114.900,92.300,114.300,91.700,113.700,91.400,112.500,91.400"  style="fill:none;stroke:#000;stroke-width:0.1953;opacity:1"/>
</svg>