<?xml version="1.0" encoding="utf-8"?>
<!-- Generator: Adobe Illustrator 22.0.0, SVG Export Plug-In . SVG Version: 6.00 Build 0)  -->
<svg version="1.1" id="Layer_1" xmlns="http://www.w3.org/2000/svg" xmlns:xlink="http://www.w3.org/1999/xlink" x="0px" y="0px"
	 viewBox="0 0 154 243" style="enable-background:new 0 0 154 243;" xml:space="preserve">
<style type="text/css">
	.st0{fill:#FFFFFF;}
	.st1{fill:none;stroke:#000000;stroke-linecap:round;stroke-miterlimit:10;}
	.st2{fill:none;stroke:#000000;stroke-width:0.1953;}
</style>
<g>
	<g>
		<path class="st0" d="M144,0c6.7,0,10,3.3,10,10v223c0,6.7-3.3,10-10,10H10c-6.7,0-10-3.3-10-10V10C0,3.3,3.3,0,10,0H144z"/>
	</g>
	<g>
		<path class="st1" d="M144,0c6.7,0,10,3.3,10,10v223c0,6.7-3.3,10-10,10H10c-6.7,0-10-3.3-10-10V10C0,3.3,3.3,0,10,0H144z"/>
		<line class="st1" x1="0" y1="0" x2="-10" y2="-10"/>
		<line class="st1" x1="154" y1="0" x2="164" y2="-10"/>
		<line class="st1" x1="0" y1="243" x2="-10" y2="253"/>
		<line class="st1" x1="154" y1="243" x2="164" y2="253"/>
	</g>
</g>
<g>
	<polyline class="st2" points="80.8,175.9 80.5,176.6 79.8,177 79,177 78.3,176.6 76.8,175.5 76.1,175.1 75.4,175.1 74.6,175.5 
		74.3,176.6 74.3,177.3 	"/>
	<polyline class="st2" points="74.3,176.6 74.6,175.9 75.4,175.5 76.1,175.5 76.8,175.9 78.3,177 79,177.3 79.8,177.3 80.5,177 
		80.8,175.9 80.8,175.1 	"/>
	<polyline class="st2" points="79,162 79,154.3 82.3,154.3 83.4,154.7 83.8,155 84.1,155.8 84.1,156.9 83.8,157.6 83.4,158 
		82.3,158.3 79,158.3 	"/>
	<polyline class="st2" points="76.5,155.4 75.7,154.7 74.6,154.3 73.2,154.3 72.1,154.7 71.3,155.4 71.3,156.1 71.7,156.9 
		72.1,157.2 72.8,157.6 75,158.3 75.7,158.7 76.1,159.1 76.5,159.8 76.5,160.9 75.7,161.6 74.6,162 73.2,162 72.1,161.6 71.3,160.9 
			"/>
	<polyline class="st2" points="69.5,162 64.8,162 64.8,154.3 69.5,154.3 	"/>
	<line class="st2" x1="67.7" y1="158" x2="64.8" y2="158"/>
	<line class="st2" x1="62.2" y1="162" x2="59.6" y2="158"/>
	<polyline class="st2" points="57.1,158 60.4,158 61.5,157.6 61.8,157.2 62.2,156.5 62.2,155.8 61.8,155 61.5,154.7 60.4,154.3 
		57.1,154.3 57.1,162 	"/>
	<line class="st2" x1="86.7" y1="158" x2="89.6" y2="158"/>
	<polyline class="st2" points="91.5,154.3 86.7,154.3 86.7,162 91.5,162 	"/>
	<line class="st2" x1="95.1" y1="162" x2="95.1" y2="154.3"/>
	<line class="st2" x1="92.6" y1="154.3" x2="97.7" y2="154.3"/>
	<polyline class="st2" points="101.3,154.3 100.6,154.7 99.9,155.4 99.5,156.1 99.1,157.2 99.1,159.1 99.5,160.2 99.9,160.9 
		100.6,161.6 101.3,162 102.8,162 103.5,161.6 104.3,160.9 104.6,160.2 105,159.1 105,157.2 104.6,156.1 104.3,155.4 103.5,154.7 
		102.8,154.3 101.3,154.3 	"/>
</g>
</svg>
