<?xml version="1.0"?><svg  viewBox="0 0 200 200" width="86mm" height="86mm" xmlns="http://www.w3.org/2000/svg"  version="1.2" viewport-fill="#fff">
  <polyline points="108.900,93.500,108.300,93.800,107.700,94.400,107.400,95.300,107.400,95.900,107.700,96.800,108.300,97.400,108.900,97.700,109.800,97.700,110.400,97.400,111.000,96.800,111.300,95.900,111.300,95.300,111.000,94.400,110.400,93.800,109.800,93.500,108.900,93.500"  style="fill:none;stroke:#000;stroke-width:0.1953;opacity:1"/>
  <polyline points="105.600,93.500,103.500,93.500"  style="fill:none;stroke:#000;stroke-width:0.1953;opacity:1"/>
  <polyline points="104.400,91.400,104.400,96.500,104.700,97.400,105.300,97.700,105.900,97.700"  style="fill:none;stroke:#000;stroke-width:0.1953;opacity:1"/>
  <polyline points="102.000,96.800,101.400,97.400,100.800,97.700,99.900,97.700,99.300,97.400,98.700,96.800,98.400,95.900,98.400,95.300,98.700,94.400,99.300,93.800,99.900,93.500,100.800,93.500,101.400,93.800,101.700,94.100,102.000,94.700,102.000,95.300,98.400,95.300"  style="fill:none;stroke:#000;stroke-width:0.1953;opacity:1"/>
  <polyline points="93.000,94.400,93.600,93.800,94.200,93.500,95.100,93.500,95.700,93.800,96.300,94.400,96.600,95.300,96.600,95.900,96.300,96.800,95.700,97.400,95.100,97.700,94.200,97.700,93.600,97.400,93.000,96.800"  style="fill:none;stroke:#000;stroke-width:0.1953;opacity:1"/>
  <polyline points="93.000,99.800,93.000,93.500"  style="fill:none;stroke:#000;stroke-width:0.1953;opacity:1"/>
  <polyline points="90.900,94.400,90.600,93.800,89.700,93.500,88.800,93.500,87.900,93.800,87.600,94.400,87.900,95.000,88.500,95.300,90.000,95.600,90.600,95.900,90.900,96.500,90.900,96.800,90.600,97.400,89.700,97.700,88.800,97.700,87.900,97.400,87.600,96.800"  style="fill:none;stroke:#000;stroke-width:0.1953;opacity:1"/>
  <polyline points="85.800,96.800,85.200,97.400,84.600,97.700,83.700,97.700,83.100,97.400,82.500,96.800,82.200,95.900,82.200,95.300,82.500,94.400,83.100,93.800,83.700,93.500,84.600,93.500,85.200,93.800,85.500,94.100,85.800,94.700,85.800,95.300,82.200,95.300"  style="fill:none;stroke:#000;stroke-width:0.1953;opacity:1"/>
  <polyline points="80.400,97.700,78.300,94.400"  style="fill:none;stroke:#000;stroke-width:0.1953;opacity:1"/>
  <polyline points="76.200,94.400,78.900,94.400,79.800,94.100,80.100,93.800,80.400,93.200,80.400,92.600,80.100,92.000,79.800,91.700,78.900,91.400,76.200,91.400,76.200,97.700"  style="fill:none;stroke:#000;stroke-width:0.1953;opacity:1"/>
  <polyline points="90.300,109.700,90.600,109.100,91.200,108.800,91.800,108.800,92.400,109.100,93.600,110.000,94.200,110.300,94.800,110.300,95.400,110.000,95.700,109.100,95.700,108.500"  style="fill:none;stroke:#000;stroke-width:0.1953;opacity:1"/>
  <polyline points="95.700,109.100,95.400,109.700,94.800,110.000,94.200,110.000,93.600,109.700,92.400,108.800,91.800,108.500,91.200,108.500,90.600,108.800,90.300,109.700,90.300,110.300"  style="fill:none;stroke:#000;stroke-width:0.1953;opacity:1"/>
</svg>