<?xml version="1.0" encoding="utf-8"?>
<!-- Generator: Adobe Illustrator 22.0.0, SVG Export Plug-In . SVG Version: 6.00 Build 0)  -->
<svg version="1.1" id="Layer_1" xmlns="http://www.w3.org/2000/svg" xmlns:xlink="http://www.w3.org/1999/xlink" x="0px" y="0px"
	 viewBox="0 0 154 243" style="enable-background:new 0 0 154 243;" xml:space="preserve">
<style type="text/css">
	.st0{fill:#FFFFFF;}
	.st1{fill:none;stroke:#000000;stroke-linecap:round;stroke-miterlimit:10;}
</style>
<g>
	<g>
		<path class="st0" d="M144,0c6.7,0,10,3.3,10,10v223c0,6.7-3.3,10-10,10H10c-6.7,0-10-3.3-10-10V10C0,3.3,3.3,0,10,0H144z"/>
	</g>
	<g>
		<path class="st1" d="M144,0c6.7,0,10,3.3,10,10v223c0,6.7-3.3,10-10,10H10c-6.7,0-10-3.3-10-10V10C0,3.3,3.3,0,10,0H144z"/>
		<line class="st1" x1="0" y1="0" x2="-10" y2="-10"/>
		<line class="st1" x1="154" y1="0" x2="164" y2="-10"/>
		<line class="st1" x1="0" y1="243" x2="-10" y2="253"/>
		<line class="st1" x1="154" y1="243" x2="164" y2="253"/>
	</g>
</g>
</svg>
