<?xml version="1.0" encoding="utf-8"?>
<!-- Generator: Adobe Illustrator 22.0.0, SVG Export Plug-In . SVG Version: 6.00 Build 0)  -->
<svg version="1.0" xmlns="http://www.w3.org/2000/svg" xmlns:xlink="http://www.w3.org/1999/xlink" x="0px" y="0px" width="612px"
	 height="792px" viewBox="0 0 612 792" enable-background="new 0 0 612 792" xml:space="preserve">
<g id="Layer_1">
	<rect x="10" y="10" fill="none" stroke="#000000" stroke-miterlimit="10" width="566.9" height="733.7"/>
	<path fill="#FFFFFF" stroke="#000000" stroke-miterlimit="10" d="M10,10v733.7h566.9V10H10z"/>
</g>
<g id="Layer_2">
	<g>
		<circle fill="#FFFFFF" stroke="#231F20" stroke-miterlimit="10" cx="72.7" cy="210.6" r="20.8"/>
		
			<ellipse transform="matrix(0.1602 -0.9871 0.9871 0.1602 -91.759 201.7865)" fill="#FFFFFF" stroke="#231F20" stroke-miterlimit="10" cx="72.7" cy="154.8" rx="20.8" ry="20.8"/>
		
			<ellipse transform="matrix(0.1602 -0.9871 0.9871 0.1602 -36.652 154.9012)" fill="#FFFFFF" stroke="#231F20" stroke-miterlimit="10" cx="72.7" cy="99" rx="20.8" ry="20.8"/>
		<circle fill="#FFFFFF" stroke="#231F20" stroke-miterlimit="10" cx="127.9" cy="210.6" r="20.8"/>
		<circle fill="#FFFFFF" stroke="#231F20" stroke-miterlimit="10" cx="127.9" cy="154.8" r="20.8"/>
		<circle fill="#FFFFFF" stroke="#231F20" stroke-miterlimit="10" cx="127.9" cy="99" r="20.8"/>
		
			<ellipse transform="matrix(0.2298 -0.9732 0.9732 0.2298 -63.9902 340.4368)" fill="#FFFFFF" stroke="#231F20" stroke-miterlimit="10" cx="183.1" cy="210.6" rx="20.8" ry="20.8"/>
		
			<ellipse transform="matrix(0.9239 -0.3827 0.3827 0.9239 -45.3098 81.8485)" fill="#FFFFFF" stroke="#231F20" stroke-miterlimit="10" cx="183.1" cy="154.8" rx="20.8" ry="20.8"/>
		
			<ellipse transform="matrix(0.9239 -0.3827 0.3827 0.9239 -23.9454 77.5988)" fill="#FFFFFF" stroke="#231F20" stroke-miterlimit="10" cx="183.1" cy="99" rx="20.8" ry="20.8"/>
		<circle fill="#FFFFFF" stroke="#231F20" stroke-miterlimit="10" cx="238.3" cy="210.6" r="20.8"/>
		
			<ellipse transform="matrix(0.1602 -0.9871 0.9871 0.1602 47.2881 365.2168)" fill="#FFFFFF" stroke="#231F20" stroke-miterlimit="10" cx="238.3" cy="154.8" rx="20.8" ry="20.8"/>
		
			<ellipse transform="matrix(0.1602 -0.9871 0.9871 0.1602 102.3951 318.3315)" fill="#FFFFFF" stroke="#231F20" stroke-miterlimit="10" cx="238.3" cy="99" rx="20.8" ry="20.8"/>
		<circle fill="#FFFFFF" stroke="#231F20" stroke-miterlimit="10" cx="293.5" cy="210.6" r="20.8"/>
		<circle fill="#FFFFFF" stroke="#231F20" stroke-miterlimit="10" cx="293.5" cy="154.8" r="20.8"/>
		<circle fill="#FFFFFF" stroke="#231F20" stroke-miterlimit="10" cx="293.5" cy="99" r="20.8"/>
		
			<ellipse transform="matrix(0.2298 -0.9732 0.9732 0.2298 63.5382 501.5758)" fill="#FFFFFF" stroke="#231F20" stroke-miterlimit="10" cx="348.7" cy="210.6" rx="20.8" ry="20.8"/>
		
			<ellipse transform="matrix(0.9239 -0.3827 0.3827 0.9239 -32.7067 145.2087)" fill="#FFFFFF" stroke="#231F20" stroke-miterlimit="10" cx="348.7" cy="154.8" rx="20.8" ry="20.8"/>
		
			<ellipse transform="matrix(0.9239 -0.3827 0.3827 0.9239 -11.3423 140.9591)" fill="#FFFFFF" stroke="#231F20" stroke-miterlimit="10" cx="348.7" cy="99" rx="20.8" ry="20.8"/>
		<circle fill="#FFFFFF" stroke="#231F20" stroke-miterlimit="10" cx="403.8" cy="210.6" r="20.8"/>
		
			<ellipse transform="matrix(0.1602 -0.9871 0.9871 0.1602 186.3353 528.647)" fill="#FFFFFF" stroke="#231F20" stroke-miterlimit="10" cx="403.8" cy="154.8" rx="20.8" ry="20.8"/>
		
			<ellipse transform="matrix(0.1602 -0.9871 0.9871 0.1602 241.4422 481.7618)" fill="#FFFFFF" stroke="#231F20" stroke-miterlimit="10" cx="403.8" cy="99" rx="20.8" ry="20.8"/>
		<circle fill="#FFFFFF" stroke="#231F20" stroke-miterlimit="10" cx="459" cy="210.6" r="20.8"/>
		<circle fill="#FFFFFF" stroke="#231F20" stroke-miterlimit="10" cx="459" cy="154.8" r="20.8"/>
		<circle fill="#FFFFFF" stroke="#231F20" stroke-miterlimit="10" cx="459" cy="99" r="20.8"/>
		
			<ellipse transform="matrix(0.2298 -0.9732 0.9732 0.2298 191.0665 662.7149)" fill="#FFFFFF" stroke="#231F20" stroke-miterlimit="10" cx="514.2" cy="210.6" rx="20.8" ry="20.8"/>
		
			<ellipse transform="matrix(0.9239 -0.3827 0.3827 0.9239 -20.1035 208.5689)" fill="#FFFFFF" stroke="#231F20" stroke-miterlimit="10" cx="514.2" cy="154.8" rx="20.8" ry="20.8"/>
		
			<ellipse transform="matrix(0.9239 -0.3827 0.3827 0.9239 1.2609 204.3193)" fill="#FFFFFF" stroke="#231F20" stroke-miterlimit="10" cx="514.2" cy="99" rx="20.8" ry="20.8"/>
		<circle fill="#FFFFFF" stroke="#231F20" stroke-miterlimit="10" cx="72.7" cy="378.1" r="20.8"/>
		
			<ellipse transform="matrix(0.1602 -0.9871 0.9871 0.1602 -257.0799 342.4421)" fill="#FFFFFF" stroke="#231F20" stroke-miterlimit="10" cx="72.7" cy="322.3" rx="20.8" ry="20.8"/>
		
			<ellipse transform="matrix(0.1602 -0.9871 0.9871 0.1602 -201.9729 295.5569)" fill="#FFFFFF" stroke="#231F20" stroke-miterlimit="10" cx="72.7" cy="266.5" rx="20.8" ry="20.8"/>
		<circle fill="#FFFFFF" stroke="#231F20" stroke-miterlimit="10" cx="127.9" cy="378.1" r="20.8"/>
		<circle fill="#FFFFFF" stroke="#231F20" stroke-miterlimit="10" cx="127.9" cy="322.3" r="20.8"/>
		<circle fill="#FFFFFF" stroke="#231F20" stroke-miterlimit="10" cx="127.9" cy="266.5" r="20.8"/>
		
			<ellipse transform="matrix(0.2298 -0.9732 0.9732 0.2298 -226.9934 469.4404)" fill="#FFFFFF" stroke="#231F20" stroke-miterlimit="10" cx="183.1" cy="378.1" rx="20.8" ry="20.8"/>
		
			<ellipse transform="matrix(0.9239 -0.3827 0.3827 0.9239 -109.403 94.5974)" fill="#FFFFFF" stroke="#231F20" stroke-miterlimit="10" cx="183.1" cy="322.3" rx="20.8" ry="20.8"/>
		
			<ellipse transform="matrix(0.9239 -0.3827 0.3827 0.9239 -88.0386 90.3477)" fill="#FFFFFF" stroke="#231F20" stroke-miterlimit="10" cx="183.1" cy="266.5" rx="20.8" ry="20.8"/>
		<circle fill="#FFFFFF" stroke="#231F20" stroke-miterlimit="10" cx="238.3" cy="378.1" r="20.8"/>
		
			<ellipse transform="matrix(0.1602 -0.9871 0.9871 0.1602 -118.0328 505.8724)" fill="#FFFFFF" stroke="#231F20" stroke-miterlimit="10" cx="238.3" cy="322.3" rx="20.8" ry="20.8"/>
		
			<ellipse transform="matrix(0.1602 -0.9871 0.9871 0.1602 -62.9258 458.9872)" fill="#FFFFFF" stroke="#231F20" stroke-miterlimit="10" cx="238.3" cy="266.5" rx="20.8" ry="20.8"/>
		<circle fill="#FFFFFF" stroke="#231F20" stroke-miterlimit="10" cx="293.5" cy="378.1" r="20.8"/>
		<circle fill="#FFFFFF" stroke="#231F20" stroke-miterlimit="10" cx="293.5" cy="322.3" r="20.8"/>
		<circle fill="#FFFFFF" stroke="#231F20" stroke-miterlimit="10" cx="293.5" cy="266.5" r="20.8"/>
		
			<ellipse transform="matrix(0.2298 -0.9732 0.9732 0.2298 -99.465 630.5795)" fill="#FFFFFF" stroke="#231F20" stroke-miterlimit="10" cx="348.7" cy="378.1" rx="20.8" ry="20.8"/>
		
			<ellipse transform="matrix(0.9239 -0.3827 0.3827 0.9239 -96.7999 157.9577)" fill="#FFFFFF" stroke="#231F20" stroke-miterlimit="10" cx="348.7" cy="322.3" rx="20.8" ry="20.8"/>
		
			<ellipse transform="matrix(0.9239 -0.3827 0.3827 0.9239 -75.4355 153.708)" fill="#FFFFFF" stroke="#231F20" stroke-miterlimit="10" cx="348.7" cy="266.5" rx="20.8" ry="20.8"/>
		<circle fill="#FFFFFF" stroke="#231F20" stroke-miterlimit="10" cx="403.8" cy="378.1" r="20.8"/>
		
			<ellipse transform="matrix(0.1602 -0.9871 0.9871 0.1602 21.0144 669.3027)" fill="#FFFFFF" stroke="#231F20" stroke-miterlimit="10" cx="403.8" cy="322.3" rx="20.8" ry="20.8"/>
		
			<ellipse transform="matrix(0.1602 -0.9871 0.9871 0.1602 76.1213 622.4175)" fill="#FFFFFF" stroke="#231F20" stroke-miterlimit="10" cx="403.8" cy="266.5" rx="20.8" ry="20.8"/>
		<circle fill="#FFFFFF" stroke="#231F20" stroke-miterlimit="10" cx="459" cy="378.1" r="20.8"/>
		<circle fill="#FFFFFF" stroke="#231F20" stroke-miterlimit="10" cx="459" cy="322.3" r="20.8"/>
		<circle fill="#FFFFFF" stroke="#231F20" stroke-miterlimit="10" cx="459" cy="266.5" r="20.8"/>
		
			<ellipse transform="matrix(0.2298 -0.9732 0.9732 0.2298 28.0634 791.7186)" fill="#FFFFFF" stroke="#231F20" stroke-miterlimit="10" cx="514.2" cy="378.1" rx="20.8" ry="20.8"/>
		
			<ellipse transform="matrix(0.9239 -0.3827 0.3827 0.9239 -84.1967 221.3179)" fill="#FFFFFF" stroke="#231F20" stroke-miterlimit="10" cx="514.2" cy="322.3" rx="20.8" ry="20.8"/>
		
			<ellipse transform="matrix(0.9239 -0.3827 0.3827 0.9239 -62.8323 217.0682)" fill="#FFFFFF" stroke="#231F20" stroke-miterlimit="10" cx="514.2" cy="266.5" rx="20.8" ry="20.8"/>
		<circle fill="#FFFFFF" stroke="#231F20" stroke-miterlimit="10" cx="72.7" cy="545.6" r="20.8"/>
		
			<ellipse transform="matrix(0.1602 -0.9871 0.9871 0.1602 -422.4008 483.0978)" fill="#FFFFFF" stroke="#231F20" stroke-miterlimit="10" cx="72.7" cy="489.8" rx="20.8" ry="20.8"/>
		
			<ellipse transform="matrix(0.1602 -0.9871 0.9871 0.1602 -367.2938 436.2126)" fill="#FFFFFF" stroke="#231F20" stroke-miterlimit="10" cx="72.7" cy="434" rx="20.8" ry="20.8"/>
		<circle fill="#FFFFFF" stroke="#231F20" stroke-miterlimit="10" cx="127.9" cy="545.6" r="20.8"/>
		<circle fill="#FFFFFF" stroke="#231F20" stroke-miterlimit="10" cx="127.9" cy="489.8" r="20.8"/>
		<circle fill="#FFFFFF" stroke="#231F20" stroke-miterlimit="10" cx="127.9" cy="434" r="20.8"/>
		
			<ellipse transform="matrix(0.2298 -0.9732 0.9732 0.2298 -389.9966 598.4441)" fill="#FFFFFF" stroke="#231F20" stroke-miterlimit="10" cx="183.1" cy="545.6" rx="20.8" ry="20.8"/>
		
			<ellipse transform="matrix(0.9239 -0.3827 0.3827 0.9239 -173.4962 107.3463)" fill="#FFFFFF" stroke="#231F20" stroke-miterlimit="10" cx="183.1" cy="489.8" rx="20.8" ry="20.8"/>
		
			<ellipse transform="matrix(0.9239 -0.3827 0.3827 0.9239 -152.1318 103.0967)" fill="#FFFFFF" stroke="#231F20" stroke-miterlimit="10" cx="183.1" cy="434" rx="20.8" ry="20.8"/>
		<circle fill="#FFFFFF" stroke="#231F20" stroke-miterlimit="10" cx="238.3" cy="545.6" r="20.8"/>
		
			<ellipse transform="matrix(0.1602 -0.9871 0.9871 0.1602 -283.3537 646.5281)" fill="#FFFFFF" stroke="#231F20" stroke-miterlimit="10" cx="238.3" cy="489.8" rx="20.8" ry="20.8"/>
		
			<ellipse transform="matrix(0.1602 -0.9871 0.9871 0.1602 -228.2467 599.6428)" fill="#FFFFFF" stroke="#231F20" stroke-miterlimit="10" cx="238.3" cy="434" rx="20.8" ry="20.8"/>
		<circle fill="#FFFFFF" stroke="#231F20" stroke-miterlimit="10" cx="293.5" cy="545.6" r="20.8"/>
		<circle fill="#FFFFFF" stroke="#231F20" stroke-miterlimit="10" cx="293.5" cy="489.8" r="20.8"/>
		<circle fill="#FFFFFF" stroke="#231F20" stroke-miterlimit="10" cx="293.5" cy="434" r="20.8"/>
		
			<ellipse transform="matrix(0.2298 -0.9732 0.9732 0.2298 -262.4682 759.5832)" fill="#FFFFFF" stroke="#231F20" stroke-miterlimit="10" cx="348.7" cy="545.6" rx="20.8" ry="20.8"/>
		
			<ellipse transform="matrix(0.9239 -0.3827 0.3827 0.9239 -160.8931 170.7066)" fill="#FFFFFF" stroke="#231F20" stroke-miterlimit="10" cx="348.7" cy="489.8" rx="20.8" ry="20.8"/>
		
			<ellipse transform="matrix(0.9239 -0.3827 0.3827 0.9239 -139.5287 166.457)" fill="#FFFFFF" stroke="#231F20" stroke-miterlimit="10" cx="348.7" cy="434" rx="20.8" ry="20.8"/>
		<circle fill="#FFFFFF" stroke="#231F20" stroke-miterlimit="10" cx="403.8" cy="545.6" r="20.8"/>
		
			<ellipse transform="matrix(0.1602 -0.9871 0.9871 0.1602 -144.3065 809.9584)" fill="#FFFFFF" stroke="#231F20" stroke-miterlimit="10" cx="403.8" cy="489.8" rx="20.8" ry="20.8"/>
		
			<ellipse transform="matrix(0.1602 -0.9871 0.9871 0.1602 -89.1996 763.0731)" fill="#FFFFFF" stroke="#231F20" stroke-miterlimit="10" cx="403.8" cy="434" rx="20.8" ry="20.8"/>
		<circle fill="#FFFFFF" stroke="#231F20" stroke-miterlimit="10" cx="459" cy="545.6" r="20.8"/>
		<circle fill="#FFFFFF" stroke="#231F20" stroke-miterlimit="10" cx="459" cy="489.8" r="20.8"/>
		<circle fill="#FFFFFF" stroke="#231F20" stroke-miterlimit="10" cx="459" cy="434" r="20.8"/>
		
			<ellipse transform="matrix(0.2298 -0.9732 0.9732 0.2298 -134.9398 920.7223)" fill="#FFFFFF" stroke="#231F20" stroke-miterlimit="10" cx="514.2" cy="545.6" rx="20.8" ry="20.8"/>
		
			<ellipse transform="matrix(0.9239 -0.3827 0.3827 0.9239 -148.2899 234.0668)" fill="#FFFFFF" stroke="#231F20" stroke-miterlimit="10" cx="514.2" cy="489.8" rx="20.8" ry="20.8"/>
		
			<ellipse transform="matrix(0.9239 -0.3827 0.3827 0.9239 -126.9255 229.8171)" fill="#FFFFFF" stroke="#231F20" stroke-miterlimit="10" cx="514.2" cy="434" rx="20.8" ry="20.8"/>
	</g>
</g>
</svg>
