<?xml version="1.0" standalone="no"?>
  <!DOCTYPE svg PUBLIC "-//W3C//DTD SVG 1.1//EN" 
      "http://www.w3.org/Graphics/SVG/1.1/DTD/svg11.dtd">
  <svg width="12cm" height="12cm"
      xmlns="http://www.w3.org/2000/svg" version="1.1" viewBox="0 0 425.19685 425.19685">
    <g>
      <path d="M135.78342 352.43425 L135.15031 354.12916 L141.87022 354.25481 L233.52645 354.32259 L304.5716 354.31862 L348.38443 354.27093 L350.50118 354.09649 L353.40226 353.54106 L353.79906 350.30672 L354.11126 347.54451 L354.22009 339.71435 L354.2464 327.89437 L354.31684 286.29858 L354.32465 277.78055 L354.30076 219.67962 L353.4512 216.15371 L352.53904 214.40421 L344.45628 214.15879 L262.9583 213.19995 L216.34455 212.69984 L213.57515 217.34285 L201.34543 238.394 L196.8076 246.24754 L169.14138 294.38143 L135.78342 352.43425 M71.68935 195.02051 L70.87517 197.19167 L70.87826 285.19791 L70.89926 353.09656 L71.82878 353.7551 L74.08384 354.11812 L76.52486 354.16302 L85.83758 354.30392 L107.86529 354.29771 L134.34005 353.99523 L137.33458 349.36196 L148.4238 330.39433 L205.58278 230.92194 L209.03825 224.83513 L209.68595 223.51704 L211.48813 218.97815 L210.60306 214.91879 L195.31638 212.61281 L76.52452 195.57046 L72.43421 195.08667 L71.68935 195.02051 M70.9841 79.38292 L70.88668 100.24635 L70.89847 161.66245 L70.91944 166.09213 L71.08428 193.20284 L72.68187 194.76594 L88.72486 197.2304 L105.11958 199.60438 L141.85459 204.87953 L152.82013 206.44817 L160.18916 207.1583 L160.64192 205.12646 L161.02637 201.98843 L163.82119 168.95002 L165.71967 145.58701 L167.12178 127.95649 L171.42912 73.19409 L170.51316 72.0048 L166.21427 71.05543 L164.04355 71.02532 L122.05252 70.92658 L91.71398 70.89062 L72.01633 70.90852 L71.04639 73.66697 L70.9841 79.38292 M240.27934 197.5197 L235.1037 211.96415 L239.11782 212.87667 L260.38974 213.15427 L305.96004 213.65564 L348.22146 214.0738 L354.09193 213.78966 L354.24807 208.74876 L354.30861 195.14631 L354.30909 194.19299 L354.21171 144.55289 L353.77876 140.03039 L319.10931 140.92213 L288.69217 142.0808 L269.72682 142.90633 L266.71675 143.10199 L262.92053 143.75224 L262.44539 144.09734 L261.07179 146.36395 L259.16676 149.71379 L257.81595 152.71177 L255.49839 157.9767 L250.42061 171.06492 L248.27833 176.61449 L240.27934 197.5197 M161.63359 196.89204 L161.08267 205.15828 L162.66076 207.5762 L163.31374 207.8505 L213.24901 216.37781 L234.57586 212.15331 L234.7622 211.87484 L243.58148 188.58265 L253.09309 163.39747 L257.0377 152.36278 L256.91013 151.72795 L255.68077 150.56596 L250.81392 149.12697 L236.76333 146.0894 L228.77227 144.37295 L168.94579 131.88864 L167.15349 131.73889 L166.80467 135.20134 L164.88597 156.75545 L161.63359 196.89204 M170.65407 85.2122 L167.59042 123.47869 L167.68614 125.06764 L168.09335 131.06947 L172.66067 132.50118 L209.02398 140.16871 L221.30987 142.69859 L224.8673 143.10635 L227.2992 142.62912 L230.63161 74.18931 L230.56701 74.02845 L228.49413 71.74615 L226.54709 71.25188 L222.774 70.99034 L221.18957 70.90241 L199.82555 70.87625 L188.76128 70.87101 L176.82701 71.08773 L173.15965 71.24722 L172.7636 71.32175 L172.14989 71.8021 L171.78167 73.14701 L171.44559 75.32912 L170.65407 85.2122 M229.99961 88.88661 L229.73624 97.65325 L230.28469 100.73629 L231.22539 101.10789 L239.1591 103.61011 L241.15733 103.99213 L245.27978 104.7368 L250.50085 105.55133 L256.46008 106.39585 L274.80272 108.91251 L285.04949 110.27363 L287.81875 110.49348 L289.95549 109.17892 L290.08127 109.00229 L296.07764 90.13157 L300.60777 74.47734 L299.58392 70.89873 L247.13924 70.87939 L236.50049 71.15694 L233.98605 71.51453 L232.51868 72.35056 L231.02046 74.43629 L230.7264 74.86816 L230.59534 76.17435 L230.10839 86.30184 L229.99961 88.88661 M300.97071 74.51545 L294.83194 94.60925 L295.34144 96.30799 L297.37974 98.75331 L304.09617 100.94056 L322.60252 106.35234 L348.79473 113.86386 L350.97016 113.8455 L353.73482 113.60111 L353.91426 112.64854 L354.16239 103.15417 L354.31836 95.51175 L353.79714 76.7877 L353.60932 71.90336 L352.64294 71.5018 L351.21467 71.0062 L336.37202 70.87306 L310.42018 70.91609 L303.83625 71.38066 L300.97071 74.51545 M310.92144 135.3249 L310.90601 140.28756 L313.20149 140.7636 L342.98585 139.85538 L347.78601 139.66224 L353.56302 139.08919 L354.17611 136.52906 L354.29348 129.19075 L354.27947 117.81824 L353.2851 115.62736 L350.06308 114.5865 L329.17187 108.58922 L316.79956 105.13016 L312.45563 104.09579 L311.91368 109.92617 L311.63881 115.58305 L310.92144 135.3249 M228.2849 125.77034 L228.27798 126.54779 L229.85751 130.23268 L230.27903 130.15499 L236.81378 128.58171 L250.96145 125.11187 L263.08436 121.69718 L264.39419 121.32412 L267.66309 120.33713 L268.71402 119.87319 L269.68264 116.87788 L270.24591 113.84256 L270.19881 112.47587 L269.37207 109.59637 L269.17693 108.95913 L263.74446 107.54847 L259.82944 106.97229 L239.74157 104.18194 L237.02504 103.88095 L232.92725 103.44501 L229.36885 104.28398 L228.2849 125.77034 M228.18761 133.36703 L227.68997 142.26327 L228.82355 143.95766 L228.94806 144.01663 L231.63646 144.79175 L249.11486 148.54244 L254.55477 149.70731 L257.58711 149.62519 L259.0535 146.85963 L261.83072 140.62258 L260.04735 131.70608 L258.71686 127.174 L257.77221 125.87507 L256.13389 123.88306 L243.93371 127.0265 L232.91132 130.05633 L230.35446 131.38261 L228.18761 133.36703 M293.17814 100.63517 L280.84053 110.83572 L287.1548 120.058 L289.58241 121.06016 L299.24851 121.23249 L305.52553 120.36417 L308.77665 118.56075 L310.57089 117.08344 L311.36157 109.97411 L311.17086 103.98337 L311.00135 103.56173 L296.35212 98.95195 L293.17814 100.63517 M271.43973 109.19444 L266.27181 121.31862 L266.41769 121.45829 L270.53172 124.45839 L274.43232 127.12291 L277.44336 129.15563 L281.85242 132.06105 L284.55723 133.66045 L285.16117 133.61563 L290.50219 123.81534 L290.75321 123.30252 L281.00977 112.34301 L279.4767 110.65817 L278.42225 109.80165 L274.33697 109.00871 L271.43973 109.19444 M280.42647 135.22465 L279.84969 138.11188 L280.77166 142.1364 L295.40986 141.79177 L299.79728 141.31533 L297.29244 130.6071 L295.61431 124.16614 L294.84714 121.73058 L292.423 122.61914 L280.42647 135.22465 M302.30274 131.52185 L298.28898 132.82462 L300.579 140.93594 L306.62961 141.34852 L308.21013 141.00611 L310.06824 140.36392 L310.68219 139.54338 L310.46478 133.90487 L310.22164 131.11142 L309.82224 130.92362 L309.10993 130.72603 L302.30274 131.52185 M302.39879 121.41629 L295.86767 122.35772 L298.17315 128.96185 L298.72196 129.88323 L300.43632 131.3261 L302.71241 130.90909 L303.57361 122.89892 L303.33199 121.66598 L302.39879 121.41629 M303.78318 124.24031 L303.23882 130.34519 L310.52437 130.23433 L311.00267 129.72865 L310.86445 123.83571 L310.65291 122.64777 L310.20602 121.63924 L304.41346 121.75922 L303.78318 124.24031 M260.7695 131.85109 L260.57704 132.9352 L262.84902 140.29247 L263.59993 140.97589 L264.64996 141.45556 L266.73466 142.37033 L269.69346 142.56189 L269.95796 141.86097 L269.79217 135.58499 L269.51674 135.09873 L268.83388 134.08183 L263.75532 132.01496 L260.7695 131.85109 M266.15691 121.76163 L258.6765 123.3474 L258.6773 125.76892 L261.11687 130.65957 L262.01778 131.06687 L262.45125 130.70617 L264.20085 129.06034 L266.30935 126.6254 L266.40175 124.50779 L266.20625 121.95132 L266.15691 121.76163 M274.4289 129.00253 L270.63645 133.28588 L272.56055 135.84667 L278.62341 136.5899 L279.24714 134.07976 L278.49591 130.70397 L275.21437 129.24863 L274.4289 129.00253 M274.85349 137.57981 L274.75488 139.21116 L276.49563 140.90089 L279.06407 142.17056 L279.35189 139.57182 L278.43844 138.13378 L275.44103 137.13467 L274.85349 137.57981 M270.88676 126.46702 L270.15675 128.59641 L271.56618 131.09333 L272.93124 129.61049 L273.96885 127.92305 L273.21505 126.56489 L270.88676 126.46702 M273.92248 141.04265 L270.82051 141.53382 L271.61009 142.53986 L273.09956 142.51725 L274.14887 141.97515 L274.65934 141.57304 L273.92248 141.04265 M266.30528 129.21402 L265.83697 130.44093 L265.98871 130.84471 L268.5579 130.82332 L269.27158 129.27797 L266.97354 128.04781 L266.30528 129.21402 M271.93113 136.71193 L270.52921 139.01706 L270.90858 139.8911 L271.41838 140.43602 L274.52407 139.83429 L273.92073 137.45644 L271.93113 136.71193 M269.01999 125.4403 L268.57163 123.66964 L268.85305 125.8643 L269.01999 125.4403 M267.95755 125.19114 L267.87333 125.84235 L268.08987 125.35176 L267.95755 125.19114 M267.73648 126.28462 L267.20709 126.28634 L267.71369 126.48936 L267.73648 126.28462" fill="none" stroke="black" stroke-width="0.03cm" />
    </g>
</svg>