<?xml version="1.0" encoding="utf-8"?>
<!-- Generator: Adobe Illustrator 22.0.0, SVG Export Plug-In . SVG Version: 6.00 Build 0)  -->
<svg version="1.1" id="Layer_1" xmlns="http://www.w3.org/2000/svg" xmlns:xlink="http://www.w3.org/1999/xlink" x="0px" y="0px"
	 viewBox="0 0 841.9 595.3" style="enable-background:new 0 0 841.9 595.3;" xml:space="preserve">
<style type="text/css">
	.st0{fill:none;stroke:#000000;stroke-width:0.7;stroke-linecap:round;}
</style>
<g transform="scale(0.320000)">
	<path class="st0" d="M1024.2,1805.6c-23.9-8-47.5-16.9-70.8-26.8"/>
	<path class="st0" d="M437.4,646.5c2.5-7.7,5-15.3,7.7-22.9"/>
	<path class="st0" d="M2181.4,611.5c8.5,23.2,16.1,46.7,22.8,70.5"/>
	<path class="st0" d="M2224.3,1038.5c-0.4,3.2-0.8,6.3-1.2,9.5"/>
	<path class="st0" d="M2222.9,1049.6c-8.3,63.4-23.3,125.8-44.7,186.1"/>
	<path class="st0" d="M1790.9,1712.1c-6.4,3.9-12.8,7.7-19.2,11.4"/>
	<path class="st0" d="M1057,1808.1c-42.9-12.6-84.9-28.4-125.5-47.2"/>
	<path class="st0" d="M831.8,1707.1c-1.8-1.1-3.6-2.3-5.4-3.4"/>
	<path class="st0" d="M823.7,1702c-2.7-1.7-5.4-3.4-8.1-5.2"/>
	<path class="st0" d="M426.6,711.8c1-4.1,2.1-8.3,3.1-12.4"/>
	<path class="st0" d="M440.7,661c8.8-28.5,18.9-56.6,30.4-84.1"/>
	<path class="st0" d="M482.6,550.6c0.7-1.5,1.3-2.9,2-4.4"/>
	<path class="st0" d="M1970.5,290.9c7.8,8,15.5,16.1,23,24.4"/>
	<path class="st0" d="M2138.1,528.9c5.4,11,10.5,22.1,15.4,33.3"/>
	<path class="st0" d="M2168.7,599.1c15.2,39.2,27.7,79.5,37.4,120.4"/>
	<path class="st0" d="M1024.4,1790c-25-8.5-49.7-18-73.8-28.6"/>
	<path class="st0" d="M459.2,628.6c0.4-1,0.7-2,1.1-3"/>
	<path class="st0" d="M2170.6,625.6c7.1,19.9,13.5,40,19.2,60.4"/>
	<path class="st0" d="M2205.7,1064.8c-0.4,2.6-0.8,5.2-1.2,7.8"/>
	<path class="st0" d="M2204,1075.6c-8.1,49.7-20.4,98.5-36.7,146.1"/>
	<path class="st0" d="M1756.1,1715.3c-4.6,2.6-9.2,5.1-13.8,7.6"/>
	<path class="st0" d="M1094.6,1803c-60-15.2-118.2-36.5-173.8-63.6"/>
	<path class="st0" d="M916.5,1737.3c-2.3-1.2-4.7-2.3-7-3.5"/>
	<path class="st0" d="M908.1,1733.1c-0.9-0.5-1.9-0.9-2.8-1.4"/>
	<path class="st0" d="M805.5,1672.1c-1.3-0.9-2.6-1.8-3.9-2.7"/>
	<path class="st0" d="M677.7,1565.7c-0.7-0.7-1.5-1.5-2.2-2.2"/>
	<path class="st0" d="M674.4,1562.3c-1.1-1.1-2.2-2.2-3.3-3.4"/>
	<path class="st0" d="M666.7,1554.4c-2.2-2.3-4.3-4.5-6.5-6.8"/>
	<path class="st0" d="M655.9,1543c-1.1-1.2-2.1-2.3-3.2-3.5"/>
	<path class="st0" d="M649.5,1536.1c-1.4-1.5-2.8-3.1-4.2-4.7"/>
	<path class="st0" d="M643.2,1529.1c-4.2-4.7-8.3-9.4-12.4-14.2"/>
	<path class="st0" d="M629.8,1513.7c-12.6-14.8-24.6-29.9-36.2-45.5"/>
	<path class="st0" d="M591.7,1465.7c-1.9-2.5-3.7-5.1-5.6-7.6"/>
	<path class="st0" d="M432.2,755.2c3.5-17.5,7.4-34.8,11.9-52.1"/>
	<path class="st0" d="M452.6,672.9c5.5-18.6,11.7-37,18.4-55.1"/>
	<path class="st0" d="M474.3,608.9c1.3-3.4,2.6-6.8,4-10.3"/>
	<path class="st0" d="M478.9,597.2c1.4-3.4,2.7-6.8,4.1-10.2"/>
	<path class="st0" d="M1949.9,291.3c11.2,11.1,22,22.4,32.6,34.1"/>
	<path class="st0" d="M2126.7,539.7c6.6,13.7,12.8,27.5,18.7,41.5"/>
	<path class="st0" d="M2156.6,608.9c16.5,43.1,29.6,87.4,39.2,132.5"/>
	<path class="st0" d="M1035.1,1777.9c-16.8-5.5-33.4-11.6-49.8-18.1"/>
	<path class="st0" d="M983.9,1759.2c-16.4-6.6-32.6-13.6-48.6-21.1"/>
	<path class="st0" d="M933.9,1737.4c-0.9-0.4-1.9-0.9-2.8-1.3"/>
	<path class="st0" d="M441.4,747.5c0.3-1.5,0.6-3.1,1-4.6"/>
	<path class="st0" d="M2156.6,630.6c8.4,23.5,15.7,47.3,22.1,71.4"/>
	<path class="st0" d="M2185.5,1094.5c-7.2,38-16.8,75.4-28.9,112.2"/>
	<path class="st0" d="M1724.3,1715.5c-5,2.6-10.1,5.2-15.2,7.7"/>
	<path class="st0" d="M1117.8,1793.2c-93.1-21.3-182.1-57.6-263.7-107.3"/>
	<path class="st0" d="M841,1677.7c-0.9-0.6-1.7-1.1-2.6-1.7"/>
	<path class="st0" d="M771.5,1628.8c-1.2-0.9-2.4-1.9-3.7-2.9"/>
	<path class="st0" d="M766.7,1625c-4.4-3.5-8.9-7.1-13.2-10.7"/>
	<path class="st0" d="M748.7,1610.4c-1.2-1-2.4-2-3.6-3"/>
	<path class="st0" d="M743.9,1606.4c-2-1.7-3.9-3.3-5.9-5"/>
	<path class="st0" d="M727.6,1592.3c-2.7-2.4-5.4-4.8-8-7.2"/>
	<path class="st0" d="M715,1580.9c-4.2-3.8-8.3-7.7-12.4-11.6"/>
	<path class="st0" d="M701.5,1568.1c-2.2-2.1-4.4-4.3-6.6-6.5"/>
	<path class="st0" d="M693.7,1560.6c-1.8-1.8-3.7-3.6-5.5-5.4"/>
	<path class="st0" d="M686.1,1553c-0.7-0.7-1.4-1.5-2.2-2.2"/>
	<path class="st0" d="M678.5,1545.2c-0.7-0.7-1.4-1.5-2.1-2.2"/>
	<path class="st0" d="M675.3,1541.9c-0.7-0.7-1.4-1.5-2.1-2.2"/>
	<path class="st0" d="M663.7,1529.5c-0.3-0.4-0.7-0.8-1-1.1"/>
	<path class="st0" d="M660.5,1526.1c-0.3-0.4-0.7-0.8-1-1.1"/>
	<path class="st0" d="M600.9,1453.1c-0.6-0.8-1.2-1.7-1.8-2.5"/>
	<path class="st0" d="M597.3,1448.1c-3.9-5.4-7.8-10.9-11.6-16.4"/>
	<path class="st0" d="M445.1,767.2c3.4-18.2,7.4-36.3,11.9-54.3"/>
	<path class="st0" d="M463.9,687.5c6.5-22.8,13.9-45.3,22.2-67.5"/>
	<path class="st0" d="M1937.2,299.6c14.3,14.1,28.1,28.7,41.4,43.7"/>
	<path class="st0" d="M2119.3,558.7c8,17.3,15.4,34.9,22.3,52.6"/>
	<path class="st0" d="M2145.4,621.5c16.3,44,29.2,89.2,38.4,135.1"/>
	<path class="st0" d="M1039.8,1763.7c-14.6-4.8-29-10-43.3-15.6"/>
	<path class="st0" d="M983.7,1743.1c-1.4-0.6-2.8-1.2-4.3-1.7"/>
	<path class="st0" d="M978,1740.7c-15.6-6.5-30.9-13.4-46.1-20.8"/>
	<path class="st0" d="M929.2,1718.6c-1.8-0.9-3.7-1.8-5.5-2.7"/>
	<path class="st0" d="M875.1,1689.7c-0.9-0.5-1.8-1-2.6-1.5"/>
	<path class="st0" d="M2145.1,642.8c7,20.3,13.3,40.8,18.8,61.5"/>
	<path class="st0" d="M2159.8,1142.2c-1.2,4.9-2.5,9.8-3.8,14.7"/>
	<path class="st0" d="M2155.6,1158.4c-1.1,3.9-2.2,7.8-3.3,11.7"/>
	<path class="st0" d="M1679.2,1721.1c-1.4,0.6-2.8,1.3-4.1,1.9"/>
	<path class="st0" d="M1135.9,1782c-126.9-26.7-246.2-81.5-349.3-160.3"/>
	<path class="st0" d="M781.9,1618c-8.4-6.5-16.7-13.2-24.8-20"/>
	<path class="st0" d="M754.7,1596.1c-0.4-0.3-0.8-0.7-1.2-1"/>
	<path class="st0" d="M738.6,1582.2c-0.4-0.3-0.8-0.7-1.1-1"/>
	<path class="st0" d="M732.9,1577.1c-0.8-0.7-1.5-1.4-2.3-2"/>
	<path class="st0" d="M574.7,1387.6c-5.1-8.2-10-16.5-14.8-24.8"/>
	<path class="st0" d="M455.3,795.4c3.7-23.5,8.3-46.9,13.9-70"/>
	<path class="st0" d="M473.4,709.2c2.8-10.8,5.9-21.5,9.1-32.2"/>
	<path class="st0" d="M1922.4,306c17.1,16.6,33.4,33.9,49.1,51.8"/>
	<path class="st0" d="M2104.5,562.2c11.3,24.3,21.6,49.2,30.6,74.5"/>
	<path class="st0" d="M2136.6,640.9c0.3,1,0.7,1.9,1,2.9"/>
	<path class="st0" d="M2140.6,652.4c15,44.7,26.4,90.5,34,137"/>
	<path class="st0" d="M1061.7,1755.1c-17.3-5.3-34.4-11.2-51.3-17.6"/>
	<path class="st0" d="M979.6,1725.2c-25.4-10.7-50.4-22.7-74.7-35.9"/>
	<path class="st0" d="M903.6,1688.7c-0.4-0.2-0.9-0.5-1.3-0.7"/>
	<path class="st0" d="M583.5,1387.5c-6.9-11.1-13.6-22.3-20-33.7"/>
	<path class="st0" d="M2138.7,670.6c5,15.8,9.5,31.7,13.6,47.8"/>
	<path class="st0" d="M1155.1,1770.7c-107.4-20.5-209.9-61.4-301.9-120.5"/>
	<path class="st0" d="M845.6,1645.3c-0.8-0.5-1.7-1.1-2.5-1.6"/>
	<path class="st0" d="M838.2,1640.4c-6.2-4.2-12.3-8.4-18.4-12.7"/>
	<path class="st0" d="M812.5,1622.4c-2-1.5-4-2.9-6-4.4"/>
	<path class="st0" d="M805.3,1617.1c-49.6-36.8-95.1-78.9-135.6-125.6"/>
	<path class="st0" d="M606.9,1409.9c-21.5-31.8-40.8-64.9-57.9-99.3"/>
	<path class="st0" d="M546.3,1305.2c-0.4-0.9-0.9-1.8-1.3-2.7"/>
	<path class="st0" d="M463.5,849.6c3.6-38.2,9.8-76.1,18.5-113.4"/>
	<path class="st0" d="M482.4,734.7c2.5-10.7,5.2-21.3,8.1-31.8"/>
	<path class="st0" d="M491.7,698.6c0.5-1.9,1.1-3.8,1.6-5.7"/>
	<path class="st0" d="M1888,294.2c0.4,0.3,0.7,0.7,1.1,1"/>
	<path class="st0" d="M1900.1,305.3c1.1,1,2.2,2,3.3,3.1"/>
	<path class="st0" d="M1904.5,309.4c19.9,18.9,38.8,38.6,56.8,59.3"/>
	<path class="st0" d="M2089.7,565.8c13.8,29.3,25.9,59.3,36.3,90"/>
	<path class="st0" d="M2130.7,670c13.9,43.7,24.3,88.4,31.1,133.7"/>
	<path class="st0" d="M1073.1,1743c-13.7-4.1-27.3-8.5-40.8-13.3"/>
	<path class="st0" d="M973.1,1706.2c-28.5-12.5-56.2-26.7-83.1-42.3"/>
	<path class="st0" d="M881.1,1658.7c-0.4-0.3-0.8-0.5-1.3-0.8"/>
	<path class="st0" d="M839.9,1632.5c-0.4-0.3-0.8-0.6-1.2-0.8"/>
	<path class="st0" d="M835,1629.2c-1.2-0.8-2.4-1.7-3.7-2.5"/>
	<path class="st0" d="M615.5,1409.4c-1.1-1.6-2.2-3.3-3.3-4.9"/>
	<path class="st0" d="M610.6,1402c-21.7-32.4-41.1-66.3-58.2-101.4"/>
	<path class="st0" d="M551.1,1298c-0.9-1.8-1.7-3.6-2.5-5.3"/>
	<path class="st0" d="M470.5,854.7c1.5-17.2,3.6-34.4,6.2-51.4"/>
	<path class="st0" d="M489.6,736.4c0.7-2.9,1.4-5.8,2.1-8.6"/>
	<path class="st0" d="M2128.8,689.2c3.6,12.3,7,24.7,10.1,37.1"/>
	<path class="st0" d="M1178.1,1759.7c-194-32.1-370.7-131.2-499.2-280.1"/>
	<path class="st0" d="M676.1,1476.2c-1-1.1-1.9-2.2-2.9-3.4"/>
	<path class="st0" d="M654.7,1450.1c-0.6-0.8-1.2-1.5-1.8-2.3"/>
	<path class="st0" d="M646.6,1439.7c-0.3-0.4-0.6-0.8-0.9-1.2"/>
	<path class="st0" d="M643.1,1435c-42.9-57.2-78.4-119.6-105.5-185.8"/>
	<path class="st0" d="M531.5,1234.2c-0.5-1.4-1.1-2.7-1.6-4.1"/>
	<path class="st0" d="M475,906.6c1.4-51.4,7.6-102.5,18.4-152.8"/>
	<path class="st0" d="M495.5,743.8c0.5-2.4,1.1-4.8,1.7-7.1"/>
	<path class="st0" d="M499.2,728.1c0.2-0.9,0.5-1.9,0.7-2.8"/>
	<path class="st0" d="M507.2,698.4c0.4-1.4,0.8-2.8,1.2-4.2"/>
	<path class="st0" d="M1803.7,245.6c4.8,3.4,9.5,6.9,14.2,10.4"/>
	<path class="st0" d="M1819.1,256.8c4.7,3.5,9.4,7.1,14,10.7"/>
	<path class="st0" d="M1834.3,268.4c0.8,0.6,1.5,1.2,2.3,1.8"/>
	<path class="st0" d="M1843.5,275.8c38.9,31.4,74.8,66.1,107.5,103.8"/>
	<path class="st0" d="M2073.7,566.8c18,37.5,33.1,76.3,45.4,116.1"/>
	<path class="st0" d="M2120.8,688.5c12.8,42.7,22.2,86.3,28.1,130.4"/>
	<path class="st0" d="M1084.3,1730.8c-0.9-0.3-1.9-0.5-2.8-0.8"/>
	<path class="st0" d="M983.1,1694.4c-38.3-16.6-75.2-36.1-110.5-58.3"/>
	<path class="st0" d="M868.9,1633.8c-0.4-0.3-0.8-0.5-1.2-0.8"/>
	<path class="st0" d="M865.2,1631.4c-35.5-22.8-69.2-48.3-100.9-76.2"/>
	<path class="st0" d="M763.2,1554.3c-3.3-2.9-6.5-5.8-9.7-8.8"/>
	<path class="st0" d="M751.4,1543.6c-4.3-3.9-8.5-7.9-12.7-11.9"/>
	<path class="st0" d="M735.5,1528.6c-1.4-1.3-2.8-2.7-4.2-4.1"/>
	<path class="st0" d="M724.1,1517.3c-0.3-0.3-0.7-0.7-1-1"/>
	<path class="st0" d="M661.4,1446.6c-0.3-0.4-0.6-0.8-0.9-1.1"/>
	<path class="st0" d="M656.1,1439.8c-47.5-61.5-86.2-129.3-114.9-201.5"/>
	<path class="st0" d="M537.9,1230.1c-0.2-0.5-0.3-0.9-0.5-1.4"/>
	<path class="st0" d="M482.1,925.8c0.1-13.6,0.5-27.1,1.2-40.7"/>
	<path class="st0" d="M484.2,870.5c0.4-5.3,0.8-10.6,1.3-15.9"/>
	<path class="st0" d="M486.9,840.1c0.3-2.4,0.5-4.8,0.8-7.2"/>
	<path class="st0" d="M490.2,814.1c0.5-3.8,1.1-7.7,1.7-11.5"/>
	<path class="st0" d="M2119.7,711.6c1.7,6.1,3.2,12.2,4.7,18.3"/>
	<path class="st0" d="M1199.1,1747.8c-325.5-46.3-592.6-281.4-679.9-598.4"/>
	<path class="st0" d="M516.9,1141.1c-0.5-1.9-1-3.7-1.5-5.6"/>
	<path class="st0" d="M500.8,1066.4c-0.1-0.5-0.2-0.9-0.2-1.4"/>
	<path class="st0" d="M493.9,1015c-0.2-2.4-0.5-4.8-0.7-7.2"/>
	<path class="st0" d="M492.5,1000.7c-6.4-74.8-2.6-150.1,11.3-223.9"/>
	<path class="st0" d="M1811.4,269.6c48.9,36.7,93.5,78.7,133.1,125.2"/>
	<path class="st0" d="M2063.4,579.8c41.3,88.1,66.7,182.9,75,279.8"/>
	<path class="st0" d="M2139.3,871.1c0.1,1.4,0.2,2.9,0.3,4.3"/>
	<path class="st0" d="M976,1674.9c-229.7-104.7-398.3-309.5-456.8-555.1"/>
	<path class="st0" d="M515.7,1104.5c-0.1-0.5-0.2-0.9-0.3-1.4"/>
	<path class="st0" d="M512.5,1089.1c-0.3-1.4-0.6-2.8-0.8-4.2"/>
	<path class="st0" d="M504,1037c-7.5-56.7-9-114-4.5-171.1"/>
	<path class="st0" d="M1240.5,1737.7c-0.9-0.1-1.9-0.2-2.8-0.3"/>
	<path class="st0" d="M1151,1724.3c-427.3-88.5-708-499.2-635.2-929.5"/>
	<path class="st0" d="M1810.3,287.5c46.8,36,89.5,77,127.4,122.3"/>
	<path class="st0" d="M2052.3,591.2c19.9,43.3,36,88.3,48,134.5"/>
	<path class="st0" d="M2103.4,738c11,45,18.1,90.8,21.2,136.9"/>
	<path class="st0" d="M983.5,1662c-1.3-0.6-2.6-1.2-3.8-1.7"/>
	<path class="st0" d="M975.8,1658.4c-306.7-143-490.9-462.8-460.8-799.8"/>
	<path class="st0" d="M2111.6,934.3c0,1.4,0,2.8,0,4.2"/>
	<path class="st0" d="M1162.2,1711.4c-415.6-81.5-694.6-474.2-635-893.5"/>
	<path class="st0" d="M1790.2,290.9c54.7,40.7,104,88.2,146.7,141.4"/>
	<path class="st0" d="M2041.1,602.5c21.7,48.2,38.6,98.4,50.4,149.9"/>
	<path class="st0" d="M2093.1,759.1c10,45.3,15.9,91.3,17.9,137.6"/>
	<path class="st0" d="M2111.4,912.1c0.1,2.3,0.1,4.6,0.1,6.9"/>
	<path class="st0" d="M2111.6,923.2c0,1.4,0,2.8,0,4.2"/>
	<path class="st0" d="M990.9,1649c-273-123.3-452.7-390.6-463.6-690"/>
	<path class="st0" d="M526.7,937c-0.3-32.6,1.5-65.2,5.2-97.5"/>
	<path class="st0" d="M2096.8,930.1c0,15-0.4,30-1.3,45"/>
	<path class="st0" d="M1177.1,1699.1c-420.5-75.7-702.2-475-632.4-896.6"/>
	<path class="st0" d="M545.3,798.5c0.2-0.9,0.3-1.8,0.5-2.7"/>
	<path class="st0" d="M1764.7,290.9c65.6,46.1,123.7,102,172.3,165.8"/>
	<path class="st0" d="M2026.4,606.1c3,6.6,5.9,13.3,8.8,20"/>
	<path class="st0" d="M2040.9,640c36.7,91.9,55.7,189.9,55.9,288.8"/>
	<path class="st0" d="M992.1,1633.2c-239.4-110.1-406.3-334.4-443-595.4"/>
	<path class="st0" d="M548.9,1036.5c-1-7.1-1.9-14.3-2.7-21.4"/>
	<path class="st0" d="M544,869.4c1-12.1,2.2-24.2,3.7-36.3"/>
	<path class="st0" d="M549.1,822.4c0.1-0.4,0.1-0.9,0.2-1.3"/>
	<path class="st0" d="M1822.1,345.2c5.1,4.4,10.2,8.9,15.1,13.5"/>
	<path class="st0" d="M1920.2,447.3c2,2.5,3.9,4.9,5.9,7.4"/>
	<path class="st0" d="M2081.9,930.1c0,22.7-1,45.5-3,68.1"/>
	<path class="st0" d="M1189,1686c-417.5-69.9-699.3-464.9-629.4-882.4c0.1-0.4,0.1-0.9,0.2-1.3"/>
	<path class="st0" d="M560.2,799.7c0.5-2.6,0.9-5.3,1.4-7.9"/>
	<path class="st0" d="M1751.8,300c71.7,49.6,134.3,111.1,185.3,181.8"/>
	<path class="st0" d="M2015.1,617.2c0.2,0.4,0.4,0.8,0.5,1.2"/>
	<path class="st0" d="M2026.6,644.3c2.5,6.2,4.9,12.4,7.2,18.7"/>
	<path class="st0" d="M2040.5,681.9c27.2,79.5,41.2,162.9,41.3,246.9"/>
	<path class="st0" d="M1001.9,1621.3c-219.1-99.4-378.1-296.8-428.6-532.1"/>
	<path class="st0" d="M561.4,844.2c1.4-12.7,3.2-25.4,5.3-38"/>
	<path class="st0" d="M1818.4,361.7c6.3,5.6,12.5,11.2,18.6,17"/>
	<path class="st0" d="M1837.9,379.6c2.2,2.1,4.5,4.3,6.7,6.4"/>
	<path class="st0" d="M2067,930.1c0,24.9-1.2,49.8-3.7,74.6"/>
	<path class="st0" d="M2063.1,1006.1c-0.2,2.2-0.5,4.3-0.7,6.5"/>
	<path class="st0" d="M1207,1673.8c-373.7-54.5-648.9-377.9-643-755.5"/>
	<path class="st0" d="M564.3,906.5c0.1-2.2,0.1-4.4,0.2-6.6"/>
	<path class="st0" d="M568.5,847.7c2.2-20,5.2-39.9,9-59.6"/>
	<path class="st0" d="M1749.7,316.8c73.3,51.9,136.8,116.6,187.3,190.9"/>
	<path class="st0" d="M2026.5,686.7c2,5.8,3.9,11.6,5.7,17.4"/>
	<path class="st0" d="M2034.5,711.6c6,19.7,11.1,39.6,15.5,59.7"/>
	<path class="st0" d="M2065.7,885.5c0.9,14.4,1.3,28.8,1.3,43.3"/>
	<path class="st0" d="M1015.2,1610.9c-205-90.4-358.3-268.4-417.4-484.5"/>
	<path class="st0" d="M597.4,1125.2c-0.6-2.1-1.1-4.2-1.7-6.3"/>
	<path class="st0" d="M577.7,833c0.4-3,0.8-6,1.2-9"/>
	<path class="st0" d="M579.3,821.4c1.3-8.6,2.7-17.1,4.2-25.6"/>
	<path class="st0" d="M1803.6,368.5c16.7,14.5,32.7,29.7,48,45.6"/>
	<path class="st0" d="M1857.9,420.7c0.3,0.3,0.6,0.6,0.9,0.9"/>
	<path class="st0" d="M2051.3,964.8c-0.3,7.3-0.8,14.5-1.4,21.8"/>
	<path class="st0" d="M2049.6,990.5c-0.4,4.7-0.8,9.4-1.3,14.1"/>
	<path class="st0" d="M1225.7,1661.3c-368.4-45.2-645.6-357.4-646.9-728.6"/>
	<path class="st0" d="M585.3,832.7c2.8-21.2,6.6-42.4,11.3-63.3"/>
	<path class="st0" d="M597.7,764.4c0.2-0.8,0.4-1.7,0.6-2.5"/>
	<path class="st0" d="M1711.3,308.8c87.1,55.5,161.5,128.6,218.5,214.7"/>
	<path class="st0" d="M2019.9,714.7c1.1,3.7,2.2,7.4,3.3,11.1"/>
	<path class="st0" d="M2024.3,729.5c2.5,8.7,4.7,17.4,6.9,26.1"/>
	<path class="st0" d="M2047.2,845.4c1.1,9.8,2.1,19.6,2.8,29.4"/>
	<path class="st0" d="M1028.2,1600.4c-186.7-80-331.6-234.3-399.7-425.6"/>
	<path class="st0" d="M619.6,1148.2c-0.3-0.8-0.5-1.6-0.8-2.4"/>
	<path class="st0" d="M596.7,807.3c1.5-8.8,3.2-17.5,5-26.3"/>
	<path class="st0" d="M1795.8,381.4c26.5,23.2,51.3,48.3,74.2,75.1"/>
	<path class="st0" d="M1871.6,458.5c1.9,2.3,3.8,4.5,5.7,6.8"/>
	<path class="st0" d="M1889.3,480.2c2.1,2.7,4.2,5.4,6.2,8.1"/>
	<path class="st0" d="M1213.8,1644.7c-8.3-1.2-16.6-2.5-24.9-4"/>
	<path class="st0" d="M1170.3,1637.1c-0.4-0.1-0.8-0.2-1.2-0.3"/>
	<path class="st0" d="M1161.7,1635.3c-326.5-71.2-561.5-357.2-567.9-691.3"/>
	<path class="st0" d="M602.4,818.5c2.6-16.6,5.8-33.1,9.5-49.5"/>
	<path class="st0" d="M612.5,766.5c1-4.1,1.9-8.2,3-12.2"/>
	<path class="st0" d="M1713.8,328.2c85.4,56.5,157.8,130.6,212.4,217.3"/>
	<path class="st0" d="M2008.9,730c1.4,4.8,2.7,9.7,4,14.6"/>
	<path class="st0" d="M2030.7,833.4c2.4,17.5,4.1,35,5.2,52.6"/>
	<path class="st0" d="M1036.3,1587.7c-172-73-308.6-210.5-380.4-383"/>
	<path class="st0" d="M653.1,1197.7c-0.5-1.2-0.9-2.3-1.4-3.5"/>
	<path class="st0" d="M614,795c1.7-8.6,3.5-17.1,5.4-25.6"/>
	<path class="st0" d="M1792.5,398.4c38.7,34.7,73.5,73.6,103.8,115.9"/>
	<path class="st0" d="M1911.1,535.9c1.1,1.7,2.3,3.5,3.4,5.2"/>
	<path class="st0" d="M1222,1630.8c-2.4-0.3-4.9-0.7-7.3-1"/>
	<path class="st0" d="M1212.2,1629.4c-2.8-0.4-5.7-0.9-8.5-1.3"/>
	<path class="st0" d="M1162.5,1620.3c-294.1-65.2-514.6-309.6-549.2-608.9"/>
	<path class="st0" d="M612.2,1001.6c-1-10.2-1.9-20.5-2.4-30.7"/>
	<path class="st0" d="M619.5,806.2c3.1-17.4,6.9-34.7,11.3-51.8"/>
	<path class="st0" d="M633.6,743.6c0.7-2.4,1.3-4.8,2-7.1"/>
	<path class="st0" d="M1708.7,342.7c84,56.3,155,129.9,208.2,216"/>
	<path class="st0" d="M1996.3,740c0.1,0.4,0.2,0.8,0.3,1.2"/>
	<path class="st0" d="M2013.6,819.5c0.2,1.2,0.4,2.4,0.6,3.7"/>
	<path class="st0" d="M2015.8,834.2c3,22,5,44.1,5.9,66.3"/>
	<path class="st0" d="M1079.7,1588.6c-2.3-0.8-4.6-1.7-6.9-2.5"/>
	<path class="st0" d="M1059.1,1580.9c-35.2-13.9-69.3-30.6-101.8-50"/>
	<path class="st0" d="M950,1526.5c-0.7-0.4-1.4-0.9-2.1-1.3"/>
	<path class="st0" d="M946.9,1524.6c-3.8-2.4-7.6-4.8-11.3-7.2"/>
	<path class="st0" d="M931.4,1514.7c-108.2-71-194.5-170.7-249.4-287.9"/>
	<path class="st0" d="M629.8,791.9c1.8-8.8,3.7-17.5,5.8-26.2"/>
	<path class="st0" d="M1788,414.4c47.8,43.8,89.2,94,123.2,149.2"/>
	<path class="st0" d="M1278,1621.1c-4-0.2-8-0.5-12-0.8"/>
	<path class="st0" d="M1225.1,1616.2c-1.2-0.2-2.4-0.3-3.6-0.5"/>
	<path class="st0" d="M1162.1,1604.9c-276.4-62.8-486.5-287.7-530.4-567.8"/>
	<path class="st0" d="M630.9,1031.2c-0.4-2.8-0.8-5.6-1.2-8.4"/>
	<path class="st0" d="M635.3,802.8c3.7-19.8,8.3-39.4,13.7-58.8"/>
	<path class="st0" d="M1702.4,356.4c87.2,58.8,159.8,136.7,212.3,227.7"/>
	<path class="st0" d="M2000.7,833.8c3.5,24.7,5.6,49.6,6.4,74.6"/>
	<path class="st0" d="M1106.2,1581.9c-34.9-11.2-68.9-25.2-101.5-41.8"/>
	<path class="st0" d="M997.2,1536.2c-8.5-4.4-16.8-9.1-25.1-13.9"/>
	<path class="st0" d="M963.9,1517.5c-95.1-56.9-175-136.1-232.8-230.7"/>
	<path class="st0" d="M723.8,1274.5c-0.6-1-1.2-2.1-1.8-3.1"/>
	<path class="st0" d="M712.1,1253.6c-1.3-2.5-2.6-4.9-3.9-7.4"/>
	<path class="st0" d="M647.4,780.8c1.9-8.5,4-17.1,6.2-25.5"/>
	<path class="st0" d="M1773.5,421.4c51,45.9,94.8,99.3,130,158.2"/>
	<path class="st0" d="M1976,1079c-1.7,7.7-3.6,15.3-5.6,23"/>
	<path class="st0" d="M1970.1,1103.1c-0.2,0.8-0.4,1.5-0.6,2.3"/>
	<path class="st0" d="M1310.7,1607.2c-2.4,0-4.7,0-7.1-0.1"/>
	<path class="st0" d="M1288.3,1606.7c-2.4-0.1-4.7-0.2-7.1-0.3"/>
	<path class="st0" d="M1277.7,1606.2c-5.1-0.3-10.2-0.6-15.3-1"/>
	<path class="st0" d="M1258.8,1604.9c-11-0.9-22-2.1-32.9-3.6"/>
	<path class="st0" d="M1214.2,1599.6c-2.3-0.4-4.7-0.7-7-1.1"/>
	<path class="st0" d="M1162,1589.6c-254.6-59.3-452.4-259.8-508.1-515.2"/>
	<path class="st0" d="M653.1,1070.9c-1.6-7.3-3-14.7-4.3-22"/>
	<path class="st0" d="M651.9,795.1c4.1-20.1,9.1-40,15-59.6"/>
	<path class="st0" d="M668.3,731c0.2-0.8,0.5-1.5,0.7-2.3"/>
	<path class="st0" d="M1694.1,368.8c88.9,60,162.3,140.2,214.2,234.1"/>
	<path class="st0" d="M1985.7,833.5c3.6,25,5.8,50.1,6.6,75.3"/>
	<path class="st0" d="M1121.9,1571.2c-36.6-11-72.1-25.2-106.3-42.3"/>
	<path class="st0" d="M994.9,1518.1c-0.3-0.2-0.7-0.4-1-0.6"/>
	<path class="st0" d="M972.6,1505.4c-1.3-0.8-2.7-1.6-4-2.4"/>
	<path class="st0" d="M962.6,1499.3c-89.1-55.3-164.1-130.7-218.7-220.2"/>
	<path class="st0" d="M663.5,777.2c0.4-1.5,0.7-3,1.1-4.5"/>
	<path class="st0" d="M665.4,769.2c2.2-8.7,4.5-17.4,7-26"/>
	<path class="st0" d="M1769.6,438c51.9,47.9,96,103.8,130.4,165.5"/>
	<path class="st0" d="M1977,960.2c-0.8,17.3-2.3,34.6-4.4,51.8"/>
	<path class="st0" d="M1970.3,1029.1c-0.1,0.8-0.2,1.5-0.3,2.3"/>
	<path class="st0" d="M1963.2,1067.8c-4.6,21.5-10.2,42.7-16.9,63.7"/>
	<path class="st0" d="M1944.2,1138.1c-0.5,1.5-1,2.9-1.5,4.4"/>
	<path class="st0" d="M1334,1592.1c-6.6,0.2-13.1,0.3-19.7,0.3"/>
	<path class="st0" d="M1307.4,1592.3c-7.3-0.1-14.6-0.3-21.9-0.6"/>
	<path class="st0" d="M1282,1591.5c-26.6-1.3-53-4.3-79.2-8.8"/>
	<path class="st0" d="M1193.6,1581.1c-255-47.7-458.7-240-521-491.9"/>
	<path class="st0" d="M671.8,1085.8c-0.3-1.1-0.5-2.2-0.8-3.4"/>
	<path class="st0" d="M669.2,1074.6c-0.4-1.9-0.8-3.8-1.2-5.7"/>
	<path class="st0" d="M667.4,1066.7c-0.2-1.1-0.5-2.3-0.7-3.4"/>
	<path class="st0" d="M670.2,781.1c4.1-17.6,8.9-35.1,14.4-52.4"/>
	<path class="st0" d="M1672.2,372.2c97.9,62.6,177.7,149.9,231.2,253.1"/>
	<path class="st0" d="M1970.8,834.5c3.2,22.1,5.3,44.4,6.3,66.7"/>
	<path class="st0" d="M1117.5,1554.3c-3.6-1.2-7.3-2.3-10.9-3.6"/>
	<path class="st0" d="M1103.3,1549.6c-11.9-4.1-23.7-8.5-35.3-13.2"/>
	<path class="st0" d="M1061.7,1533.8c-3.9-1.6-7.7-3.3-11.5-5"/>
	<path class="st0" d="M980.2,1492.6c-2.6-1.6-5.2-3.1-7.8-4.7"/>
	<path class="st0" d="M957.9,1478.7c-79.1-51.6-146.2-119.7-196.5-199.6"/>
	<path class="st0" d="M682.7,761.7c2.3-8.5,4.7-16.9,7.3-25.3"/>
	<path class="st0" d="M1762,451.2c54.5,50.8,99.9,110.5,134.2,176.5"/>
	<path class="st0" d="M1962.8,934.6c-0.2,27.1-2.1,54.2-5.7,81.1"/>
	<path class="st0" d="M1956,1023.6c-0.2,1.5-0.4,3-0.7,4.5"/>
	<path class="st0" d="M1948.7,1064.7c-4.8,22.5-10.7,44.7-17.9,66.5"/>
	<path class="st0" d="M1929.4,1135.5c-0.8,2.5-1.7,5-2.6,7.5"/>
	<path class="st0" d="M1925.7,1146.2c-1.3,3.6-2.5,7.1-3.9,10.6"/>
	<path class="st0" d="M1288.4,1576.9c-27.1-1.1-54.1-4-80.9-8.5"/>
	<path class="st0" d="M1199.7,1567C951.8,1522,752.5,1337.2,689,1093.3"/>
	<path class="st0" d="M685.5,781.2c4.5-19.1,9.9-37.9,16.1-56.5"/>
	<path class="st0" d="M701.9,723.6c0.7-2.1,1.5-4.3,2.2-6.4"/>
	<path class="st0" d="M1662.3,383.5c100.5,63.8,181.4,154,234,260.8"/>
	<path class="st0" d="M1955,830c0.2,1.1,0.3,2.2,0.5,3.3"/>
	<path class="st0" d="M1955.7,834.4c3.3,22,5.4,44.1,6.4,66.3"/>
	<path class="st0" d="M991.6,1482.1c-10.9-6.4-21.6-13.1-32.2-20.2"/>
	<path class="st0" d="M942.9,1450.4c-1.2-0.9-2.4-1.7-3.6-2.6"/>
	<path class="st0" d="M932.1,1442.5c-1.5-1.1-3-2.2-4.5-3.4"/>
	<path class="st0" d="M924.1,1436.4c-0.3-0.2-0.6-0.5-0.9-0.7"/>
	<path class="st0" d="M920.6,1433.7c-49.3-38.7-92.7-84.4-128.7-135.6"/>
	<path class="st0" d="M700,754.8c2.4-8.6,5.1-17.1,7.9-25.6"/>
	<path class="st0" d="M1712.1,427.9c7,5.5,13.9,11.2,20.7,17.1"/>
	<path class="st0" d="M1759.2,469c54.6,52.5,99.4,114.4,132.4,182.6"/>
	<path class="st0" d="M1947.9,930.1c0,32.4-2.5,64.7-7.4,96.8"/>
	<path class="st0" d="M1307.7,1562.6c-277.7-3.4-520.6-187.5-599-453.9"/>
	<path class="st0" d="M707.8,754.7c4.4-15.2,9.3-30.2,14.9-45.1"/>
	<path class="st0" d="M1633.6,383.5c0.6,0.4,1.3,0.7,1.9,1.1"/>
	<path class="st0" d="M1640.3,387.4c108.5,64.9,195,160.8,248.4,275.4"/>
	<path class="st0" d="M1938.1,819.2c6.5,36.2,9.7,73,9.8,109.8"/>
	<path class="st0" d="M991.7,1464.8c-1.6-0.9-3.1-1.9-4.6-2.8"/>
	<path class="st0" d="M980.5,1457.9c-3.7-2.3-7.3-4.7-11-7.1"/>
	<path class="st0" d="M917,1411.7c-14.3-11.8-28.1-24.3-41.2-37.3"/>
	<path class="st0" d="M868.9,1367.4c-3.3-3.4-6.6-6.8-9.8-10.3"/>
	<path class="st0" d="M857.6,1355.6c-6.2-6.7-12.2-13.5-18.1-20.4"/>
	<path class="st0" d="M836.6,1331.9c-2.1-2.5-4.2-5-6.2-7.6"/>
	<path class="st0" d="M820.2,1311.5c-3.3-4.3-6.6-8.7-9.8-13.1"/>
	<path class="st0" d="M805.3,1291.3c-1-1.5-2.1-3-3.1-4.5"/>
	<path class="st0" d="M719,743.2c2-6.2,4-12.5,6.2-18.6"/>
	<path class="st0" d="M1702.8,439.6c8.8,7,17.5,14.2,26,21.7"/>
	<path class="st0" d="M1737.7,469.3c60,55,108.6,121.1,143.3,194.7"/>
	<path class="st0" d="M1933.1,930.1c0,28.8-2,57.5-6,86"/>
	<path class="st0" d="M1311.1,1547.7c-270.7-1.9-508.7-179.9-586.9-439.1"/>
	<path class="st0" d="M723.3,754.7c4.5-15.2,9.6-30.1,15.2-44.9"/>
	<path class="st0" d="M738.9,708.8c0.8-2,1.6-4,2.3-6"/>
	<path class="st0" d="M1628,397.4c112.5,66,201.2,165.9,253.4,285.4"/>
	<path class="st0" d="M1918.4,796.4c9.7,43.5,14.6,88,14.6,132.6"/>
	<path class="st0" d="M994.8,1449.2c-4.8-3-9.6-6-14.4-9.2"/>
	<path class="st0" d="M916.8,1392c-3.2-2.8-6.4-5.6-9.6-8.5"/>
	<path class="st0" d="M902.5,1379.3c-2.4-2.2-4.7-4.3-7-6.5"/>
	<path class="st0" d="M872.1,1349.3c-1-1-1.9-2.1-2.9-3.1"/>
	<path class="st0" d="M864.9,1341.5c-3.1-3.4-6.2-6.8-9.2-10.3"/>
	<path class="st0" d="M846,1319.9c-2.5-3-5-6-7.4-9.1"/>
	<path class="st0" d="M828.8,1298.2c-2.8-3.7-5.5-7.4-8.2-11.1"/>
	<path class="st0" d="M735.8,739.5c2.9-8.8,6-17.5,9.2-26.1"/>
	<path class="st0" d="M1695.3,452.6c77.3,61.5,138.6,140.9,178.4,231.3"/>
	<path class="st0" d="M1921.1,855.8c0.2,1.4,0.3,2.8,0.5,4.2"/>
	<path class="st0" d="M1918.2,930.1c0,28.8-2.1,57.5-6.2,86"/>
	<path class="st0" d="M1333.3,1532.6c-266.4,7.9-506.4-160.1-590.1-413.2"/>
	<path class="st0" d="M742.2,743.9c4.6-14,9.6-27.8,15.2-41.5"/>
	<path class="st0" d="M761.9,691.7c0.6-1.3,1.1-2.6,1.7-3.9"/>
	<path class="st0" d="M1632.2,417.3c111.7,69,197.8,172.5,245.2,294.8"/>
	<path class="st0" d="M1899.8,782.3c12.1,48,18.3,97.3,18.4,146.8"/>
	<path class="st0" d="M1214.1,1516.7c-1-0.2-2-0.4-3.1-0.5"/>
	<path class="st0" d="M939.2,1391.4c-10.5-8.5-20.6-17.4-30.5-26.7"/>
	<path class="st0" d="M868.9,1323.8c-0.9-1-1.8-2.1-2.7-3.1"/>
	<path class="st0" d="M853.5,1305.5c-2-2.4-3.9-4.9-5.8-7.3"/>
	<path class="st0" d="M844.5,1294.1c-1.9-2.5-3.8-5-5.7-7.4"/>
	<path class="st0" d="M755.4,728.5c3.2-8.8,6.5-17.5,10.1-26.2"/>
	<path class="st0" d="M1687.6,465.5c81.6,65.3,144.5,151,182.4,248.3"/>
	<path class="st0" d="M1903.4,837c0.2,1.4,0.4,2.7,0.6,4.1"/>
	<path class="st0" d="M1903.3,930.1c0,33.9-2.9,67.7-8.8,101.1"/>
	<path class="st0" d="M1697.2,1377.1c-2.9,2.4-5.7,4.9-8.6,7.2"/>
	<path class="st0" d="M1341.1,1517.4c-258.2,11.3-493.5-147.4-579.8-391"/>
	<path class="st0" d="M759.3,739.7c5.5-16.2,11.8-32.1,18.7-47.7"/>
	<path class="st0" d="M783.1,680.8c0.6-1.2,1.2-2.5,1.8-3.7"/>
	<path class="st0" d="M1635.6,437.1c110.6,71.8,193.8,178.7,236.3,303.6"/>
	<path class="st0" d="M1884.3,781.9c12.5,48.1,18.9,97.5,19,147.2"/>
	<path class="st0" d="M1262.8,1508.1c-1.3-0.1-2.7-0.2-4-0.4"/>
	<path class="st0" d="M1247.7,1506.5c-8.4-1-16.7-2.2-25.1-3.5"/>
	<path class="st0" d="M889.6,1324.5c-1.1-1.2-2.3-2.5-3.4-3.7"/>
	<path class="st0" d="M876.1,1309.4c-1.3-1.5-2.6-3.1-3.9-4.6"/>
	<path class="st0" d="M771.1,728.8c3.3-8.9,6.8-17.7,10.5-26.4"/>
	<path class="st0" d="M1672.8,472.8c85.2,66.5,150.1,155.5,187.4,257"/>
	<path class="st0" d="M1888.4,930.1c0,36.4-3.5,72.6-10.3,108.3"/>
	<path class="st0" d="M1728.3,1327.4c-1.6,1.7-3.2,3.4-4.9,5"/>
	<path class="st0" d="M1719.9,1336c-1.2,1.2-2.4,2.3-3.6,3.5"/>
	<path class="st0" d="M1713.5,1342.3c-1.4,1.4-2.9,2.8-4.3,4.1"/>
	<path class="st0" d="M1708.4,1347.1c-3.4,3.2-6.8,6.4-10.3,9.5"/>
	<path class="st0" d="M1695.9,1358.6c-0.5,0.4-1,0.9-1.5,1.3"/>
	<path class="st0" d="M1674.5,1376.6c-3.1,2.5-6.3,5-9.4,7.4"/>
	<path class="st0" d="M1326.5,1503c-244.5,4.7-465-146.3-549.1-375.9"/>
	<path class="st0" d="M779.1,728.5c6.7-17.8,14.3-35.2,22.7-52.3"/>
	<path class="st0" d="M802.3,675.4c1-2.1,2.1-4.2,3.2-6.3"/>
	<path class="st0" d="M1643.3,460.2c80.8,56.4,145.7,132.6,188.5,221.4"/>
	<path class="st0" d="M1833,684.4c6.4,13.6,12.3,27.4,17.7,41.4"/>
	<path class="st0" d="M1851.4,727.6c0.2,0.6,0.5,1.2,0.7,1.9"/>
	<path class="st0" d="M1866.2,772.2c9.3,32.4,15.7,65.5,19.2,99"/>
	<path class="st0" d="M1886.7,886.2c1.1,14.3,1.7,28.6,1.7,43"/>
	<path class="st0" d="M887.4,1299.6c-0.4-0.5-0.9-1-1.3-1.5"/>
	<path class="st0" d="M791.5,717.4c4.1-10.1,8.5-20,13.1-29.8"/>
	<path class="st0" d="M1662.8,483.9c59.9,46.6,109.8,104.9,146.7,171.2"/>
	<path class="st0" d="M1810.5,656.8c1.1,2,2.2,4,3.3,6.1"/>
	<path class="st0" d="M1814.3,663.8c0.5,0.9,0.9,1.7,1.4,2.6"/>
	<path class="st0" d="M1873.5,930.1c0,37.7-3.8,75.3-11.4,112.2"/>
	<path class="st0" d="M1315.5,1488.2c-0.3,0-0.6,0-1,0"/>
	<path class="st0" d="M1303.8,1488.1c-228.2-4.8-430.4-148-510.7-361.6"/>
	<path class="st0" d="M790.7,1120.1c-0.1-0.3-0.2-0.6-0.3-0.9"/>
	<path class="st0" d="M795.1,728.3c6.8-17.6,14.5-34.8,23.1-51.6"/>
	<path class="st0" d="M822.2,669c1.2-2.3,2.4-4.6,3.7-6.9"/>
	<path class="st0" d="M1650.5,483.8c64.9,48.7,118.4,111,156.8,182.6"/>
	<path class="st0" d="M1825.7,704c1.6,3.6,3.1,7.1,4.6,10.7"/>
	<path class="st0" d="M1853.5,781.9c10,36.3,16.3,73.6,18.8,111.2"/>
	<path class="st0" d="M1872.8,900.9c0.2,3.6,0.3,7.1,0.5,10.7"/>
	<path class="st0" d="M1873.5,927.2c0,0.6,0,1.3,0,1.9"/>
	<path class="st0" d="M1865.1,963.7c-0.3,5.1-0.7,10.2-1.2,15.3"/>
	<path class="st0" d="M810.5,710.6c0.9-2.1,1.8-4.1,2.7-6.1"/>
	<path class="st0" d="M814,702.7c4-8.8,8.2-17.4,12.6-25.9"/>
	<path class="st0" d="M1652.9,495c43.6,33.8,81.9,74,113.6,119.3"/>
	<path class="st0" d="M1857.8,960.4c-2,35.1-7.3,69.8-16,103.9"/>
	<path class="st0" d="M1322.1,1473.3c-233.9,2.9-443.4-144.4-519.9-365.4"/>
	<path class="st0" d="M812.5,724.9c0.2-0.6,0.5-1.2,0.7-1.8"/>
	<path class="st0" d="M815.4,717.9c7-16.6,14.9-32.8,23.6-48.6"/>
	<path class="st0" d="M839.5,668.4c0.5-0.8,0.9-1.7,1.4-2.5"/>
	<path class="st0" d="M847.4,654.4c0.8-1.4,1.6-2.7,2.4-4.1"/>
	<path class="st0" d="M1650.6,502.7c40.6,31.8,76.5,69.3,106.5,111.3"/>
	<path class="st0" d="M1758.2,615.5c0.5,0.8,1.1,1.5,1.6,2.3"/>
	<path class="st0" d="M1762,620.9c1.1,1.6,2.2,3.1,3.2,4.7"/>
	<path class="st0" d="M1775.1,640.7c2.2,3.5,4.3,7,6.4,10.5"/>
	<path class="st0" d="M1809.3,704c1.6,3.4,3.1,6.9,4.6,10.4"/>
	<path class="st0" d="M1837.9,781.3c12.1,42.6,19,86.5,20.5,130.8"/>
	<path class="st0" d="M830.3,702.9c4.1-8.7,8.4-17.4,13-25.9"/>
	<path class="st0" d="M1650.4,512c29.7,23.8,56.8,50.7,80.8,80.2"/>
	<path class="st0" d="M1732.4,593.7c1.6,1.9,3.1,3.9,4.7,5.9"/>
	<path class="st0" d="M1840.3,822.4c0.8,3.7,1.5,7.3,2.1,11"/>
	<path class="st0" d="M1840.8,986.3c-2.5,23.8-6.7,47.5-12.5,70.8"/>
	<path class="st0" d="M1826.5,1064.2c-1,3.9-2.1,7.7-3.2,11.6"/>
	<path class="st0" d="M1341.3,1457.8c-232.3,11.4-444.8-130.6-523.2-349.6"/>
	<path class="st0" d="M833.6,713.6c9.3-20.8,20-40.9,31.9-60.3"/>
	<path class="st0" d="M869.4,647c0.8-1.3,1.7-2.6,2.5-3.9"/>
	<path class="st0" d="M1650.1,521.3c28.3,23.2,54.2,49.3,77.1,77.8"/>
	<path class="st0" d="M1747.2,625.6c2.5,3.5,4.9,7.1,7.3,10.6"/>
	<path class="st0" d="M1781.5,681.3c1,1.9,2,3.8,3,5.7"/>
	<path class="st0" d="M1785.3,688.6c4.9,9.6,9.5,19.3,13.9,29.1"/>
	<path class="st0" d="M1821.5,778.3c13,43.3,20.4,88.2,22,133.4"/>
	<path class="st0" d="M848.5,699.3c5-10.1,10.3-19.9,15.9-29.7"/>
	<path class="st0" d="M1657.9,537.6c16.7,14.5,32.4,30.1,47.1,46.7"/>
	<path class="st0" d="M1818.8,796.2c0.9,3.5,1.8,7,2.7,10.6"/>
	<path class="st0" d="M1821.7,807.6c4.8,20,8.5,40.3,10.9,60.8"/>
	<path class="st0" d="M1833,871.2c0.1,1.2,0.3,2.4,0.4,3.6"/>
	<path class="st0" d="M1828.9,931c0,2.4,0,4.8-0.1,7.2"/>
	<path class="st0" d="M1828.7,945.3c-0.2,5.1-0.4,10.1-0.7,15.2"/>
	<path class="st0" d="M1822.3,1012.2c-0.3,1.8-0.6,3.5-0.9,5.3"/>
	<path class="st0" d="M1819.6,1027.2c-0.6,3.2-1.3,6.4-2,9.7"/>
	<path class="st0" d="M1363.8,1441.3c-234.7,22.2-454.3-118.3-532.6-340.6"/>
	<path class="st0" d="M849.8,713.9c8.3-17.9,17.6-35.3,27.9-52.1"/>
	<path class="st0" d="M887.8,646c0.7-1,1.3-2,2-3"/>
	<path class="st0" d="M1635.8,528.9c23.8,19,45.9,40.1,66,63.1"/>
	<path class="st0" d="M1711,602.8c9,10.8,17.5,22,25.5,33.5"/>
	<path class="st0" d="M1762.3,677.3c8.1,14.3,15.5,29,22.2,44"/>
	<path class="st0" d="M1802.3,767.2c0.2,0.6,0.4,1.1,0.6,1.7"/>
	<path class="st0" d="M1803.5,770.6c16.7,51.2,25.3,104.7,25.4,158.6"/>
	<path class="st0" d="M865.4,698.8c5.8-11.3,12-22.3,18.6-33.1"/>
	<path class="st0" d="M1650.7,551.2c11.9,10.5,23.3,21.6,34.2,33.2"/>
	<path class="st0" d="M1801.3,789c8.9,30.6,14.9,61.9,17.8,93.6"/>
	<path class="st0" d="M1814,930.1c0,16.2-0.8,32.5-2.4,48.7"/>
	<path class="st0" d="M1348.5,1427.6c-225.5,15-432.8-123.6-505.3-337.6"/>
	<path class="st0" d="M868.1,710c0.4-0.8,0.8-1.6,1.2-2.3"/>
	<path class="st0" d="M871.6,703c8.6-16.8,18.1-33.1,28.6-48.8"/>
	<path class="st0" d="M907.6,643.5c0.8-1.2,1.7-2.4,2.5-3.6"/>
	<path class="st0" d="M1635.9,548.2c30.9,25.9,58.6,55.6,82.4,88.2"/>
	<path class="st0" d="M1745.5,677.8c9.1,15.5,17.4,31.5,24.7,47.9"/>
	<path class="st0" d="M1785.1,762.9c19,53.4,28.8,109.7,28.9,166.4"/>
	<path class="st0" d="M886.3,691.3c5.6-10,11.5-19.8,17.7-29.4"/>
	<path class="st0" d="M906.4,658.4c0.8-1.2,1.6-2.4,2.4-3.6"/>
	<path class="st0" d="M1650.4,570.9c2.1,1.9,4.2,3.9,6.2,5.9"/>
	<path class="st0" d="M1751.1,703.3c3.8,7.4,7.5,14.8,10.9,22.3"/>
	<path class="st0" d="M1783.6,781.6c6.6,20.7,11.8,41.8,15.5,63.2"/>
	<path class="st0" d="M1799.2,845.7c0.6,3.4,1.1,6.8,1.7,10.2"/>
	<path class="st0" d="M1799.1,930.1c0,20-1.2,40-3.7,59.8"/>
	<path class="st0" d="M1795.3,990.7c-1.6,12.3-3.6,24.5-6.1,36.6"/>
	<path class="st0" d="M1340.8,1413.1c-216.1,11.3-413.4-122.3-483.2-327.1"/>
	<path class="st0" d="M888.4,703.1c8.9-16.7,18.7-32.8,29.4-48.3"/>
	<path class="st0" d="M921.2,649.9c2.4-3.4,4.9-6.9,7.5-10.2"/>
	<path class="st0" d="M931.7,635.7c0.2-0.2,0.3-0.4,0.5-0.7"/>
	<path class="st0" d="M1643.5,574.7c18.2,16.8,35.1,35,50.5,54.4"/>
	<path class="st0" d="M1695,630.4c1.6,2,3.1,4,4.7,6"/>
	<path class="st0" d="M1720.6,666c0.2,0.2,0.3,0.5,0.5,0.7"/>
	<path class="st0" d="M1723.4,670.2c13.3,20.9,25,42.8,35,65.5"/>
	<path class="st0" d="M1766.7,756c21.3,55.3,32.3,114,32.4,173.3"/>
	<path class="st0" d="M1088.2,1348.6c-1.2-0.7-2.4-1.3-3.6-2"/>
	<path class="st0" d="M903.5,691.3c7.4-12.7,15.3-25.1,23.8-37"/>
	<path class="st0" d="M1661.5,602.9c1.3,1.4,2.7,2.8,4,4.3"/>
	<path class="st0" d="M1671.6,613.9c0.4,0.4,0.7,0.8,1.1,1.2"/>
	<path class="st0" d="M1734.4,703.6c4.6,8.5,9,17.2,13,26"/>
	<path class="st0" d="M1767.8,781.4c4.1,12.4,7.6,24.9,10.7,37.6"/>
	<path class="st0" d="M1784,945.7c-0.7,22.4-3.1,44.6-7,66.7"/>
	<path class="st0" d="M1366.9,1396.1c-218.2,24.1-423.9-106.4-495-314.1"/>
	<path class="st0" d="M905.4,702.8c10.1-18.1,21.3-35.6,33.7-52.2"/>
	<path class="st0" d="M1650.4,602.1c8.4,8.6,16.5,17.5,24.2,26.7"/>
	<path class="st0" d="M1686.9,644.1c0.3,0.4,0.7,0.9,1,1.3"/>
	<path class="st0" d="M1692.3,651.3c20.1,27.2,37.3,56.5,51.1,87.4"/>
	<path class="st0" d="M1750.4,755.3c10.2,25.3,18.1,51.5,23.8,78.2"/>
	<path class="st0" d="M1775.8,841.5c5.4,28.1,8.2,56.7,8.4,85.4"/>
	<path class="st0" d="M1225.8,1382.7c-6.3-1.3-12.6-2.6-18.9-4.1"/>
	<path class="st0" d="M1121.9,1348.9c-1.5-0.7-2.9-1.4-4.4-2"/>
	<path class="st0" d="M1116.8,1346.5c-2.2-1-4.3-2.1-6.5-3.2"/>
	<path class="st0" d="M922.9,687.7c7.9-12.8,16.4-25.2,25.5-37.2"/>
	<path class="st0" d="M1661.5,625c0.2,0.2,0.4,0.4,0.5,0.6"/>
	<path class="st0" d="M1710.9,692.5c1,1.6,1.9,3.2,2.9,4.9"/>
	<path class="st0" d="M1715.4,700.1c7.5,13,14.3,26.4,20.5,40.1"/>
	<path class="st0" d="M1747,767c0.5,1.3,0.9,2.5,1.4,3.8"/>
	<path class="st0" d="M1750.9,777.6c0.4,1.3,0.9,2.5,1.3,3.8"/>
	<path class="st0" d="M1769.3,930.9c0,1.1,0,2.1,0,3.2"/>
	<path class="st0" d="M1768.4,960.2c-1,15-2.7,30-5.2,44.8"/>
	<path class="st0" d="M1426.8,1370.1c-3.8,1-7.7,1.9-11.6,2.8"/>
	<path class="st0" d="M1412.1,1373.6c-5.2,1.1-10.3,2.2-15.5,3.1"/>
	<path class="st0" d="M1385.7,1378.6c-221.5,34.7-435.1-97.5-502.9-311.2"/>
	<path class="st0" d="M922.8,702.5c12.7-21.9,27.3-42.8,43.5-62.3"/>
	<path class="st0" d="M1013.5,591.2c1.4-1.2,2.8-2.4,4.2-3.7"/>
	<path class="st0" d="M1650.6,624.1c43.4,47.6,76.2,103.8,96.3,165.1"/>
	<path class="st0" d="M1763.9,859.9c3.6,23,5.4,46.2,5.5,69.4"/>
	<path class="st0" d="M1760,971.4c-0.8,8.8-1.9,17.6-3.2,26.3"/>
	<path class="st0" d="M1363.7,1374c-1.3,0.1-2.6,0.3-3.9,0.4"/>
	<path class="st0" d="M1225.7,1367.5c-13.7-2.8-27.3-6.3-40.8-10.4"/>
	<path class="st0" d="M1136.7,1339.2c-10.5-4.6-20.8-9.6-30.9-14.9"/>
	<path class="st0" d="M945.3,680.5c6.8-10.1,14.1-20,21.7-29.5"/>
	<path class="st0" d="M1693.2,692.2c12,19.1,22.6,39.2,31.6,59.9"/>
	<path class="st0" d="M1754.5,930.1c0,5.1-0.1,10.2-0.3,15.3"/>
	<path class="st0" d="M1753.9,953.1c-0.1,2.3-0.3,4.6-0.4,6.9"/>
	<path class="st0" d="M1753.2,963.8c-1,12.5-2.5,24.9-4.5,37.3"/>
	<path class="st0" d="M1445.3,1349.5c-230.2,71.3-474.8-56.3-548.1-285.9"/>
	<path class="st0" d="M939.9,702.7c13.5-22.3,29-43.4,46.2-62.9"/>
	<path class="st0" d="M1661.9,660.4c25.3,32.5,45.9,68.4,61.2,106.6"/>
	<path class="st0" d="M1746.1,844.8c5.5,27.8,8.3,56.1,8.4,84.5"/>
	<path class="st0" d="M1744.7,975.2c-0.4,4-0.9,8-1.4,11.9"/>
	<path class="st0" d="M1378.5,1357.1c-5,0.7-9.9,1.4-14.9,1.9"/>
	<path class="st0" d="M1222,1351.5c-1.5-0.3-2.9-0.7-4.4-1"/>
	<path class="st0" d="M1207.4,1347.9c-11.4-3-22.7-6.4-33.9-10.3"/>
	<path class="st0" d="M1139.9,1324.4c-10.3-4.6-20.5-9.6-30.4-15"/>
	<path class="st0" d="M1052.1,1272c-4.2-3.2-8.3-6.5-12.3-9.9"/>
	<path class="st0" d="M963.2,680.7c9.1-12.9,19-25.3,29.5-37.1"/>
	<path class="st0" d="M995.7,640.2c0.2-0.2,0.3-0.4,0.5-0.6"/>
	<path class="st0" d="M1669,682.6c12.1,17.3,22.9,35.4,32.4,54.3"/>
	<path class="st0" d="M1739.6,930.1c0,10.1-0.4,20.2-1.1,30.3"/>
	<path class="st0" d="M1738.2,964.1c-0.9,11.1-2.2,22.1-4,33.1"/>
	<path class="st0" d="M1445.1,1333.9C1223.7,1405,986.4,1284.6,913,1064"/>
	<path class="st0" d="M910.1,805.4c0.2-0.7,0.4-1.4,0.7-2.1"/>
	<path class="st0" d="M957.3,702.9c15.2-24,32.8-46.4,52.5-66.8"/>
	<path class="st0" d="M1010.9,635c2.1-2.1,4.1-4.2,6.2-6.3"/>
	<path class="st0" d="M1020.8,625c1.6-1.5,3.2-3.1,4.8-4.6"/>
	<path class="st0" d="M1656,677.2c1.9,2.6,3.8,5.2,5.6,7.8"/>
	<path class="st0" d="M1664.2,688.7c18.6,26.8,34,55.7,45.9,86"/>
	<path class="st0" d="M1712.7,781.6c0.3,0.9,0.7,1.9,1,2.8"/>
	<path class="st0" d="M1724.7,818.9c9.8,36,14.8,73.1,14.8,110.5"/>
	<path class="st0" d="M1729.3,978.7c-0.3,2.4-0.6,4.8-0.9,7.2"/>
	<path class="st0" d="M1415.5,1334.6c-1.6,0.4-3.3,0.8-4.9,1.2"/>
	<path class="st0" d="M1407.8,1336.5c-2.4,0.5-4.7,1.1-7.1,1.5"/>
	<path class="st0" d="M1393.5,1339.4c-6.2,1.2-12.4,2.2-18.6,3.1"/>
	<path class="st0" d="M1206.9,1332.4c-15-4-29.7-8.9-44.2-14.6"/>
	<path class="st0" d="M1148,1311.7c-10.2-4.5-20.2-9.4-30.1-14.7"/>
	<path class="st0" d="M1072.3,1268.5c-15.4-11-30-23.1-43.7-36.1"/>
	<path class="st0" d="M981.8,680.5c11.8-15.7,24.6-30.6,38.5-44.5"/>
	<path class="st0" d="M1665.3,703.8c6.7,10.4,13,21.1,18.7,32"/>
	<path class="st0" d="M1724.7,930.1c0,22.6-1.9,45.2-5.6,67.5"/>
	<path class="st0" d="M1441.9,1319.3c-215,69.8-445.8-47.8-515.7-262.8c0,0,0,0,0,0"/>
	<path class="st0" d="M906.8,907.3c0.4-7.4,1-14.7,1.8-22.1"/>
	<path class="st0" d="M921.1,820.8c2.4-8.5,5-16.9,7.9-25.2"/>
	<path class="st0" d="M930.2,792.2c0.5-1.3,1-2.7,1.5-4"/>
	<path class="st0" d="M932.4,786.1c1.1-2.9,2.2-5.8,3.4-8.7"/>
	<path class="st0" d="M936,776.8c1.4-3.5,2.9-7,4.4-10.5"/>
	<path class="st0" d="M975,703.1c18.3-27.4,39.7-52.4,64-74.7"/>
	<path class="st0" d="M1040.5,626.9c0.7-0.6,1.4-1.3,2.1-1.9"/>
	<path class="st0" d="M1637.5,677.6c56.3,71.9,87,160.5,87.2,251.8"/>
	<path class="st0" d="M1714.3,979.1c-0.3,2.1-0.5,4.2-0.8,6.3"/>
	<path class="st0" d="M1419.4,1318.2c-13.5,3.6-27.3,6.5-41.1,8.7"/>
	<path class="st0" d="M1214.9,1319.1c-29.7-7.7-58.4-18.7-85.6-32.9"/>
	<path class="st0" d="M1087.3,1260.9c-14.8-10.2-28.9-21.4-42.3-33.5"/>
	<path class="st0" d="M995.8,686.6c13.9-18.2,29.3-35.2,46.1-50.9"/>
	<path class="st0" d="M1047.6,630.6c0.7-0.6,1.4-1.2,2.1-1.9"/>
	<path class="st0" d="M1661.7,726.2c2.5,4.2,4.9,8.5,7.2,12.8"/>
	<path class="st0" d="M1707.3,841.1c0.9,4.1,1.8,8.2,2.6,12.3"/>
	<path class="st0" d="M1711,859.7c0.5,2.5,0.9,5.1,1.3,7.6"/>
	<path class="st0" d="M1709.8,930.1c0,18.8-1.3,37.6-4,56.2"/>
	<path class="st0" d="M1426.8,1308.4c-205.9,60.6-422.4-54.5-487.3-259.1"/>
	<path class="st0" d="M921.7,907.4c0.4-7.6,1.1-15.1,2-22.6"/>
	<path class="st0" d="M934.2,829.4c5.7-21.8,13.3-43,22.7-63.4"/>
	<path class="st0" d="M993.2,702.8c20.5-29.1,44.9-55.3,72.5-77.8"/>
	<path class="st0" d="M1073.7,618.5c0.5-0.4,1.1-0.8,1.6-1.3"/>
	<path class="st0" d="M1630,692.2c51.7,68.3,79.7,151.6,79.8,237.2"/>
	<path class="st0" d="M1700.2,971.2c-0.3,2.5-0.5,4.9-0.9,7.4"/>
	<path class="st0" d="M1415.6,1303.9c-11.1,3-22.3,5.4-33.6,7.4"/>
	<path class="st0" d="M1214.7,1303.7c-53.9-14.5-104-40.6-146.9-76.3"/>
	<path class="st0" d="M1019.9,680.4c16-18.9,33.8-36.3,53.1-51.8"/>
	<path class="st0" d="M1654.8,744.3c1.4,2.6,2.8,5.1,4.1,7.7"/>
	<path class="st0" d="M1678.6,796.5c8.4,22.8,14.6,46.4,18.6,70.4"/>
	<path class="st0" d="M1694.9,930.1c0,2.6,0,5.3-0.1,7.9"/>
	<path class="st0" d="M1694.5,949.3c-0.6,12.4-1.9,24.7-3.7,36.9"/>
	<path class="st0" d="M1420.1,1294.9c-196,56.2-401.4-52.5-465.1-246.3"/>
	<path class="st0" d="M936.1,918.9c0.3-11.3,1.2-22.5,2.5-33.7"/>
	<path class="st0" d="M949.6,829.3c6.3-23,14.8-45.4,25.4-66.8"/>
	<path class="st0" d="M977,758.4c0.6-1.2,1.2-2.4,1.8-3.5"/>
	<path class="st0" d="M1011.6,702.8c22.3-29.8,48.8-56.1,78.7-78.1"/>
	<path class="st0" d="M1103.8,615.1c0.7-0.5,1.5-1,2.2-1.5"/>
	<path class="st0" d="M1616.9,699.6c50.5,66,77.9,146.7,78,229.8"/>
	<path class="st0" d="M1686.3,960c-0.3,3.9-0.7,7.8-1.1,11.6"/>
	<path class="st0" d="M1411.8,1289.5c-9.8,2.6-19.8,4.9-29.8,6.7"/>
	<path class="st0" d="M1226.1,1291.3c-12.8-3.2-25.5-7-37.9-11.5"/>
	<path class="st0" d="M1185.2,1278.6c-31.5-11.8-61.2-27.7-88.4-47.5"/>
	<path class="st0" d="M959.5,822c0.4-1.2,0.8-2.5,1.1-3.7"/>
	<path class="st0" d="M1033,688c19-22.2,40.6-42.1,64.3-59.2"/>
	<path class="st0" d="M1643.9,755.4c18.6,35,31.5,72.8,38.2,112"/>
	<path class="st0" d="M1680.1,930.1c0,13.8-0.8,27.6-2.3,41.3"/>
	<path class="st0" d="M1418.4,1279.9c-187,55-384.2-46.7-447.7-231.1"/>
	<path class="st0" d="M950.9,926.3c0.1-13.8,1.1-27.6,2.8-41.2"/>
	<path class="st0" d="M963.9,833.3c9-32.8,22.6-64.1,40.3-93.1"/>
	<path class="st0" d="M1029.3,704.2c24.4-30.9,53.6-57.6,86.5-79.1"/>
	<path class="st0" d="M1468.4,599.1c6.2,2.8,12.2,5.9,18.2,9.1"/>
	<path class="st0" d="M1490.5,610.3c2.2,1.2,4.5,2.5,6.7,3.7"/>
	<path class="st0" d="M1501.6,616.6c0.7,0.4,1.5,0.9,2.2,1.3"/>
	<path class="st0" d="M1602,704.6c50.4,64.1,77.9,143.3,78.1,224.8"/>
	<path class="st0" d="M1672.6,933.9c-0.1,8.7-0.5,17.4-1.2,26.1"/>
	<path class="st0" d="M1407.9,1275.1c-7.2,1.9-14.5,3.6-21.8,5.1"/>
	<path class="st0" d="M1226,1275.9c-1.2-0.3-2.4-0.6-3.6-1"/>
	<path class="st0" d="M1196.2,1266.8c-14.1-5-27.9-10.9-41.3-17.6"/>
	<path class="st0" d="M1140.1,1241.3c-3.6-2-7.2-4.1-10.8-6.3"/>
	<path class="st0" d="M1103,1217.2c-0.3-0.2-0.7-0.5-1-0.7"/>
	<path class="st0" d="M972.8,829.3c0.7-2.4,1.4-4.8,2.2-7.2"/>
	<path class="st0" d="M1053,687.9c19.5-21.1,41.4-39.8,65.4-55.6"/>
	<path class="st0" d="M1122.5,629.6c0.5-0.3,1-0.7,1.6-1"/>
	<path class="st0" d="M1634.8,770.2c17.2,34.3,28.7,71.1,34.2,109"/>
	<path class="st0" d="M1665.2,930.1c0,10-0.4,19.9-1.3,29.9"/>
	<path class="st0" d="M1581.4,1157.2c-3.3,3.9-6.7,7.7-10.2,11.4"/>
	<path class="st0" d="M1568.3,1171.7c-1.3,1.3-2.5,2.6-3.8,3.9"/>
	<path class="st0" d="M1557.1,1183c-0.1,0.1-0.3,0.3-0.4,0.4"/>
	<path class="st0" d="M1415.4,1265.3c-182.1,54.3-374.3-46.8-432.7-227.6"/>
	<path class="st0" d="M965.7,933.8c-0.1-13.8,0.5-27.7,2-41.4"/>
	<path class="st0" d="M969.5,879c0.2-1.6,0.5-3.2,0.7-4.8"/>
	<path class="st0" d="M979.4,833.1c9.5-32.9,23.8-64.2,42.4-93"/>
	<path class="st0" d="M1024.2,736.6c0.5-0.7,0.9-1.4,1.4-2"/>
	<path class="st0" d="M1040.2,714.3c27.1-34.5,60.4-63.6,98.2-85.9"/>
	<path class="st0" d="M1464.9,613.9c12.7,6,25,12.8,36.9,20.2"/>
	<path class="st0" d="M1526.4,651.2c2.9,2.2,5.8,4.5,8.7,6.8"/>
	<path class="st0" d="M1594.8,719.6c45.6,60.5,70.3,134.1,70.4,209.9"/>
	<path class="st0" d="M1657.7,930.1c0,6.4-0.2,12.7-0.5,19.1"/>
	<path class="st0" d="M1401.7,1261.3c-5.2,1.4-10.4,2.6-15.7,3.7"/>
	<path class="st0" d="M1203.4,1253.6c-1.1-0.4-2.3-0.8-3.4-1.2"/>
	<path class="st0" d="M1185,1246.6c-0.2-0.1-0.4-0.2-0.6-0.2"/>
	<path class="st0" d="M1073.8,687.7c19.9-19.8,42.2-37.2,66.3-51.6"/>
	<path class="st0" d="M1622,777.9c23.4,47.1,35.6,99,35.7,151.6"/>
	<path class="st0" d="M1650.3,930.1c0,7.6-0.3,15.2-0.8,22.8"/>
	<path class="st0" d="M1575.7,1140.8c-14.8,18.3-31.6,35.1-50,49.9"/>
	<path class="st0" d="M1415.6,1249.6c-173.6,54.4-359-39.8-417.3-212.2"/>
	<path class="st0" d="M980.6,933.6c-0.2-17.5,1-35.1,3.6-52.4"/>
	<path class="st0" d="M984.4,880c0.3-1.9,0.6-3.8,0.9-5.8"/>
	<path class="st0" d="M992.8,840.6c24.3-87.5,83.1-161.4,162.9-204.8"/>
	<path class="st0" d="M1162.9,632c2.3-1.2,4.5-2.3,6.8-3.4"/>
	<path class="st0" d="M1195.5,617.5c0.4-0.1,0.7-0.3,1.1-0.4"/>
	<path class="st0" d="M1457,626.6c25.3,11.8,49,26.7,70.6,44.4"/>
	<path class="st0" d="M1580.7,725.8c45,58.4,69.4,130,69.5,203.7"/>
	<path class="st0" d="M1642.9,930.1c0,5.1-0.1,10.3-0.4,15.4"/>
	<path class="st0" d="M1300,1257.2c-2.5-0.1-4.9-0.3-7.4-0.4"/>
	<path class="st0" d="M1000.6,840.4c0.7-2.4,1.4-4.8,2.1-7.1"/>
	<path class="st0" d="M1085.2,697.4c25-24.7,53.7-45.2,85.2-60.8"/>
	<path class="st0" d="M1475.7,644.6c3.8,2.1,7.6,4.4,11.3,6.7"/>
	<path class="st0" d="M1607.2,781.5c23.4,45.9,35.6,96.6,35.7,148.1"/>
	<path class="st0" d="M1635.4,930.1c0,6.3-0.2,12.7-0.6,19"/>
	<path class="st0" d="M1561.3,1134.9c-19,22.8-41,42.8-65.5,59.5"/>
	<path class="st0" d="M1415.4,1234.1c-164.8,54.2-342.7-32.8-401.2-196.1"/>
	<path class="st0" d="M995.5,933.5c-0.2-22.5,1.9-45,6.4-67.1"/>
	<path class="st0" d="M1004.3,855.4c23.2-96.7,90.1-177.1,181-217.6"/>
	<path class="st0" d="M1223,623.8c1.1-0.3,2.1-0.6,3.2-1"/>
	<path class="st0" d="M1464.7,647.1c19.8,10.4,38.4,22.9,55.6,37.2"/>
	<path class="st0" d="M1525.4,688.6c0.8,0.7,1.7,1.5,2.5,2.2"/>
	<path class="st0" d="M1564.8,729.6c45.6,56.7,70.5,127.2,70.6,199.9"/>
	<path class="st0" d="M1628,930.1c0,2.5,0,5.1-0.1,7.6"/>
	<path class="st0" d="M1293.1,1241.8c-6.3-0.5-12.7-1.1-19-1.9"/>
	<path class="st0" d="M1013.9,848.2c0.7-2.6,1.5-5.3,2.2-7.9"/>
	<path class="st0" d="M1100.7,703c26-24.5,55.9-44.5,88.6-58.9"/>
	<path class="st0" d="M1479.2,663.9c3.9,2.4,7.7,4.9,11.5,7.4"/>
	<path class="st0" d="M1594.4,789.2c22,43.5,33.5,91.6,33.6,140.4"/>
	<path class="st0" d="M1620.5,930.1c0,5-0.1,9.9-0.4,14.9"/>
	<path class="st0" d="M1548.1,1127.4c-22.7,26.7-49.8,49.4-80.1,66.9"/>
	<path class="st0" d="M1463.8,1196.7c-5.6,3.1-11.3,6-17,8.8"/>
	<path class="st0" d="M1441.5,1207.9c-82.1,37.3-176.5,36.3-257.8-2.7"/>
	<path class="st0" d="M1177.4,1202.2c-71.7-36.4-126.1-99.5-151.4-175.8"/>
	<path class="st0" d="M1010.4,933.3c-0.2-19.9,1.5-39.8,5.2-59.3"/>
	<path class="st0" d="M1017.8,863c22.5-100,93.8-182.1,189.8-218.3"/>
	<path class="st0" d="M1211.6,643.3c1.2-0.4,2.3-0.8,3.5-1.2"/>
	<path class="st0" d="M1233.9,636.1c2.4-0.7,4.8-1.3,7.2-1.9"/>
	<path class="st0" d="M1468,665.9c21.7,12.5,41.8,27.7,59.8,45.1"/>
	<path class="st0" d="M1554.5,740.6c42.6,53.8,65.9,120.4,66,189"/>
	<path class="st0" d="M1613.1,930.1c0,1.4,0,2.8,0,4.2"/>
	<path class="st0" d="M1460.2,1190.2c-0.3,0.2-0.6,0.3-0.9,0.5"/>
	<path class="st0" d="M1385.9,1219.3c-1.5,0.4-3,0.7-4.6,1.1"/>
	<path class="st0" d="M1300.4,1227.4c-12.5-0.6-24.9-2-37.1-4.2"/>
	<path class="st0" d="M1026.4,859.1c1.2-5,2.6-10.1,4.1-15"/>
	<path class="st0" d="M1118.6,706.9c26.3-23.2,56.5-41.5,89.2-54.2"/>
	<path class="st0" d="M1487,686.9c5,3.5,9.8,7.1,14.5,10.9"/>
	<path class="st0" d="M1508.4,703.5c0.3,0.2,0.5,0.4,0.8,0.7"/>
	<path class="st0" d="M1579.5,792.7c22,42.3,33.5,89.2,33.6,136.9"/>
	<path class="st0" d="M1605.6,930.1c0,5.1-0.1,10.1-0.4,15.2"/>
	<path class="st0" d="M1557.4,1090.3c-0.8,1.3-1.7,2.5-2.5,3.8"/>
	<path class="st0" d="M1534.8,1120.1c-80.1,92.5-209.7,124.8-323.8,80.7"/>
	<path class="st0" d="M1195.1,1194.2c-2.2-1-4.3-2-6.4-3"/>
	<path class="st0" d="M1187.3,1190.5c-73-35.9-127.6-100.8-150.4-178.9"/>
	<path class="st0" d="M1025.3,933.7c-0.2-19.9,1.6-39.8,5.4-59.4"/>
	<path class="st0" d="M1031.5,870.3c21.5-101.8,95.8-184.3,194.8-216.3"/>
	<path class="st0" d="M1241.3,649.6c2.5-0.6,4.9-1.3,7.4-1.8"/>
	<path class="st0" d="M1475.6,688.1c19,12.6,36.5,27.4,52.1,44.1"/>
	<path class="st0" d="M1531.8,736.7c1.1,1.3,2.2,2.5,3.3,3.8"/>
	<path class="st0" d="M1549.9,759.1c36.1,49.5,55.6,109.2,55.7,170.5"/>
	<path class="st0" d="M1598.2,930.1c0,1.3,0,2.6,0,3.9"/>
	<path class="st0" d="M1445.6,1181.1c-21.2,11-43.7,19.3-67,24.6"/>
	<path class="st0" d="M1304.1,1212.6c-16.3-0.7-32.5-2.7-48.4-6.2"/>
	<path class="st0" d="M1236.6,1201.6c-3.6-1.1-7.2-2.2-10.8-3.4"/>
	<path class="st0" d="M1039.1,870.4c1.6-7.6,3.6-15,5.8-22.4"/>
	<path class="st0" d="M1128.5,718c0.4-0.3,0.7-0.7,1.1-1"/>
	<path class="st0" d="M1140.6,707.9c25.7-20.2,54.6-35.8,85.6-46.1"/>
	<path class="st0" d="M1490.7,708.2c1,0.8,2.1,1.6,3.1,2.5"/>
	<path class="st0" d="M1494.2,711c12,9.8,23.2,20.5,33.4,32.1"/>
	<path class="st0" d="M1528.5,744.2c2.3,2.6,4.5,5.3,6.7,7.9"/>
	<path class="st0" d="M1556,781.5c0.4,0.7,0.9,1.4,1.3,2.1"/>
	<path class="st0" d="M1560.3,788.7c24.7,42.8,37.8,91.4,37.9,140.9"/>
	<path class="st0" d="M1590.8,930.1c0,11.2-0.7,22.4-2.1,33.6"/>
	<path class="st0" d="M1587,975.6c-0.2,1.1-0.4,2.2-0.6,3.3"/>
	<path class="st0" d="M1559.9,1056.8c-1.3,2.6-2.7,5.1-4.1,7.6"/>
	<path class="st0" d="M1544.5,1082.9c-5.2,7.7-10.7,15.2-16.6,22.4"/>
	<path class="st0" d="M1527.3,1106c-97.1,117-270.7,133.1-387.7,36c-41.1-34.1-71.4-79.4-87.1-130.4"/>
	<path class="st0" d="M1040.2,937.3c-3.4-129,83.4-243.1,208.6-274.3"/>
	<path class="st0" d="M1285.7,656.4c2.5-0.3,5.1-0.5,7.7-0.7"/>
	<path class="st0" d="M1483.1,711.7c1.1,0.9,2.3,1.8,3.4,2.7"/>
	<path class="st0" d="M1486.8,714.6c65.5,52.1,103.8,131.2,103.9,215"/>
	<path class="st0" d="M1583.3,930.1c0,2.5,0,5-0.1,7.5"/>
	<path class="st0" d="M1460.2,1155.5c-0.9,0.6-1.8,1.2-2.8,1.8"/>
	<path class="st0" d="M1456.6,1157.8c-27.4,17-57.5,28.9-89.1,35.1"/>
	<path class="st0" d="M1308,1197.9c-7.5-0.2-14.9-0.7-22.4-1.6"/>
	<path class="st0" d="M1233.6,1185.2c-2.5-0.8-5-1.7-7.5-2.5"/>
	<path class="st0" d="M1051.3,885.4c1.7-10.1,4-20.2,6.9-30.1"/>
	<path class="st0" d="M1140.8,727c13.8-11.9,28.9-22.4,44.8-31.2"/>
	<path class="st0" d="M1189.3,693.8c18.9-10.1,38.8-17.8,59.6-23.2"/>
	<path class="st0" d="M1509.1,745c47.5,49.7,74.1,115.8,74.2,184.6"/>
	<path class="st0" d="M1575.9,930.1c0,38.6-8.6,76.8-25.2,111.7"/>
	<path class="st0" d="M1549.7,1043.9c-3.4,7-7.1,13.8-11,20.4"/>
	<path class="st0" d="M1529,1079.1c-51.8,74.2-138.3,116.2-228.6,111"/>
	<path class="st0" d="M1292.8,1189.6c-99.4-8.7-185-73.4-220.6-166.5"/>
	<path class="st0" d="M1069.8,1016.6c-0.2-0.4-0.3-0.9-0.4-1.3"/>
	<path class="st0" d="M1055.4,944.7c-7.2-129.1,81.4-244,208.1-269.8"/>
	<path class="st0" d="M1274.7,672.9c4.9-0.8,9.9-1.4,14.9-1.9"/>
	<path class="st0" d="M1308.2,669.8c5-0.1,10-0.1,15,0"/>
	<path class="st0" d="M1494.1,740.6c1.3,1.2,2.6,2.5,3.9,3.8"/>
	<path class="st0" d="M1501.5,747.9c2.4,2.5,4.8,5,7.2,7.6"/>
	<path class="st0" d="M1509,755.8c43,47.7,66.8,109.6,66.9,173.8"/>
	<path class="st0" d="M1568.4,930.1c0,2.5,0,5-0.1,7.5"/>
	<path class="st0" d="M1494,1109.3c-35.6,35.5-81,59.5-130.3,69.1"/>
	<path class="st0" d="M1315,1183.1c-1.2,0-2.4,0-3.5,0"/>
	<path class="st0" d="M1255.5,1175.9c-5-1.2-10-2.6-14.9-4.1"/>
	<path class="st0" d="M1233.5,1169.5c-1.3-0.4-2.5-0.9-3.7-1.3"/>
	<path class="st0" d="M1219.9,1164.4c-1.6-0.7-3.3-1.4-4.9-2.1"/>
	<path class="st0" d="M1177.3,1142.1c-1.1-0.7-2.2-1.5-3.3-2.2"/>
	<path class="st0" d="M1166.4,1134.5c-1.2-0.9-2.4-1.7-3.5-2.6"/>
	<path class="st0" d="M1156.9,1127.3c-0.6-0.5-1.1-0.9-1.7-1.4"/>
	<path class="st0" d="M1062.5,933.7c0-2.5,0-5,0-7.5"/>
	<path class="st0" d="M1065.2,892.7c1.7-11.4,4.2-22.6,7.4-33.6"/>
	<path class="st0" d="M1161.8,729.1c32.4-24.8,70.4-41.4,110.6-48.3"/>
	<path class="st0" d="M1520.1,781.4c1.8,2.5,3.6,5,5.3,7.6"/>
	<path class="st0" d="M1527.6,792.3c26.6,40.9,40.7,88.6,40.8,137.3"/>
	<path class="st0" d="M1561,930.1c0,135.6-109.9,245.6-245.6,245.5c-2.6,0-5.1,0-7.7-0.1"/>
	<path class="st0" d="M1300.5,1175.2c-98.5-6-183.8-70.4-216.6-163.5"/>
	<path class="st0" d="M1070.6,948.5c-9.8-130.9,85-246.4,215.4-262.2"/>
	<path class="st0" d="M1293.2,685.6c5-0.5,10-0.8,15-0.9"/>
	<path class="st0" d="M1379,692.9c1.2,0.3,2.5,0.7,3.7,1"/>
	<path class="st0" d="M1516.6,789.3c3.3,4.7,6.4,9.5,9.3,14.4"/>
	<path class="st0" d="M1527.7,806.6c21.8,37.4,33.3,79.8,33.3,123.1"/>
	<path class="st0" d="M1553.6,930.1c0,5-0.2,10-0.5,15"/>
	<path class="st0" d="M1482.6,1099.7c-8.1,8-16.7,15.4-25.9,22.1"/>
	<path class="st0" d="M1448.6,1127.5c-2.3,1.5-4.6,3.1-7,4.5"/>
	<path class="st0" d="M1426.9,1140.6c-26.6,14.1-55.7,23-85.7,26.3"/>
	<path class="st0" d="M1225.9,1150.7c-6.3-2.6-12.5-5.4-18.5-8.5"/>
	<path class="st0" d="M1207,1142.1c-25-12.8-47.5-29.9-66.5-50.5"/>
	<path class="st0" d="M1079.2,900.3c1.1-8.8,2.7-17.5,4.8-26.1"/>
	<path class="st0" d="M1174.2,738.5c32.8-24.2,71.4-39.6,111.9-44.6"/>
	<path class="st0" d="M1535.1,838.2c0.9,2.2,1.8,4.4,2.6,6.6"/>
	<path class="st0" d="M1542.4,858.1c7.3,23.2,11.1,47.3,11.1,71.6"/>
	<path class="st0" d="M1546.1,930.1c0,127.4-103.3,230.7-230.7,230.7c-1.3,0-2.7,0-4,0"/>
	<path class="st0" d="M1281.8,1158.3c-87-12.8-159.1-74-185.9-157.7"/>
	<path class="st0" d="M1085.8,952.2c-12.2-126.8,80.7-239.5,207.5-251.7c7.3-0.7,14.7-1.1,22.1-1.1"/>
	<path class="st0" d="M1341.6,700.9c2.5,0.3,5.1,0.6,7.6,1"/>
	<path class="st0" d="M1416.2,722.6c1.2,0.6,2.4,1.2,3.6,1.8"/>
	<path class="st0" d="M1523.1,829.7c15.1,31.2,22.9,65.4,23,100"/>
	<path class="st0" d="M1538.7,930.1c0,7.5-0.4,15.1-1.1,22.6"/>
	<path class="st0" d="M1481.6,1079.2c-0.9,1-1.7,1.9-2.6,2.9"/>
	<path class="st0" d="M1478.2,1082.9c-1,1-2,2.1-3,3.1"/>
	<path class="st0" d="M1432.7,1120c-18,11.1-37.6,19.7-58,25.3"/>
	<path class="st0" d="M1372.5,1145.9c-1.8,0.5-3.5,0.9-5.3,1.3"/>
	<path class="st0" d="M1348.8,1150.8c-5,0.8-10,1.3-15.1,1.8"/>
	<path class="st0" d="M1222.2,1132.9c-3.8-1.7-7.5-3.6-11.2-5.5"/>
	<path class="st0" d="M1210.7,1127.2c-10.2-5.4-20-11.6-29.2-18.6"/>
	<path class="st0" d="M1162.6,1092.8c-8-7.5-15.4-15.5-22.1-24.1"/>
	<path class="st0" d="M1092.3,937.5c0-1.3-0.1-2.6-0.1-3.9"/>
	<path class="st0" d="M1093,911.4c0.6-7.4,1.6-14.7,3-22"/>
	<path class="st0" d="M1189,746.1c7.2-4.9,14.6-9.4,22.3-13.5"/>
	<path class="st0" d="M1218.3,729.1c2.7-1.3,5.4-2.5,8.1-3.7"/>
	<path class="st0" d="M1246.1,717.9c17.7-5.8,36-9.3,54.6-10.6"/>
	<path class="st0" d="M1538.4,919.2c0.2,3.5,0.3,7,0.3,10.5"/>
	<path class="st0" d="M1531.2,930.1c0,119.2-96.6,215.8-215.8,215.8c-0.1,0-0.3,0-0.4,0"/>
	<path class="st0" d="M1285.4,1143.8c-81-11.4-148.6-67.6-174.6-145.2"/>
	<path class="st0" d="M1110.2,996.8c-1.2-3.6-2.2-7.2-3.2-10.8"/>
	<path class="st0" d="M1101.7,959.8c-16.4-118,66-227,184.1-243.4c13.6-1.9,27.3-2.5,41-1.8"/>
	<path class="st0" d="M1349.2,717c2.1,0.3,4.2,0.7,6.3,1.1"/>
	<path class="st0" d="M1404.9,733.8c2.1,0.9,4.1,1.9,6.1,2.9"/>
	<path class="st0" d="M1509.1,834.8c1.3,2.6,2.5,5.2,3.7,7.8"/>
	<path class="st0" d="M1520.1,861.6c0.6,1.8,1.2,3.6,1.7,5.4"/>
	<path class="st0" d="M1522.9,870.6c5.5,19.2,8.3,39.1,8.4,59.1"/>
	<path class="st0" d="M1522.9,949c-3.1,33.7-14.3,66.2-32.8,94.6"/>
	<path class="st0" d="M1419.3,1110.7c-17.4,10-36.1,17.4-55.6,22.1"/>
	<path class="st0" d="M1341.2,1136.9c-4.9,0.6-9.9,1.1-14.8,1.3"/>
	<path class="st0" d="M1240.8,1124.6c-15.8-6-30.7-14-44.5-23.6"/>
	<path class="st0" d="M1162.8,1071.9c-1.3-1.4-2.6-2.9-3.9-4.3"/>
	<path class="st0" d="M1155.9,1064c-5.5-6.6-10.7-13.5-15.3-20.8"/>
	<path class="st0" d="M1107.2,937.4c0-1.2-0.1-2.4-0.1-3.6"/>
	<path class="st0" d="M1107.4,918.8c0.5-8.7,1.5-17.4,3.1-26"/>
	<path class="st0" d="M1202.3,755.2c6.3-4.1,12.8-7.8,19.6-11.2"/>
	<path class="st0" d="M1260.5,729.2c2.2-0.6,4.5-1.2,6.7-1.7"/>
	<path class="st0" d="M1278.6,725.1c11-2,22.1-3.1,33.3-3.3"/>
	<path class="st0" d="M1516.4,930.1c0,108.1-85.5,196.8-193.5,200.8"/>
	<path class="st0" d="M1300.4,1130.5c-38.7-2.9-75.8-17-106.7-40.5"/>
	<path class="st0" d="M1170.2,1068.9c-19.9-20.9-35.2-45.8-44.6-73.1"/>
	<path class="st0" d="M1117.3,963.3c-18.3-109.4,55.6-213,165-231.3c19.6-3.3,39.6-3.6,59.4-1"/>
	<path class="st0" d="M1364.1,735.2c1.3,0.3,2.5,0.6,3.7,1"/>
	<path class="st0" d="M1378.9,739.5c1.2,0.4,2.4,0.8,3.6,1.3"/>
	<path class="st0" d="M1390.1,743.6c3.8,1.5,7.6,3.2,11.3,4.9"/>
	<path class="st0" d="M1495.6,841.1c0.6,1.2,1.1,2.3,1.7,3.5"/>
	<path class="st0" d="M1499,848.4c0.9,2,1.8,4.1,2.6,6.1"/>
	<path class="st0" d="M1502.1,855.8c0.5,1.2,0.9,2.4,1.4,3.6"/>
	<path class="st0" d="M1510.5,881.9c3.9,15.7,5.9,31.8,5.9,47.9"/>
	<path class="st0" d="M1503.7,975c-0.7,2.8-1.4,5.7-2.2,8.5"/>
	<path class="st0" d="M1427,1088.2c-0.9,0.6-1.8,1.3-2.8,1.9"/>
	<path class="st0" d="M1415.7,1095.6c-20.6,12.5-43.3,21-67,25.1"/>
	<path class="st0" d="M1162.8,1049c-2.8-3.6-5.5-7.4-8.1-11.2"/>
	<path class="st0" d="M1122.6,945c-0.3-3.7-0.5-7.4-0.5-11.1"/>
	<path class="st0" d="M1122,926.1c0.2-11.1,1.4-22.3,3.6-33.2"/>
	<path class="st0" d="M1285.9,738.9c18.5-2.9,37.3-3,55.9-0.5"/>
	<path class="st0" d="M1501.5,930.1c0,1.3,0,2.6,0,3.9"/>
	<path class="st0" d="M1501.3,937.6c-0.6,15.2-3.1,30.2-7.3,44.7"/>
	<path class="st0" d="M1492.9,986.1c-0.8,2.6-1.7,5.1-2.6,7.7"/>
	<path class="st0" d="M1479.1,1018.6c-0.9,1.6-1.8,3.2-2.7,4.8"/>
	<path class="st0" d="M1474.2,1027c-2,3.3-4.2,6.6-6.4,9.8"/>
	<path class="st0" d="M1466.9,1038.1c-0.9,1.2-1.8,2.5-2.7,3.7"/>
	<path class="st0" d="M1458.4,1049.2c-32.9,39.5-80.6,63.6-131.9,66.6"/>
	<path class="st0" d="M1308,1116c-30.9-1.2-60.9-10.1-87.5-25.9"/>
	<path class="st0" d="M1174,1050.9c-66.7-78.1-57.5-195.5,20.6-262.3c44.7-38.2,104.7-53,162-39.9"/>
	<path class="st0" d="M1379.1,755.3c1.1,0.4,2.2,0.8,3.4,1.3"/>
	<path class="st0" d="M1493,874.5c0.8,2.5,1.5,5,2.2,7.5"/>
	<path class="st0" d="M1499.1,900.4c0.4,2.6,0.8,5.1,1.1,7.7"/>
	<path class="st0" d="M1501.1,919.1c0.2,3.6,0.3,7.1,0.3,10.7"/>
	<path class="st0" d="M1426.9,1069.7c-12.4,9.9-26.2,18.2-40.8,24.5"/>
	<path class="st0" d="M1374.8,1098.6c-15.6,5.5-31.9,8.8-48.4,9.8"/>
	<path class="st0" d="M1173,1037.8c-3.6-4.8-7-9.8-10.2-14.9"/>
	<path class="st0" d="M1137.8,948.5c-1.8-17.4-1-35,2.3-52.1"/>
	<path class="st0" d="M1286,754c18.4-3.1,37.1-3.3,55.6-0.5"/>
	<path class="st0" d="M1352,755.3c2.7,0.6,5.5,1.2,8.2,1.9"/>
	<path class="st0" d="M1486.6,930.1c0,0.1,0,0.2,0,0.3"/>
	<path class="st0" d="M1486.6,934c-0.1,3.7-0.3,7.4-0.6,11"/>
	<path class="st0" d="M1483.9,960.1c-0.9,5-2,10-3.3,14.9"/>
	<path class="st0" d="M1471.3,1000.8c-0.6,1.3-1.2,2.5-1.8,3.8"/>
	<path class="st0" d="M1465.7,1012c-0.7,1.3-1.4,2.6-2.2,3.9"/>
	<path class="st0" d="M1456.5,1027.1c-0.8,1.2-1.7,2.4-2.6,3.7"/>
	<path class="st0" d="M1449.4,1036.7c-1.2,1.6-2.5,3.1-3.8,4.6"/>
	<path class="st0" d="M1445,1041.9c-30,34.8-72.7,56-118.5,59"/>
	<path class="st0" d="M1315.2,1101.3c-1.2,0-2.4,0-3.6,0"/>
	<path class="st0" d="M1308,1101.1c-18.3-0.8-36.4-4.5-53.6-11.1"/>
	<path class="st0" d="M1182.4,1037.8c-59.5-73.5-48.2-181.2,25.3-240.7c47-38.1,110.7-48.5,167.4-27.4"/>
	<path class="st0" d="M1376.5,770.2c0.7,0.3,1.5,0.6,2.2,0.9"/>
	<path class="st0" d="M1393.2,777.6c2.3,1.2,4.6,2.4,6.8,3.7"/>
	<path class="st0" d="M1464.4,845.8c0.5,0.9,1,1.7,1.5,2.6"/>
	<path class="st0" d="M1485.2,908.1c0.2,1.2,0.3,2.4,0.4,3.6"/>
	<path class="st0" d="M1486.4,923c0.1,1.2,0.1,2.4,0.1,3.6"/>
	<path class="st0" d="M1426.9,1050c-10.1,9.3-21.3,17.4-33.3,23.9"/>
	<path class="st0" d="M1350,1090.1c-7.7,1.7-15.6,2.8-23.5,3.3"/>
	<path class="st0" d="M1181.4,1024c-0.2-0.3-0.4-0.6-0.7-0.9"/>
	<path class="st0" d="M1153.3,952.3c-2.6-18.6-1.9-37.6,2-56"/>
	<path class="st0" d="M1304.3,766.8c3.8-0.3,7.6-0.4,11.4-0.4"/>
	<path class="st0" d="M1323.2,766.6c13.8,0.7,27.5,3,40.7,7.1"/>
	<path class="st0" d="M1471,945.1c-0.2,2.5-0.5,5.1-0.9,7.6"/>
	<path class="st0" d="M1466.2,971.1c-0.4,1.3-0.7,2.6-1.1,3.9"/>
	<path class="st0" d="M1464.2,977.9c-0.1,0.3-0.2,0.5-0.3,0.8"/>
	<path class="st0" d="M1456.6,997.1c-1.2,2.5-2.5,5.1-3.8,7.5"/>
	<path class="st0" d="M1449.3,1010.8c-0.2,0.4-0.5,0.8-0.7,1.2"/>
	<path class="st0" d="M1446.1,1015.9c-26.8,40.8-71,66.7-119.7,70.1"/>
	<path class="st0" d="M1195.8,1030.6c-55.5-66.1-46.9-164.7,19.3-220.1c49.2-41.3,118.6-48.3,175-17.6"/>
	<path class="st0" d="M1428.6,822.4c2.1,2.2,4.1,4.4,6,6.7"/>
	<path class="st0" d="M1442,838.5c0.6,0.8,1.2,1.6,1.7,2.4"/>
	<path class="st0" d="M1458.4,867.1c0.8,1.7,1.5,3.5,2.2,5.3"/>
	<path class="st0" d="M1465.2,885.5c1.1,3.6,2,7.2,2.8,10.8"/>
	<path class="st0" d="M1470.6,911.6c0.4,3.7,0.8,7.4,0.9,11.1"/>
	<path class="st0" d="M1426.9,1028.7c-9.7,11-21,20.5-33.5,28.1"/>
	<path class="st0" d="M1341.3,1076.7c-4.9,0.9-9.8,1.5-14.7,1.8"/>
	<path class="st0" d="M1168.3,952.4c-3.4-22.4-1.6-45.4,5.2-67"/>
	<path class="st0" d="M1334.1,782.5c15.5,2,30.6,6.3,44.7,13"/>
	<path class="st0" d="M1380.5,796.2c0.7,0.3,1.4,0.7,2.1,1"/>
	<path class="st0" d="M1456,945.1c-0.3,2.5-0.6,4.9-1,7.3"/>
	<path class="st0" d="M1453.6,960c-0.8,3.8-1.8,7.5-2.9,11.2"/>
	<path class="st0" d="M1449.5,975c-18.4,55.1-68.7,93.3-126.7,96.3"/>
	<path class="st0" d="M1207.5,1021.4c-7.3-8.6-13.5-18.1-18.5-28.2"/>
	<path class="st0" d="M1185.5,985.8c-30.8-71.8,2.5-154.9,74.3-185.6c48.4-20.7,104.3-12.9,145,20.4"/>
	<path class="st0" d="M1415.1,829.8c1.2,1.2,2.4,2.5,3.6,3.7"/>
	<path class="st0" d="M1428.1,844.6c0.9,1.2,1.9,2.5,2.8,3.8"/>
	<path class="st0" d="M1451.9,893c0.3,1.3,0.7,2.5,1,3.8"/>
	<path class="st0" d="M1456.4,919c0.1,1.2,0.2,2.5,0.2,3.7"/>
	<path class="st0" d="M1427,1004.2c-11.4,17.2-26.7,31.5-44.6,41.9"/>
	<path class="st0" d="M1183.4,952.2c-3.7-22.2-1.8-44.9,5.6-66.2"/>
	<path class="st0" d="M1341.7,798.8c18.7,3.7,36.4,11.4,51.9,22.6"/>
	<path class="st0" d="M1441.9,930.3c0,4.9-0.3,9.9-0.9,14.8"/>
	<path class="st0" d="M1440.6,948.8c-9.3,62-62.5,107.8-125.1,107.8"/>
	<path class="st0" d="M1215,1007c-0.6-0.8-1.2-1.6-1.8-2.5"/>
	<path class="st0" d="M1211.2,1001.8c-0.2-0.4-0.5-0.7-0.7-1.1"/>
	<path class="st0" d="M1200.1,982c-28.6-63.7-0.2-138.6,63.5-167.2c55.8-25.1,121.5-6.7,156.1,43.7"/>
	<path class="st0" d="M1420.4,859.6c1.6,2.4,3.2,4.9,4.7,7.5"/>
	<path class="st0" d="M1437.5,896.7c1,3.7,1.9,7.4,2.5,11.2"/>
	<path class="st0" d="M1440.6,911.6c0.4,2.5,0.7,5,0.9,7.5"/>
	<path class="st0" d="M1441.9,926.6c0,1.1,0,2.2,0,3.3"/>
	<path class="st0" d="M1424.2,978.5c-12,26.9-33.6,48.5-60.5,60.4"/>
	<path class="st0" d="M1348.9,1044.4c-10.9,3.2-22.2,4.8-33.6,4.8"/>
	<path class="st0" d="M1197.8,948.5c-3.6-22.7-0.5-45.9,8.9-66.8"/>
	<path class="st0" d="M1207.6,879.6c1.4-3.1,3-6.1,4.7-9"/>
	<path class="st0" d="M1363.9,821.4c15.6,7,29.6,17.2,40.9,30"/>
	<path class="st0" d="M1427.1,930.1c0,61.6-50,111.6-111.6,111.6c-2.5,0-5.1-0.1-7.6-0.3"/>
	<path class="st0" d="M1213.1,974.6c-24.6-56.5,1.3-122.3,57.8-146.9s122.3,1.3,146.9,57.8c6.1,14,9.2,29.1,9.3,44.3"/>
	<path class="st0" d="M1419.6,930.3c0,18.9-5.2,37.4-15,53.6"/>
	<path class="st0" d="M1403.4,985.9c-0.8,1.2-1.6,2.4-2.4,3.6"/>
	<path class="st0" d="M1362.3,1023.2c-8.9,4.5-18.5,7.7-28.4,9.5"/>
	<path class="st0" d="M1322.7,1034c-3.7,0.3-7.4,0.3-11.1,0.2"/>
	<path class="st0" d="M1212.3,945c-0.4-2.5-0.6-5.1-0.8-7.6"/>
	<path class="st0" d="M1211.3,933.8c-0.5-14,1.8-27.9,6.9-41"/>
	<path class="st0" d="M1363.9,837.9c22,11.6,39.2,30.6,48.4,53.7"/>
	<path class="st0" d="M1412.8,893c1.2,3.2,2.3,6.4,3.2,9.7"/>
	<path class="st0" d="M1419.4,922.9c0.2,2.4,0.2,4.7,0.3,7.1"/>
	<path class="st0" d="M1412.2,930.1c0,53.4-43.3,96.7-96.7,96.7c-7.6,0-15.1-0.9-22.4-2.6"/>
	<path class="st0" d="M1231.6,978.3c-26.6-46.3-10.7-105.4,35.6-132.1c46.3-26.6,105.4-10.7,132.1,35.6c8.4,14.6,12.8,31.2,12.9,48"
		/>
	<path class="st0" d="M1404.7,930.1c0,15.1-3.9,30-11.2,43.3"/>
	<path class="st0" d="M1226.5,937.4c-0.4-4.9-0.4-9.9,0-14.8"/>
	<path class="st0" d="M1240.4,881.7c2.4-3.8,5.2-7.4,8.2-10.8"/>
	<path class="st0" d="M1363.8,855.1c25.5,16.4,40.9,44.6,40.9,74.9"/>
	<path class="st0" d="M1397.3,930.1c0,45.2-36.6,81.8-81.9,81.8c-11.6,0-23-2.5-33.6-7.2"/>
	<path class="st0" d="M1281.3,1004.5c-1-0.5-2.1-1-3.1-1.5"/>
	<path class="st0" d="M1274.2,1000.8c-3.8-2.2-7.5-4.8-10.9-7.6"/>
	<path class="st0" d="M1259.6,990c-1.3-1.2-2.5-2.4-3.7-3.7"/>
	<path class="st0" d="M1255.5,985.8c-30.8-33.1-28.9-84.9,4.2-115.7c33.1-30.8,84.9-28.9,115.7,4.2c14,15.1,21.9,35,21.9,55.6"/>
	<path class="st0" d="M1389.9,930.1c0,7.6-1.2,15.1-3.4,22.4"/>
	<path class="st0" d="M1360.1,870.6c9.2,6.9,16.6,15.8,21.8,26.1"/>
	<path class="st0" d="M1382.4,897.7c4.9,10.1,7.4,21.1,7.4,32.3"/>
	<path class="st0" d="M1382.4,930.1c0,37-30,67-67,67c-37,0-67-30-67-67s30-67,67-67c36.9,0,66.9,29.9,67,66.8"/>
	<path class="st0" d="M1367.5,930.1c0,28.8-23.3,52.1-52.1,52.1c-28.8,0-52.1-23.3-52.1-52.1c0-28.8,23.3-52.1,52.1-52.1
		C1344.2,878,1367.5,901.3,1367.5,930.1"/>
	<path class="st0" d="M1352.7,930.1c0,20.5-16.6,37.2-37.2,37.2c-20.5,0-37.2-16.6-37.2-37.2s16.6-37.2,37.2-37.2
		C1335.9,892.9,1352.6,909.5,1352.7,930.1"/>
	<path class="st0" d="M1337.8,930.1c0,12.3-10,22.3-22.3,22.3c-12.3,0-22.3-10-22.3-22.3c0-12.3,10-22.3,22.3-22.3
		C1327.8,907.8,1337.7,917.8,1337.8,930.1"/>
	<path class="st0" d="M1322.9,930.1c0,4.1-3.3,7.4-7.4,7.4c-4.1,0-7.4-3.3-7.4-7.4c0-4.1,3.3-7.4,7.4-7.4
		C1319.6,922.7,1322.9,926,1322.9,930.1"/>
</g>
</svg>
