<?xml version="1.0" standalone="no" ?>
    <!DOCTYPE svg PUBLIC "-//W3C//DTD SVG 1.1//EN" 
        "http://www.w3.org/Graphics/SVG/1.1/DTD/svg11.dtd">
        <svg version="1.1" id="calibration" xmlns="http://www.w3.org/2000/svg" xmlns:xlink="http://www.w3.org/1999/xlink"
        x="0" y="0"
        viewBox="0 0 3507.87591 4960.6326"
        width="29.7cm"
        height="42cm" 
        xml:space="preserve">
          <g>
          <path d="M 236.22060000000002 2480.3163 L 3271.65531 2480.3163 M 1753.937955 236.22060000000002 L 1753.937955 4724.412 M 236.22060000000002 236.22060000000002 L 472.44120000000004 236.22060000000002 M 3035.43471 236.22060000000002 L 3271.65531 236.22060000000002 M 3035.43471 4488.191400000001 L 3271.65531 4488.191400000001 M 236.22060000000002 4488.191400000001 L 472.44120000000004 4488.191400000001 L 472.44120000000004 4724.412 M 472.44120000000004 236.22060000000002 L 472.44120000000004 472.44120000000004 L 236.22060000000002 472.44120000000004 M 236.22060000000002 472.44120000000004 L 236.22060000000002 236.22060000000002 M 3271.65531 472.44120000000004 L 3035.43471 472.44120000000004 L 3035.43471 236.22060000000002 M 236.22060000000002 4724.412 L 236.22060000000002 4488.191400000001 M 3035.43471 4724.412 L 3035.43471 4488.191400000001 M 236.22060000000002 236.22060000000002 L 3271.65531 236.22060000000002 L 3271.65531 4724.412 L 236.22060000000002 4724.412 L 236.22060000000002 236.22060000000002 "  fill="none" stroke="black" stroke-width="1"/>
      </g></svg>