<?xml version="1.0" encoding="UTF-8" standalone="no"?>
<svg
   version="1.1"
   id="calibration"
   x="0"
   y="0"
   viewBox="0 0 3507.87591 4960.6326"
   width="29.7cm"
   height="42cm"
   xml:space="preserve"
   sodipodi:docname="calibration_4_29.7_42_1.9_3_t_f_3.8_6_3.8_6_t_f_f_14.85_21_7.42_90_0_t_f_f_1_1_1_14.85_21_7.42_90_0_t_f_f_1_1_1_1_1_0_0_0_0_0_0_f_0.2_f_flat_f_100_1_0_10_50_-30_23_t_1_normal_f_100_0_0_1_0_10_1_1_1_50_-30_23_t_1_normal_f_100_0_0_1_0_0_0_0_0.svg"
   inkscape:version="1.2.1 (9c6d41e, 2022-07-14)"
   xmlns:inkscape="http://www.inkscape.org/namespaces/inkscape"
   xmlns:sodipodi="http://sodipodi.sourceforge.net/DTD/sodipodi-0.dtd"
   xmlns="http://www.w3.org/2000/svg"
   xmlns:svg="http://www.w3.org/2000/svg"><defs
   id="defs423" /><sodipodi:namedview
   id="namedview421"
   pagecolor="#ffffff"
   bordercolor="#999999"
   borderopacity="1"
   inkscape:showpageshadow="0"
   inkscape:pageopacity="0"
   inkscape:pagecheckerboard="0"
   inkscape:deskcolor="#d1d1d1"
   inkscape:document-units="cm"
   showgrid="false"
   inkscape:zoom="0.64696925"
   inkscape:cx="475.29307"
   inkscape:cy="801.42913"
   inkscape:window-width="1678"
   inkscape:window-height="1205"
   inkscape:window-x="512"
   inkscape:window-y="168"
   inkscape:window-maximized="0"
   inkscape:current-layer="calibration" />
          <g
   id="g418">
          <path
   d="M 224.40957000000006 2480.3163 L 3283.46634 2480.3163 M 1753.937955 354.3309 L 1753.937955 4606.3017 M 224.40957000000006 354.3309 L 696.8507700000001 354.3309 M 2811.0251400000006 354.3309 L 3283.46634 354.3309 M 2811.0251400000006 4133.860500000001 L 3283.46634 4133.860500000001 M 224.40957000000006 4133.860500000001 L 696.8507700000001 4133.860500000001 L 696.8507700000001 4606.3017 M 696.8507700000001 354.3309 L 696.8507700000001 826.7721 L 224.40957000000006 826.7721 M 224.40957000000006 826.7721 L 224.40957000000006 354.3309 M 3283.46634 826.7721 L 2811.0251400000006 826.7721 L 2811.0251400000006 354.3309 M 224.40957000000006 4606.3017 L 224.40957000000006 4133.860500000001 M 2811.0251400000006 4606.3017 L 2811.0251400000006 4133.860500000001 M 224.40957 354.3309 L 3283.46634 354.3309 L 3283.46634 4606.3017 L 224.40957 4606.3017 L 224.40957 354.3309 "
   fill="none"
   stroke="black"
   stroke-width="1"
   id="path416" />
      </g><path
   sodipodi:type="star"
   style="fill:none;stroke:#888888;stroke-width:2.36221;paint-order:markers fill stroke"
   id="path769"
   inkscape:flatsided="false"
   sodipodi:sides="5"
   sodipodi:cx="1753.3688"
   sodipodi:cy="2482.7314"
   sodipodi:r1="1044.9357"
   sodipodi:r2="522.46777"
   sodipodi:arg1="-1.5707963"
   sodipodi:arg2="-0.9424778"
   inkscape:rounded="0"
   inkscape:randomized="0"
   d="m 1753.3688,1437.7958 307.0988,622.2503 686.6941,99.7825 -496.8965,484.3543 117.3013,683.9193 -614.1977,-322.903 -614.1978,322.9029 117.3014,-683.9192 -496.89649,-484.3544 686.69399,-99.7824 z"
   inkscape:transform-center-x="-2.4128662e-06"
   inkscape:transform-center-y="-99.782472"
   transform="translate(0,-168.75007)" /><plotdata
   application="axidraw"
   model="2"
   layer="-2"
   node="0"
   last_path="0"
   node_after_path="0"
   last_known_x="0"
   last_known_y="0"
   paused_x="0"
   paused_y="0"
   randseed="0"
   row="0"
   id="1672416561" /></svg>
