<?xml version="1.0" encoding="utf-8"?>
<!-- Generator: Adobe Illustrator 22.0.0, SVG Export Plug-In . SVG Version: 6.00 Build 0)  -->
<svg version="1.0" xmlns="http://www.w3.org/2000/svg" xmlns:xlink="http://www.w3.org/1999/xlink" x="0px" y="0px" width="70.9px"
	 height="70.9px" viewBox="0 0 70.9 70.9" enable-background="new 0 0 70.9 70.9" xml:space="preserve">
<g id="_x30_0">
	<polygon fill="#4EB748" points="35.4,9.1 5,61.8 65.9,61.8 	"/>
</g>
<g id="_x30_1">
	<path fill="#4BC3C7" d="M63.8,63.9v-57C32.5,6.9,7.1,32.3,7.1,63.6c0,0.1,0,0.2,0,0.3H63.8z"/>
</g>
<g id="_x30_2_1_">
	<path fill="#EF4423" d="M55,64.4H15.8c-5.2,0-9.4-4.2-9.4-9.4V15.8c0-5.2,4.2-9.4,9.4-9.4H55c5.2,0,9.4,4.2,9.4,9.4V55
		C64.4,60.2,60.2,64.4,55,64.4z"/>
</g>
<g id="_x30_3_1_">
	<rect x="6.4" y="6.4" fill="#FBAC18" width="58" height="58"/>
</g>
<g id="_x30_4">
	<polygon fill="#4BC3C7" points="66.9,14.6 3.9,14.6 3.9,35.6 25,35.6 25,56.3 45.8,56.3 45.8,35.6 66.9,35.6 	"/>
</g>
<g id="_x30_5">
	<polygon fill="#9D6DAF" points="35.5,24.9 35.5,2.6 13.1,2.6 13.1,45.6 35.4,45.6 35.4,68.3 57.7,68.3 57.7,24.9 	"/>
</g>
<g id="_x30_6">
	<polygon fill="#50B848" points="53.4,9.5 35.4,9.5 35.4,43.3 17.4,43.3 17.4,61.3 53.3,61.3 53.3,61.3 53.4,61.3 	"/>
</g>
<g id="_x30_7">
	<circle fill="#ED2D85" cx="35.4" cy="35.4" r="28.8"/>
</g>
<g id="_x30_8">
	<path fill="#489DD6" d="M35.4,6.7C19.6,6.7,6.7,19.6,6.7,35.4s12.9,28.7,28.8,28.7s28.7-12.9,28.7-28.7S51.3,6.7,35.4,6.7z
		 M35.4,47.1c-6.4,0-11.7-5.2-11.7-11.7S29,23.8,35.4,23.8c6.4,0,11.7,5.2,11.7,11.7S41.9,47.1,35.4,47.1z"/>
</g>
</svg>
