<?xml version="1.0" encoding="utf-8"?><!DOCTYPE svg PUBLIC "-//W3C//DTD SVG 1.1//EN" "http://www.w3.org/Graphics/SVG/1.1/DTD/svg11.dtd"> <svg version="1.1" id="Layer_1" xmlns="http://www.w3.org/2000/svg" xmlns:xlink="http://www.w3.org/1999/xlink" x="0px" y="0px" width="100%" height="100%" viewBox="0 0 210.879990 200.000000" enable-background="new 0 0 210.879990 200.000000" xml:space="preserve"> <g transform="scale(0.320000)"><path d="M0.000000,0.000000  A2822.000000,2822.000000 0 0,1 0.000000,0.000000" fill="none" stroke="#2200aa" stroke-width="0.700000" stroke-linecap="round" />
<path d="M347.000000,495.100006  A2012.000000,2012.000000 0 0,1 345.000000,496.899994" fill="none" stroke="#2200aa" stroke-width="0.700000" stroke-linecap="round" />
<path d="M234.000000,589.700012  A2012.000000,2012.000000 0 0,1 231.000000,592.000000" fill="none" stroke="#2200aa" stroke-width="0.700000" stroke-linecap="round" />
<path d="M225.000000,589.099976  A2006.000000,2006.000000 0 0,1 214.000000,597.500000" fill="none" stroke="#2200aa" stroke-width="0.700000" stroke-linecap="round" />
<path d="M213.000000,598.200012  A2006.000000,2006.000000 0 0,1 212.000000,599.000000" fill="none" stroke="#2200aa" stroke-width="0.700000" stroke-linecap="round" />
<path d="M188.000000,616.900024  A2006.000000,2006.000000 0 0,1 187.000000,617.599976" fill="none" stroke="#2200aa" stroke-width="0.700000" stroke-linecap="round" />
<path d="M217.000000,587.599976  A2000.000000,2000.000000 0 0,1 178.000000,616.799988" fill="none" stroke="#2200aa" stroke-width="0.700000" stroke-linecap="round" />
<path d="M174.000000,619.700012  A2000.000000,2000.000000 0 0,1 168.000000,624.000000" fill="none" stroke="#2200aa" stroke-width="0.700000" stroke-linecap="round" />
<path d="M255.000000,550.099976  A1994.000000,1994.000000 0 0,1 247.000000,556.500000" fill="none" stroke="#2200aa" stroke-width="0.700000" stroke-linecap="round" />
<path d="M246.000000,557.299988  A1994.000000,1994.000000 0 0,1 244.000000,558.900024" fill="none" stroke="#2200aa" stroke-width="0.700000" stroke-linecap="round" />
<path d="M241.000000,561.299988  A1994.000000,1994.000000 0 0,1 239.000000,562.900024" fill="none" stroke="#2200aa" stroke-width="0.700000" stroke-linecap="round" />
<path d="M238.000000,563.700012  A1994.000000,1994.000000 0 0,1 237.000000,564.500000" fill="none" stroke="#2200aa" stroke-width="0.700000" stroke-linecap="round" />
<path d="M233.000000,567.599976  A1994.000000,1994.000000 0 0,1 157.000000,624.500000" fill="none" stroke="#2200aa" stroke-width="0.700000" stroke-linecap="round" />
<path d="M252.000000,544.799988  A1988.000000,1988.000000 0 0,1 146.000000,625.000000" fill="none" stroke="#2200aa" stroke-width="0.700000" stroke-linecap="round" />
<path d="M424.000000,379.200012  A1982.000000,1982.000000 0 0,1 409.000000,394.500000" fill="none" stroke="#2200aa" stroke-width="0.700000" stroke-linecap="round" />
<path d="M408.000000,395.500000  A1982.000000,1982.000000 0 0,1 407.000000,396.600006" fill="none" stroke="#2200aa" stroke-width="0.700000" stroke-linecap="round" />
<path d="M403.000000,400.600006  A1982.000000,1982.000000 0 0,1 400.000000,403.600006" fill="none" stroke="#2200aa" stroke-width="0.700000" stroke-linecap="round" />
<path d="M260.000000,530.500000  A1982.000000,1982.000000 0 0,1 136.000000,624.700012" fill="none" stroke="#2200aa" stroke-width="0.700000" stroke-linecap="round" />
<path d="M438.000000,355.899994  A1976.000000,1976.000000 0 0,1 427.000000,367.500000" fill="none" stroke="#2200aa" stroke-width="0.700000" stroke-linecap="round" />
<path d="M421.000000,373.700012  A1976.000000,1976.000000 0 0,1 383.000000,411.899994" fill="none" stroke="#2200aa" stroke-width="0.700000" stroke-linecap="round" />
<path d="M256.000000,526.000000  A1976.000000,1976.000000 0 0,1 125.000000,625.000000" fill="none" stroke="#2200aa" stroke-width="0.700000" stroke-linecap="round" />
<path d="M436.000000,349.299988  A1970.000000,1970.000000 0 0,1 383.000000,403.500000" fill="none" stroke="#2200aa" stroke-width="0.700000" stroke-linecap="round" />
<path d="M265.000000,510.700012  A1970.000000,1970.000000 0 0,1 115.000000,624.599976" fill="none" stroke="#2200aa" stroke-width="0.700000" stroke-linecap="round" />
<path d="M449.000000,326.399994  A1964.000000,1964.000000 0 0,1 446.000000,329.700012" fill="none" stroke="#2200aa" stroke-width="0.700000" stroke-linecap="round" />
<path d="M431.000000,345.799988  A1964.000000,1964.000000 0 0,1 393.000000,385.100006" fill="none" stroke="#2200aa" stroke-width="0.700000" stroke-linecap="round" />
<path d="M390.000000,388.100006  A1964.000000,1964.000000 0 0,1 389.000000,389.100006" fill="none" stroke="#2200aa" stroke-width="0.700000" stroke-linecap="round" />
<path d="M379.000000,399.000000  A1964.000000,1964.000000 0 0,1 377.000000,401.000000" fill="none" stroke="#2200aa" stroke-width="0.700000" stroke-linecap="round" />
<path d="M287.000000,484.100006  A1964.000000,1964.000000 0 0,1 286.000000,485.000000" fill="none" stroke="#2200aa" stroke-width="0.700000" stroke-linecap="round" />
<path d="M285.000000,485.799988  A1964.000000,1964.000000 0 0,1 270.000000,498.700012" fill="none" stroke="#2200aa" stroke-width="0.700000" stroke-linecap="round" />
<path d="M260.000000,507.100006  A1964.000000,1964.000000 0 0,1 104.000000,624.900024" fill="none" stroke="#2200aa" stroke-width="0.700000" stroke-linecap="round" />
<path d="M448.000000,318.600006  A1958.000000,1958.000000 0 0,1 447.000000,319.700012" fill="none" stroke="#2200aa" stroke-width="0.700000" stroke-linecap="round" />
<path d="M446.000000,320.799988  A1958.000000,1958.000000 0 0,1 440.000000,327.299988" fill="none" stroke="#2200aa" stroke-width="0.700000" stroke-linecap="round" />
<path d="M424.000000,344.500000  A1958.000000,1958.000000 0 0,1 397.000000,372.500000" fill="none" stroke="#2200aa" stroke-width="0.700000" stroke-linecap="round" />
<path d="M388.000000,381.600006  A1958.000000,1958.000000 0 0,1 386.000000,383.600006" fill="none" stroke="#2200aa" stroke-width="0.700000" stroke-linecap="round" />
<path d="M385.000000,384.600006  A1958.000000,1958.000000 0 0,1 373.000000,396.500000" fill="none" stroke="#2200aa" stroke-width="0.700000" stroke-linecap="round" />
<path d="M284.000000,478.799988  A1958.000000,1958.000000 0 0,1 93.000000,625.099976" fill="none" stroke="#2200aa" stroke-width="0.700000" stroke-linecap="round" />
<path d="M451.000000,306.399994  A1952.000000,1952.000000 0 0,1 450.000000,307.500000" fill="none" stroke="#2200aa" stroke-width="0.700000" stroke-linecap="round" />
<path d="M446.000000,311.899994  A1952.000000,1952.000000 0 0,1 444.000000,314.100006" fill="none" stroke="#2200aa" stroke-width="0.700000" stroke-linecap="round" />
<path d="M438.000000,320.700012  A1952.000000,1952.000000 0 0,1 434.000000,325.000000" fill="none" stroke="#2200aa" stroke-width="0.700000" stroke-linecap="round" />
<path d="M418.000000,342.100006  A1952.000000,1952.000000 0 0,1 366.000000,395.000000" fill="none" stroke="#2200aa" stroke-width="0.700000" stroke-linecap="round" />
<path d="M324.000000,434.899994  A1952.000000,1952.000000 0 0,1 316.000000,442.299988" fill="none" stroke="#2200aa" stroke-width="0.700000" stroke-linecap="round" />
<path d="M280.000000,474.299988  A1952.000000,1952.000000 0 0,1 136.000000,587.900024" fill="none" stroke="#2200aa" stroke-width="0.700000" stroke-linecap="round" />
<path d="M135.000000,588.599976  A1952.000000,1952.000000 0 0,1 83.000000,624.500000" fill="none" stroke="#2200aa" stroke-width="0.700000" stroke-linecap="round" />
<path d="M453.000000,295.100006  A1946.000000,1946.000000 0 0,1 452.000000,296.299988" fill="none" stroke="#2200aa" stroke-width="0.700000" stroke-linecap="round" />
<path d="M449.000000,299.600006  A1946.000000,1946.000000 0 0,1 445.000000,304.100006" fill="none" stroke="#2200aa" stroke-width="0.700000" stroke-linecap="round" />
<path d="M441.000000,308.500000  A1946.000000,1946.000000 0 0,1 437.000000,312.899994" fill="none" stroke="#2200aa" stroke-width="0.700000" stroke-linecap="round" />
<path d="M414.000000,337.600006  A1946.000000,1946.000000 0 0,1 358.000000,394.399994" fill="none" stroke="#2200aa" stroke-width="0.700000" stroke-linecap="round" />
<path d="M322.000000,428.600006  A1946.000000,1946.000000 0 0,1 303.000000,445.899994" fill="none" stroke="#2200aa" stroke-width="0.700000" stroke-linecap="round" />
<path d="M279.000000,467.200012  A1946.000000,1946.000000 0 0,1 107.000000,601.000000" fill="none" stroke="#2200aa" stroke-width="0.700000" stroke-linecap="round" />
<path d="M103.000000,603.700012  A1946.000000,1946.000000 0 0,1 102.000000,604.400024" fill="none" stroke="#2200aa" stroke-width="0.700000" stroke-linecap="round" />
<path d="M98.000000,607.200012  A1946.000000,1946.000000 0 0,1 72.000000,624.599976" fill="none" stroke="#2200aa" stroke-width="0.700000" stroke-linecap="round" />
<path d="M449.000000,290.600006  A1940.000000,1940.000000 0 0,1 446.000000,294.000000" fill="none" stroke="#2200aa" stroke-width="0.700000" stroke-linecap="round" />
<path d="M442.000000,298.399994  A1940.000000,1940.000000 0 0,1 440.000000,300.600006" fill="none" stroke="#2200aa" stroke-width="0.700000" stroke-linecap="round" />
<path d="M409.000000,334.200012  A1940.000000,1940.000000 0 0,1 353.000000,390.899994" fill="none" stroke="#2200aa" stroke-width="0.700000" stroke-linecap="round" />
<path d="M321.000000,421.299988  A1940.000000,1940.000000 0 0,1 292.000000,447.799988" fill="none" stroke="#2200aa" stroke-width="0.700000" stroke-linecap="round" />
<path d="M279.000000,459.299988  A1940.000000,1940.000000 0 0,1 278.000000,460.100006" fill="none" stroke="#2200aa" stroke-width="0.700000" stroke-linecap="round" />
<path d="M277.000000,461.000000  A1940.000000,1940.000000 0 0,1 115.000000,588.099976" fill="none" stroke="#2200aa" stroke-width="0.700000" stroke-linecap="round" />
<path d="M113.000000,589.500000  A1940.000000,1940.000000 0 0,1 110.000000,591.599976" fill="none" stroke="#2200aa" stroke-width="0.700000" stroke-linecap="round" />
<path d="M94.000000,602.599976  A1940.000000,1940.000000 0 0,1 68.000000,620.099976" fill="none" stroke="#2200aa" stroke-width="0.700000" stroke-linecap="round" />
<path d="M442.000000,289.399994  A1934.000000,1934.000000 0 0,1 440.000000,291.700012" fill="none" stroke="#2200aa" stroke-width="0.700000" stroke-linecap="round" />
<path d="M406.000000,328.600006  A1934.000000,1934.000000 0 0,1 405.000000,329.700012" fill="none" stroke="#2200aa" stroke-width="0.700000" stroke-linecap="round" />
<path d="M403.000000,331.799988  A1934.000000,1934.000000 0 0,1 347.000000,388.399994" fill="none" stroke="#2200aa" stroke-width="0.700000" stroke-linecap="round" />
<path d="M323.000000,411.299988  A1934.000000,1934.000000 0 0,1 322.000000,412.200012" fill="none" stroke="#2200aa" stroke-width="0.700000" stroke-linecap="round" />
<path d="M316.000000,417.799988  A1934.000000,1934.000000 0 0,1 112.000000,582.900024" fill="none" stroke="#2200aa" stroke-width="0.700000" stroke-linecap="round" />
<path d="M90.000000,598.099976  A1934.000000,1934.000000 0 0,1 67.000000,613.500000" fill="none" stroke="#2200aa" stroke-width="0.700000" stroke-linecap="round" />
<path d="M403.000000,323.000000  A1928.000000,1928.000000 0 0,1 399.000000,327.299988" fill="none" stroke="#2200aa" stroke-width="0.700000" stroke-linecap="round" />
<path d="M398.000000,328.299988  A1928.000000,1928.000000 0 0,1 343.000000,383.899994" fill="none" stroke="#2200aa" stroke-width="0.700000" stroke-linecap="round" />
<path d="M324.000000,402.100006  A1928.000000,1928.000000 0 0,1 110.000000,576.900024" fill="none" stroke="#2200aa" stroke-width="0.700000" stroke-linecap="round" />
<path d="M88.000000,592.200012  A1928.000000,1928.000000 0 0,1 66.000000,607.000000" fill="none" stroke="#2200aa" stroke-width="0.700000" stroke-linecap="round" />
<path d="M50.000000,617.500000  A1928.000000,1928.000000 0 0,1 39.000000,624.599976" fill="none" stroke="#2200aa" stroke-width="0.700000" stroke-linecap="round" />
<path d="M401.000000,316.399994  A1922.000000,1922.000000 0 0,1 396.000000,321.700012" fill="none" stroke="#2200aa" stroke-width="0.700000" stroke-linecap="round" />
<path d="M388.000000,330.100006  A1922.000000,1922.000000 0 0,1 337.000000,381.399994" fill="none" stroke="#2200aa" stroke-width="0.700000" stroke-linecap="round" />
<path d="M324.000000,393.799988  A1922.000000,1922.000000 0 0,1 107.000000,571.700012" fill="none" stroke="#2200aa" stroke-width="0.700000" stroke-linecap="round" />
<path d="M84.000000,587.700012  A1922.000000,1922.000000 0 0,1 65.000000,600.500000" fill="none" stroke="#2200aa" stroke-width="0.700000" stroke-linecap="round" />
<path d="M45.000000,613.599976  A1922.000000,1922.000000 0 0,1 44.000000,614.200012" fill="none" stroke="#2200aa" stroke-width="0.700000" stroke-linecap="round" />
<path d="M43.000000,614.900024  A1922.000000,1922.000000 0 0,1 29.000000,623.799988" fill="none" stroke="#2200aa" stroke-width="0.700000" stroke-linecap="round" />
<path d="M403.000000,305.500000  A1916.000000,1916.000000 0 0,1 402.000000,306.600006" fill="none" stroke="#2200aa" stroke-width="0.700000" stroke-linecap="round" />
<path d="M401.000000,307.600006  A1916.000000,1916.000000 0 0,1 389.000000,320.399994" fill="none" stroke="#2200aa" stroke-width="0.700000" stroke-linecap="round" />
<path d="M380.000000,329.799988  A1916.000000,1916.000000 0 0,1 368.000000,342.100006" fill="none" stroke="#2200aa" stroke-width="0.700000" stroke-linecap="round" />
<path d="M366.000000,344.100006  A1916.000000,1916.000000 0 0,1 331.000000,378.799988" fill="none" stroke="#2200aa" stroke-width="0.700000" stroke-linecap="round" />
<path d="M324.000000,385.500000  A1916.000000,1916.000000 0 0,1 104.000000,566.500000" fill="none" stroke="#2200aa" stroke-width="0.700000" stroke-linecap="round" />
<path d="M80.000000,583.099976  A1916.000000,1916.000000 0 0,1 65.000000,593.299988" fill="none" stroke="#2200aa" stroke-width="0.700000" stroke-linecap="round" />
<path d="M34.000000,613.500000  A1916.000000,1916.000000 0 0,1 16.000000,624.900024" fill="none" stroke="#2200aa" stroke-width="0.700000" stroke-linecap="round" />
<path d="M409.000000,290.100006  A1910.000000,1910.000000 0 0,1 383.000000,318.000000" fill="none" stroke="#2200aa" stroke-width="0.700000" stroke-linecap="round" />
<path d="M373.000000,328.399994  A1910.000000,1910.000000 0 0,1 363.000000,338.600006" fill="none" stroke="#2200aa" stroke-width="0.700000" stroke-linecap="round" />
<path d="M361.000000,340.700012  A1910.000000,1910.000000 0 0,1 99.000000,562.700012" fill="none" stroke="#2200aa" stroke-width="0.700000" stroke-linecap="round" />
<path d="M77.000000,577.900024  A1910.000000,1910.000000 0 0,1 63.000000,587.400024" fill="none" stroke="#2200aa" stroke-width="0.700000" stroke-linecap="round" />
<path d="M25.000000,612.200012  A1910.000000,1910.000000 0 0,1 5.000000,624.700012" fill="none" stroke="#2200aa" stroke-width="0.700000" stroke-linecap="round" />
<path d="M410.000000,280.100006  A1904.000000,1904.000000 0 0,1 385.000000,307.100006" fill="none" stroke="#2200aa" stroke-width="0.700000" stroke-linecap="round" />
<path d="M381.000000,311.399994  A1904.000000,1904.000000 0 0,1 373.000000,319.700012" fill="none" stroke="#2200aa" stroke-width="0.700000" stroke-linecap="round" />
<path d="M366.000000,327.000000  A1904.000000,1904.000000 0 0,1 247.000000,439.399994" fill="none" stroke="#2200aa" stroke-width="0.700000" stroke-linecap="round" />
<path d="M246.000000,440.299988  A1904.000000,1904.000000 0 0,1 94.000000,558.799988" fill="none" stroke="#2200aa" stroke-width="0.700000" stroke-linecap="round" />
<path d="M74.000000,572.700012  A1904.000000,1904.000000 0 0,1 63.000000,580.099976" fill="none" stroke="#2200aa" stroke-width="0.700000" stroke-linecap="round" />
<path d="M20.000000,608.200012  A1904.000000,1904.000000 0 0,1 19.000000,608.900024" fill="none" stroke="#2200aa" stroke-width="0.700000" stroke-linecap="round" />
<path d="M18.000000,609.500000  A1898.000000,1898.000000 0 0,1 1.000000,620.099976" fill="none" stroke="#2200aa" stroke-width="0.700000" stroke-linecap="round" />
<path d="M416.000000,264.500000  A1898.000000,1898.000000 0 0,1 415.000000,265.600006" fill="none" stroke="#2200aa" stroke-width="0.700000" stroke-linecap="round" />
<path d="M414.000000,266.700012  A1898.000000,1898.000000 0 0,1 380.000000,303.700012" fill="none" stroke="#2200aa" stroke-width="0.700000" stroke-linecap="round" />
<path d="M376.000000,307.899994  A1898.000000,1898.000000 0 0,1 90.000000,554.299988" fill="none" stroke="#2200aa" stroke-width="0.700000" stroke-linecap="round" />
<path d="M69.000000,568.799988  A1898.000000,1898.000000 0 0,1 63.000000,572.900024" fill="none" stroke="#2200aa" stroke-width="0.700000" stroke-linecap="round" />
<path d="M17.000000,603.000000  A1898.000000,1898.000000 0 0,1 16.000000,603.700012" fill="none" stroke="#2200aa" stroke-width="0.700000" stroke-linecap="round" />
<path d="M14.000000,604.900024  A1892.000000,1892.000000 0 0,1 1.000000,613.099976" fill="none" stroke="#2200aa" stroke-width="0.700000" stroke-linecap="round" />
<path d="M418.000000,253.199997  A1892.000000,1892.000000 0 0,1 375.000000,300.299988" fill="none" stroke="#2200aa" stroke-width="0.700000" stroke-linecap="round" />
<path d="M369.000000,306.600006  A1892.000000,1892.000000 0 0,1 290.000000,384.600006" fill="none" stroke="#2200aa" stroke-width="0.700000" stroke-linecap="round" />
<path d="M289.000000,385.600006  A1892.000000,1892.000000 0 0,1 84.000000,551.200012" fill="none" stroke="#2200aa" stroke-width="0.700000" stroke-linecap="round" />
<path d="M66.000000,563.599976  A1892.000000,1892.000000 0 0,1 61.000000,567.000000" fill="none" stroke="#2200aa" stroke-width="0.700000" stroke-linecap="round" />
<path d="M9.000000,601.000000  A1886.000000,1886.000000 0 0,1 1.000000,606.000000" fill="none" stroke="#2200aa" stroke-width="0.700000" stroke-linecap="round" />
<path d="M416.000000,246.399994  A1886.000000,1886.000000 0 0,1 369.000000,297.899994" fill="none" stroke="#2200aa" stroke-width="0.700000" stroke-linecap="round" />
<path d="M362.000000,305.200012  A1886.000000,1886.000000 0 0,1 78.000000,548.099976" fill="none" stroke="#2200aa" stroke-width="0.700000" stroke-linecap="round" />
<path d="M62.000000,559.099976  A1886.000000,1886.000000 0 0,1 58.000000,561.799988" fill="none" stroke="#2200aa" stroke-width="0.700000" stroke-linecap="round" />
<path d="M8.000000,594.500000  A1886.000000,1886.000000 0 0,1 7.000000,595.200012" fill="none" stroke="#2200aa" stroke-width="0.700000" stroke-linecap="round" />
<path d="M6.000000,595.799988  A1880.000000,1880.000000 0 0,1 1.000000,598.900024" fill="none" stroke="#2200aa" stroke-width="0.700000" stroke-linecap="round" />
<path d="M416.000000,237.300003  A1880.000000,1880.000000 0 0,1 362.000000,296.500000" fill="none" stroke="#2200aa" stroke-width="0.700000" stroke-linecap="round" />
<path d="M357.000000,301.799988  A1880.000000,1880.000000 0 0,1 248.000000,406.600006" fill="none" stroke="#2200aa" stroke-width="0.700000" stroke-linecap="round" />
<path d="M239.000000,414.500000  A1880.000000,1880.000000 0 0,1 74.000000,543.500000" fill="none" stroke="#2200aa" stroke-width="0.700000" stroke-linecap="round" />
<path d="M2.000000,591.200012  A1874.000000,1874.000000 0 0,1 1.000000,591.900024" fill="none" stroke="#2200aa" stroke-width="0.700000" stroke-linecap="round" />
<path d="M426.000000,216.600006  A1874.000000,1874.000000 0 0,1 353.000000,297.299988" fill="none" stroke="#2200aa" stroke-width="0.700000" stroke-linecap="round" />
<path d="M352.000000,298.299988  A1874.000000,1874.000000 0 0,1 291.000000,359.000000" fill="none" stroke="#2200aa" stroke-width="0.700000" stroke-linecap="round" />
<path d="M290.000000,359.899994  A1874.000000,1874.000000 0 0,1 244.000000,402.100006" fill="none" stroke="#2200aa" stroke-width="0.700000" stroke-linecap="round" />
<path d="M228.000000,416.200012  A1874.000000,1874.000000 0 0,1 69.000000,539.700012" fill="none" stroke="#2200aa" stroke-width="0.700000" stroke-linecap="round" />
<path d="M2.000000,584.099976  A1868.000000,1868.000000 0 0,1 1.000000,584.799988" fill="none" stroke="#2200aa" stroke-width="0.700000" stroke-linecap="round" />
<path d="M425.000000,208.500000  A1868.000000,1868.000000 0 0,1 346.000000,295.899994" fill="none" stroke="#2200aa" stroke-width="0.700000" stroke-linecap="round" />
<path d="M345.000000,296.899994  A1868.000000,1868.000000 0 0,1 301.000000,341.100006" fill="none" stroke="#2200aa" stroke-width="0.700000" stroke-linecap="round" />
<path d="M300.000000,342.000000  A1868.000000,1868.000000 0 0,1 299.000000,343.000000" fill="none" stroke="#2200aa" stroke-width="0.700000" stroke-linecap="round" />
<path d="M296.000000,345.899994  A1868.000000,1868.000000 0 0,1 294.000000,347.799988" fill="none" stroke="#2200aa" stroke-width="0.700000" stroke-linecap="round" />
<path d="M290.000000,351.600006  A1868.000000,1868.000000 0 0,1 287.000000,354.500000" fill="none" stroke="#2200aa" stroke-width="0.700000" stroke-linecap="round" />
<path d="M285.000000,356.399994  A1868.000000,1868.000000 0 0,1 284.000000,357.299988" fill="none" stroke="#2200aa" stroke-width="0.700000" stroke-linecap="round" />
<path d="M281.000000,360.200012  A1868.000000,1868.000000 0 0,1 241.000000,396.799988" fill="none" stroke="#2200aa" stroke-width="0.700000" stroke-linecap="round" />
<path d="M219.000000,416.000000  A1868.000000,1868.000000 0 0,1 65.000000,535.200012" fill="none" stroke="#2200aa" stroke-width="0.700000" stroke-linecap="round" />
<path d="M2.000000,577.000000  A1862.000000,1862.000000 0 0,1 1.000000,577.700012" fill="none" stroke="#2200aa" stroke-width="0.700000" stroke-linecap="round" />
<path d="M418.000000,207.399994  A1862.000000,1862.000000 0 0,1 335.000000,298.600006" fill="none" stroke="#2200aa" stroke-width="0.700000" stroke-linecap="round" />
<path d="M310.000000,323.799988  A1862.000000,1862.000000 0 0,1 299.000000,334.600006" fill="none" stroke="#2200aa" stroke-width="0.700000" stroke-linecap="round" />
<path d="M295.000000,338.500000  A1862.000000,1862.000000 0 0,1 294.000000,339.500000" fill="none" stroke="#2200aa" stroke-width="0.700000" stroke-linecap="round" />
<path d="M293.000000,340.399994  A1862.000000,1862.000000 0 0,1 292.000000,341.399994" fill="none" stroke="#2200aa" stroke-width="0.700000" stroke-linecap="round" />
<path d="M291.000000,342.399994  A1862.000000,1862.000000 0 0,1 290.000000,343.299988" fill="none" stroke="#2200aa" stroke-width="0.700000" stroke-linecap="round" />
<path d="M289.000000,344.299988  A1862.000000,1862.000000 0 0,1 288.000000,345.200012" fill="none" stroke="#2200aa" stroke-width="0.700000" stroke-linecap="round" />
<path d="M287.000000,346.200012  A1862.000000,1862.000000 0 0,1 285.000000,348.100006" fill="none" stroke="#2200aa" stroke-width="0.700000" stroke-linecap="round" />
<path d="M284.000000,349.100006  A1862.000000,1862.000000 0 0,1 283.000000,350.000000" fill="none" stroke="#2200aa" stroke-width="0.700000" stroke-linecap="round" />
<path d="M282.000000,351.000000  A1862.000000,1862.000000 0 0,1 280.000000,352.899994" fill="none" stroke="#2200aa" stroke-width="0.700000" stroke-linecap="round" />
<path d="M279.000000,353.799988  A1862.000000,1862.000000 0 0,1 234.000000,394.899994" fill="none" stroke="#2200aa" stroke-width="0.700000" stroke-linecap="round" />
<path d="M211.000000,415.000000  A1862.000000,1862.000000 0 0,1 61.000000,530.700012" fill="none" stroke="#2200aa" stroke-width="0.700000" stroke-linecap="round" />
<path d="M2.000000,569.900024  A1856.000000,1856.000000 0 0,1 1.000000,570.599976" fill="none" stroke="#2200aa" stroke-width="0.700000" stroke-linecap="round" />
<path d="M410.000000,207.600006  A1856.000000,1856.000000 0 0,1 335.000000,290.000000" fill="none" stroke="#2200aa" stroke-width="0.700000" stroke-linecap="round" />
<path d="M306.000000,319.399994  A1856.000000,1856.000000 0 0,1 298.000000,327.200012" fill="none" stroke="#2200aa" stroke-width="0.700000" stroke-linecap="round" />
<path d="M292.000000,333.100006  A1856.000000,1856.000000 0 0,1 291.000000,334.000000" fill="none" stroke="#2200aa" stroke-width="0.700000" stroke-linecap="round" />
<path d="M286.000000,338.899994  A1856.000000,1856.000000 0 0,1 285.000000,339.799988" fill="none" stroke="#2200aa" stroke-width="0.700000" stroke-linecap="round" />
<path d="M280.000000,344.600006  A1856.000000,1856.000000 0 0,1 215.000000,403.600006" fill="none" stroke="#2200aa" stroke-width="0.700000" stroke-linecap="round" />
<path d="M212.000000,406.200012  A1856.000000,1856.000000 0 0,1 57.000000,526.099976" fill="none" stroke="#2200aa" stroke-width="0.700000" stroke-linecap="round" />
<path d="M1.000000,563.400024  A1850.000000,1850.000000 0 0,1 1.000000,563.400024" fill="none" stroke="#2200aa" stroke-width="0.700000" stroke-linecap="round" />
<path d="M404.000000,205.300003  A1850.000000,1850.000000 0 0,1 335.000000,281.299988" fill="none" stroke="#2200aa" stroke-width="0.700000" stroke-linecap="round" />
<path d="M306.000000,310.899994  A1850.000000,1850.000000 0 0,1 296.000000,320.799988" fill="none" stroke="#2200aa" stroke-width="0.700000" stroke-linecap="round" />
<path d="M284.000000,332.500000  A1850.000000,1850.000000 0 0,1 281.000000,335.299988" fill="none" stroke="#2200aa" stroke-width="0.700000" stroke-linecap="round" />
<path d="M274.000000,342.000000  A1850.000000,1850.000000 0 0,1 53.000000,521.599976" fill="none" stroke="#2200aa" stroke-width="0.700000" stroke-linecap="round" />
<path d="M2.000000,555.700012  A1844.000000,1844.000000 0 0,1 1.000000,556.299988" fill="none" stroke="#2200aa" stroke-width="0.700000" stroke-linecap="round" />
<path d="M399.000000,202.000000  A1844.000000,1844.000000 0 0,1 335.000000,272.700012" fill="none" stroke="#2200aa" stroke-width="0.700000" stroke-linecap="round" />
<path d="M311.000000,297.399994  A1844.000000,1844.000000 0 0,1 293.000000,315.299988" fill="none" stroke="#2200aa" stroke-width="0.700000" stroke-linecap="round" />
<path d="M281.000000,327.000000  A1844.000000,1844.000000 0 0,1 280.000000,328.000000" fill="none" stroke="#2200aa" stroke-width="0.700000" stroke-linecap="round" />
<path d="M279.000000,328.899994  A1844.000000,1844.000000 0 0,1 278.000000,329.899994" fill="none" stroke="#2200aa" stroke-width="0.700000" stroke-linecap="round" />
<path d="M277.000000,330.899994  A1844.000000,1844.000000 0 0,1 276.000000,331.799988" fill="none" stroke="#2200aa" stroke-width="0.700000" stroke-linecap="round" />
<path d="M275.000000,332.799988  A1844.000000,1844.000000 0 0,1 274.000000,333.700012" fill="none" stroke="#2200aa" stroke-width="0.700000" stroke-linecap="round" />
<path d="M270.000000,337.500000  A1844.000000,1844.000000 0 0,1 51.000000,515.700012" fill="none" stroke="#2200aa" stroke-width="0.700000" stroke-linecap="round" />
<path d="M1.000000,549.200012  A1838.000000,1838.000000 0 0,1 1.000000,549.200012" fill="none" stroke="#2200aa" stroke-width="0.700000" stroke-linecap="round" />
<path d="M395.000000,197.399994  A1838.000000,1838.000000 0 0,1 333.000000,266.100006" fill="none" stroke="#2200aa" stroke-width="0.700000" stroke-linecap="round" />
<path d="M307.000000,292.899994  A1838.000000,1838.000000 0 0,1 290.000000,309.899994" fill="none" stroke="#2200aa" stroke-width="0.700000" stroke-linecap="round" />
<path d="M275.000000,324.500000  A1838.000000,1838.000000 0 0,1 274.000000,325.399994" fill="none" stroke="#2200aa" stroke-width="0.700000" stroke-linecap="round" />
<path d="M272.000000,327.299988  A1838.000000,1838.000000 0 0,1 271.000000,328.299988" fill="none" stroke="#2200aa" stroke-width="0.700000" stroke-linecap="round" />
<path d="M268.000000,331.200012  A1838.000000,1838.000000 0 0,1 51.000000,508.399994" fill="none" stroke="#2200aa" stroke-width="0.700000" stroke-linecap="round" />
<path d="M2.000000,541.400024  A1832.000000,1832.000000 0 0,1 1.000000,542.000000" fill="none" stroke="#2200aa" stroke-width="0.700000" stroke-linecap="round" />
<path d="M388.000000,196.300003  A1832.000000,1832.000000 0 0,1 335.000000,255.199997" fill="none" stroke="#2200aa" stroke-width="0.700000" stroke-linecap="round" />
<path d="M305.000000,286.399994  A1832.000000,1832.000000 0 0,1 289.000000,302.399994" fill="none" stroke="#2200aa" stroke-width="0.700000" stroke-linecap="round" />
<path d="M275.000000,316.100006  A1832.000000,1832.000000 0 0,1 274.000000,317.100006" fill="none" stroke="#2200aa" stroke-width="0.700000" stroke-linecap="round" />
<path d="M273.000000,318.100006  A1832.000000,1832.000000 0 0,1 272.000000,319.000000" fill="none" stroke="#2200aa" stroke-width="0.700000" stroke-linecap="round" />
<path d="M271.000000,320.000000  A1832.000000,1832.000000 0 0,1 49.000000,502.500000" fill="none" stroke="#2200aa" stroke-width="0.700000" stroke-linecap="round" />
<path d="M8.000000,530.299988  A1826.000000,1826.000000 0 0,1 1.000000,534.900024" fill="none" stroke="#2200aa" stroke-width="0.700000" stroke-linecap="round" />
<path d="M384.000000,191.800003  A1826.000000,1826.000000 0 0,1 380.000000,196.399994" fill="none" stroke="#2200aa" stroke-width="0.700000" stroke-linecap="round" />
<path d="M377.000000,199.899994  A1826.000000,1826.000000 0 0,1 335.000000,246.399994" fill="none" stroke="#2200aa" stroke-width="0.700000" stroke-linecap="round" />
<path d="M301.000000,281.899994  A1826.000000,1826.000000 0 0,1 287.000000,295.899994" fill="none" stroke="#2200aa" stroke-width="0.700000" stroke-linecap="round" />
<path d="M266.000000,316.500000  A1826.000000,1826.000000 0 0,1 264.000000,318.399994" fill="none" stroke="#2200aa" stroke-width="0.700000" stroke-linecap="round" />
<path d="M262.000000,320.299988  A1826.000000,1826.000000 0 0,1 187.000000,388.100006" fill="none" stroke="#2200aa" stroke-width="0.700000" stroke-linecap="round" />
<path d="M185.000000,389.799988  A1826.000000,1826.000000 0 0,1 47.000000,496.500000" fill="none" stroke="#2200aa" stroke-width="0.700000" stroke-linecap="round" />
<path d="M16.000000,517.799988  A1820.000000,1820.000000 0 0,1 1.000000,527.700012" fill="none" stroke="#2200aa" stroke-width="0.700000" stroke-linecap="round" />
<path d="M370.000000,198.800003  A1820.000000,1820.000000 0 0,1 334.000000,238.699997" fill="none" stroke="#2200aa" stroke-width="0.700000" stroke-linecap="round" />
<path d="M298.000000,276.399994  A1820.000000,1820.000000 0 0,1 297.000000,277.399994" fill="none" stroke="#2200aa" stroke-width="0.700000" stroke-linecap="round" />
<path d="M295.000000,279.399994  A1820.000000,1820.000000 0 0,1 285.000000,289.500000" fill="none" stroke="#2200aa" stroke-width="0.700000" stroke-linecap="round" />
<path d="M267.000000,307.200012  A1820.000000,1820.000000 0 0,1 266.000000,308.100006" fill="none" stroke="#2200aa" stroke-width="0.700000" stroke-linecap="round" />
<path d="M256.000000,317.700012  A1820.000000,1820.000000 0 0,1 184.000000,382.799988" fill="none" stroke="#2200aa" stroke-width="0.700000" stroke-linecap="round" />
<path d="M176.000000,389.600006  A1820.000000,1820.000000 0 0,1 44.000000,491.299988" fill="none" stroke="#2200aa" stroke-width="0.700000" stroke-linecap="round" />
<path d="M20.000000,507.799988  A1820.000000,1820.000000 0 0,1 19.000000,508.500000" fill="none" stroke="#2200aa" stroke-width="0.700000" stroke-linecap="round" />
<path d="M17.000000,509.899994  A1814.000000,1814.000000 0 0,1 1.000000,520.500000" fill="none" stroke="#2200aa" stroke-width="0.700000" stroke-linecap="round" />
<path d="M357.000000,204.399994  A1814.000000,1814.000000 0 0,1 353.000000,208.899994" fill="none" stroke="#2200aa" stroke-width="0.700000" stroke-linecap="round" />
<path d="M339.000000,224.399994  A1814.000000,1814.000000 0 0,1 331.000000,233.100006" fill="none" stroke="#2200aa" stroke-width="0.700000" stroke-linecap="round" />
<path d="M289.000000,277.000000  A1814.000000,1814.000000 0 0,1 288.000000,278.000000" fill="none" stroke="#2200aa" stroke-width="0.700000" stroke-linecap="round" />
<path d="M252.000000,313.299988  A1814.000000,1814.000000 0 0,1 177.000000,380.899994" fill="none" stroke="#2200aa" stroke-width="0.700000" stroke-linecap="round" />
<path d="M160.000000,395.200012  A1814.000000,1814.000000 0 0,1 159.000000,396.000000" fill="none" stroke="#2200aa" stroke-width="0.700000" stroke-linecap="round" />
<path d="M153.000000,401.000000  A1814.000000,1814.000000 0 0,1 43.000000,484.700012" fill="none" stroke="#2200aa" stroke-width="0.700000" stroke-linecap="round" />
<path d="M19.000000,501.299988  A1808.000000,1808.000000 0 0,1 1.000000,513.299988" fill="none" stroke="#2200aa" stroke-width="0.700000" stroke-linecap="round" />
<path d="M252.000000,305.000000  A1808.000000,1808.000000 0 0,1 250.000000,306.899994" fill="none" stroke="#2200aa" stroke-width="0.700000" stroke-linecap="round" />
<path d="M248.000000,308.799988  A1808.000000,1808.000000 0 0,1 170.000000,379.000000" fill="none" stroke="#2200aa" stroke-width="0.700000" stroke-linecap="round" />
<path d="M153.000000,393.200012  A1808.000000,1808.000000 0 0,1 152.000000,394.000000" fill="none" stroke="#2200aa" stroke-width="0.700000" stroke-linecap="round" />
<path d="M147.000000,398.100006  A1808.000000,1808.000000 0 0,1 42.000000,478.100006" fill="none" stroke="#2200aa" stroke-width="0.700000" stroke-linecap="round" />
<path d="M20.000000,493.299988  A1802.000000,1802.000000 0 0,1 1.000000,506.100006" fill="none" stroke="#2200aa" stroke-width="0.700000" stroke-linecap="round" />
<path d="M248.000000,300.500000  A1802.000000,1802.000000 0 0,1 247.000000,301.399994" fill="none" stroke="#2200aa" stroke-width="0.700000" stroke-linecap="round" />
<path d="M245.000000,303.299988  A1802.000000,1802.000000 0 0,1 163.000000,377.000000" fill="none" stroke="#2200aa" stroke-width="0.700000" stroke-linecap="round" />
<path d="M144.000000,392.799988  A1802.000000,1802.000000 0 0,1 142.000000,394.500000" fill="none" stroke="#2200aa" stroke-width="0.700000" stroke-linecap="round" />
<path d="M140.000000,396.100006  A1802.000000,1802.000000 0 0,1 139.000000,396.899994" fill="none" stroke="#2200aa" stroke-width="0.700000" stroke-linecap="round" />
<path d="M130.000000,404.200012  A1802.000000,1802.000000 0 0,1 129.000000,405.000000" fill="none" stroke="#2200aa" stroke-width="0.700000" stroke-linecap="round" />
<path d="M127.000000,406.600006  A1802.000000,1802.000000 0 0,1 41.000000,471.399994" fill="none" stroke="#2200aa" stroke-width="0.700000" stroke-linecap="round" />
<path d="M19.000000,486.700012  A1796.000000,1796.000000 0 0,1 1.000000,498.899994" fill="none" stroke="#2200aa" stroke-width="0.700000" stroke-linecap="round" />
<path d="M247.000000,293.100006  A1796.000000,1796.000000 0 0,1 246.000000,294.100006" fill="none" stroke="#2200aa" stroke-width="0.700000" stroke-linecap="round" />
<path d="M240.000000,299.799988  A1796.000000,1796.000000 0 0,1 238.000000,301.700012" fill="none" stroke="#2200aa" stroke-width="0.700000" stroke-linecap="round" />
<path d="M236.000000,303.600006  A1796.000000,1796.000000 0 0,1 153.000000,377.600006" fill="none" stroke="#2200aa" stroke-width="0.700000" stroke-linecap="round" />
<path d="M152.000000,378.399994  A1796.000000,1796.000000 0 0,1 151.000000,379.299988" fill="none" stroke="#2200aa" stroke-width="0.700000" stroke-linecap="round" />
<path d="M143.000000,385.899994  A1796.000000,1796.000000 0 0,1 142.000000,386.700012" fill="none" stroke="#2200aa" stroke-width="0.700000" stroke-linecap="round" />
<path d="M140.000000,388.399994  A1796.000000,1796.000000 0 0,1 139.000000,389.200012" fill="none" stroke="#2200aa" stroke-width="0.700000" stroke-linecap="round" />
<path d="M125.000000,400.500000  A1796.000000,1796.000000 0 0,1 121.000000,403.700012" fill="none" stroke="#2200aa" stroke-width="0.700000" stroke-linecap="round" />
<path d="M120.000000,404.500000  A1796.000000,1796.000000 0 0,1 119.000000,405.299988" fill="none" stroke="#2200aa" stroke-width="0.700000" stroke-linecap="round" />
<path d="M112.000000,410.899994  A1796.000000,1796.000000 0 0,1 110.000000,412.500000" fill="none" stroke="#2200aa" stroke-width="0.700000" stroke-linecap="round" />
<path d="M98.000000,421.799988  A1796.000000,1796.000000 0 0,1 40.000000,464.799988" fill="none" stroke="#2200aa" stroke-width="0.700000" stroke-linecap="round" />
<path d="M20.000000,478.799988  A1790.000000,1790.000000 0 0,1 1.000000,491.700012" fill="none" stroke="#2200aa" stroke-width="0.700000" stroke-linecap="round" />
<path d="M240.000000,291.500000  A1790.000000,1790.000000 0 0,1 239.000000,292.500000" fill="none" stroke="#2200aa" stroke-width="0.700000" stroke-linecap="round" />
<path d="M235.000000,296.299988  A1790.000000,1790.000000 0 0,1 234.000000,297.299988" fill="none" stroke="#2200aa" stroke-width="0.700000" stroke-linecap="round" />
<path d="M231.000000,300.100006  A1790.000000,1790.000000 0 0,1 144.000000,377.299988" fill="none" stroke="#2200aa" stroke-width="0.700000" stroke-linecap="round" />
<path d="M143.000000,378.100006  A1790.000000,1790.000000 0 0,1 140.000000,380.600006" fill="none" stroke="#2200aa" stroke-width="0.700000" stroke-linecap="round" />
<path d="M94.000000,417.299988  A1790.000000,1790.000000 0 0,1 38.000000,458.799988" fill="none" stroke="#2200aa" stroke-width="0.700000" stroke-linecap="round" />
<path d="M20.000000,471.500000  A1784.000000,1784.000000 0 0,1 1.000000,484.500000" fill="none" stroke="#2200aa" stroke-width="0.700000" stroke-linecap="round" />
<path d="M233.000000,289.899994  A1784.000000,1784.000000 0 0,1 232.000000,290.899994" fill="none" stroke="#2200aa" stroke-width="0.700000" stroke-linecap="round" />
<path d="M229.000000,293.700012  A1784.000000,1784.000000 0 0,1 225.000000,297.500000" fill="none" stroke="#2200aa" stroke-width="0.700000" stroke-linecap="round" />
<path d="M224.000000,298.500000  A1784.000000,1784.000000 0 0,1 161.000000,355.100006" fill="none" stroke="#2200aa" stroke-width="0.700000" stroke-linecap="round" />
<path d="M160.000000,355.899994  A1784.000000,1784.000000 0 0,1 136.000000,376.100006" fill="none" stroke="#2200aa" stroke-width="0.700000" stroke-linecap="round" />
<path d="M134.000000,377.799988  A1784.000000,1784.000000 0 0,1 133.000000,378.600006" fill="none" stroke="#2200aa" stroke-width="0.700000" stroke-linecap="round" />
<path d="M132.000000,379.399994  A1784.000000,1784.000000 0 0,1 131.000000,380.200012" fill="none" stroke="#2200aa" stroke-width="0.700000" stroke-linecap="round" />
<path d="M87.000000,415.100006  A1784.000000,1784.000000 0 0,1 37.000000,452.200012" fill="none" stroke="#2200aa" stroke-width="0.700000" stroke-linecap="round" />
<path d="M19.000000,464.899994  A1778.000000,1778.000000 0 0,1 1.000000,477.200012" fill="none" stroke="#2200aa" stroke-width="0.700000" stroke-linecap="round" />
<path d="M220.000000,294.000000  A1778.000000,1778.000000 0 0,1 157.000000,350.600006" fill="none" stroke="#2200aa" stroke-width="0.700000" stroke-linecap="round" />
<path d="M152.000000,354.899994  A1778.000000,1778.000000 0 0,1 131.000000,372.500000" fill="none" stroke="#2200aa" stroke-width="0.700000" stroke-linecap="round" />
<path d="M127.000000,375.700012  A1778.000000,1778.000000 0 0,1 126.000000,376.600006" fill="none" stroke="#2200aa" stroke-width="0.700000" stroke-linecap="round" />
<path d="M82.000000,411.399994  A1778.000000,1778.000000 0 0,1 36.000000,445.500000" fill="none" stroke="#2200aa" stroke-width="0.700000" stroke-linecap="round" />
<path d="M16.000000,459.600006  A1772.000000,1772.000000 0 0,1 1.000000,470.000000" fill="none" stroke="#2200aa" stroke-width="0.700000" stroke-linecap="round" />
<path d="M217.000000,288.600006  A1772.000000,1772.000000 0 0,1 214.000000,291.399994" fill="none" stroke="#2200aa" stroke-width="0.700000" stroke-linecap="round" />
<path d="M213.000000,292.299988  A1772.000000,1772.000000 0 0,1 150.000000,348.700012" fill="none" stroke="#2200aa" stroke-width="0.700000" stroke-linecap="round" />
<path d="M148.000000,350.399994  A1772.000000,1772.000000 0 0,1 146.000000,352.100006" fill="none" stroke="#2200aa" stroke-width="0.700000" stroke-linecap="round" />
<path d="M145.000000,352.899994  A1772.000000,1772.000000 0 0,1 125.000000,369.600006" fill="none" stroke="#2200aa" stroke-width="0.700000" stroke-linecap="round" />
<path d="M78.000000,406.899994  A1772.000000,1772.000000 0 0,1 35.000000,438.799988" fill="none" stroke="#2200aa" stroke-width="0.700000" stroke-linecap="round" />
<path d="M15.000000,453.000000  A1766.000000,1766.000000 0 0,1 1.000000,462.700012" fill="none" stroke="#2200aa" stroke-width="0.700000" stroke-linecap="round" />
<path d="M206.000000,290.700012  A1766.000000,1766.000000 0 0,1 140.000000,349.299988" fill="none" stroke="#2200aa" stroke-width="0.700000" stroke-linecap="round" />
<path d="M134.000000,354.399994  A1766.000000,1766.000000 0 0,1 125.000000,361.899994" fill="none" stroke="#2200aa" stroke-width="0.700000" stroke-linecap="round" />
<path d="M121.000000,365.100006  A1766.000000,1766.000000 0 0,1 119.000000,366.799988" fill="none" stroke="#2200aa" stroke-width="0.700000" stroke-linecap="round" />
<path d="M75.000000,401.700012  A1766.000000,1766.000000 0 0,1 34.000000,432.200012" fill="none" stroke="#2200aa" stroke-width="0.700000" stroke-linecap="round" />
<path d="M15.000000,445.700012  A1760.000000,1760.000000 0 0,1 1.000000,455.399994" fill="none" stroke="#2200aa" stroke-width="0.700000" stroke-linecap="round" />
<path d="M200.000000,288.100006  A1760.000000,1760.000000 0 0,1 199.000000,289.000000" fill="none" stroke="#2200aa" stroke-width="0.700000" stroke-linecap="round" />
<path d="M198.000000,289.899994  A1760.000000,1760.000000 0 0,1 132.000000,348.200012" fill="none" stroke="#2200aa" stroke-width="0.700000" stroke-linecap="round" />
<path d="M101.000000,373.600006  A1760.000000,1760.000000 0 0,1 98.000000,376.000000" fill="none" stroke="#2200aa" stroke-width="0.700000" stroke-linecap="round" />
<path d="M71.000000,397.200012  A1760.000000,1760.000000 0 0,1 33.000000,425.500000" fill="none" stroke="#2200aa" stroke-width="0.700000" stroke-linecap="round" />
<path d="M15.000000,438.399994  A1754.000000,1754.000000 0 0,1 1.000000,448.100006" fill="none" stroke="#2200aa" stroke-width="0.700000" stroke-linecap="round" />
<path d="M187.000000,291.899994  A1754.000000,1754.000000 0 0,1 157.000000,318.899994" fill="none" stroke="#2200aa" stroke-width="0.700000" stroke-linecap="round" />
<path d="M156.000000,319.700012  A1754.000000,1754.000000 0 0,1 155.000000,320.600006" fill="none" stroke="#2200aa" stroke-width="0.700000" stroke-linecap="round" />
<path d="M153.000000,322.299988  A1754.000000,1754.000000 0 0,1 131.000000,341.200012" fill="none" stroke="#2200aa" stroke-width="0.700000" stroke-linecap="round" />
<path d="M94.000000,371.600006  A1754.000000,1754.000000 0 0,1 91.000000,373.899994" fill="none" stroke="#2200aa" stroke-width="0.700000" stroke-linecap="round" />
<path d="M90.000000,374.700012  A1754.000000,1754.000000 0 0,1 87.000000,377.100006" fill="none" stroke="#2200aa" stroke-width="0.700000" stroke-linecap="round" />
<path d="M77.000000,384.899994  A1754.000000,1754.000000 0 0,1 73.000000,388.100006" fill="none" stroke="#2200aa" stroke-width="0.700000" stroke-linecap="round" />
<path d="M67.000000,392.700012  A1754.000000,1754.000000 0 0,1 32.000000,418.799988" fill="none" stroke="#2200aa" stroke-width="0.700000" stroke-linecap="round" />
<path d="M15.000000,431.000000  A1754.000000,1754.000000 0 0,1 14.000000,431.700012" fill="none" stroke="#2200aa" stroke-width="0.700000" stroke-linecap="round" />
<path d="M13.000000,432.399994  A1748.000000,1748.000000 0 0,1 1.000000,440.799988" fill="none" stroke="#2200aa" stroke-width="0.700000" stroke-linecap="round" />
<path d="M187.000000,283.799988  A1748.000000,1748.000000 0 0,1 185.000000,285.600006" fill="none" stroke="#2200aa" stroke-width="0.700000" stroke-linecap="round" />
<path d="M183.000000,287.399994  A1748.000000,1748.000000 0 0,1 181.000000,289.299988" fill="none" stroke="#2200aa" stroke-width="0.700000" stroke-linecap="round" />
<path d="M177.000000,292.899994  A1748.000000,1748.000000 0 0,1 151.000000,316.100006" fill="none" stroke="#2200aa" stroke-width="0.700000" stroke-linecap="round" />
<path d="M143.000000,323.100006  A1748.000000,1748.000000 0 0,1 140.000000,325.700012" fill="none" stroke="#2200aa" stroke-width="0.700000" stroke-linecap="round" />
<path d="M92.000000,365.500000  A1748.000000,1748.000000 0 0,1 89.000000,367.899994" fill="none" stroke="#2200aa" stroke-width="0.700000" stroke-linecap="round" />
<path d="M88.000000,368.700012  A1748.000000,1748.000000 0 0,1 83.000000,372.600006" fill="none" stroke="#2200aa" stroke-width="0.700000" stroke-linecap="round" />
<path d="M80.000000,375.000000  A1748.000000,1748.000000 0 0,1 78.000000,376.600006" fill="none" stroke="#2200aa" stroke-width="0.700000" stroke-linecap="round" />
<path d="M77.000000,377.299988  A1748.000000,1748.000000 0 0,1 30.000000,412.799988" fill="none" stroke="#2200aa" stroke-width="0.700000" stroke-linecap="round" />
<path d="M13.000000,425.100006  A1742.000000,1742.000000 0 0,1 1.000000,433.500000" fill="none" stroke="#2200aa" stroke-width="0.700000" stroke-linecap="round" />
<path d="M172.000000,289.399994  A1742.000000,1742.000000 0 0,1 169.000000,292.100006" fill="none" stroke="#2200aa" stroke-width="0.700000" stroke-linecap="round" />
<path d="M167.000000,293.899994  A1742.000000,1742.000000 0 0,1 166.000000,294.799988" fill="none" stroke="#2200aa" stroke-width="0.700000" stroke-linecap="round" />
<path d="M165.000000,295.700012  A1742.000000,1742.000000 0 0,1 143.000000,315.100006" fill="none" stroke="#2200aa" stroke-width="0.700000" stroke-linecap="round" />
<path d="M139.000000,318.600006  A1742.000000,1742.000000 0 0,1 138.000000,319.500000" fill="none" stroke="#2200aa" stroke-width="0.700000" stroke-linecap="round" />
<path d="M84.000000,364.200012  A1742.000000,1742.000000 0 0,1 73.000000,372.899994" fill="none" stroke="#2200aa" stroke-width="0.700000" stroke-linecap="round" />
<path d="M72.000000,373.600006  A1742.000000,1742.000000 0 0,1 28.000000,406.899994" fill="none" stroke="#2200aa" stroke-width="0.700000" stroke-linecap="round" />
<path d="M14.000000,417.000000  A1742.000000,1742.000000 0 0,1 1.000000,426.200012" fill="none" stroke="#2200aa" stroke-width="0.700000" stroke-linecap="round" />
<path d="M156.000000,295.700012  A1736.000000,1736.000000 0 0,1 133.000000,315.899994" fill="none" stroke="#2200aa" stroke-width="0.700000" stroke-linecap="round" />
<path d="M81.000000,358.899994  A1736.000000,1736.000000 0 0,1 80.000000,359.700012" fill="none" stroke="#2200aa" stroke-width="0.700000" stroke-linecap="round" />
<path d="M76.000000,362.899994  A1736.000000,1736.000000 0 0,1 28.000000,399.399994" fill="none" stroke="#2200aa" stroke-width="0.700000" stroke-linecap="round" />
<path d="M14.000000,409.600006  A1736.000000,1736.000000 0 0,1 2.000000,418.200012" fill="none" stroke="#2200aa" stroke-width="0.700000" stroke-linecap="round" />
<path d="M152.000000,291.200012  A1730.000000,1730.000000 0 0,1 150.000000,293.000000" fill="none" stroke="#2200aa" stroke-width="0.700000" stroke-linecap="round" />
<path d="M146.000000,296.600006  A1730.000000,1730.000000 0 0,1 121.000000,318.200012" fill="none" stroke="#2200aa" stroke-width="0.700000" stroke-linecap="round" />
<path d="M76.000000,355.200012  A1730.000000,1730.000000 0 0,1 69.000000,360.700012" fill="none" stroke="#2200aa" stroke-width="0.700000" stroke-linecap="round" />
<path d="M68.000000,361.500000  A1730.000000,1730.000000 0 0,1 63.000000,365.399994" fill="none" stroke="#2200aa" stroke-width="0.700000" stroke-linecap="round" />
<path d="M62.000000,366.200012  A1730.000000,1730.000000 0 0,1 26.000000,393.399994" fill="none" stroke="#2200aa" stroke-width="0.700000" stroke-linecap="round" />
<path d="M11.000000,404.399994  A1730.000000,1730.000000 0 0,1 3.000000,410.100006" fill="none" stroke="#2200aa" stroke-width="0.700000" stroke-linecap="round" />
<path d="M141.000000,293.000000  A1724.000000,1724.000000 0 0,1 140.000000,293.899994" fill="none" stroke="#2200aa" stroke-width="0.700000" stroke-linecap="round" />
<path d="M135.000000,298.200012  A1724.000000,1724.000000 0 0,1 134.000000,299.100006" fill="none" stroke="#2200aa" stroke-width="0.700000" stroke-linecap="round" />
<path d="M132.000000,300.899994  A1724.000000,1724.000000 0 0,1 109.000000,320.500000" fill="none" stroke="#2200aa" stroke-width="0.700000" stroke-linecap="round" />
<path d="M107.000000,322.200012  A1724.000000,1724.000000 0 0,1 106.000000,323.000000" fill="none" stroke="#2200aa" stroke-width="0.700000" stroke-linecap="round" />
<path d="M80.000000,344.299988  A1724.000000,1724.000000 0 0,1 79.000000,345.100006" fill="none" stroke="#2200aa" stroke-width="0.700000" stroke-linecap="round" />
<path d="M76.000000,347.500000  A1724.000000,1724.000000 0 0,1 75.000000,348.299988" fill="none" stroke="#2200aa" stroke-width="0.700000" stroke-linecap="round" />
<path d="M74.000000,349.100006  A1724.000000,1724.000000 0 0,1 71.000000,351.500000" fill="none" stroke="#2200aa" stroke-width="0.700000" stroke-linecap="round" />
<path d="M67.000000,354.700012  A1724.000000,1724.000000 0 0,1 63.000000,357.799988" fill="none" stroke="#2200aa" stroke-width="0.700000" stroke-linecap="round" />
<path d="M62.000000,358.600006  A1724.000000,1724.000000 0 0,1 57.000000,362.500000" fill="none" stroke="#2200aa" stroke-width="0.700000" stroke-linecap="round" />
<path d="M53.000000,365.600006  A1724.000000,1724.000000 0 0,1 26.000000,386.000000" fill="none" stroke="#2200aa" stroke-width="0.700000" stroke-linecap="round" />
<path d="M11.000000,397.000000  A1724.000000,1724.000000 0 0,1 5.000000,401.299988" fill="none" stroke="#2200aa" stroke-width="0.700000" stroke-linecap="round" />
<path d="M126.000000,298.100006  A1718.000000,1718.000000 0 0,1 125.000000,299.000000" fill="none" stroke="#2200aa" stroke-width="0.700000" stroke-linecap="round" />
<path d="M124.000000,299.899994  A1718.000000,1718.000000 0 0,1 123.000000,300.700012" fill="none" stroke="#2200aa" stroke-width="0.700000" stroke-linecap="round" />
<path d="M121.000000,302.399994  A1718.000000,1718.000000 0 0,1 120.000000,303.299988" fill="none" stroke="#2200aa" stroke-width="0.700000" stroke-linecap="round" />
<path d="M119.000000,304.200012  A1718.000000,1718.000000 0 0,1 91.000000,327.700012" fill="none" stroke="#2200aa" stroke-width="0.700000" stroke-linecap="round" />
<path d="M81.000000,335.799988  A1718.000000,1718.000000 0 0,1 71.000000,343.899994" fill="none" stroke="#2200aa" stroke-width="0.700000" stroke-linecap="round" />
<path d="M65.000000,348.600006  A1718.000000,1718.000000 0 0,1 62.000000,351.000000" fill="none" stroke="#2200aa" stroke-width="0.700000" stroke-linecap="round" />
<path d="M51.000000,359.600006  A1718.000000,1718.000000 0 0,1 24.000000,380.000000" fill="none" stroke="#2200aa" stroke-width="0.700000" stroke-linecap="round" />
<path d="M11.000000,389.600006  A1718.000000,1718.000000 0 0,1 6.000000,393.200012" fill="none" stroke="#2200aa" stroke-width="0.700000" stroke-linecap="round" />
<path d="M112.000000,302.299988  A1712.000000,1712.000000 0 0,1 110.000000,304.000000" fill="none" stroke="#2200aa" stroke-width="0.700000" stroke-linecap="round" />
<path d="M109.000000,304.799988  A1712.000000,1712.000000 0 0,1 59.000000,345.700012" fill="none" stroke="#2200aa" stroke-width="0.700000" stroke-linecap="round" />
<path d="M58.000000,346.500000  A1712.000000,1712.000000 0 0,1 55.000000,348.799988" fill="none" stroke="#2200aa" stroke-width="0.700000" stroke-linecap="round" />
<path d="M53.000000,350.399994  A1712.000000,1712.000000 0 0,1 22.000000,374.000000" fill="none" stroke="#2200aa" stroke-width="0.700000" stroke-linecap="round" />
<path d="M9.000000,383.600006  A1712.000000,1712.000000 0 0,1 8.000000,384.299988" fill="none" stroke="#2200aa" stroke-width="0.700000" stroke-linecap="round" />
<path d="M98.000000,306.299988  A1706.000000,1706.000000 0 0,1 97.000000,307.100006" fill="none" stroke="#2200aa" stroke-width="0.700000" stroke-linecap="round" />
<path d="M92.000000,311.299988  A1706.000000,1706.000000 0 0,1 89.000000,313.799988" fill="none" stroke="#2200aa" stroke-width="0.700000" stroke-linecap="round" />
<path d="M84.000000,317.899994  A1706.000000,1706.000000 0 0,1 22.000000,366.500000" fill="none" stroke="#2200aa" stroke-width="0.700000" stroke-linecap="round" />
<path d="M75.000000,317.500000  A1700.000000,1700.000000 0 0,1 74.000000,318.299988" fill="none" stroke="#2200aa" stroke-width="0.700000" stroke-linecap="round" />
<path d="M73.000000,319.100006  A1700.000000,1700.000000 0 0,1 72.000000,320.000000" fill="none" stroke="#2200aa" stroke-width="0.700000" stroke-linecap="round" />
<path d="M67.000000,324.000000  A1700.000000,1700.000000 0 0,1 65.000000,325.600006" fill="none" stroke="#2200aa" stroke-width="0.700000" stroke-linecap="round" />
<path d="M63.000000,327.200012  A1700.000000,1700.000000 0 0,1 20.000000,360.500000" fill="none" stroke="#2200aa" stroke-width="0.700000" stroke-linecap="round" />
<path d="M39.000000,338.500000  A1694.000000,1694.000000 0 0,1 38.000000,339.299988" fill="none" stroke="#2200aa" stroke-width="0.700000" stroke-linecap="round" />
<path d="M35.000000,341.600006  A1694.000000,1694.000000 0 0,1 19.000000,353.799988" fill="none" stroke="#2200aa" stroke-width="0.700000" stroke-linecap="round" />
<path d="M33.000000,335.600006  A1688.000000,1688.000000 0 0,1 19.000000,346.299988" fill="none" stroke="#2200aa" stroke-width="0.700000" stroke-linecap="round" />
<path d="M30.000000,330.299988  A1682.000000,1682.000000 0 0,1 17.000000,340.299988" fill="none" stroke="#2200aa" stroke-width="0.700000" stroke-linecap="round" />
<path d="M29.000000,323.500000  A1676.000000,1676.000000 0 0,1 16.000000,333.500000" fill="none" stroke="#2200aa" stroke-width="0.700000" stroke-linecap="round" />
<path d="M37.000000,309.600006  A1670.000000,1670.000000 0 0,1 36.000000,310.399994" fill="none" stroke="#2200aa" stroke-width="0.700000" stroke-linecap="round" />
<path d="M29.000000,315.899994  A1670.000000,1670.000000 0 0,1 13.000000,328.200012" fill="none" stroke="#2200aa" stroke-width="0.700000" stroke-linecap="round" />
<path d="M29.000000,308.200012  A1664.000000,1664.000000 0 0,1 22.000000,313.700012" fill="none" stroke="#2200aa" stroke-width="0.700000" stroke-linecap="round" />
<path d="M20.000000,315.299988  A1664.000000,1664.000000 0 0,1 10.000000,323.000000" fill="none" stroke="#2200aa" stroke-width="0.700000" stroke-linecap="round" />
<path d="M26.000000,303.000000  A1658.000000,1658.000000 0 0,1 20.000000,307.700012" fill="none" stroke="#2200aa" stroke-width="0.700000" stroke-linecap="round" />
<path d="M16.000000,310.799988  A1658.000000,1658.000000 0 0,1 10.000000,315.399994" fill="none" stroke="#2200aa" stroke-width="0.700000" stroke-linecap="round" />
<path d="M26.000000,295.299988  A1652.000000,1652.000000 0 0,1 15.000000,304.000000" fill="none" stroke="#2200aa" stroke-width="0.700000" stroke-linecap="round" />
<path d="M11.000000,307.100006  A1652.000000,1652.000000 0 0,1 10.000000,307.799988" fill="none" stroke="#2200aa" stroke-width="0.700000" stroke-linecap="round" />
<path d="M26.000000,287.700012  A1646.000000,1646.000000 0 0,1 9.000000,301.000000" fill="none" stroke="#2200aa" stroke-width="0.700000" stroke-linecap="round" />
<path d="M22.000000,283.200012  A1640.000000,1640.000000 0 0,1 6.000000,295.700012" fill="none" stroke="#2200aa" stroke-width="0.700000" stroke-linecap="round" />
<path d="M26.000000,272.299988  A1634.000000,1634.000000 0 0,1 25.000000,273.100006" fill="none" stroke="#2200aa" stroke-width="0.700000" stroke-linecap="round" />
<path d="M24.000000,273.899994  A1634.000000,1634.000000 0 0,1 11.000000,284.200012" fill="none" stroke="#2200aa" stroke-width="0.700000" stroke-linecap="round" />
<path d="M25.000000,265.399994  A1628.000000,1628.000000 0 0,1 20.000000,269.399994" fill="none" stroke="#2200aa" stroke-width="0.700000" stroke-linecap="round" />
<path d="M23.000000,251.500000  A1616.000000,1616.000000 0 0,1 22.000000,252.300003" fill="none" stroke="#2200aa" stroke-width="0.700000" stroke-linecap="round" />
<path d="M22.000000,244.600006  A1610.000000,1610.000000 0 0,1 20.000000,246.199997" fill="none" stroke="#2200aa" stroke-width="0.700000" stroke-linecap="round" />
<path d="M137.000000,624.400024  A1664.000000,1664.000000 0 0,1 116.000000,619.500000" fill="none" stroke="#2200aa" stroke-width="0.700000" stroke-linecap="round" />
<path d="M151.000000,621.299988  A1658.000000,1658.000000 0 0,1 129.000000,616.400024" fill="none" stroke="#2200aa" stroke-width="0.700000" stroke-linecap="round" />
<path d="M126.000000,615.700012  A1658.000000,1658.000000 0 0,1 119.000000,614.099976" fill="none" stroke="#2200aa" stroke-width="0.700000" stroke-linecap="round" />
<path d="M157.000000,616.400024  A1652.000000,1652.000000 0 0,1 152.000000,615.400024" fill="none" stroke="#2200aa" stroke-width="0.700000" stroke-linecap="round" />
<path d="M150.000000,614.900024  A1652.000000,1652.000000 0 0,1 125.000000,609.299988" fill="none" stroke="#2200aa" stroke-width="0.700000" stroke-linecap="round" />
<path d="M165.000000,612.000000  A1646.000000,1646.000000 0 0,1 152.000000,609.200012" fill="none" stroke="#2200aa" stroke-width="0.700000" stroke-linecap="round" />
<path d="M140.000000,606.599976  A1646.000000,1646.000000 0 0,1 139.000000,606.400024" fill="none" stroke="#2200aa" stroke-width="0.700000" stroke-linecap="round" />
<path d="M138.000000,606.099976  A1646.000000,1646.000000 0 0,1 121.000000,602.200012" fill="none" stroke="#2200aa" stroke-width="0.700000" stroke-linecap="round" />
<path d="M174.000000,607.700012  A1640.000000,1640.000000 0 0,1 172.000000,607.299988" fill="none" stroke="#2200aa" stroke-width="0.700000" stroke-linecap="round" />
<path d="M171.000000,607.099976  A1640.000000,1640.000000 0 0,1 152.000000,603.099976" fill="none" stroke="#2200aa" stroke-width="0.700000" stroke-linecap="round" />
<path d="M174.000000,601.599976  A1634.000000,1634.000000 0 0,1 151.000000,596.700012" fill="none" stroke="#2200aa" stroke-width="0.700000" stroke-linecap="round" />
<path d="M180.000000,596.700012  A1628.000000,1628.000000 0 0,1 165.000000,593.599976" fill="none" stroke="#2200aa" stroke-width="0.700000" stroke-linecap="round" />
<path d="M162.000000,593.000000  A1628.000000,1628.000000 0 0,1 146.000000,589.500000" fill="none" stroke="#2200aa" stroke-width="0.700000" stroke-linecap="round" />
<path d="M184.000000,591.400024  A1622.000000,1622.000000 0 0,1 173.000000,589.099976" fill="none" stroke="#2200aa" stroke-width="0.700000" stroke-linecap="round" />
<path d="M160.000000,586.400024  A1622.000000,1622.000000 0 0,1 140.000000,582.000000" fill="none" stroke="#2200aa" stroke-width="0.700000" stroke-linecap="round" />
<path d="M160.000000,580.299988  A1616.000000,1616.000000 0 0,1 135.000000,574.700012" fill="none" stroke="#2200aa" stroke-width="0.700000" stroke-linecap="round" />
<path d="M163.000000,574.799988  A1610.000000,1610.000000 0 0,1 162.000000,574.599976" fill="none" stroke="#2200aa" stroke-width="0.700000" stroke-linecap="round" />
<path d="M160.000000,574.099976  A1610.000000,1610.000000 0 0,1 159.000000,573.900024" fill="none" stroke="#2200aa" stroke-width="0.700000" stroke-linecap="round" />
<path d="M158.000000,573.700012  A1610.000000,1610.000000 0 0,1 131.000000,567.599976" fill="none" stroke="#2200aa" stroke-width="0.700000" stroke-linecap="round" />
<path d="M162.000000,568.400024  A1604.000000,1604.000000 0 0,1 115.000000,557.500000" fill="none" stroke="#2200aa" stroke-width="0.700000" stroke-linecap="round" />
<path d="M165.000000,562.900024  A1598.000000,1598.000000 0 0,1 108.000000,549.599976" fill="none" stroke="#2200aa" stroke-width="0.700000" stroke-linecap="round" />
<path d="M107.000000,549.400024  A1598.000000,1598.000000 0 0,1 105.000000,548.900024" fill="none" stroke="#2200aa" stroke-width="0.700000" stroke-linecap="round" />
<path d="M169.000000,557.599976  A1592.000000,1592.000000 0 0,1 98.000000,540.900024" fill="none" stroke="#2200aa" stroke-width="0.700000" stroke-linecap="round" />
<path d="M173.000000,552.400024  A1586.000000,1586.000000 0 0,1 92.000000,533.099976" fill="none" stroke="#2200aa" stroke-width="0.700000" stroke-linecap="round" />
<path d="M198.000000,551.299988  A1580.000000,1580.000000 0 0,1 197.000000,551.099976" fill="none" stroke="#2200aa" stroke-width="0.700000" stroke-linecap="round" />
<path d="M196.000000,550.900024  A1580.000000,1580.000000 0 0,1 87.000000,525.500000" fill="none" stroke="#2200aa" stroke-width="0.700000" stroke-linecap="round" />
<path d="M86.000000,525.200012  A1580.000000,1580.000000 0 0,1 85.000000,525.000000" fill="none" stroke="#2200aa" stroke-width="0.700000" stroke-linecap="round" />
<path d="M196.000000,544.799988  A1574.000000,1574.000000 0 0,1 78.000000,516.799988" fill="none" stroke="#2200aa" stroke-width="0.700000" stroke-linecap="round" />
<path d="M197.000000,538.900024  A1568.000000,1568.000000 0 0,1 187.000000,536.900024" fill="none" stroke="#2200aa" stroke-width="0.700000" stroke-linecap="round" />
<path d="M181.000000,535.599976  A1568.000000,1568.000000 0 0,1 180.000000,535.400024" fill="none" stroke="#2200aa" stroke-width="0.700000" stroke-linecap="round" />
<path d="M163.000000,531.799988  A1568.000000,1568.000000 0 0,1 160.000000,531.099976" fill="none" stroke="#2200aa" stroke-width="0.700000" stroke-linecap="round" />
<path d="M159.000000,530.900024  A1568.000000,1568.000000 0 0,1 67.000000,507.500000" fill="none" stroke="#2200aa" stroke-width="0.700000" stroke-linecap="round" />
<path d="M66.000000,507.200012  A1568.000000,1568.000000 0 0,1 65.000000,506.899994" fill="none" stroke="#2200aa" stroke-width="0.700000" stroke-linecap="round" />
<path d="M162.000000,525.400024  A1562.000000,1562.000000 0 0,1 51.000000,496.500000" fill="none" stroke="#2200aa" stroke-width="0.700000" stroke-linecap="round" />
<path d="M50.000000,496.200012  A1562.000000,1562.000000 0 0,1 49.000000,495.899994" fill="none" stroke="#2200aa" stroke-width="0.700000" stroke-linecap="round" />
<path d="M227.000000,532.299988  A1556.000000,1556.000000 0 0,1 224.000000,531.799988" fill="none" stroke="#2200aa" stroke-width="0.700000" stroke-linecap="round" />
<path d="M163.000000,519.500000  A1556.000000,1556.000000 0 0,1 153.000000,517.299988" fill="none" stroke="#2200aa" stroke-width="0.700000" stroke-linecap="round" />
<path d="M150.000000,516.599976  A1556.000000,1556.000000 0 0,1 47.000000,489.000000" fill="none" stroke="#2200aa" stroke-width="0.700000" stroke-linecap="round" />
<path d="M233.000000,527.299988  A1550.000000,1550.000000 0 0,1 227.000000,526.200012" fill="none" stroke="#2200aa" stroke-width="0.700000" stroke-linecap="round" />
<path d="M165.000000,513.799988  A1550.000000,1550.000000 0 0,1 159.000000,512.500000" fill="none" stroke="#2200aa" stroke-width="0.700000" stroke-linecap="round" />
<path d="M144.000000,509.000000  A1550.000000,1550.000000 0 0,1 46.000000,482.500000" fill="none" stroke="#2200aa" stroke-width="0.700000" stroke-linecap="round" />
<path d="M148.000000,503.799988  A1544.000000,1544.000000 0 0,1 147.000000,503.500000" fill="none" stroke="#2200aa" stroke-width="0.700000" stroke-linecap="round" />
<path d="M143.000000,502.600006  A1544.000000,1544.000000 0 0,1 44.000000,475.600006" fill="none" stroke="#2200aa" stroke-width="0.700000" stroke-linecap="round" />
<path d="M156.000000,499.500000  A1538.000000,1538.000000 0 0,1 155.000000,499.200012" fill="none" stroke="#2200aa" stroke-width="0.700000" stroke-linecap="round" />
<path d="M150.000000,498.100006  A1538.000000,1538.000000 0 0,1 43.000000,469.000000" fill="none" stroke="#2200aa" stroke-width="0.700000" stroke-linecap="round" />
<path d="M155.000000,493.100006  A1532.000000,1532.000000 0 0,1 152.000000,492.399994" fill="none" stroke="#2200aa" stroke-width="0.700000" stroke-linecap="round" />
<path d="M147.000000,491.200012  A1532.000000,1532.000000 0 0,1 144.000000,490.500000" fill="none" stroke="#2200aa" stroke-width="0.700000" stroke-linecap="round" />
<path d="M131.000000,487.299988  A1532.000000,1532.000000 0 0,1 41.000000,462.100006" fill="none" stroke="#2200aa" stroke-width="0.700000" stroke-linecap="round" />
<path d="M151.000000,486.000000  A1526.000000,1526.000000 0 0,1 150.000000,485.799988" fill="none" stroke="#2200aa" stroke-width="0.700000" stroke-linecap="round" />
<path d="M135.000000,482.100006  A1526.000000,1526.000000 0 0,1 134.000000,481.899994" fill="none" stroke="#2200aa" stroke-width="0.700000" stroke-linecap="round" />
<path d="M131.000000,481.200012  A1526.000000,1526.000000 0 0,1 121.000000,478.600006" fill="none" stroke="#2200aa" stroke-width="0.700000" stroke-linecap="round" />
<path d="M117.000000,477.600006  A1526.000000,1526.000000 0 0,1 41.000000,455.799988" fill="none" stroke="#2200aa" stroke-width="0.700000" stroke-linecap="round" />
<path d="M225.000000,495.399994  A1520.000000,1520.000000 0 0,1 218.000000,494.000000" fill="none" stroke="#2200aa" stroke-width="0.700000" stroke-linecap="round" />
<path d="M198.000000,490.100006  A1520.000000,1520.000000 0 0,1 197.000000,489.899994" fill="none" stroke="#2200aa" stroke-width="0.700000" stroke-linecap="round" />
<path d="M190.000000,488.500000  A1520.000000,1520.000000 0 0,1 187.000000,487.899994" fill="none" stroke="#2200aa" stroke-width="0.700000" stroke-linecap="round" />
<path d="M185.000000,487.399994  A1520.000000,1520.000000 0 0,1 184.000000,487.200012" fill="none" stroke="#2200aa" stroke-width="0.700000" stroke-linecap="round" />
<path d="M138.000000,476.700012  A1520.000000,1520.000000 0 0,1 129.000000,474.500000" fill="none" stroke="#2200aa" stroke-width="0.700000" stroke-linecap="round" />
<path d="M126.000000,473.700012  A1520.000000,1520.000000 0 0,1 121.000000,472.399994" fill="none" stroke="#2200aa" stroke-width="0.700000" stroke-linecap="round" />
<path d="M119.000000,471.899994  A1520.000000,1520.000000 0 0,1 114.000000,470.600006" fill="none" stroke="#2200aa" stroke-width="0.700000" stroke-linecap="round" />
<path d="M113.000000,470.399994  A1520.000000,1520.000000 0 0,1 110.000000,469.600006" fill="none" stroke="#2200aa" stroke-width="0.700000" stroke-linecap="round" />
<path d="M103.000000,467.700012  A1520.000000,1520.000000 0 0,1 98.000000,466.299988" fill="none" stroke="#2200aa" stroke-width="0.700000" stroke-linecap="round" />
<path d="M90.000000,464.100006  A1520.000000,1520.000000 0 0,1 89.000000,463.799988" fill="none" stroke="#2200aa" stroke-width="0.700000" stroke-linecap="round" />
<path d="M88.000000,463.500000  A1520.000000,1520.000000 0 0,1 40.000000,449.200012" fill="none" stroke="#2200aa" stroke-width="0.700000" stroke-linecap="round" />
<path d="M224.000000,489.100006  A1514.000000,1514.000000 0 0,1 213.000000,487.000000" fill="none" stroke="#2200aa" stroke-width="0.700000" stroke-linecap="round" />
<path d="M202.000000,484.799988  A1514.000000,1514.000000 0 0,1 193.000000,483.000000" fill="none" stroke="#2200aa" stroke-width="0.700000" stroke-linecap="round" />
<path d="M143.000000,471.700012  A1514.000000,1514.000000 0 0,1 140.000000,471.000000" fill="none" stroke="#2200aa" stroke-width="0.700000" stroke-linecap="round" />
<path d="M138.000000,470.500000  A1514.000000,1514.000000 0 0,1 137.000000,470.299988" fill="none" stroke="#2200aa" stroke-width="0.700000" stroke-linecap="round" />
<path d="M84.000000,456.200012  A1514.000000,1514.000000 0 0,1 83.000000,455.899994" fill="none" stroke="#2200aa" stroke-width="0.700000" stroke-linecap="round" />
<path d="M80.000000,455.000000  A1514.000000,1514.000000 0 0,1 37.000000,441.899994" fill="none" stroke="#2200aa" stroke-width="0.700000" stroke-linecap="round" />
<path d="M266.000000,490.200012  A1508.000000,1508.000000 0 0,1 262.000000,489.500000" fill="none" stroke="#2200aa" stroke-width="0.700000" stroke-linecap="round" />
<path d="M221.000000,482.399994  A1508.000000,1508.000000 0 0,1 208.000000,479.899994" fill="none" stroke="#2200aa" stroke-width="0.700000" stroke-linecap="round" />
<path d="M204.000000,479.100006  A1508.000000,1508.000000 0 0,1 193.000000,476.899994" fill="none" stroke="#2200aa" stroke-width="0.700000" stroke-linecap="round" />
<path d="M75.000000,447.299988  A1508.000000,1508.000000 0 0,1 73.000000,446.700012" fill="none" stroke="#2200aa" stroke-width="0.700000" stroke-linecap="round" />
<path d="M71.000000,446.100006  A1508.000000,1508.000000 0 0,1 37.000000,435.600006" fill="none" stroke="#2200aa" stroke-width="0.700000" stroke-linecap="round" />
<path d="M274.000000,485.299988  A1502.000000,1502.000000 0 0,1 272.000000,485.000000" fill="none" stroke="#2200aa" stroke-width="0.700000" stroke-linecap="round" />
<path d="M270.000000,484.700012  A1502.000000,1502.000000 0 0,1 265.000000,483.899994" fill="none" stroke="#2200aa" stroke-width="0.700000" stroke-linecap="round" />
<path d="M222.000000,476.500000  A1502.000000,1502.000000 0 0,1 196.000000,471.399994" fill="none" stroke="#2200aa" stroke-width="0.700000" stroke-linecap="round" />
<path d="M65.000000,438.100006  A1502.000000,1502.000000 0 0,1 35.000000,428.700012" fill="none" stroke="#2200aa" stroke-width="0.700000" stroke-linecap="round" />
<path d="M277.000000,479.700012  A1496.000000,1496.000000 0 0,1 266.000000,478.000000" fill="none" stroke="#2200aa" stroke-width="0.700000" stroke-linecap="round" />
<path d="M225.000000,470.899994  A1496.000000,1496.000000 0 0,1 193.000000,464.600006" fill="none" stroke="#2200aa" stroke-width="0.700000" stroke-linecap="round" />
<path d="M187.000000,463.299988  A1496.000000,1496.000000 0 0,1 175.000000,460.700012" fill="none" stroke="#2200aa" stroke-width="0.700000" stroke-linecap="round" />
<path d="M60.000000,430.299988  A1496.000000,1496.000000 0 0,1 34.000000,422.000000" fill="none" stroke="#2200aa" stroke-width="0.700000" stroke-linecap="round" />
<path d="M276.000000,473.500000  A1490.000000,1490.000000 0 0,1 267.000000,472.100006" fill="none" stroke="#2200aa" stroke-width="0.700000" stroke-linecap="round" />
<path d="M217.000000,463.299988  A1490.000000,1490.000000 0 0,1 205.000000,460.899994" fill="none" stroke="#2200aa" stroke-width="0.700000" stroke-linecap="round" />
<path d="M202.000000,460.299988  A1490.000000,1490.000000 0 0,1 174.000000,454.299988" fill="none" stroke="#2200aa" stroke-width="0.700000" stroke-linecap="round" />
<path d="M160.000000,451.100006  A1490.000000,1490.000000 0 0,1 159.000000,450.899994" fill="none" stroke="#2200aa" stroke-width="0.700000" stroke-linecap="round" />
<path d="M53.000000,421.799988  A1490.000000,1490.000000 0 0,1 33.000000,415.399994" fill="none" stroke="#2200aa" stroke-width="0.700000" stroke-linecap="round" />
<path d="M274.000000,467.100006  A1484.000000,1484.000000 0 0,1 268.000000,466.200012" fill="none" stroke="#2200aa" stroke-width="0.700000" stroke-linecap="round" />
<path d="M245.000000,462.399994  A1484.000000,1484.000000 0 0,1 241.000000,461.700012" fill="none" stroke="#2200aa" stroke-width="0.700000" stroke-linecap="round" />
<path d="M194.000000,452.500000  A1484.000000,1484.000000 0 0,1 190.000000,451.700012" fill="none" stroke="#2200aa" stroke-width="0.700000" stroke-linecap="round" />
<path d="M49.000000,414.299988  A1484.000000,1484.000000 0 0,1 32.000000,408.700012" fill="none" stroke="#2200aa" stroke-width="0.700000" stroke-linecap="round" />
<path d="M245.000000,456.299988  A1478.000000,1478.000000 0 0,1 235.000000,454.500000" fill="none" stroke="#2200aa" stroke-width="0.700000" stroke-linecap="round" />
<path d="M46.000000,407.000000  A1478.000000,1478.000000 0 0,1 30.000000,401.700012" fill="none" stroke="#2200aa" stroke-width="0.700000" stroke-linecap="round" />
<path d="M246.000000,450.399994  A1472.000000,1472.000000 0 0,1 235.000000,448.399994" fill="none" stroke="#2200aa" stroke-width="0.700000" stroke-linecap="round" />
<path d="M234.000000,448.200012  A1472.000000,1472.000000 0 0,1 233.000000,448.000000" fill="none" stroke="#2200aa" stroke-width="0.700000" stroke-linecap="round" />
<path d="M229.000000,447.299988  A1472.000000,1472.000000 0 0,1 225.000000,446.500000" fill="none" stroke="#2200aa" stroke-width="0.700000" stroke-linecap="round" />
<path d="M43.000000,399.700012  A1472.000000,1472.000000 0 0,1 29.000000,395.100006" fill="none" stroke="#2200aa" stroke-width="0.700000" stroke-linecap="round" />
<path d="M275.000000,449.100006  A1466.000000,1466.000000 0 0,1 265.000000,447.500000" fill="none" stroke="#2200aa" stroke-width="0.700000" stroke-linecap="round" />
<path d="M229.000000,441.200012  A1466.000000,1466.000000 0 0,1 224.000000,440.200012" fill="none" stroke="#2200aa" stroke-width="0.700000" stroke-linecap="round" />
<path d="M41.000000,392.700012  A1466.000000,1466.000000 0 0,1 28.000000,388.399994" fill="none" stroke="#2200aa" stroke-width="0.700000" stroke-linecap="round" />
<path d="M287.000000,444.799988  A1460.000000,1460.000000 0 0,1 262.000000,440.899994" fill="none" stroke="#2200aa" stroke-width="0.700000" stroke-linecap="round" />
<path d="M227.000000,434.700012  A1460.000000,1460.000000 0 0,1 220.000000,433.299988" fill="none" stroke="#2200aa" stroke-width="0.700000" stroke-linecap="round" />
<path d="M215.000000,432.299988  A1460.000000,1460.000000 0 0,1 214.000000,432.100006" fill="none" stroke="#2200aa" stroke-width="0.700000" stroke-linecap="round" />
<path d="M40.000000,386.100006  A1460.000000,1460.000000 0 0,1 26.000000,381.399994" fill="none" stroke="#2200aa" stroke-width="0.700000" stroke-linecap="round" />
<path d="M285.000000,438.399994  A1454.000000,1454.000000 0 0,1 259.000000,434.299988" fill="none" stroke="#2200aa" stroke-width="0.700000" stroke-linecap="round" />
<path d="M258.000000,434.200012  A1454.000000,1454.000000 0 0,1 252.000000,433.100006" fill="none" stroke="#2200aa" stroke-width="0.700000" stroke-linecap="round" />
<path d="M229.000000,429.000000  A1454.000000,1454.000000 0 0,1 204.000000,424.000000" fill="none" stroke="#2200aa" stroke-width="0.700000" stroke-linecap="round" />
<path d="M38.000000,379.100006  A1454.000000,1454.000000 0 0,1 26.000000,375.000000" fill="none" stroke="#2200aa" stroke-width="0.700000" stroke-linecap="round" />
<path d="M289.000000,433.000000  A1448.000000,1448.000000 0 0,1 261.000000,428.600006" fill="none" stroke="#2200aa" stroke-width="0.700000" stroke-linecap="round" />
<path d="M254.000000,427.399994  A1448.000000,1448.000000 0 0,1 252.000000,427.000000" fill="none" stroke="#2200aa" stroke-width="0.700000" stroke-linecap="round" />
<path d="M224.000000,421.899994  A1448.000000,1448.000000 0 0,1 216.000000,420.299988" fill="none" stroke="#2200aa" stroke-width="0.700000" stroke-linecap="round" />
<path d="M208.000000,418.700012  A1448.000000,1448.000000 0 0,1 200.000000,417.000000" fill="none" stroke="#2200aa" stroke-width="0.700000" stroke-linecap="round" />
<path d="M38.000000,372.799988  A1448.000000,1448.000000 0 0,1 25.000000,368.299988" fill="none" stroke="#2200aa" stroke-width="0.700000" stroke-linecap="round" />
<path d="M296.000000,427.899994  A1442.000000,1442.000000 0 0,1 287.000000,426.600006" fill="none" stroke="#2200aa" stroke-width="0.700000" stroke-linecap="round" />
<path d="M284.000000,426.200012  A1442.000000,1442.000000 0 0,1 252.000000,420.899994" fill="none" stroke="#2200aa" stroke-width="0.700000" stroke-linecap="round" />
<path d="M208.000000,412.600006  A1442.000000,1442.000000 0 0,1 202.000000,411.299988" fill="none" stroke="#2200aa" stroke-width="0.700000" stroke-linecap="round" />
<path d="M40.000000,367.100006  A1442.000000,1442.000000 0 0,1 26.000000,362.299988" fill="none" stroke="#2200aa" stroke-width="0.700000" stroke-linecap="round" />
<path d="M25.000000,362.000000  A1442.000000,1442.000000 0 0,1 24.000000,361.600006" fill="none" stroke="#2200aa" stroke-width="0.700000" stroke-linecap="round" />
<path d="M297.000000,422.000000  A1436.000000,1436.000000 0 0,1 290.000000,421.000000" fill="none" stroke="#2200aa" stroke-width="0.700000" stroke-linecap="round" />
<path d="M277.000000,419.000000  A1436.000000,1436.000000 0 0,1 267.000000,417.399994" fill="none" stroke="#2200aa" stroke-width="0.700000" stroke-linecap="round" />
<path d="M260.000000,416.200012  A1436.000000,1436.000000 0 0,1 252.000000,414.899994" fill="none" stroke="#2200aa" stroke-width="0.700000" stroke-linecap="round" />
<path d="M208.000000,406.399994  A1436.000000,1436.000000 0 0,1 202.000000,405.200012" fill="none" stroke="#2200aa" stroke-width="0.700000" stroke-linecap="round" />
<path d="M41.000000,361.100006  A1436.000000,1436.000000 0 0,1 30.000000,357.399994" fill="none" stroke="#2200aa" stroke-width="0.700000" stroke-linecap="round" />
<path d="M29.000000,357.000000  A1436.000000,1436.000000 0 0,1 28.000000,356.700012" fill="none" stroke="#2200aa" stroke-width="0.700000" stroke-linecap="round" />
<path d="M26.000000,356.000000  A1436.000000,1436.000000 0 0,1 25.000000,355.600006" fill="none" stroke="#2200aa" stroke-width="0.700000" stroke-linecap="round" />
<path d="M24.000000,355.299988  A1436.000000,1436.000000 0 0,1 22.000000,354.600006" fill="none" stroke="#2200aa" stroke-width="0.700000" stroke-linecap="round" />
<path d="M21.000000,354.200012  A1436.000000,1436.000000 0 0,1 20.000000,353.899994" fill="none" stroke="#2200aa" stroke-width="0.700000" stroke-linecap="round" />
<path d="M296.000000,415.799988  A1430.000000,1430.000000 0 0,1 293.000000,415.399994" fill="none" stroke="#2200aa" stroke-width="0.700000" stroke-linecap="round" />
<path d="M279.000000,413.299988  A1430.000000,1430.000000 0 0,1 269.000000,411.700012" fill="none" stroke="#2200aa" stroke-width="0.700000" stroke-linecap="round" />
<path d="M256.000000,409.500000  A1430.000000,1430.000000 0 0,1 252.000000,408.799988" fill="none" stroke="#2200aa" stroke-width="0.700000" stroke-linecap="round" />
<path d="M213.000000,401.299988  A1430.000000,1430.000000 0 0,1 208.000000,400.299988" fill="none" stroke="#2200aa" stroke-width="0.700000" stroke-linecap="round" />
<path d="M43.000000,355.500000  A1430.000000,1430.000000 0 0,1 35.000000,352.700012" fill="none" stroke="#2200aa" stroke-width="0.700000" stroke-linecap="round" />
<path d="M29.000000,350.700012  A1430.000000,1430.000000 0 0,1 20.000000,347.500000" fill="none" stroke="#2200aa" stroke-width="0.700000" stroke-linecap="round" />
<path d="M296.000000,409.700012  A1424.000000,1424.000000 0 0,1 295.000000,409.600006" fill="none" stroke="#2200aa" stroke-width="0.700000" stroke-linecap="round" />
<path d="M279.000000,407.200012  A1424.000000,1424.000000 0 0,1 265.000000,404.899994" fill="none" stroke="#2200aa" stroke-width="0.700000" stroke-linecap="round" />
<path d="M262.000000,404.399994  A1424.000000,1424.000000 0 0,1 252.000000,402.700012" fill="none" stroke="#2200aa" stroke-width="0.700000" stroke-linecap="round" />
<path d="M251.000000,402.500000  A1424.000000,1424.000000 0 0,1 248.000000,402.000000" fill="none" stroke="#2200aa" stroke-width="0.700000" stroke-linecap="round" />
<path d="M47.000000,350.500000  A1424.000000,1424.000000 0 0,1 41.000000,348.399994" fill="none" stroke="#2200aa" stroke-width="0.700000" stroke-linecap="round" />
<path d="M28.000000,344.000000  A1424.000000,1424.000000 0 0,1 20.000000,341.100006" fill="none" stroke="#2200aa" stroke-width="0.700000" stroke-linecap="round" />
<path d="M299.000000,404.100006  A1418.000000,1418.000000 0 0,1 296.000000,403.700012" fill="none" stroke="#2200aa" stroke-width="0.700000" stroke-linecap="round" />
<path d="M279.000000,401.100006  A1418.000000,1418.000000 0 0,1 266.000000,399.000000" fill="none" stroke="#2200aa" stroke-width="0.700000" stroke-linecap="round" />
<path d="M263.000000,398.500000  A1418.000000,1418.000000 0 0,1 261.000000,398.100006" fill="none" stroke="#2200aa" stroke-width="0.700000" stroke-linecap="round" />
<path d="M51.000000,345.500000  A1418.000000,1418.000000 0 0,1 47.000000,344.100006" fill="none" stroke="#2200aa" stroke-width="0.700000" stroke-linecap="round" />
<path d="M26.000000,336.899994  A1418.000000,1418.000000 0 0,1 24.000000,336.200012" fill="none" stroke="#2200aa" stroke-width="0.700000" stroke-linecap="round" />
<path d="M20.000000,334.700012  A1418.000000,1418.000000 0 0,1 19.000000,334.399994" fill="none" stroke="#2200aa" stroke-width="0.700000" stroke-linecap="round" />
<path d="M302.000000,398.500000  A1412.000000,1412.000000 0 0,1 297.000000,397.799988" fill="none" stroke="#2200aa" stroke-width="0.700000" stroke-linecap="round" />
<path d="M279.000000,395.000000  A1412.000000,1412.000000 0 0,1 270.000000,393.600006" fill="none" stroke="#2200aa" stroke-width="0.700000" stroke-linecap="round" />
<path d="M210.000000,382.299988  A1412.000000,1412.000000 0 0,1 208.000000,381.899994" fill="none" stroke="#2200aa" stroke-width="0.700000" stroke-linecap="round" />
<path d="M57.000000,341.200012  A1412.000000,1412.000000 0 0,1 51.000000,339.200012" fill="none" stroke="#2200aa" stroke-width="0.700000" stroke-linecap="round" />
<path d="M15.000000,326.500000  A1412.000000,1412.000000 0 0,1 13.000000,325.799988" fill="none" stroke="#2200aa" stroke-width="0.700000" stroke-linecap="round" />
<path d="M303.000000,392.600006  A1406.000000,1406.000000 0 0,1 299.000000,392.000000" fill="none" stroke="#2200aa" stroke-width="0.700000" stroke-linecap="round" />
<path d="M279.000000,389.000000  A1406.000000,1406.000000 0 0,1 272.000000,387.799988" fill="none" stroke="#2200aa" stroke-width="0.700000" stroke-linecap="round" />
<path d="M222.000000,378.700012  A1406.000000,1406.000000 0 0,1 198.000000,373.600006" fill="none" stroke="#2200aa" stroke-width="0.700000" stroke-linecap="round" />
<path d="M197.000000,373.399994  A1406.000000,1406.000000 0 0,1 196.000000,373.200012" fill="none" stroke="#2200aa" stroke-width="0.700000" stroke-linecap="round" />
<path d="M64.000000,337.100006  A1406.000000,1406.000000 0 0,1 55.000000,334.200012" fill="none" stroke="#2200aa" stroke-width="0.700000" stroke-linecap="round" />
<path d="M306.000000,386.899994  A1400.000000,1400.000000 0 0,1 301.000000,386.200012" fill="none" stroke="#2200aa" stroke-width="0.700000" stroke-linecap="round" />
<path d="M277.000000,382.600006  A1400.000000,1400.000000 0 0,1 268.000000,381.100006" fill="none" stroke="#2200aa" stroke-width="0.700000" stroke-linecap="round" />
<path d="M227.000000,373.600006  A1400.000000,1400.000000 0 0,1 180.000000,363.399994" fill="none" stroke="#2200aa" stroke-width="0.700000" stroke-linecap="round" />
<path d="M72.000000,333.399994  A1400.000000,1400.000000 0 0,1 63.000000,330.500000" fill="none" stroke="#2200aa" stroke-width="0.700000" stroke-linecap="round" />
<path d="M368.000000,388.200012  A1394.000000,1394.000000 0 0,1 360.000000,387.399994" fill="none" stroke="#2200aa" stroke-width="0.700000" stroke-linecap="round" />
<path d="M355.000000,386.899994  A1394.000000,1394.000000 0 0,1 351.000000,386.399994" fill="none" stroke="#2200aa" stroke-width="0.700000" stroke-linecap="round" />
<path d="M308.000000,381.100006  A1394.000000,1394.000000 0 0,1 303.000000,380.399994" fill="none" stroke="#2200aa" stroke-width="0.700000" stroke-linecap="round" />
<path d="M277.000000,376.500000  A1394.000000,1394.000000 0 0,1 266.000000,374.700012" fill="none" stroke="#2200aa" stroke-width="0.700000" stroke-linecap="round" />
<path d="M225.000000,367.000000  A1394.000000,1394.000000 0 0,1 208.000000,363.500000" fill="none" stroke="#2200aa" stroke-width="0.700000" stroke-linecap="round" />
<path d="M187.000000,358.799988  A1394.000000,1394.000000 0 0,1 185.000000,358.399994" fill="none" stroke="#2200aa" stroke-width="0.700000" stroke-linecap="round" />
<path d="M184.000000,358.100006  A1394.000000,1394.000000 0 0,1 169.000000,354.600006" fill="none" stroke="#2200aa" stroke-width="0.700000" stroke-linecap="round" />
<path d="M79.000000,329.399994  A1394.000000,1394.000000 0 0,1 73.000000,327.399994" fill="none" stroke="#2200aa" stroke-width="0.700000" stroke-linecap="round" />
<path d="M348.000000,380.100006  A1388.000000,1388.000000 0 0,1 337.000000,378.799988" fill="none" stroke="#2200aa" stroke-width="0.700000" stroke-linecap="round" />
<path d="M318.000000,376.399994  A1388.000000,1388.000000 0 0,1 306.000000,374.799988" fill="none" stroke="#2200aa" stroke-width="0.700000" stroke-linecap="round" />
<path d="M276.000000,370.200012  A1388.000000,1388.000000 0 0,1 266.000000,368.600006" fill="none" stroke="#2200aa" stroke-width="0.700000" stroke-linecap="round" />
<path d="M229.000000,361.700012  A1388.000000,1388.000000 0 0,1 227.000000,361.299988" fill="none" stroke="#2200aa" stroke-width="0.700000" stroke-linecap="round" />
<path d="M222.000000,360.299988  A1388.000000,1388.000000 0 0,1 220.000000,359.899994" fill="none" stroke="#2200aa" stroke-width="0.700000" stroke-linecap="round" />
<path d="M159.000000,345.899994  A1388.000000,1388.000000 0 0,1 153.000000,344.399994" fill="none" stroke="#2200aa" stroke-width="0.700000" stroke-linecap="round" />
<path d="M88.000000,325.899994  A1388.000000,1388.000000 0 0,1 80.000000,323.399994" fill="none" stroke="#2200aa" stroke-width="0.700000" stroke-linecap="round" />
<path d="M10.000000,299.100006  A1388.000000,1388.000000 0 0,1 8.000000,298.299988" fill="none" stroke="#2200aa" stroke-width="0.700000" stroke-linecap="round" />
<path d="M343.000000,373.500000  A1382.000000,1382.000000 0 0,1 310.000000,369.299988" fill="none" stroke="#2200aa" stroke-width="0.700000" stroke-linecap="round" />
<path d="M275.000000,364.000000  A1382.000000,1382.000000 0 0,1 261.000000,361.600006" fill="none" stroke="#2200aa" stroke-width="0.700000" stroke-linecap="round" />
<path d="M238.000000,357.399994  A1382.000000,1382.000000 0 0,1 236.000000,357.000000" fill="none" stroke="#2200aa" stroke-width="0.700000" stroke-linecap="round" />
<path d="M96.000000,322.100006  A1382.000000,1382.000000 0 0,1 88.000000,319.600006" fill="none" stroke="#2200aa" stroke-width="0.700000" stroke-linecap="round" />
<path d="M17.000000,295.299988  A1382.000000,1382.000000 0 0,1 16.000000,294.899994" fill="none" stroke="#2200aa" stroke-width="0.700000" stroke-linecap="round" />
<path d="M15.000000,294.600006  A1382.000000,1382.000000 0 0,1 8.000000,291.899994" fill="none" stroke="#2200aa" stroke-width="0.700000" stroke-linecap="round" />
<path d="M343.000000,367.399994  A1376.000000,1376.000000 0 0,1 310.000000,363.299988" fill="none" stroke="#2200aa" stroke-width="0.700000" stroke-linecap="round" />
<path d="M274.000000,357.700012  A1376.000000,1376.000000 0 0,1 261.000000,355.500000" fill="none" stroke="#2200aa" stroke-width="0.700000" stroke-linecap="round" />
<path d="M107.000000,319.100006  A1376.000000,1376.000000 0 0,1 96.000000,315.799988" fill="none" stroke="#2200aa" stroke-width="0.700000" stroke-linecap="round" />
<path d="M15.000000,288.100006  A1376.000000,1376.000000 0 0,1 10.000000,286.299988" fill="none" stroke="#2200aa" stroke-width="0.700000" stroke-linecap="round" />
<path d="M383.000000,365.399994  A1370.000000,1370.000000 0 0,1 382.000000,365.299988" fill="none" stroke="#2200aa" stroke-width="0.700000" stroke-linecap="round" />
<path d="M352.000000,362.399994  A1370.000000,1370.000000 0 0,1 351.000000,362.299988" fill="none" stroke="#2200aa" stroke-width="0.700000" stroke-linecap="round" />
<path d="M344.000000,361.500000  A1370.000000,1370.000000 0 0,1 310.000000,357.200012" fill="none" stroke="#2200aa" stroke-width="0.700000" stroke-linecap="round" />
<path d="M273.000000,351.500000  A1370.000000,1370.000000 0 0,1 261.000000,349.399994" fill="none" stroke="#2200aa" stroke-width="0.700000" stroke-linecap="round" />
<path d="M115.000000,315.200012  A1370.000000,1370.000000 0 0,1 108.000000,313.200012" fill="none" stroke="#2200aa" stroke-width="0.700000" stroke-linecap="round" />
<path d="M16.000000,282.100006  A1370.000000,1370.000000 0 0,1 15.000000,281.700012" fill="none" stroke="#2200aa" stroke-width="0.700000" stroke-linecap="round" />
<path d="M388.000000,359.799988  A1364.000000,1364.000000 0 0,1 382.000000,359.299988" fill="none" stroke="#2200aa" stroke-width="0.700000" stroke-linecap="round" />
<path d="M357.000000,356.899994  A1364.000000,1364.000000 0 0,1 308.000000,350.899994" fill="none" stroke="#2200aa" stroke-width="0.700000" stroke-linecap="round" />
<path d="M270.000000,344.899994  A1364.000000,1364.000000 0 0,1 260.000000,343.200012" fill="none" stroke="#2200aa" stroke-width="0.700000" stroke-linecap="round" />
<path d="M126.000000,312.200012  A1364.000000,1364.000000 0 0,1 114.000000,308.700012" fill="none" stroke="#2200aa" stroke-width="0.700000" stroke-linecap="round" />
<path d="M388.000000,353.799988  A1358.000000,1358.000000 0 0,1 379.000000,353.000000" fill="none" stroke="#2200aa" stroke-width="0.700000" stroke-linecap="round" />
<path d="M355.000000,350.700012  A1358.000000,1358.000000 0 0,1 308.000000,344.799988" fill="none" stroke="#2200aa" stroke-width="0.700000" stroke-linecap="round" />
<path d="M266.000000,338.100006  A1358.000000,1358.000000 0 0,1 254.000000,336.000000" fill="none" stroke="#2200aa" stroke-width="0.700000" stroke-linecap="round" />
<path d="M220.000000,329.299988  A1358.000000,1358.000000 0 0,1 215.000000,328.200012" fill="none" stroke="#2200aa" stroke-width="0.700000" stroke-linecap="round" />
<path d="M140.000000,309.899994  A1358.000000,1358.000000 0 0,1 126.000000,305.899994" fill="none" stroke="#2200aa" stroke-width="0.700000" stroke-linecap="round" />
<path d="M410.000000,349.399994  A1352.000000,1352.000000 0 0,1 409.000000,349.399994" fill="none" stroke="#2200aa" stroke-width="0.700000" stroke-linecap="round" />
<path d="M408.000000,349.299988  A1352.000000,1352.000000 0 0,1 407.000000,349.200012" fill="none" stroke="#2200aa" stroke-width="0.700000" stroke-linecap="round" />
<path d="M393.000000,348.200012  A1352.000000,1352.000000 0 0,1 376.000000,346.700012" fill="none" stroke="#2200aa" stroke-width="0.700000" stroke-linecap="round" />
<path d="M351.000000,344.200012  A1352.000000,1352.000000 0 0,1 306.000000,338.399994" fill="none" stroke="#2200aa" stroke-width="0.700000" stroke-linecap="round" />
<path d="M261.000000,331.100006  A1352.000000,1352.000000 0 0,1 245.000000,328.200012" fill="none" stroke="#2200aa" stroke-width="0.700000" stroke-linecap="round" />
<path d="M243.000000,327.799988  A1352.000000,1352.000000 0 0,1 241.000000,327.399994" fill="none" stroke="#2200aa" stroke-width="0.700000" stroke-linecap="round" />
<path d="M224.000000,324.000000  A1352.000000,1352.000000 0 0,1 200.000000,318.700012" fill="none" stroke="#2200aa" stroke-width="0.700000" stroke-linecap="round" />
<path d="M154.000000,307.399994  A1352.000000,1352.000000 0 0,1 135.000000,302.200012" fill="none" stroke="#2200aa" stroke-width="0.700000" stroke-linecap="round" />
<path d="M387.000000,341.700012  A1346.000000,1346.000000 0 0,1 370.000000,340.100006" fill="none" stroke="#2200aa" stroke-width="0.700000" stroke-linecap="round" />
<path d="M347.000000,337.700012  A1346.000000,1346.000000 0 0,1 326.000000,335.100006" fill="none" stroke="#2200aa" stroke-width="0.700000" stroke-linecap="round" />
<path d="M310.000000,333.000000  A1346.000000,1346.000000 0 0,1 304.000000,332.100006" fill="none" stroke="#2200aa" stroke-width="0.700000" stroke-linecap="round" />
<path d="M256.000000,324.100006  A1346.000000,1346.000000 0 0,1 238.000000,320.700012" fill="none" stroke="#2200aa" stroke-width="0.700000" stroke-linecap="round" />
<path d="M236.000000,320.299988  A1346.000000,1346.000000 0 0,1 229.000000,318.899994" fill="none" stroke="#2200aa" stroke-width="0.700000" stroke-linecap="round" />
<path d="M225.000000,318.000000  A1346.000000,1346.000000 0 0,1 198.000000,312.100006" fill="none" stroke="#2200aa" stroke-width="0.700000" stroke-linecap="round" />
<path d="M197.000000,311.899994  A1346.000000,1346.000000 0 0,1 148.000000,299.600006" fill="none" stroke="#2200aa" stroke-width="0.700000" stroke-linecap="round" />
<path d="M377.000000,334.799988  A1340.000000,1340.000000 0 0,1 373.000000,334.399994" fill="none" stroke="#2200aa" stroke-width="0.700000" stroke-linecap="round" />
<path d="M370.000000,334.100006  A1340.000000,1340.000000 0 0,1 366.000000,333.700012" fill="none" stroke="#2200aa" stroke-width="0.700000" stroke-linecap="round" />
<path d="M342.000000,331.100006  A1340.000000,1340.000000 0 0,1 335.000000,330.200012" fill="none" stroke="#2200aa" stroke-width="0.700000" stroke-linecap="round" />
<path d="M308.000000,326.600006  A1340.000000,1340.000000 0 0,1 301.000000,325.600006" fill="none" stroke="#2200aa" stroke-width="0.700000" stroke-linecap="round" />
<path d="M248.000000,316.500000  A1340.000000,1340.000000 0 0,1 163.000000,297.399994" fill="none" stroke="#2200aa" stroke-width="0.700000" stroke-linecap="round" />
<path d="M360.000000,327.100006  A1334.000000,1334.000000 0 0,1 358.000000,326.899994" fill="none" stroke="#2200aa" stroke-width="0.700000" stroke-linecap="round" />
<path d="M343.000000,325.200012  A1334.000000,1334.000000 0 0,1 339.000000,324.700012" fill="none" stroke="#2200aa" stroke-width="0.700000" stroke-linecap="round" />
<path d="M306.000000,320.200012  A1334.000000,1334.000000 0 0,1 299.000000,319.200012" fill="none" stroke="#2200aa" stroke-width="0.700000" stroke-linecap="round" />
<path d="M238.000000,308.500000  A1334.000000,1334.000000 0 0,1 200.000000,300.299988" fill="none" stroke="#2200aa" stroke-width="0.700000" stroke-linecap="round" />
<path d="M198.000000,299.799988  A1334.000000,1334.000000 0 0,1 175.000000,294.200012" fill="none" stroke="#2200aa" stroke-width="0.700000" stroke-linecap="round" />
<path d="M364.000000,321.399994  A1328.000000,1328.000000 0 0,1 342.000000,319.000000" fill="none" stroke="#2200aa" stroke-width="0.700000" stroke-linecap="round" />
<path d="M299.000000,313.100006  A1328.000000,1328.000000 0 0,1 295.000000,312.500000" fill="none" stroke="#2200aa" stroke-width="0.700000" stroke-linecap="round" />
<path d="M215.000000,297.500000  A1328.000000,1328.000000 0 0,1 205.000000,295.299988" fill="none" stroke="#2200aa" stroke-width="0.700000" stroke-linecap="round" />
<path d="M200.000000,294.100006  A1328.000000,1328.000000 0 0,1 197.000000,293.399994" fill="none" stroke="#2200aa" stroke-width="0.700000" stroke-linecap="round" />
<path d="M398.000000,318.500000  A1322.000000,1322.000000 0 0,1 393.000000,318.100006" fill="none" stroke="#2200aa" stroke-width="0.700000" stroke-linecap="round" />
<path d="M372.000000,316.200012  A1322.000000,1322.000000 0 0,1 344.000000,313.200012" fill="none" stroke="#2200aa" stroke-width="0.700000" stroke-linecap="round" />
<path d="M297.000000,306.799988  A1322.000000,1322.000000 0 0,1 294.000000,306.299988" fill="none" stroke="#2200aa" stroke-width="0.700000" stroke-linecap="round" />
<path d="M399.000000,312.500000  A1316.000000,1316.000000 0 0,1 389.000000,311.700012" fill="none" stroke="#2200aa" stroke-width="0.700000" stroke-linecap="round" />
<path d="M347.000000,307.500000  A1316.000000,1316.000000 0 0,1 344.000000,307.200012" fill="none" stroke="#2200aa" stroke-width="0.700000" stroke-linecap="round" />
<path d="M295.000000,300.399994  A1316.000000,1316.000000 0 0,1 293.000000,300.100006" fill="none" stroke="#2200aa" stroke-width="0.700000" stroke-linecap="round" />
<path d="M399.000000,306.500000  A1310.000000,1310.000000 0 0,1 387.000000,305.500000" fill="none" stroke="#2200aa" stroke-width="0.700000" stroke-linecap="round" />
<path d="M401.000000,300.700012  A1304.000000,1304.000000 0 0,1 377.000000,298.600006" fill="none" stroke="#2200aa" stroke-width="0.700000" stroke-linecap="round" />
<path d="M405.000000,294.899994  A1298.000000,1298.000000 0 0,1 372.000000,292.100006" fill="none" stroke="#2200aa" stroke-width="0.700000" stroke-linecap="round" />
<path d="M344.000000,289.000000  A1298.000000,1298.000000 0 0,1 342.000000,288.799988" fill="none" stroke="#2200aa" stroke-width="0.700000" stroke-linecap="round" />
<path d="M406.000000,289.000000  A1292.000000,1292.000000 0 0,1 361.000000,284.899994" fill="none" stroke="#2200aa" stroke-width="0.700000" stroke-linecap="round" />
<path d="M407.000000,283.100006  A1286.000000,1286.000000 0 0,1 339.000000,276.299988" fill="none" stroke="#2200aa" stroke-width="0.700000" stroke-linecap="round" />
<path d="M409.000000,277.200012  A1280.000000,1280.000000 0 0,1 339.000000,270.299988" fill="none" stroke="#2200aa" stroke-width="0.700000" stroke-linecap="round" />
<path d="M410.000000,271.200012  A1274.000000,1274.000000 0 0,1 339.000000,264.200012" fill="none" stroke="#2200aa" stroke-width="0.700000" stroke-linecap="round" />
<path d="M406.000000,264.899994  A1268.000000,1268.000000 0 0,1 339.000000,258.200012" fill="none" stroke="#2200aa" stroke-width="0.700000" stroke-linecap="round" />
<path d="M405.000000,258.799988  A1262.000000,1262.000000 0 0,1 344.000000,252.800003" fill="none" stroke="#2200aa" stroke-width="0.700000" stroke-linecap="round" />
<path d="M401.000000,252.500000  A1256.000000,1256.000000 0 0,1 368.000000,249.500000" fill="none" stroke="#2200aa" stroke-width="0.700000" stroke-linecap="round" />
<path d="M366.000000,249.300003  A1256.000000,1256.000000 0 0,1 364.000000,249.000000" fill="none" stroke="#2200aa" stroke-width="0.700000" stroke-linecap="round" />
<path d="M362.000000,248.800003  A1256.000000,1256.000000 0 0,1 350.000000,247.399994" fill="none" stroke="#2200aa" stroke-width="0.700000" stroke-linecap="round" />
<path d="M398.000000,246.300003  A1250.000000,1250.000000 0 0,1 368.000000,243.399994" fill="none" stroke="#2200aa" stroke-width="0.700000" stroke-linecap="round" />
<path d="M361.000000,242.699997  A1250.000000,1250.000000 0 0,1 353.000000,241.800003" fill="none" stroke="#2200aa" stroke-width="0.700000" stroke-linecap="round" />
<path d="M395.000000,240.000000  A1244.000000,1244.000000 0 0,1 371.000000,237.699997" fill="none" stroke="#2200aa" stroke-width="0.700000" stroke-linecap="round" />
<path d="M358.000000,236.300003  A1244.000000,1244.000000 0 0,1 357.000000,236.199997" fill="none" stroke="#2200aa" stroke-width="0.700000" stroke-linecap="round" />
<path d="M393.000000,233.800003  A1238.000000,1238.000000 0 0,1 377.000000,232.300003" fill="none" stroke="#2200aa" stroke-width="0.700000" stroke-linecap="round" />
<path d="M391.000000,227.600006  A1232.000000,1232.000000 0 0,1 378.000000,226.399994" fill="none" stroke="#2200aa" stroke-width="0.700000" stroke-linecap="round" />
<path d="M389.000000,221.399994  A1226.000000,1226.000000 0 0,1 385.000000,221.000000" fill="none" stroke="#2200aa" stroke-width="0.700000" stroke-linecap="round" />
</g></svg>
