<?xml version="1.0" encoding="utf-8"?>
<!-- Generator: Adobe Illustrator 22.0.0, SVG Export Plug-In . SVG Version: 6.00 Build 0)  -->
<svg version="1.0" id="Layer_1" xmlns="http://www.w3.org/2000/svg" xmlns:xlink="http://www.w3.org/1999/xlink" x="0px" y="0px"
	 width="1190.6px" height="1683.8px" viewBox="0 0 1190.6 1683.8" enable-background="new 0 0 1190.6 1683.8" xml:space="preserve">
<g>
	<g transform="matrix(1,0,0,1,20,20) translate(290,580)">
		<rect x="-20.7" y="-5" fill="none" stroke="#010101" stroke-linecap="round" stroke-miterlimit="10" width="280" height="280"/>
		<path fill="#4EC3C7" d="M66.9,82.7V20.5C32.7,20.5,5,48.2,5,82.4c0,0.1,0,0.2,0,0.3H66.9z"/>
	</g>
	<g transform="matrix(1,0,0,1,325,615) translate(86.3333,3) scale(1.0907,1.0907)">
		<rect x="-12.6" y="1.8" fill="#FAAC1C" width="58" height="58"/>
	</g>
	<g transform="matrix(1,0,0,1,325,615) translate(169.6667,3) scale(1.0907,1.0907)">
		<path fill="#EF4723" d="M36,59.8H-3.2c-5.2,0-9.4-4.2-9.4-9.4V11.2c0-5.2,4.2-9.4,9.4-9.4H36c5.2,0,9.4,4.2,9.4,9.4v39.2
			C45.4,55.6,41.2,59.8,36,59.8z"/>
	</g>
	<g transform="matrix(1,0,0,1,325,615) translate(3,86.3333) scale(1.0907,1.0907)">
		<circle fill="#EC3186" cx="16.4" cy="30.8" r="28.8"/>
	</g>
	<g transform="matrix(1,0,0,1,325,615) translate(86.3333,86.3333) scale(1.0907,1.0907)">
		<path fill="#4FB848" d="M16.4,4.5L-14,57.2h60.9L16.4,4.5z"/>
	</g>
	<g transform="matrix(1,0,0,1,325,615) translate(169.6667,86.3333) scale(1.0907,1.0907)">
		<path fill="#499DD6" d="M16.4,2.1C0.6,2.1-12.3,15-12.3,30.8S0.6,59.5,16.5,59.5s28.7-12.9,28.7-28.7S32.3,2.1,16.4,2.1z
			 M16.4,42.5c-6.4,0-11.7-5.2-11.7-11.7S10,19.2,16.4,19.2s11.7,5.2,11.7,11.7S22.9,42.5,16.4,42.5z"/>
	</g>
	<g transform="matrix(1,0,0,1,325,615) translate(3,169.6667) scale(1.0907,1.0907)">
		<path fill="#4EC3C7" d="M47.9,10h-63v21H6v20.7h20.8V31h21.1V10z"/>
	</g>
	<g transform="matrix(1,0,0,1,325,615) translate(86.3333,169.6667) scale(1.0907,1.0907)">
		<path fill="#51B848" d="M34.4,4.9h-18v33.8h-18v18h35.9l0,0h0.1V4.9z"/>
	</g>
	<g transform="matrix(1,0,0,1,325,615) translate(169.6667,169.6667) scale(1.0907,1.0907)">
		<path fill="#9D6EAF" d="M16.5,20.3V-2H-5.9v43h22.3v22.7h22.3V20.3H16.5z"/>
	</g>
	<g transform="matrix(1,0,0,1,20,20) translate(580,580)">
		<rect x="-20.7" y="-5" fill="none" stroke="#010101" stroke-linecap="round" stroke-miterlimit="10" width="280" height="280"/>
		<path fill="#4FB848" d="M35.9,22.9L2.7,80.4h66.4L35.9,22.9z"/>
	</g>
	<g transform="matrix(1,0,0,1,615,615) translate(169.6667,3) scale(1.0907,1.0907)">
		<circle fill="#EC3186" cx="16.4" cy="30.8" r="28.8"/>
	</g>
	<g transform="matrix(1,0,0,1,615,615) translate(3,86.3333) scale(1.0907,1.0907)">
		<path fill="#51B848" d="M34.4,4.9h-18v33.8h-18v18h35.9l0,0h0.1V4.9z"/>
	</g>
	<g transform="matrix(1,0,0,1,615,615) translate(86.3333,86.3333) scale(1.0907,1.0907)">
		<path fill="#9D6EAF" d="M16.5,20.3V-2H-5.9v43h22.3v22.7h22.3V20.3H16.5z"/>
	</g>
	<g transform="matrix(1,0,0,1,615,615) translate(169.6667,86.3333) scale(1.0907,1.0907)">
		<path fill="#4EC3C7" d="M47.9,10h-63v21H6v20.7h20.8V31h21.1V10z"/>
	</g>
	<g transform="matrix(1,0,0,1,615,615) translate(3,169.6667) scale(1.0907,1.0907)">
		<rect x="-12.6" y="1.8" fill="#FAAC1C" width="58" height="58"/>
	</g>
	<g transform="matrix(1,0,0,1,615,615) translate(169.6667,169.6667) scale(1.0907,1.0907)">
		<path fill="#4EC3C7" d="M44.8,59.3v-57C13.5,2.3-11.9,27.7-11.9,59c0,0.1,0,0.2,0,0.3H44.8z"/>
	</g>
</g>
</svg>
