<?xml version="1.0" encoding="utf-8"?>
<!-- Generator: Adobe Illustrator 22.0.0, SVG Export Plug-In . SVG Version: 6.00 Build 0)  -->
<svg version="1.0" id="Layer_1" xmlns="http://www.w3.org/2000/svg" xmlns:xlink="http://www.w3.org/1999/xlink" x="0px" y="0px"
	 width="1190.6px" height="1683.8px" viewBox="0 0 1190.6 1683.8" enable-background="new 0 0 1190.6 1683.8" xml:space="preserve">
<g transform="translate(20,20)">
	<rect x="435.3" y="682" fill="#F1F0F0" width="280" height="280"/>
	<rect x="435.3" y="682" fill="none" stroke="#010101" stroke-linecap="round" stroke-miterlimit="10" width="280" height="280"/>
	<path fill="#4EC3C7" d="M526.2,715.9h-68.7v22.9h23v22.6h22.7v-22.6h23V715.9z"/>
</g>
<g transform="matrix(1,0,0,1,35,35) translate(86.3333,3) scale(1.0907,1.0907)">
	<rect x="405.5" y="631.7" fill="#FAAC1C" width="58" height="58"/>
</g>
<g transform="matrix(1,0,0,1,35,35) translate(169.6667,3) scale(1.0907,1.0907)">
	<path fill="#EF4723" d="M454.1,689.7h-39.2c-5.2,0-9.4-4.2-9.4-9.4v-39.2c0-5.2,4.2-9.4,9.4-9.4h39.2c5.2,0,9.4,4.2,9.4,9.4v39.2
		C463.5,685.5,459.3,689.7,454.1,689.7z"/>
</g>
<g transform="matrix(1,0,0,1,35,35) translate(3,86.3333) scale(1.0907,1.0907)">
	<path fill="#4EC3C7" d="M462.9,689.2v-57c-31.3,0-56.7,25.4-56.7,56.7c0,0.1,0,0.2,0,0.3H462.9z"/>
</g>
<g transform="matrix(1,0,0,1,35,35) translate(169.6667,86.3333) scale(1.0907,1.0907)">
	<path fill="#499DD6" d="M434.5,632c-15.8,0-28.7,12.9-28.7,28.7c0,15.8,12.9,28.7,28.8,28.7c15.9,0,28.7-12.9,28.7-28.7
		C463.3,644.9,450.4,632,434.5,632z M434.5,672.4c-6.4,0-11.7-5.2-11.7-11.7s5.3-11.6,11.7-11.6c6.4,0,11.7,5.2,11.7,11.7
		S441,672.4,434.5,672.4z"/>
</g>
<g transform="matrix(1,0,0,1,35,35) translate(3,169.6667) scale(1.0907,1.0907)">
	<circle fill="#EC3186" cx="434.5" cy="660.7" r="28.8"/>
</g>
<g transform="matrix(1,0,0,1,35,35) translate(86.3333,169.6667) scale(1.0907,1.0907)">
	<path fill="#51B848" d="M452.5,634.8h-18v33.8h-18v18h35.9l0,0h0.1V634.8z"/>
</g>
<g transform="matrix(1,0,0,1,35,35) translate(169.6667,169.6667) scale(1.0907,1.0907)">
	<path fill="#9D6EAF" d="M434.6,650.2v-22.3h-22.4v43h22.3v22.7h22.3v-43.4H434.6z"/>
</g>
</svg>
