<?xml version="1.0" encoding="utf-8"?>
<!-- Generator: Adobe Illustrator 22.0.0, SVG Export Plug-In . SVG Version: 6.00 Build 0)  -->
<svg version="1.0" id="Layer_1" xmlns="http://www.w3.org/2000/svg" xmlns:xlink="http://www.w3.org/1999/xlink" x="0px" y="0px"
	 width="1190.6px" height="1683.8px" viewBox="0 0 1190.6 1683.8" enable-background="new 0 0 1190.6 1683.8" xml:space="preserve">
<g transform="matrix(1,0,0,1,20,20) translate(0,290)">
	<rect x="290.3" y="392" fill="none" stroke="#010101" stroke-linecap="round" stroke-miterlimit="10" width="280" height="280"/>
	<path fill="#499DD6" d="M346.9,417.3c-17.2,0-31.3,14.1-31.3,31.3s14.1,31.3,31.4,31.3s31.3-14.1,31.3-31.3
		S364.2,417.3,346.9,417.3z M346.9,461.4c-7,0-12.8-5.7-12.8-12.8c0-7.1,5.8-12.7,12.8-12.7c7,0,12.8,5.7,12.8,12.8
		C359.6,455.8,354,461.4,346.9,461.4z"/>
</g>
<g transform="matrix(1,0,0,1,35,325) translate(86.3333,3) scale(1.0907,1.0907)">
	<circle fill="#EC3186" cx="301.5" cy="394.8" r="28.8"/>
</g>
<g transform="matrix(1,0,0,1,35,325) translate(169.6667,3) scale(1.0907,1.0907)">
	<path fill="#51B848" d="M319.5,368.9h-18v33.8h-18v18h35.9l0,0h0.1V368.9z"/>
</g>
<g transform="matrix(1,0,0,1,35,325) translate(3,86.3333) scale(1.0907,1.0907)">
	<path fill="#EF4723" d="M321.1,423.8h-39.2c-5.2,0-9.4-4.2-9.4-9.4v-39.2c0-5.2,4.2-9.4,9.4-9.4h39.2c5.2,0,9.4,4.2,9.4,9.4v39.2
		C330.5,419.6,326.3,423.8,321.1,423.8z"/>
</g>
<g transform="matrix(1,0,0,1,35,325) translate(86.3333,86.3333) scale(1.0907,1.0907)">
	<path fill="#4EC3C7" d="M329.9,423.3v-57c-31.3,0-56.7,25.4-56.7,56.7c0,0.1,0,0.2,0,0.3H329.9z"/>
</g>
<g transform="matrix(1,0,0,1,35,325) translate(169.6667,86.3333) scale(1.0907,1.0907)">
	<path fill="#4FB848" d="M301.5,368.5l-30.4,52.7H332L301.5,368.5z"/>
</g>
<g transform="matrix(1,0,0,1,35,325) translate(3,169.6667) scale(1.0907,1.0907)">
	<path fill="#9D6EAF" d="M301.6,384.3V362h-22.4v43h22.3v22.7h22.3v-43.4H301.6z"/>
</g>
<g transform="matrix(1,0,0,1,35,325) translate(86.3333,169.6667) scale(1.0907,1.0907)">
	<path fill="#4EC3C7" d="M333,374h-63v21h21.1v20.7h20.8V395H333V374z"/>
</g>
<g transform="matrix(1,0,0,1,35,325) translate(169.6667,169.6667) scale(1.0907,1.0907)">
	<rect x="272.5" y="365.8" fill="#FAAC1C" width="58" height="58"/>
</g>
<g transform="matrix(1,0,0,1,20,20) translate(290,290)">
	<rect x="290.3" y="392" fill="none" stroke="#010101" stroke-linecap="round" stroke-miterlimit="10" width="280" height="280"/>
	<rect x="315.3" y="417" fill="#FAAC1C" width="63.3" height="63.3"/>
</g>
<g transform="matrix(1,0,0,1,325,325) translate(86.3333,3) scale(1.0907,1.0907)">
	<path fill="#4EC3C7" d="M333,374h-63v21h21.1v20.7h20.8V395H333V374z"/>
</g>
<g transform="matrix(1,0,0,1,325,325) translate(169.6667,3) scale(1.0907,1.0907)">
	<path fill="#9D6EAF" d="M301.6,384.3V362h-22.4v43h22.3v22.7h22.3v-43.4H301.6z"/>
</g>
<g transform="matrix(1,0,0,1,325,325) translate(86.3333,86.3333) scale(1.0907,1.0907)">
	<path fill="#499DD6" d="M301.5,366.1c-15.8,0-28.7,12.9-28.7,28.7c0,15.8,12.9,28.7,28.8,28.7s28.7-12.9,28.7-28.7
		C330.3,379,317.4,366.1,301.5,366.1z M301.5,406.5c-6.4,0-11.7-5.2-11.7-11.7s5.3-11.6,11.7-11.6c6.4,0,11.7,5.2,11.7,11.7
		S308,406.5,301.5,406.5z"/>
</g>
<g transform="matrix(1,0,0,1,325,325) translate(169.6667,86.3333) scale(1.0907,1.0907)">
	<circle fill="#EC3186" cx="301.5" cy="394.8" r="28.8"/>
</g>
<g transform="matrix(1,0,0,1,325,325) translate(3,169.6667) scale(1.0907,1.0907)">
	<path fill="#4FB848" d="M301.5,368.5l-30.4,52.7H332L301.5,368.5z"/>
</g>
<g transform="matrix(1,0,0,1,325,325) translate(86.3333,169.6667) scale(1.0907,1.0907)">
	<path fill="#EF4723" d="M321.1,423.8h-39.2c-5.2,0-9.4-4.2-9.4-9.4v-39.2c0-5.2,4.2-9.4,9.4-9.4h39.2c5.2,0,9.4,4.2,9.4,9.4v39.2
		C330.5,419.6,326.3,423.8,321.1,423.8z"/>
</g>
<g transform="matrix(1,0,0,1,20,20) translate(580,290)">
	
		<rect x="-289.8" y="688.1" fill="none" stroke="#010101" stroke-linecap="round" stroke-miterlimit="10" width="280" height="280"/>
	<path fill="#EF4723" d="M-211.8,776.3h-42.8c-5.7,0-10.3-4.6-10.3-10.3v-42.8c0-5.7,4.6-10.3,10.3-10.3h42.8
		c5.7,0,10.3,4.6,10.3,10.3v42.8C-201.6,771.7-206.2,776.3-211.8,776.3z"/>
</g>
<g transform="matrix(1,0,0,1,615,325) translate(86.3333,3) scale(1.0907,1.0907)">
	<path fill="#4EC3C7" d="M-201.9,694.8v-57c-31.3,0-56.7,25.4-56.7,56.7c0,0.1,0,0.2,0,0.3H-201.9z"/>
</g>
<g transform="matrix(1,0,0,1,615,325) translate(169.6667,3) scale(1.0907,1.0907)">
	<path fill="#4FB848" d="M-230.3,640l-30.4,52.7h60.9L-230.3,640z"/>
</g>
<g transform="matrix(1,0,0,1,615,325) translate(3,86.3333) scale(1.0907,1.0907)">
	<path fill="#9D6EAF" d="M-230.2,655.8v-22.3h-22.4v43h22.3v22.7h22.3v-43.4H-230.2z"/>
</g>
<g transform="matrix(1,0,0,1,615,325) translate(86.3333,86.3333) scale(1.0907,1.0907)">
	<path fill="#4EC3C7" d="M-198.8,645.5h-63v21h21.1v20.7h20.8v-20.7h21.1V645.5z"/>
</g>
<g transform="matrix(1,0,0,1,615,325) translate(3,169.6667) scale(1.0907,1.0907)">
	<path fill="#499DD6" d="M-230.3,637.6c-15.8,0-28.7,12.9-28.7,28.7s12.9,28.7,28.8,28.7s28.7-12.9,28.7-28.7
		S-214.4,637.6-230.3,637.6z M-230.3,678c-6.4,0-11.7-5.2-11.7-11.7s5.3-11.6,11.7-11.6c6.4,0,11.7,5.2,11.7,11.7
		S-223.8,678-230.3,678z"/>
</g>
<g transform="matrix(1,0,0,1,615,325) translate(86.3333,169.6667) scale(1.0907,1.0907)">
	<circle fill="#EC3186" cx="-230.3" cy="666.3" r="28.8"/>
</g>
<g transform="matrix(1,0,0,1,615,325) translate(169.6667,169.6667) scale(1.0907,1.0907)">
	<path fill="#51B848" d="M-212.3,640.4h-18v33.8h-18v18h35.9l0,0h0.1V640.4z"/>
</g>
<g transform="matrix(1,0,0,1,20,20) translate(0,580)">
	<rect x="580.4" y="398.1" fill="none" stroke="#010101" stroke-linecap="round" stroke-miterlimit="10" width="280" height="280"/>
	<path fill="#51B848" d="M656.6,426.4H637v36.9h-19.6v19.6h39.2l0,0h0.1V426.4z"/>
</g>
<g transform="matrix(1,0,0,1,35,615) translate(169.6667,3) scale(1.0907,1.0907)">
	<path fill="#4EC3C7" d="M599,379.6h-63v21h21.1v20.7h20.8v-20.7H599V379.6z"/>
</g>
<g transform="matrix(1,0,0,1,35,615) translate(3,86.3333) scale(1.0907,1.0907)">
	<rect x="538.5" y="371.4" fill="#FAAC1C" width="58" height="58"/>
</g>
<g transform="matrix(1,0,0,1,35,615) translate(86.3333,86.3333) scale(1.0907,1.0907)">
	<path fill="#EF4723" d="M587.1,429.4h-39.2c-5.2,0-9.4-4.2-9.4-9.4v-39.2c0-5.2,4.2-9.4,9.4-9.4h39.2c5.2,0,9.4,4.2,9.4,9.4V420
		C596.5,425.2,592.3,429.4,587.1,429.4z"/>
</g>
<g transform="matrix(1,0,0,1,35,615) translate(169.6667,86.3333) scale(1.0907,1.0907)">
	<path fill="#4EC3C7" d="M595.9,428.9v-57c-31.3,0-56.7,25.4-56.7,56.7c0,0.1,0,0.2,0,0.3H595.9z"/>
</g>
<g transform="matrix(1,0,0,1,35,615) translate(3,169.6667) scale(1.0907,1.0907)">
	<path fill="#4FB848" d="M567.5,374.1l-30.4,52.7H598L567.5,374.1z"/>
</g>
<g transform="matrix(1,0,0,1,35,615) translate(86.3333,169.6667) scale(1.0907,1.0907)">
	<path fill="#499DD6" d="M567.5,371.7c-15.8,0-28.7,12.9-28.7,28.7c0,15.8,12.9,28.7,28.8,28.7s28.7-12.9,28.7-28.7
		C596.3,384.6,583.4,371.7,567.5,371.7z M567.5,412.1c-6.4,0-11.7-5.2-11.7-11.7s5.3-11.6,11.7-11.6c6.4,0,11.7,5.2,11.7,11.7
		S574,412.1,567.5,412.1z"/>
</g>
<g transform="matrix(1,0,0,1,35,615) translate(169.6667,169.6667) scale(1.0907,1.0907)">
	<circle fill="#EC3186" cx="567.5" cy="400.4" r="28.8"/>
</g>
</svg>
