<?xml version="1.0" encoding="utf-8"?>
<!-- Generator: Adobe Illustrator 22.0.0, SVG Export Plug-In . SVG Version: 6.00 Build 0)  -->
<svg version="1.0" id="Layer_1" xmlns="http://www.w3.org/2000/svg" xmlns:xlink="http://www.w3.org/1999/xlink" x="0px" y="0px"
	 width="1190.6px" height="1683.8px" viewBox="0 0 1190.6 1683.8" enable-background="new 0 0 1190.6 1683.8" xml:space="preserve">
<g transform="matrix(1,0,0,1,20,20) translate(290,0)">
	<rect x="0.3" y="682" fill="#FFFFFF" width="280" height="280"/>
	<rect x="0.3" y="682" fill="none" stroke="#010101" stroke-linecap="round" stroke-miterlimit="10" width="280" height="280"/>
	<path fill="#499DD6" d="M56.9,707.3c-17.2,0-31.3,14.1-31.3,31.3c0,17.2,14.1,31.3,31.4,31.3s31.3-14.1,31.3-31.3
		C88.3,721.4,74.2,707.3,56.9,707.3z M56.9,751.4c-7,0-12.8-5.7-12.8-12.8S49.9,726,56.9,726s12.8,5.7,12.8,12.8
		S64,751.4,56.9,751.4z"/>
</g>
<g transform="matrix(1,0,0,1,325,35) translate(86.3333,3) scale(1.0907,1.0907)">
	<path fill="#4EC3C7" d="M64.1,689.2v-57c-31.3,0-56.7,25.4-56.7,56.7c0,0.1,0,0.2,0,0.3H64.1z"/>
</g>
<g transform="matrix(1,0,0,1,325,35) translate(169.6667,3) scale(1.0907,1.0907)">
	<path fill="#4FB848" d="M35.7,634.4L5.3,687.1h60.9L35.7,634.4z"/>
</g>
<g transform="matrix(1,0,0,1,325,35) translate(3,86.3333) scale(1.0907,1.0907)">
	<path fill="#9D6EAF" d="M35.8,650.2v-22.3H13.4v43h22.3v22.7H58v-43.4H35.8z"/>
</g>
<g transform="matrix(1,0,0,1,325,35) translate(86.3333,86.3333) scale(1.0907,1.0907)">
	<circle fill="#EC3186" cx="35.7" cy="660.7" r="28.8"/>
</g>
<g transform="matrix(1,0,0,1,325,35) translate(169.6667,86.3333) scale(1.0907,1.0907)">
	<path fill="#51B848" d="M53.7,634.8h-18v33.8h-18v18h35.9l0,0h0.1V634.8z"/>
</g>
<g transform="matrix(1,0,0,1,325,35) translate(3,169.6667) scale(1.0907,1.0907)">
	<path fill="#EF4723" d="M55.3,689.7H16.1c-5.2,0-9.4-4.2-9.4-9.4v-39.2c0-5.2,4.2-9.4,9.4-9.4h39.2c5.2,0,9.4,4.2,9.4,9.4v39.2
		C64.7,685.5,60.5,689.7,55.3,689.7z"/>
</g>
<g transform="matrix(1,0,0,1,325,35) translate(169.6667,169.6667) scale(1.0907,1.0907)">
	<rect x="6.7" y="631.7" fill="#FAAC1C" width="58" height="58"/>
</g>
<g transform="matrix(1,0,0,1,20,20) translate(580,0)">
	<rect x="0.3" y="682" fill="none" stroke="#010101" stroke-linecap="round" stroke-miterlimit="10" width="280" height="280"/>
</g>
<g transform="matrix(1,0,0,1,615,35) translate(86.3333,3) scale(1.0907,1.0907)">
	<path fill="#51B848" d="M53.7,634.8h-18v33.8h-18v18h35.9l0,0h0.1V634.8z"/>
</g>
<g transform="matrix(1,0,0,1,615,35) translate(169.6667,3) scale(1.0907,1.0907)">
	<path fill="#9D6EAF" d="M35.8,650.2v-22.3H13.4v43h22.3v22.7H58v-43.4H35.8z"/>
</g>
<g transform="matrix(1,0,0,1,615,35) translate(3,86.3333) scale(1.0907,1.0907)">
	<path fill="#4EC3C7" d="M67.2,639.9h-63v21h21.1v20.7h20.8v-20.7h21.1V639.9z"/>
</g>
<g transform="matrix(1,0,0,1,615,35) translate(86.3333,86.3333) scale(1.0907,1.0907)">
	<rect x="6.7" y="631.7" fill="#FAAC1C" width="58" height="58"/>
</g>
<g transform="matrix(1,0,0,1,615,35) translate(169.6667,86.3333) scale(1.0907,1.0907)">
	<path fill="#EF4723" d="M55.3,689.7H16.1c-5.2,0-9.4-4.2-9.4-9.4v-39.2c0-5.2,4.2-9.4,9.4-9.4h39.2c5.2,0,9.4,4.2,9.4,9.4v39.2
		C64.7,685.5,60.5,689.7,55.3,689.7z"/>
</g>
<g transform="matrix(1,0,0,1,615,35) translate(3,169.6667) scale(1.0907,1.0907)">
	<path fill="#4EC3C7" d="M64.1,689.2v-57c-31.3,0-56.7,25.4-56.7,56.7c0,0.1,0,0.2,0,0.3H64.1z"/>
</g>
<g transform="matrix(1,0,0,1,615,35) translate(86.3333,169.6667) scale(1.0907,1.0907)">
	<path fill="#4FB848" d="M35.7,634.4L5.3,687.1h60.9L35.7,634.4z"/>
</g>
<g transform="matrix(1,0,0,1,615,35) translate(169.6667,169.6667) scale(1.0907,1.0907)">
	<path fill="#499DD6" d="M35.7,632C19.9,632,7,644.9,7,660.7c0,15.8,12.9,28.7,28.8,28.7s28.7-12.9,28.7-28.7
		C64.5,644.9,51.6,632,35.7,632z M35.7,672.4c-6.4,0-11.7-5.2-11.7-11.7s5.3-11.6,11.7-11.6s11.7,5.2,11.7,11.7
		S42.2,672.4,35.7,672.4z"/>
</g>
</svg>
